 <svg  version="1.0" xmlns="http://www.w3.org/2000/svg"  width="300.000000pt" height="381.000000pt" viewBox="0 0 300.000000 381.000000"  preserveAspectRatio="xMidYMid meet">  <g transform="translate(0.000000,381.000000) scale(0.100000,-0.100000)" fill="#325096" stroke="none"> <path d="M172 3668 c-156 -155 -177 -184 -163 -220 11 -28 738 -753 764 -762 25 -8 77 16 112 53 l29 32 187 -187 186 -186 -13 -36 c-17 -47 -17 -87 0 -133 l13 -37 -178 -178 -178 -178 -55 52 c-39 37 -63 52 -83 52 -23 0 -89 -62 -405 -377 -351 -351 -378 -380 -378 -412 0 -31 15 -49 147 -183 135 -135 150 -148 183 -148 33 0 57 22 408 373 422 423 406 400 332 481 -22 24 -40 47 -40 52 0 5 80 89 179 188 161 160 181 177 199 167 28 -15 124 -14 157 1 26 12 31 7 205 -172 l177 -185 -37 -45 c-45 -56 -53 -75 -39 -103 6 -12 176 -187 377 -389 342 -343 369 -368 402 -368 31 0 48 14 187 157 106 109 153 164 153 180 0 16 -103 126 -377 403 -435 438 -402 416 -498 328 l-56 -51 -182 180 c-174 174 -181 182 -169 205 9 16 12 48 8 104 l-5 80 184 184 185 184 43 -42 c33 -33 50 -42 77 -42 32 0 62 27 407 372 205 205 376 381 379 390 9 30 -22 71 -165 211 -122 119 -145 137 -173 137 -30 0 -69 -36 -405 -373 -427 -426 -406 -395 -326 -492 l47 -56 -187 -187 c-180 -180 -187 -185 -212 -174 -33 15 -117 15 -150 0 -25 -11 -32 -6 -211 173 -101 101 -184 188 -184 193 0 5 20 31 45 57 29 32 45 57 45 74 0 21 -75 103 -371 405 -204 208 -378 381 -386 384 -34 13 -53 -1 -191 -136z"/> <path d="M1405 2776 c-47 -15 -115 -57 -115 -71 0 -6 26 -36 58 -68 l58 -58 55 7 c30 3 71 2 92 -4 l38 -11 65 67 64 67 -27 23 c-69 55 -197 77 -288 48z"/> <path d="M1066 2390 c-73 -155 -153 -419 -138 -458 3 -9 57 38 146 127 l142 142 -3 91 -2 92 -50 50 -50 50 -45 -94z"/> <path d="M1836 2437 l-49 -43 -1 -90 -1 -89 139 -148 c86 -92 143 -144 148 -139 22 22 -60 298 -136 458 -25 52 -46 94 -48 94 -2 0 -26 -19 -52 -43z"/> <path d="M1272 1881 c-78 -82 -142 -151 -142 -154 0 -2 14 -21 30 -42 37 -47 40 -103 9 -155 -12 -19 -71 -83 -131 -141 l-109 -106 -35 -139 c-19 -76 -50 -195 -69 -264 -53 -195 -135 -521 -135 -536 0 -12 51 -14 299 -14 l299 0 4 188 c3 174 5 190 26 223 29 47 80 72 160 77 76 5 140 -11 177 -45 49 -46 55 -77 55 -268 l0 -175 300 0 c254 0 300 2 300 14 0 17 -55 234 -135 531 -31 115 -68 254 -82 310 l-25 100 -108 105 c-59 58 -118 121 -129 140 -35 58 -27 124 22 178 l21 23 -144 144 -144 144 -61 -2 c-33 -1 -72 1 -86 5 -23 7 -38 -6 -167 -141z"/> <path d="M458 260 c-21 -17 -23 -26 -22 -121 1 -94 4 -104 24 -121 21 -17 73 -18 1042 -18 l1019 0 24 25 c23 22 25 32 25 118 0 79 -3 96 -20 114 l-19 21 -1026 0 c-976 0 -1026 -1 -1047 -18z"/> </g> </svg> 