<svg xmlns="http://www.w3.org/2000/svg" viewBox="0 0 1000 1270">
<path fill="#000000" d="m114.75-.5 2.422-.156c9.458 2.194 16.81 12.443 23.39 19.156a2981 2981 0 0 0 8.14 8.247c3.614 3.631 7.37 6.97 11.298 10.253l5 6q1.723 1.53 3.5 3c3.264 2.701 5.785 5.742 8.5 9q1.661 1.468 3.375 2.875c2.403 1.992 4.457 4.014 6.448 6.415 5.21 6.027 10.93 11.556 16.584 17.162q3.137 3.11 6.265 6.229 8.891 8.853 17.796 17.691 5.465 5.426 10.917 10.862a2128 2128 0 0 0 4.162 4.132q2.896 2.869 5.78 5.75l1.753 1.726c3.92 3.93 3.92 3.93 3.92 6.158l3 1c1.38 1.404 1.38 1.404 2.898 3.273 3.2 3.77 6.572 7.286 10.079 10.766l1.626 1.617q2.509 2.487 5.022 4.969 3.336 3.297 6.664 6.602c.5.49.998.981 1.512 1.487 2.423 2.405 4.715 4.859 6.876 7.498 2.078 2.493 4.214 4.376 6.737 6.393 2.45 2.155 4.468 4.648 6.574 7.133 3.175 3.57 6.63 6.849 10.07 10.16C317 197 317 197 317 199l3 1c1.43 1.453 1.43 1.453 2.875 3.25 2.529 3.123 5.26 5.932 8.125 8.75 5.19 5.115 10.306 10.218 15.04 15.762 2.004 2.289 4.079 4.504 6.166 6.719 4.839 5.152 9.468 10.414 13.856 15.957l1.373 1.717c7.244 9.301 7.244 9.301 6.69 15.032-1.64 10.4-10.22 18.456-17.125 25.813a467 467 0 0 0-5.488 6.258 173 173 0 0 1-4.012 4.43c-1.745 2.183-1.745 2.183-1.34 4.664 1.026 3.234 2.457 4.868 4.777 7.336l2.458 2.628a500 500 0 0 0 10.05 10.067 132 132 0 0 1 5.737 6.295c3.664 4.2 7.52 8.165 11.466 12.1l2.21 2.214q3.578 3.584 7.162 7.16l5 5.003q5.219 5.22 10.442 10.437 6.704 6.698 13.4 13.404 5.151 5.156 10.307 10.307 2.474 2.472 4.944 4.946 3.44 3.443 6.886 6.88l2.07 2.076 1.89 1.881 1.643 1.642c1.392 1.382 1.392 1.382 3.398 2.272v2l1.625.688c3.2 1.768 5.665 3.849 8.375 6.312v2a152 152 0 0 0 5 2l3.25 1.313c4.32.791 6.467.123 10.441-1.489 6.8-2.428 14.006-2.008 21.122-2.012l3.447-.037c7.362-.012 13.845.748 20.877 2.87 4.43 1.268 6.784 1.56 10.863-.645l2.75-.937L540 426l1-3c1.672-1.43 1.672-1.43 3.75-2.875 3.447-2.408 6.304-5.147 9.25-8.125q2.216-2.22 4.436-4.436l2.596-2.596L655 311c-1.471-3.048-3.063-5.454-5.258-8.04l-1.894-2.257-3.97-4.68-1.886-2.25-1.739-2.049C639 290 639 290 639 288l-3-1c-4.852-5.72-10.146-12.169-10.203-19.96 1.631-16.376 14.724-28.528 25.43-40.02 2.068-2.226 4.059-4.508 6.039-6.813 4.066-4.668 8.447-8.993 12.859-13.332 6.082-5.91 6.082-5.91 11.71-12.242 1.8-2.188 3.462-3.887 5.665-5.633 2.323-1.922 4.04-3.648 6-6 2.42-2.905 4.918-5.104 7.813-7.5 1.933-1.643 1.933-1.643 4.187-4.5 2.42-2.905 4.918-5.104 7.813-7.5 1.933-1.643 1.933-1.643 4.187-4.5 2.42-2.905 4.918-5.104 7.813-7.5 1.933-1.643 1.933-1.643 4.187-4.5 2.42-2.905 4.918-5.104 7.813-7.5 1.933-1.643 1.933-1.643 4.187-4.5 2.42-2.905 4.918-5.104 7.813-7.5 1.933-1.643 1.933-1.643 4.187-4.5 2.42-2.905 4.918-5.104 7.813-7.5 1.933-1.643 1.933-1.643 4.187-4.5 2.42-2.905 4.918-5.104 7.813-7.5 1.933-1.643 1.933-1.643 4.187-4.5 2.42-2.905 4.918-5.104 7.813-7.5 1.933-1.643 1.933-1.643 4.187-4.5 2.42-2.905 4.918-5.104 7.813-7.5 1.933-1.643 1.933-1.643 4.187-4.5 2.377-2.852 4.792-5.08 7.656-7.41 4.003-3.452 7.61-7.36 11.323-11.12q3.444-3.483 6.897-6.956 1.822-1.838 3.64-3.68 2.632-2.667 5.277-5.322l1.645-1.676c1.316-1.317 2.685-2.582 4.062-3.836h2l1-3c1.355-1.367 1.355-1.367 3.188-2.875 2.744-2.313 5.41-4.672 8-7.156C876.333 2.644 876.333 2.644 886.625 2c10.485.82 17.71 7.962 25.07 14.852 2.087 1.945 4.228 3.773 6.43 5.586.949.845 1.898 1.69 2.875 2.562v2l1.605.61c3.457 2.007 5.947 4.777 8.707 7.64 3.554 3.634 7.068 7.206 11 10.438L945 48v2l1.718.732c2.735 1.52 4.594 3.338 6.802 5.557l2.6 2.606 2.692 2.73 2.659 2.66c4.496 4.527 8.864 9.107 12.99 13.976 1.675 1.893 3.455 3.625 5.289 5.364 8.577 8.494 19.293 19.973 21.188 32.313-.41 6.326-6.758 10.87-10.938 15.062a231 231 0 0 0-3.25 3.813c-3.956 4.57-8.285 8.774-12.6 13-3.46 3.41-6.7 6.905-9.788 10.656-2.192 2.465-4.832 4.422-7.362 6.531a143 143 0 0 0-4.703 5.645L951 172h-2l-.807 1.797c-1.218 2.248-2.447 3.674-4.275 5.445l-1.826 1.793-1.904 1.84c-5.163 5.002-5.163 5.002-9.918 10.383-1.843 2.226-3.524 3.962-5.77 5.742-2.323 1.922-4.04 3.648-6 6-2.42 2.905-4.918 5.104-7.812 7.5-1.934 1.643-1.934 1.643-4.188 4.5-2.42 2.905-4.918 5.104-7.812 7.5-1.934 1.643-1.934 1.643-4.188 4.5-2.42 2.904-4.915 5.102-7.809 7.496-2.526 2.246-4.536 4.906-6.691 7.504l-2.937 2.438c-2.374 1.986-4.122 3.715-6.063 6.062-2.701 3.264-5.742 5.785-9 8.5a131 131 0 0 0-3 3.5c-2.701 3.264-5.742 5.785-9 8.5q-1.5 1.693-2.937 3.438c-2.552 3.085-5.33 5.556-8.41 8.097-1.904 1.614-1.904 1.614-4.153 4.465-2.42 2.905-4.918 5.104-7.812 7.5-1.934 1.643-1.934 1.643-4.188 4.5-2.42 2.905-4.918 5.104-7.812 7.5-1.934 1.643-1.934 1.643-4.188 4.5-2.425 2.91-4.925 5.168-7.82 7.578-3.184 2.695-6.02 5.74-8.918 8.735l-2.45 2.5-2.324 2.394C787 336 787 336 785 336l-.625 1.688c-1.55 2.606-3.457 4.168-5.812 6.042-3.041 2.471-5.698 5.353-8.383 8.2-21.139 21.918-21.139 21.918-34.617 22.57-10.868-.494-16.959-6.274-24.563-13.5a319 319 0 0 0-3.812-3.187c-2.244-1.89-4.108-3.834-5.938-6.125-2.034-2.907-2.034-2.907-5.25-3.688l-1.695 1.708q-7.894 7.954-15.803 15.894a5148 5148 0 0 0-8.125 8.172q-3.913 3.945-7.84 7.878-1.497 1.505-2.992 3.014c-1.39 1.406-2.789 2.805-4.187 4.203l-2.41 2.423C651 393 651 393 649 393l-2 4h-2l-1 3a208 208 0 0 1-4.324 3.547c-1.765 1.53-3.191 3.151-4.676 4.953-2.701 3.264-5.742 5.785-9 8.5a131 131 0 0 0-3 3.5c-2.701 3.264-5.742 5.785-9 8.5a131 131 0 0 0-3 3.5c-2.701 3.264-5.742 5.785-9 8.5a131 131 0 0 0-3 3.5c-2.701 3.264-5.742 5.785-9 8.5-1.54 1.732-3.009 3.51-4.484 5.297-1.489 1.673-3.025 3.05-4.766 4.453-2.887 2.138-2.887 2.138-4.75 5.25-.282 2.533-.282 2.533-.187 5.375l.019 2.836c.146 3.295.39 6.557.664 9.844.545 6.903.723 13.772.754 20.695l.063 3.496c.027 6.123-.465 10.993-2.637 16.71-1.191 3.6-1.131 6.254-.676 10.044 1.39 2.477 2.574 4.262 4.375 6.375l1.345 1.667c3.837 4.663 8.045 8.897 12.444 13.032C594 560 594 560 594 562l3 1c1.43 1.453 1.43 1.453 2.875 3.25 2.53 3.126 5.272 5.913 8.125 8.75q1.66 1.665 3.318 3.334 4.984 5.01 9.974 10.013 2.145 2.151 4.285 4.306 3.113 3.13 6.232 6.253l1.913 1.93c2.769 2.769 5.544 5.442 8.575 7.924C645 611 645 611 647.437 613.938c1.987 2.373 3.716 4.12 6.063 6.062 2.3 1.904 4.004 3.607 5.938 5.938 1.997 2.387 3.752 4.156 6.097 6.132 5.067 4.38 9.755 9.11 14.465 13.867a4216 4216 0 0 1 9 9.063c5.72-3.545 10.313-7.917 15.14-12.574l1.813-1.723 1.63-1.573C709 638 709 638 711 638l1-3c5.676-5.974 13.314-12.668 21.887-13.184C747.114 622.966 760.08 635.081 769 644l2.313 1.688L773 647v2l1.703.707c2.864 1.612 4.77 3.612 7.047 5.98 2.792 2.896 5.616 5.651 8.68 8.252 5.756 5.016 11.11 10.437 16.508 15.83q1.697 1.695 3.395 3.386 3.532 3.524 7.06 7.053 4.53 4.527 9.073 9.042 3.496 3.48 6.984 6.972 1.672 1.67 3.35 3.336 2.329 2.316 4.645 4.644l2.673 2.668C846 719 846 719 846 721l4 2v2l4 2v2l3 1c1.395 1.453 1.395 1.453 2.813 3.25 1.963 2.384 3.72 4.192 6.125 6.188 2.395 2.004 4.176 3.773 6.161 6.126 4.232 4.892 8.783 9.426 13.378 13.975l2.691 2.68a8039 8039 0 0 0 8.457 8.406q5.586 5.547 11.164 11.102c.85.84 1.698 1.681 2.573 2.547 4.113 4.096 7.962 8.238 11.638 12.726a387 387 0 0 0 4.43 3.621c1.702 1.495 3.108 3.086 4.57 4.817 4.154 4.907 8.76 9.347 13.377 13.814l1.807 1.771 1.642 1.592C949 824 949 824 949 826l3 1c1.43 1.453 1.43 1.453 2.875 3.25 2.53 3.123 5.26 5.931 8.125 8.75 11.112 10.964 11.112 10.964 16.129 16.848 1.913 2.2 3.884 4.34 5.87 6.475 1.9 2.05 3.78 4.12 5.655 6.194a496 496 0 0 0 3.83 4.159c6.003 6.843 6.003 6.843 6.578 11.699-.935 9.475-10.96 17.849-17.117 24.469-1.976 2.11-1.976 2.11-3.578 4.437L979 915h-2l-.687 1.688c-1.313 2.312-2.805 3.891-4.715 5.718-2 1.996-3.851 4.103-5.723 6.219-3.407 3.817-6.922 7.472-10.562 11.063A176 176 0 0 0 944 952c-2.25 2.438-2.25 2.438-4 4h-2l-.732 1.718c-1.52 2.735-3.338 4.594-5.557 6.802l-2.606 2.6-2.73 2.692-2.66 2.659c-5.078 5.044-10.26 9.896-15.715 14.529l-1.604 1.389c-5.747 4.909-11.484 9.611-19.408 9.611-9.177-.84-15.125-6.333-21.988-12l-2.66-2.105c-2.638-2.136-4.94-4.496-7.34-6.895a298 298 0 0 0-3.5-3c-2.996-2.544-5.842-5.1-8.5-8v-2l-1.714-.727c-2.767-1.541-4.637-3.392-6.868-5.643l-2.73-2.742-2.93-2.97-3.034-3.05a4208 4208 0 0 1-7.973-8.038q-6.361-6.424-12.737-12.833-2.215-2.232-4.423-4.468c-4.379-4.41-8.738-8.647-13.591-12.529a65 65 0 0 1-3.062-3.5c-2.464-3.028-5.17-5.753-7.938-8.5l-3.373-3.36-3.896-3.877a27871 27871 0 0 1-21.696-21.624q-6.556-6.541-13.12-13.074-6.357-6.324-12.7-12.66-2.422-2.417-4.849-4.827-3.377-3.358-6.744-6.73l-2.045-2.022-1.84-1.848-1.61-1.606C703 826 703 826 703 824l-1.687-.625c-2.602-1.547-4.105-3.45-5.965-5.805-1.497-1.833-1.497-1.833-4.285-4.008-2.374-1.986-4.122-3.715-6.063-6.062-1.904-2.3-3.607-4.004-5.937-5.937-3.094-2.589-5.533-5.323-8.137-8.383-2.806-3.176-5.841-6.106-8.86-9.078a68 68 0 0 1-4.754-5.352c-2.073-2.465-4.211-4.346-6.718-6.348-2.51-2.207-4.585-4.762-6.746-7.304-1.846-2.095-3.78-4.03-5.785-5.973-14.288-14.093-14.288-14.093-14.438-22.312.086-5.203 1.972-9.275 4.375-13.813h2l.688-2.062c1.624-3.637 3.64-6.966 6.312-9.938h2l.188-1.687c1.148-3.27 3.343-4.9 5.812-7.313a114 114 0 0 0 2.672-3.668c.44-.625.878-1.25 1.33-1.895L650 695a3615 3615 0 0 0-5.5-6l-1.646-1.792a248 248 0 0 0-11.526-11.72C630 674 630 674 630 672l-3-1c-1.508-1.531-1.508-1.531-3.125-3.5-3.485-4.134-7.25-7.878-11.152-11.617C611 654 611 654 611 652l-3-1c-1.43-1.453-1.43-1.453-2.875-3.25-2.525-3.119-5.263-5.943-8.125-8.75q-4.663-4.587-9.312-9.187l-2.534-2.483-2.392-2.373-2.189-2.157C579 621 579 621 579 619l-3-1c-1.2-1.39-2.4-2.782-3.523-4.234-1.526-1.824-3.162-3.491-4.853-5.16-2.069-2.046-4.115-4.114-6.163-6.18l-5.086-5.114-2.602-2.626-2.5-2.51c-.748-.754-1.496-1.508-2.268-2.284-2.06-2.05-2.06-2.05-5.005-3.892v-2l-1.562-.687c-2.174-1.171-3.83-2.411-5.75-3.938-3.692-2.65-6.097-3.008-10.688-2.375q-2.046.712-4.07 1.484c-5.15 1.752-10.02 2.11-15.43 2.266l-2.895.103c-22.816.661-22.816.661-30.48-2.853-1.973-.92-1.973-.92-4.125-1-5.085 2.19-9.335 5.3-13.2 9.246C454 588 454 588 452 588l-1 3c-1.32 1.297-1.32 1.297-3.125 2.75-5.256 4.422-9.993 9.344-14.77 14.27l-1.91 1.945-1.718 1.77C428 613 428 613 426 613l-.625 1.688c-1.548 2.603-3.452 4.106-5.809 5.968-1.984 1.702-3.526 3.697-5.148 5.739-2.283 2.584-4.948 4.714-7.57 6.945-2.242 2.014-3.983 4.298-5.848 6.66q-2.995 2.506-6 5a487 487 0 0 0-3 4h-2l-2 4h-2l-.678 1.668c-1.739 3.067-3.963 5.178-6.478 7.648l-1.524 1.509a1414 1414 0 0 1-4.82 4.737 2435 2435 0 0 0-4.82 4.749 1760 1760 0 0 1-4.373 4.3c-2.417 2.36-2.417 2.36-4.307 5.389h-2l-.805 1.766c-1.228 2.296-2.598 4.038-4.32 5.984l-1.633 1.86L349 694c1.454 4.479 3.944 7.635 7 11.125l1.465 1.707c4.053 4.696 8.26 9.24 12.539 13.73 3.894 4.755 4.383 8.98 4.25 14.946-1.145 11.235-11.573 21.525-18.504 29.992-.437.54-.873 1.082-1.323 1.64-1.097 1.325-2.257 2.598-3.427 3.86h-2l-.687 1.688c-1.316 2.317-2.813 3.898-4.726 5.73-1.938 1.933-3.726 3.974-5.536 6.027-5.378 6-11.068 11.65-16.801 17.305a3085 3085 0 0 0-6.047 5.984l-2.667 2.632c-2.672 2.776-5.086 5.663-7.536 8.634a63 63 0 0 1-3.437 2.938c-3.086 2.55-5.557 5.329-8.098 8.41-2.228 2.513-4.888 4.505-7.465 6.652-1.54 1.732-3.009 3.51-4.484 5.297-1.489 1.673-3.025 3.05-4.766 4.453-2.887 2.138-2.887 2.138-4.75 5.25h-2l-2 4h-2l-2 4h-2l-2 4h-2l-.719 1.702c-1.574 2.824-3.498 4.774-5.781 7.064l-2.687 2.695L246 878.25l-2.812 2.836-2.688 2.68-2.469 2.462C236 888 236 888 234 888l-2 4h-2l-2 4h-2l-2 4h-2l-2 4h-2l-2 4h-2l-2 4h-2l-.625 1.688c-1.534 2.58-3.399 4.051-5.734 5.894-1.755 1.516-3.167 3.13-4.641 4.918-2.7 3.263-5.738 5.793-9 8.5a364 364 0 0 0-3.617 4.427c-1.514 1.722-3.132 3.134-4.887 4.608-5.29 4.573-10.152 9.55-15.059 14.528-5.642 5.722-11.269 11.284-17.437 16.437l-2.687 2.75c-2.11 2.052-3.74 2.964-6.313 4.25l-1 3c-16.368 14.727-16.368 14.727-25.559 15.105-22.327-1.426-45.042-32.54-59.635-47.169q-3.616-3.623-7.24-7.237-3.523-3.517-7.039-7.039l-2.588-2.582c-4.343-4.36-8.538-8.784-12.536-13.462-1.656-1.908-3.432-3.643-5.278-5.366-5-4.923-9.11-10.51-13.125-16.25l-1.727-2.441C1.693 891.373 2.236 885.617 3 880c1.485-3.502 3.545-6.12 6-9q1.783-2.374 3.563-4.75c2.621-3.321 5.405-6.294 8.437-9.25a497 497 0 0 0 5.45-6.426L28 849h2l.815-1.802c1.189-2.205 2.37-3.62 4.147-5.37l1.811-1.802 1.957-1.917 2.027-2.01q3.21-3.18 6.43-6.349 3.193-3.15 6.378-6.306a1243 1243 0 0 1 3.967-3.914c3.89-3.848 7.51-7.827 11.001-12.04L70 806h2l.805-1.79c1.227-2.27 2.49-3.756 4.307-5.576l1.938-1.955 2.122-2.11 2.237-2.248q3.665-3.674 7.341-7.337l5.089-5.094q5.331-5.336 10.673-10.662a7573 7573 0 0 0 13.7-13.708q5.25-5.26 10.51-10.51 2.529-2.526 5.053-5.057 3.52-3.527 7.053-7.04l2.122-2.134 1.938-1.92 1.685-1.683C150 726 150 726 152 726l2-4h2l2-4h2l1-3c1.39-1.2 2.782-2.4 4.234-3.523 2.405-2.011 4.56-4.254 6.766-6.477l4.48-4.496c.854-.858 1.71-1.715 2.59-2.6q5.066-5.083 10.137-10.163 3.835-3.842 7.665-7.689 3.731-3.747 7.468-7.487a3162 3162 0 0 0 4.173-4.192c4.495-4.495 9.041-8.855 13.877-12.984 1.973-1.702 3.8-3.515 5.61-5.389 3.17-3.213 6.45-6.216 9.875-9.152 2.379-2.069 4.684-4.21 7-6.348 13.718-12.401 13.718-12.401 19.008-12.555 6.238.5 10.07 2.483 15.117 6.055l2.688 1.5c2.848 1.848 4.938 4.07 7.312 6.5a376 376 0 0 0 4 3.5 148 148 0 0 1 9 8.5q2.154 2.158 4.313 4.313L310 656l2.063-2.125c2.034-2.046 4.151-3.912 6.375-5.75 3.064-2.58 5.554-5.39 8.097-8.473 2.228-2.513 4.888-4.505 7.465-6.652q1.53-1.723 3-3.5c2.701-3.264 5.742-5.785 9-8.5q1.53-1.723 3-3.5c2.701-3.264 5.742-5.785 9-8.5q1.53-1.723 3-3.5c2.701-3.264 5.742-5.785 9-8.5q1.53-1.723 3-3.5c2.701-3.264 5.742-5.785 9-8.5q1.53-1.723 3-3.5c2.701-3.264 5.742-5.785 9-8.5q1.53-1.723 3-3.5c2.701-3.264 5.742-5.785 9-8.5q1.53-1.723 3-3.5c2.701-3.264 5.742-5.785 9-8.5a141 141 0 0 0 4.703-5.547C424 542 424 542 426 541c-.384-7.301-2.402-13.615-4.844-20.45-3.317-10.186-2.758-20.066-.344-30.362l.501-2.136c1.15-4.591 2.779-8.725 4.687-13.052.833-3.043.833-3.043 0-6-1.59-1.706-3.29-3.078-5.137-4.5-2.684-2.161-4.661-4.858-6.863-7.5a131 131 0 0 0-3.5-3c-3.264-2.701-5.785-5.742-8.5-9a131 131 0 0 0-3.5-3c-3.264-2.701-5.785-5.742-8.5-9a131 131 0 0 0-3.5-3c-3.264-2.701-5.785-5.742-8.5-9a131 131 0 0 0-3.5-3c-3.264-2.701-5.785-5.742-8.5-9a131 131 0 0 0-3.5-3c-3.264-2.701-5.785-5.742-8.5-9a131 131 0 0 0-3.5-3c-3.264-2.701-5.785-5.742-8.5-9a131 131 0 0 0-3.5-3c-3.264-2.701-5.785-5.742-8.5-9a131 131 0 0 0-3.5-3c-3.264-2.701-5.785-5.742-8.5-9-1.728-1.536-3.504-3.003-5.285-4.477-2.563-2.277-4.6-4.83-6.715-7.523-3.225 1.385-4.994 2.906-7.187 5.625C291.895 362.732 284.56 368.308 275 373l-3.5 1.875c-5.168 1.661-9.17 2.627-14.5 1.125-5.25-3.232-9.64-7.683-14-12l-2.164-2.11a193 193 0 0 1-3.152-3.205c-1.713-1.714-3.499-3.278-5.344-4.85-4.518-3.925-8.71-8.13-12.903-12.397-4.495-4.576-8.972-9.046-13.94-13.11-1.577-1.4-2.862-2.876-4.185-4.515-1.999-2.432-3.82-3.967-6.312-5.813v-2l-1.702-.712c-2.854-1.6-4.781-3.564-7.071-5.901l-2.75-2.783-2.852-2.916c-5.368-5.475-10.672-10.85-16.625-15.688a65 65 0 0 1-3-3.5c-1.922-2.323-3.648-4.04-6-6-2.905-2.42-5.104-4.918-7.5-7.812-1.643-1.934-1.643-1.934-4.5-4.188-2.905-2.42-5.104-4.918-7.5-7.812-1.643-1.934-1.643-1.934-4.5-4.188-2.905-2.42-5.104-4.918-7.5-7.812-1.643-1.934-1.643-1.934-4.5-4.188-2.905-2.42-5.104-4.918-7.5-7.812-1.643-1.934-1.643-1.934-4.5-4.188-2.905-2.42-5.104-4.918-7.5-7.812-1.643-1.934-1.643-1.934-4.5-4.188-2.905-2.42-5.104-4.918-7.5-7.812-1.643-1.934-1.643-1.934-4.5-4.188-2.352-1.96-4.078-3.677-6-6-1.904-2.3-3.607-4.004-5.937-5.937-2.358-1.973-4.11-3.69-6.063-6-4.154-4.908-8.76-9.348-13.377-13.815l-1.807-1.771-1.642-1.592C47 170 47 170 47 168l-3-1a213 213 0 0 1-3.555-4.332c-1.492-1.722-3.058-3.1-4.82-4.543-3.242-2.693-5.887-5.648-8.61-8.855-2.398-2.701-4.943-5.236-7.515-7.77C.836 123.006.836 123.006.375 115c.845-9.498 7.366-18.742 13.923-25.298 2.694-2.694 5.254-5.474 7.809-8.3 5.562-6.11 11.338-11.993 17.186-17.828l3.124-3.127q3.239-3.24 6.481-6.476 4.124-4.117 8.24-8.243 3.21-3.215 6.427-6.426l3.036-3.04C72.228 30.626 77.912 25.14 84 20l1.957-1.659 1.73-1.466a70 70 0 0 0 5.626-5.312C99.108 6.036 106.452-.184 114.75-.5"/>
  <path fill="#000000" d="M482.094 594.805c9.809 1.533 19.502 1.417 29.406 1.32q2.709-.016 5.418-.027 6.54-.034 13.082-.098v2l4 2v2l1.785.797c4.777 2.595 8.317 7.103 11.715 11.265 2.427 2.852 4.943 5.063 7.813 7.438 2.523 2.243 4.528 4.909 6.687 7.5q1.723 1.53 3.5 3c3.264 2.701 5.785 5.742 8.5 9q1.723 1.53 3.5 3c3.264 2.701 5.785 5.742 8.5 9q1.723 1.53 3.5 3c3.264 2.701 5.785 5.742 8.5 9q1.723 1.53 3.5 3c3.264 2.701 5.785 5.742 8.5 9 1.732 1.54 3.51 3.009 5.297 4.484 1.673 1.489 3.05 3.025 4.453 4.766 2.138 2.887 2.138 2.887 5.25 4.75-.457 4.743-2.279 6.657-5.625 9.938-9.473 10.096-14.2 21.647-14.434 35.535.66 19.58 14.149 34.156 27.7 47.093 1.488 1.443 2.927 2.936 4.359 4.434v2l3 1c1.197 1.43 2.39 2.863 3.547 4.324 1.53 1.765 3.151 3.191 4.953 4.676 2.3 1.904 4.004 3.607 5.938 5.938 2.588 3.093 5.322 5.532 8.382 8.136 3.178 2.808 6.108 5.844 9.082 8.864a66 66 0 0 0 5.285 4.687c2.836 2.394 5.087 4.902 7.434 7.758 1.43 1.753 1.43 1.753 3.567 3.554 5.09 5.794 6.032 14.941 7.625 22.25 1.848 8.268 3.84 16.44 6.25 24.563 2.127 7.18 3.948 14.375 5.562 21.688 1.674 7.574 3.544 15.021 5.758 22.46 5.42 18.465 10.29 37.079 15.054 55.721q1.278 5.004 2.563 10.006l.518 2.02a847 847 0 0 0 7.334 26.78c2.164 7.474 4.04 15.01 5.898 22.565A734 734 0 0 0 750 1067c2.383 8.619 4.598 17.27 6.746 25.951a1592 1592 0 0 0 5.379 21.049l1.492 5.723q1.269 4.86 2.578 9.71c2.43 9.143 3.856 18.175 4.805 27.567-3.532 2.355-5.364 2.374-9.568 2.626l-2.014.125c-2.216.132-4.433.248-6.65.362l-2.341.127c-18.03.968-36.042 1.023-54.092.963-4.503-.013-9.006-.014-13.509-.016q-12.694-.011-25.39-.043c-9.661-.023-19.324-.033-28.986-.043A48614 48614 0 0 1 569 1161l-.025-3.387q-.117-15.991-.263-31.982-.074-8.216-.134-16.433c2.974-49.522 2.974-49.522-14.578-93.198-12.282-11.58-27.215-16.534-44-17l-3.895-.121c-18.545-.382-35.972 1.243-52.105 11.121l-2.5 1.36c-10.273 6.74-14.99 19.17-17.5 30.64-.424 3.522-.539 7.013-.6 10.558l-.085 3.005c-.09 3.245-.16 6.49-.23 9.734q-.088 3.42-.18 6.84c-.16 5.985-.304 11.97-.443 17.954-.2 8.41-.42 16.82-.638 25.23a5342 5342 0 0 0-.33 13.405l-.153 6.199-.06 2.73c-.197 7.8-.725 15.565-1.281 23.345q-30.75.07-61.501.104-14.284.014-28.57.047-12.479.03-24.958.037-6.581.003-13.163.023c-18.044.06-36.033-.148-54.055-1.098l-2.373-.118a762 762 0 0 1-6.581-.37l-3.772-.217C232 1159 232 1159 229 1157c1.08-10.806 3.782-21.327 6.45-31.833a701 701 0 0 0 3.488-14.48c1.581-6.815 3.334-13.575 5.14-20.334 1.536-5.783 2.94-11.589 4.297-17.416 2.17-9.292 4.61-18.5 7.126-27.705a798 798 0 0 0 4.83-18.542 559 559 0 0 1 2.606-10.003L265 1009l2-7.5 12-45 1.004-3.766 1.96-7.343q1.25-4.678 2.493-9.357.86-3.215 1.73-6.429a594 594 0 0 0 7.026-28.957c.898-4.088 1.872-8.057 3.252-12.011 1.948-5.626 3.177-11.396 4.473-17.2l1.601-6.937a324 324 0 0 0 2.422-11.437c1.759-8.788 4.467-14.8 12.039-20.063h2l1-3c1.453-1.395 1.453-1.395 3.25-2.812 2.384-1.964 4.192-3.72 6.188-6.125 2.034-2.432 3.877-4.277 6.265-6.305 4.038-3.493 7.845-7.161 11.613-10.942l2-1.997q2.076-2.075 4.148-4.152 3.14-3.148 6.292-6.286l4.06-4.065 1.87-1.863c4.3-4.323 8.336-8.832 12.314-13.453l2.695-3.055c11.492-13.34 14.229-24.014 13.518-41.366-.754-9.114-6.558-15.804-12.03-22.755-6.248-8.081-6.248-8.081-5.933-11.699L377 691h2l.688-1.687c1.313-2.315 2.81-3.896 4.718-5.727 1.969-1.96 3.806-4.015 5.656-6.086 7.283-8.133 14.58-16.26 22.375-23.906 1.707-1.74 3.29-3.556 4.875-5.407 3.569-4.146 7.435-7.95 11.325-11.792 2.51-2.543 4.83-5.185 7.12-7.922 1.646-1.951 3.339-3.773 5.243-5.473h2l.814-1.798c1.189-2.207 2.393-3.667 4.155-5.436l1.73-1.739 1.801-1.777 1.8-1.824 1.731-1.723 1.58-1.573C458 606 458 606 460 606l1-3c1.637-1.5 1.637-1.5 3.688-3l2.011-1.5c5.575-3.634 8.72-4.885 15.395-3.695m-269.079 582.028 8.184-.018q10.023-.02 20.045-.031 8.335-.01 16.67-.025l2.438-.005 4.926-.009a85688 85688 0 0 1 71.773-.095 221735 221735 0 0 1 131.402-.11l2.968-.002c31.8-.02 63.6-.067 95.4-.127a61366 61366 0 0 1 111.989-.114l2.753-.001c14.63-.006 29.26-.036 43.891-.074q22.035-.057 44.07-.036 13.095.013 26.19-.044 8.741-.037 17.483-.003c3.323.011 6.644.008 9.967-.019a713 713 0 0 1 10.73.016l3.134-.055c5.204.087 8.207.54 12.018 4.243 5.336 6.125 8.038 11.99 8.147 20.128l.049 3.308c.044 4.991.085 9.982.108 14.973q.025 3.942.082 7.882c.055 3.8.077 7.597.091 11.397l.07 3.533c-.02 7.6-1.147 12.328-5.593 18.455l-1.571 2.566c-3.087 4.077-5.876 6.836-10.884 8.009-7.85.976-15.77.73-23.662.641-2.716 0-5.432.016-8.148.03-5.905.024-11.808.01-17.712-.027-8.78-.056-17.56-.054-26.34-.041-14.776.02-29.552-.006-44.328-.06-14.642-.052-29.284-.085-43.926-.091l-2.762-.002-13.885-.005c-32.788-.01-65.577-.07-98.365-.156q-47.7-.126-95.4-.164l-2.966-.002-23.626-.018c-34.043-.025-68.086-.07-102.129-.121l-16.475-.023c-20.168-.027-40.337-.06-60.505-.114q-11.94-.034-23.88-.049a8455 8455 0 0 1-19.822-.046 3137 3137 0 0 0-9.958-.02c-39.304-.02-39.304-.02-52.656-4.307l-1-3-1.957-.89c-2.043-1.11-2.043-1.11-3.055-3.22-3.251-12.706-3.175-25.741-3.173-38.778-.003-2.373-.02-4.746-.04-7.12-.08-21.484-.08-21.484 6.877-30.02 3.097-2.602 5.562-2.97 9.535-3.66l3.793-.699c16.2-2.234 32.727-1.769 49.035-1.78M369 441c13.687 6.487 28.933 20.691 36 34 4.32 12.907 2.663 27.575 1.412 40.9-.547 6.008-.422 11.941-.208 17.965-.267 4.099-1.503 6.118-4.493 8.834L400 544l-3 2.5-3 2.5a131 131 0 0 0-3 3.5c-2.701 3.264-5.742 5.785-9 8.5a131 131 0 0 0-3 3.5c-2.701 3.264-5.742 5.785-9 8.5a131 131 0 0 0-3 3.5c-2.701 3.264-5.742 5.785-9 8.5a124 124 0 0 0-2.875 3.375c-2.675 3.22-5.604 5.84-8.79 8.543-2.897 2.583-5.61 5.32-8.335 8.082-4.505 4.549-9.09 8.887-14 13l-2.758 2.422-2.93 2.515c-.89.773-1.781 1.545-2.699 2.34-2.87 1.893-4.25 2.117-7.613 1.723-1.343-6.312-.549-11.75.563-18.062l.551-3.202c1.766-9.81 4.249-19.34 7.056-28.897.874-2.99 1.72-5.988 2.56-8.987 2.907-10.277 5.992-20.378 9.91-30.317 1.592-4.138 2.978-8.324 4.36-12.535 4.365-13.14 9.331-25.89 14.924-38.556a794 794 0 0 0 2.994-6.901c2.976-6.92 6.102-13.726 9.527-20.438 2.989-5.969 5.757-12.045 8.555-18.105m260 1c4.59 3.723 6.482 8.752 8.875 14q1.334 2.87 2.672 5.738l1.287 2.776c1.37 2.923 2.817 5.802 4.291 8.673 5.904 11.725 11.023 23.772 15.516 36.102a410 410 0 0 0 3.797 9.899c3.205 8.301 5.926 16.765 8.702 25.218a606 606 0 0 0 2.395 7.067c5.788 16.828 10.637 33.944 14.403 51.34l.64 2.87c3.39 16.383 3.39 16.383.422 22.317-5.62-.401-8.087-2.18-12-6v-2l-1.687-.687c-2.965-1.683-4.93-3.874-7.313-6.313a293 293 0 0 0-3.437-2.875c-3.066-2.581-5.557-5.393-8.102-8.477-1.6-1.89-1.6-1.89-4.399-4.086-3.151-2.636-5.666-5.443-8.316-8.566-1.652-1.889-3.376-3.631-5.183-5.371C639 581 639 581 639 579l-3-1c-1.539-1.542-1.539-1.542-3.18-3.52-3.842-4.528-7.866-8.853-11.945-13.168l-2.09-2.22c-2.8-2.97-5.61-5.917-8.496-8.803-2.344-2.344-4.575-4.76-6.789-7.226l-2.219-2.465L599 538l-2.624-2.728c-2.785-3.373-2.89-5.826-2.669-10.225q.075-2.136.143-4.272l.09-2.322c.086-3.529-.017-7.046-.11-10.574-.092-3.885-.107-7.768-.117-11.653a257 257 0 0 0-.121-5.974c-.529-17.514-.529-17.514 4.25-23.185 3.119-3.103 6.542-5.575 10.158-8.067a136 136 0 0 0 4-3.625c5.444-4.728 11.255-9.023 17-13.375m-82-93 3.32 1.473c6.587 3.095 12.14 6.829 17.68 11.527l1.887 1.555c1.38 1.138 2.748 2.29 4.113 3.445-1.47 5.372-5.099 8.404-9 12.125q-1.91 1.845-3.812 3.695l-1.708 1.634c-1.698 1.683-1.698 1.683-3.48 4.546h-2l-.736 1.68c-4.69 8.607-14.097 17.96-22.264 23.32-5.987 1.462-10.777-1.33-16-4-5.109-1.254-10.266-1.191-15.5-1.187l-2.673-.002c-7.437.059-14.486 1.013-21.827 2.189-3.005.42-4.938.445-8 0-2.562-2.625-2.562-2.625-3.723-4.29-1.415-1.895-2.944-3.22-4.777-4.71-3.263-2.7-5.793-5.738-8.5-9a362 362 0 0 0-4.398-3.594c-3.205-2.813-5.857-6.155-8.602-9.406l-3.312-3.812c-4.72-5.444-4.72-5.444-4.583-8.633 2.896-8.27 15.565-13.716 22.895-17.555l1.74-.919C482.234 334.372 518.185 335.9 547 349"/>
</svg>
