 <svg  version="1.0" xmlns="http://www.w3.org/2000/svg"  width="242.000000pt" height="277.000000pt" viewBox="0 0 242.000000 277.000000"  preserveAspectRatio="xMidYMid meet">  <g transform="translate(0.000000,277.000000) scale(0.100000,-0.100000)" fill="#325096" stroke="none"> <path d="M410 2550 c8 -5 29 -9 45 -9 29 1 29 1 5 9 -14 4 -34 8 -45 9 -16 1 -17 -1 -5 -9z"/> <path d="M520 2504 c-78 -13 -136 -29 -143 -41 -4 -7 -15 -13 -23 -13 -8 0 -13 -4 -10 -9 7 -11 -44 -9 -62 2 -7 5 -12 5 -11 0 4 -21 -3 -22 -27 -7 -22 15 -27 15 -35 3 -14 -23 -11 -39 14 -61 12 -11 17 -17 10 -14 -6 4 -22 -4 -35 -17 -13 -13 -30 -26 -38 -29 -11 -3 -10 -13 3 -53 10 -27 17 -59 17 -71 0 -12 6 -24 13 -27 9 -3 9 -9 -1 -26 -17 -28 -7 -44 19 -31 13 7 19 7 20 0 1 -5 2 -14 3 -20 0 -5 9 -19 19 -30 23 -27 22 -32 -10 -30 -45 3 -53 1 -47 -15 4 -8 16 -15 28 -15 26 0 70 -43 64 -62 -3 -7 6 -30 18 -50 13 -20 26 -49 30 -65 4 -15 15 -33 24 -40 11 -8 19 -33 24 -75 3 -34 15 -79 26 -101 11 -21 18 -43 14 -49 -7 -10 70 -88 87 -88 6 0 7 -5 4 -11 -10 -15 27 -40 42 -28 14 12 18 5 28 -46 4 -22 16 -60 27 -85 12 -25 29 -64 39 -87 10 -24 23 -43 28 -43 21 0 41 46 41 95 1 47 4 53 60 113 33 34 67 62 77 62 10 0 24 4 32 9 10 7 21 -1 39 -27 13 -21 28 -38 33 -40 5 -2 9 -17 9 -33 0 -29 13 -39 25 -19 21 34 56 -35 58 -114 1 -33 8 -57 19 -68 9 -9 22 -34 28 -55 7 -21 23 -46 37 -56 l24 -19 -6 39 c-4 22 -18 48 -34 64 -38 35 -54 79 -46 123 l7 36 43 -37 c24 -21 44 -44 44 -50 2 -20 13 -15 45 17 24 25 28 35 23 66 -4 23 -19 49 -42 72 -19 19 -35 39 -35 43 0 13 42 49 57 49 7 0 13 -5 13 -10 0 -7 6 -7 18 0 9 5 38 18 63 29 25 11 53 31 61 43 19 30 39 108 27 108 -5 0 -9 8 -9 18 0 10 -13 32 -30 50 -33 37 -38 60 -14 69 13 5 13 7 2 14 -7 5 -20 7 -28 4 -8 -2 -24 2 -35 11 -19 14 -19 15 8 42 27 26 28 26 33 6 4 -16 12 -19 33 -16 22 3 29 -1 34 -17 3 -12 11 -21 19 -21 8 0 20 -15 26 -34 10 -27 17 -33 32 -29 28 7 25 27 -10 66 -27 31 -28 37 -19 71 8 30 14 37 29 33 27 -7 40 13 47 70 4 38 1 56 -12 76 -14 22 -14 27 -3 27 7 0 22 -14 32 -31 12 -20 22 -27 28 -21 7 7 -4 24 -30 51 -37 39 -61 54 -46 30 3 -6 -8 -3 -25 6 -17 9 -36 13 -41 10 -4 -3 -20 0 -34 7 -27 12 -27 16 -5 76 7 18 17 22 56 24 58 1 62 1 91 -8 19 -5 22 -3 22 20 0 31 23 44 46 25 14 -11 18 -10 29 4 10 14 15 15 21 5 10 -15 6 -59 -6 -72 -13 -13 16 -63 48 -83 15 -10 33 -26 40 -35 7 -10 17 -16 22 -13 11 7 9 45 -2 45 -4 0 -8 5 -8 11 0 5 5 7 11 3 8 -4 9 1 4 17 -4 13 -14 28 -22 33 -9 4 -24 17 -35 28 -25 25 -11 38 42 38 23 0 42 7 53 20 9 11 25 20 34 20 13 1 10 5 -9 16 -31 16 -39 49 -10 40 9 -3 34 -8 55 -12 30 -5 37 -3 37 9 0 11 -13 18 -37 23 -21 4 -80 17 -132 30 -98 25 -177 32 -166 14 8 -13 -8 -13 -20 -1 -6 5 -41 12 -80 15 -70 5 -131 13 -280 35 -56 9 -80 10 -83 2 -2 -6 -21 -11 -42 -11 -21 0 -40 -5 -42 -11 -2 -6 -19 0 -39 14 -31 21 -49 25 -135 27 -54 1 -114 2 -132 3 -25 0 -29 3 -18 9 21 12 20 25 -1 32 -28 8 -145 15 -173 10z m-226 -120 c3 -8 2 -12 -4 -9 -6 3 -10 10 -10 16 0 14 7 11 14 -7z m26 -34 c0 -5 -5 -10 -11 -10 -5 0 -7 5 -4 10 3 6 8 10 11 10 2 0 4 -4 4 -10z m639 -286 c-19 -23 -32 -16 -15 8 9 12 17 32 17 43 1 12 4 9 6 -8 3 -16 -1 -35 -8 -43z"/> <path d="M1576 1957 c3 -10 9 -15 12 -12 3 3 0 11 -7 18 -10 9 -11 8 -5 -6z"/> <path d="M1605 1889 c0 -15 4 -31 9 -36 5 -5 6 -3 2 5 -5 8 0 12 16 12 13 0 30 4 38 10 12 7 11 10 -5 15 -11 4 -29 10 -40 14 -17 7 -20 4 -20 -20z"/> <path d="M1633 1810 c10 -26 8 -32 -13 -55 -13 -14 -29 -25 -36 -25 -7 0 -25 -10 -40 -23 -24 -21 -25 -25 -13 -45 17 -27 29 -28 29 -3 0 10 7 22 16 25 8 3 12 10 9 16 -3 5 -2 10 4 10 5 0 12 -6 14 -12 4 -9 8 -10 14 -2 4 6 21 14 36 18 23 5 27 11 22 27 -4 12 -8 32 -10 45 -2 25 -22 54 -35 54 -5 0 -3 -13 3 -30z m-68 -120 c-3 -5 -10 -10 -16 -10 -5 0 -9 5 -9 10 0 6 7 10 16 10 8 0 12 -4 9 -10z"/> <path d="M1430 1335 c0 -19 5 -35 10 -35 6 0 10 -10 10 -22 0 -17 3 -19 9 -10 12 19 15 19 37 2 18 -14 18 -14 5 3 -7 9 -20 17 -28 17 -11 0 -14 7 -10 27 6 33 -1 53 -19 53 -9 0 -14 -12 -14 -35z"/> <path d="M1523 1235 c0 -8 4 -12 9 -9 5 3 6 10 3 15 -9 13 -12 11 -12 -6z"/> <path d="M1487 1211 c3 -12 11 -17 19 -14 11 4 12 9 3 19 -16 20 -28 17 -22 -5z"/> <path d="M1537 1186 c-4 -9 -13 -16 -21 -16 -8 0 -18 -5 -22 -12 -5 -8 -2 -9 9 -5 11 4 17 1 17 -7 0 -7 8 -20 17 -27 15 -12 16 -12 10 4 -3 9 -2 17 3 17 12 0 13 30 1 48 -7 11 -9 11 -14 -2z"/> <path d="M726 1181 c-10 -15 1 -61 14 -61 18 0 21 20 7 46 -10 18 -16 23 -21 15z"/> <path d="M1353 1096 c-52 -52 -70 -66 -82 -66 -19 0 -21 -18 -6 -53 15 -35 22 -40 82 -52 29 -6 32 -4 43 32 7 21 16 42 21 47 4 5 5 21 2 36 -3 15 0 36 5 47 9 15 7 23 -6 34 -16 14 -22 11 -59 -25z"/> <path d="M1025 1079 c17 -19 32 -36 35 -39 3 -3 17 -26 30 -52 44 -84 100 -134 100 -90 0 9 3 27 6 40 5 17 3 21 -9 17 -12 -5 -28 15 -28 35 0 9 -42 50 -51 50 -5 0 -21 13 -37 29 -15 16 -39 32 -52 36 -23 7 -23 6 6 -26z"/> <path d="M1591 1014 c0 -11 3 -14 6 -6 3 7 2 16 -1 19 -3 4 -6 -2 -5 -13z"/> <path d="M1456 1011 c-3 -4 6 -6 19 -3 14 2 25 6 25 8 0 8 -39 4 -44 -5z"/> <path d="M1661 981 c-11 -7 -10 -11 7 -22 11 -7 18 -18 16 -24 -3 -7 13 -17 35 -24 47 -14 76 -47 59 -68 -8 -10 -6 -13 10 -13 12 0 24 -4 27 -10 9 -15 45 -12 51 5 7 17 40 20 49 5 3 -5 13 -10 22 -10 13 0 13 3 2 16 -10 13 -10 17 2 25 10 6 10 9 1 9 -6 0 -22 11 -33 24 -12 13 -48 34 -80 47 -57 21 -60 21 -79 4 -16 -15 -22 -16 -35 -5 -9 7 -13 15 -10 18 5 6 -14 32 -24 32 -3 0 -12 -4 -20 -9z"/> <path d="M1437 959 c-3 -10 -1 -33 3 -51 7 -30 8 -31 9 -6 1 38 16 42 31 10 7 -15 15 -22 17 -15 2 7 -1 21 -7 33 -8 15 -8 25 -1 34 8 10 4 13 -18 13 -20 0 -31 -6 -34 -18z"/> <path d="M1608 933 c7 -3 16 -2 19 1 4 3 -2 6 -13 5 -11 0 -14 -3 -6 -6z"/> <path d="M1197 860 c11 -12 144 -43 151 -35 7 7 -44 29 -73 32 -16 1 -43 5 -60 9 -24 5 -28 4 -18 -6z"/> <path d="M1403 823 c4 -3 10 -3 14 0 3 4 0 7 -7 7 -7 0 -10 -3 -7 -7z"/> <path d="M1514 798 c-4 -7 -3 -8 4 -4 12 7 16 16 8 16 -3 0 -8 -5 -12 -12z"/> <path d="M1826 748 c-3 -13 -8 -40 -11 -61 -8 -48 -27 -55 -70 -26 -40 27 -41 31 -19 64 16 24 16 25 -7 24 -13 -1 -28 0 -34 1 -18 6 -64 -19 -75 -40 -11 -20 -40 -28 -40 -10 0 20 -27 9 -53 -20 -15 -16 -31 -30 -37 -30 -5 0 -15 -12 -22 -27 -9 -18 -28 -31 -63 -42 -28 -9 -60 -23 -72 -32 -28 -19 -43 -85 -36 -155 4 -40 2 -60 -11 -79 -15 -23 -15 -26 -1 -31 9 -4 27 -2 41 5 14 6 40 11 58 11 19 0 39 7 46 15 7 8 26 15 42 15 16 0 38 5 49 10 11 7 31 7 51 2 26 -6 34 -15 38 -38 4 -19 8 -25 13 -17 11 18 44 -14 49 -47 2 -21 10 -26 48 -31 25 -4 49 -3 55 2 5 5 19 9 32 9 13 0 23 4 23 10 0 5 27 38 60 73 60 65 90 117 90 158 0 12 -11 41 -25 64 -13 23 -22 45 -19 48 3 3 -4 10 -15 17 -17 8 -21 20 -21 56 0 31 -5 46 -15 50 -10 4 -13 13 -9 26 6 19 -10 48 -27 48 -5 0 -11 -10 -13 -22z"/> <path d="M1695 142 c-8 -22 -6 -32 8 -32 13 0 47 30 47 41 0 11 -50 2 -55 -9z"/> </g> </svg> 