<svg id="svg" version="1.1" xmlns="http://www.w3.org/2000/svg" xmlns:xlink="http://www.w3.org/1999/xlink" width="400" height="400" viewBox="0, 0, 400,400"><g id="svgg"><path id="path0" d="M18.400 25.245 C 18.400 25.513,17.920 25.620,17.200 25.515 C 16.341 25.389,16.000 25.502,16.000 25.915 C 16.000 26.327,15.659 26.441,14.800 26.315 C 14.140 26.218,13.600 26.266,13.600 26.421 C 13.600 26.706,11.426 27.724,11.010 27.634 C 10.618 27.549,8.898 29.387,9.076 29.700 C 9.170 29.865,9.002 30.000,8.702 30.000 C 8.001 30.000,5.200 32.555,5.200 33.193 C 5.200 33.461,4.660 34.183,4.000 34.800 C 3.340 35.417,2.800 36.209,2.800 36.560 C 2.800 36.912,2.620 37.200,2.400 37.200 C 2.180 37.200,2.000 37.560,2.000 38.000 C 2.000 38.440,1.820 38.800,1.600 38.800 C 1.380 38.800,1.200 39.325,1.200 39.967 C 1.200 40.608,0.975 41.208,0.700 41.300 C -0.036 41.545,-0.036 326.455,0.700 326.700 C 0.987 326.796,1.200 327.536,1.200 328.433 C 1.200 329.295,1.380 330.000,1.600 330.000 C 1.820 330.000,2.000 330.540,2.000 331.200 C 2.000 331.860,2.180 332.400,2.400 332.400 C 2.620 332.400,2.800 332.940,2.800 333.600 C 2.800 334.260,2.980 334.800,3.200 334.800 C 3.420 334.800,3.600 335.155,3.600 335.588 C 3.600 336.021,3.960 337.017,4.400 337.800 C 4.840 338.583,5.200 339.489,5.200 339.812 C 5.200 340.135,5.380 340.400,5.600 340.400 C 5.820 340.400,6.000 340.670,6.000 341.000 C 6.000 341.330,6.180 341.600,6.400 341.600 C 6.620 341.600,6.800 341.960,6.800 342.400 C 6.800 342.840,6.980 343.200,7.200 343.200 C 7.420 343.200,7.600 343.560,7.600 344.000 C 7.600 344.440,7.780 344.800,8.000 344.800 C 8.220 344.800,8.400 345.132,8.400 345.539 C 8.400 346.192,8.744 346.734,10.408 348.700 C 10.641 348.975,10.694 349.200,10.527 349.200 C 10.359 349.200,10.622 349.480,11.111 349.823 C 11.600 350.165,12.000 350.667,12.000 350.938 C 12.000 351.209,12.900 352.317,14.000 353.400 C 15.100 354.483,16.000 355.538,16.000 355.742 C 16.000 356.317,18.533 358.791,19.126 358.796 C 19.415 358.798,20.529 359.700,21.600 360.800 C 22.671 361.900,23.753 362.800,24.003 362.800 C 24.558 362.800,25.638 363.829,25.367 364.100 C 25.259 364.207,25.819 364.602,26.610 364.978 C 27.401 365.353,28.147 365.917,28.267 366.230 C 28.387 366.544,28.916 366.800,29.443 366.800 C 29.969 366.800,30.400 366.980,30.400 367.200 C 30.400 367.420,30.670 367.600,31.000 367.600 C 31.330 367.600,31.600 367.780,31.600 368.000 C 31.600 368.220,31.960 368.400,32.400 368.400 C 32.840 368.400,33.200 368.580,33.200 368.800 C 33.200 369.020,33.560 369.200,34.000 369.200 C 34.440 369.200,34.800 369.380,34.800 369.600 C 34.800 369.820,35.160 370.000,35.600 370.000 C 36.040 370.000,36.400 370.180,36.400 370.400 C 36.400 370.620,36.760 370.800,37.200 370.800 C 37.640 370.800,38.000 370.980,38.000 371.200 C 38.000 371.420,38.540 371.600,39.200 371.600 C 39.860 371.600,40.400 371.780,40.400 372.000 C 40.400 372.220,40.839 372.400,41.376 372.400 C 41.913 372.400,42.464 372.580,42.600 372.800 C 42.736 373.020,43.287 373.200,43.824 373.200 C 44.361 373.200,44.800 373.340,44.800 373.511 C 44.800 373.681,45.520 373.752,46.400 373.669 C 47.555 373.558,48.000 373.667,48.000 374.058 C 48.000 374.460,48.515 374.564,50.000 374.461 C 51.268 374.373,52.000 374.483,52.000 374.761 C 52.000 375.079,97.530 375.200,216.800 375.200 C 337.599 375.200,381.600 375.081,381.600 374.755 C 381.600 374.487,382.080 374.380,382.800 374.485 C 383.659 374.611,384.000 374.498,384.000 374.085 C 384.000 373.673,384.341 373.559,385.200 373.685 C 385.860 373.782,386.400 373.734,386.400 373.579 C 386.400 373.265,388.691 372.236,388.896 372.459 C 389.127 372.710,391.100 370.610,390.924 370.300 C 390.830 370.135,390.998 370.000,391.298 370.000 C 391.999 370.000,394.800 367.445,394.800 366.807 C 394.800 366.539,395.340 365.817,396.000 365.200 C 396.660 364.583,397.200 363.791,397.200 363.440 C 397.200 363.088,397.380 362.800,397.600 362.800 C 397.820 362.800,398.000 362.440,398.000 362.000 C 398.000 361.560,398.180 361.200,398.400 361.200 C 398.620 361.200,398.800 360.675,398.800 360.033 C 398.800 359.392,399.025 358.792,399.300 358.700 C 399.679 358.574,399.800 356.471,399.800 350.000 C 399.800 343.529,399.679 341.426,399.300 341.300 C 399.025 341.208,398.800 340.608,398.800 339.967 C 398.800 339.325,398.620 338.800,398.400 338.800 C 398.180 338.800,398.000 338.440,398.000 338.000 C 398.000 337.560,397.820 337.200,397.600 337.200 C 397.380 337.200,397.200 336.912,397.200 336.560 C 397.200 336.209,396.660 335.417,396.000 334.800 C 395.340 334.183,394.800 333.461,394.800 333.193 C 394.800 332.555,391.999 330.000,391.298 330.000 C 390.998 330.000,390.830 329.865,390.924 329.700 C 391.100 329.390,389.127 327.290,388.896 327.541 C 388.691 327.764,386.400 326.735,386.400 326.421 C 386.400 326.266,385.860 326.218,385.200 326.315 C 384.341 326.441,384.000 326.327,384.000 325.915 C 384.000 325.502,383.659 325.389,382.800 325.515 C 382.080 325.620,381.600 325.513,381.600 325.245 C 381.600 324.919,339.032 324.800,222.200 324.800 C 116.200 324.800,62.800 324.666,62.800 324.400 C 62.800 324.180,61.900 324.000,60.800 324.000 C 59.700 324.000,58.800 323.864,58.800 323.698 C 58.800 323.531,58.232 323.144,57.537 322.836 C 55.220 321.810,52.000 318.158,52.000 316.554 C 52.000 316.249,51.820 316.000,51.600 316.000 C 51.380 316.000,51.200 315.100,51.200 314.000 C 51.200 312.900,51.020 312.000,50.800 312.000 C 50.534 312.000,50.400 267.008,50.400 177.824 C 50.400 88.804,50.265 43.564,50.000 43.400 C 49.780 43.264,49.600 42.713,49.600 42.176 C 49.600 41.639,49.420 41.200,49.200 41.200 C 48.980 41.200,48.800 40.660,48.800 40.000 C 48.800 39.340,48.620 38.800,48.400 38.800 C 48.180 38.800,48.000 38.440,48.000 38.000 C 48.000 37.560,47.820 37.200,47.600 37.200 C 47.380 37.200,47.200 36.912,47.200 36.560 C 47.200 36.209,46.660 35.417,46.000 34.800 C 45.340 34.183,44.800 33.461,44.800 33.193 C 44.800 32.555,41.999 30.000,41.298 30.000 C 40.998 30.000,40.830 29.865,40.924 29.700 C 41.102 29.387,39.382 27.549,38.990 27.634 C 38.574 27.724,36.400 26.706,36.400 26.421 C 36.400 26.266,35.860 26.218,35.200 26.315 C 34.341 26.441,34.000 26.327,34.000 25.915 C 34.000 25.502,33.659 25.389,32.800 25.515 C 32.080 25.620,31.600 25.513,31.600 25.245 C 31.600 24.936,29.582 24.800,25.000 24.800 C 20.418 24.800,18.400 24.936,18.400 25.245 M343.400 50.000 C 343.264 50.220,342.713 50.400,342.176 50.400 C 341.639 50.400,341.200 50.580,341.200 50.800 C 341.200 51.020,340.660 51.200,340.000 51.200 C 339.340 51.200,338.800 51.380,338.800 51.600 C 338.800 51.820,338.440 52.000,338.000 52.000 C 337.560 52.000,337.200 52.180,337.200 52.400 C 337.200 52.620,336.912 52.800,336.560 52.800 C 336.209 52.800,335.417 53.340,334.800 54.000 C 334.183 54.660,333.461 55.200,333.193 55.200 C 332.555 55.200,330.000 58.001,330.000 58.702 C 330.000 59.002,329.865 59.170,329.700 59.076 C 329.387 58.898,327.549 60.618,327.634 61.010 C 327.724 61.426,326.706 63.600,326.421 63.600 C 326.266 63.600,326.218 64.140,326.315 64.800 C 326.441 65.659,326.327 66.000,325.915 66.000 C 325.502 66.000,325.389 66.341,325.515 67.200 C 325.620 67.920,325.513 68.400,325.245 68.400 C 324.919 68.400,324.800 93.612,324.800 162.400 C 324.800 231.188,324.919 256.400,325.245 256.400 C 325.513 256.400,325.620 256.880,325.515 257.600 C 325.388 258.460,325.502 258.800,325.916 258.800 C 326.326 258.800,326.434 259.110,326.289 259.871 C 326.168 260.502,326.312 261.170,326.641 261.499 C 326.948 261.805,327.317 262.525,327.460 263.099 C 327.724 264.147,328.543 265.154,331.694 268.306 C 334.846 271.457,335.853 272.276,336.901 272.540 C 337.475 272.683,338.195 273.052,338.501 273.359 C 338.830 273.688,339.498 273.832,340.129 273.711 C 340.890 273.566,341.200 273.674,341.200 274.084 C 341.200 274.498,341.540 274.612,342.400 274.485 C 343.120 274.380,343.600 274.487,343.600 274.755 C 343.600 275.063,345.565 275.200,350.000 275.200 C 354.435 275.200,356.400 275.063,356.400 274.755 C 356.400 274.487,356.880 274.380,357.600 274.485 C 358.460 274.612,358.800 274.498,358.800 274.084 C 358.800 273.674,359.110 273.566,359.871 273.711 C 360.502 273.832,361.170 273.688,361.499 273.359 C 361.805 273.052,362.525 272.683,363.099 272.540 C 364.147 272.276,365.154 271.457,368.306 268.306 C 371.457 265.154,372.276 264.147,372.540 263.099 C 372.683 262.525,373.052 261.805,373.359 261.499 C 373.688 261.170,373.832 260.502,373.711 259.871 C 373.566 259.110,373.674 258.800,374.084 258.800 C 374.498 258.800,374.612 258.460,374.485 257.600 C 374.380 256.880,374.487 256.400,374.755 256.400 C 375.081 256.400,375.200 231.188,375.200 162.400 C 375.200 93.612,375.081 68.400,374.755 68.400 C 374.487 68.400,374.380 67.920,374.485 67.200 C 374.611 66.341,374.498 66.000,374.085 66.000 C 373.673 66.000,373.559 65.659,373.685 64.800 C 373.782 64.140,373.734 63.600,373.579 63.600 C 373.294 63.600,372.276 61.426,372.366 61.010 C 372.451 60.618,370.613 58.898,370.300 59.076 C 370.135 59.170,370.000 59.002,370.000 58.702 C 370.000 58.001,367.445 55.200,366.807 55.200 C 366.539 55.200,365.817 54.660,365.200 54.000 C 364.583 53.340,363.791 52.800,363.440 52.800 C 363.088 52.800,362.800 52.620,362.800 52.400 C 362.800 52.180,362.440 52.000,362.000 52.000 C 361.560 52.000,361.200 51.820,361.200 51.600 C 361.200 51.380,360.660 51.200,360.000 51.200 C 359.340 51.200,358.800 51.020,358.800 50.800 C 358.800 50.580,358.361 50.400,357.824 50.400 C 357.287 50.400,356.736 50.220,356.600 50.000 C 356.452 49.761,353.804 49.600,350.000 49.600 C 346.196 49.600,343.548 49.761,343.400 50.000 M193.400 100.000 C 193.264 100.220,192.713 100.400,192.176 100.400 C 191.639 100.400,191.200 100.580,191.200 100.800 C 191.200 101.020,190.660 101.200,190.000 101.200 C 189.340 101.200,188.800 101.380,188.800 101.600 C 188.800 101.820,188.440 102.000,188.000 102.000 C 187.560 102.000,187.200 102.180,187.200 102.400 C 187.200 102.620,186.912 102.800,186.560 102.800 C 186.209 102.800,185.417 103.340,184.800 104.000 C 184.183 104.660,183.461 105.200,183.193 105.200 C 182.555 105.200,180.000 108.001,180.000 108.702 C 180.000 109.002,179.865 109.170,179.700 109.076 C 179.387 108.898,177.549 110.618,177.634 111.010 C 177.724 111.426,176.706 113.600,176.421 113.600 C 176.266 113.600,176.218 114.140,176.315 114.800 C 176.441 115.659,176.327 116.000,175.915 116.000 C 175.502 116.000,175.389 116.341,175.515 117.200 C 175.620 117.920,175.513 118.400,175.245 118.400 C 174.920 118.400,174.800 136.978,174.800 187.400 C 174.800 237.822,174.920 256.400,175.245 256.400 C 175.513 256.400,175.620 256.880,175.515 257.600 C 175.388 258.460,175.502 258.800,175.916 258.800 C 176.326 258.800,176.434 259.110,176.289 259.871 C 176.168 260.502,176.312 261.170,176.641 261.499 C 176.948 261.805,177.317 262.525,177.460 263.099 C 177.724 264.147,178.543 265.154,181.694 268.306 C 184.846 271.457,185.853 272.276,186.901 272.540 C 187.475 272.683,188.195 273.052,188.501 273.359 C 188.830 273.688,189.498 273.832,190.129 273.711 C 190.890 273.566,191.200 273.674,191.200 274.084 C 191.200 274.498,191.540 274.612,192.400 274.485 C 193.120 274.380,193.600 274.487,193.600 274.755 C 193.600 275.063,195.565 275.200,200.000 275.200 C 204.435 275.200,206.400 275.063,206.400 274.755 C 206.400 274.487,206.880 274.380,207.600 274.485 C 208.460 274.612,208.800 274.498,208.800 274.084 C 208.800 273.674,209.110 273.566,209.871 273.711 C 210.502 273.832,211.170 273.688,211.499 273.359 C 211.805 273.052,212.525 272.683,213.099 272.540 C 214.147 272.276,215.154 271.457,218.306 268.306 C 221.457 265.154,222.276 264.147,222.540 263.099 C 222.683 262.525,223.052 261.805,223.359 261.499 C 223.688 261.170,223.832 260.502,223.711 259.871 C 223.566 259.110,223.674 258.800,224.084 258.800 C 224.498 258.800,224.612 258.460,224.485 257.600 C 224.380 256.880,224.487 256.400,224.755 256.400 C 225.080 256.400,225.200 237.822,225.200 187.400 C 225.200 136.978,225.080 118.400,224.755 118.400 C 224.487 118.400,224.380 117.920,224.485 117.200 C 224.611 116.341,224.498 116.000,224.085 116.000 C 223.673 116.000,223.559 115.659,223.685 114.800 C 223.782 114.140,223.734 113.600,223.579 113.600 C 223.294 113.600,222.276 111.426,222.366 111.010 C 222.451 110.618,220.613 108.898,220.300 109.076 C 220.135 109.170,220.000 109.002,220.000 108.702 C 220.000 108.001,217.445 105.200,216.807 105.200 C 216.539 105.200,215.817 104.660,215.200 104.000 C 214.583 103.340,213.791 102.800,213.440 102.800 C 213.088 102.800,212.800 102.620,212.800 102.400 C 212.800 102.180,212.440 102.000,212.000 102.000 C 211.560 102.000,211.200 101.820,211.200 101.600 C 211.200 101.380,210.660 101.200,210.000 101.200 C 209.340 101.200,208.800 101.020,208.800 100.800 C 208.800 100.580,208.361 100.400,207.824 100.400 C 207.287 100.400,206.736 100.220,206.600 100.000 C 206.452 99.761,203.804 99.600,200.000 99.600 C 196.196 99.600,193.548 99.761,193.400 100.000 M268.600 150.000 C 268.464 150.220,267.924 150.400,267.400 150.400 C 266.876 150.400,266.336 150.580,266.200 150.800 C 266.064 151.020,265.622 151.200,265.217 151.200 C 264.163 151.200,259.951 153.492,259.302 154.418 C 259.001 154.848,258.579 155.200,258.364 155.200 C 257.856 155.200,255.200 157.856,255.200 158.364 C 255.200 158.579,254.848 159.001,254.418 159.302 C 253.492 159.951,251.200 164.163,251.200 165.217 C 251.200 165.622,251.020 166.064,250.800 166.200 C 250.580 166.336,250.400 166.876,250.400 167.400 C 250.400 167.924,250.220 168.464,250.000 168.600 C 249.737 168.762,249.600 183.863,249.600 212.600 C 249.600 241.337,249.737 256.438,250.000 256.600 C 250.220 256.736,250.400 257.287,250.400 257.824 C 250.400 258.361,250.580 258.800,250.800 258.800 C 251.020 258.800,251.200 259.340,251.200 260.000 C 251.200 260.660,251.380 261.200,251.600 261.200 C 251.820 261.200,252.000 261.560,252.000 262.000 C 252.000 262.440,252.180 262.800,252.400 262.800 C 252.620 262.800,252.800 263.088,252.800 263.440 C 252.800 263.791,253.340 264.583,254.000 265.200 C 254.660 265.817,255.200 266.539,255.200 266.807 C 255.200 267.445,258.001 270.000,258.702 270.000 C 259.002 270.000,259.170 270.135,259.076 270.300 C 258.900 270.610,260.873 272.710,261.104 272.459 C 261.309 272.236,263.600 273.265,263.600 273.579 C 263.600 273.734,264.140 273.782,264.800 273.685 C 265.659 273.559,266.000 273.673,266.000 274.085 C 266.000 274.498,266.341 274.611,267.200 274.485 C 267.920 274.380,268.400 274.487,268.400 274.755 C 268.400 275.064,270.418 275.200,275.000 275.200 C 279.582 275.200,281.600 275.064,281.600 274.755 C 281.600 274.487,282.080 274.380,282.800 274.485 C 283.659 274.611,284.000 274.498,284.000 274.085 C 284.000 273.673,284.341 273.559,285.200 273.685 C 285.860 273.782,286.400 273.734,286.400 273.579 C 286.400 273.320,288.343 272.375,289.083 272.274 C 289.626 272.200,291.104 270.616,290.924 270.300 C 290.830 270.135,290.998 270.000,291.298 270.000 C 291.999 270.000,294.800 267.445,294.800 266.807 C 294.800 266.539,295.340 265.817,296.000 265.200 C 296.660 264.583,297.200 263.791,297.200 263.440 C 297.200 263.088,297.380 262.800,297.600 262.800 C 297.820 262.800,298.000 262.440,298.000 262.000 C 298.000 261.560,298.180 261.200,298.400 261.200 C 298.620 261.200,298.800 260.660,298.800 260.000 C 298.800 259.340,298.980 258.800,299.200 258.800 C 299.420 258.800,299.600 258.361,299.600 257.824 C 299.600 257.287,299.780 256.736,300.000 256.600 C 300.263 256.438,300.400 241.337,300.400 212.600 C 300.400 183.863,300.263 168.762,300.000 168.600 C 299.780 168.464,299.600 167.924,299.600 167.400 C 299.600 166.876,299.420 166.336,299.200 166.200 C 298.980 166.064,298.800 165.622,298.800 165.217 C 298.800 164.163,296.508 159.951,295.582 159.302 C 295.152 159.001,294.800 158.579,294.800 158.364 C 294.800 157.856,292.144 155.200,291.636 155.200 C 291.421 155.200,290.999 154.848,290.698 154.418 C 290.049 153.492,285.837 151.200,284.783 151.200 C 284.378 151.200,283.936 151.020,283.800 150.800 C 283.664 150.580,283.124 150.400,282.600 150.400 C 282.076 150.400,281.536 150.220,281.400 150.000 C 281.253 149.761,278.670 149.600,275.000 149.600 C 271.330 149.600,268.747 149.761,268.600 150.000 M118.400 175.245 C 118.400 175.513,117.920 175.620,117.200 175.515 C 116.341 175.389,116.000 175.502,116.000 175.915 C 116.000 176.327,115.659 176.441,114.800 176.315 C 114.140 176.218,113.600 176.266,113.600 176.421 C 113.600 176.706,111.426 177.724,111.010 177.634 C 110.618 177.549,108.898 179.387,109.076 179.700 C 109.170 179.865,109.002 180.000,108.702 180.000 C 108.001 180.000,105.200 182.555,105.200 183.193 C 105.200 183.461,104.660 184.183,104.000 184.800 C 103.340 185.417,102.800 186.209,102.800 186.560 C 102.800 186.912,102.620 187.200,102.400 187.200 C 102.180 187.200,102.000 187.560,102.000 188.000 C 102.000 188.440,101.820 188.800,101.600 188.800 C 101.380 188.800,101.200 189.340,101.200 190.000 C 101.200 190.660,101.020 191.200,100.800 191.200 C 100.580 191.200,100.400 191.639,100.400 192.176 C 100.400 192.713,100.220 193.264,100.000 193.400 C 99.448 193.741,99.448 256.259,100.000 256.600 C 100.220 256.736,100.400 257.287,100.400 257.824 C 100.400 258.361,100.580 258.800,100.800 258.800 C 101.020 258.800,101.200 259.340,101.200 260.000 C 101.200 260.660,101.380 261.200,101.600 261.200 C 101.820 261.200,102.000 261.560,102.000 262.000 C 102.000 262.440,102.180 262.800,102.400 262.800 C 102.620 262.800,102.800 263.088,102.800 263.440 C 102.800 263.791,103.340 264.583,104.000 265.200 C 104.660 265.817,105.200 266.539,105.200 266.807 C 105.200 267.445,108.001 270.000,108.702 270.000 C 109.002 270.000,109.170 270.135,109.076 270.300 C 108.898 270.613,110.618 272.451,111.010 272.366 C 111.426 272.276,113.600 273.294,113.600 273.579 C 113.600 273.734,114.140 273.782,114.800 273.685 C 115.659 273.559,116.000 273.673,116.000 274.085 C 116.000 274.498,116.341 274.611,117.200 274.485 C 117.920 274.380,118.400 274.487,118.400 274.755 C 118.400 275.064,120.418 275.200,125.000 275.200 C 129.582 275.200,131.600 275.064,131.600 274.755 C 131.600 274.487,132.080 274.380,132.800 274.485 C 133.659 274.611,134.000 274.498,134.000 274.085 C 134.000 273.673,134.341 273.559,135.200 273.685 C 135.860 273.782,136.400 273.734,136.400 273.579 C 136.400 273.265,138.691 272.236,138.896 272.459 C 139.127 272.710,141.100 270.610,140.924 270.300 C 140.830 270.135,140.998 270.000,141.298 270.000 C 141.999 270.000,144.800 267.445,144.800 266.807 C 144.800 266.539,145.340 265.817,146.000 265.200 C 146.660 264.583,147.200 263.791,147.200 263.440 C 147.200 263.088,147.380 262.800,147.600 262.800 C 147.820 262.800,148.000 262.440,148.000 262.000 C 148.000 261.560,148.180 261.200,148.400 261.200 C 148.620 261.200,148.800 260.660,148.800 260.000 C 148.800 259.340,148.980 258.800,149.200 258.800 C 149.420 258.800,149.600 258.361,149.600 257.824 C 149.600 257.287,149.780 256.736,150.000 256.600 C 150.261 256.439,150.400 245.470,150.400 225.000 C 150.400 204.530,150.261 193.561,150.000 193.400 C 149.780 193.264,149.600 192.713,149.600 192.176 C 149.600 191.639,149.420 191.200,149.200 191.200 C 148.980 191.200,148.800 190.660,148.800 190.000 C 148.800 189.340,148.620 188.800,148.400 188.800 C 148.180 188.800,148.000 188.440,148.000 188.000 C 148.000 187.560,147.820 187.200,147.600 187.200 C 147.380 187.200,147.200 186.912,147.200 186.560 C 147.200 186.209,146.660 185.417,146.000 184.800 C 145.340 184.183,144.800 183.461,144.800 183.193 C 144.800 182.555,141.999 180.000,141.298 180.000 C 140.998 180.000,140.830 179.865,140.924 179.700 C 141.102 179.387,139.382 177.549,138.990 177.634 C 138.574 177.724,136.400 176.706,136.400 176.421 C 136.400 176.266,135.860 176.218,135.200 176.315 C 134.341 176.441,134.000 176.327,134.000 175.915 C 134.000 175.502,133.659 175.389,132.800 175.515 C 132.080 175.620,131.600 175.513,131.600 175.245 C 131.600 174.936,129.582 174.800,125.000 174.800 C 120.418 174.800,118.400 174.936,118.400 175.245 " stroke="none" fill="#4c5c8c" fill-rule="evenodd"></path><path id="path1" d="M175.102 257.400 C 175.207 257.950,175.362 258.400,175.447 258.400 C 175.531 258.400,175.600 257.950,175.600 257.400 C 175.600 256.850,175.445 256.400,175.255 256.400 C 175.066 256.400,174.997 256.850,175.102 257.400 M224.400 257.400 C 224.400 257.950,224.469 258.400,224.553 258.400 C 224.638 258.400,224.793 257.950,224.898 257.400 C 225.003 256.850,224.934 256.400,224.745 256.400 C 224.555 256.400,224.400 256.850,224.400 257.400 M325.102 257.400 C 325.207 257.950,325.362 258.400,325.447 258.400 C 325.531 258.400,325.600 257.950,325.600 257.400 C 325.600 256.850,325.445 256.400,325.255 256.400 C 325.066 256.400,324.997 256.850,325.102 257.400 M374.400 257.400 C 374.400 257.950,374.469 258.400,374.553 258.400 C 374.638 258.400,374.793 257.950,374.898 257.400 C 375.003 256.850,374.934 256.400,374.745 256.400 C 374.555 256.400,374.400 256.850,374.400 257.400 M191.600 274.553 C 191.600 274.638,192.050 274.793,192.600 274.898 C 193.150 275.003,193.600 274.934,193.600 274.745 C 193.600 274.555,193.150 274.400,192.600 274.400 C 192.050 274.400,191.600 274.469,191.600 274.553 M206.400 274.745 C 206.400 274.934,206.850 275.003,207.400 274.898 C 207.950 274.793,208.400 274.638,208.400 274.553 C 208.400 274.469,207.950 274.400,207.400 274.400 C 206.850 274.400,206.400 274.555,206.400 274.745 M341.600 274.553 C 341.600 274.638,342.050 274.793,342.600 274.898 C 343.150 275.003,343.600 274.934,343.600 274.745 C 343.600 274.555,343.150 274.400,342.600 274.400 C 342.050 274.400,341.600 274.469,341.600 274.553 M356.400 274.745 C 356.400 274.934,356.850 275.003,357.400 274.898 C 357.950 274.793,358.400 274.638,358.400 274.553 C 358.400 274.469,357.950 274.400,357.400 274.400 C 356.850 274.400,356.400 274.555,356.400 274.745 M45.905 373.883 C 46.402 373.979,47.122 373.975,47.505 373.875 C 47.887 373.775,47.480 373.696,46.600 373.701 C 45.720 373.705,45.407 373.787,45.905 373.883 M49.305 374.687 C 49.914 374.779,50.814 374.777,51.305 374.682 C 51.797 374.587,51.300 374.511,50.200 374.514 C 49.100 374.517,48.697 374.595,49.305 374.687 " stroke="none" fill="#505c8c" fill-rule="evenodd"></path><path id="path2" d="M175.102 257.400 C 175.207 257.950,175.362 258.400,175.447 258.400 C 175.531 258.400,175.600 257.950,175.600 257.400 C 175.600 256.850,175.445 256.400,175.255 256.400 C 175.066 256.400,174.997 256.850,175.102 257.400 M224.400 257.400 C 224.400 257.950,224.469 258.400,224.553 258.400 C 224.638 258.400,224.793 257.950,224.898 257.400 C 225.003 256.850,224.934 256.400,224.745 256.400 C 224.555 256.400,224.400 256.850,224.400 257.400 M325.102 257.400 C 325.207 257.950,325.362 258.400,325.447 258.400 C 325.531 258.400,325.600 257.950,325.600 257.400 C 325.600 256.850,325.445 256.400,325.255 256.400 C 325.066 256.400,324.997 256.850,325.102 257.400 M374.400 257.400 C 374.400 257.950,374.469 258.400,374.553 258.400 C 374.638 258.400,374.793 257.950,374.898 257.400 C 375.003 256.850,374.934 256.400,374.745 256.400 C 374.555 256.400,374.400 256.850,374.400 257.400 M191.600 274.553 C 191.600 274.638,192.050 274.793,192.600 274.898 C 193.150 275.003,193.600 274.934,193.600 274.745 C 193.600 274.555,193.150 274.400,192.600 274.400 C 192.050 274.400,191.600 274.469,191.600 274.553 M206.400 274.745 C 206.400 274.934,206.850 275.003,207.400 274.898 C 207.950 274.793,208.400 274.638,208.400 274.553 C 208.400 274.469,207.950 274.400,207.400 274.400 C 206.850 274.400,206.400 274.555,206.400 274.745 M341.600 274.553 C 341.600 274.638,342.050 274.793,342.600 274.898 C 343.150 275.003,343.600 274.934,343.600 274.745 C 343.600 274.555,343.150 274.400,342.600 274.400 C 342.050 274.400,341.600 274.469,341.600 274.553 M356.400 274.745 C 356.400 274.934,356.850 275.003,357.400 274.898 C 357.950 274.793,358.400 274.638,358.400 274.553 C 358.400 274.469,357.950 274.400,357.400 274.400 C 356.850 274.400,356.400 274.555,356.400 274.745 M45.905 373.883 C 46.402 373.979,47.122 373.975,47.505 373.875 C 47.887 373.775,47.480 373.696,46.600 373.701 C 45.720 373.705,45.407 373.787,45.905 373.883 M49.305 374.687 C 49.914 374.779,50.814 374.777,51.305 374.682 C 51.797 374.587,51.300 374.511,50.200 374.514 C 49.100 374.517,48.697 374.595,49.305 374.687 " stroke="none" fill="#505c8c" fill-rule="evenodd"></path><path id="path3" d="M175.102 257.400 C 175.207 257.950,175.362 258.400,175.447 258.400 C 175.531 258.400,175.600 257.950,175.600 257.400 C 175.600 256.850,175.445 256.400,175.255 256.400 C 175.066 256.400,174.997 256.850,175.102 257.400 M224.400 257.400 C 224.400 257.950,224.469 258.400,224.553 258.400 C 224.638 258.400,224.793 257.950,224.898 257.400 C 225.003 256.850,224.934 256.400,224.745 256.400 C 224.555 256.400,224.400 256.850,224.400 257.400 M325.102 257.400 C 325.207 257.950,325.362 258.400,325.447 258.400 C 325.531 258.400,325.600 257.950,325.600 257.400 C 325.600 256.850,325.445 256.400,325.255 256.400 C 325.066 256.400,324.997 256.850,325.102 257.400 M374.400 257.400 C 374.400 257.950,374.469 258.400,374.553 258.400 C 374.638 258.400,374.793 257.950,374.898 257.400 C 375.003 256.850,374.934 256.400,374.745 256.400 C 374.555 256.400,374.400 256.850,374.400 257.400 M191.600 274.553 C 191.600 274.638,192.050 274.793,192.600 274.898 C 193.150 275.003,193.600 274.934,193.600 274.745 C 193.600 274.555,193.150 274.400,192.600 274.400 C 192.050 274.400,191.600 274.469,191.600 274.553 M206.400 274.745 C 206.400 274.934,206.850 275.003,207.400 274.898 C 207.950 274.793,208.400 274.638,208.400 274.553 C 208.400 274.469,207.950 274.400,207.400 274.400 C 206.850 274.400,206.400 274.555,206.400 274.745 M341.600 274.553 C 341.600 274.638,342.050 274.793,342.600 274.898 C 343.150 275.003,343.600 274.934,343.600 274.745 C 343.600 274.555,343.150 274.400,342.600 274.400 C 342.050 274.400,341.600 274.469,341.600 274.553 M356.400 274.745 C 356.400 274.934,356.850 275.003,357.400 274.898 C 357.950 274.793,358.400 274.638,358.400 274.553 C 358.400 274.469,357.950 274.400,357.400 274.400 C 356.850 274.400,356.400 274.555,356.400 274.745 M45.905 373.883 C 46.402 373.979,47.122 373.975,47.505 373.875 C 47.887 373.775,47.480 373.696,46.600 373.701 C 45.720 373.705,45.407 373.787,45.905 373.883 M49.305 374.687 C 49.914 374.779,50.814 374.777,51.305 374.682 C 51.797 374.587,51.300 374.511,50.200 374.514 C 49.100 374.517,48.697 374.595,49.305 374.687 " stroke="none" fill="#505c8c" fill-rule="evenodd"></path><path id="path4" d="M175.102 257.400 C 175.207 257.950,175.362 258.400,175.447 258.400 C 175.531 258.400,175.600 257.950,175.600 257.400 C 175.600 256.850,175.445 256.400,175.255 256.400 C 175.066 256.400,174.997 256.850,175.102 257.400 M224.400 257.400 C 224.400 257.950,224.469 258.400,224.553 258.400 C 224.638 258.400,224.793 257.950,224.898 257.400 C 225.003 256.850,224.934 256.400,224.745 256.400 C 224.555 256.400,224.400 256.850,224.400 257.400 M325.102 257.400 C 325.207 257.950,325.362 258.400,325.447 258.400 C 325.531 258.400,325.600 257.950,325.600 257.400 C 325.600 256.850,325.445 256.400,325.255 256.400 C 325.066 256.400,324.997 256.850,325.102 257.400 M374.400 257.400 C 374.400 257.950,374.469 258.400,374.553 258.400 C 374.638 258.400,374.793 257.950,374.898 257.400 C 375.003 256.850,374.934 256.400,374.745 256.400 C 374.555 256.400,374.400 256.850,374.400 257.400 M191.600 274.553 C 191.600 274.638,192.050 274.793,192.600 274.898 C 193.150 275.003,193.600 274.934,193.600 274.745 C 193.600 274.555,193.150 274.400,192.600 274.400 C 192.050 274.400,191.600 274.469,191.600 274.553 M206.400 274.745 C 206.400 274.934,206.850 275.003,207.400 274.898 C 207.950 274.793,208.400 274.638,208.400 274.553 C 208.400 274.469,207.950 274.400,207.400 274.400 C 206.850 274.400,206.400 274.555,206.400 274.745 M341.600 274.553 C 341.600 274.638,342.050 274.793,342.600 274.898 C 343.150 275.003,343.600 274.934,343.600 274.745 C 343.600 274.555,343.150 274.400,342.600 274.400 C 342.050 274.400,341.600 274.469,341.600 274.553 M356.400 274.745 C 356.400 274.934,356.850 275.003,357.400 274.898 C 357.950 274.793,358.400 274.638,358.400 274.553 C 358.400 274.469,357.950 274.400,357.400 274.400 C 356.850 274.400,356.400 274.555,356.400 274.745 M45.905 373.883 C 46.402 373.979,47.122 373.975,47.505 373.875 C 47.887 373.775,47.480 373.696,46.600 373.701 C 45.720 373.705,45.407 373.787,45.905 373.883 M49.305 374.687 C 49.914 374.779,50.814 374.777,51.305 374.682 C 51.797 374.587,51.300 374.511,50.200 374.514 C 49.100 374.517,48.697 374.595,49.305 374.687 " stroke="none" fill="#505c8c" fill-rule="evenodd"></path></g></svg>