<svg id="svg" version="1.1" xmlns="http://www.w3.org/2000/svg" xmlns:xlink="http://www.w3.org/1999/xlink" width="400" height="400" viewBox="0, 0, 400,400"><g id="svgg"><path id="path0" d="M181.100 1.634 L 179.200 3.262 179.200 7.208 C 179.200 9.406,179.377 11.262,179.600 11.400 C 179.820 11.536,180.000 11.954,180.000 12.330 C 180.000 14.511,184.459 20.717,187.810 23.200 C 189.020 24.097,192.005 25.600,192.576 25.600 C 193.487 25.600,194.400 27.042,194.400 28.483 C 194.400 30.067,193.654 30.924,192.443 30.729 C 191.523 30.581,190.313 31.299,188.713 32.942 C 185.844 35.887,188.542 41.553,193.060 42.070 L 194.200 42.200 194.305 58.089 C 194.421 75.747,194.574 74.894,191.791 72.111 C 191.021 71.341,189.999 70.146,189.519 69.456 C 189.040 68.765,188.149 67.710,187.540 67.112 C 184.411 64.039,181.330 59.141,181.648 57.747 C 181.691 57.556,181.622 57.130,181.493 56.800 C 181.365 56.470,181.164 55.660,181.048 55.000 C 180.931 54.340,180.648 52.945,180.418 51.900 C 180.188 50.855,179.812 49.145,179.582 48.100 C 179.352 47.055,179.070 45.660,178.955 45.000 C 178.506 42.429,177.161 39.980,175.729 39.129 C 174.496 38.397,170.400 38.144,170.400 38.800 C 170.400 39.020,169.961 39.200,169.424 39.200 C 168.887 39.200,168.336 39.380,168.200 39.600 C 168.064 39.820,167.513 40.000,166.976 40.000 C 166.439 40.000,166.000 40.180,166.000 40.400 C 166.000 40.620,165.561 40.800,165.024 40.800 C 164.487 40.800,163.936 40.980,163.800 41.200 C 163.664 41.420,163.113 41.600,162.576 41.600 C 162.039 41.600,161.600 41.780,161.600 42.000 C 161.600 42.220,161.361 42.400,161.070 42.400 C 160.426 42.400,158.800 44.066,158.800 44.726 C 158.800 44.987,158.620 45.200,158.400 45.200 C 158.180 45.200,158.000 46.100,158.000 47.200 C 158.000 48.300,158.180 49.200,158.400 49.200 C 158.620 49.200,158.800 49.483,158.800 49.829 C 158.800 51.764,164.316 53.826,165.820 52.453 C 166.497 51.834,168.797 51.572,168.831 52.110 C 168.847 52.380,168.955 52.960,169.070 53.400 C 169.185 53.840,169.370 54.876,169.482 55.703 C 169.593 56.529,169.845 57.305,170.042 57.426 C 170.239 57.548,170.400 58.346,170.400 59.200 C 170.400 60.054,170.580 60.864,170.800 61.000 C 171.020 61.136,171.200 61.869,171.200 62.629 C 171.200 63.389,171.353 64.323,171.539 64.705 C 172.865 67.417,172.915 67.487,177.067 72.311 C 178.805 74.332,178.661 74.400,172.670 74.400 L 167.387 74.400 162.893 69.894 C 159.854 66.846,158.400 65.098,158.400 64.494 C 158.400 64.002,158.220 63.600,158.000 63.600 C 157.780 63.600,157.600 63.161,157.600 62.624 C 157.600 62.087,157.420 61.536,157.200 61.400 C 156.980 61.264,156.800 60.801,156.800 60.371 C 156.800 59.941,156.620 59.232,156.400 58.795 C 156.180 58.358,155.820 57.642,155.600 57.205 C 155.380 56.768,155.200 56.136,155.200 55.800 C 155.200 55.464,155.020 54.832,154.800 54.395 C 154.580 53.958,154.220 53.242,154.000 52.805 C 153.780 52.368,153.600 51.766,153.600 51.467 C 153.600 49.497,150.977 46.594,148.896 46.262 C 146.853 45.935,146.095 46.116,142.000 47.908 C 141.010 48.341,139.750 48.835,139.200 49.005 C 134.261 50.536,132.953 56.712,137.006 59.367 C 138.095 60.081,143.200 60.273,143.200 59.600 C 143.200 59.380,143.560 59.200,144.000 59.200 C 144.525 59.200,144.800 59.467,144.800 59.976 C 144.800 60.403,144.980 60.864,145.200 61.000 C 145.420 61.136,145.600 61.676,145.600 62.200 C 145.600 62.724,145.757 63.250,145.948 63.368 C 146.251 63.555,146.479 64.272,147.023 66.752 C 147.090 67.056,147.337 67.497,147.572 67.732 C 147.808 67.968,148.000 68.450,148.000 68.805 C 148.000 70.044,149.553 72.614,151.371 74.385 L 153.204 76.171 151.248 78.185 C 149.503 79.982,149.000 80.791,147.755 83.800 C 147.573 84.240,147.328 86.850,147.212 89.600 L 147.000 94.600 91.419 94.701 C 55.166 94.768,35.699 94.941,35.439 95.201 C 35.219 95.421,34.707 95.600,34.301 95.600 C 32.290 95.600,28.521 98.909,27.239 101.800 C 26.946 102.460,26.548 103.313,26.353 103.695 C 25.858 104.668,25.900 116.291,26.400 116.600 C 26.620 116.736,26.800 117.199,26.800 117.629 C 26.800 120.443,32.486 125.600,35.589 125.600 C 37.371 125.600,37.642 126.312,37.515 130.659 L 37.400 134.600 21.359 134.800 L 5.319 135.000 3.766 136.553 C 1.339 138.981,1.958 145.200,4.627 145.200 C 4.942 145.200,5.200 145.380,5.200 145.600 C 5.200 145.820,5.650 146.000,6.200 146.000 L 7.200 146.000 7.200 151.176 C 7.200 154.196,7.367 156.456,7.600 156.600 C 7.820 156.736,8.000 157.287,8.000 157.824 C 8.000 158.361,8.180 158.800,8.400 158.800 C 8.620 158.800,8.800 159.068,8.800 159.395 C 8.800 161.323,13.204 164.747,17.300 166.002 L 18.800 166.462 18.800 266.216 L 18.800 365.969 17.000 367.821 C 16.010 368.840,15.200 370.006,15.200 370.413 C 15.200 370.820,15.020 371.264,14.800 371.400 C 14.554 371.552,14.400 374.871,14.400 380.024 L 14.400 388.400 12.995 388.400 C 10.853 388.400,8.802 389.712,7.797 391.726 C 7.124 393.075,6.989 396.000,7.600 396.000 C 7.820 396.000,8.000 396.278,8.000 396.618 C 8.000 397.418,9.782 399.200,10.582 399.200 C 10.922 399.200,11.200 399.380,11.200 399.600 C 11.200 399.866,74.400 400.000,200.000 400.000 C 325.600 400.000,388.800 399.866,388.800 399.600 C 388.800 399.380,389.078 399.200,389.418 399.200 C 390.207 399.200,392.000 397.423,392.000 396.642 C 392.000 396.315,392.180 395.936,392.400 395.800 C 392.922 395.478,392.922 392.400,392.400 392.400 C 392.180 392.400,392.000 392.071,392.000 391.670 C 392.000 390.272,389.141 388.400,387.005 388.400 L 385.600 388.400 385.600 380.024 C 385.600 374.871,385.446 371.552,385.200 371.400 C 384.980 371.264,384.800 370.820,384.800 370.413 C 384.800 370.006,383.990 368.840,383.000 367.821 L 381.200 365.969 381.200 327.396 L 381.200 288.823 380.254 286.684 C 378.587 282.915,374.711 281.991,371.574 284.615 C 369.516 286.336,369.600 284.595,369.600 325.748 L 369.600 364.307 368.700 364.548 C 366.733 365.075,351.318 364.825,350.848 364.258 C 350.517 363.859,350.425 340.286,350.499 275.158 L 350.600 186.600 360.094 186.493 L 369.588 186.386 369.694 224.893 C 369.798 262.668,369.815 263.420,370.598 264.450 C 373.457 268.213,378.625 267.690,380.382 263.462 C 381.190 261.516,381.200 260.934,381.200 213.978 L 381.200 166.462 382.700 166.002 C 386.796 164.747,391.200 161.323,391.200 159.395 C 391.200 159.068,391.380 158.800,391.600 158.800 C 391.820 158.800,392.000 158.361,392.000 157.824 C 392.000 157.287,392.180 156.736,392.400 156.600 C 392.633 156.456,392.800 154.196,392.800 151.176 L 392.800 146.000 393.800 146.000 C 394.350 146.000,394.800 145.841,394.800 145.647 C 394.800 145.452,395.163 145.198,395.607 145.082 C 398.219 144.399,398.552 138.872,396.127 136.447 L 394.681 135.000 378.641 134.800 L 362.600 134.600 362.485 130.659 C 362.358 126.312,362.629 125.600,364.411 125.600 C 367.514 125.600,373.200 120.443,373.200 117.629 C 373.200 117.199,373.380 116.736,373.600 116.600 C 374.097 116.293,374.143 104.673,373.650 103.695 C 371.903 100.224,371.420 99.324,371.039 98.834 C 370.304 97.886,366.490 95.600,365.643 95.600 C 365.205 95.600,364.736 95.420,364.600 95.200 C 364.206 94.562,308.641 94.659,307.495 95.300 C 303.682 97.431,302.941 100.843,305.579 104.119 C 307.093 105.998,306.954 105.989,335.600 106.098 L 362.600 106.200 362.715 110.167 C 362.800 113.071,362.693 114.221,362.315 114.461 C 362.032 114.641,333.948 114.791,299.908 114.794 L 238.015 114.800 237.790 113.900 C 237.665 113.405,237.617 111.470,237.682 109.600 L 237.800 106.200 261.100 106.097 C 274.985 106.035,284.400 105.844,284.400 105.625 C 284.400 105.422,284.804 105.198,285.298 105.128 C 287.451 104.821,288.563 100.515,287.212 97.718 C 285.922 95.050,285.767 95.026,268.400 94.800 L 253.000 94.600 252.788 89.600 C 252.672 86.850,252.427 84.240,252.245 83.800 C 251.078 80.979,250.472 80.005,248.751 78.186 L 246.823 76.147 248.776 74.223 C 249.952 73.065,250.995 71.563,251.396 70.450 C 251.762 69.432,252.271 68.173,252.525 67.650 C 252.780 67.128,253.001 66.498,253.017 66.250 C 253.051 65.721,253.507 64.484,254.029 63.505 C 254.233 63.123,254.400 62.459,254.400 62.029 C 254.400 61.599,254.580 61.136,254.800 61.000 C 255.020 60.864,255.200 60.403,255.200 59.976 C 255.200 59.467,255.475 59.200,256.000 59.200 C 256.440 59.200,256.800 59.380,256.800 59.600 C 256.800 60.273,261.905 60.081,262.994 59.367 C 266.923 56.793,265.665 50.207,261.022 49.041 C 260.411 48.888,259.077 48.393,258.056 47.941 C 253.959 46.129,253.158 45.933,251.140 46.256 C 249.573 46.507,247.200 48.372,247.200 49.354 C 247.200 49.683,247.020 50.064,246.800 50.200 C 246.580 50.336,246.400 50.799,246.400 51.229 C 246.400 51.659,246.220 52.368,246.000 52.805 C 245.780 53.242,245.420 53.958,245.200 54.395 C 244.980 54.832,244.800 55.464,244.800 55.800 C 244.800 56.136,244.620 56.768,244.400 57.205 C 244.180 57.642,243.820 58.358,243.600 58.795 C 243.380 59.232,243.200 59.941,243.200 60.371 C 243.200 60.801,243.020 61.264,242.800 61.400 C 242.580 61.536,242.400 62.087,242.400 62.624 C 242.400 63.161,242.220 63.600,242.000 63.600 C 241.780 63.600,241.600 63.981,241.600 64.447 C 241.600 64.987,239.981 66.938,237.120 69.847 L 232.639 74.400 227.320 74.400 C 220.776 74.400,220.791 74.455,225.847 68.913 C 226.533 68.161,227.319 67.063,227.594 66.473 C 227.868 65.883,228.252 65.087,228.447 64.705 C 228.641 64.323,228.800 63.389,228.800 62.629 C 228.800 61.869,228.980 61.136,229.200 61.000 C 229.420 60.864,229.600 60.054,229.600 59.200 C 229.600 58.346,229.761 57.548,229.958 57.426 C 230.155 57.305,230.407 56.529,230.518 55.703 C 230.630 54.876,230.815 53.840,230.930 53.400 C 231.045 52.960,231.153 52.380,231.169 52.110 C 231.203 51.572,233.503 51.834,234.180 52.453 C 235.684 53.826,241.200 51.764,241.200 49.829 C 241.200 49.483,241.380 49.200,241.600 49.200 C 241.820 49.200,242.000 48.300,242.000 47.200 C 242.000 46.100,241.820 45.200,241.600 45.200 C 241.380 45.200,241.200 44.961,241.200 44.670 C 241.200 44.026,239.534 42.400,238.874 42.400 C 238.613 42.400,238.400 42.220,238.400 42.000 C 238.400 41.780,237.961 41.600,237.424 41.600 C 236.887 41.600,236.336 41.420,236.200 41.200 C 236.064 40.980,235.513 40.800,234.976 40.800 C 234.439 40.800,234.000 40.620,234.000 40.400 C 234.000 40.180,233.561 40.000,233.024 40.000 C 232.487 40.000,231.936 39.820,231.800 39.600 C 231.664 39.380,231.113 39.200,230.576 39.200 C 230.039 39.200,229.600 39.020,229.600 38.800 C 229.600 38.144,225.504 38.397,224.271 39.129 C 222.839 39.980,221.494 42.429,221.045 45.000 C 220.930 45.660,220.648 47.055,220.418 48.100 C 220.188 49.145,219.812 50.855,219.582 51.900 C 219.352 52.945,219.069 54.340,218.952 55.000 C 218.836 55.660,218.635 56.470,218.507 56.800 C 218.378 57.130,218.309 57.556,218.352 57.747 C 218.633 58.979,214.532 65.751,213.157 66.323 C 212.995 66.391,212.083 67.467,211.131 68.716 C 209.255 71.176,206.475 74.000,205.930 74.000 C 205.744 74.000,205.638 66.845,205.695 58.100 L 205.800 42.200 206.800 42.077 C 211.503 41.497,214.230 36.049,211.300 33.089 C 209.297 31.067,208.386 30.478,207.584 30.688 C 206.397 30.999,205.600 30.085,205.600 28.413 C 205.600 26.963,206.518 25.600,207.494 25.600 C 213.064 25.600,220.800 14.614,220.800 6.703 L 220.800 3.262 218.900 1.634 C 216.874 -0.103,214.665 -0.553,213.334 0.500 C 210.830 2.482,209.600 4.814,209.600 7.582 C 209.600 8.772,208.477 11.172,207.297 12.500 C 206.143 13.800,205.715 13.319,205.427 10.400 C 205.276 8.860,204.982 7.600,204.776 7.600 C 204.569 7.600,204.398 7.375,204.395 7.100 C 204.368 4.374,195.632 4.374,195.605 7.100 C 195.602 7.375,195.431 7.600,195.224 7.600 C 195.018 7.600,194.724 8.860,194.573 10.400 C 194.285 13.319,193.857 13.800,192.703 12.500 C 191.523 11.172,190.400 8.772,190.400 7.582 C 190.400 4.814,189.170 2.482,186.666 0.500 C 185.335 -0.553,183.126 -0.103,181.100 1.634 M240.826 86.414 C 241.884 86.980,242.009 94.158,240.967 94.557 C 240.140 94.875,159.860 94.875,159.033 94.557 C 158.050 94.180,158.109 87.009,159.100 86.432 C 160.079 85.862,239.762 85.844,240.826 86.414 M162.318 109.600 C 162.383 111.470,162.335 113.405,162.210 113.900 L 161.985 114.800 100.225 114.800 C 66.257 114.800,38.181 114.691,37.833 114.557 C 37.176 114.305,36.850 106.884,37.468 106.265 C 37.615 106.118,65.740 106.043,99.968 106.099 L 162.200 106.200 162.318 109.600 M226.305 119.953 C 226.380 129.769,226.281 133.862,225.956 134.253 C 225.330 135.007,174.833 135.073,174.080 134.320 C 173.557 133.797,173.354 106.779,173.870 106.264 C 174.018 106.116,185.853 106.041,200.170 106.097 L 226.200 106.200 226.305 119.953 M162.316 130.140 C 162.391 132.405,162.265 133.881,161.967 134.240 C 161.328 135.009,50.049 135.089,49.280 134.320 C 48.769 133.809,48.585 127.149,49.068 126.665 C 49.215 126.518,74.730 126.443,105.768 126.499 L 162.200 126.600 162.316 130.140 M351.116 130.140 C 351.191 132.405,351.065 133.881,350.767 134.240 C 350.128 135.009,238.849 135.089,238.080 134.320 C 237.569 133.809,237.385 127.149,237.868 126.665 C 238.015 126.518,263.530 126.443,294.568 126.499 L 351.000 126.600 351.116 130.140 M381.518 149.600 C 381.583 151.470,381.535 153.405,381.410 153.900 L 381.185 154.800 200.035 154.800 C 35.219 154.800,18.864 154.743,18.643 154.167 C 18.313 153.307,18.333 146.600,18.667 146.266 C 18.814 146.119,100.489 146.044,200.167 146.100 L 381.400 146.200 381.518 149.600 M369.515 170.367 C 369.599 173.432,369.493 174.621,369.115 174.861 C 368.528 175.234,32.002 175.329,31.033 174.957 C 30.377 174.705,30.048 166.886,30.667 166.266 C 30.814 166.119,107.089 166.044,200.167 166.100 L 369.400 166.200 369.515 170.367 M49.501 275.158 C 49.575 340.286,49.483 363.859,49.152 364.258 C 48.682 364.825,33.267 365.075,31.300 364.548 L 30.400 364.307 30.400 275.346 L 30.400 186.386 39.900 186.493 L 49.400 186.600 49.501 275.158 M82.800 276.240 L 82.800 366.079 81.700 367.160 C 80.049 368.781,79.200 369.943,79.200 370.581 C 79.200 370.895,79.020 371.264,78.800 371.400 C 78.554 371.552,78.400 374.871,78.400 380.024 L 78.400 388.400 72.000 388.400 L 65.600 388.400 65.525 381.300 C 65.426 371.932,65.268 370.259,64.419 369.600 C 64.277 369.490,63.760 368.826,63.270 368.124 C 62.780 367.422,62.024 366.735,61.590 366.597 C 60.807 366.348,60.800 365.600,60.800 276.373 L 60.800 186.400 71.800 186.400 L 82.800 186.400 82.800 276.240 M113.503 275.200 C 113.599 358.145,113.562 363.832,112.926 364.300 C 112.212 364.826,97.128 365.038,95.300 364.548 L 94.400 364.307 94.400 275.346 L 94.400 186.386 103.900 186.493 L 113.400 186.600 113.503 275.200 M147.101 276.171 L 147.202 365.742 145.901 366.988 C 144.096 368.717,143.200 369.909,143.200 370.581 C 143.200 370.895,143.020 371.264,142.800 371.400 C 142.554 371.552,142.400 374.871,142.400 380.024 L 142.400 388.400 136.000 388.400 L 129.600 388.400 129.600 380.024 C 129.600 374.871,129.446 371.552,129.200 371.400 C 128.980 371.264,128.800 370.803,128.800 370.376 C 128.800 369.949,128.659 369.600,128.486 369.600 C 128.314 369.600,127.847 369.048,127.448 368.374 C 127.050 367.700,126.291 366.951,125.762 366.710 L 124.800 366.272 124.800 276.329 L 124.800 186.387 135.900 186.494 L 147.000 186.600 147.101 276.171 M177.503 275.200 C 177.599 358.145,177.562 363.832,176.926 364.300 C 176.212 364.826,161.128 365.038,159.300 364.548 L 158.400 364.307 158.400 275.620 C 158.400 226.842,158.523 186.810,158.674 186.659 C 158.824 186.509,163.099 186.434,168.174 186.493 L 177.400 186.600 177.503 275.200 M211.101 276.500 C 211.169 336.902,211.069 366.400,210.797 366.400 C 210.232 366.400,208.000 368.589,208.000 369.143 C 208.000 369.394,207.820 369.600,207.600 369.600 C 207.380 369.600,207.200 369.949,207.200 370.376 C 207.200 370.803,207.020 371.264,206.800 371.400 C 206.554 371.552,206.400 374.871,206.400 380.024 L 206.400 388.400 200.000 388.400 L 193.600 388.400 193.600 380.024 C 193.600 374.871,193.446 371.552,193.200 371.400 C 192.980 371.264,192.800 370.803,192.800 370.376 C 192.800 369.949,192.659 369.600,192.486 369.600 C 192.314 369.600,191.847 369.048,191.448 368.374 C 191.050 367.700,190.291 366.951,189.762 366.710 L 188.800 366.272 188.800 276.602 C 188.800 227.284,188.923 186.811,189.073 186.660 C 189.223 186.510,194.218 186.435,200.173 186.494 L 211.000 186.600 211.101 276.500 M241.501 275.453 L 241.602 364.306 240.701 364.548 C 239.132 364.968,224.001 364.829,223.174 364.386 C 222.384 363.963,221.888 187.446,222.674 186.659 C 222.824 186.509,227.099 186.434,232.174 186.493 L 241.400 186.600 241.501 275.453 M275.200 276.336 L 275.200 366.272 274.238 366.710 C 273.709 366.951,272.950 367.700,272.552 368.374 C 272.153 369.048,271.686 369.600,271.514 369.600 C 271.341 369.600,271.200 369.949,271.200 370.376 C 271.200 370.803,271.020 371.264,270.800 371.400 C 270.554 371.552,270.400 374.871,270.400 380.024 L 270.400 388.400 264.000 388.400 L 257.600 388.400 257.600 380.024 C 257.600 374.871,257.446 371.552,257.200 371.400 C 256.980 371.264,256.800 370.895,256.800 370.581 C 256.800 369.909,255.904 368.717,254.100 366.989 L 252.800 365.743 252.800 276.338 C 252.800 227.166,252.920 186.813,253.067 186.667 C 253.213 186.520,258.253 186.400,264.267 186.400 L 275.200 186.400 275.200 276.336 M305.600 275.353 L 305.600 364.307 304.700 364.548 C 303.131 364.968,288.001 364.828,287.174 364.386 C 286.389 363.966,285.885 187.448,286.667 186.667 C 286.813 186.520,291.133 186.400,296.267 186.400 L 305.600 186.400 305.600 275.353 M339.200 276.336 L 339.200 366.272 338.238 366.710 C 337.709 366.951,336.950 367.700,336.552 368.374 C 336.153 369.048,335.686 369.600,335.514 369.600 C 335.341 369.600,335.200 369.930,335.200 370.333 C 335.200 370.737,335.065 371.204,334.900 371.371 C 334.566 371.710,334.578 371.433,334.475 381.300 L 334.400 388.400 328.000 388.400 L 321.600 388.400 321.600 380.024 C 321.600 374.871,321.446 371.552,321.200 371.400 C 320.980 371.264,320.800 370.895,320.800 370.581 C 320.800 369.943,319.951 368.781,318.300 367.160 L 317.200 366.079 317.200 276.240 L 317.200 186.400 328.200 186.400 L 339.200 186.400 339.200 276.336 M53.757 376.233 C 53.891 376.581,54.000 379.461,54.000 382.633 L 54.000 388.400 39.800 388.400 L 25.600 388.400 25.600 382.267 C 25.600 378.893,25.720 376.013,25.867 375.867 C 26.514 375.219,53.504 375.573,53.757 376.233 M117.910 382.100 L 118.020 388.400 103.810 388.400 L 89.600 388.400 89.600 382.633 C 89.600 379.461,89.710 376.578,89.845 376.228 C 90.063 375.658,91.571 375.601,103.945 375.695 L 117.800 375.800 117.910 382.100 M181.910 382.105 L 182.020 388.410 167.910 388.305 L 153.800 388.200 153.689 382.695 C 153.528 374.765,151.870 375.570,168.117 375.695 L 181.800 375.800 181.910 382.105 M245.997 376.395 C 246.256 376.878,246.379 379.350,246.311 382.695 L 246.200 388.200 232.100 388.305 L 218.000 388.410 218.000 382.272 C 218.000 378.896,218.120 376.013,218.267 375.867 C 219.047 375.086,245.567 375.591,245.997 376.395 M310.157 376.233 C 310.291 376.581,310.400 379.461,310.400 382.633 L 310.400 388.400 296.200 388.400 L 282.000 388.400 282.000 382.267 C 282.000 378.893,282.120 376.013,282.267 375.867 C 282.914 375.219,309.904 375.573,310.157 376.233 M374.310 382.100 L 374.420 388.400 360.210 388.400 L 346.000 388.400 346.000 382.633 C 346.000 379.461,346.110 376.578,346.245 376.228 C 346.463 375.658,347.971 375.601,360.345 375.695 L 374.200 375.800 374.310 382.100 " stroke="none" fill="#4b5a88" fill-rule="evenodd"></path><path id="path1" d="M0.000 200.000 L 0.000 400.000 5.300 399.989 C 10.282 399.979,10.539 399.941,9.589 399.350 C 4.644 396.279,6.837 388.000,12.595 388.000 L 14.000 388.000 14.000 379.638 C 14.000 370.302,14.249 369.269,17.098 366.768 L 18.400 365.624 18.400 266.241 L 18.400 166.857 16.258 166.234 C 9.861 164.374,6.816 159.580,6.806 151.350 L 6.800 146.500 5.700 146.278 C 1.861 145.502,0.221 139.970,2.841 136.638 C 4.749 134.213,4.759 134.212,21.700 134.075 L 37.200 133.949 37.200 130.439 C 37.200 126.771,36.752 126.000,34.619 126.000 C 32.658 126.000,28.098 122.249,27.002 119.735 C 26.634 118.891,26.168 117.887,25.966 117.505 C 25.489 116.601,25.489 104.199,25.966 103.295 C 26.168 102.913,26.609 101.962,26.946 101.183 C 27.726 99.380,30.582 96.530,32.400 95.741 C 33.170 95.406,34.113 94.968,34.495 94.766 C 34.906 94.550,57.978 94.400,90.995 94.400 L 146.800 94.400 146.800 89.528 C 146.800 83.237,147.881 80.282,151.299 77.228 L 152.478 76.174 150.463 74.028 C 149.355 72.847,148.239 71.323,147.984 70.641 C 147.728 69.958,147.369 69.040,147.186 68.600 C 147.003 68.160,146.472 66.630,146.007 65.200 C 145.543 63.770,144.991 62.287,144.781 61.905 C 144.571 61.523,144.400 60.943,144.400 60.615 C 144.400 59.980,142.552 60.128,141.080 60.881 C 140.292 61.284,138.043 60.697,136.477 59.678 C 134.473 58.375,133.375 54.362,134.450 52.274 C 135.472 50.290,136.644 49.419,140.200 47.999 C 140.640 47.823,141.853 47.302,142.896 46.840 C 143.938 46.378,145.053 46.000,145.372 46.000 C 145.691 46.000,146.064 45.820,146.200 45.600 C 146.612 44.933,148.499 45.171,150.363 46.124 C 152.395 47.163,153.710 49.336,155.255 54.200 C 155.535 55.080,155.907 55.971,156.082 56.180 C 156.257 56.389,156.400 56.886,156.400 57.285 C 156.400 57.684,156.580 58.368,156.800 58.805 C 157.020 59.242,157.380 59.958,157.600 60.395 C 157.820 60.832,158.000 61.464,158.000 61.800 C 158.000 62.136,158.159 62.723,158.353 63.105 C 158.548 63.487,158.925 64.270,159.192 64.845 C 159.458 65.420,161.513 67.721,163.758 69.958 L 167.840 74.026 172.803 73.913 L 177.766 73.800 176.783 72.795 C 174.429 70.388,171.672 66.618,171.278 65.266 C 171.043 64.460,170.659 62.945,170.425 61.900 C 170.191 60.855,169.829 59.235,169.620 58.300 C 168.394 52.824,168.245 52.400,167.548 52.400 C 167.163 52.400,166.736 52.580,166.600 52.800 C 166.464 53.020,165.189 53.200,163.766 53.200 C 158.003 53.200,155.356 47.023,159.389 42.989 C 160.374 42.005,161.546 41.200,161.995 41.200 C 162.444 41.200,163.123 41.041,163.505 40.847 C 164.678 40.250,166.126 39.676,167.800 39.145 C 168.680 38.865,169.571 38.493,169.780 38.318 C 170.360 37.833,174.738 37.939,175.726 38.463 C 177.476 39.390,178.544 41.077,179.232 44.000 C 180.285 48.480,180.883 51.165,181.992 56.400 C 183.081 61.539,182.388 60.350,188.140 66.951 C 188.546 67.418,189.446 68.494,190.140 69.342 C 190.833 70.191,191.895 71.425,192.500 72.085 L 193.600 73.285 193.600 57.842 L 193.600 42.400 192.661 42.400 C 189.224 42.400,186.842 39.085,187.128 34.700 C 187.239 33.001,189.972 30.482,191.874 30.326 C 193.558 30.187,194.277 27.126,192.800 26.387 C 192.470 26.222,191.300 25.662,190.201 25.143 C 186.314 23.309,182.694 19.696,180.840 15.800 C 180.107 14.260,179.348 12.687,179.154 12.305 C 178.959 11.923,178.800 11.134,178.800 10.552 C 178.800 9.969,178.591 8.796,178.336 7.945 C 177.598 5.481,179.028 1.756,181.157 0.599 C 182.060 0.108,169.931 0.030,91.100 0.016 L 0.000 0.000 0.000 200.000 M188.550 1.328 C 189.347 2.059,190.000 2.948,190.000 3.305 C 190.000 3.661,190.180 4.064,190.400 4.200 C 190.620 4.336,190.800 5.331,190.800 6.411 C 190.800 8.321,191.724 10.625,193.035 11.986 C 193.525 12.494,193.600 12.374,193.600 11.080 C 193.600 10.260,193.759 9.277,193.953 8.895 C 194.148 8.513,194.515 7.750,194.769 7.200 C 196.474 3.517,203.526 3.517,205.231 7.200 C 205.485 7.750,205.852 8.513,206.047 8.895 C 206.241 9.277,206.400 10.260,206.400 11.080 C 206.400 12.374,206.475 12.494,206.965 11.986 C 208.276 10.625,209.200 8.321,209.200 6.411 C 209.200 5.331,209.380 4.336,209.600 4.200 C 209.820 4.064,210.000 3.661,210.000 3.305 C 210.000 2.948,210.653 2.059,211.450 1.328 L 212.901 -0.000 200.000 -0.000 L 187.099 0.000 188.550 1.328 M218.600 0.480 C 225.926 4.655,219.764 20.753,209.000 25.557 C 208.340 25.852,207.530 26.226,207.200 26.390 C 205.722 27.122,206.443 30.187,208.126 30.326 C 214.800 30.875,214.049 42.400,207.339 42.400 L 206.400 42.400 206.400 57.842 L 206.400 73.285 207.500 72.085 C 208.105 71.425,209.167 70.191,209.860 69.342 C 210.554 68.494,211.454 67.418,211.860 66.951 C 217.612 60.350,216.919 61.539,218.007 56.400 C 219.181 50.852,219.602 48.924,220.058 47.000 C 220.266 46.120,220.585 44.770,220.767 44.000 C 221.458 41.073,222.525 39.389,224.274 38.463 C 225.262 37.939,229.640 37.833,230.220 38.318 C 230.429 38.493,231.320 38.865,232.200 39.145 C 233.874 39.676,235.322 40.250,236.495 40.847 C 236.877 41.041,237.556 41.200,238.005 41.200 C 238.454 41.200,239.626 42.005,240.611 42.989 C 244.644 47.023,241.997 53.200,236.234 53.200 C 234.811 53.200,233.536 53.020,233.400 52.800 C 232.674 51.625,231.714 52.461,231.218 54.700 C 230.938 55.965,230.569 57.540,230.400 58.200 C 230.231 58.860,229.872 60.480,229.603 61.800 C 228.728 66.099,227.699 67.936,223.778 72.200 L 222.307 73.800 227.234 73.913 L 232.160 74.026 236.242 69.958 C 238.487 67.721,240.542 65.420,240.808 64.845 C 241.075 64.270,241.452 63.487,241.647 63.105 C 241.841 62.723,242.000 62.136,242.000 61.800 C 242.000 61.464,242.180 60.832,242.400 60.395 C 242.620 59.958,242.980 59.242,243.200 58.805 C 243.420 58.368,243.600 57.684,243.600 57.285 C 243.600 56.886,243.743 56.389,243.918 56.180 C 244.093 55.971,244.465 55.080,244.745 54.200 C 246.290 49.336,247.605 47.163,249.637 46.124 C 251.501 45.171,253.388 44.933,253.800 45.600 C 253.936 45.820,254.309 46.000,254.628 46.000 C 254.947 46.000,256.062 46.378,257.104 46.840 C 259.929 48.091,260.513 48.325,261.502 48.602 C 265.137 49.621,266.993 54.086,265.223 57.555 C 264.062 59.830,260.520 61.700,258.920 60.881 C 257.448 60.128,255.600 59.980,255.600 60.615 C 255.600 60.943,255.429 61.523,255.219 61.905 C 255.009 62.287,254.457 63.770,253.993 65.200 C 253.528 66.630,252.997 68.160,252.814 68.600 C 252.631 69.040,252.272 69.958,252.016 70.641 C 251.761 71.323,250.649 72.843,249.545 74.019 L 247.539 76.156 248.692 77.178 C 252.076 80.176,253.200 83.256,253.200 89.528 L 253.200 94.400 269.011 94.400 L 284.821 94.400 286.611 96.189 C 288.336 97.915,288.400 98.066,288.400 100.400 C 288.400 102.734,288.336 102.885,286.611 104.611 L 284.821 106.400 261.611 106.400 L 238.400 106.400 238.400 110.200 L 238.400 114.000 300.400 114.000 L 362.400 114.000 362.400 110.680 C 362.400 105.957,365.291 106.400,334.458 106.400 L 307.476 106.400 306.137 105.379 C 302.698 102.756,302.698 98.044,306.137 95.421 L 307.476 94.400 336.143 94.400 C 352.729 94.400,365.104 94.554,365.505 94.766 C 365.887 94.968,366.830 95.406,367.600 95.741 C 369.418 96.530,372.274 99.380,373.054 101.183 C 373.391 101.962,373.832 102.913,374.034 103.295 C 374.511 104.199,374.511 116.601,374.034 117.505 C 373.832 117.887,373.392 118.836,373.056 119.614 C 371.955 122.159,367.339 126.000,365.381 126.000 C 363.248 126.000,362.800 126.771,362.800 130.439 L 362.800 133.949 378.300 134.075 C 395.241 134.212,395.251 134.213,397.159 136.638 C 399.779 139.970,398.139 145.502,394.300 146.278 L 393.200 146.500 393.200 151.626 C 393.200 154.613,393.033 156.856,392.800 157.000 C 392.580 157.136,392.400 157.609,392.400 158.052 C 392.400 160.771,387.514 165.238,383.298 166.374 L 381.600 166.831 381.600 214.531 L 381.600 262.230 380.700 263.992 C 378.388 268.517,372.105 268.675,369.694 264.268 C 369.051 263.094,368.992 260.177,368.887 224.900 L 368.773 186.800 359.987 186.800 L 351.200 186.800 351.200 275.400 L 351.200 364.000 359.987 364.000 L 368.773 364.000 368.887 325.469 L 369.000 286.937 370.127 285.460 C 373.265 281.347,378.661 281.769,380.799 286.296 C 381.583 287.956,381.600 288.806,381.600 326.808 L 381.600 365.624 382.902 366.768 C 385.751 369.269,386.000 370.302,386.000 379.638 L 386.000 388.000 387.405 388.000 C 393.163 388.000,395.356 396.279,390.411 399.350 C 389.461 399.941,389.718 399.979,394.700 399.989 L 400.000 400.000 400.000 200.000 L 400.000 0.000 308.900 0.012 C 240.512 0.021,217.999 0.138,218.600 0.480 M159.069 87.065 C 158.590 87.543,158.771 93.411,159.280 93.920 C 160.049 94.689,240.129 94.608,240.769 93.838 C 241.061 93.485,241.191 92.107,241.118 90.138 L 241.000 87.000 200.169 86.898 C 177.711 86.842,159.216 86.917,159.069 87.065 M38.080 106.880 C 37.784 107.176,37.600 108.631,37.600 110.680 L 37.600 114.000 99.600 114.000 L 161.600 114.000 161.600 110.200 L 161.600 106.400 100.080 106.400 C 52.764 106.400,38.449 106.511,38.080 106.880 M174.400 120.200 L 174.400 134.000 200.000 134.000 L 225.600 134.000 225.600 120.200 L 225.600 106.400 200.000 106.400 L 174.400 106.400 174.400 120.200 M49.600 130.400 L 49.600 134.000 105.600 134.000 L 161.600 134.000 161.600 130.400 L 161.600 126.800 105.600 126.800 L 49.600 126.800 49.600 130.400 M238.400 130.400 L 238.400 134.000 294.400 134.000 L 350.400 134.000 350.400 130.400 L 350.400 126.800 294.400 126.800 L 238.400 126.800 238.400 130.400 M19.067 147.066 C 18.590 147.544,18.772 153.412,19.280 153.920 C 20.053 154.693,380.127 154.611,380.769 153.838 C 381.061 153.485,381.191 152.107,381.118 150.138 L 381.000 147.000 200.167 146.900 C 100.709 146.844,19.214 146.919,19.067 147.066 M31.300 166.665 C 30.952 166.805,30.800 167.954,30.800 170.433 L 30.800 174.000 200.000 174.000 L 369.200 174.000 369.200 170.443 C 369.200 167.568,369.079 166.839,368.567 166.643 C 367.810 166.352,32.020 166.374,31.300 166.665 M30.985 187.300 C 30.880 187.575,30.841 227.400,30.897 275.800 L 31.000 363.800 39.900 363.908 L 48.800 364.015 48.800 275.408 L 48.800 186.800 39.987 186.800 C 33.305 186.800,31.129 186.921,30.985 187.300 M61.200 276.062 L 61.200 365.325 62.859 366.951 C 65.771 369.806,65.981 370.674,65.991 379.900 L 66.000 388.000 72.000 388.000 L 78.000 388.000 78.000 379.638 C 78.000 370.302,78.249 369.269,81.098 366.768 L 82.400 365.624 82.400 276.212 L 82.400 186.800 71.800 186.800 L 61.200 186.800 61.200 276.062 M94.988 187.292 C 94.882 187.572,94.841 227.400,94.897 275.800 L 95.000 363.800 104.000 363.800 L 113.000 363.800 113.000 275.400 L 113.000 187.000 104.090 186.892 C 97.179 186.809,95.138 186.899,94.988 187.292 M125.200 276.040 L 125.200 365.294 126.783 366.830 C 129.823 369.780,130.000 370.494,130.000 379.784 L 130.000 388.000 136.000 388.000 L 142.000 388.000 142.000 379.796 C 142.000 370.431,142.345 369.047,145.257 366.706 L 146.802 365.465 146.701 276.232 L 146.600 187.000 135.900 186.893 L 125.200 186.787 125.200 276.040 M158.988 187.292 C 158.882 187.572,158.841 227.400,158.897 275.800 L 159.000 363.800 168.000 363.800 L 177.000 363.800 177.000 275.400 L 177.000 187.000 168.090 186.892 C 161.179 186.809,159.138 186.899,158.988 187.292 M189.200 276.048 L 189.200 365.296 190.972 366.994 C 193.816 369.718,194.000 370.501,194.000 379.849 L 194.000 388.000 200.000 388.000 L 206.000 388.000 206.000 379.849 C 206.000 370.501,206.184 369.718,209.028 366.994 L 210.800 365.296 210.800 276.048 L 210.800 186.800 200.000 186.800 L 189.200 186.800 189.200 276.048 M222.988 187.292 C 222.882 187.572,222.841 227.400,222.897 275.800 L 223.000 363.800 232.000 363.800 L 241.000 363.800 241.000 275.400 L 241.000 187.000 232.090 186.892 C 225.179 186.809,223.138 186.899,222.988 187.292 M253.467 187.067 C 253.320 187.213,253.200 227.413,253.200 276.400 L 253.200 365.466 254.743 366.706 C 257.655 369.046,258.000 370.432,258.000 379.796 L 258.000 388.000 264.000 388.000 L 270.000 388.000 270.000 379.784 C 270.000 370.477,270.234 369.539,273.247 366.776 L 274.800 365.352 274.800 276.076 L 274.800 186.800 264.267 186.800 C 258.473 186.800,253.613 186.920,253.467 187.067 M286.988 187.292 C 286.882 187.572,286.841 227.400,286.897 275.800 L 287.000 363.800 296.000 363.800 L 305.000 363.800 305.000 275.400 L 305.000 187.000 296.090 186.892 C 289.179 186.809,287.138 186.899,286.988 187.292 M317.600 276.300 L 317.600 365.800 318.900 366.841 C 321.711 369.092,322.000 370.284,322.000 379.638 L 322.000 388.000 328.000 388.000 L 334.000 388.000 334.009 379.900 C 334.019 370.674,334.229 369.806,337.141 366.951 L 338.800 365.325 338.800 276.062 L 338.800 186.800 328.200 186.800 L 317.600 186.800 317.600 276.300 M26.000 382.400 L 26.000 388.000 39.800 388.000 L 53.600 388.000 53.600 382.400 L 53.600 376.800 39.800 376.800 L 26.000 376.800 26.000 382.400 M90.000 382.400 L 90.000 388.000 103.800 388.000 L 117.600 388.000 117.600 382.400 L 117.600 376.800 103.800 376.800 L 90.000 376.800 90.000 382.400 M154.000 382.400 L 154.000 388.000 168.000 388.000 L 182.000 388.000 182.000 382.400 L 182.000 376.800 168.000 376.800 L 154.000 376.800 154.000 382.400 M218.000 382.400 L 218.000 388.000 232.000 388.000 L 246.000 388.000 246.000 382.400 L 246.000 376.800 232.000 376.800 L 218.000 376.800 218.000 382.400 M282.400 382.400 L 282.400 388.000 296.200 388.000 L 310.000 388.000 310.000 382.400 L 310.000 376.800 296.200 376.800 L 282.400 376.800 282.400 382.400 M346.400 382.400 L 346.400 388.000 360.200 388.000 L 374.000 388.000 374.000 382.400 L 374.000 376.800 360.200 376.800 L 346.400 376.800 346.400 382.400 " stroke="none" fill="#fbfbfb" fill-rule="evenodd"></path><path id="path2" d="M181.157 0.599 C 180.584 0.910,179.795 1.668,179.404 2.283 C 178.744 3.321,178.804 3.301,180.247 2.001 C 181.101 1.232,181.971 0.467,182.180 0.301 C 182.762 -0.160,182.314 -0.030,181.157 0.599 M217.800 0.252 C 218.020 0.445,218.912 1.232,219.783 2.001 C 220.653 2.770,221.103 3.041,220.783 2.602 C 219.858 1.334,219.449 0.960,218.392 0.414 C 217.846 0.133,217.580 0.060,217.800 0.252 M190.280 5.491 C 190.590 7.500,190.800 7.661,190.800 5.890 C 190.800 5.097,190.631 4.343,190.424 4.215 C 190.199 4.076,190.141 4.591,190.280 5.491 M209.467 4.267 C 209.320 4.413,209.221 5.178,209.246 5.967 L 209.292 7.400 209.604 5.800 C 209.931 4.119,209.905 3.828,209.467 4.267 M178.157 5.427 C 178.016 5.992,178.084 7.027,178.309 7.727 C 178.692 8.920,178.721 8.855,178.759 6.700 C 178.803 4.241,178.576 3.761,178.157 5.427 M196.600 5.303 C 195.384 6.192,194.436 7.204,194.413 7.638 C 194.406 7.769,195.128 7.184,196.017 6.338 C 197.519 4.910,197.802 4.800,200.000 4.800 C 202.198 4.800,202.481 4.910,203.983 6.338 C 205.549 7.827,206.086 8.045,205.087 6.785 C 203.122 4.307,198.957 3.579,196.600 5.303 M221.234 6.600 C 221.250 8.307,221.355 8.769,221.600 8.200 C 222.069 7.109,222.069 5.526,221.600 4.800 C 221.327 4.378,221.219 4.911,221.234 6.600 M190.432 7.839 C 190.390 8.421,191.548 10.721,192.035 11.022 C 192.247 11.152,192.084 10.661,191.675 9.930 C 191.265 9.198,190.825 8.330,190.697 8.000 C 190.568 7.670,190.449 7.597,190.432 7.839 M208.543 9.437 C 208.072 10.403,207.842 11.097,208.033 10.980 C 208.464 10.713,209.760 8.024,209.552 7.826 C 209.469 7.746,209.015 8.471,208.543 9.437 M193.867 9.067 C 193.720 9.213,193.600 10.045,193.600 10.916 C 193.600 12.365,193.541 12.452,192.900 11.949 C 192.262 11.449,192.250 11.463,192.763 12.117 C 193.489 13.041,193.848 12.610,194.111 10.500 C 194.332 8.737,194.312 8.621,193.867 9.067 M205.889 10.500 C 206.152 12.610,206.511 13.041,207.237 12.117 C 207.750 11.463,207.738 11.449,207.100 11.949 C 206.458 12.452,206.400 12.363,206.400 10.873 C 206.400 9.979,206.237 9.147,206.038 9.024 C 205.832 8.896,205.768 9.531,205.889 10.500 M181.000 16.400 C 181.341 17.060,181.711 17.600,181.821 17.600 C 181.931 17.600,181.741 17.060,181.400 16.400 C 181.059 15.740,180.689 15.200,180.579 15.200 C 180.469 15.200,180.659 15.740,181.000 16.400 M182.756 19.138 C 183.916 20.767,188.325 24.609,188.655 24.278 C 188.753 24.180,187.923 23.445,186.810 22.645 C 185.697 21.846,184.294 20.480,183.693 19.611 C 183.092 18.742,182.453 18.024,182.273 18.015 C 182.093 18.007,182.310 18.512,182.756 19.138 M215.600 20.319 C 214.390 21.584,212.860 23.030,212.200 23.532 L 211.000 24.444 212.400 23.559 C 214.134 22.462,216.215 20.553,217.262 19.100 C 218.430 17.479,218.054 17.755,215.600 20.319 M191.023 25.637 C 191.146 25.837,191.575 26.000,191.975 26.000 C 193.113 26.000,193.700 27.036,193.535 28.759 C 193.453 29.624,193.524 30.247,193.693 30.143 C 194.302 29.766,194.011 26.933,193.300 26.318 C 192.505 25.630,190.682 25.085,191.023 25.637 M208.200 25.488 C 206.407 25.924,205.016 29.345,206.307 30.143 C 206.476 30.247,206.547 29.624,206.465 28.759 C 206.300 27.036,206.887 26.000,208.025 26.000 C 208.425 26.000,208.864 25.820,209.000 25.600 C 209.136 25.380,209.192 25.221,209.124 25.246 C 209.056 25.272,208.640 25.381,208.200 25.488 M188.862 31.938 C 186.380 34.420,186.308 37.700,188.677 40.283 L 190.069 41.800 188.834 40.209 C 186.439 37.122,187.235 32.966,190.612 30.924 C 191.045 30.661,191.175 30.436,190.900 30.424 C 190.625 30.411,189.708 31.092,188.862 31.938 M209.388 30.924 C 212.765 32.966,213.561 37.122,211.166 40.209 L 209.931 41.800 211.323 40.283 C 213.692 37.700,213.620 34.420,211.138 31.938 C 210.292 31.092,209.375 30.411,209.100 30.424 C 208.825 30.436,208.955 30.661,209.388 30.924 M169.600 38.383 C 169.270 38.567,168.550 38.912,168.000 39.149 C 167.045 39.559,167.054 39.568,168.200 39.334 C 168.860 39.200,169.617 38.919,169.883 38.710 C 170.414 38.293,174.928 38.464,176.200 38.950 C 176.682 39.134,176.602 39.011,176.000 38.642 C 174.919 37.979,170.632 37.805,169.600 38.383 M224.000 38.642 C 223.398 39.011,223.318 39.134,223.800 38.950 C 225.072 38.464,229.586 38.293,230.117 38.710 C 230.383 38.919,231.140 39.200,231.800 39.334 C 232.946 39.568,232.955 39.559,232.000 39.148 C 231.450 38.911,230.687 38.556,230.305 38.359 C 229.186 37.780,225.106 37.964,224.000 38.642 M165.200 39.961 C 164.870 40.134,164.197 40.484,163.705 40.738 C 163.213 40.992,162.459 41.200,162.029 41.200 C 161.599 41.200,161.124 41.399,160.974 41.643 C 160.574 42.288,162.152 41.814,165.600 40.252 C 166.370 39.904,166.730 39.625,166.400 39.633 C 166.070 39.641,165.530 39.788,165.200 39.961 M177.200 39.650 C 177.200 39.998,178.437 42.400,178.617 42.400 C 178.704 42.400,178.661 42.085,178.521 41.700 C 178.233 40.906,177.200 39.303,177.200 39.650 M234.400 40.252 C 237.848 41.814,239.426 42.288,239.026 41.643 C 238.876 41.399,238.401 41.200,237.971 41.200 C 237.216 41.200,236.826 41.056,234.905 40.062 C 234.413 39.808,233.783 39.604,233.505 39.609 C 233.227 39.614,233.630 39.904,234.400 40.252 M193.689 57.800 C 193.625 67.616,193.450 73.182,193.216 72.812 C 193.011 72.488,192.739 72.327,192.612 72.455 C 192.485 72.582,192.653 72.912,192.986 73.188 C 193.980 74.014,194.016 73.405,193.900 57.399 L 193.790 42.200 193.689 57.800 M206.093 57.676 C 206.003 72.656,206.122 74.299,207.204 72.996 C 207.547 72.582,207.561 72.400,207.249 72.400 C 207.002 72.400,206.758 72.625,206.707 72.900 C 206.656 73.175,206.518 66.380,206.400 57.800 L 206.186 42.200 206.093 57.676 M178.996 44.000 C 179.145 45.305,179.302 46.086,180.426 51.100 C 180.660 52.145,180.949 53.676,181.068 54.503 C 181.187 55.329,181.453 56.109,181.658 56.236 C 182.026 56.463,181.982 56.126,181.177 52.500 C 180.203 48.113,179.924 46.901,179.585 45.600 C 179.384 44.830,179.134 43.840,179.029 43.400 C 178.924 42.960,178.909 43.230,178.996 44.000 M220.800 43.781 C 220.800 44.321,220.637 45.176,220.438 45.681 C 220.239 46.187,219.858 47.680,219.592 49.000 C 219.326 50.320,218.965 51.940,218.791 52.600 C 218.200 54.839,218.011 56.441,218.364 56.222 C 218.557 56.103,218.813 55.329,218.932 54.503 C 219.051 53.676,219.340 52.145,219.574 51.100 C 220.632 46.380,220.858 45.319,221.066 44.100 C 221.188 43.385,221.178 42.800,221.044 42.800 C 220.910 42.800,220.800 43.242,220.800 43.781 M157.867 44.667 C 157.499 45.034,157.529 49.509,157.900 49.738 C 158.065 49.840,158.200 48.681,158.200 47.162 C 158.200 45.643,158.185 44.400,158.167 44.400 C 158.148 44.400,158.013 44.520,157.867 44.667 M241.800 47.200 C 241.800 48.698,241.935 49.840,242.100 49.738 C 242.265 49.636,242.400 48.494,242.400 47.200 C 242.400 45.906,242.265 44.764,242.100 44.662 C 241.935 44.560,241.800 45.702,241.800 47.200 M146.262 45.500 C 146.160 45.665,146.852 45.800,147.800 45.800 C 148.748 45.800,149.316 45.668,149.062 45.506 C 148.456 45.121,146.499 45.116,146.262 45.500 M250.938 45.506 C 250.684 45.668,251.252 45.800,252.200 45.800 C 253.148 45.800,253.840 45.665,253.738 45.500 C 253.501 45.116,251.544 45.121,250.938 45.506 M151.578 47.337 C 152.337 48.142,153.022 48.800,153.101 48.800 C 153.461 48.800,151.977 47.062,151.137 46.500 C 150.518 46.086,150.668 46.370,151.578 47.337 M248.583 46.709 C 248.133 47.089,247.511 47.760,247.200 48.200 C 246.889 48.640,247.302 48.380,248.117 47.622 C 249.457 46.376,249.794 45.983,249.500 46.009 C 249.445 46.014,249.032 46.329,248.583 46.709 M261.000 48.800 C 261.136 49.020,261.507 49.200,261.824 49.200 C 262.141 49.200,263.134 49.934,264.030 50.830 C 264.927 51.727,265.483 52.132,265.267 51.730 C 264.775 50.817,263.275 49.442,262.126 48.850 C 261.046 48.294,260.677 48.277,261.000 48.800 M135.641 50.614 C 134.959 51.392,134.404 52.157,134.409 52.314 C 134.414 52.471,134.749 52.170,135.153 51.644 C 135.557 51.118,136.318 50.357,136.844 49.953 C 137.370 49.549,137.594 49.214,137.341 49.209 C 137.089 49.204,136.324 49.836,135.641 50.614 M154.456 52.892 C 154.679 53.612,155.034 54.778,155.245 55.486 C 155.618 56.733,156.400 57.655,156.400 56.847 C 156.400 56.627,156.256 56.358,156.079 56.249 C 155.903 56.140,155.507 55.128,155.200 54.000 C 154.893 52.872,154.509 51.867,154.346 51.767 C 154.184 51.667,154.234 52.173,154.456 52.892 M245.494 51.900 C 245.410 52.065,245.098 53.010,244.801 54.000 C 244.504 54.990,244.112 55.971,243.930 56.180 C 243.475 56.704,243.514 57.300,243.985 57.009 C 244.197 56.878,244.543 56.193,244.755 55.486 C 244.966 54.778,245.320 53.615,245.542 52.900 C 245.906 51.723,245.879 51.146,245.494 51.900 M134.114 54.600 C 134.117 55.700,134.195 56.103,134.287 55.495 C 134.379 54.886,134.377 53.986,134.282 53.495 C 134.187 53.003,134.111 53.500,134.114 54.600 M265.714 54.600 C 265.717 55.700,265.795 56.103,265.887 55.495 C 265.979 54.886,265.977 53.986,265.882 53.495 C 265.787 53.003,265.711 53.500,265.714 54.600 M169.068 55.800 C 169.371 57.777,169.602 58.114,169.594 56.567 C 169.591 55.925,169.416 55.130,169.205 54.800 C 168.945 54.391,168.901 54.710,169.068 55.800 M230.649 55.015 C 230.512 55.373,230.421 56.146,230.446 56.733 C 230.480 57.532,230.570 57.398,230.804 56.200 C 231.135 54.500,231.062 53.940,230.649 55.015 M182.000 58.310 C 182.000 58.993,182.177 59.662,182.394 59.796 C 182.640 59.948,182.694 59.545,182.537 58.720 C 182.200 56.951,182.000 56.799,182.000 58.310 M217.654 57.867 C 217.625 58.344,217.496 59.064,217.370 59.467 C 217.152 60.161,217.164 60.162,217.596 59.488 C 217.847 59.097,217.975 58.377,217.881 57.888 C 217.709 57.001,217.709 57.001,217.654 57.867 M169.880 59.491 C 170.190 61.500,170.400 61.661,170.400 59.890 C 170.400 59.097,170.231 58.343,170.024 58.215 C 169.799 58.076,169.741 58.591,169.880 59.491 M229.867 58.267 C 229.720 58.413,229.621 59.178,229.646 59.967 L 229.692 61.400 230.004 59.800 C 230.331 58.119,230.305 57.828,229.867 58.267 M136.200 59.412 C 136.860 59.953,137.580 60.392,137.800 60.387 C 138.020 60.383,137.705 60.072,137.100 59.697 C 136.495 59.322,136.000 58.876,136.000 58.707 C 136.000 58.538,135.775 58.406,135.500 58.414 C 135.225 58.422,135.540 58.871,136.200 59.412 M264.000 58.707 C 264.000 58.876,263.505 59.322,262.900 59.697 C 262.295 60.072,261.980 60.383,262.200 60.387 C 262.420 60.392,263.140 59.953,263.800 59.412 C 264.460 58.871,264.775 58.422,264.500 58.414 C 264.225 58.406,264.000 58.538,264.000 58.707 M143.600 59.598 C 142.213 60.301,140.132 60.765,139.200 60.578 L 138.200 60.377 139.193 60.810 C 139.894 61.116,140.460 61.119,141.112 60.822 C 141.621 60.590,142.344 60.397,142.719 60.394 C 143.493 60.387,144.673 59.733,144.388 59.469 C 144.285 59.373,143.930 59.431,143.600 59.598 M255.600 59.589 C 255.600 59.807,256.095 60.093,256.700 60.225 C 257.305 60.357,258.260 60.638,258.822 60.849 C 259.498 61.103,260.174 61.088,260.822 60.805 L 261.800 60.377 260.800 60.578 C 259.842 60.770,257.784 60.299,256.300 59.548 C 255.866 59.328,255.600 59.344,255.600 59.589 M170.689 63.091 C 170.946 64.690,171.875 67.200,172.211 67.200 C 172.321 67.200,172.138 66.548,171.805 65.751 C 171.472 64.954,171.200 63.795,171.200 63.175 C 171.200 62.555,171.031 61.943,170.824 61.815 C 170.599 61.676,170.545 62.189,170.689 63.091 M229.067 61.867 C 228.920 62.013,228.800 62.621,228.800 63.218 C 228.800 63.814,228.528 64.954,228.195 65.751 C 227.862 66.548,227.679 67.200,227.789 67.200 C 228.124 67.200,229.054 64.692,229.309 63.100 C 229.556 61.559,229.526 61.407,229.067 61.867 M254.081 63.887 C 253.471 65.475,253.063 67.035,253.318 66.799 C 253.623 66.517,254.793 63.059,254.636 62.903 C 254.565 62.832,254.316 63.275,254.081 63.887 M185.881 64.983 C 186.277 65.524,186.838 66.063,187.129 66.182 C 187.421 66.300,187.241 65.868,186.729 65.221 C 185.607 63.800,184.864 63.592,185.881 64.983 M213.270 65.222 C 212.758 65.870,212.499 66.400,212.694 66.400 C 212.890 66.400,213.449 65.860,213.937 65.200 C 215.081 63.652,214.494 63.671,213.270 65.222 M158.800 65.138 C 158.800 65.289,160.828 67.435,163.306 69.907 L 167.813 74.400 172.906 74.400 C 177.615 74.400,178.791 74.136,177.538 73.362 C 177.252 73.185,177.185 73.252,177.362 73.538 C 177.572 73.878,176.335 74.000,172.688 74.000 L 167.729 74.000 163.265 69.431 C 160.809 66.918,158.800 64.986,158.800 65.138 M236.634 69.484 L 232.268 74.000 227.310 74.000 C 223.665 74.000,222.428 73.878,222.638 73.538 C 222.815 73.252,222.748 73.185,222.462 73.362 C 221.208 74.137,222.386 74.400,227.107 74.400 L 232.213 74.400 236.787 69.813 C 239.302 67.291,241.279 65.169,241.180 65.098 C 241.081 65.026,239.035 67.000,236.634 69.484 M174.064 69.600 C 175.013 70.810,175.837 71.875,175.895 71.967 C 175.953 72.058,176.088 72.045,176.196 71.938 C 176.303 71.830,175.479 70.765,174.365 69.571 L 172.339 67.400 174.064 69.600 M189.024 68.380 C 190.018 69.831,191.600 71.635,191.600 71.316 C 191.600 71.126,190.925 70.249,190.100 69.366 C 189.275 68.483,188.791 68.039,189.024 68.380 M209.851 69.300 C 209.055 70.235,208.402 71.149,208.401 71.331 C 208.401 71.513,208.884 71.063,209.476 70.331 C 210.067 69.599,210.815 68.685,211.138 68.300 C 211.460 67.915,211.629 67.600,211.512 67.600 C 211.395 67.600,210.648 68.365,209.851 69.300 M225.443 69.679 C 224.443 70.822,223.709 71.842,223.812 71.946 C 223.916 72.049,224.054 72.058,224.119 71.967 C 224.185 71.875,225.012 70.855,225.957 69.700 C 228.173 66.990,227.809 66.975,225.443 69.679 M152.104 75.694 C 152.273 76.136,151.994 76.677,151.280 77.291 C 150.686 77.802,149.939 78.575,149.620 79.010 C 149.301 79.444,149.928 78.990,151.013 78.000 C 152.098 77.010,153.015 76.200,153.052 76.200 C 153.089 76.200,152.833 75.936,152.484 75.613 C 151.920 75.093,151.877 75.103,152.104 75.694 M247.400 75.715 C 247.112 76.064,247.668 76.873,249.381 78.600 C 251.067 80.298,251.482 80.591,250.804 79.600 C 250.276 78.830,249.352 77.779,248.749 77.264 C 248.135 76.740,247.748 76.080,247.869 75.764 C 248.132 75.080,247.940 75.061,247.400 75.715 M158.880 86.880 C 158.058 87.702,158.253 93.343,159.131 94.138 C 160.323 95.216,239.961 95.149,240.938 94.069 C 241.747 93.174,241.887 87.647,241.120 86.880 C 240.424 86.184,159.576 86.184,158.880 86.880 M241.118 90.138 C 241.191 92.107,241.061 93.485,240.769 93.838 C 240.129 94.608,160.049 94.689,159.280 93.920 C 158.771 93.411,158.590 87.543,159.069 87.065 C 159.216 86.917,177.711 86.842,200.169 86.898 L 241.000 87.000 241.118 90.138 M64.700 94.700 C 79.715 94.758,104.285 94.758,119.300 94.700 C 134.315 94.642,122.030 94.594,92.000 94.594 C 61.970 94.594,49.685 94.642,64.700 94.700 M260.926 94.700 C 265.066 94.765,271.726 94.765,275.726 94.699 C 279.727 94.634,276.340 94.581,268.200 94.581 C 260.060 94.581,256.787 94.634,260.926 94.700 M322.700 94.700 C 330.015 94.761,341.985 94.761,349.300 94.700 C 356.615 94.639,350.630 94.589,336.000 94.589 C 321.370 94.589,315.385 94.639,322.700 94.700 M31.951 95.840 C 31.374 96.145,30.654 96.695,30.351 97.063 C 30.010 97.477,30.409 97.350,31.400 96.729 C 32.280 96.177,33.270 95.622,33.600 95.494 C 34.133 95.289,34.133 95.264,33.600 95.274 C 33.270 95.280,32.528 95.535,31.951 95.840 M305.035 96.431 C 303.794 97.906,303.491 98.957,303.705 101.038 C 303.858 102.525,303.869 102.508,303.933 100.674 C 304.005 98.601,304.428 97.518,305.720 96.100 C 306.171 95.605,306.434 95.200,306.305 95.200 C 306.176 95.200,305.605 95.754,305.035 96.431 M366.400 95.494 C 366.730 95.622,367.720 96.177,368.600 96.729 C 369.555 97.327,369.982 97.467,369.658 97.074 C 369.050 96.336,366.910 95.183,366.239 95.232 C 365.997 95.249,366.070 95.367,366.400 95.494 M27.962 99.500 C 27.103 100.570,26.398 101.933,26.414 102.495 C 26.421 102.773,26.736 102.351,27.114 101.558 C 27.491 100.766,28.047 99.821,28.349 99.458 C 28.651 99.096,28.814 98.800,28.711 98.800 C 28.608 98.800,28.271 99.115,27.962 99.500 M371.600 99.358 C 371.930 99.776,372.509 100.766,372.886 101.558 C 373.264 102.351,373.579 102.803,373.586 102.561 C 373.609 101.843,372.435 99.725,371.692 99.142 C 371.054 98.643,371.047 98.660,371.600 99.358 M304.314 103.404 C 304.541 103.847,305.148 104.566,305.663 105.002 C 306.567 105.766,306.565 105.752,305.606 104.597 C 304.013 102.679,303.879 102.555,304.314 103.404 M25.674 111.076 C 25.633 114.418,25.735 117.237,25.900 117.339 C 26.065 117.442,26.153 115.608,26.095 113.263 C 25.908 105.681,25.750 104.859,25.674 111.076 M373.999 111.281 C 373.889 114.736,373.940 117.422,374.111 117.250 C 374.282 117.078,374.372 114.252,374.310 110.969 L 374.197 105.000 373.999 111.281 M37.830 106.627 C 37.344 107.113,37.218 108.006,37.280 110.529 L 37.361 113.800 37.499 110.619 C 37.575 108.869,37.830 107.204,38.067 106.919 C 38.417 106.498,50.097 106.400,100.049 106.400 L 161.600 106.400 161.600 110.200 L 161.600 114.000 99.700 114.006 C 59.589 114.010,38.011 114.149,38.400 114.400 C 39.458 115.084,160.997 114.926,161.567 114.240 C 161.866 113.879,161.990 112.354,161.916 109.940 L 161.800 106.200 100.130 106.099 C 44.460 106.007,38.398 106.059,37.830 106.627 M174.183 106.500 C 174.076 106.778,174.037 113.124,174.095 120.603 L 174.200 134.200 200.000 134.200 L 225.800 134.200 225.800 120.200 L 225.800 106.200 200.089 106.097 C 179.661 106.015,174.337 106.098,174.183 106.500 M238.267 106.267 C 237.782 106.751,237.969 113.809,238.480 114.320 C 239.094 114.934,360.651 115.013,361.600 114.400 C 361.989 114.149,340.411 114.010,300.300 114.006 L 238.400 114.000 238.400 110.203 L 238.400 106.407 260.700 106.300 L 283.000 106.193 260.767 106.097 C 248.538 106.043,238.413 106.120,238.267 106.267 M335.163 106.300 C 353.203 106.373,361.487 106.540,361.847 106.839 C 362.175 107.111,362.419 108.487,362.503 110.536 L 362.637 113.800 362.719 110.529 C 362.843 105.513,365.761 105.984,335.271 106.097 L 309.000 106.194 335.163 106.300 M225.600 120.200 L 225.600 134.000 200.000 134.000 L 174.400 134.000 174.400 120.200 L 174.400 106.400 200.000 106.400 L 225.600 106.400 225.600 120.200 M27.222 120.200 C 27.227 120.729,28.342 122.191,28.569 121.965 C 28.666 121.868,28.402 121.341,27.982 120.794 C 27.561 120.247,27.220 119.980,27.222 120.200 M371.806 121.088 L 371.104 122.200 372.030 121.311 C 372.539 120.822,372.855 120.322,372.732 120.199 C 372.609 120.076,372.192 120.476,371.806 121.088 M29.600 123.083 C 29.600 123.679,33.737 126.013,34.712 125.968 C 35.254 125.944,35.273 125.895,34.800 125.739 C 33.509 125.314,32.144 124.600,30.900 123.700 C 30.185 123.183,29.600 122.905,29.600 123.083 M369.446 123.526 C 369.246 123.849,366.351 125.357,365.200 125.738 C 364.727 125.895,364.746 125.944,365.288 125.968 C 365.666 125.986,366.656 125.618,367.488 125.152 C 369.667 123.929,370.647 123.200,370.113 123.200 C 369.857 123.200,369.557 123.347,369.446 123.526 M36.300 126.488 C 37.133 126.890,37.200 127.187,37.200 130.456 L 37.200 133.990 22.700 134.102 L 8.200 134.215 22.800 134.207 L 37.400 134.200 37.517 130.607 C 37.635 126.978,37.250 125.936,35.824 126.027 C 35.591 126.042,35.805 126.249,36.300 126.488 M363.060 126.507 C 362.474 126.935,362.384 127.573,362.483 130.607 L 362.600 134.200 377.200 134.207 L 391.800 134.215 377.300 134.102 L 362.800 133.990 362.800 130.456 C 362.800 127.187,362.867 126.890,363.700 126.488 C 364.195 126.249,364.409 126.042,364.176 126.027 C 363.944 126.012,363.441 126.228,363.060 126.507 M49.468 126.665 C 49.321 126.813,49.200 128.614,49.200 130.668 L 49.200 134.403 105.500 134.301 L 161.800 134.200 161.800 130.400 L 161.800 126.600 105.768 126.499 C 74.950 126.443,49.615 126.518,49.468 126.665 M238.171 126.932 C 238.058 127.226,238.018 128.982,238.083 130.833 L 238.200 134.200 294.515 134.301 L 350.829 134.403 350.715 130.501 L 350.600 126.600 294.488 126.499 C 247.949 126.415,238.341 126.488,238.171 126.932 M161.600 130.400 L 161.600 134.000 105.600 134.000 L 49.600 134.000 49.600 130.400 L 49.600 126.800 105.600 126.800 L 161.600 126.800 161.600 130.400 M350.400 130.400 L 350.400 134.000 294.400 134.000 L 238.400 134.000 238.400 130.400 L 238.400 126.800 294.400 126.800 L 350.400 126.800 350.400 130.400 M3.199 136.202 C 2.683 136.751,2.382 137.200,2.530 137.200 C 2.918 137.200,4.499 135.565,4.302 135.368 C 4.211 135.277,3.714 135.652,3.199 136.202 M395.600 135.330 C 395.600 135.718,397.235 137.299,397.432 137.102 C 397.523 137.011,397.148 136.514,396.598 135.999 C 396.049 135.483,395.600 135.182,395.600 135.330 M1.840 142.400 C 2.087 143.324,3.200 145.254,3.200 144.760 C 3.200 144.641,2.834 143.836,2.386 142.971 C 1.918 142.068,1.685 141.825,1.840 142.400 M397.792 142.470 C 397.638 142.981,396.947 144.013,396.256 144.763 C 395.074 146.046,395.064 146.081,396.087 145.363 C 397.157 144.611,398.656 142.123,398.271 141.737 C 398.162 141.629,397.947 141.958,397.792 142.470 M5.900 146.262 C 6.774 146.450,6.800 146.597,6.800 151.395 C 6.800 156.425,6.969 157.600,7.692 157.600 C 7.951 157.600,7.940 157.410,7.661 157.074 C 7.410 156.771,7.177 154.352,7.113 151.374 L 7.000 146.200 6.000 146.134 C 5.119 146.077,5.107 146.092,5.900 146.262 M393.067 146.267 C 392.920 146.413,392.800 148.807,392.800 151.587 C 392.800 155.064,392.644 156.815,392.300 157.201 C 391.875 157.678,391.904 157.682,392.500 157.232 C 393.103 156.776,393.200 155.990,393.200 151.579 C 393.200 146.584,393.223 146.451,394.100 146.282 C 394.935 146.122,394.940 146.105,394.167 146.054 C 393.708 146.025,393.213 146.120,393.067 146.267 M18.800 146.700 C 18.800 146.865,100.340 147.000,200.000 147.000 C 299.660 147.000,381.200 146.865,381.200 146.700 C 381.200 146.535,299.660 146.400,200.000 146.400 C 100.340 146.400,18.800 146.535,18.800 146.700 M18.800 153.877 C 18.800 154.118,19.085 154.424,19.433 154.557 C 21.262 155.259,380.298 154.805,380.832 154.100 C 381.282 153.504,381.278 153.475,380.801 153.900 C 379.996 154.618,19.998 154.638,19.280 153.920 C 18.959 153.599,18.800 153.585,18.800 153.877 M11.469 163.632 C 11.966 164.233,14.400 165.764,14.400 165.476 C 14.400 165.383,13.635 164.802,12.700 164.185 C 11.765 163.568,11.211 163.320,11.469 163.632 M387.281 164.172 C 385.427 165.483,385.194 165.806,386.629 165.077 C 387.305 164.734,388.092 164.171,388.378 163.826 C 389.071 162.991,388.854 163.060,387.281 164.172 M15.400 166.000 C 16.501 166.473,16.892 166.473,16.600 166.000 C 16.464 165.780,15.958 165.613,15.476 165.628 C 14.631 165.655,14.629 165.669,15.400 166.000 M383.400 166.000 C 383.108 166.473,383.499 166.473,384.600 166.000 C 385.371 165.669,385.369 165.655,384.524 165.628 C 384.042 165.613,383.536 165.780,383.400 166.000 M17.900 166.665 C 18.298 166.826,18.400 187.123,18.400 266.276 L 18.400 365.685 17.415 366.460 C 16.873 366.886,16.024 367.812,15.528 368.517 C 14.969 369.313,15.418 368.993,16.713 367.673 L 18.800 365.547 18.800 265.973 C 18.800 171.396,18.765 166.402,18.100 166.432 C 17.682 166.450,17.601 166.544,17.900 166.665 M30.667 166.667 C 29.958 167.375,30.391 173.967,31.174 174.386 C 32.414 175.050,368.032 174.957,368.940 174.293 C 369.814 173.654,369.769 166.739,368.890 166.562 C 368.610 166.506,368.565 166.552,368.790 166.663 C 369.024 166.779,369.200 168.396,369.200 170.433 L 369.200 174.000 200.000 174.000 L 30.800 174.000 30.800 170.433 C 30.800 167.954,30.952 166.805,31.300 166.665 C 31.579 166.552,31.609 166.449,31.367 166.432 C 31.128 166.414,30.813 166.520,30.667 166.667 M381.298 214.500 L 381.397 262.600 381.500 214.823 C 381.581 177.211,381.709 166.978,382.102 166.729 C 382.456 166.504,382.398 166.410,381.900 166.406 C 381.237 166.400,381.205 168.918,381.298 214.500 M35.700 186.698 C 38.065 186.769,41.935 186.769,44.300 186.698 C 46.665 186.628,44.730 186.570,40.000 186.570 C 35.270 186.570,33.335 186.628,35.700 186.698 M61.073 186.660 C 60.352 187.381,60.776 365.484,61.500 366.032 C 62.096 366.482,62.125 366.478,61.700 366.001 C 61.303 365.556,61.200 347.010,61.200 276.120 L 61.200 186.800 71.800 186.800 L 82.400 186.800 82.400 276.242 L 82.400 365.685 81.415 366.460 C 80.873 366.886,80.024 367.812,79.528 368.517 C 78.969 369.313,79.419 368.992,80.714 367.672 L 82.802 365.545 82.701 276.072 L 82.600 186.600 71.973 186.494 C 66.128 186.435,61.223 186.510,61.073 186.660 M99.700 186.698 C 102.065 186.769,105.935 186.769,108.300 186.698 C 110.665 186.628,108.730 186.570,104.000 186.570 C 99.270 186.570,97.335 186.628,99.700 186.698 M128.800 186.681 C 138.294 186.965,146.709 186.974,146.539 186.700 C 146.437 186.535,141.548 186.438,135.676 186.484 C 129.804 186.530,126.710 186.619,128.800 186.681 M163.700 186.698 C 166.065 186.769,169.935 186.769,172.300 186.698 C 174.665 186.628,172.730 186.570,168.000 186.570 C 163.270 186.570,161.335 186.628,163.700 186.698 M194.700 186.699 C 197.615 186.767,202.385 186.767,205.300 186.699 C 208.215 186.631,205.830 186.575,200.000 186.575 C 194.170 186.575,191.785 186.631,194.700 186.699 M227.700 186.698 C 230.065 186.769,233.935 186.769,236.300 186.698 C 238.665 186.628,236.730 186.570,232.000 186.570 C 227.270 186.570,225.335 186.628,227.700 186.698 M253.461 186.700 C 253.359 186.865,256.453 186.954,260.338 186.897 C 273.673 186.703,274.985 186.567,264.324 186.484 C 258.452 186.438,253.563 186.535,253.461 186.700 M291.700 186.698 C 294.065 186.769,297.935 186.769,300.300 186.698 C 302.665 186.628,300.730 186.570,296.000 186.570 C 291.270 186.570,289.335 186.628,291.700 186.698 M317.473 186.660 C 317.098 187.035,317.125 365.907,317.500 366.138 C 317.665 366.240,317.754 325.931,317.698 276.562 L 317.597 186.800 328.198 186.800 L 338.800 186.800 338.800 276.120 C 338.800 347.010,338.697 365.556,338.300 366.001 C 337.875 366.478,337.905 366.482,338.501 366.031 C 339.166 365.528,339.197 360.883,339.101 276.050 L 339.000 186.600 328.373 186.494 C 322.528 186.435,317.623 186.510,317.473 186.660 M355.700 186.698 C 358.065 186.769,361.935 186.769,364.300 186.698 C 366.665 186.628,364.730 186.570,360.000 186.570 C 355.270 186.570,353.335 186.628,355.700 186.698 M30.400 275.400 C 30.400 324.130,30.535 364.000,30.700 364.000 C 30.865 364.000,31.000 324.130,31.000 275.400 C 31.000 226.670,30.865 186.800,30.700 186.800 C 30.535 186.800,30.400 226.670,30.400 275.400 M48.899 275.292 L 48.800 363.984 40.100 364.100 L 31.400 364.216 40.113 364.308 C 46.783 364.378,48.870 364.283,49.015 363.900 C 49.120 363.625,49.159 323.620,49.102 275.000 L 48.998 186.600 48.899 275.292 M94.667 187.067 C 94.296 187.437,94.329 363.509,94.700 363.738 C 94.865 363.840,95.000 324.071,95.000 275.362 C 95.000 226.653,94.985 186.800,94.967 186.800 C 94.948 186.800,94.813 186.920,94.667 187.067 M158.667 187.067 C 158.296 187.437,158.329 363.509,158.700 363.738 C 158.865 363.840,159.000 324.071,159.000 275.362 C 159.000 226.653,158.985 186.800,158.967 186.800 C 158.948 186.800,158.813 186.920,158.667 187.067 M241.000 275.400 C 241.000 324.088,241.135 363.840,241.300 363.738 C 241.465 363.636,241.600 323.884,241.600 275.400 C 241.600 226.916,241.465 187.164,241.300 187.062 C 241.135 186.960,241.000 226.712,241.000 275.400 M305.000 275.400 C 305.000 324.088,305.135 363.840,305.300 363.738 C 305.465 363.636,305.600 323.884,305.600 275.400 C 305.600 226.916,305.465 187.164,305.300 187.062 C 305.135 186.960,305.000 226.712,305.000 275.400 M350.999 275.400 L 351.000 364.200 359.700 364.212 L 368.400 364.224 359.801 364.104 L 351.202 363.984 351.100 275.292 L 350.997 186.600 350.999 275.400 M368.830 223.500 C 368.846 243.685,369.003 261.010,369.180 262.000 C 369.356 262.990,369.522 246.475,369.550 225.300 C 369.583 199.867,369.464 186.800,369.200 186.800 C 368.936 186.800,368.810 199.280,368.830 223.500 M369.945 264.697 C 370.398 265.544,372.723 267.415,372.985 267.144 C 373.061 267.065,372.307 266.291,371.308 265.425 C 370.114 264.390,369.647 264.140,369.945 264.697 M379.780 265.232 C 379.633 265.470,378.947 266.010,378.256 266.431 C 377.565 266.852,377.222 267.198,377.494 267.199 C 378.006 267.200,380.813 264.832,380.324 264.812 C 380.172 264.805,379.927 264.995,379.780 265.232 M371.476 284.100 C 370.754 284.815,370.631 284.995,371.203 284.500 C 371.776 284.005,372.448 283.600,372.698 283.600 C 372.948 283.600,373.264 283.420,373.400 283.200 C 373.956 282.300,372.700 282.888,371.476 284.100 M376.800 282.971 C 376.800 283.065,377.385 283.423,378.100 283.766 L 379.400 284.392 378.456 283.596 C 377.582 282.860,376.800 282.564,376.800 282.971 M379.600 284.450 C 379.600 284.798,380.837 287.200,381.017 287.200 C 381.104 287.200,381.061 286.885,380.921 286.500 C 380.633 285.706,379.600 284.103,379.600 284.450 M369.324 286.500 C 368.826 287.269,368.686 364.000,369.183 364.000 C 369.458 364.000,369.626 351.262,369.696 325.000 C 369.753 303.550,369.766 286.000,369.724 286.000 C 369.682 286.000,369.502 286.225,369.324 286.500 M381.298 326.516 L 381.200 365.632 382.743 367.116 C 383.591 367.932,384.376 368.870,384.488 369.200 C 384.599 369.530,384.818 369.682,384.974 369.537 C 385.131 369.393,384.436 368.417,383.431 367.368 L 381.604 365.461 381.500 326.430 L 381.396 287.400 381.298 326.516 M99.700 364.298 C 102.065 364.369,105.935 364.369,108.300 364.298 C 110.665 364.228,108.730 364.170,104.000 364.170 C 99.270 364.170,97.335 364.228,99.700 364.298 M163.700 364.298 C 166.065 364.369,169.935 364.369,172.300 364.298 C 174.665 364.228,172.730 364.170,168.000 364.170 C 163.270 364.170,161.335 364.228,163.700 364.298 M227.700 364.298 C 230.065 364.369,233.935 364.369,236.300 364.298 C 238.665 364.228,236.730 364.170,232.000 364.170 C 227.270 364.170,225.335 364.228,227.700 364.298 M291.700 364.298 C 294.065 364.369,297.935 364.369,300.300 364.298 C 302.665 364.228,300.730 364.170,296.000 364.170 C 291.270 364.170,289.335 364.228,291.700 364.298 M144.029 367.891 C 143.353 368.711,142.800 369.561,142.800 369.780 C 142.800 369.999,143.098 369.733,143.462 369.189 C 143.827 368.645,144.488 367.795,144.932 367.300 C 145.376 366.805,145.631 366.400,145.499 366.400 C 145.367 366.400,144.705 367.071,144.029 367.891 M255.238 367.377 C 255.588 367.830,256.173 368.645,256.538 369.189 C 256.902 369.733,257.200 369.988,257.200 369.756 C 257.200 369.523,256.615 368.708,255.900 367.943 C 255.185 367.179,254.887 366.924,255.238 367.377 M319.262 367.446 C 319.778 368.132,320.414 369.032,320.676 369.446 C 320.939 369.861,321.164 370.005,321.176 369.767 C 321.189 369.528,320.553 368.628,319.762 367.767 C 318.819 366.739,318.647 366.629,319.262 367.446 M63.200 367.384 C 63.200 367.545,63.531 368.154,63.935 368.738 C 64.339 369.322,64.793 370.141,64.944 370.557 C 65.095 370.974,65.319 371.214,65.442 371.092 C 65.564 370.969,65.443 370.448,65.173 369.934 C 64.543 368.738,63.200 367.002,63.200 367.384 M192.000 368.600 C 192.000 368.930,192.159 369.200,192.353 369.200 C 193.115 369.200,193.365 371.327,193.578 379.600 L 193.800 388.200 200.000 388.200 L 206.200 388.200 206.401 379.600 C 206.591 371.501,206.811 369.756,207.720 369.146 C 207.927 369.007,208.020 368.660,207.926 368.377 C 207.831 368.093,207.359 368.700,206.877 369.726 C 206.064 371.456,206.000 372.186,206.000 379.796 L 206.000 388.000 200.000 388.000 L 194.000 388.000 194.000 379.796 C 194.000 372.283,193.929 371.440,193.156 369.796 C 192.263 367.895,192.000 367.624,192.000 368.600 M270.875 369.819 C 270.062 371.494,270.000 372.202,270.000 379.811 L 270.000 388.000 264.008 388.000 L 258.017 388.000 257.895 380.100 L 257.773 372.200 257.787 380.200 L 257.800 388.200 264.000 388.200 L 270.200 388.200 270.300 380.000 C 270.391 372.501,270.473 371.654,271.264 370.098 C 271.739 369.161,272.043 368.310,271.940 368.206 C 271.836 368.102,271.357 368.828,270.875 369.819 M128.000 368.588 C 128.000 368.691,128.356 369.410,128.792 370.186 C 129.499 371.444,129.595 372.486,129.692 379.898 L 129.800 388.200 136.000 388.200 L 142.200 388.200 142.213 380.200 L 142.227 372.200 142.105 380.100 L 141.983 388.000 135.992 388.000 L 130.000 388.000 130.000 379.784 C 130.000 372.330,129.925 371.421,129.192 369.984 C 128.477 368.583,128.000 368.024,128.000 368.588 M335.000 369.600 C 334.638 370.301,334.426 370.959,334.529 371.062 C 334.632 371.165,335.006 370.669,335.360 369.960 C 335.714 369.251,335.926 368.593,335.831 368.498 C 335.736 368.403,335.362 368.899,335.000 369.600 M65.787 379.800 L 65.800 388.200 72.000 388.200 L 78.200 388.200 78.213 380.500 L 78.227 372.799 78.105 380.400 L 77.983 388.000 71.999 388.000 L 66.016 388.000 65.895 379.700 L 65.774 371.400 65.787 379.800 M334.091 379.700 L 334.000 388.000 328.009 388.000 L 322.017 388.000 321.895 380.400 L 321.773 372.799 321.787 380.500 L 321.800 388.200 327.909 388.310 C 335.206 388.442,334.449 389.499,334.300 379.389 L 334.182 371.400 334.091 379.700 M25.777 376.915 C 25.666 377.204,25.626 379.861,25.688 382.820 L 25.800 388.200 39.800 388.200 L 53.800 388.200 53.800 382.400 L 53.800 376.600 39.889 376.495 C 28.697 376.410,25.939 376.492,25.777 376.915 M103.700 376.700 L 117.600 376.810 117.600 382.400 L 117.600 387.990 103.700 388.100 L 89.800 388.211 103.900 388.305 L 118.000 388.400 118.000 382.400 L 118.000 376.400 103.900 376.495 L 89.800 376.589 103.700 376.700 M160.900 376.699 C 164.805 376.765,171.195 376.765,175.100 376.699 C 179.005 376.634,175.810 376.580,168.000 376.580 C 160.190 376.580,156.995 376.634,160.900 376.699 M224.900 376.699 C 228.805 376.765,235.195 376.765,239.100 376.699 C 243.005 376.634,239.810 376.580,232.000 376.580 C 224.190 376.580,220.995 376.634,224.900 376.699 M282.000 382.400 L 282.000 388.400 296.100 388.305 L 310.200 388.211 296.300 388.100 L 282.400 387.990 282.400 382.400 L 282.400 376.810 296.300 376.700 L 310.200 376.589 296.100 376.495 L 282.000 376.400 282.000 382.400 M346.177 376.915 C 346.066 377.204,346.026 379.861,346.088 382.820 L 346.200 388.200 360.200 388.200 L 374.200 388.200 374.200 382.400 L 374.200 376.600 360.289 376.495 C 349.097 376.410,346.339 376.492,346.177 376.915 M53.600 382.400 L 53.600 388.000 39.800 388.000 L 26.000 388.000 26.000 382.400 L 26.000 376.800 39.800 376.800 L 53.600 376.800 53.600 382.400 M374.000 382.400 L 374.000 388.000 360.200 388.000 L 346.400 388.000 346.400 382.400 L 346.400 376.800 360.200 376.800 L 374.000 376.800 374.000 382.400 M10.000 388.633 C 9.384 388.975,9.238 389.190,9.620 389.194 C 9.961 389.197,10.411 389.032,10.620 388.827 C 10.829 388.621,11.720 388.382,12.600 388.294 L 14.200 388.134 12.600 388.106 C 11.720 388.091,10.550 388.328,10.000 388.633 M160.900 388.299 C 164.805 388.365,171.195 388.365,175.100 388.299 C 179.005 388.234,175.810 388.180,168.000 388.180 C 160.190 388.180,156.995 388.234,160.900 388.299 M224.900 388.299 C 228.805 388.365,235.195 388.365,239.100 388.299 C 243.005 388.234,239.810 388.180,232.000 388.180 C 224.190 388.180,220.995 388.234,224.900 388.299 M387.400 388.294 C 388.280 388.382,389.171 388.621,389.380 388.827 C 389.589 389.032,390.039 389.199,390.380 389.198 C 390.721 389.196,390.484 388.926,389.854 388.598 C 389.224 388.269,388.054 388.030,387.254 388.067 L 385.800 388.134 387.400 388.294 M7.067 391.867 C 6.420 392.514,6.829 396.213,7.656 397.200 L 8.495 398.200 7.813 397.061 C 7.333 396.260,7.170 395.280,7.265 393.760 C 7.339 392.572,7.385 391.599,7.367 391.599 C 7.348 391.600,7.213 391.720,7.067 391.867 M392.735 393.798 C 392.829 395.283,392.664 396.265,392.187 397.061 L 391.505 398.200 392.344 397.200 C 393.186 396.196,393.593 392.291,392.900 391.861 C 392.735 391.758,392.661 392.630,392.735 393.798 M8.800 398.820 C 10.187 399.761,10.978 400.035,10.000 399.236 C 9.450 398.786,8.820 398.417,8.600 398.415 C 8.380 398.413,8.470 398.596,8.800 398.820 M390.000 399.236 C 389.336 399.779,389.269 399.915,389.800 399.640 C 391.105 398.966,391.828 398.412,391.400 398.415 C 391.180 398.417,390.550 398.786,390.000 399.236 " stroke="none" fill="#a6a6a6" fill-rule="evenodd"></path><path id="path3" d="M179.280 2.880 C 179.016 3.144,178.821 3.729,178.846 4.180 C 178.892 4.983,178.897 4.984,179.089 4.200 C 179.198 3.760,179.469 3.175,179.692 2.900 C 180.210 2.262,179.912 2.248,179.280 2.880 M220.257 2.800 C 220.508 3.130,220.802 3.760,220.911 4.200 C 221.097 4.960,221.110 4.957,221.154 4.149 C 221.179 3.681,220.885 3.051,220.500 2.749 C 219.891 2.272,219.860 2.278,220.257 2.800 M178.901 9.400 C 178.905 10.280,178.987 10.593,179.083 10.095 C 179.179 9.598,179.175 8.878,179.075 8.495 C 178.975 8.113,178.896 8.520,178.901 9.400 M179.700 86.300 C 190.865 86.359,209.135 86.359,220.300 86.300 C 231.465 86.241,222.330 86.193,200.000 86.193 C 177.670 86.193,168.535 86.241,179.700 86.300 M109.500 146.300 C 159.275 146.356,240.725 146.356,290.500 146.300 C 340.275 146.244,299.550 146.198,200.000 146.198 C 100.450 146.198,59.725 146.244,109.500 146.300 M18.540 150.400 C 18.540 152.270,18.609 153.035,18.693 152.100 C 18.777 151.165,18.777 149.635,18.693 148.700 C 18.609 147.765,18.540 148.530,18.540 150.400 M381.340 150.400 C 381.340 152.270,381.409 153.035,381.493 152.100 C 381.577 151.165,381.577 149.635,381.493 148.700 C 381.409 147.765,381.340 148.530,381.340 150.400 M113.299 275.267 C 113.220 345.751,113.097 363.975,112.700 364.135 C 112.308 364.293,112.311 364.344,112.713 364.368 C 113.611 364.424,113.607 364.857,113.502 275.000 L 113.398 186.600 113.299 275.267 M177.299 275.267 C 177.220 345.751,177.097 363.975,176.700 364.135 C 176.308 364.293,176.311 364.344,176.713 364.368 C 177.611 364.424,177.607 364.857,177.502 275.000 L 177.398 186.600 177.299 275.267 M222.599 275.367 C 222.600 353.930,222.669 364.152,223.200 364.297 C 223.643 364.418,223.670 364.369,223.301 364.107 C 222.905 363.827,222.781 345.405,222.700 275.177 L 222.597 186.600 222.599 275.367 M286.599 275.367 C 286.600 353.930,286.669 364.152,287.200 364.297 C 287.643 364.418,287.670 364.369,287.301 364.107 C 286.905 363.827,286.781 345.405,286.700 275.177 L 286.597 186.600 286.599 275.367 M49.396 275.400 C 49.396 324.020,49.443 343.969,49.500 319.732 C 49.557 295.495,49.557 255.715,49.500 231.332 C 49.443 206.949,49.396 226.780,49.396 275.400 M124.997 276.400 C 124.997 325.570,125.043 345.685,125.100 321.100 C 125.157 296.515,125.157 256.285,125.100 231.700 C 125.043 207.115,124.997 227.230,124.997 276.400 M274.997 276.400 C 274.997 325.570,275.043 345.685,275.100 321.100 C 275.157 296.515,275.157 256.285,275.100 231.700 C 275.043 207.115,274.997 227.230,274.997 276.400 M350.596 275.400 C 350.596 324.020,350.643 343.969,350.700 319.732 C 350.757 295.495,350.757 255.715,350.700 231.332 C 350.643 206.949,350.596 226.780,350.596 275.400 M14.167 380.400 C 14.167 384.690,14.226 386.445,14.298 384.300 C 14.370 382.155,14.370 378.645,14.298 376.500 C 14.226 374.355,14.167 376.110,14.167 380.400 M385.767 380.400 C 385.767 384.690,385.826 386.445,385.898 384.300 C 385.970 382.155,385.970 378.645,385.898 376.500 C 385.826 374.355,385.767 376.110,385.767 380.400 M25.862 376.300 C 25.760 376.465,32.032 376.600,39.800 376.600 C 47.568 376.600,53.840 376.465,53.738 376.300 C 53.636 376.135,47.364 376.000,39.800 376.000 C 32.236 376.000,25.964 376.135,25.862 376.300 M96.674 376.299 C 100.455 376.365,106.755 376.365,110.674 376.299 C 114.593 376.234,111.500 376.180,103.800 376.180 C 96.100 376.180,92.893 376.234,96.674 376.299 M161.100 376.299 C 164.895 376.365,171.105 376.365,174.900 376.299 C 178.695 376.234,175.590 376.180,168.000 376.180 C 160.410 376.180,157.305 376.234,161.100 376.299 M225.100 376.299 C 228.895 376.365,235.105 376.365,238.900 376.299 C 242.695 376.234,239.590 376.180,232.000 376.180 C 224.410 376.180,221.305 376.234,225.100 376.299 M289.074 376.299 C 292.855 376.365,299.155 376.365,303.074 376.299 C 306.993 376.234,303.900 376.180,296.200 376.180 C 288.500 376.180,285.293 376.234,289.074 376.299 M346.262 376.300 C 346.160 376.465,352.432 376.600,360.200 376.600 C 367.968 376.600,374.240 376.465,374.138 376.300 C 374.036 376.135,367.764 376.000,360.200 376.000 C 352.636 376.000,346.364 376.135,346.262 376.300 M89.759 382.400 C 89.759 385.590,89.821 386.895,89.897 385.300 C 89.973 383.705,89.973 381.095,89.897 379.500 C 89.821 377.905,89.759 379.210,89.759 382.400 " stroke="none" fill="#8c8c8c" fill-rule="evenodd"></path><path id="path4" d="M178.909 6.400 C 178.909 7.390,178.987 7.795,179.082 7.300 C 179.178 6.805,179.178 5.995,179.082 5.500 C 178.987 5.005,178.909 5.410,178.909 6.400 M220.909 6.400 C 220.909 7.390,220.987 7.795,221.082 7.300 C 221.178 6.805,221.178 5.995,221.082 5.500 C 220.987 5.005,220.909 5.410,220.909 6.400 M194.249 9.815 C 194.112 10.173,194.000 10.976,194.000 11.599 C 194.000 12.223,193.775 12.824,193.500 12.935 C 193.185 13.062,193.245 13.149,193.660 13.168 C 194.162 13.192,194.360 12.747,194.489 11.300 C 194.677 9.194,194.621 8.846,194.249 9.815 M205.362 9.733 C 205.493 10.136,205.600 11.081,205.600 11.833 C 205.600 12.880,205.764 13.193,206.300 13.168 C 206.718 13.150,206.799 13.056,206.500 12.935 C 206.225 12.824,205.997 12.163,205.994 11.467 C 205.991 10.770,205.794 9.930,205.556 9.600 C 205.197 9.101,205.165 9.123,205.362 9.733 M193.270 26.200 C 193.639 26.640,194.014 27.720,194.103 28.600 L 194.266 30.200 194.333 28.562 C 194.384 27.304,194.191 26.747,193.500 26.162 C 192.607 25.406,192.605 25.406,193.270 26.200 M206.236 26.361 C 205.757 26.889,205.596 27.592,205.706 28.661 L 205.866 30.200 205.933 28.631 C 205.970 27.769,206.298 26.734,206.662 26.331 C 207.026 25.929,207.234 25.600,207.124 25.600 C 207.014 25.600,206.614 25.942,206.236 26.361 M194.000 58.120 L 194.200 74.200 194.304 58.425 C 194.362 49.748,194.272 42.512,194.105 42.344 C 193.937 42.177,193.890 49.276,194.000 58.120 M205.867 42.267 C 205.496 42.637,205.529 74.000,205.900 74.000 C 206.065 74.000,206.200 66.800,206.200 58.000 C 206.200 49.200,206.185 42.000,206.167 42.000 C 206.148 42.000,206.013 42.120,205.867 42.267 M152.100 48.231 C 152.485 48.689,152.800 49.263,152.800 49.508 C 152.800 49.753,152.963 50.054,153.163 50.177 C 153.886 50.624,153.098 48.833,152.260 48.126 C 151.408 47.406,151.406 47.407,152.100 48.231 M252.187 68.200 C 252.084 68.530,251.912 69.079,251.805 69.421 C 251.697 69.762,251.766 69.945,251.957 69.827 C 252.148 69.709,252.391 69.159,252.497 68.606 C 252.706 67.513,252.490 67.230,252.187 68.200 M251.040 81.160 C 251.380 81.842,251.719 82.400,251.792 82.400 C 252.118 82.400,251.459 80.781,250.967 80.373 C 250.555 80.030,250.572 80.222,251.040 81.160 M146.951 90.000 C 146.951 92.530,147.016 93.565,147.096 92.300 C 147.175 91.035,147.175 88.965,147.096 87.700 C 147.016 86.435,146.951 87.470,146.951 90.000 M252.951 90.000 C 252.951 92.530,253.016 93.565,253.096 92.300 C 253.175 91.035,253.175 88.965,253.096 87.700 C 253.016 86.435,252.951 87.470,252.951 90.000 M306.941 95.197 C 306.468 95.388,305.970 95.724,305.834 95.945 C 305.698 96.165,306.130 96.075,306.793 95.743 C 307.457 95.412,308.000 95.065,308.000 94.971 C 308.000 94.766,308.020 94.762,306.941 95.197 M161.997 110.118 L 162.195 114.200 162.313 110.436 C 162.378 108.366,162.290 106.529,162.116 106.354 C 161.942 106.179,161.889 107.873,161.997 110.118 M237.771 106.532 C 237.659 106.824,237.621 108.669,237.687 110.632 L 237.807 114.200 238.003 110.099 C 238.198 106.032,238.164 105.507,237.771 106.532 M173.780 120.200 C 173.780 127.900,173.834 130.993,173.899 127.074 C 173.965 123.155,173.965 116.855,173.899 113.074 C 173.834 109.293,173.780 112.500,173.780 120.200 M226.180 120.200 C 226.180 127.900,226.234 130.993,226.299 127.074 C 226.365 123.155,226.365 116.855,226.299 113.074 C 226.234 109.293,226.180 112.500,226.180 120.200 M161.997 130.318 L 162.194 134.200 162.314 130.636 C 162.379 128.677,162.291 126.930,162.116 126.755 C 161.942 126.580,161.889 128.183,161.997 130.318 M237.770 126.933 C 237.658 127.227,237.620 128.982,237.686 130.833 L 237.807 134.200 238.004 130.299 C 238.199 126.425,238.163 125.910,237.770 126.933 M48.944 130.400 C 48.944 132.490,49.012 133.345,49.094 132.300 C 49.176 131.255,49.176 129.545,49.094 128.500 C 49.012 127.455,48.944 128.310,48.944 130.400 M350.944 130.400 C 350.944 132.490,351.012 133.345,351.094 132.300 C 351.176 131.255,351.176 129.545,351.094 128.500 C 351.012 127.455,350.944 128.310,350.944 130.400 M6.661 134.700 C 6.492 134.973,18.316 134.967,32.000 134.686 C 34.970 134.625,30.526 134.536,22.124 134.488 C 13.722 134.439,6.764 134.535,6.661 134.700 M77.500 134.700 C 92.955 134.758,118.245 134.758,133.700 134.700 C 149.155 134.642,136.510 134.595,105.600 134.595 C 74.690 134.595,62.045 134.642,77.500 134.700 M187.100 134.700 C 194.195 134.761,205.805 134.761,212.900 134.700 C 219.995 134.639,214.190 134.589,200.000 134.589 C 185.810 134.589,180.005 134.639,187.100 134.700 M266.300 134.700 C 281.755 134.758,307.045 134.758,322.500 134.700 C 337.955 134.642,325.310 134.595,294.400 134.595 C 263.490 134.595,250.845 134.642,266.300 134.700 M370.326 134.700 C 374.576 134.764,381.416 134.764,385.526 134.699 C 389.637 134.634,386.160 134.581,377.800 134.581 C 369.440 134.582,366.077 134.635,370.326 134.700 M115.300 166.300 C 161.885 166.356,238.115 166.356,284.700 166.300 C 331.285 166.244,293.170 166.198,200.000 166.198 C 106.830 166.198,68.715 166.244,115.300 166.300 M30.938 174.894 C 31.192 175.056,107.270 175.188,200.000 175.188 C 292.730 175.188,368.808 175.056,369.062 174.894 C 369.316 174.732,293.238 174.600,200.000 174.600 C 106.762 174.600,30.684 174.732,30.938 174.894 M146.997 276.400 C 146.997 325.790,147.043 345.995,147.100 321.300 C 147.157 296.605,147.157 256.195,147.100 231.500 C 147.043 206.805,146.997 227.010,146.997 276.400 M188.997 276.600 C 188.997 326.100,189.043 346.291,189.100 321.468 C 189.157 296.645,189.157 256.145,189.100 231.468 C 189.043 206.791,188.997 227.100,188.997 276.600 M210.997 276.600 C 210.997 326.100,211.043 346.291,211.100 321.468 C 211.157 296.645,211.157 256.145,211.100 231.468 C 211.043 206.791,210.997 227.100,210.997 276.600 M252.997 276.400 C 252.997 325.790,253.043 345.995,253.100 321.300 C 253.157 296.605,253.157 256.195,253.100 231.500 C 253.043 206.805,252.997 227.010,252.997 276.400 M35.678 364.698 C 38.031 364.769,41.991 364.769,44.478 364.699 C 46.965 364.629,45.040 364.571,40.200 364.570 C 35.360 364.570,33.325 364.628,35.678 364.698 M99.700 364.698 C 102.065 364.769,105.935 364.769,108.300 364.698 C 110.665 364.628,108.730 364.570,104.000 364.570 C 99.270 364.570,97.335 364.628,99.700 364.698 M163.700 364.698 C 166.065 364.769,169.935 364.769,172.300 364.698 C 174.665 364.628,172.730 364.570,168.000 364.570 C 163.270 364.570,161.335 364.628,163.700 364.698 M227.700 364.698 C 230.065 364.769,233.935 364.769,236.300 364.698 C 238.665 364.628,236.730 364.570,232.000 364.570 C 227.270 364.570,225.335 364.628,227.700 364.698 M291.700 364.698 C 294.065 364.769,297.935 364.769,300.300 364.698 C 302.665 364.628,300.730 364.570,296.000 364.570 C 291.270 364.570,289.335 364.628,291.700 364.698 M355.278 364.698 C 357.631 364.769,361.591 364.769,364.078 364.699 C 366.565 364.629,364.640 364.571,359.800 364.570 C 354.960 364.570,352.925 364.628,355.278 364.698 M25.861 375.900 C 25.759 376.065,29.753 376.154,34.738 376.098 C 52.079 375.903,53.714 375.773,39.924 375.687 C 32.292 375.639,25.964 375.735,25.861 375.900 M94.800 375.885 C 107.467 376.166,117.908 376.173,117.739 375.900 C 117.636 375.735,111.308 375.639,103.676 375.687 C 96.044 375.735,92.050 375.824,94.800 375.885 M154.262 375.900 C 154.160 376.065,160.342 376.200,168.000 376.200 C 175.658 376.200,181.840 376.065,181.738 375.900 C 181.636 375.735,175.454 375.600,168.000 375.600 C 160.546 375.600,154.364 375.735,154.262 375.900 M218.262 375.900 C 218.160 376.065,224.342 376.200,232.000 376.200 C 239.658 376.200,245.840 376.065,245.738 375.900 C 245.636 375.735,239.454 375.600,232.000 375.600 C 224.546 375.600,218.364 375.735,218.262 375.900 M282.261 375.900 C 282.159 376.065,286.153 376.154,291.138 376.098 C 308.479 375.903,310.114 375.773,296.324 375.687 C 288.692 375.639,282.364 375.735,282.261 375.900 M351.200 375.885 C 363.867 376.166,374.308 376.173,374.139 375.900 C 374.036 375.735,367.708 375.639,360.076 375.687 C 352.444 375.735,348.450 375.824,351.200 375.885 M310.161 382.400 C 310.161 385.810,310.222 387.205,310.297 385.500 C 310.372 383.795,310.372 381.005,310.297 379.300 C 310.222 377.595,310.161 378.990,310.161 382.400 M153.759 382.400 C 153.759 385.590,153.821 386.895,153.897 385.300 C 153.973 383.705,153.973 381.095,153.897 379.500 C 153.821 377.905,153.759 379.210,153.759 382.400 M246.159 382.400 C 246.159 385.590,246.221 386.895,246.297 385.300 C 246.373 383.705,246.373 381.095,246.297 379.500 C 246.221 377.905,246.159 379.210,246.159 382.400 " stroke="none" fill="#848484" fill-rule="evenodd"></path></g></svg>