 <svg  version="1.0" xmlns="http://www.w3.org/2000/svg"  width="300.000000pt" height="258.000000pt" viewBox="0 0 300.000000 258.000000"  preserveAspectRatio="xMidYMid meet">  <g transform="translate(0.000000,258.000000) scale(0.100000,-0.100000)" fill="#325096" stroke="none"> <path d="M1390 2560 c0 -29 56 -136 75 -143 24 -10 19 -56 -8 -66 -36 -14 -46 -33 -49 -96 l-3 -60 -65 0 -65 0 -18 40 c-35 79 -42 90 -69 93 -14 2 -33 -4 -42 -13 -21 -21 -22 -93 -1 -101 12 -5 15 -26 15 -105 l0 -99 335 0 335 0 0 99 c0 79 3 100 15 105 20 7 20 80 -1 100 -21 21 -57 20 -77 -1 -8 -10 -24 -40 -34 -68 l-19 -50 -62 -3 -62 -3 0 58 c0 65 -19 103 -51 103 -15 0 -19 7 -19 35 0 22 5 35 13 35 7 0 28 31 46 69 45 92 30 116 -43 66 l-37 -25 -37 25 c-45 31 -72 32 -72 5z"/> <path d="M1067 1993 c-4 -3 -7 -19 -7 -35 l0 -28 -418 0 c-312 0 -421 -3 -430 -12 -13 -13 -16 -66 -6 -92 4 -10 18 -16 35 -16 28 0 29 -2 29 -50 l0 -49 -127 -3 c-120 -3 -128 -4 -131 -23 -4 -28 74 -135 98 -135 17 0 19 -9 22 -77 3 -72 5 -78 26 -81 l22 -3 0 -532 0 -532 -22 -10 c-19 -8 -24 -19 -26 -62 l-3 -53 -54 0 c-43 0 -56 -4 -65 -19 -13 -25 -13 -137 0 -162 11 -19 38 -19 1488 -19 1136 0 1481 3 1490 12 16 16 16 160 0 176 -7 7 -36 12 -64 12 l-53 0 -3 53 c-2 43 -7 54 -25 62 l-23 10 0 532 0 532 23 3 c20 3 22 9 25 80 3 70 5 77 24 80 13 2 41 28 67 62 64 84 57 90 -103 94 l-126 3 0 49 c0 48 1 50 29 50 17 0 31 6 35 16 10 26 7 79 -6 92 -9 9 -119 12 -435 12 l-423 0 0 35 0 35 -428 0 c-236 0 -432 -3 -435 -7z m-417 -1136 l0 -532 -22 -10 c-19 -8 -24 -19 -26 -63 l-3 -52 -85 0 -84 0 0 50 c0 44 -3 52 -25 62 l-25 11 0 534 0 533 135 0 135 0 0 -533z m470 0 l0 -532 -22 -10 c-19 -8 -24 -19 -26 -63 l-3 -52 -84 0 -84 0 -3 53 c-2 43 -7 54 -25 62 l-23 10 0 532 0 533 135 0 135 0 0 -533z m570 0 l0 -532 -22 -10 c-19 -8 -24 -19 -26 -63 l-3 -52 -140 0 -139 0 0 50 c0 39 -4 53 -20 62 -20 13 -20 24 -20 545 l0 533 185 0 185 0 0 -533z m470 0 l0 -532 -22 -10 c-19 -8 -24 -19 -26 -63 l-3 -52 -84 0 -84 0 -3 53 c-2 43 -7 54 -25 62 l-23 10 0 532 0 533 135 0 135 0 0 -533z m470 -2 c0 -509 -1 -535 -18 -535 -30 0 -42 -21 -42 -72 l0 -49 -82 3 -83 3 -5 55 c-4 48 -8 55 -27 58 l-23 3 0 535 0 534 140 0 140 0 0 -535z"/> </g> </svg> 