<svg id="svg" version="1.1" xmlns="http://www.w3.org/2000/svg" xmlns:xlink="http://www.w3.org/1999/xlink" width="400" height="355.55555555555554" viewBox="0, 0, 400,355.55555555555554"><g id="svgg"><path id="path0" d="M193.149 0.239 C 192.510 0.329,192.079 0.551,192.192 0.734 C 192.305 0.917,192.028 1.074,191.577 1.084 C 190.444 1.107,188.247 2.263,188.356 2.778 C 188.407 3.022,188.033 3.201,187.467 3.202 C 186.754 3.204,186.325 3.493,185.883 4.269 C 185.550 4.854,185.019 5.333,184.702 5.333 C 183.963 5.333,183.111 6.185,183.111 6.924 C 183.111 7.241,182.632 7.772,182.047 8.105 C 181.271 8.547,180.982 8.976,180.980 9.689 C 180.979 10.232,180.799 10.627,180.575 10.578 C 180.353 10.529,179.679 11.449,179.078 12.622 C 178.476 13.796,177.857 14.809,177.703 14.874 C 177.549 14.939,177.422 15.379,177.422 15.852 C 177.422 16.324,177.262 16.711,177.067 16.711 C 176.871 16.711,176.711 17.041,176.711 17.443 C 176.711 17.846,176.585 18.097,176.431 18.002 C 176.277 17.907,176.116 18.258,176.072 18.781 C 176.029 19.305,175.834 19.787,175.639 19.853 C 175.444 19.918,175.367 20.105,175.468 20.268 C 175.569 20.431,175.450 20.782,175.203 21.046 C 174.957 21.311,174.704 21.764,174.640 22.053 C 174.576 22.342,174.385 22.628,174.216 22.690 C 174.046 22.751,173.995 23.031,174.102 23.312 C 174.225 23.630,174.074 23.822,173.703 23.822 C 173.269 23.822,173.169 24.015,173.333 24.533 C 173.457 24.924,173.403 25.244,173.211 25.244 C 173.020 25.244,172.465 26.044,171.978 27.021 C 171.491 27.999,171.237 28.709,171.413 28.600 C 171.589 28.492,171.733 28.652,171.733 28.957 C 171.733 29.262,171.483 29.511,171.176 29.511 C 170.781 29.511,170.684 29.718,170.844 30.222 C 171.005 30.727,170.908 30.933,170.513 30.933 C 170.193 30.933,169.956 31.236,169.956 31.644 C 169.956 32.036,169.796 32.356,169.600 32.356 C 169.404 32.356,169.244 32.676,169.244 33.067 C 169.244 33.458,169.084 33.778,168.889 33.778 C 168.693 33.778,168.533 33.986,168.533 34.240 C 168.533 34.894,167.697 36.616,167.378 36.619 C 167.231 36.621,167.111 36.952,167.111 37.354 C 167.111 37.757,166.951 37.988,166.756 37.867 C 166.560 37.746,166.400 37.976,166.400 38.379 C 166.400 38.782,166.240 39.111,166.044 39.111 C 165.849 39.111,165.689 39.431,165.689 39.822 C 165.689 40.213,165.529 40.533,165.333 40.533 C 165.138 40.533,164.978 40.821,164.978 41.173 C 164.978 41.525,164.823 41.968,164.634 42.157 C 164.445 42.346,164.252 43.007,164.205 43.626 C 164.158 44.244,163.992 44.672,163.837 44.577 C 163.682 44.481,163.556 44.741,163.556 45.156 C 163.556 45.570,163.396 45.810,163.200 45.689 C 163.004 45.568,162.844 45.789,162.844 46.180 C 162.844 46.571,162.684 46.990,162.489 47.111 C 162.293 47.232,162.133 47.641,162.133 48.021 C 162.133 48.401,162.013 48.715,161.867 48.721 C 161.720 48.726,161.201 49.606,160.714 50.676 C 160.227 51.747,159.707 52.622,159.558 52.622 C 159.410 52.622,159.289 52.862,159.289 53.156 C 159.289 53.449,159.110 53.689,158.892 53.689 C 158.664 53.689,158.565 54.054,158.659 54.545 C 158.776 55.159,158.687 55.350,158.344 55.218 C 158.066 55.111,157.867 55.275,157.867 55.611 C 157.867 55.928,157.717 56.465,157.534 56.805 C 157.152 57.514,155.677 60.785,154.971 62.489 C 154.708 63.124,154.372 63.644,154.224 63.644 C 154.076 63.644,153.956 63.964,153.956 64.356 C 153.956 64.747,153.796 65.067,153.600 65.067 C 153.404 65.067,153.244 65.387,153.244 65.778 C 153.244 66.169,153.124 66.490,152.978 66.492 C 152.617 66.495,151.822 68.254,151.822 69.049 C 151.822 69.401,151.644 69.689,151.425 69.689 C 151.195 69.689,151.099 70.057,151.196 70.567 C 151.289 71.053,151.218 71.355,151.036 71.242 C 150.855 71.131,150.620 71.376,150.512 71.786 C 150.405 72.197,150.176 72.533,150.003 72.533 C 149.830 72.533,149.689 72.844,149.689 73.223 C 149.689 73.603,149.547 74.001,149.374 74.108 C 149.200 74.216,148.953 74.865,148.824 75.552 C 148.695 76.238,148.449 76.800,148.277 76.800 C 147.910 76.800,146.844 78.824,146.844 79.521 C 146.844 79.785,146.723 80.000,146.575 80.000 C 146.427 80.000,145.907 80.876,145.419 81.946 C 144.932 83.016,144.413 83.896,144.267 83.901 C 144.120 83.907,143.998 84.351,143.995 84.889 C 143.990 85.651,143.913 85.749,143.644 85.333 C 143.366 84.902,143.299 84.953,143.294 85.600 C 143.291 86.040,143.118 86.400,142.909 86.400 C 142.691 86.400,142.626 86.703,142.756 87.113 C 142.906 87.586,142.795 87.897,142.427 88.039 C 142.121 88.156,141.966 88.406,142.082 88.594 C 142.198 88.782,142.011 89.142,141.667 89.394 C 141.289 89.671,141.129 90.085,141.264 90.437 C 141.388 90.759,141.334 91.022,141.144 91.022 C 140.955 91.022,140.800 91.262,140.800 91.556 C 140.800 91.849,140.640 92.089,140.444 92.089 C 140.249 92.089,140.089 92.569,140.089 93.156 C 140.089 93.742,139.929 94.222,139.733 94.222 C 139.538 94.222,139.378 94.542,139.378 94.933 C 139.378 95.324,139.248 95.644,139.089 95.644 C 138.930 95.644,138.580 96.204,138.311 96.889 C 138.043 97.573,137.727 98.133,137.609 98.133 C 137.492 98.133,137.369 98.491,137.336 98.928 C 137.303 99.365,137.109 99.779,136.905 99.847 C 136.700 99.915,136.533 100.197,136.533 100.474 C 136.533 100.751,136.373 100.978,136.178 100.978 C 135.982 100.978,135.822 101.288,135.822 101.668 C 135.822 102.047,135.662 102.457,135.467 102.578 C 135.271 102.699,135.111 103.124,135.111 103.522 C 135.111 104.171,134.925 104.234,133.333 104.123 C 132.355 104.055,131.555 104.106,131.555 104.236 C 131.555 104.366,130.556 104.561,129.333 104.669 C 124.921 105.058,123.194 105.316,122.862 105.633 C 122.676 105.810,121.436 105.956,120.107 105.956 C 118.732 105.956,117.689 106.109,117.689 106.311 C 117.689 106.514,116.622 106.667,115.200 106.667 C 113.778 106.667,112.711 106.819,112.711 107.022 C 112.711 107.223,111.704 107.378,110.400 107.378 C 109.129 107.378,108.089 107.523,108.089 107.700 C 108.089 108.026,106.142 108.307,101.422 108.662 C 100.004 108.769,98.844 109.004,98.844 109.184 C 98.844 109.364,97.804 109.511,96.533 109.511 C 95.230 109.511,94.222 109.666,94.222 109.867 C 94.222 110.069,93.165 110.222,91.763 110.222 C 90.410 110.222,89.250 110.362,89.185 110.533 C 89.120 110.704,87.227 110.958,84.978 111.098 C 82.729 111.238,80.724 111.489,80.523 111.655 C 80.321 111.821,79.081 111.992,77.767 112.035 C 76.453 112.077,75.378 112.247,75.378 112.412 C 75.378 112.576,74.338 112.711,73.067 112.711 C 71.763 112.711,70.756 112.866,70.756 113.067 C 70.756 113.270,69.689 113.422,68.267 113.422 C 66.844 113.422,65.778 113.575,65.778 113.778 C 65.778 113.975,64.830 114.133,63.644 114.133 C 62.459 114.133,61.511 114.291,61.511 114.489 C 61.511 114.692,60.437 114.844,59.001 114.844 C 57.419 114.844,56.573 114.976,56.711 115.200 C 56.849 115.423,56.070 115.556,54.620 115.556 C 53.349 115.556,52.210 115.716,52.089 115.911 C 51.968 116.107,50.759 116.267,49.401 116.267 C 47.993 116.267,46.933 116.419,46.933 116.622 C 46.933 116.820,45.985 116.978,44.800 116.978 C 43.615 116.978,42.667 117.136,42.667 117.333 C 42.667 117.531,41.719 117.689,40.533 117.689 C 39.067 117.689,38.398 117.828,38.395 118.133 C 38.391 118.459,38.307 118.448,38.082 118.093 C 37.901 117.807,37.721 117.759,37.643 117.977 C 37.570 118.180,36.551 118.385,35.378 118.434 C 34.204 118.483,33.164 118.615,33.067 118.728 C 32.969 118.841,32.169 119.195,31.289 119.515 C 30.409 119.834,29.721 120.251,29.761 120.441 C 29.800 120.632,29.426 120.743,28.929 120.688 C 28.433 120.634,28.118 120.681,28.230 120.793 C 28.480 121.043,26.783 121.956,26.067 121.956 C 25.782 121.956,25.309 122.196,25.016 122.489 C 24.723 122.782,24.610 123.022,24.765 123.022 C 24.920 123.022,24.652 123.294,24.168 123.627 C 23.684 123.959,23.106 124.479,22.883 124.782 C 21.994 125.990,20.310 127.569,20.116 127.376 C 20.003 127.263,19.911 127.517,19.911 127.941 C 19.911 128.364,19.751 128.711,19.556 128.711 C 19.360 128.711,19.200 128.951,19.200 129.244 C 19.200 129.538,19.040 129.778,18.844 129.778 C 18.649 129.778,18.489 130.107,18.489 130.510 C 18.489 130.913,18.329 131.143,18.133 131.022 C 17.938 130.901,17.778 131.134,17.778 131.540 C 17.778 132.558,16.953 135.111,16.625 135.111 C 16.477 135.111,16.356 137.751,16.356 140.978 C 16.356 144.652,16.488 146.844,16.711 146.844 C 16.907 146.844,17.067 147.324,17.067 147.911 C 17.067 148.498,17.227 148.978,17.422 148.978 C 17.618 148.978,17.778 149.458,17.778 150.044 C 17.778 150.631,17.938 151.111,18.133 151.111 C 18.329 151.111,18.489 151.431,18.489 151.822 C 18.489 152.213,18.610 152.533,18.758 152.533 C 18.905 152.533,19.246 153.029,19.514 153.636 C 19.824 154.336,20.096 154.587,20.259 154.323 C 20.420 154.064,20.695 154.350,20.992 155.087 C 21.254 155.736,21.878 156.658,22.378 157.136 C 22.879 157.614,23.249 158.134,23.200 158.291 C 23.151 158.449,23.340 158.578,23.620 158.578 C 23.901 158.578,24.232 158.900,24.357 159.294 C 24.482 159.688,24.733 159.919,24.914 159.806 C 25.096 159.694,25.244 159.783,25.244 160.004 C 25.244 160.500,26.134 161.422,26.612 161.422 C 26.805 161.422,27.016 161.574,27.081 161.760 C 27.258 162.265,32.355 167.467,32.673 167.467 C 32.823 167.467,33.161 167.867,33.422 168.356 C 33.684 168.844,34.181 169.244,34.528 169.244 C 34.875 169.244,35.272 169.429,35.412 169.655 C 35.581 169.929,35.500 169.972,35.166 169.784 C 34.891 169.629,35.380 170.165,36.252 170.974 C 37.125 171.783,38.054 172.444,38.318 172.444 C 38.582 172.444,38.699 172.604,38.578 172.800 C 38.457 172.996,38.521 173.156,38.720 173.156 C 39.106 173.156,41.956 175.748,41.956 176.100 C 41.956 176.373,45.849 180.267,46.123 180.267 C 46.474 180.267,49.067 183.116,49.067 183.503 C 49.067 183.701,49.227 183.765,49.422 183.644 C 49.618 183.524,49.778 183.674,49.778 183.979 C 49.778 184.284,49.931 184.533,50.117 184.533 C 50.474 184.533,51.489 185.490,52.978 187.229 C 53.467 187.800,54.159 188.427,54.516 188.622 C 54.874 188.818,55.144 189.108,55.118 189.267 C 55.064 189.595,57.600 192.000,58.001 192.000 C 58.145 192.000,58.365 192.322,58.491 192.716 C 58.616 193.110,58.866 193.341,59.048 193.229 C 59.229 193.116,59.378 193.194,59.378 193.400 C 59.378 193.795,62.904 197.333,63.297 197.333 C 63.422 197.333,63.740 197.736,64.004 198.229 C 64.352 198.880,64.561 199.001,64.769 198.673 C 64.975 198.350,65.057 198.341,65.061 198.645 C 65.068 199.165,66.766 201.005,67.733 201.540 C 68.124 201.757,68.259 201.939,68.033 201.945 C 67.539 201.958,72.783 207.289,73.290 207.289 C 73.483 207.289,73.543 207.449,73.422 207.644 C 73.301 207.840,73.434 208.000,73.716 208.000 C 73.998 208.000,74.512 208.432,74.858 208.960 C 75.649 210.167,76.868 211.396,77.333 211.455 C 77.529 211.480,77.849 211.793,78.044 212.150 C 78.240 212.508,78.867 213.200,79.438 213.689 C 81.177 215.178,82.133 216.193,82.133 216.549 C 82.133 216.736,82.383 216.889,82.688 216.889 C 82.993 216.889,83.143 217.049,83.022 217.244 C 82.901 217.440,82.965 217.600,83.164 217.600 C 83.550 217.600,86.400 220.192,86.400 220.544 C 86.400 220.818,90.293 224.711,90.567 224.711 C 90.919 224.711,93.511 227.561,93.511 227.947 C 93.511 228.146,93.671 228.210,93.867 228.089 C 94.062 227.968,94.222 228.119,94.222 228.423 C 94.222 228.728,94.382 228.978,94.578 228.978 C 94.773 228.978,94.933 229.378,94.933 229.867 C 94.933 230.356,94.773 230.756,94.578 230.756 C 94.377 230.756,94.222 231.763,94.222 233.067 C 94.222 234.370,94.067 235.378,93.867 235.378 C 93.671 235.378,93.511 236.258,93.511 237.333 C 93.511 238.409,93.351 239.289,93.156 239.289 C 92.958 239.289,92.800 240.237,92.800 241.422 C 92.800 242.607,92.642 243.556,92.444 243.556 C 92.249 243.556,92.089 244.426,92.089 245.490 C 92.089 246.554,91.929 247.524,91.733 247.644 C 91.538 247.765,91.378 248.725,91.378 249.778 C 91.378 250.830,91.218 251.790,91.022 251.911 C 90.827 252.032,90.667 252.969,90.667 253.994 C 90.667 255.019,90.521 256.010,90.344 256.196 C 90.166 256.381,89.926 257.373,89.811 258.400 C 89.695 259.427,89.505 261.107,89.389 262.133 C 89.274 263.160,89.034 264.152,88.856 264.338 C 88.679 264.524,88.533 265.524,88.533 266.560 C 88.533 267.596,88.373 268.444,88.178 268.444 C 87.980 268.444,87.822 269.393,87.822 270.578 C 87.822 271.751,87.677 272.711,87.499 272.711 C 87.321 272.711,87.201 273.651,87.232 274.800 C 87.274 276.342,87.173 276.843,86.844 276.717 C 86.521 276.593,86.400 277.095,86.400 278.561 C 86.400 279.669,86.267 280.493,86.105 280.393 C 85.942 280.292,85.773 281.113,85.728 282.218 C 85.683 283.322,85.554 284.375,85.440 284.559 C 85.327 284.743,85.216 285.793,85.195 286.891 C 85.173 288.005,84.998 288.862,84.800 288.829 C 84.598 288.795,84.444 289.638,84.444 290.784 C 84.444 292.125,84.306 292.774,84.031 292.721 C 83.747 292.667,83.635 293.349,83.675 294.899 C 83.718 296.575,83.619 297.111,83.289 296.984 C 82.964 296.859,82.844 297.387,82.844 298.955 C 82.844 300.335,82.686 301.160,82.400 301.277 C 82.051 301.418,82.056 301.527,82.423 301.786 C 83.006 302.196,82.855 305.244,82.252 305.244 C 82.024 305.244,81.717 305.364,81.570 305.511 C 81.424 305.658,81.490 305.778,81.719 305.778 C 82.371 305.778,82.261 309.208,81.600 309.462 C 81.216 309.609,81.067 310.211,81.067 311.612 C 81.067 312.682,80.907 313.657,80.711 313.778 C 80.516 313.899,80.356 314.868,80.356 315.932 C 80.356 316.996,80.196 317.867,80.000 317.867 C 79.804 317.867,79.644 318.747,79.644 319.822 C 79.644 320.898,79.484 321.778,79.289 321.778 C 79.089 321.778,78.933 322.778,78.933 324.068 C 78.933 325.327,78.773 326.457,78.578 326.578 C 78.382 326.699,78.222 327.579,78.222 328.533 C 78.222 329.488,78.062 330.368,77.867 330.489 C 77.403 330.775,77.403 335.891,77.867 336.178 C 78.062 336.299,78.222 337.188,78.222 338.154 C 78.222 339.121,78.382 339.911,78.578 339.911 C 78.773 339.911,78.933 340.391,78.933 340.978 C 78.933 341.564,79.093 342.044,79.289 342.044 C 79.484 342.044,79.644 342.364,79.644 342.756 C 79.644 343.147,79.804 343.467,80.000 343.467 C 80.196 343.467,80.356 343.796,80.356 344.199 C 80.356 344.601,80.496 344.844,80.668 344.738 C 80.840 344.632,81.073 345.009,81.187 345.577 C 81.309 346.188,81.689 346.703,82.119 346.840 C 82.914 347.092,83.110 347.725,82.400 347.748 C 82.156 347.755,82.400 348.003,82.944 348.298 C 83.487 348.593,83.839 348.984,83.725 349.168 C 83.608 349.358,83.783 349.401,84.129 349.269 C 84.530 349.115,84.655 349.171,84.493 349.433 C 84.357 349.653,84.570 350.004,84.968 350.217 C 85.364 350.429,85.689 350.804,85.689 351.050 C 85.689 351.296,86.209 351.652,86.844 351.841 C 87.480 352.030,87.960 352.384,87.911 352.626 C 87.859 352.885,88.198 353.067,88.732 353.067 C 89.248 353.067,89.547 353.221,89.422 353.422 C 89.301 353.618,89.532 353.778,89.935 353.778 C 90.337 353.778,90.667 353.938,90.667 354.133 C 90.667 354.329,90.973 354.489,91.348 354.489 C 91.723 354.489,92.093 354.678,92.170 354.910 C 92.270 355.209,94.407 355.377,99.538 355.490 C 104.239 355.593,106.690 355.526,106.549 355.298 C 106.421 355.091,106.675 355.013,107.169 355.107 C 107.629 355.195,108.114 355.092,108.246 354.878 C 108.378 354.664,108.944 354.489,109.502 354.489 C 110.061 354.489,110.572 354.369,110.637 354.222 C 110.811 353.831,113.758 352.356,114.366 352.356 C 114.652 352.356,114.788 352.196,114.667 352.000 C 114.544 351.802,114.812 351.644,115.271 351.644 C 115.725 351.644,116.295 351.324,116.540 350.933 C 116.784 350.542,117.302 350.222,117.692 350.222 C 118.081 350.222,118.400 350.062,118.400 349.867 C 118.400 349.671,118.720 349.511,119.111 349.511 C 119.502 349.511,119.823 349.391,119.825 349.244 C 119.828 348.920,121.555 348.089,122.225 348.089 C 122.491 348.089,122.619 347.944,122.509 347.766 C 122.400 347.589,122.612 347.523,122.982 347.620 C 123.351 347.716,123.776 347.597,123.926 347.354 C 124.113 347.051,124.053 347.002,123.733 347.200 C 123.425 347.390,123.354 347.349,123.522 347.077 C 123.661 346.851,124.158 346.667,124.626 346.667 C 125.093 346.667,125.604 346.447,125.760 346.179 C 125.916 345.910,126.684 345.381,127.467 345.002 C 128.249 344.623,129.209 344.145,129.600 343.940 C 129.991 343.736,130.809 343.310,131.417 342.993 C 132.025 342.677,132.651 342.535,132.807 342.676 C 132.964 342.818,132.977 342.733,132.836 342.489 C 132.610 342.096,132.989 341.951,133.916 342.075 C 134.041 342.092,134.242 341.944,134.364 341.748 C 134.485 341.551,134.817 341.338,135.101 341.273 C 135.821 341.109,136.490 340.497,136.297 340.178 C 136.208 340.031,136.452 339.911,136.838 339.911 C 137.225 339.911,137.596 339.744,137.665 339.540 C 137.733 339.336,138.135 339.142,138.558 339.110 C 138.982 339.078,139.250 338.926,139.154 338.771 C 139.059 338.616,139.310 338.489,139.712 338.489 C 140.115 338.489,140.444 338.329,140.444 338.133 C 140.444 337.938,140.751 337.778,141.126 337.778 C 141.501 337.778,141.861 337.658,141.926 337.511 C 142.100 337.120,145.047 335.644,145.655 335.644 C 145.941 335.644,146.076 335.484,145.956 335.289 C 145.835 335.093,145.985 334.933,146.290 334.933 C 146.595 334.933,146.844 334.803,146.844 334.644 C 146.844 334.485,147.404 334.135,148.089 333.867 C 148.773 333.598,149.333 333.239,149.333 333.068 C 149.333 332.898,149.518 332.872,149.743 333.011 C 149.968 333.150,150.328 333.040,150.543 332.765 C 150.758 332.491,151.253 332.267,151.644 332.267 C 152.153 332.267,152.326 332.064,152.252 331.556 C 152.170 330.992,152.220 330.951,152.494 331.358 C 152.876 331.927,155.518 330.825,155.160 330.246 C 155.064 330.091,155.234 330.059,155.537 330.175 C 155.841 330.292,156.089 330.210,156.089 329.994 C 156.089 329.777,156.338 329.600,156.643 329.600 C 156.948 329.600,157.099 329.440,156.978 329.244 C 156.853 329.043,157.152 328.889,157.668 328.889 C 158.168 328.889,158.578 328.729,158.578 328.533 C 158.578 328.338,158.898 328.178,159.289 328.178 C 159.680 328.178,160.000 328.018,160.000 327.822 C 160.000 327.627,160.320 327.467,160.711 327.467 C 161.102 327.467,161.422 327.307,161.422 327.111 C 161.422 326.916,161.669 326.756,161.970 326.756 C 162.272 326.756,162.862 326.436,163.282 326.044 C 163.702 325.653,164.346 325.333,164.715 325.333 C 165.083 325.333,165.626 325.092,165.921 324.797 C 166.216 324.502,166.629 324.366,166.839 324.496 C 167.065 324.636,167.118 324.565,166.967 324.322 C 166.815 324.076,166.945 323.911,167.289 323.911 C 167.605 323.911,167.765 323.751,167.644 323.556 C 167.520 323.354,167.815 323.200,168.323 323.200 C 169.016 323.200,169.170 323.064,168.995 322.608 C 168.845 322.217,168.906 322.102,169.174 322.268 C 169.397 322.406,169.957 322.271,170.418 321.969 C 170.879 321.667,171.364 321.527,171.495 321.658 C 171.626 321.789,171.733 321.710,171.733 321.481 C 171.733 321.253,172.053 321.067,172.444 321.067 C 172.836 321.067,173.157 320.947,173.158 320.800 C 173.162 320.476,174.888 319.644,175.559 319.644 C 175.824 319.644,175.943 319.484,175.822 319.289 C 175.619 318.960,176.415 318.754,177.244 318.921 C 177.440 318.960,177.490 318.882,177.355 318.747 C 177.220 318.612,177.427 318.161,177.815 317.745 C 178.417 317.099,178.570 317.065,178.855 317.516 C 179.079 317.870,179.191 317.898,179.195 317.600 C 179.198 317.356,179.520 317.156,179.911 317.156 C 180.302 317.156,180.622 316.996,180.622 316.800 C 180.622 316.604,180.947 316.444,181.344 316.444 C 181.742 316.444,182.162 316.195,182.279 315.891 C 182.396 315.586,182.706 315.419,182.968 315.520 C 183.583 315.756,183.969 315.150,183.380 314.873 C 183.134 314.758,183.368 314.721,183.899 314.791 C 184.430 314.861,184.910 314.794,184.965 314.642 C 185.021 314.489,185.307 314.312,185.600 314.249 C 185.893 314.185,186.213 314.047,186.311 313.942 C 186.926 313.282,190.100 311.467,190.639 311.467 C 190.996 311.467,191.289 311.346,191.289 311.198 C 191.289 310.888,193.467 309.846,193.867 309.965 C 194.013 310.009,194.133 309.884,194.133 309.689 C 194.133 309.493,194.453 309.333,194.844 309.333 C 195.236 309.333,195.557 309.213,195.558 309.067 C 195.562 308.733,197.296 307.911,197.997 307.911 C 198.284 307.911,198.414 307.807,198.287 307.680 C 197.940 307.333,199.177 306.513,200.068 306.500 C 200.496 306.494,200.954 306.663,201.086 306.875 C 201.217 307.088,201.639 307.180,202.024 307.079 C 202.525 306.948,202.668 307.040,202.528 307.404 C 202.400 307.737,202.573 307.911,203.033 307.911 C 203.418 307.911,203.733 308.071,203.733 308.267 C 203.733 308.462,203.949 308.622,204.212 308.622 C 204.891 308.622,206.777 309.606,207.295 310.230 C 207.535 310.519,207.952 310.756,208.221 310.756 C 208.491 310.756,208.711 310.916,208.711 311.111 C 208.711 311.307,208.960 311.467,209.264 311.467 C 209.818 311.467,214.064 313.571,214.401 314.012 C 214.499 314.141,215.187 314.360,215.929 314.499 C 216.671 314.638,217.190 314.840,217.082 314.947 C 216.751 315.278,218.028 316.444,218.722 316.444 C 219.083 316.444,219.378 316.604,219.378 316.800 C 219.378 316.996,219.698 317.156,220.089 317.156 C 220.480 317.156,220.802 317.356,220.805 317.600 C 220.809 317.898,220.928 317.869,221.168 317.511 C 221.480 317.044,221.584 317.055,221.997 317.594 C 222.258 317.934,222.588 318.094,222.731 317.951 C 222.874 317.807,223.182 317.930,223.414 318.223 C 223.968 318.922,225.269 319.644,225.972 319.644 C 226.279 319.644,226.432 319.804,226.311 320.000 C 226.190 320.196,226.412 320.356,226.803 320.356 C 227.195 320.356,227.764 320.711,228.069 321.146 C 228.373 321.580,228.622 321.802,228.622 321.638 C 228.622 321.474,229.027 321.605,229.521 321.929 C 230.016 322.253,230.603 322.406,230.826 322.268 C 231.094 322.102,231.155 322.217,231.005 322.608 C 230.830 323.064,230.984 323.200,231.677 323.200 C 232.185 323.200,232.480 323.354,232.356 323.556 C 232.235 323.751,232.370 323.911,232.657 323.911 C 233.266 323.911,236.212 325.387,236.386 325.780 C 236.452 325.928,236.641 325.965,236.807 325.862 C 236.974 325.759,237.513 326.078,238.005 326.571 C 238.498 327.064,239.148 327.467,239.451 327.467 C 239.753 327.467,240.000 327.627,240.000 327.822 C 240.000 328.018,240.320 328.178,240.711 328.178 C 241.102 328.178,241.422 328.338,241.422 328.533 C 241.422 328.729,241.832 328.889,242.332 328.889 C 242.848 328.889,243.147 329.043,243.022 329.244 C 242.897 329.447,243.203 329.600,243.733 329.600 C 244.245 329.600,244.577 329.742,244.469 329.915 C 244.362 330.088,244.553 330.310,244.893 330.408 C 245.233 330.506,245.831 330.699,246.222 330.838 C 246.794 331.040,246.829 331.014,246.400 330.706 C 245.991 330.411,245.978 330.321,246.344 330.317 C 246.607 330.314,246.909 330.644,247.016 331.051 C 247.149 331.561,247.415 331.737,247.872 331.617 C 248.236 331.522,248.445 331.589,248.335 331.766 C 248.225 331.944,248.368 332.089,248.652 332.089 C 248.936 332.089,249.267 332.345,249.387 332.659 C 249.512 332.985,249.834 333.142,250.136 333.026 C 250.428 332.914,250.667 332.977,250.667 333.167 C 250.667 333.356,250.907 333.511,251.200 333.511 C 251.493 333.511,251.733 333.671,251.733 333.867 C 251.733 334.062,252.053 334.222,252.444 334.222 C 252.836 334.222,253.156 334.382,253.156 334.578 C 253.156 334.773,253.399 334.933,253.695 334.933 C 254.497 334.933,257.813 336.744,258.025 337.298 C 258.127 337.562,258.512 337.778,258.882 337.778 C 259.253 337.778,259.556 337.938,259.556 338.133 C 259.556 338.329,259.885 338.489,260.288 338.489 C 260.690 338.489,260.941 338.616,260.846 338.771 C 260.750 338.926,261.018 339.078,261.442 339.110 C 261.865 339.142,262.267 339.336,262.335 339.540 C 262.404 339.744,262.775 339.911,263.162 339.911 C 263.548 339.911,263.765 340.071,263.645 340.266 C 263.518 340.471,263.773 340.584,264.246 340.533 C 264.747 340.479,265.032 340.617,264.978 340.889 C 264.929 341.133,265.209 341.333,265.600 341.333 C 265.991 341.333,266.311 341.503,266.311 341.710 C 266.311 341.917,266.458 341.995,266.638 341.884 C 266.818 341.773,267.218 341.935,267.527 342.244 C 267.836 342.553,268.094 342.675,268.100 342.514 C 268.106 342.354,268.274 342.502,268.473 342.844 C 268.672 343.187,269.083 343.467,269.385 343.467 C 269.687 343.467,270.359 343.759,270.878 344.116 C 271.398 344.473,272.342 344.972,272.978 345.226 C 273.613 345.479,274.133 345.812,274.133 345.965 C 274.133 346.119,274.426 346.168,274.783 346.075 C 275.178 345.971,275.769 346.260,276.294 346.813 C 276.768 347.312,277.498 347.724,277.918 347.727 C 278.337 347.731,278.772 347.973,278.884 348.267 C 278.997 348.560,279.334 348.800,279.633 348.800 C 279.933 348.800,280.178 348.960,280.178 349.156 C 280.178 349.351,280.498 349.511,280.889 349.511 C 281.280 349.511,281.600 349.671,281.600 349.867 C 281.600 350.062,281.842 350.222,282.138 350.222 C 282.758 350.222,284.144 350.944,284.528 351.467 C 284.672 351.662,284.792 351.684,284.795 351.515 C 284.798 351.346,285.194 351.466,285.676 351.781 C 286.158 352.097,286.798 352.356,287.099 352.356 C 287.399 352.356,287.644 352.516,287.644 352.711 C 287.644 352.907,287.884 353.067,288.178 353.067 C 288.471 353.067,288.711 353.227,288.711 353.422 C 288.711 353.618,288.942 353.778,289.224 353.778 C 289.506 353.778,290.310 354.116,291.009 354.528 C 291.709 354.941,292.598 355.196,292.986 355.095 C 293.408 354.984,293.601 355.055,293.467 355.271 C 293.319 355.511,295.646 355.589,300.459 355.505 C 305.823 355.410,307.712 355.264,307.822 354.933 C 307.904 354.689,308.437 354.489,309.007 354.489 C 309.578 354.489,310.044 354.368,310.044 354.220 C 310.044 354.072,310.525 353.738,311.113 353.478 C 311.701 353.218,312.091 352.859,311.981 352.680 C 311.871 352.502,312.199 352.356,312.711 352.356 C 313.241 352.356,313.547 352.202,313.422 352.000 C 313.301 351.804,313.452 351.644,313.757 351.644 C 314.062 351.644,314.311 351.410,314.311 351.124 C 314.311 350.837,314.636 350.429,315.032 350.217 C 315.430 350.004,315.643 349.653,315.507 349.433 C 315.345 349.171,315.470 349.115,315.871 349.269 C 316.207 349.398,316.393 349.360,316.286 349.186 C 316.178 349.012,316.679 348.522,317.400 348.097 C 318.364 347.528,318.584 347.246,318.233 347.029 C 317.864 346.801,317.969 346.538,318.701 345.860 C 319.220 345.379,319.648 344.763,319.652 344.493 C 319.657 344.222,319.973 343.600,320.356 343.111 C 320.738 342.622,321.054 341.860,321.059 341.417 C 321.063 340.975,321.227 340.295,321.422 339.906 C 321.618 339.518,321.938 338.882,322.133 338.494 C 322.584 337.598,322.602 328.790,322.154 328.338 C 321.970 328.152,321.782 327.087,321.738 325.972 C 321.694 324.856,321.524 324.026,321.362 324.126 C 321.200 324.226,321.067 323.259,321.067 321.977 C 321.067 320.659,320.912 319.644,320.711 319.644 C 320.516 319.644,320.356 318.764,320.356 317.689 C 320.356 316.613,320.196 315.733,320.000 315.733 C 319.804 315.733,319.644 314.933,319.644 313.956 C 319.644 312.978,319.484 312.178,319.289 312.178 C 319.091 312.178,318.933 311.230,318.933 310.044 C 318.933 308.385,318.815 307.911,318.400 307.911 C 317.714 307.911,317.632 304.512,318.311 304.231 C 318.580 304.120,318.440 303.952,317.956 303.805 C 317.046 303.528,316.783 300.959,317.582 300.160 C 317.914 299.828,317.914 299.733,317.582 299.733 C 317.297 299.733,317.156 299.018,317.156 297.579 C 317.156 296.233,317.022 295.507,316.800 295.644 C 316.509 295.824,316.210 292.685,316.402 291.467 C 316.425 291.320,316.185 291.200,315.867 291.200 C 315.385 291.200,315.316 290.879,315.452 289.244 C 315.579 287.715,315.504 287.289,315.109 287.289 C 314.715 287.289,314.630 286.819,314.724 285.155 C 314.790 283.981,314.724 283.021,314.578 283.022 C 314.431 283.022,314.311 282.315,314.311 281.451 C 314.311 279.772,314.026 278.670,313.652 278.901 C 313.525 278.979,313.480 278.321,313.550 277.438 C 313.620 276.555,313.505 275.490,313.293 275.072 C 313.081 274.653,312.864 273.671,312.810 272.889 C 312.755 272.107,312.551 271.494,312.356 271.527 C 312.140 271.563,312.048 270.739,312.123 269.435 C 312.193 268.200,312.089 267.187,311.878 267.057 C 311.675 266.931,311.473 265.913,311.427 264.792 C 311.382 263.672,311.212 262.756,311.050 262.756 C 310.888 262.756,310.756 261.866,310.756 260.779 C 310.756 259.681,310.612 258.891,310.432 259.003 C 310.130 259.189,309.999 258.303,309.475 252.533 C 309.364 251.311,309.126 250.311,308.947 250.311 C 308.769 250.311,308.622 249.351,308.622 248.178 C 308.622 246.993,308.464 246.044,308.267 246.044 C 308.071 246.044,307.911 245.164,307.911 244.089 C 307.911 243.013,307.751 242.133,307.556 242.133 C 307.360 242.133,307.200 241.253,307.200 240.178 C 307.200 239.102,307.040 238.222,306.844 238.222 C 306.644 238.222,306.489 237.215,306.489 235.911 C 306.489 234.607,306.334 233.600,306.133 233.600 C 305.938 233.600,305.778 233.048,305.778 232.372 C 305.778 231.697,305.580 230.710,305.338 230.178 C 304.988 229.410,304.988 229.182,305.338 229.065 C 305.580 228.985,305.778 228.682,305.778 228.394 C 305.778 228.105,305.938 227.968,306.133 228.089 C 306.329 228.210,306.489 228.146,306.489 227.947 C 306.489 227.561,309.081 224.711,309.433 224.711 C 309.707 224.711,313.600 220.818,313.600 220.544 C 313.600 220.192,316.450 217.600,316.836 217.600 C 317.035 217.600,317.099 217.440,316.978 217.244 C 316.857 217.049,317.007 216.889,317.312 216.889 C 317.617 216.889,317.867 216.736,317.867 216.549 C 317.867 216.193,318.823 215.178,320.562 213.689 C 321.133 213.200,321.760 212.508,321.956 212.150 C 322.151 211.793,322.441 211.522,322.600 211.548 C 322.928 211.603,325.333 209.066,325.333 208.666 C 325.333 208.521,325.656 208.301,326.050 208.176 C 326.444 208.051,326.674 207.800,326.562 207.619 C 326.450 207.437,326.517 207.289,326.712 207.289 C 327.203 207.289,332.421 201.958,331.943 201.945 C 331.730 201.939,331.876 201.757,332.267 201.540 C 333.234 201.005,334.932 199.165,334.939 198.645 C 334.943 198.341,335.025 198.350,335.231 198.673 C 335.439 199.001,335.648 198.880,335.996 198.229 C 336.260 197.736,336.578 197.333,336.703 197.333 C 337.096 197.333,340.622 193.795,340.622 193.400 C 340.622 193.194,340.764 193.112,340.937 193.219 C 341.111 193.327,341.336 193.096,341.437 192.707 C 341.547 192.287,341.923 192.000,342.364 192.000 C 343.038 192.000,345.244 190.099,345.244 189.518 C 345.244 189.385,345.644 189.062,346.133 188.800 C 346.622 188.538,347.022 188.041,347.022 187.694 C 347.022 187.348,347.207 186.950,347.433 186.810 C 347.707 186.641,347.750 186.722,347.562 187.056 C 347.407 187.331,347.953 186.836,348.776 185.956 C 349.598 185.076,350.380 184.380,350.513 184.410 C 350.647 184.441,350.962 184.241,351.214 183.966 C 351.466 183.691,351.546 183.466,351.392 183.464 C 351.237 183.463,351.564 183.163,352.118 182.798 C 352.672 182.433,353.128 181.994,353.132 181.823 C 353.135 181.651,353.282 181.551,353.458 181.600 C 353.634 181.649,353.778 181.534,353.778 181.346 C 353.778 180.898,358.676 176.000,359.123 176.000 C 359.312 176.000,359.427 175.856,359.378 175.680 C 359.329 175.504,359.429 175.357,359.600 175.354 C 359.772 175.350,360.211 174.894,360.576 174.340 C 360.941 173.787,361.241 173.460,361.242 173.614 C 361.243 173.768,361.469 173.688,361.744 173.436 C 362.018 173.184,362.218 172.869,362.188 172.736 C 362.158 172.603,362.853 171.821,363.733 170.998 C 364.613 170.176,365.109 169.629,364.834 169.784 C 364.500 169.972,364.419 169.929,364.588 169.655 C 364.728 169.429,365.125 169.244,365.472 169.244 C 365.819 169.244,366.316 168.844,366.578 168.356 C 366.839 167.867,367.177 167.467,367.327 167.467 C 367.645 167.467,372.742 162.265,372.919 161.760 C 372.984 161.574,373.195 161.422,373.388 161.422 C 373.819 161.422,374.756 160.519,374.756 160.104 C 374.756 159.713,376.081 158.578,376.537 158.578 C 376.731 158.578,376.849 158.454,376.800 158.304 C 376.751 158.153,377.311 157.446,378.044 156.733 C 378.826 155.974,379.380 155.094,379.383 154.607 C 379.387 154.009,379.474 153.912,379.693 154.258 C 379.920 154.616,380.122 154.457,380.486 153.636 C 380.754 153.029,381.095 152.533,381.242 152.533 C 381.390 152.533,381.511 152.213,381.511 151.822 C 381.511 151.431,381.671 151.111,381.867 151.111 C 382.062 151.111,382.222 150.801,382.222 150.421 C 382.222 150.041,382.382 149.632,382.578 149.511 C 382.773 149.390,382.933 148.901,382.933 148.423 C 382.933 147.946,383.093 147.556,383.289 147.556 C 383.484 147.556,383.644 146.756,383.644 145.778 C 383.644 144.772,383.807 144.000,384.018 144.000 C 384.256 144.000,384.368 142.896,384.325 140.978 C 384.289 139.316,384.121 137.956,383.952 137.956 C 383.783 137.956,383.644 137.245,383.644 136.377 C 383.644 135.508,383.484 134.699,383.289 134.578 C 383.093 134.457,382.933 133.878,382.933 133.291 C 382.933 132.671,382.785 132.317,382.578 132.444 C 382.375 132.570,382.222 132.263,382.222 131.733 C 382.222 131.203,382.069 130.897,381.867 131.022 C 381.671 131.143,381.511 130.913,381.511 130.510 C 381.511 130.107,381.351 129.778,381.156 129.778 C 380.960 129.778,380.798 129.338,380.795 128.800 C 380.790 128.038,380.713 127.940,380.444 128.356 C 380.167 128.785,380.099 128.728,380.094 128.068 C 380.091 127.616,379.953 127.331,379.787 127.434 C 379.621 127.536,379.263 127.186,378.992 126.655 C 378.721 126.123,378.097 125.298,377.605 124.820 C 377.113 124.342,376.751 123.822,376.800 123.664 C 376.849 123.507,376.592 123.378,376.229 123.378 C 375.867 123.378,375.139 122.858,374.612 122.222 C 374.086 121.587,373.583 121.107,373.494 121.156 C 373.002 121.427,372.258 121.191,372.478 120.834 C 372.619 120.606,372.577 120.519,372.385 120.638 C 372.194 120.756,371.646 120.649,371.167 120.401 C 370.688 120.152,369.539 119.725,368.615 119.452 C 367.690 119.179,366.933 118.845,366.933 118.710 C 366.933 118.574,365.973 118.489,364.800 118.521 C 363.299 118.561,362.666 118.446,362.666 118.133 C 362.667 117.820,361.928 117.689,360.157 117.689 C 358.574 117.689,357.728 117.558,357.867 117.333 C 358.005 117.109,357.159 116.978,355.577 116.978 C 354.140 116.978,353.067 116.826,353.067 116.622 C 353.067 116.425,352.126 116.267,350.954 116.267 C 349.793 116.267,348.743 116.107,348.622 115.911 C 348.501 115.716,347.362 115.556,346.091 115.556 C 344.641 115.556,343.862 115.423,344.000 115.200 C 344.139 114.976,343.293 114.844,341.710 114.844 C 340.274 114.844,339.200 114.692,339.200 114.489 C 339.200 114.286,338.133 114.133,336.711 114.133 C 335.289 114.133,334.222 113.981,334.222 113.778 C 334.222 113.575,333.156 113.422,331.733 113.422 C 330.364 113.422,329.244 113.276,329.244 113.098 C 329.244 112.794,328.199 112.646,322.489 112.137 C 321.218 112.024,320.098 111.805,320.000 111.651 C 319.902 111.497,317.822 111.255,315.378 111.113 C 312.933 110.971,310.880 110.713,310.815 110.539 C 310.750 110.365,309.759 110.222,308.614 110.222 C 307.468 110.222,306.432 110.062,306.311 109.867 C 306.190 109.671,305.150 109.511,304.000 109.511 C 302.850 109.511,301.810 109.351,301.689 109.156 C 301.568 108.960,300.439 108.800,299.179 108.800 C 297.889 108.800,296.889 108.645,296.889 108.444 C 296.889 108.241,295.822 108.089,294.400 108.089 C 292.978 108.089,291.911 107.937,291.911 107.733 C 291.911 107.533,290.904 107.378,289.600 107.378 C 288.296 107.378,287.289 107.223,287.289 107.022 C 287.289 106.825,286.348 106.667,285.177 106.667 C 284.015 106.667,282.965 106.507,282.844 106.311 C 282.724 106.116,281.594 105.956,280.335 105.956 C 279.075 105.956,278.044 105.822,278.044 105.658 C 278.044 105.495,277.056 105.325,275.849 105.282 C 274.641 105.238,273.372 105.052,273.028 104.868 C 272.684 104.684,271.512 104.533,270.423 104.533 C 269.335 104.533,268.444 104.405,268.444 104.249 C 268.444 104.093,267.890 104.030,267.212 104.109 C 265.820 104.271,264.889 103.597,264.889 102.425 C 264.889 102.020,264.729 101.689,264.533 101.689 C 264.338 101.689,264.178 101.449,264.178 101.156 C 264.178 100.862,264.018 100.622,263.822 100.622 C 263.627 100.622,263.467 100.213,263.467 99.712 C 263.467 99.196,263.313 98.898,263.111 99.022 C 262.916 99.143,262.756 98.906,262.756 98.495 C 262.756 98.084,262.436 97.405,262.044 96.985 C 261.653 96.565,261.333 95.932,261.333 95.577 C 261.333 95.223,261.213 94.932,261.067 94.931 C 260.747 94.927,259.911 93.205,259.911 92.551 C 259.911 92.297,259.751 92.089,259.556 92.089 C 259.360 92.089,259.200 91.849,259.200 91.556 C 259.200 91.262,259.045 91.022,258.856 91.022 C 258.666 91.022,258.612 90.759,258.736 90.437 C 258.871 90.085,258.711 89.671,258.333 89.394 C 257.989 89.142,257.802 88.782,257.918 88.594 C 258.034 88.406,257.879 88.156,257.573 88.039 C 257.205 87.897,257.094 87.586,257.244 87.113 C 257.374 86.703,257.309 86.400,257.091 86.400 C 256.882 86.400,256.709 86.040,256.706 85.600 C 256.701 84.953,256.634 84.902,256.356 85.333 C 256.086 85.751,256.010 85.661,256.005 84.919 C 256.002 84.397,255.880 83.917,255.733 83.852 C 255.420 83.713,253.864 80.681,253.866 80.213 C 253.868 79.592,252.001 76.089,251.668 76.089 C 251.482 76.089,251.431 75.769,251.556 75.378 C 251.685 74.970,251.619 74.667,251.402 74.667 C 251.193 74.667,251.022 74.415,251.022 74.108 C 251.022 73.801,250.781 73.308,250.486 73.013 C 250.190 72.717,250.040 72.329,250.151 72.149 C 250.262 71.969,250.223 71.822,250.063 71.822 C 249.738 71.822,248.686 69.659,248.810 69.244 C 248.853 69.098,248.759 68.978,248.600 68.978 C 248.441 68.978,248.091 68.418,247.822 67.733 C 247.554 67.049,247.204 66.489,247.045 66.489 C 246.886 66.489,246.756 66.169,246.756 65.778 C 246.756 65.387,246.596 65.067,246.400 65.067 C 246.204 65.067,246.044 64.747,246.044 64.356 C 246.044 63.964,245.924 63.644,245.776 63.644 C 245.628 63.644,245.292 63.124,245.029 62.489 C 244.765 61.853,244.187 60.533,243.743 59.556 C 243.299 58.578,242.840 57.498,242.724 57.156 C 242.607 56.813,242.266 56.533,241.967 56.533 C 241.667 56.533,241.422 56.373,241.422 56.178 C 241.422 55.982,241.582 55.822,241.778 55.822 C 241.973 55.822,242.133 55.645,242.133 55.429 C 242.133 55.212,241.933 55.112,241.688 55.206 C 241.390 55.320,241.243 55.010,241.244 54.266 C 241.244 53.532,241.085 53.189,240.774 53.253 C 240.515 53.307,240.398 53.197,240.514 53.010 C 240.630 52.822,240.402 52.093,240.007 51.390 C 239.612 50.687,239.289 49.877,239.289 49.589 C 239.289 49.302,239.129 49.067,238.933 49.067 C 238.738 49.067,238.578 48.760,238.578 48.385 C 238.578 48.010,238.458 47.650,238.311 47.585 C 237.927 47.414,236.444 44.470,236.444 43.878 C 236.444 43.603,236.324 43.377,236.178 43.375 C 235.858 43.372,235.022 41.650,235.022 40.996 C 235.022 40.741,234.862 40.533,234.667 40.533 C 234.471 40.533,234.311 40.213,234.311 39.822 C 234.311 39.431,234.151 39.111,233.956 39.111 C 233.760 39.111,233.600 38.782,233.600 38.379 C 233.600 37.976,233.440 37.746,233.244 37.867 C 233.049 37.988,232.889 37.757,232.889 37.354 C 232.889 36.952,232.769 36.621,232.622 36.619 C 232.303 36.616,231.467 34.894,231.467 34.240 C 231.467 33.986,231.307 33.778,231.111 33.778 C 230.916 33.778,230.756 33.458,230.756 33.067 C 230.756 32.676,230.596 32.356,230.400 32.356 C 230.204 32.356,230.044 32.036,230.044 31.644 C 230.044 31.225,229.807 30.933,229.467 30.933 C 229.014 30.933,228.935 30.702,229.102 29.867 C 229.262 29.067,229.184 28.800,228.791 28.800 C 228.503 28.800,228.267 28.640,228.267 28.444 C 228.267 28.249,228.430 28.089,228.630 28.089 C 228.830 28.089,228.732 27.689,228.412 27.200 C 228.091 26.711,227.939 26.311,228.073 26.311 C 228.208 26.311,228.065 26.058,227.755 25.749 C 227.446 25.440,227.284 25.040,227.395 24.860 C 227.507 24.680,227.365 24.533,227.081 24.533 C 226.797 24.533,226.470 24.285,226.353 23.982 C 226.214 23.618,226.292 23.506,226.582 23.652 C 226.824 23.775,226.726 23.634,226.364 23.339 C 226.003 23.044,225.812 22.632,225.941 22.424 C 226.070 22.215,226.046 22.043,225.888 22.042 C 225.595 22.039,224.711 20.373,224.711 19.825 C 224.711 19.661,224.391 19.182,224.000 18.763 C 223.609 18.343,223.289 17.709,223.289 17.355 C 223.289 17.001,223.129 16.711,222.933 16.711 C 222.738 16.711,222.578 16.311,222.578 15.822 C 222.578 15.333,222.457 14.933,222.310 14.933 C 222.163 14.933,221.483 13.737,220.799 12.274 C 220.115 10.812,219.436 9.612,219.289 9.607 C 219.142 9.603,219.022 9.360,219.022 9.067 C 219.022 8.773,218.862 8.533,218.667 8.533 C 218.471 8.533,218.311 8.284,218.311 7.979 C 218.311 7.674,218.151 7.524,217.956 7.644 C 217.760 7.765,217.600 7.689,217.600 7.476 C 217.600 6.971,215.252 4.622,214.746 4.622 C 214.533 4.622,214.457 4.462,214.578 4.267 C 214.699 4.071,214.548 3.911,214.243 3.911 C 213.938 3.911,213.689 3.751,213.689 3.556 C 213.689 3.360,213.462 3.200,213.185 3.200 C 212.908 3.200,212.628 3.080,212.563 2.933 C 212.498 2.787,211.324 2.108,209.956 1.426 L 207.467 0.185 200.889 0.131 C 197.271 0.101,193.788 0.150,193.149 0.239 M69.606 114.032 C 69.072 114.113,68.112 114.115,67.473 114.035 C 66.834 113.956,67.271 113.890,68.444 113.888 C 69.618 113.886,70.141 113.951,69.606 114.032 M332.717 114.032 C 332.183 114.113,331.223 114.115,330.584 114.035 C 329.945 113.956,330.382 113.890,331.556 113.888 C 332.729 113.886,333.252 113.951,332.717 114.032 " stroke="none" fill="#cc7c34" fill-rule="evenodd"></path><path id="path1" d="M171.118 28.825 C 171.090 29.202,171.216 29.511,171.400 29.511 C 171.805 29.511,171.846 28.556,171.452 28.312 C 171.297 28.217,171.147 28.447,171.118 28.825 M229.215 29.393 C 228.846 29.761,228.936 30.933,229.333 30.933 C 229.529 30.933,229.689 30.533,229.689 30.044 C 229.689 29.114,229.607 29.001,229.215 29.393 M132.716 104.077 C 133.256 104.159,134.056 104.157,134.494 104.073 C 134.931 103.988,134.489 103.921,133.511 103.924 C 132.533 103.927,132.176 103.996,132.716 104.077 M266.226 104.074 C 266.669 104.159,267.309 104.156,267.649 104.067 C 267.989 103.978,267.627 103.908,266.844 103.912 C 266.062 103.916,265.784 103.989,266.226 104.074 M67.473 114.035 C 68.112 114.115,69.072 114.113,69.606 114.032 C 70.141 113.951,69.618 113.886,68.444 113.888 C 67.271 113.890,66.834 113.956,67.473 114.035 M330.584 114.035 C 331.223 114.115,332.183 114.113,332.717 114.032 C 333.252 113.951,332.729 113.886,331.556 113.888 C 330.382 113.890,329.945 113.956,330.584 114.035 M314.777 285.333 C 314.779 286.507,314.845 286.944,314.924 286.305 C 315.003 285.666,315.002 284.706,314.921 284.171 C 314.840 283.637,314.775 284.160,314.777 285.333 M85.042 286.823 C 85.007 287.839,84.818 288.768,84.622 288.889 C 84.427 289.010,84.267 289.867,84.267 290.794 C 84.267 291.721,84.067 292.704,83.822 292.978 C 83.444 293.402,83.471 293.407,84.000 293.006 C 84.437 292.675,84.622 292.040,84.622 290.872 C 84.622 289.957,84.792 289.039,84.999 288.832 C 85.207 288.624,85.316 287.672,85.241 286.716 L 85.106 284.978 85.042 286.823 M315.479 289.600 C 315.482 290.578,315.551 290.936,315.633 290.395 C 315.715 289.855,315.712 289.055,315.628 288.617 C 315.544 288.180,315.477 288.622,315.479 289.600 M317.393 300.326 C 317.014 300.705,317.119 303.644,317.511 303.644 C 317.707 303.644,317.867 302.844,317.867 301.867 C 317.867 300.064,317.817 299.902,317.393 300.326 M82.133 303.665 C 82.133 304.774,82.270 305.380,82.489 305.244 C 82.684 305.124,82.844 304.314,82.844 303.446 C 82.844 302.577,82.684 301.867,82.489 301.867 C 82.293 301.867,82.133 302.676,82.133 303.665 M317.867 306.133 C 317.867 307.111,318.027 307.911,318.222 307.911 C 318.418 307.911,318.578 307.111,318.578 306.133 C 318.578 305.156,318.418 304.356,318.222 304.356 C 318.027 304.356,317.867 305.156,317.867 306.133 M81.366 307.689 C 81.276 309.109,81.359 309.556,81.689 309.429 C 82.202 309.231,82.317 305.778,81.811 305.778 C 81.633 305.778,81.433 306.638,81.366 307.689 M215.467 314.716 C 215.467 314.884,215.867 315.022,216.356 315.022 C 216.844 315.022,217.244 314.961,217.244 314.886 C 217.244 314.811,216.844 314.673,216.356 314.580 C 215.867 314.486,215.467 314.548,215.467 314.716 M177.422 318.116 L 176.533 319.064 177.689 318.388 C 178.324 318.017,178.844 317.588,178.844 317.434 C 178.844 316.912,178.312 317.166,177.422 318.116 M221.156 317.467 C 221.156 317.802,223.364 318.976,223.583 318.757 C 223.878 318.463,223.184 317.831,222.749 317.998 C 222.492 318.097,222.193 317.947,222.085 317.666 C 221.873 317.113,221.156 316.959,221.156 317.467 M245.689 330.696 C 245.267 330.991,245.317 331.024,245.927 330.853 C 246.451 330.706,246.752 330.815,246.868 331.192 C 247.006 331.640,247.028 331.631,246.986 331.148 C 246.920 330.396,246.384 330.210,245.689 330.696 M275.043 346.478 C 275.423 346.765,275.964 347.005,276.246 347.011 C 276.607 347.019,276.554 346.868,276.068 346.500 C 275.688 346.213,275.147 345.973,274.865 345.967 C 274.504 345.959,274.557 346.110,275.043 346.478 " stroke="none" fill="#d07c34" fill-rule="evenodd"></path><path id="path2" d="M171.118 28.825 C 171.090 29.202,171.216 29.511,171.400 29.511 C 171.805 29.511,171.846 28.556,171.452 28.312 C 171.297 28.217,171.147 28.447,171.118 28.825 M229.215 29.393 C 228.846 29.761,228.936 30.933,229.333 30.933 C 229.529 30.933,229.689 30.533,229.689 30.044 C 229.689 29.114,229.607 29.001,229.215 29.393 M132.716 104.077 C 133.256 104.159,134.056 104.157,134.494 104.073 C 134.931 103.988,134.489 103.921,133.511 103.924 C 132.533 103.927,132.176 103.996,132.716 104.077 M266.226 104.074 C 266.669 104.159,267.309 104.156,267.649 104.067 C 267.989 103.978,267.627 103.908,266.844 103.912 C 266.062 103.916,265.784 103.989,266.226 104.074 M67.473 114.035 C 68.112 114.115,69.072 114.113,69.606 114.032 C 70.141 113.951,69.618 113.886,68.444 113.888 C 67.271 113.890,66.834 113.956,67.473 114.035 M330.584 114.035 C 331.223 114.115,332.183 114.113,332.717 114.032 C 333.252 113.951,332.729 113.886,331.556 113.888 C 330.382 113.890,329.945 113.956,330.584 114.035 M314.777 285.333 C 314.779 286.507,314.845 286.944,314.924 286.305 C 315.003 285.666,315.002 284.706,314.921 284.171 C 314.840 283.637,314.775 284.160,314.777 285.333 M85.042 286.823 C 85.007 287.839,84.818 288.768,84.622 288.889 C 84.427 289.010,84.267 289.867,84.267 290.794 C 84.267 291.721,84.067 292.704,83.822 292.978 C 83.444 293.402,83.471 293.407,84.000 293.006 C 84.437 292.675,84.622 292.040,84.622 290.872 C 84.622 289.957,84.792 289.039,84.999 288.832 C 85.207 288.624,85.316 287.672,85.241 286.716 L 85.106 284.978 85.042 286.823 M315.479 289.600 C 315.482 290.578,315.551 290.936,315.633 290.395 C 315.715 289.855,315.712 289.055,315.628 288.617 C 315.544 288.180,315.477 288.622,315.479 289.600 M317.393 300.326 C 317.014 300.705,317.119 303.644,317.511 303.644 C 317.707 303.644,317.867 302.844,317.867 301.867 C 317.867 300.064,317.817 299.902,317.393 300.326 M82.133 303.665 C 82.133 304.774,82.270 305.380,82.489 305.244 C 82.684 305.124,82.844 304.314,82.844 303.446 C 82.844 302.577,82.684 301.867,82.489 301.867 C 82.293 301.867,82.133 302.676,82.133 303.665 M317.867 306.133 C 317.867 307.111,318.027 307.911,318.222 307.911 C 318.418 307.911,318.578 307.111,318.578 306.133 C 318.578 305.156,318.418 304.356,318.222 304.356 C 318.027 304.356,317.867 305.156,317.867 306.133 M81.366 307.689 C 81.276 309.109,81.359 309.556,81.689 309.429 C 82.202 309.231,82.317 305.778,81.811 305.778 C 81.633 305.778,81.433 306.638,81.366 307.689 M215.467 314.716 C 215.467 314.884,215.867 315.022,216.356 315.022 C 216.844 315.022,217.244 314.961,217.244 314.886 C 217.244 314.811,216.844 314.673,216.356 314.580 C 215.867 314.486,215.467 314.548,215.467 314.716 M177.422 318.116 L 176.533 319.064 177.689 318.388 C 178.324 318.017,178.844 317.588,178.844 317.434 C 178.844 316.912,178.312 317.166,177.422 318.116 M221.156 317.467 C 221.156 317.802,223.364 318.976,223.583 318.757 C 223.878 318.463,223.184 317.831,222.749 317.998 C 222.492 318.097,222.193 317.947,222.085 317.666 C 221.873 317.113,221.156 316.959,221.156 317.467 M245.689 330.696 C 245.267 330.991,245.317 331.024,245.927 330.853 C 246.451 330.706,246.752 330.815,246.868 331.192 C 247.006 331.640,247.028 331.631,246.986 331.148 C 246.920 330.396,246.384 330.210,245.689 330.696 M275.043 346.478 C 275.423 346.765,275.964 347.005,276.246 347.011 C 276.607 347.019,276.554 346.868,276.068 346.500 C 275.688 346.213,275.147 345.973,274.865 345.967 C 274.504 345.959,274.557 346.110,275.043 346.478 " stroke="none" fill="#d07c34" fill-rule="evenodd"></path><path id="path3" d="M171.118 28.825 C 171.090 29.202,171.216 29.511,171.400 29.511 C 171.805 29.511,171.846 28.556,171.452 28.312 C 171.297 28.217,171.147 28.447,171.118 28.825 M229.215 29.393 C 228.846 29.761,228.936 30.933,229.333 30.933 C 229.529 30.933,229.689 30.533,229.689 30.044 C 229.689 29.114,229.607 29.001,229.215 29.393 M132.716 104.077 C 133.256 104.159,134.056 104.157,134.494 104.073 C 134.931 103.988,134.489 103.921,133.511 103.924 C 132.533 103.927,132.176 103.996,132.716 104.077 M266.226 104.074 C 266.669 104.159,267.309 104.156,267.649 104.067 C 267.989 103.978,267.627 103.908,266.844 103.912 C 266.062 103.916,265.784 103.989,266.226 104.074 M67.473 114.035 C 68.112 114.115,69.072 114.113,69.606 114.032 C 70.141 113.951,69.618 113.886,68.444 113.888 C 67.271 113.890,66.834 113.956,67.473 114.035 M330.584 114.035 C 331.223 114.115,332.183 114.113,332.717 114.032 C 333.252 113.951,332.729 113.886,331.556 113.888 C 330.382 113.890,329.945 113.956,330.584 114.035 M314.777 285.333 C 314.779 286.507,314.845 286.944,314.924 286.305 C 315.003 285.666,315.002 284.706,314.921 284.171 C 314.840 283.637,314.775 284.160,314.777 285.333 M85.042 286.823 C 85.007 287.839,84.818 288.768,84.622 288.889 C 84.427 289.010,84.267 289.867,84.267 290.794 C 84.267 291.721,84.067 292.704,83.822 292.978 C 83.444 293.402,83.471 293.407,84.000 293.006 C 84.437 292.675,84.622 292.040,84.622 290.872 C 84.622 289.957,84.792 289.039,84.999 288.832 C 85.207 288.624,85.316 287.672,85.241 286.716 L 85.106 284.978 85.042 286.823 M315.479 289.600 C 315.482 290.578,315.551 290.936,315.633 290.395 C 315.715 289.855,315.712 289.055,315.628 288.617 C 315.544 288.180,315.477 288.622,315.479 289.600 M317.393 300.326 C 317.014 300.705,317.119 303.644,317.511 303.644 C 317.707 303.644,317.867 302.844,317.867 301.867 C 317.867 300.064,317.817 299.902,317.393 300.326 M82.133 303.665 C 82.133 304.774,82.270 305.380,82.489 305.244 C 82.684 305.124,82.844 304.314,82.844 303.446 C 82.844 302.577,82.684 301.867,82.489 301.867 C 82.293 301.867,82.133 302.676,82.133 303.665 M317.867 306.133 C 317.867 307.111,318.027 307.911,318.222 307.911 C 318.418 307.911,318.578 307.111,318.578 306.133 C 318.578 305.156,318.418 304.356,318.222 304.356 C 318.027 304.356,317.867 305.156,317.867 306.133 M81.366 307.689 C 81.276 309.109,81.359 309.556,81.689 309.429 C 82.202 309.231,82.317 305.778,81.811 305.778 C 81.633 305.778,81.433 306.638,81.366 307.689 M215.467 314.716 C 215.467 314.884,215.867 315.022,216.356 315.022 C 216.844 315.022,217.244 314.961,217.244 314.886 C 217.244 314.811,216.844 314.673,216.356 314.580 C 215.867 314.486,215.467 314.548,215.467 314.716 M177.422 318.116 L 176.533 319.064 177.689 318.388 C 178.324 318.017,178.844 317.588,178.844 317.434 C 178.844 316.912,178.312 317.166,177.422 318.116 M221.156 317.467 C 221.156 317.802,223.364 318.976,223.583 318.757 C 223.878 318.463,223.184 317.831,222.749 317.998 C 222.492 318.097,222.193 317.947,222.085 317.666 C 221.873 317.113,221.156 316.959,221.156 317.467 M245.689 330.696 C 245.267 330.991,245.317 331.024,245.927 330.853 C 246.451 330.706,246.752 330.815,246.868 331.192 C 247.006 331.640,247.028 331.631,246.986 331.148 C 246.920 330.396,246.384 330.210,245.689 330.696 M275.043 346.478 C 275.423 346.765,275.964 347.005,276.246 347.011 C 276.607 347.019,276.554 346.868,276.068 346.500 C 275.688 346.213,275.147 345.973,274.865 345.967 C 274.504 345.959,274.557 346.110,275.043 346.478 " stroke="none" fill="#d07c34" fill-rule="evenodd"></path><path id="path4" d="M171.118 28.825 C 171.090 29.202,171.216 29.511,171.400 29.511 C 171.805 29.511,171.846 28.556,171.452 28.312 C 171.297 28.217,171.147 28.447,171.118 28.825 M229.215 29.393 C 228.846 29.761,228.936 30.933,229.333 30.933 C 229.529 30.933,229.689 30.533,229.689 30.044 C 229.689 29.114,229.607 29.001,229.215 29.393 M132.716 104.077 C 133.256 104.159,134.056 104.157,134.494 104.073 C 134.931 103.988,134.489 103.921,133.511 103.924 C 132.533 103.927,132.176 103.996,132.716 104.077 M266.226 104.074 C 266.669 104.159,267.309 104.156,267.649 104.067 C 267.989 103.978,267.627 103.908,266.844 103.912 C 266.062 103.916,265.784 103.989,266.226 104.074 M67.473 114.035 C 68.112 114.115,69.072 114.113,69.606 114.032 C 70.141 113.951,69.618 113.886,68.444 113.888 C 67.271 113.890,66.834 113.956,67.473 114.035 M330.584 114.035 C 331.223 114.115,332.183 114.113,332.717 114.032 C 333.252 113.951,332.729 113.886,331.556 113.888 C 330.382 113.890,329.945 113.956,330.584 114.035 M314.777 285.333 C 314.779 286.507,314.845 286.944,314.924 286.305 C 315.003 285.666,315.002 284.706,314.921 284.171 C 314.840 283.637,314.775 284.160,314.777 285.333 M85.042 286.823 C 85.007 287.839,84.818 288.768,84.622 288.889 C 84.427 289.010,84.267 289.867,84.267 290.794 C 84.267 291.721,84.067 292.704,83.822 292.978 C 83.444 293.402,83.471 293.407,84.000 293.006 C 84.437 292.675,84.622 292.040,84.622 290.872 C 84.622 289.957,84.792 289.039,84.999 288.832 C 85.207 288.624,85.316 287.672,85.241 286.716 L 85.106 284.978 85.042 286.823 M315.479 289.600 C 315.482 290.578,315.551 290.936,315.633 290.395 C 315.715 289.855,315.712 289.055,315.628 288.617 C 315.544 288.180,315.477 288.622,315.479 289.600 M317.393 300.326 C 317.014 300.705,317.119 303.644,317.511 303.644 C 317.707 303.644,317.867 302.844,317.867 301.867 C 317.867 300.064,317.817 299.902,317.393 300.326 M82.133 303.665 C 82.133 304.774,82.270 305.380,82.489 305.244 C 82.684 305.124,82.844 304.314,82.844 303.446 C 82.844 302.577,82.684 301.867,82.489 301.867 C 82.293 301.867,82.133 302.676,82.133 303.665 M317.867 306.133 C 317.867 307.111,318.027 307.911,318.222 307.911 C 318.418 307.911,318.578 307.111,318.578 306.133 C 318.578 305.156,318.418 304.356,318.222 304.356 C 318.027 304.356,317.867 305.156,317.867 306.133 M81.366 307.689 C 81.276 309.109,81.359 309.556,81.689 309.429 C 82.202 309.231,82.317 305.778,81.811 305.778 C 81.633 305.778,81.433 306.638,81.366 307.689 M215.467 314.716 C 215.467 314.884,215.867 315.022,216.356 315.022 C 216.844 315.022,217.244 314.961,217.244 314.886 C 217.244 314.811,216.844 314.673,216.356 314.580 C 215.867 314.486,215.467 314.548,215.467 314.716 M177.422 318.116 L 176.533 319.064 177.689 318.388 C 178.324 318.017,178.844 317.588,178.844 317.434 C 178.844 316.912,178.312 317.166,177.422 318.116 M221.156 317.467 C 221.156 317.802,223.364 318.976,223.583 318.757 C 223.878 318.463,223.184 317.831,222.749 317.998 C 222.492 318.097,222.193 317.947,222.085 317.666 C 221.873 317.113,221.156 316.959,221.156 317.467 M245.689 330.696 C 245.267 330.991,245.317 331.024,245.927 330.853 C 246.451 330.706,246.752 330.815,246.868 331.192 C 247.006 331.640,247.028 331.631,246.986 331.148 C 246.920 330.396,246.384 330.210,245.689 330.696 M275.043 346.478 C 275.423 346.765,275.964 347.005,276.246 347.011 C 276.607 347.019,276.554 346.868,276.068 346.500 C 275.688 346.213,275.147 345.973,274.865 345.967 C 274.504 345.959,274.557 346.110,275.043 346.478 " stroke="none" fill="#d07c34" fill-rule="evenodd"></path></g></svg>