<svg id="svg" version="1.1" xmlns="http://www.w3.org/2000/svg" xmlns:xlink="http://www.w3.org/1999/xlink" width="400" height="457.14285714285717" viewBox="0, 0, 400,457.14285714285717"><g id="svgg"><path id="path0" d="M106.292 0.271 C 105.462 0.369,104.888 0.618,105.015 0.825 C 105.143 1.031,104.871 1.200,104.411 1.200 C 103.951 1.200,103.471 1.470,103.345 1.800 C 103.218 2.130,102.768 2.400,102.344 2.400 C 101.541 2.400,98.800 4.865,98.800 5.587 C 98.800 5.814,98.620 6.000,98.399 6.000 C 97.752 6.000,95.200 8.905,95.200 9.641 C 95.200 10.011,94.930 10.418,94.600 10.545 C 94.270 10.671,94.000 11.051,94.000 11.387 C 94.000 11.724,93.820 12.000,93.600 12.000 C 93.380 12.000,93.200 12.630,93.200 13.400 C 93.200 14.170,93.020 14.800,92.800 14.800 C 92.538 14.800,92.400 22.067,92.400 35.800 L 92.400 56.800 69.200 56.800 C 54.000 56.800,46.000 56.938,46.000 57.200 C 46.000 57.420,45.190 57.600,44.200 57.600 C 43.210 57.600,42.400 57.780,42.400 58.000 C 42.400 58.220,41.590 58.400,40.600 58.400 C 39.211 58.400,38.800 58.547,38.800 59.045 C 38.800 59.565,38.529 59.638,37.394 59.425 C 36.360 59.231,36.015 59.296,36.094 59.671 C 36.152 59.952,35.795 60.243,35.300 60.318 C 34.805 60.394,34.400 60.623,34.400 60.828 C 34.400 61.033,33.939 61.200,33.376 61.200 C 32.796 61.200,32.460 61.373,32.600 61.600 C 32.740 61.827,32.404 62.000,31.824 62.000 C 31.261 62.000,30.800 62.180,30.800 62.400 C 30.800 62.620,30.524 62.800,30.187 62.800 C 29.851 62.800,29.466 63.085,29.332 63.432 C 29.183 63.821,28.793 63.987,28.320 63.863 C 27.872 63.746,27.460 63.899,27.333 64.231 C 27.213 64.544,26.813 64.800,26.446 64.800 C 26.078 64.800,25.517 65.160,25.200 65.600 C 24.883 66.040,24.213 66.400,23.712 66.400 C 23.153 66.400,22.800 66.641,22.800 67.024 C 22.800 67.367,22.620 67.536,22.400 67.400 C 22.180 67.264,22.000 67.413,22.000 67.731 C 22.000 68.049,21.385 68.601,20.633 68.958 C 19.881 69.314,18.813 70.145,18.259 70.803 C 17.705 71.461,17.165 72.000,17.060 72.000 C 16.667 72.000,14.000 74.803,14.000 75.217 C 14.000 75.453,13.852 75.556,13.671 75.444 C 13.269 75.195,12.000 76.616,12.000 77.316 C 12.000 77.595,11.640 78.083,11.200 78.400 C 10.760 78.717,10.400 79.124,10.400 79.305 C 10.400 79.661,9.904 80.328,8.500 81.856 C 8.005 82.395,7.600 83.188,7.600 83.618 C 7.600 84.048,7.420 84.400,7.200 84.400 C 6.980 84.400,6.800 84.749,6.800 85.176 C 6.800 85.603,6.620 86.064,6.400 86.200 C 6.180 86.336,6.000 86.777,6.000 87.181 C 6.000 87.584,5.730 88.018,5.400 88.145 C 5.070 88.271,4.800 88.651,4.800 88.987 C 4.800 89.324,4.620 89.600,4.400 89.600 C 4.180 89.600,4.000 90.050,4.000 90.600 C 4.000 91.150,3.820 91.600,3.600 91.600 C 3.380 91.600,3.200 91.949,3.200 92.376 C 3.200 92.803,3.020 93.264,2.800 93.400 C 2.580 93.536,2.400 94.099,2.400 94.652 C 2.400 95.205,2.130 95.927,1.800 96.257 C 1.470 96.587,1.200 97.438,1.200 98.149 C 1.200 98.859,0.975 99.665,0.700 99.940 C -0.036 100.676,-0.036 414.055,0.700 414.300 C 0.999 414.400,1.200 415.176,1.200 416.233 C 1.200 417.537,1.357 418.000,1.800 418.000 C 2.221 418.000,2.400 418.425,2.400 419.424 C 2.400 420.271,2.562 420.747,2.800 420.600 C 3.027 420.460,3.200 420.796,3.200 421.376 C 3.200 421.939,3.380 422.400,3.600 422.400 C 3.820 422.400,4.000 422.760,4.000 423.200 C 4.000 423.640,4.180 424.000,4.400 424.000 C 4.620 424.000,4.800 424.366,4.800 424.813 C 4.800 425.259,5.070 425.729,5.400 425.855 C 5.730 425.982,6.000 426.416,6.000 426.819 C 6.000 427.223,6.180 427.664,6.400 427.800 C 6.620 427.936,6.800 428.397,6.800 428.824 C 6.800 429.251,6.980 429.600,7.200 429.600 C 7.420 429.600,7.600 429.960,7.600 430.400 C 7.600 430.840,7.750 431.200,7.932 431.200 C 8.115 431.200,8.519 431.695,8.830 432.300 C 9.140 432.905,9.981 434.003,10.697 434.740 C 11.414 435.477,12.000 436.392,12.000 436.772 C 12.000 437.153,12.430 437.695,12.956 437.976 C 13.482 438.258,14.139 438.912,14.416 439.430 C 14.694 439.949,15.073 440.278,15.260 440.163 C 15.447 440.047,15.600 440.156,15.600 440.405 C 15.600 440.904,16.579 442.000,17.025 442.000 C 17.378 442.000,19.199 444.093,19.200 444.500 C 19.200 444.665,19.560 444.800,20.000 444.800 C 20.440 444.800,20.800 444.980,20.800 445.200 C 20.800 445.420,21.030 445.600,21.312 445.600 C 21.593 445.600,22.083 445.960,22.400 446.400 C 22.717 446.840,23.215 447.200,23.507 447.200 C 23.799 447.200,24.455 447.650,24.965 448.200 C 25.475 448.750,26.186 449.200,26.546 449.200 C 26.906 449.200,27.200 449.380,27.200 449.600 C 27.200 449.820,27.650 450.000,28.200 450.000 C 28.750 450.000,29.200 450.180,29.200 450.400 C 29.200 450.620,29.541 450.800,29.957 450.800 C 30.374 450.800,30.818 451.070,30.945 451.400 C 31.071 451.730,31.551 452.000,32.011 452.000 C 32.471 452.000,32.736 452.180,32.600 452.400 C 32.460 452.626,32.788 452.800,33.353 452.800 C 33.903 452.800,34.464 452.980,34.600 453.200 C 34.736 453.420,35.207 453.600,35.647 453.600 C 36.087 453.600,36.336 453.780,36.200 454.000 C 36.053 454.237,36.515 454.400,37.334 454.400 C 38.192 454.400,38.802 454.627,38.945 455.000 C 39.094 455.389,39.714 455.600,40.707 455.600 C 41.550 455.600,42.465 455.825,42.740 456.100 C 43.138 456.498,75.125 456.600,200.000 456.600 C 324.875 456.600,356.862 456.498,357.260 456.100 C 357.535 455.825,358.450 455.600,359.293 455.600 C 360.286 455.600,360.906 455.389,361.055 455.000 C 361.198 454.627,361.808 454.400,362.666 454.400 C 363.485 454.400,363.947 454.237,363.800 454.000 C 363.664 453.780,363.913 453.600,364.353 453.600 C 364.793 453.600,365.264 453.420,365.400 453.200 C 365.536 452.980,366.097 452.800,366.647 452.800 C 367.212 452.800,367.540 452.626,367.400 452.400 C 367.264 452.180,367.529 452.000,367.989 452.000 C 368.449 452.000,368.929 451.730,369.055 451.400 C 369.182 451.070,369.626 450.800,370.043 450.800 C 370.459 450.800,370.800 450.620,370.800 450.400 C 370.800 450.180,371.250 450.000,371.800 450.000 C 372.350 450.000,372.800 449.820,372.800 449.600 C 372.800 449.380,373.094 449.200,373.454 449.200 C 373.814 449.200,374.525 448.750,375.035 448.200 C 375.545 447.650,376.201 447.200,376.493 447.200 C 376.785 447.200,377.283 446.840,377.600 446.400 C 377.917 445.960,378.407 445.600,378.688 445.600 C 378.970 445.600,379.200 445.420,379.200 445.200 C 379.200 444.980,379.560 444.800,380.000 444.800 C 380.440 444.800,380.800 444.665,380.800 444.500 C 380.801 444.093,382.622 442.000,382.975 442.000 C 383.421 442.000,384.400 440.904,384.400 440.405 C 384.400 440.156,384.553 440.047,384.740 440.163 C 384.927 440.278,385.306 439.949,385.584 439.430 C 385.861 438.912,386.518 438.258,387.044 437.976 C 387.570 437.695,388.000 437.153,388.000 436.772 C 388.000 436.392,388.586 435.477,389.303 434.740 C 390.019 434.003,390.860 432.905,391.170 432.300 C 391.481 431.695,391.885 431.200,392.068 431.200 C 392.250 431.200,392.400 430.840,392.400 430.400 C 392.400 429.960,392.580 429.600,392.800 429.600 C 393.020 429.600,393.200 429.251,393.200 428.824 C 393.200 428.397,393.380 427.936,393.600 427.800 C 393.820 427.664,394.000 427.223,394.000 426.819 C 394.000 426.416,394.270 425.982,394.600 425.855 C 394.930 425.729,395.200 425.259,395.200 424.813 C 395.200 424.366,395.380 424.000,395.600 424.000 C 395.820 424.000,396.000 423.640,396.000 423.200 C 396.000 422.760,396.180 422.400,396.400 422.400 C 396.620 422.400,396.800 421.939,396.800 421.376 C 396.800 420.796,396.973 420.460,397.200 420.600 C 397.438 420.747,397.600 420.271,397.600 419.424 C 397.600 418.425,397.779 418.000,398.200 418.000 C 398.643 418.000,398.800 417.537,398.800 416.233 C 398.800 415.176,399.001 414.400,399.300 414.300 C 399.699 414.167,399.800 382.408,399.800 257.287 C 399.800 132.343,399.698 100.338,399.300 99.940 C 399.025 99.665,398.800 98.859,398.800 98.149 C 398.800 97.438,398.530 96.587,398.200 96.257 C 397.870 95.927,397.600 95.205,397.600 94.652 C 397.600 94.099,397.420 93.536,397.200 93.400 C 396.980 93.264,396.800 92.803,396.800 92.376 C 396.800 91.949,396.620 91.600,396.400 91.600 C 396.180 91.600,396.000 91.150,396.000 90.600 C 396.000 90.050,395.820 89.600,395.600 89.600 C 395.380 89.600,395.200 89.324,395.200 88.987 C 395.200 88.651,394.930 88.271,394.600 88.145 C 394.270 88.018,394.000 87.584,394.000 87.181 C 394.000 86.777,393.820 86.336,393.600 86.200 C 393.380 86.064,393.200 85.603,393.200 85.176 C 393.200 84.749,393.020 84.400,392.800 84.400 C 392.580 84.400,392.400 84.048,392.400 83.618 C 392.400 83.188,391.995 82.395,391.500 81.856 C 390.096 80.328,389.600 79.661,389.600 79.305 C 389.600 79.124,389.240 78.717,388.800 78.400 C 388.360 78.083,388.000 77.595,388.000 77.316 C 388.000 76.616,386.731 75.195,386.329 75.444 C 386.148 75.556,386.000 75.453,386.000 75.217 C 386.000 74.803,383.333 72.000,382.940 72.000 C 382.835 72.000,382.295 71.461,381.741 70.803 C 381.187 70.145,380.119 69.314,379.367 68.958 C 378.615 68.601,378.000 68.049,378.000 67.731 C 378.000 67.413,377.820 67.264,377.600 67.400 C 377.380 67.536,377.200 67.367,377.200 67.024 C 377.200 66.641,376.847 66.400,376.288 66.400 C 375.787 66.400,375.117 66.040,374.800 65.600 C 374.483 65.160,373.922 64.800,373.554 64.800 C 373.187 64.800,372.787 64.544,372.667 64.231 C 372.540 63.899,372.128 63.746,371.680 63.863 C 371.207 63.987,370.817 63.821,370.668 63.432 C 370.534 63.085,370.149 62.800,369.813 62.800 C 369.476 62.800,369.200 62.620,369.200 62.400 C 369.200 62.180,368.739 62.000,368.176 62.000 C 367.596 62.000,367.260 61.827,367.400 61.600 C 367.540 61.373,367.204 61.200,366.624 61.200 C 366.061 61.200,365.600 61.033,365.600 60.828 C 365.600 60.623,365.195 60.394,364.700 60.318 C 364.205 60.243,363.848 59.952,363.906 59.671 C 363.985 59.296,363.640 59.231,362.606 59.425 C 361.471 59.638,361.200 59.565,361.200 59.045 C 361.200 58.547,360.789 58.400,359.400 58.400 C 358.410 58.400,357.600 58.220,357.600 58.000 C 357.600 57.780,356.790 57.600,355.800 57.600 C 354.810 57.600,354.000 57.420,354.000 57.200 C 354.000 56.938,346.000 56.800,330.800 56.800 L 307.600 56.800 307.600 35.800 C 307.600 22.067,307.462 14.800,307.200 14.800 C 306.980 14.800,306.800 14.170,306.800 13.400 C 306.800 12.630,306.620 12.000,306.400 12.000 C 306.180 12.000,306.000 11.724,306.000 11.387 C 306.000 11.051,305.730 10.671,305.400 10.545 C 305.070 10.418,304.800 10.011,304.800 9.641 C 304.800 8.905,302.248 6.000,301.601 6.000 C 301.380 6.000,301.200 5.814,301.200 5.587 C 301.200 4.865,298.459 2.400,297.656 2.400 C 297.232 2.400,296.782 2.130,296.655 1.800 C 296.529 1.470,296.049 1.200,295.589 1.200 C 295.129 1.200,294.854 1.035,294.979 0.834 C 295.678 -0.298,278.320 -0.217,276.229 0.921 C 275.584 1.272,274.879 1.449,274.661 1.314 C 274.427 1.169,274.369 1.342,274.519 1.734 C 274.711 2.234,274.550 2.400,273.876 2.400 C 273.381 2.400,272.717 2.760,272.400 3.200 C 272.083 3.640,271.563 4.000,271.245 4.000 C 270.927 4.000,270.773 4.106,270.903 4.236 C 271.032 4.366,270.072 5.548,268.769 6.863 C 267.466 8.178,266.400 9.417,266.400 9.615 C 266.400 9.813,266.040 10.617,265.600 11.400 C 265.160 12.183,264.800 13.269,264.800 13.812 C 264.800 14.355,264.620 14.800,264.400 14.800 C 264.138 14.800,264.000 22.067,264.000 35.800 L 264.000 56.800 200.000 56.800 L 136.000 56.800 136.000 35.800 C 136.000 22.067,135.862 14.800,135.600 14.800 C 135.380 14.800,135.200 14.355,135.200 13.812 C 135.200 13.269,134.840 12.183,134.400 11.400 C 133.960 10.617,133.600 9.813,133.600 9.615 C 133.600 9.417,132.534 8.178,131.231 6.863 C 129.928 5.548,128.968 4.366,129.097 4.236 C 129.227 4.106,129.073 4.000,128.755 4.000 C 128.437 4.000,127.917 3.640,127.600 3.200 C 127.283 2.760,126.619 2.400,126.124 2.400 C 125.450 2.400,125.289 2.234,125.481 1.734 C 125.631 1.342,125.573 1.169,125.339 1.314 C 125.121 1.449,124.416 1.267,123.771 0.910 C 122.600 0.262,110.211 -0.191,106.292 0.271 M114.000 196.200 L 114.000 220.800 78.600 220.800 L 43.200 220.800 43.200 196.200 L 43.200 171.600 78.600 171.600 L 114.000 171.600 114.000 196.200 M242.400 196.200 L 242.400 220.800 200.000 220.800 L 157.600 220.800 157.600 196.200 L 157.600 171.600 200.000 171.600 L 242.400 171.600 242.400 196.200 M356.800 196.200 L 356.800 220.800 321.400 220.800 L 286.000 220.800 286.000 196.200 L 286.000 171.600 321.400 171.600 L 356.800 171.600 356.800 196.200 M114.000 292.600 L 114.000 320.800 78.600 320.800 L 43.200 320.800 43.200 292.600 L 43.200 264.400 78.600 264.400 L 114.000 264.400 114.000 292.600 M242.400 292.600 L 242.400 320.800 200.000 320.800 L 157.600 320.800 157.600 292.600 L 157.600 264.400 200.000 264.400 L 242.400 264.400 242.400 292.600 M356.800 292.600 L 356.800 320.800 321.400 320.800 L 286.000 320.800 286.000 292.600 L 286.000 264.400 321.400 264.400 L 356.800 264.400 356.800 292.600 M114.000 389.000 L 114.000 413.600 85.800 413.600 C 67.267 413.600,57.600 413.463,57.600 413.200 C 57.600 412.980,56.610 412.800,55.400 412.800 C 54.190 412.800,53.200 412.620,53.200 412.400 C 53.200 412.180,52.769 412.000,52.243 412.000 C 51.716 412.000,51.182 411.730,51.055 411.400 C 50.929 411.070,50.627 410.800,50.384 410.800 C 50.141 410.800,49.715 410.575,49.437 410.300 C 49.159 410.025,48.452 409.442,47.866 409.005 C 47.280 408.568,46.800 407.983,46.800 407.705 C 46.800 407.427,46.620 407.200,46.400 407.200 C 46.180 407.200,46.000 406.840,46.000 406.400 C 46.000 405.960,45.820 405.600,45.600 405.600 C 45.380 405.600,45.200 405.259,45.200 404.843 C 45.200 404.426,44.930 403.982,44.600 403.855 C 44.167 403.689,44.000 403.010,44.000 401.413 C 44.000 400.196,43.820 399.200,43.600 399.200 C 43.339 399.200,43.200 393.133,43.200 381.800 L 43.200 364.400 78.600 364.400 L 114.000 364.400 114.000 389.000 M242.400 389.000 L 242.400 413.600 200.000 413.600 L 157.600 413.600 157.600 389.000 L 157.600 364.400 200.000 364.400 L 242.400 364.400 242.400 389.000 M356.800 381.800 C 356.800 393.133,356.661 399.200,356.400 399.200 C 356.180 399.200,356.000 400.196,356.000 401.413 C 356.000 403.010,355.833 403.689,355.400 403.855 C 355.070 403.982,354.800 404.426,354.800 404.843 C 354.800 405.259,354.620 405.600,354.400 405.600 C 354.180 405.600,354.000 405.960,354.000 406.400 C 354.000 406.840,353.820 407.200,353.600 407.200 C 353.380 407.200,353.200 407.427,353.200 407.705 C 353.200 407.983,352.720 408.568,352.134 409.005 C 351.548 409.442,350.841 410.025,350.563 410.300 C 350.285 410.575,349.859 410.800,349.616 410.800 C 349.373 410.800,349.071 411.070,348.945 411.400 C 348.818 411.730,348.284 412.000,347.757 412.000 C 347.231 412.000,346.800 412.180,346.800 412.400 C 346.800 412.620,345.810 412.800,344.600 412.800 C 343.390 412.800,342.400 412.980,342.400 413.200 C 342.400 413.463,332.733 413.600,314.200 413.600 L 286.000 413.600 286.000 389.000 L 286.000 364.400 321.400 364.400 L 356.800 364.400 356.800 381.800 " stroke="none" fill="#4c5c8c" fill-rule="evenodd"></path><path id="path1" d="" stroke="none" fill="#505c8c" fill-rule="evenodd"></path><path id="path2" d="" stroke="none" fill="#505c8c" fill-rule="evenodd"></path><path id="path3" d="" stroke="none" fill="#505c8c" fill-rule="evenodd"></path><path id="path4" d="" stroke="none" fill="#505c8c" fill-rule="evenodd"></path></g></svg>