<svg id="svg" version="1.1" xmlns="http://www.w3.org/2000/svg" xmlns:xlink="http://www.w3.org/1999/xlink" width="400" height="457.14285714285717" viewBox="0, 0, 400,457.14285714285717"><g id="svgg"><path id="path0" d="M301.600 279.030 C 294.328 279.803,288.938 280.864,283.229 282.647 C 282.255 282.951,281.085 283.204,280.629 283.209 C 280.173 283.214,279.350 283.570,278.800 284.000 C 278.250 284.430,277.517 284.786,277.171 284.791 C 276.825 284.796,275.475 285.316,274.171 285.946 C 272.867 286.577,270.990 287.464,270.000 287.917 C 269.010 288.371,266.686 289.655,264.836 290.771 C 262.986 291.887,261.420 292.800,261.355 292.800 C 261.092 292.800,255.727 296.648,254.800 297.501 C 254.250 298.008,253.220 298.822,252.511 299.311 C 251.236 300.190,244.110 307.291,241.785 310.000 C 236.539 316.111,230.167 326.545,227.616 333.200 C 227.321 333.970,226.852 335.140,226.573 335.800 C 224.318 341.137,222.056 351.015,221.140 359.522 C 220.873 362.008,220.507 364.134,220.327 364.245 C 219.674 364.649,219.935 373.600,220.600 373.600 C 220.947 373.600,221.212 373.979,221.228 374.500 C 221.244 374.995,221.415 376.750,221.609 378.400 C 224.922 406.648,242.644 432.124,268.400 445.663 C 271.244 447.158,274.167 448.431,280.200 450.804 C 282.768 451.814,288.206 453.274,292.200 454.027 C 302.452 455.958,315.450 456.093,324.800 454.368 C 330.440 453.327,337.059 451.598,338.495 450.791 C 338.877 450.576,339.516 450.400,339.915 450.400 C 340.314 450.400,340.811 450.252,341.020 450.072 C 341.229 449.891,342.660 449.233,344.200 448.609 C 345.740 447.986,347.171 447.323,347.380 447.138 C 347.589 446.952,348.084 446.800,348.480 446.800 C 348.876 446.800,349.200 446.620,349.200 446.400 C 349.200 446.180,349.365 446.000,349.567 446.000 C 350.162 446.000,357.168 441.897,360.210 439.767 C 374.089 430.049,385.244 416.084,391.337 400.800 C 392.171 398.710,393.021 396.687,393.226 396.305 C 393.432 395.923,393.600 395.259,393.600 394.829 C 393.600 394.399,393.760 393.948,393.956 393.827 C 394.151 393.706,394.403 393.021,394.515 392.304 C 394.627 391.587,395.019 389.920,395.386 388.600 C 396.919 383.086,397.594 377.799,397.863 369.200 C 398.128 360.737,397.399 353.707,395.498 346.400 C 395.069 344.750,394.627 342.813,394.515 342.096 C 394.403 341.379,394.151 340.694,393.956 340.573 C 393.760 340.452,393.600 340.001,393.600 339.571 C 393.600 339.141,393.437 338.477,393.237 338.095 C 393.037 337.713,392.185 335.690,391.344 333.600 C 390.018 330.306,387.843 325.793,385.948 322.400 C 377.338 306.989,360.560 292.479,342.900 285.172 C 342.405 284.968,341.595 284.631,341.100 284.424 C 340.605 284.218,338.580 283.563,336.600 282.969 C 334.620 282.375,332.640 281.753,332.200 281.587 C 331.760 281.420,330.410 281.096,329.200 280.866 C 327.990 280.636,326.010 280.251,324.800 280.011 C 317.544 278.569,309.245 278.218,301.600 279.030 M320.200 301.192 C 322.620 301.625,325.320 302.179,326.200 302.423 C 327.080 302.666,328.297 302.962,328.905 303.079 C 329.513 303.196,330.108 303.451,330.229 303.646 C 330.349 303.841,330.876 304.000,331.400 304.000 C 331.924 304.000,332.464 304.180,332.600 304.400 C 332.736 304.620,333.110 304.800,333.431 304.800 C 338.458 304.800,356.053 317.783,362.159 325.998 C 363.059 327.209,363.908 328.290,364.045 328.400 C 364.296 328.601,366.404 331.959,367.687 334.200 C 368.502 335.625,370.744 340.224,371.246 341.500 C 371.441 341.995,371.766 342.805,371.969 343.300 C 375.790 352.620,377.463 368.407,375.604 377.600 C 374.291 384.095,373.190 388.234,372.040 391.000 C 370.629 394.393,370.338 394.999,367.908 399.600 C 361.874 411.025,350.790 421.520,338.600 427.348 C 333.146 429.956,330.898 430.782,325.800 432.052 C 311.988 435.491,295.692 434.298,283.692 428.967 C 277.726 426.317,269.966 421.779,268.400 420.024 C 268.290 419.901,267.390 419.139,266.400 418.330 C 262.845 415.427,260.919 413.469,256.971 408.749 C 256.039 407.634,252.884 403.056,252.062 401.626 C 250.365 398.672,249.789 397.604,248.920 395.800 C 248.390 394.700,247.787 393.487,247.579 393.105 C 247.370 392.723,247.200 392.084,247.200 391.685 C 247.200 391.286,247.041 390.789,246.847 390.580 C 246.383 390.079,244.631 384.387,244.084 381.600 C 243.846 380.390,243.460 378.441,243.226 377.269 C 242.992 376.098,242.800 371.566,242.800 367.200 C 242.800 362.834,242.992 358.302,243.226 357.131 C 243.460 355.959,243.843 354.010,244.076 352.800 C 245.415 345.849,249.659 336.095,254.305 329.292 C 261.162 319.249,276.455 307.102,284.904 304.988 C 285.511 304.836,286.106 304.551,286.227 304.356 C 286.348 304.160,286.876 304.000,287.400 304.000 C 287.924 304.000,288.464 303.820,288.600 303.600 C 288.736 303.380,289.341 303.200,289.944 303.200 C 290.547 303.200,291.211 303.040,291.420 302.845 C 291.629 302.650,293.780 302.117,296.200 301.660 C 298.620 301.204,300.960 300.755,301.400 300.662 C 303.994 300.114,316.079 300.455,320.200 301.192 M298.667 312.267 C 298.520 312.413,298.400 327.263,298.400 345.267 L 298.400 378.000 331.600 378.000 L 364.800 378.000 364.800 371.768 C 364.800 361.984,363.948 355.823,361.680 349.200 C 360.682 346.285,358.180 341.044,356.635 338.628 C 355.846 337.394,355.200 336.208,355.200 335.992 C 355.200 335.777,355.065 335.600,354.900 335.599 C 354.735 335.599,354.002 334.721,353.271 333.649 C 350.530 329.626,342.292 322.302,337.600 319.714 C 335.476 318.543,332.331 316.967,331.100 316.456 C 330.495 316.205,329.595 315.829,329.100 315.620 C 325.413 314.064,320.181 312.848,315.200 312.389 C 310.682 311.973,299.047 311.887,298.667 312.267 " stroke="none" fill="#fafbfb" fill-rule="evenodd"></path><path id="path1" d="M106.300 0.269 C 105.475 0.367,104.800 0.617,104.800 0.824 C 104.800 1.031,104.440 1.200,104.000 1.200 C 103.556 1.200,103.200 1.467,103.200 1.800 C 103.200 2.137,102.843 2.400,102.387 2.400 C 101.552 2.400,98.800 4.845,98.800 5.587 C 98.800 5.814,98.614 6.000,98.387 6.000 C 97.665 6.000,95.200 8.741,95.200 9.544 C 95.200 9.968,94.930 10.418,94.600 10.545 C 94.270 10.671,94.000 11.051,94.000 11.387 C 94.000 11.724,93.820 12.000,93.600 12.000 C 93.380 12.000,93.200 12.630,93.200 13.400 C 93.200 14.170,93.020 14.800,92.800 14.800 C 92.538 14.800,92.400 22.067,92.400 35.800 L 92.400 56.800 69.200 56.800 C 54.000 56.800,46.000 56.938,46.000 57.200 C 46.000 57.420,45.190 57.600,44.200 57.600 C 43.210 57.600,42.400 57.780,42.400 58.000 C 42.400 58.220,41.590 58.400,40.600 58.400 C 39.610 58.400,38.800 58.580,38.800 58.800 C 38.800 59.020,38.170 59.200,37.400 59.200 C 36.422 59.200,36.000 59.381,36.000 59.800 C 36.000 60.133,35.644 60.400,35.200 60.400 C 34.760 60.400,34.400 60.580,34.400 60.800 C 34.400 61.020,33.950 61.200,33.400 61.200 C 32.850 61.200,32.400 61.380,32.400 61.600 C 32.400 61.820,32.040 62.000,31.600 62.000 C 31.160 62.000,30.800 62.180,30.800 62.400 C 30.800 62.620,30.440 62.800,30.000 62.800 C 29.560 62.800,29.200 62.980,29.200 63.200 C 29.200 63.420,28.834 63.600,28.387 63.600 C 27.941 63.600,27.471 63.870,27.345 64.200 C 27.218 64.530,26.774 64.800,26.357 64.800 C 25.941 64.800,25.600 64.980,25.600 65.200 C 25.600 65.420,25.330 65.600,25.000 65.600 C 24.670 65.600,24.400 65.780,24.400 66.000 C 24.400 66.220,24.117 66.400,23.771 66.400 C 23.053 66.400,22.000 67.334,22.000 67.971 C 22.000 68.207,21.730 68.400,21.400 68.400 C 21.070 68.400,20.800 68.580,20.800 68.800 C 20.800 69.020,20.522 69.200,20.182 69.200 C 19.486 69.200,17.600 70.940,17.600 71.582 C 17.600 71.812,17.418 72.000,17.195 72.000 C 16.586 72.000,12.000 76.665,12.000 77.285 C 12.000 77.581,11.640 78.083,11.200 78.400 C 10.760 78.717,10.400 79.207,10.400 79.488 C 10.400 79.770,10.130 80.000,9.800 80.000 C 9.470 80.000,9.200 80.320,9.200 80.712 C 9.200 81.103,8.840 81.683,8.400 82.000 C 7.960 82.317,7.600 82.987,7.600 83.488 C 7.600 83.990,7.420 84.400,7.200 84.400 C 6.980 84.400,6.800 84.760,6.800 85.200 C 6.800 85.640,6.620 86.000,6.400 86.000 C 6.180 86.000,6.000 86.450,6.000 87.000 C 6.000 87.622,5.773 88.000,5.400 88.000 C 5.067 88.000,4.800 88.356,4.800 88.800 C 4.800 89.240,4.620 89.600,4.400 89.600 C 4.180 89.600,4.000 90.050,4.000 90.600 C 4.000 91.150,3.820 91.600,3.600 91.600 C 3.380 91.600,3.200 91.960,3.200 92.400 C 3.200 92.840,3.020 93.200,2.800 93.200 C 2.580 93.200,2.400 93.830,2.400 94.600 C 2.400 95.578,2.219 96.000,1.800 96.000 C 1.357 96.000,1.200 96.463,1.200 97.767 C 1.200 98.824,0.999 99.600,0.700 99.700 C -0.036 99.945,-0.036 414.055,0.700 414.300 C 0.999 414.400,1.200 415.176,1.200 416.233 C 1.200 417.537,1.357 418.000,1.800 418.000 C 2.219 418.000,2.400 418.422,2.400 419.400 C 2.400 420.170,2.580 420.800,2.800 420.800 C 3.020 420.800,3.200 421.160,3.200 421.600 C 3.200 422.040,3.380 422.400,3.600 422.400 C 3.820 422.400,4.000 422.850,4.000 423.400 C 4.000 423.950,4.180 424.400,4.400 424.400 C 4.620 424.400,4.800 424.760,4.800 425.200 C 4.800 425.644,5.067 426.000,5.400 426.000 C 5.730 426.000,6.000 426.349,6.000 426.776 C 6.000 427.203,6.180 427.664,6.400 427.800 C 6.620 427.936,6.800 428.397,6.800 428.824 C 6.800 429.251,6.980 429.600,7.200 429.600 C 7.420 429.600,7.600 429.960,7.600 430.400 C 7.600 430.840,7.780 431.200,8.000 431.200 C 8.220 431.200,8.400 431.470,8.400 431.800 C 8.400 432.130,8.580 432.400,8.800 432.400 C 9.020 432.400,9.200 432.760,9.200 433.200 C 9.200 433.640,9.393 434.000,9.629 434.000 C 10.182 434.000,11.200 435.018,11.200 435.571 C 11.200 435.807,11.380 436.000,11.600 436.000 C 11.820 436.000,12.000 436.283,12.000 436.629 C 12.000 437.347,12.934 438.400,13.571 438.400 C 13.807 438.400,14.000 438.545,14.000 438.722 C 14.000 439.128,16.613 442.000,16.983 442.000 C 17.330 442.000,18.400 443.057,18.400 443.400 C 18.400 443.893,19.548 444.800,20.171 444.800 C 20.517 444.800,20.800 444.980,20.800 445.200 C 20.800 445.420,20.993 445.600,21.229 445.600 C 21.782 445.600,22.800 446.618,22.800 447.171 C 22.800 447.407,23.160 447.600,23.600 447.600 C 24.040 447.600,24.400 447.780,24.400 448.000 C 24.400 448.220,24.670 448.400,25.000 448.400 C 25.330 448.400,25.600 448.580,25.600 448.800 C 25.600 449.020,25.960 449.200,26.400 449.200 C 26.840 449.200,27.200 449.380,27.200 449.600 C 27.200 449.820,27.650 450.000,28.200 450.000 C 28.750 450.000,29.200 450.180,29.200 450.400 C 29.200 450.620,29.560 450.800,30.000 450.800 C 30.444 450.800,30.800 451.067,30.800 451.400 C 30.800 451.733,31.156 452.000,31.600 452.000 C 32.040 452.000,32.400 452.180,32.400 452.400 C 32.400 452.620,32.850 452.800,33.400 452.800 C 33.950 452.800,34.400 452.980,34.400 453.200 C 34.400 453.420,34.760 453.600,35.200 453.600 C 35.640 453.600,36.000 453.780,36.000 454.000 C 36.000 454.220,36.630 454.400,37.400 454.400 C 38.378 454.400,38.800 454.581,38.800 455.000 C 38.800 455.443,39.263 455.600,40.567 455.600 C 41.624 455.600,42.400 455.801,42.500 456.100 C 42.633 456.498,69.646 456.622,175.406 456.706 C 248.413 456.765,308.009 456.675,307.841 456.506 C 307.672 456.338,305.165 456.077,302.267 455.927 C 294.997 455.550,290.305 454.785,285.654 453.218 C 284.318 452.768,282.870 452.400,282.436 452.400 C 282.002 452.400,281.536 452.220,281.400 452.000 C 281.264 451.780,280.801 451.600,280.371 451.600 C 279.941 451.600,279.187 451.392,278.695 451.138 C 276.884 450.202,276.401 450.000,275.971 450.000 C 275.447 450.000,264.317 444.487,264.011 444.076 C 263.895 443.920,263.113 443.434,262.273 442.996 C 261.433 442.558,260.406 441.885,259.990 441.500 C 259.574 441.115,259.080 440.800,258.892 440.800 C 258.704 440.800,258.202 440.483,257.775 440.097 C 257.349 439.710,256.168 438.765,255.151 437.997 C 248.280 432.806,243.045 427.555,238.205 421.000 C 237.556 420.120,236.704 419.051,236.312 418.625 C 235.920 418.198,235.600 417.696,235.600 417.508 C 235.600 417.320,235.285 416.826,234.900 416.410 C 234.515 415.994,233.848 414.967,233.417 414.127 C 232.986 413.287,232.339 412.150,231.979 411.600 C 230.610 409.508,228.515 405.259,227.049 401.600 C 226.211 399.510,225.363 397.487,225.163 397.105 C 224.963 396.723,224.800 395.958,224.800 395.405 C 224.800 394.852,224.620 394.400,224.400 394.400 C 224.180 394.400,224.000 393.896,224.000 393.280 C 224.000 392.664,223.839 391.989,223.642 391.780 C 223.109 391.214,221.678 384.900,221.252 381.231 C 221.113 380.039,220.775 378.989,220.500 378.898 C 220.105 378.768,220.000 382.399,220.000 396.167 L 220.000 413.600 188.800 413.600 L 157.600 413.600 157.600 389.002 L 157.600 364.405 188.900 364.302 L 220.200 364.200 220.451 360.200 C 220.851 353.813,222.702 343.618,223.642 342.620 C 223.839 342.411,224.000 341.747,224.000 341.144 C 224.000 340.541,224.180 339.936,224.400 339.800 C 224.620 339.664,224.800 339.124,224.800 338.600 C 224.800 338.076,224.980 337.536,225.200 337.400 C 225.420 337.264,225.600 336.882,225.600 336.552 C 225.600 336.221,226.025 335.017,226.545 333.875 C 227.065 332.734,227.733 331.170,228.029 330.400 C 228.325 329.630,229.261 327.740,230.108 326.200 C 230.955 324.660,231.748 323.085,231.871 322.700 C 231.993 322.315,232.252 322.000,232.447 322.000 C 232.641 322.000,232.800 321.823,232.800 321.608 C 232.800 321.392,233.475 320.199,234.300 318.957 C 235.125 317.716,236.000 316.355,236.244 315.935 C 236.489 315.514,237.049 314.772,237.490 314.285 C 237.930 313.798,238.450 313.101,238.645 312.737 C 239.624 310.905,247.635 302.506,251.607 299.145 C 254.155 296.990,257.527 294.400,257.786 294.400 C 257.884 294.400,259.007 293.663,260.282 292.763 C 261.557 291.862,262.960 290.960,263.400 290.758 C 263.840 290.557,264.920 289.949,265.800 289.408 C 267.347 288.456,273.157 285.558,275.200 284.718 C 275.750 284.492,276.513 284.148,276.895 283.953 C 277.277 283.759,277.932 283.600,278.352 283.600 C 278.771 283.600,279.225 283.311,279.361 282.958 C 279.503 282.588,279.862 282.415,280.210 282.549 C 280.542 282.676,281.396 282.536,282.107 282.238 C 284.254 281.338,286.198 280.800,287.305 280.800 C 287.881 280.800,288.464 280.620,288.600 280.400 C 288.736 280.180,289.546 280.000,290.400 280.000 C 291.254 280.000,292.049 279.845,292.166 279.656 C 292.283 279.466,293.508 279.195,294.889 279.054 C 296.270 278.912,298.390 278.630,299.600 278.427 C 302.602 277.924,315.955 277.931,319.400 278.438 C 320.940 278.664,323.148 278.951,324.307 279.075 C 325.466 279.199,326.512 279.458,326.631 279.650 C 326.750 279.843,327.636 280.000,328.600 280.000 C 329.564 280.000,330.464 280.180,330.600 280.400 C 330.736 280.620,331.278 280.800,331.805 280.800 C 332.331 280.800,333.176 280.957,333.681 281.150 C 334.187 281.342,335.590 281.817,336.800 282.205 C 338.010 282.594,339.171 283.067,339.380 283.256 C 339.589 283.445,340.086 283.600,340.485 283.600 C 340.884 283.600,341.523 283.759,341.905 283.953 C 342.287 284.148,343.050 284.477,343.600 284.685 C 345.453 285.387,352.584 288.979,354.600 290.227 C 355.700 290.907,356.870 291.562,357.200 291.683 C 357.842 291.916,363.481 296.060,366.664 298.637 C 370.436 301.691,378.708 310.316,380.778 313.354 C 386.074 321.126,392.000 331.486,392.000 332.971 C 392.000 333.125,392.450 334.235,393.000 335.437 C 393.550 336.640,394.000 337.968,394.000 338.388 C 394.000 338.809,394.180 339.264,394.400 339.400 C 394.620 339.536,394.800 340.166,394.800 340.800 C 394.800 341.434,394.960 342.052,395.156 342.173 C 395.351 342.294,395.607 342.979,395.723 343.696 C 395.839 344.413,396.302 346.440,396.753 348.200 C 397.204 349.960,397.579 351.973,397.586 352.674 C 397.594 353.375,397.793 354.455,398.028 355.074 C 398.585 356.539,398.613 376.954,398.061 379.508 C 397.836 380.549,397.453 382.570,397.210 384.000 C 396.967 385.430,396.493 387.590,396.156 388.800 C 395.820 390.010,395.359 391.720,395.133 392.600 C 394.907 393.480,394.560 394.513,394.361 394.895 C 394.162 395.277,394.000 395.864,394.000 396.200 C 394.000 396.536,393.840 397.123,393.644 397.505 C 393.243 398.289,392.282 400.499,391.690 402.000 C 390.871 404.073,387.388 411.005,387.100 411.133 C 386.935 411.207,386.800 411.428,386.800 411.626 C 386.800 412.112,383.951 416.566,383.533 416.733 C 383.350 416.807,383.200 417.053,383.200 417.280 C 383.200 417.636,380.629 421.435,380.006 422.000 C 379.884 422.110,378.588 423.640,377.124 425.400 C 372.996 430.365,363.431 439.164,362.133 439.191 C 361.877 439.196,361.607 439.337,361.533 439.505 C 361.378 439.860,357.308 442.800,356.971 442.800 C 356.846 442.800,355.992 443.305,355.072 443.922 C 353.151 445.210,343.511 450.000,342.838 450.000 C 342.591 450.000,342.032 450.180,341.595 450.400 C 341.158 450.620,340.442 450.980,340.005 451.200 C 339.568 451.420,338.859 451.600,338.429 451.600 C 337.999 451.600,337.549 451.759,337.429 451.954 C 337.308 452.149,336.713 452.406,336.105 452.527 C 335.497 452.648,334.010 453.047,332.800 453.415 C 328.073 454.852,323.549 455.559,316.732 455.927 C 304.498 456.587,313.920 456.800,355.284 456.800 L 399.502 456.800 399.778 410.700 C 400.248 332.247,399.891 99.897,399.300 99.700 C 399.001 99.600,398.800 98.824,398.800 97.767 C 398.800 96.463,398.643 96.000,398.200 96.000 C 397.781 96.000,397.600 95.578,397.600 94.600 C 397.600 93.830,397.420 93.200,397.200 93.200 C 396.980 93.200,396.800 92.840,396.800 92.400 C 396.800 91.960,396.620 91.600,396.400 91.600 C 396.180 91.600,396.000 91.150,396.000 90.600 C 396.000 90.050,395.820 89.600,395.600 89.600 C 395.380 89.600,395.200 89.240,395.200 88.800 C 395.200 88.356,394.933 88.000,394.600 88.000 C 394.227 88.000,394.000 87.622,394.000 87.000 C 394.000 86.450,393.820 86.000,393.600 86.000 C 393.380 86.000,393.200 85.640,393.200 85.200 C 393.200 84.760,393.020 84.400,392.800 84.400 C 392.580 84.400,392.400 83.990,392.400 83.488 C 392.400 82.987,392.040 82.317,391.600 82.000 C 391.160 81.683,390.800 81.103,390.800 80.712 C 390.800 80.320,390.530 80.000,390.200 80.000 C 389.870 80.000,389.600 79.770,389.600 79.488 C 389.600 79.207,389.240 78.717,388.800 78.400 C 388.360 78.083,388.000 77.581,388.000 77.285 C 388.000 76.665,383.414 72.000,382.805 72.000 C 382.582 72.000,382.400 71.812,382.400 71.582 C 382.400 70.940,380.514 69.200,379.818 69.200 C 379.478 69.200,379.200 69.020,379.200 68.800 C 379.200 68.580,378.930 68.400,378.600 68.400 C 378.270 68.400,378.000 68.207,378.000 67.971 C 378.000 67.334,376.947 66.400,376.229 66.400 C 375.883 66.400,375.600 66.220,375.600 66.000 C 375.600 65.780,375.330 65.600,375.000 65.600 C 374.670 65.600,374.400 65.420,374.400 65.200 C 374.400 64.980,374.059 64.800,373.643 64.800 C 373.226 64.800,372.782 64.530,372.655 64.200 C 372.529 63.870,372.059 63.600,371.613 63.600 C 371.166 63.600,370.800 63.420,370.800 63.200 C 370.800 62.980,370.440 62.800,370.000 62.800 C 369.560 62.800,369.200 62.620,369.200 62.400 C 369.200 62.180,368.840 62.000,368.400 62.000 C 367.960 62.000,367.600 61.820,367.600 61.600 C 367.600 61.380,367.150 61.200,366.600 61.200 C 366.050 61.200,365.600 61.020,365.600 60.800 C 365.600 60.580,365.240 60.400,364.800 60.400 C 364.356 60.400,364.000 60.133,364.000 59.800 C 364.000 59.381,363.578 59.200,362.600 59.200 C 361.830 59.200,361.200 59.020,361.200 58.800 C 361.200 58.580,360.390 58.400,359.400 58.400 C 358.410 58.400,357.600 58.220,357.600 58.000 C 357.600 57.780,356.790 57.600,355.800 57.600 C 354.810 57.600,354.000 57.420,354.000 57.200 C 354.000 56.938,346.000 56.800,330.800 56.800 L 307.600 56.800 307.600 35.800 C 307.600 22.067,307.462 14.800,307.200 14.800 C 306.980 14.800,306.800 14.170,306.800 13.400 C 306.800 12.630,306.620 12.000,306.400 12.000 C 306.180 12.000,306.000 11.724,306.000 11.387 C 306.000 11.051,305.730 10.671,305.400 10.545 C 305.070 10.418,304.800 9.968,304.800 9.544 C 304.800 8.741,302.335 6.000,301.613 6.000 C 301.386 6.000,301.200 5.814,301.200 5.587 C 301.200 4.845,298.448 2.400,297.613 2.400 C 297.157 2.400,296.800 2.137,296.800 1.800 C 296.800 1.470,296.455 1.200,296.033 1.200 C 295.612 1.200,295.192 0.975,295.100 0.700 C 294.859 -0.024,276.741 -0.024,276.500 0.700 C 276.408 0.975,275.898 1.200,275.367 1.200 C 274.774 1.200,274.400 1.432,274.400 1.800 C 274.400 2.130,274.080 2.400,273.688 2.400 C 273.297 2.400,272.717 2.760,272.400 3.200 C 272.083 3.640,271.670 4.000,271.483 4.000 C 271.094 4.000,270.000 5.021,270.000 5.385 C 270.000 5.798,267.250 8.400,266.813 8.400 C 266.586 8.400,266.400 8.850,266.400 9.400 C 266.400 9.950,266.220 10.400,266.000 10.400 C 265.780 10.400,265.600 10.760,265.600 11.200 C 265.600 11.640,265.420 12.000,265.200 12.000 C 264.980 12.000,264.800 12.630,264.800 13.400 C 264.800 14.170,264.620 14.800,264.400 14.800 C 264.138 14.800,264.000 22.067,264.000 35.800 L 264.000 56.800 200.000 56.800 L 136.000 56.800 136.000 35.800 C 136.000 22.067,135.862 14.800,135.600 14.800 C 135.380 14.800,135.200 14.170,135.200 13.400 C 135.200 12.630,135.020 12.000,134.800 12.000 C 134.580 12.000,134.400 11.640,134.400 11.200 C 134.400 10.760,134.220 10.400,134.000 10.400 C 133.780 10.400,133.600 9.950,133.600 9.400 C 133.600 8.850,133.414 8.400,133.187 8.400 C 132.750 8.400,130.000 5.798,130.000 5.385 C 130.000 5.021,128.906 4.000,128.517 4.000 C 128.330 4.000,127.917 3.640,127.600 3.200 C 127.283 2.760,126.703 2.400,126.312 2.400 C 125.920 2.400,125.600 2.130,125.600 1.800 C 125.600 1.432,125.226 1.200,124.633 1.200 C 124.102 1.200,123.594 0.982,123.505 0.714 C 123.341 0.222,109.655 -0.133,106.300 0.269 M114.000 196.200 L 114.000 220.800 78.600 220.800 L 43.200 220.800 43.200 196.200 L 43.200 171.600 78.600 171.600 L 114.000 171.600 114.000 196.200 M242.400 196.200 L 242.400 220.800 200.000 220.800 L 157.600 220.800 157.600 196.200 L 157.600 171.600 200.000 171.600 L 242.400 171.600 242.400 196.200 M356.800 196.200 L 356.800 220.800 321.400 220.800 L 286.000 220.800 286.000 196.200 L 286.000 171.600 321.400 171.600 L 356.800 171.600 356.800 196.200 M114.000 292.600 L 114.000 320.800 78.600 320.800 L 43.200 320.800 43.200 292.600 L 43.200 264.400 78.600 264.400 L 114.000 264.400 114.000 292.600 M242.400 266.200 L 242.400 268.000 231.200 268.000 L 220.000 268.000 220.000 294.400 L 220.000 320.800 188.800 320.800 L 157.600 320.800 157.600 292.600 L 157.600 264.400 200.000 264.400 L 242.400 264.400 242.400 266.200 M356.800 266.200 L 356.800 268.000 321.400 268.000 L 286.000 268.000 286.000 266.200 L 286.000 264.400 321.400 264.400 L 356.800 264.400 356.800 266.200 M304.656 301.078 C 304.479 301.255,303.044 301.502,301.467 301.628 C 298.216 301.886,293.742 302.711,292.705 303.243 C 292.323 303.439,291.569 303.600,291.029 303.600 C 290.489 303.600,289.936 303.780,289.800 304.000 C 289.664 304.220,289.124 304.400,288.600 304.400 C 288.076 304.400,287.536 304.580,287.400 304.800 C 287.264 305.020,286.851 305.200,286.482 305.200 C 285.456 305.200,277.970 308.862,274.492 311.065 C 273.333 311.799,272.223 312.400,272.026 312.400 C 271.828 312.400,271.607 312.542,271.533 312.717 C 271.460 312.891,270.680 313.566,269.800 314.217 C 265.904 317.098,258.796 324.137,256.691 327.200 C 256.010 328.190,255.349 329.090,255.223 329.200 C 254.750 329.610,252.800 332.797,252.800 333.158 C 252.800 333.364,252.659 333.593,252.486 333.667 C 252.203 333.787,248.738 340.643,247.970 342.600 C 246.150 347.244,245.343 349.968,244.946 352.800 C 244.839 353.570,244.596 354.560,244.406 355.000 C 243.133 357.960,243.177 378.644,244.458 379.436 C 244.646 379.552,244.800 380.299,244.800 381.095 C 244.800 382.576,244.997 383.315,246.692 388.200 C 247.718 391.155,248.266 392.554,248.847 393.695 C 249.041 394.077,249.200 394.554,249.200 394.756 C 249.200 394.958,249.852 396.265,250.649 397.662 C 251.446 399.058,252.456 400.830,252.894 401.600 C 253.331 402.370,254.299 403.834,255.045 404.854 C 255.790 405.873,256.400 406.842,256.400 407.007 C 256.400 407.171,256.719 407.597,257.109 407.953 C 257.499 408.309,258.984 409.950,260.409 411.600 C 261.834 413.250,263.188 414.723,263.419 414.874 C 263.997 415.253,267.147 418.006,268.253 419.100 C 268.754 419.595,269.247 420.000,269.350 420.000 C 269.452 420.000,270.973 420.990,272.730 422.200 C 274.487 423.410,276.106 424.400,276.329 424.400 C 276.551 424.400,276.793 424.535,276.867 424.700 C 277.049 425.111,282.385 427.670,285.800 428.985 C 287.340 429.578,288.913 430.229,289.295 430.432 C 289.677 430.634,290.521 430.800,291.171 430.800 C 291.821 430.800,292.464 430.980,292.600 431.200 C 292.736 431.420,293.546 431.600,294.400 431.600 C 295.254 431.600,296.048 431.753,296.163 431.941 C 296.535 432.543,302.002 432.966,309.400 432.966 C 316.798 432.966,322.265 432.543,322.637 431.941 C 322.752 431.753,323.546 431.600,324.400 431.600 C 325.254 431.600,326.064 431.420,326.200 431.200 C 326.336 430.980,326.979 430.800,327.629 430.800 C 328.279 430.800,329.123 430.634,329.505 430.432 C 329.887 430.229,331.460 429.578,333.000 428.985 C 336.693 427.563,341.393 425.284,343.472 423.907 C 344.392 423.298,345.246 422.800,345.372 422.800 C 345.700 422.800,350.341 419.229,351.994 417.703 C 352.767 416.990,353.533 416.405,353.695 416.403 C 354.086 416.399,358.800 411.633,358.800 411.242 C 358.800 411.076,359.269 410.503,359.842 409.970 C 360.416 409.436,361.442 408.190,362.123 407.200 C 362.805 406.210,363.582 405.176,363.851 404.902 C 364.119 404.628,364.926 403.368,365.643 402.102 C 366.360 400.836,367.050 399.710,367.176 399.600 C 367.501 399.316,370.404 393.462,370.402 393.096 C 370.401 392.928,370.739 392.028,371.153 391.096 C 371.568 390.163,372.210 388.320,372.580 387.000 C 372.951 385.680,373.422 384.187,373.627 383.681 C 373.832 383.176,374.000 382.267,374.000 381.661 C 374.000 381.056,374.161 380.389,374.358 380.180 C 375.639 378.820,375.639 355.580,374.358 354.220 C 374.161 354.011,374.000 353.244,374.000 352.515 C 374.000 351.786,373.842 350.877,373.650 350.495 C 373.457 350.113,372.986 348.720,372.603 347.400 C 372.220 346.080,371.748 344.595,371.554 344.100 C 371.359 343.605,371.044 342.795,370.853 342.300 C 369.837 339.665,367.157 334.601,365.210 331.638 C 363.994 329.789,362.820 327.989,362.600 327.638 C 362.380 327.287,362.100 326.910,361.979 326.800 C 361.857 326.690,360.839 325.486,359.716 324.124 C 357.380 321.291,355.406 319.263,354.088 318.344 C 353.587 317.995,352.417 316.999,351.488 316.132 C 350.560 315.265,349.215 314.211,348.500 313.791 C 347.785 313.371,347.200 312.886,347.200 312.714 C 347.200 312.541,347.026 312.400,346.814 312.400 C 346.602 312.400,344.893 311.410,343.018 310.200 C 341.142 308.990,339.336 308.000,339.004 308.000 C 338.672 308.000,338.400 307.820,338.400 307.600 C 338.400 307.380,338.129 307.200,337.798 307.200 C 337.467 307.200,336.263 306.750,335.123 306.200 C 333.983 305.650,332.735 305.200,332.349 305.200 C 331.963 305.200,331.536 305.020,331.400 304.800 C 331.264 304.580,330.724 304.400,330.200 304.400 C 329.676 304.400,329.136 304.220,329.000 304.000 C 328.864 303.780,328.311 303.600,327.771 303.600 C 327.231 303.600,326.477 303.439,326.095 303.243 C 323.544 301.932,305.612 300.121,304.656 301.078 M318.400 311.807 C 319.610 311.954,320.771 312.237,320.980 312.437 C 321.189 312.637,321.729 312.799,322.180 312.798 C 323.025 312.796,326.464 313.825,327.695 314.448 C 328.077 314.642,328.741 314.800,329.171 314.800 C 329.601 314.800,330.064 314.980,330.200 315.200 C 330.336 315.420,330.797 315.600,331.224 315.600 C 331.651 315.600,332.000 315.780,332.000 316.000 C 332.000 316.220,332.324 316.400,332.720 316.400 C 333.116 316.400,333.611 316.563,333.820 316.762 C 334.029 316.961,335.428 317.770,336.929 318.559 C 343.725 322.136,351.423 329.244,355.824 336.007 C 357.749 338.964,357.965 339.333,358.693 340.900 C 359.075 341.725,359.526 342.400,359.694 342.400 C 359.862 342.400,360.000 342.636,360.000 342.925 C 360.000 343.214,360.425 344.339,360.945 345.425 C 361.465 346.511,362.117 348.120,362.394 349.000 C 362.671 349.880,363.056 350.913,363.249 351.295 C 363.442 351.677,363.600 352.496,363.600 353.115 C 363.600 353.734,363.763 354.411,363.961 354.620 C 364.702 355.399,365.647 366.589,365.511 372.972 L 365.400 378.200 331.700 378.302 L 298.000 378.405 298.000 345.069 C 298.000 326.734,298.129 311.604,298.287 311.446 C 298.619 311.114,315.121 311.411,318.400 311.807 M114.000 389.000 L 114.000 413.600 85.800 413.600 C 67.267 413.600,57.600 413.463,57.600 413.200 C 57.600 412.980,56.610 412.800,55.400 412.800 C 53.711 412.800,53.200 412.661,53.200 412.200 C 53.200 411.827,52.822 411.600,52.200 411.600 C 51.650 411.600,51.200 411.420,51.200 411.200 C 51.200 410.980,50.880 410.800,50.488 410.800 C 50.097 410.800,49.517 410.440,49.200 410.000 C 48.883 409.560,48.393 409.200,48.112 409.200 C 47.830 409.200,47.600 408.970,47.600 408.688 C 47.600 408.407,47.240 407.917,46.800 407.600 C 46.360 407.283,46.000 406.703,46.000 406.312 C 46.000 405.920,45.820 405.600,45.600 405.600 C 45.380 405.600,45.200 405.150,45.200 404.600 C 45.200 403.978,44.973 403.600,44.600 403.600 C 44.139 403.600,44.000 403.089,44.000 401.400 C 44.000 400.190,43.820 399.200,43.600 399.200 C 43.339 399.200,43.200 393.133,43.200 381.800 L 43.200 364.400 78.600 364.400 L 114.000 364.400 114.000 389.000 " stroke="none" fill="#4c5c8c" fill-rule="evenodd"></path><path id="path2" d="M369.200 301.310 C 369.200 301.371,370.595 302.766,372.300 304.410 L 375.400 307.400 372.410 304.300 C 369.633 301.421,369.200 301.017,369.200 301.310 M245.375 305.300 L 244.200 306.600 245.500 305.425 C 246.215 304.779,246.800 304.194,246.800 304.125 C 246.800 303.816,246.470 304.088,245.375 305.300 M298.094 345.276 C 298.042 363.248,298.135 378.036,298.300 378.138 C 298.572 378.306,298.569 355.235,298.293 324.400 C 298.235 317.910,298.145 327.304,298.094 345.276 M348.600 328.000 C 349.459 328.880,350.252 329.600,350.362 329.600 C 350.472 329.600,349.859 328.880,349.000 328.000 C 348.141 327.120,347.348 326.400,347.238 326.400 C 347.128 326.400,347.741 327.120,348.600 328.000 M398.124 362.200 C 398.126 363.520,398.201 364.012,398.290 363.293 C 398.379 362.574,398.377 361.494,398.286 360.893 C 398.195 360.292,398.122 360.880,398.124 362.200 M220.493 361.600 C 220.493 362.370,220.575 362.685,220.676 362.300 C 220.776 361.915,220.776 361.285,220.676 360.900 C 220.575 360.515,220.493 360.830,220.493 361.600 M398.128 372.000 C 398.128 373.430,398.201 374.015,398.289 373.300 C 398.378 372.585,398.378 371.415,398.289 370.700 C 398.201 369.985,398.128 370.570,398.128 372.000 M220.000 376.757 C 220.000 376.954,220.270 377.218,220.600 377.345 C 220.965 377.485,221.200 377.345,221.200 376.987 C 221.200 376.664,220.930 376.400,220.600 376.400 C 220.270 376.400,220.000 376.561,220.000 376.757 M372.189 430.100 L 369.400 433.000 372.300 430.211 C 374.994 427.620,375.383 427.200,375.089 427.200 C 375.028 427.200,373.723 428.505,372.189 430.100 M245.200 428.925 C 245.200 428.994,245.785 429.579,246.500 430.225 L 247.800 431.400 246.625 430.100 C 245.530 428.888,245.200 428.616,245.200 428.925 " stroke="none" fill="#9aa5cf" fill-rule="evenodd"></path><path id="path3" d="M305.322 278.299 C 307.699 278.370,311.479 278.369,313.722 278.298 C 315.965 278.227,314.020 278.169,309.400 278.169 C 304.780 278.170,302.945 278.228,305.322 278.299 M297.200 278.800 L 296.200 279.120 297.200 279.113 C 297.750 279.109,298.740 278.968,299.400 278.800 L 300.600 278.495 299.400 278.487 C 298.740 278.483,297.750 278.624,297.200 278.800 M319.800 278.823 C 321.937 279.265,323.404 279.250,322.000 278.800 C 321.450 278.624,320.370 278.483,319.600 278.486 L 318.200 278.492 319.800 278.823 M292.190 279.616 C 292.021 279.889,292.323 279.938,293.066 279.760 C 294.599 279.392,294.744 279.200,293.490 279.200 C 292.917 279.200,292.332 279.387,292.190 279.616 M324.433 279.344 C 324.905 279.750,326.843 279.993,326.610 279.616 C 326.468 279.387,325.883 279.200,325.310 279.200 C 324.736 279.200,324.342 279.265,324.433 279.344 M288.590 280.416 C 288.421 280.689,288.723 280.738,289.466 280.560 C 290.999 280.192,291.144 280.000,289.890 280.000 C 289.317 280.000,288.732 280.187,288.590 280.416 M328.433 280.144 C 328.905 280.550,330.843 280.793,330.610 280.416 C 330.468 280.187,329.883 280.000,329.310 280.000 C 328.736 280.000,328.342 280.065,328.433 280.144 M284.600 281.289 C 283.940 281.511,282.860 281.949,282.200 282.261 C 281.540 282.573,281.360 282.712,281.800 282.568 C 282.240 282.425,283.230 282.137,284.000 281.928 C 287.945 280.858,287.881 280.882,286.800 280.883 C 286.250 280.884,285.260 281.067,284.600 281.289 M333.200 281.422 C 334.190 281.743,335.598 282.201,336.330 282.439 C 337.061 282.678,337.737 282.796,337.832 282.701 C 337.927 282.607,337.238 282.302,336.302 282.023 C 335.366 281.745,334.187 281.355,333.681 281.158 C 333.176 280.961,332.456 280.809,332.081 280.819 C 331.707 280.830,332.210 281.101,333.200 281.422 M274.800 284.777 C 274.470 284.959,273.705 285.338,273.101 285.621 C 272.496 285.903,272.073 286.207,272.162 286.295 C 272.250 286.383,272.655 286.279,273.061 286.064 C 273.467 285.849,274.430 285.390,275.200 285.045 C 275.970 284.700,276.330 284.425,276.000 284.433 C 275.670 284.441,275.130 284.596,274.800 284.777 M344.800 285.487 C 345.130 285.610,346.075 286.050,346.900 286.464 C 347.725 286.878,348.400 287.126,348.400 287.016 C 348.400 286.702,345.291 285.196,344.716 285.232 C 344.375 285.252,344.404 285.339,344.800 285.487 M353.286 289.800 C 354.095 290.350,354.899 290.800,355.072 290.800 C 355.244 290.800,354.723 290.350,353.914 289.800 C 353.105 289.250,352.301 288.800,352.128 288.800 C 351.956 288.800,352.477 289.250,353.286 289.800 M356.800 291.740 C 356.800 291.817,357.700 292.440,358.800 293.124 C 361.276 294.663,361.423 294.467,359.028 292.819 C 357.371 291.679,356.800 291.403,356.800 291.740 M256.350 295.313 C 255.773 295.801,254.474 296.830,253.465 297.600 C 252.456 298.370,251.623 299.137,251.615 299.305 C 251.607 299.472,252.545 298.842,253.700 297.905 C 254.855 296.967,256.340 295.801,257.000 295.313 C 257.660 294.825,258.020 294.425,257.800 294.425 C 257.580 294.425,256.928 294.825,256.350 295.313 M363.200 296.106 C 363.200 296.194,363.965 296.874,364.900 297.617 C 365.835 298.360,366.346 298.652,366.036 298.265 C 365.451 297.537,363.200 295.823,363.200 296.106 M371.652 303.608 C 373.990 305.913,376.195 308.245,376.552 308.789 C 376.908 309.333,377.200 309.550,377.200 309.271 C 377.200 308.676,370.351 301.503,368.600 300.264 C 367.940 299.797,369.313 301.302,371.652 303.608 M247.272 303.100 C 245.774 304.585,245.083 305.350,245.736 304.800 C 247.859 303.012,250.550 300.400,250.269 300.400 C 250.118 300.400,248.770 301.615,247.272 303.100 M302.000 301.200 L 300.600 301.495 302.200 301.541 C 303.080 301.567,304.070 301.413,304.400 301.200 C 305.124 300.732,304.223 300.732,302.000 301.200 M314.400 301.200 C 314.730 301.413,315.810 301.570,316.800 301.548 L 318.600 301.508 317.000 301.177 C 314.673 300.696,313.634 300.705,314.400 301.200 M295.200 302.217 C 293.990 302.495,293.450 302.737,294.000 302.754 C 294.550 302.771,295.900 302.534,297.000 302.228 C 299.481 301.538,298.186 301.530,295.200 302.217 M321.800 302.228 C 322.900 302.534,324.250 302.773,324.800 302.759 C 325.350 302.745,324.720 302.490,323.400 302.192 C 320.280 301.489,319.229 301.513,321.800 302.228 M326.200 303.200 C 326.336 303.420,326.842 303.587,327.324 303.572 C 328.169 303.545,328.171 303.531,327.400 303.200 C 326.299 302.727,325.908 302.727,326.200 303.200 M283.000 306.209 C 281.900 306.738,281.191 307.178,281.425 307.186 C 281.946 307.203,285.200 305.656,285.200 305.391 C 285.200 305.140,285.293 305.105,283.000 306.209 M336.000 306.600 C 336.550 306.914,337.270 307.171,337.600 307.170 C 337.930 307.169,337.594 306.906,336.854 306.584 C 335.151 305.845,334.694 305.853,336.000 306.600 M278.700 308.226 C 277.655 308.770,276.800 309.305,276.800 309.414 C 276.800 309.524,277.700 309.157,278.800 308.600 C 279.900 308.043,280.800 307.500,280.800 307.393 C 280.800 307.129,280.836 307.114,278.700 308.226 M341.225 308.937 C 341.727 309.486,346.503 312.430,346.652 312.281 C 346.740 312.193,345.689 311.419,344.316 310.561 C 341.843 309.014,340.791 308.462,341.225 308.937 M240.000 310.886 C 238.366 312.914,238.197 313.526,239.747 311.800 C 240.538 310.920,241.188 310.065,241.192 309.900 C 241.204 309.442,241.080 309.545,240.000 310.886 M273.981 310.990 C 272.782 311.754,271.923 312.384,272.073 312.390 C 272.393 312.402,276.400 309.948,276.400 309.740 C 276.400 309.478,276.163 309.600,273.981 310.990 M377.600 309.887 C 377.600 310.115,377.862 310.519,378.182 310.785 C 378.502 311.050,379.871 312.782,381.225 314.634 C 382.578 316.485,383.765 318.000,383.862 318.000 C 383.959 318.000,383.445 317.171,382.719 316.158 C 381.994 315.145,381.130 313.911,380.800 313.416 C 379.730 311.808,377.600 309.460,377.600 309.887 M298.138 311.817 C 298.008 312.157,298.013 312.547,298.151 312.684 C 298.288 312.821,298.400 312.616,298.400 312.229 C 298.400 311.572,299.029 311.533,307.587 311.662 C 312.640 311.738,316.465 311.678,316.087 311.528 C 314.513 310.905,298.388 311.165,298.138 311.817 M317.633 312.145 C 318.028 312.489,321.181 312.693,320.976 312.362 C 320.853 312.163,320.013 312.000,319.110 312.000 C 318.206 312.000,317.542 312.065,317.633 312.145 M347.200 312.702 C 347.200 312.881,347.740 313.346,348.400 313.736 C 349.060 314.126,349.600 314.379,349.600 314.298 C 349.600 314.217,349.060 313.751,348.400 313.263 C 347.740 312.775,347.200 312.523,347.200 312.702 M268.773 314.561 C 266.882 315.949,260.258 322.349,258.183 324.793 C 257.532 325.559,258.980 324.207,261.400 321.788 C 263.820 319.369,266.520 316.816,267.400 316.116 C 270.532 313.623,270.998 313.227,270.800 313.223 C 270.690 313.221,269.778 313.823,268.773 314.561 M237.201 314.598 C 236.686 315.148,236.352 315.685,236.460 315.794 C 236.568 315.902,237.054 315.452,237.540 314.795 C 238.617 313.339,238.466 313.252,237.201 314.598 M351.709 316.311 C 354.363 318.683,355.249 319.131,352.800 316.863 C 351.590 315.742,350.469 314.820,350.309 314.813 C 350.149 314.806,350.779 315.480,351.709 316.311 M235.541 317.100 C 234.626 318.200,232.726 321.260,232.870 321.403 C 232.942 321.474,233.766 320.377,234.703 318.966 C 236.367 316.458,236.708 315.698,235.541 317.100 M333.346 317.002 C 334.805 317.763,335.175 317.768,334.176 317.013 C 333.749 316.690,333.130 316.421,332.800 316.415 C 332.470 316.410,332.716 316.674,333.346 317.002 M384.074 318.600 C 384.830 320.098,387.351 323.983,387.481 323.852 C 387.570 323.764,386.909 322.557,386.012 321.171 C 384.525 318.869,383.571 317.605,384.074 318.600 M338.000 319.360 C 338.000 319.449,338.675 319.902,339.500 320.368 L 341.000 321.216 339.800 320.210 C 338.699 319.287,338.000 318.957,338.000 319.360 M341.200 321.292 C 341.200 321.396,342.325 322.351,343.700 323.412 C 345.075 324.474,347.721 326.885,349.580 328.771 C 351.440 330.657,352.578 331.660,352.110 331.000 C 351.032 329.478,346.806 325.420,344.200 323.404 C 341.240 321.114,341.200 321.086,341.200 321.292 M231.000 324.400 C 230.659 325.060,230.469 325.600,230.579 325.600 C 230.689 325.600,231.059 325.060,231.400 324.400 C 231.741 323.740,231.931 323.200,231.821 323.200 C 231.711 323.200,231.341 323.740,231.000 324.400 M362.400 327.551 C 362.400 327.744,362.671 328.127,363.002 328.401 C 363.332 328.676,364.246 329.958,365.031 331.250 C 366.422 333.541,367.299 334.499,366.357 332.700 C 365.100 330.297,362.400 326.785,362.400 327.551 M354.396 334.500 C 355.341 335.765,356.188 336.800,356.277 336.800 C 356.565 336.800,354.089 333.372,353.372 332.777 C 352.989 332.460,353.450 333.235,354.396 334.500 M226.091 334.900 C 225.410 336.784,225.504 337.294,226.226 335.630 C 226.553 334.877,226.766 334.099,226.701 333.902 C 226.635 333.705,226.360 334.154,226.091 334.900 M393.136 336.873 C 393.501 338.013,393.851 338.680,393.913 338.355 C 394.024 337.781,392.949 334.800,392.631 334.800 C 392.545 334.800,392.772 335.733,393.136 336.873 M367.600 335.296 C 367.600 335.713,369.340 338.793,369.491 338.642 C 369.573 338.561,369.251 337.798,368.777 336.947 C 367.851 335.287,367.600 334.935,367.600 335.296 M246.891 344.500 C 246.210 346.384,246.304 346.894,247.026 345.230 C 247.353 344.477,247.566 343.699,247.501 343.502 C 247.435 343.305,247.160 343.754,246.891 344.500 M222.644 345.600 C 222.306 347.279,221.956 350.139,222.229 349.000 C 222.334 348.560,222.618 347.546,222.859 346.746 C 223.100 345.947,223.214 345.047,223.112 344.746 C 223.010 344.446,222.799 344.830,222.644 345.600 M372.018 345.254 C 372.008 345.614,372.263 346.514,372.584 347.254 C 373.340 348.994,373.358 348.273,372.612 346.200 C 372.295 345.320,372.027 344.894,372.018 345.254 M361.622 347.400 C 361.616 347.620,361.871 348.520,362.188 349.400 C 362.505 350.280,362.773 350.706,362.782 350.346 C 362.792 349.986,362.537 349.086,362.216 348.346 C 361.894 347.606,361.627 347.180,361.622 347.400 M396.657 348.800 C 397.348 353.649,397.490 354.301,397.530 352.800 C 397.550 352.030,397.304 350.410,396.984 349.200 C 396.440 347.146,396.418 347.119,396.657 348.800 M245.000 350.400 C 244.850 350.873,244.817 351.350,244.927 351.460 C 245.037 351.570,245.250 351.273,245.400 350.800 C 245.550 350.327,245.583 349.850,245.473 349.740 C 245.363 349.630,245.150 349.927,245.000 350.400 M221.456 350.884 C 221.321 351.388,221.230 352.340,221.253 353.000 C 221.281 353.828,221.397 353.584,221.626 352.213 C 221.976 350.123,221.874 349.326,221.456 350.884 M362.828 351.476 C 362.918 352.515,363.544 353.396,363.572 352.524 C 363.587 352.042,363.420 351.536,363.200 351.400 C 362.980 351.264,362.813 351.298,362.828 351.476 M244.454 352.800 C 244.419 353.130,244.277 353.850,244.140 354.400 C 243.948 355.172,244.002 355.297,244.377 354.949 C 244.644 354.701,244.785 353.981,244.691 353.349 C 244.597 352.717,244.490 352.470,244.454 352.800 M374.028 353.076 C 374.013 353.558,374.180 354.064,374.400 354.200 C 374.873 354.492,374.873 354.101,374.400 353.000 C 374.069 352.229,374.055 352.231,374.028 353.076 M363.840 355.466 C 364.208 356.999,364.400 357.144,364.400 355.890 C 364.400 355.317,364.213 354.732,363.984 354.590 C 363.711 354.421,363.662 354.723,363.840 355.466 M397.887 357.000 C 398.011 358.540,398.177 359.875,398.256 359.967 C 398.559 360.317,398.327 355.761,398.003 355.000 C 397.797 354.516,397.751 355.308,397.887 357.000 M220.656 356.084 C 220.521 356.588,220.431 357.810,220.456 358.800 C 220.497 360.424,220.534 360.347,220.835 358.018 C 221.178 355.371,221.093 354.454,220.656 356.084 M374.828 357.433 C 374.844 358.295,375.017 359.360,375.214 359.800 C 375.448 360.322,375.488 359.837,375.332 358.400 C 375.043 355.758,374.789 355.270,374.828 357.433 M243.464 358.950 C 243.301 360.463,243.250 361.783,243.351 361.884 C 243.614 362.147,244.110 357.850,243.919 356.953 C 243.831 356.539,243.626 357.438,243.464 358.950 M364.659 360.200 C 364.793 361.300,364.969 362.275,365.051 362.367 C 365.364 362.717,365.126 359.761,364.780 359.000 C 364.535 358.461,364.495 358.854,364.659 360.200 M375.763 367.200 C 375.763 370.830,375.823 372.315,375.898 370.500 C 375.972 368.685,375.972 365.715,375.898 363.900 C 375.823 362.085,375.763 363.570,375.763 367.200 M242.954 367.200 C 242.954 369.950,243.018 371.075,243.096 369.700 C 243.174 368.325,243.174 366.075,243.096 364.700 C 243.018 363.325,242.954 364.450,242.954 367.200 M365.199 371.681 C 365.089 375.356,365.140 378.222,365.311 378.051 C 365.481 377.879,365.571 374.873,365.509 371.369 L 365.398 365.000 365.199 371.681 M398.509 367.200 C 398.509 368.190,398.587 368.595,398.682 368.100 C 398.778 367.605,398.778 366.795,398.682 366.300 C 398.587 365.805,398.509 366.210,398.509 367.200 M243.482 375.200 C 243.604 376.850,243.771 378.275,243.852 378.367 C 244.128 378.677,243.907 374.608,243.583 373.400 C 243.386 372.668,243.347 373.369,243.482 375.200 M375.076 374.810 C 374.930 375.355,374.828 376.340,374.849 377.000 C 374.880 377.957,374.959 377.836,375.242 376.400 C 375.629 374.433,375.502 373.217,375.076 374.810 M398.074 375.850 C 398.033 376.757,397.905 378.108,397.789 378.850 C 397.597 380.084,397.616 380.115,398.007 379.216 C 398.243 378.676,398.371 377.326,398.292 376.216 C 398.158 374.340,398.143 374.315,398.074 375.850 M220.000 377.924 C 220.000 378.359,220.282 378.823,220.628 378.955 C 221.097 379.135,221.223 378.978,221.128 378.329 C 220.964 377.215,220.000 376.868,220.000 377.924 M244.040 379.676 C 244.159 381.246,244.720 382.216,244.760 380.924 C 244.782 380.222,244.620 379.536,244.400 379.400 C 244.180 379.264,244.018 379.388,244.040 379.676 M374.267 380.267 C 374.120 380.413,374.011 380.908,374.025 381.367 C 374.049 382.133,374.082 382.123,374.434 381.242 C 374.826 380.263,374.744 379.789,374.267 380.267 M397.090 382.400 C 396.922 383.610,396.700 385.230,396.596 386.000 C 396.492 386.770,396.682 386.320,397.019 385.000 C 397.356 383.680,397.578 382.060,397.513 381.400 C 397.427 380.527,397.312 380.800,397.090 382.400 M221.228 381.833 C 221.244 382.475,221.416 383.360,221.610 383.800 C 221.847 384.334,221.886 384.002,221.727 382.800 C 221.446 380.680,221.188 380.180,221.228 381.833 M222.187 386.000 C 222.269 386.770,222.526 388.030,222.757 388.800 C 223.297 390.595,223.064 388.705,222.437 386.200 C 222.053 384.666,222.043 384.658,222.187 386.000 M372.499 387.190 C 371.796 389.442,371.913 390.158,372.643 388.073 C 372.976 387.123,373.192 386.176,373.123 385.969 C 373.054 385.761,372.773 386.311,372.499 387.190 M246.416 388.254 C 246.407 388.504,246.663 389.314,246.984 390.054 C 247.306 390.794,247.576 391.196,247.584 390.946 C 247.593 390.696,247.337 389.886,247.016 389.146 C 246.694 388.406,246.424 388.004,246.416 388.254 M395.000 391.600 C 394.850 392.073,394.817 392.550,394.927 392.660 C 395.037 392.770,395.250 392.473,395.400 392.000 C 395.550 391.527,395.583 391.050,395.473 390.940 C 395.363 390.830,395.150 391.127,395.000 391.600 M224.802 396.020 C 224.801 396.361,224.949 396.811,225.130 397.020 C 225.312 397.229,225.701 398.166,225.995 399.102 C 226.289 400.038,226.607 400.727,226.701 400.632 C 226.896 400.438,226.063 397.915,225.305 396.400 C 225.015 395.820,224.804 395.660,224.802 396.020 M393.646 395.867 C 393.621 396.124,393.484 396.664,393.341 397.067 C 393.140 397.636,393.194 397.697,393.579 397.342 C 393.852 397.091,393.989 396.551,393.884 396.142 C 393.779 395.734,393.672 395.610,393.646 395.867 M392.670 398.610 C 392.521 399.045,392.291 399.670,392.158 400.000 C 392.026 400.330,392.219 400.190,392.588 399.690 C 392.958 399.189,393.188 398.564,393.100 398.300 C 393.010 398.031,392.822 398.167,392.670 398.610 M251.786 400.300 C 252.135 401.015,252.506 401.600,252.610 401.600 C 253.008 401.600,252.752 400.963,251.967 400.000 L 251.152 399.000 251.786 400.300 M366.473 400.600 C 366.222 401.150,366.083 401.600,366.163 401.600 C 366.243 401.600,366.603 401.150,366.963 400.600 C 367.324 400.050,367.463 399.600,367.273 399.600 C 367.084 399.600,366.723 400.050,366.473 400.600 M364.839 403.424 C 364.377 404.207,364.180 404.736,364.402 404.599 C 364.836 404.331,366.134 402.000,365.850 402.000 C 365.756 402.000,365.301 402.641,364.839 403.424 M227.625 402.925 C 227.589 403.396,230.071 408.462,230.250 408.284 C 230.332 408.201,229.781 406.889,229.024 405.367 C 228.268 403.845,227.638 402.746,227.625 402.925 M255.237 405.600 C 256.396 407.396,256.400 407.401,256.398 406.967 C 256.397 406.765,255.932 406.060,255.365 405.400 L 254.334 404.200 255.237 405.600 M362.468 406.648 C 361.955 407.440,361.722 407.972,361.949 407.831 C 362.582 407.441,364.099 405.199,363.727 405.205 C 363.547 405.208,362.981 405.857,362.468 406.648 M258.225 409.683 C 261.148 412.876,263.002 414.697,261.601 413.000 C 259.326 410.243,257.613 408.400,257.326 408.400 C 257.174 408.400,257.579 408.978,258.225 409.683 M360.006 409.794 C 359.263 410.561,358.734 411.267,358.831 411.365 C 358.928 411.462,359.601 410.834,360.327 409.971 C 361.960 408.025,361.803 407.939,360.006 409.794 M231.000 410.000 C 231.341 410.660,231.711 411.200,231.821 411.200 C 231.931 411.200,231.741 410.660,231.400 410.000 C 231.059 409.340,230.689 408.800,230.579 408.800 C 230.469 408.800,230.659 409.340,231.000 410.000 M232.800 412.917 C 232.800 413.406,234.999 416.800,235.316 416.800 C 235.493 416.800,235.061 415.945,234.354 414.900 C 232.809 412.614,232.800 412.602,232.800 412.917 M385.302 413.700 C 384.736 414.415,383.940 416.000,384.146 416.000 C 384.242 416.000,384.693 415.370,385.147 414.600 C 385.973 413.201,386.049 412.757,385.302 413.700 M266.373 417.695 C 267.128 418.516,267.833 419.101,267.939 418.994 C 268.046 418.887,268.057 418.755,267.965 418.700 C 267.872 418.645,267.167 418.060,266.398 417.401 L 265.000 416.202 266.373 417.695 M352.062 417.640 C 350.206 419.327,350.642 419.431,352.567 417.760 C 353.428 417.012,353.968 416.405,353.767 416.412 C 353.565 416.418,352.798 416.971,352.062 417.640 M235.622 417.400 C 235.627 417.929,236.742 419.391,236.969 419.165 C 237.066 419.068,236.802 418.541,236.382 417.994 C 235.961 417.447,235.620 417.180,235.622 417.400 M382.092 418.629 C 381.597 419.383,381.272 420.000,381.369 420.000 C 381.647 420.000,383.304 417.571,383.139 417.406 C 383.057 417.324,382.586 417.874,382.092 418.629 M348.100 420.825 C 346.945 421.711,346.000 422.524,346.000 422.631 C 346.000 422.738,346.990 422.078,348.200 421.165 C 350.110 419.723,350.691 419.181,350.300 419.207 C 350.245 419.210,349.255 419.938,348.100 420.825 M239.034 422.050 C 240.859 424.550,243.443 427.563,243.946 427.777 C 244.246 427.905,243.357 426.703,241.970 425.105 C 238.936 421.609,238.003 420.637,239.034 422.050 M271.800 421.894 C 272.648 422.726,275.600 424.587,275.600 424.289 C 275.600 424.192,274.565 423.437,273.300 422.611 C 272.035 421.785,271.360 421.462,271.800 421.894 M376.473 425.700 C 373.049 429.715,370.993 431.707,365.829 436.007 C 363.645 437.826,362.059 439.243,362.304 439.157 C 363.187 438.846,370.657 432.403,373.233 429.731 C 376.101 426.756,379.820 422.400,379.492 422.400 C 379.379 422.400,378.020 423.885,376.473 425.700 M344.000 423.636 C 343.336 424.179,343.269 424.315,343.800 424.040 C 345.105 423.366,345.828 422.812,345.400 422.815 C 345.180 422.817,344.550 423.186,344.000 423.636 M277.824 425.787 C 278.251 426.110,278.780 426.375,279.000 426.375 C 279.220 426.375,279.051 426.110,278.624 425.787 C 278.196 425.464,277.667 425.200,277.447 425.200 C 277.227 425.200,277.396 425.464,277.824 425.787 M284.967 429.017 C 286.269 429.557,287.398 429.935,287.476 429.857 C 287.663 429.671,283.628 427.995,283.047 428.017 C 282.801 428.026,283.665 428.476,284.967 429.017 M333.000 428.991 C 330.353 430.238,330.854 430.253,333.832 429.017 C 335.134 428.476,335.930 428.037,335.600 428.041 C 335.270 428.046,334.100 428.473,333.000 428.991 M246.017 430.242 C 247.925 432.214,252.134 435.757,255.151 437.933 C 256.305 438.765,256.479 438.840,255.616 438.133 C 252.329 435.442,248.071 431.716,246.460 430.122 C 244.129 427.814,243.763 427.914,246.017 430.242 M291.400 431.200 C 292.501 431.673,292.892 431.673,292.600 431.200 C 292.464 430.980,291.958 430.813,291.476 430.828 C 290.631 430.855,290.629 430.869,291.400 431.200 M326.200 431.200 C 325.908 431.673,326.299 431.673,327.400 431.200 C 328.171 430.869,328.169 430.855,327.324 430.828 C 326.842 430.813,326.336 430.980,326.200 431.200 M293.633 431.743 C 294.076 432.122,296.417 432.351,296.196 431.994 C 296.062 431.777,295.393 431.600,294.710 431.600 C 294.026 431.600,293.542 431.664,293.633 431.743 M322.590 432.016 C 322.421 432.289,322.723 432.338,323.466 432.160 C 324.999 431.792,325.144 431.600,323.890 431.600 C 323.317 431.600,322.732 431.787,322.590 432.016 M299.200 432.897 C 300.630 433.151,305.220 433.359,309.400 433.359 C 313.580 433.359,318.170 433.151,319.600 432.897 L 322.200 432.435 319.400 432.705 C 317.860 432.853,313.360 432.975,309.400 432.975 C 305.440 432.975,300.940 432.853,299.400 432.705 L 296.600 432.435 299.200 432.897 M257.200 439.495 C 257.200 439.884,258.814 440.919,259.051 440.682 C 259.147 440.586,258.769 440.210,258.212 439.845 C 257.656 439.480,257.200 439.322,257.200 439.495 M259.600 441.133 C 259.600 441.437,263.227 443.707,263.412 443.519 C 263.477 443.454,262.645 442.828,261.565 442.130 C 260.484 441.431,259.600 440.983,259.600 441.133 M356.900 442.396 C 356.185 442.832,355.600 443.267,355.600 443.363 C 355.600 443.642,357.959 442.389,358.216 441.975 C 358.544 441.444,358.369 441.500,356.900 442.396 M264.000 443.927 C 264.000 444.116,264.450 444.477,265.000 444.727 C 265.550 444.978,266.000 445.117,266.000 445.037 C 266.000 444.957,265.550 444.597,265.000 444.237 C 264.450 443.876,264.000 443.737,264.000 443.927 M353.900 444.229 C 353.295 444.557,352.800 444.910,352.800 445.013 C 352.800 445.399,353.432 445.157,354.400 444.400 C 355.589 443.470,355.411 443.409,353.900 444.229 M274.400 449.400 C 274.950 449.714,275.670 449.971,276.000 449.970 C 276.330 449.969,275.994 449.706,275.254 449.384 C 273.551 448.645,273.094 448.653,274.400 449.400 M343.400 449.414 C 342.740 449.717,342.470 449.966,342.800 449.968 C 343.130 449.970,343.850 449.714,344.400 449.400 C 345.665 448.677,344.989 448.687,343.400 449.414 M332.600 453.087 C 331.500 453.410,329.970 453.829,329.200 454.019 L 327.800 454.363 329.200 454.219 C 330.980 454.035,333.941 453.278,334.765 452.795 C 335.615 452.298,335.004 452.380,332.600 453.087 M287.600 453.821 C 288.590 454.133,289.760 454.378,290.200 454.367 C 290.640 454.355,290.100 454.096,289.000 453.791 C 286.385 453.065,285.276 453.088,287.600 453.821 M291.800 454.800 C 292.240 454.989,293.140 455.135,293.800 455.125 L 295.000 455.105 293.800 454.800 C 293.140 454.632,292.240 454.486,291.800 454.475 L 291.000 454.456 291.800 454.800 M325.200 454.800 L 323.800 455.095 325.200 455.141 C 325.970 455.167,326.870 455.013,327.200 454.800 C 327.927 454.330,327.433 454.330,325.200 454.800 M296.800 455.577 C 297.339 455.946,300.768 456.210,300.367 455.851 C 300.275 455.769,299.300 455.582,298.200 455.435 C 296.780 455.245,296.374 455.286,296.800 455.577 M319.600 455.600 L 318.200 455.895 319.800 455.941 C 320.680 455.967,321.670 455.813,322.000 455.600 C 322.724 455.132,321.823 455.132,319.600 455.600 M307.400 456.400 C 308.496 456.871,310.871 456.871,311.600 456.400 C 312.017 456.130,311.347 456.019,309.400 456.034 C 307.469 456.049,306.848 456.163,307.400 456.400 " stroke="none" fill="#8190c4" fill-rule="evenodd"></path><path id="path4" d="M300.600 278.822 C 299.629 279.009,300.415 279.047,302.600 278.917 C 304.580 278.800,306.275 278.635,306.367 278.552 C 306.651 278.292,302.286 278.497,300.600 278.822 M314.800 278.817 C 316.010 278.984,317.720 279.115,318.600 279.107 C 320.145 279.094,320.131 279.082,318.200 278.782 C 317.100 278.610,315.390 278.480,314.400 278.491 L 312.600 278.513 314.800 278.817 M293.200 279.851 L 291.000 280.391 293.000 280.146 C 294.100 280.011,295.810 279.767,296.800 279.604 L 298.600 279.307 297.000 279.309 C 296.120 279.310,294.410 279.554,293.200 279.851 M321.505 279.483 C 322.002 279.579,322.722 279.575,323.105 279.475 C 323.487 279.375,323.080 279.296,322.200 279.301 C 321.320 279.305,321.007 279.387,321.505 279.483 M324.600 279.990 C 325.364 280.328,327.914 280.557,327.567 280.256 C 327.475 280.176,326.590 280.004,325.600 279.873 C 324.398 279.714,324.066 279.753,324.600 279.990 M289.000 280.800 C 288.496 281.017,288.422 281.144,288.800 281.144 C 289.130 281.144,289.760 280.989,290.200 280.800 C 290.704 280.583,290.778 280.456,290.400 280.456 C 290.070 280.456,289.440 280.611,289.000 280.800 M329.000 280.800 C 329.440 280.989,330.160 281.138,330.600 281.132 C 331.243 281.123,331.204 281.057,330.400 280.800 C 329.032 280.362,327.981 280.362,329.000 280.800 M285.600 281.600 C 285.067 281.945,285.067 281.988,285.600 281.988 C 285.930 281.988,286.470 281.813,286.800 281.600 C 287.333 281.255,287.333 281.212,286.800 281.212 C 286.470 281.212,285.930 281.387,285.600 281.600 M280.100 283.076 C 280.485 283.176,281.115 283.176,281.500 283.076 C 281.885 282.975,281.570 282.893,280.800 282.893 C 280.030 282.893,279.715 282.975,280.100 283.076 M272.000 286.600 C 271.010 287.130,270.380 287.564,270.600 287.564 C 270.820 287.564,271.810 287.130,272.800 286.600 C 273.790 286.070,274.420 285.636,274.200 285.636 C 273.980 285.636,272.990 286.070,272.000 286.600 M344.454 285.787 C 344.790 286.123,347.600 287.216,347.600 287.011 C 347.600 286.901,346.948 286.538,346.151 286.205 C 344.675 285.589,344.118 285.451,344.454 285.787 M348.624 287.787 C 349.051 288.110,349.580 288.375,349.800 288.375 C 350.020 288.375,349.851 288.110,349.424 287.787 C 348.996 287.464,348.467 287.200,348.247 287.200 C 348.027 287.200,348.196 287.464,348.624 287.787 M267.100 289.029 C 265.605 289.840,265.696 290.178,267.200 289.400 C 267.860 289.059,268.400 288.694,268.400 288.590 C 268.400 288.332,268.357 288.347,267.100 289.029 M352.200 289.481 C 352.420 289.708,353.500 290.397,354.600 291.013 C 355.700 291.628,356.420 291.946,356.200 291.719 C 355.980 291.492,354.900 290.803,353.800 290.187 C 352.700 289.572,351.980 289.254,352.200 289.481 M263.007 291.422 C 261.911 292.180,261.135 292.800,261.281 292.800 C 261.603 292.800,265.600 290.339,265.600 290.140 C 265.600 289.779,264.840 290.155,263.007 291.422 M258.900 294.040 C 257.965 294.702,257.200 295.333,257.200 295.441 C 257.200 295.550,258.010 295.081,259.000 294.400 C 259.990 293.719,260.800 293.080,260.800 292.981 C 260.800 292.705,260.724 292.748,258.900 294.040 M360.400 294.546 C 360.400 294.656,360.940 295.130,361.600 295.600 C 362.260 296.070,362.800 296.364,362.800 296.254 C 362.800 296.144,362.260 295.670,361.600 295.200 C 360.940 294.730,360.400 294.436,360.400 294.546 M363.200 296.526 C 363.200 296.636,364.100 297.479,365.200 298.400 C 366.300 299.321,367.200 299.984,367.200 299.874 C 367.200 299.764,366.300 298.921,365.200 298.000 C 364.100 297.079,363.200 296.416,363.200 296.526 M253.373 298.301 C 251.663 299.877,252.088 299.688,254.331 297.876 C 255.063 297.284,255.513 296.800,255.331 296.801 C 255.149 296.802,254.268 297.477,253.373 298.301 M367.600 300.057 C 367.600 300.190,369.238 301.897,371.240 303.850 C 373.241 305.802,376.063 308.840,377.510 310.600 C 380.302 313.997,381.855 315.702,380.788 314.200 C 378.311 310.716,367.600 299.229,367.600 300.057 M299.600 301.029 L 297.000 301.560 299.400 301.280 C 302.524 300.916,316.310 300.918,319.400 301.284 L 321.800 301.569 319.000 301.009 C 315.376 300.284,303.181 300.297,299.600 301.029 M245.233 305.863 C 242.571 308.648,240.477 311.011,240.580 311.114 C 240.683 311.216,241.262 310.693,241.868 309.950 C 242.473 309.208,244.674 306.845,246.759 304.700 C 248.844 302.555,250.443 300.800,250.312 300.800 C 250.180 300.800,247.895 303.079,245.233 305.863 M294.400 302.000 C 293.608 302.254,293.567 302.320,294.200 302.320 C 294.640 302.320,295.450 302.176,296.000 302.000 C 296.792 301.746,296.833 301.680,296.200 301.680 C 295.760 301.680,294.950 301.824,294.400 302.000 M323.000 302.000 C 323.440 302.189,324.160 302.344,324.600 302.344 L 325.400 302.344 324.600 302.000 C 324.160 301.811,323.440 301.656,323.000 301.656 L 322.200 301.656 323.000 302.000 M326.400 302.800 C 326.730 303.013,327.270 303.188,327.600 303.188 C 328.133 303.188,328.133 303.145,327.600 302.800 C 327.270 302.587,326.730 302.412,326.400 302.412 C 325.867 302.412,325.867 302.455,326.400 302.800 M288.600 303.600 C 288.308 304.073,288.699 304.073,289.800 303.600 C 290.571 303.269,290.569 303.255,289.724 303.228 C 289.242 303.213,288.736 303.380,288.600 303.600 M286.200 304.400 C 285.908 304.873,286.299 304.873,287.400 304.400 C 288.171 304.069,288.169 304.055,287.324 304.028 C 286.842 304.013,286.336 304.180,286.200 304.400 M334.346 305.416 C 335.086 305.737,335.806 305.994,335.946 305.986 C 336.466 305.957,334.176 304.828,333.600 304.830 C 333.270 304.831,333.606 305.094,334.346 305.416 M282.400 306.000 C 281.630 306.422,281.180 306.766,281.400 306.766 C 281.620 306.766,282.430 306.422,283.200 306.000 C 283.970 305.578,284.420 305.234,284.200 305.234 C 283.980 305.234,283.170 305.578,282.400 306.000 M276.473 308.884 C 275.303 309.542,274.427 310.160,274.525 310.258 C 274.672 310.405,278.610 308.284,279.167 307.758 C 279.673 307.279,278.330 307.841,276.473 308.884 M341.600 308.821 C 342.642 309.530,344.400 310.428,344.400 310.250 C 344.400 310.028,341.639 308.398,341.277 308.406 C 341.125 308.409,341.270 308.596,341.600 308.821 M270.600 312.691 C 267.292 315.033,260.062 321.792,257.861 324.600 C 257.171 325.480,258.701 324.040,261.261 321.400 C 263.821 318.760,267.393 315.520,269.198 314.200 C 273.087 311.357,274.271 310.427,274.000 310.426 C 273.890 310.426,272.360 311.445,270.600 312.691 M238.759 313.300 C 236.743 315.922,236.689 316.000,236.903 316.000 C 237.013 316.000,237.851 315.010,238.765 313.800 C 239.678 312.590,240.345 311.600,240.247 311.600 C 240.148 311.600,239.479 312.365,238.759 313.300 M298.402 311.900 C 298.403 312.065,302.588 312.206,307.702 312.212 C 312.816 312.219,316.100 312.100,315.000 311.948 C 312.262 311.568,298.400 311.528,298.402 311.900 M348.171 312.885 C 348.815 313.388,350.570 314.843,352.071 316.119 C 353.572 317.394,354.790 318.294,354.777 318.119 C 354.750 317.731,350.407 314.150,348.430 312.885 L 347.000 311.970 348.171 312.885 M319.000 312.800 C 319.440 312.989,320.160 313.144,320.600 313.144 L 321.400 313.144 320.600 312.800 C 320.160 312.611,319.440 312.456,319.000 312.456 L 318.200 312.456 319.000 312.800 M322.033 313.344 C 322.125 313.423,322.740 313.608,323.400 313.756 C 324.276 313.952,324.438 313.915,324.000 313.618 C 323.460 313.253,321.632 312.998,322.033 313.344 M326.200 314.612 C 328.273 315.358,328.994 315.340,327.254 314.584 C 326.514 314.263,325.614 314.008,325.254 314.018 C 324.894 314.027,325.320 314.295,326.200 314.612 M383.200 318.200 C 384.313 319.850,385.314 321.200,385.424 321.200 C 385.534 321.200,384.713 319.850,383.600 318.200 C 382.487 316.550,381.486 315.200,381.376 315.200 C 381.266 315.200,382.087 316.550,383.200 318.200 M235.278 318.100 C 233.958 320.036,233.092 321.600,233.341 321.600 C 233.434 321.600,234.244 320.430,235.141 319.000 C 236.969 316.084,237.060 315.489,235.278 318.100 M335.557 318.614 C 336.524 319.167,337.396 319.537,337.496 319.437 C 337.689 319.244,334.650 317.597,334.116 317.605 C 333.942 317.607,334.591 318.062,335.557 318.614 M356.000 319.325 C 356.000 319.394,356.585 319.979,357.300 320.625 L 358.600 321.800 357.425 320.500 C 356.330 319.288,356.000 319.016,356.000 319.325 M385.615 321.800 C 385.617 322.020,385.986 322.650,386.436 323.200 C 386.979 323.864,387.115 323.931,386.840 323.400 C 386.166 322.095,385.612 321.372,385.615 321.800 M358.800 322.216 C 358.800 322.447,362.581 327.115,363.323 327.800 C 363.561 328.020,363.238 327.480,362.606 326.600 C 361.271 324.743,358.800 321.897,358.800 322.216 M230.470 326.312 C 228.926 329.279,227.721 332.012,228.142 331.592 C 228.495 331.238,232.344 323.410,232.223 323.290 C 232.158 323.224,231.369 324.584,230.470 326.312 M344.400 324.056 C 344.400 324.187,346.093 325.955,348.163 327.984 C 350.232 330.014,352.527 332.557,353.263 333.636 C 353.998 334.716,354.733 335.599,354.897 335.599 C 355.499 335.601,351.552 330.892,348.030 327.408 C 346.034 325.433,344.400 323.924,344.400 324.056 M388.000 326.247 C 388.000 326.467,388.264 326.996,388.587 327.424 C 388.910 327.851,389.175 328.020,389.175 327.800 C 389.175 327.580,388.910 327.051,388.587 326.624 C 388.264 326.196,388.000 326.027,388.000 326.247 M255.195 327.923 C 253.757 330.042,253.542 330.400,253.712 330.400 C 253.974 330.400,256.492 326.759,256.338 326.604 C 256.257 326.523,255.743 327.117,255.195 327.923 M365.297 330.966 C 366.234 332.377,367.052 333.480,367.115 333.418 C 367.310 333.224,364.219 328.409,363.897 328.404 C 363.731 328.402,364.361 329.555,365.297 330.966 M390.150 330.400 C 390.501 331.699,391.709 334.424,391.865 334.268 C 391.956 334.178,391.570 333.135,391.009 331.952 C 390.447 330.768,390.061 330.070,390.150 330.400 M226.600 334.661 C 226.264 335.465,226.077 336.210,226.184 336.317 C 226.352 336.485,226.637 335.871,227.399 333.700 C 227.805 332.544,227.161 333.319,226.600 334.661 M249.579 337.241 C 248.683 339.024,248.014 340.547,248.093 340.626 C 248.172 340.705,248.992 339.247,249.915 337.385 C 250.839 335.523,251.507 334.000,251.402 334.000 C 251.296 334.000,250.476 335.459,249.579 337.241 M355.203 336.073 C 355.199 336.409,357.660 340.400,357.870 340.400 C 357.953 340.400,357.754 339.905,357.429 339.300 C 356.612 337.779,355.206 335.742,355.203 336.073 M368.800 336.932 C 368.800 337.005,369.249 337.950,369.798 339.032 C 370.987 341.375,371.156 340.887,369.991 338.475 C 369.307 337.059,368.800 336.403,368.800 336.932 M358.678 342.195 C 359.044 342.962,359.414 343.519,359.501 343.432 C 359.684 343.249,358.470 340.800,358.196 340.800 C 358.095 340.800,358.312 341.428,358.678 342.195 M223.631 343.631 C 223.347 344.740,223.190 345.723,223.283 345.817 C 223.376 345.910,223.685 345.078,223.969 343.969 C 224.253 342.860,224.410 341.877,224.317 341.783 C 224.224 341.690,223.915 342.522,223.631 343.631 M394.424 342.000 C 394.417 342.330,394.671 343.320,394.988 344.200 C 395.305 345.080,395.570 345.530,395.576 345.200 C 395.583 344.870,395.329 343.880,395.012 343.000 C 394.695 342.120,394.430 341.670,394.424 342.000 M359.600 344.036 C 359.600 344.153,359.960 344.995,360.400 345.906 C 360.840 346.816,361.200 347.780,361.200 348.047 C 361.200 348.315,361.314 348.419,361.454 348.279 C 361.734 347.999,360.956 345.845,360.129 344.611 C 359.838 344.177,359.600 343.918,359.600 344.036 M395.656 346.600 C 395.656 347.040,395.811 347.760,396.000 348.200 L 396.344 349.000 396.344 348.200 C 396.344 347.760,396.189 347.040,396.000 346.600 L 395.656 345.800 395.656 346.600 M222.600 347.600 C 222.448 348.291,222.414 348.947,222.524 349.057 C 222.634 349.167,222.848 348.691,223.000 348.000 C 223.152 347.309,223.186 346.653,223.076 346.543 C 222.966 346.433,222.752 346.909,222.600 347.600 M373.206 347.833 C 373.209 348.255,373.395 348.870,373.618 349.200 C 373.915 349.638,373.952 349.476,373.756 348.600 C 373.427 347.129,373.198 346.810,373.206 347.833 M244.861 349.331 C 244.564 350.340,244.415 351.398,244.529 351.683 C 244.643 351.967,244.751 351.783,244.768 351.274 C 244.786 350.764,244.991 349.990,245.225 349.553 C 245.459 349.116,245.594 348.474,245.525 348.127 C 245.456 347.780,245.157 348.322,244.861 349.331 M396.480 350.400 C 396.480 350.950,396.624 351.850,396.800 352.400 L 397.120 353.400 397.120 352.400 C 397.120 351.850,396.976 350.950,396.800 350.400 L 396.480 349.400 396.480 350.400 M221.854 351.554 C 221.700 352.518,221.658 353.391,221.761 353.494 C 222.030 353.763,222.515 350.945,222.307 350.322 C 222.212 350.036,222.008 350.590,221.854 351.554 M374.434 352.400 C 374.446 352.730,374.611 353.360,374.800 353.800 L 375.144 354.600 375.166 353.800 C 375.178 353.360,375.013 352.730,374.800 352.400 C 374.455 351.867,374.415 351.867,374.434 352.400 M243.800 353.600 C 243.648 354.291,243.607 354.941,243.709 355.042 C 243.811 355.144,244.009 354.653,244.150 353.950 C 244.291 353.247,244.331 352.598,244.241 352.508 C 244.150 352.417,243.952 352.909,243.800 353.600 M363.268 354.600 C 363.262 355.040,363.411 355.760,363.600 356.200 C 364.038 357.219,364.038 356.168,363.600 354.800 C 363.343 353.996,363.277 353.957,363.268 354.600 M397.293 355.800 C 397.294 356.680,397.432 357.940,397.600 358.600 L 397.905 359.800 397.930 358.600 C 397.943 357.940,397.805 356.680,397.623 355.800 L 397.292 354.200 397.293 355.800 M221.013 357.813 C 220.857 359.271,220.814 360.547,220.916 360.650 C 221.019 360.752,221.231 359.644,221.387 358.187 C 221.543 356.729,221.586 355.453,221.484 355.350 C 221.381 355.248,221.169 356.356,221.013 357.813 M375.459 358.200 C 375.593 359.300,375.769 360.275,375.851 360.367 C 376.164 360.717,375.926 357.761,375.580 357.000 C 375.335 356.461,375.295 356.854,375.459 358.200 M243.069 357.956 C 242.921 358.695,242.821 359.863,242.847 360.550 C 242.879 361.412,243.005 361.125,243.255 359.623 C 243.653 357.221,243.497 355.817,243.069 357.956 M364.101 359.000 C 364.105 359.880,364.187 360.193,364.283 359.695 C 364.379 359.198,364.375 358.478,364.275 358.095 C 364.175 357.713,364.096 358.120,364.101 359.000 M364.509 362.400 C 364.509 363.390,364.587 363.795,364.682 363.300 C 364.778 362.805,364.778 361.995,364.682 361.500 C 364.587 361.005,364.509 361.410,364.509 362.400 M376.146 367.000 C 376.147 369.200,376.214 370.049,376.295 368.887 C 376.376 367.724,376.376 365.924,376.293 364.887 C 376.211 363.849,376.145 364.800,376.146 367.000 M364.965 371.200 C 364.965 375.050,365.025 376.625,365.098 374.700 C 365.171 372.775,365.171 369.625,365.098 367.700 C 365.025 365.775,364.965 367.350,364.965 371.200 M398.131 367.000 C 398.133 368.540,398.205 369.121,398.292 368.291 C 398.379 367.461,398.377 366.201,398.289 365.491 C 398.200 364.781,398.129 365.460,398.131 367.000 M242.840 374.033 C 242.862 375.005,243.031 376.250,243.216 376.800 C 243.426 377.427,243.466 376.830,243.323 375.200 C 243.055 372.156,242.783 371.498,242.840 374.033 M220.000 375.000 C 220.000 375.978,220.181 376.400,220.600 376.400 C 221.024 376.400,221.200 376.830,221.200 377.867 C 221.200 378.673,221.306 379.227,221.435 379.098 C 221.925 378.608,221.122 373.600,220.553 373.600 C 220.188 373.600,220.000 374.075,220.000 375.000 M375.664 374.650 C 375.629 375.118,375.505 376.108,375.389 376.850 C 375.196 378.086,375.215 378.117,375.608 377.214 C 375.845 376.672,375.968 375.682,375.883 375.014 C 375.791 374.297,375.702 374.148,375.664 374.650 M397.400 377.200 C 397.244 378.547,397.206 379.739,397.316 379.849 C 397.426 379.959,397.644 378.947,397.800 377.600 C 397.956 376.253,397.994 375.061,397.884 374.951 C 397.774 374.841,397.556 375.853,397.400 377.200 M315.100 378.300 C 324.175 378.360,339.025 378.360,348.100 378.300 C 357.175 378.240,349.750 378.191,331.600 378.191 C 313.450 378.191,306.025 378.240,315.100 378.300 M243.668 379.800 C 243.662 380.240,243.811 380.960,244.000 381.400 C 244.438 382.419,244.438 381.368,244.000 380.000 C 243.743 379.196,243.677 379.157,243.668 379.800 M374.650 380.850 C 374.509 381.553,374.469 382.202,374.559 382.292 C 374.650 382.383,374.848 381.891,375.000 381.200 C 375.152 380.509,375.193 379.859,375.091 379.758 C 374.989 379.656,374.791 380.147,374.650 380.850 M221.838 382.600 C 222.170 384.584,222.402 384.904,222.394 383.367 C 222.391 382.725,222.204 381.930,221.979 381.600 C 221.686 381.170,221.646 381.454,221.838 382.600 M396.600 382.800 C 396.446 383.710,396.411 384.544,396.521 384.654 C 396.631 384.764,396.846 384.110,397.000 383.200 C 397.154 382.290,397.189 381.456,397.079 381.346 C 396.969 381.236,396.754 381.890,396.600 382.800 M244.424 383.200 C 244.417 383.530,244.671 384.520,244.988 385.400 C 245.305 386.280,245.570 386.730,245.576 386.400 C 245.583 386.070,245.329 385.080,245.012 384.200 C 244.695 383.320,244.430 382.870,244.424 383.200 M373.631 384.831 C 373.347 385.940,373.190 386.923,373.283 387.017 C 373.376 387.110,373.685 386.278,373.969 385.169 C 374.253 384.060,374.410 383.077,374.317 382.983 C 374.224 382.890,373.915 383.722,373.631 384.831 M222.396 385.500 C 222.387 386.163,224.161 392.772,224.308 392.625 C 224.493 392.441,222.781 385.200,222.553 385.200 C 222.469 385.200,222.398 385.335,222.396 385.500 M395.626 387.660 C 395.391 388.617,395.020 389.953,394.800 390.628 C 394.580 391.304,394.415 392.114,394.434 392.428 C 394.472 393.053,394.917 391.782,395.830 388.443 C 396.154 387.257,396.337 386.204,396.236 386.103 C 396.135 386.002,395.861 386.702,395.626 387.660 M248.021 393.704 C 247.990 394.159,249.679 397.654,249.849 397.485 C 249.929 397.404,249.555 396.452,249.018 395.369 C 248.481 394.286,248.033 393.537,248.021 393.704 M370.270 394.210 C 370.121 394.645,369.891 395.270,369.758 395.600 C 369.626 395.930,369.819 395.790,370.188 395.290 C 370.558 394.789,370.788 394.164,370.700 393.900 C 370.610 393.631,370.422 393.767,370.270 394.210 M226.000 397.951 C 226.000 398.441,227.173 401.200,227.381 401.200 C 227.475 401.200,227.275 400.390,226.938 399.400 C 226.362 397.708,226.000 397.150,226.000 397.951 M391.255 401.055 C 390.565 402.748,390.066 404.199,390.146 404.279 C 390.226 404.359,390.856 403.039,391.545 401.345 C 392.235 399.652,392.734 398.201,392.654 398.121 C 392.574 398.041,391.944 399.361,391.255 401.055 M366.092 402.229 C 365.597 402.983,365.272 403.600,365.369 403.600 C 365.647 403.600,367.304 401.171,367.139 401.006 C 367.057 400.924,366.586 401.474,366.092 402.229 M253.854 404.500 C 254.609 405.751,256.400 408.090,256.400 407.825 C 256.400 407.489,253.946 404.000,253.709 404.000 C 253.623 404.000,253.689 404.225,253.854 404.500 M362.911 406.800 C 361.773 408.340,360.968 409.598,361.121 409.595 C 361.358 409.591,363.903 406.195,364.920 404.525 C 365.736 403.186,364.791 404.256,362.911 406.800 M230.432 408.015 C 231.352 409.783,232.166 411.168,232.241 411.092 C 232.414 410.919,229.220 404.800,228.956 404.800 C 228.848 404.800,229.512 406.247,230.432 408.015 M387.267 409.467 C 386.759 410.242,386.423 410.957,386.522 411.055 C 386.620 411.154,387.090 410.574,387.567 409.767 C 388.690 407.863,388.465 407.638,387.267 409.467 M257.939 409.800 C 259.401 411.715,262.787 415.264,265.000 417.200 C 265.880 417.970,264.857 416.800,262.728 414.600 C 260.598 412.400,258.374 410.060,257.786 409.400 C 257.004 408.522,257.045 408.629,257.939 409.800 M383.703 415.400 C 382.341 417.490,381.305 419.200,381.401 419.200 C 381.603 419.200,385.244 413.840,385.952 412.500 C 386.930 410.652,386.105 411.714,383.703 415.400 M356.889 413.858 C 356.167 414.596,355.729 415.200,355.914 415.200 C 356.337 415.200,358.602 412.860,358.371 412.662 C 358.277 412.582,357.610 413.120,356.889 413.858 M233.643 413.700 C 234.429 415.202,238.035 420.331,238.682 420.868 C 239.015 421.144,238.259 419.938,237.003 418.186 C 235.746 416.435,234.462 414.506,234.149 413.901 C 233.836 413.295,233.488 412.800,233.376 412.800 C 233.264 412.800,233.384 413.205,233.643 413.700 M378.400 422.800 C 377.479 423.900,376.816 424.800,376.926 424.800 C 377.036 424.800,377.879 423.900,378.800 422.800 C 379.721 421.700,380.384 420.800,380.274 420.800 C 380.164 420.800,379.321 421.700,378.400 422.800 M270.400 421.401 C 270.400 421.690,275.252 424.881,275.427 424.707 C 275.517 424.616,274.424 423.797,272.996 422.887 C 271.568 421.976,270.400 421.308,270.400 421.401 M345.703 422.904 C 344.330 423.804,343.281 424.614,343.372 424.706 C 343.554 424.887,348.400 421.686,348.400 421.385 C 348.400 421.130,348.488 421.080,345.703 422.904 M240.400 423.325 C 240.400 423.394,240.985 423.979,241.700 424.625 L 243.000 425.800 241.825 424.500 C 240.730 423.288,240.400 423.016,240.400 423.325 M371.768 430.004 C 369.110 432.642,367.043 434.800,367.174 434.800 C 367.305 434.800,369.567 432.640,372.200 430.000 C 374.833 427.360,376.900 425.202,376.794 425.204 C 376.687 425.207,374.425 427.367,371.768 430.004 M277.233 425.757 C 277.683 426.181,280.513 427.620,280.642 427.491 C 280.724 427.410,280.055 426.951,279.157 426.472 C 277.670 425.677,276.810 425.358,277.233 425.757 M339.502 426.504 C 338.679 426.963,338.073 427.406,338.155 427.489 C 338.286 427.620,341.112 426.185,341.567 425.757 C 342.014 425.335,340.836 425.762,339.502 426.504 M246.000 429.343 C 247.870 431.277,250.300 433.597,251.400 434.500 C 253.775 436.449,253.264 435.924,247.200 430.183 C 242.901 426.113,242.822 426.058,246.000 429.343 M287.946 430.616 C 288.686 430.937,289.586 431.192,289.946 431.182 C 290.306 431.173,289.880 430.905,289.000 430.588 C 286.927 429.842,286.206 429.860,287.946 430.616 M329.600 430.625 C 328.830 430.916,328.494 431.165,328.854 431.177 C 329.214 431.190,330.114 430.937,330.854 430.616 C 332.520 429.892,331.516 429.900,329.600 430.625 M291.200 431.582 C 291.530 431.805,292.145 431.991,292.567 431.994 C 293.590 432.002,293.271 431.773,291.800 431.444 C 290.924 431.248,290.762 431.285,291.200 431.582 M326.400 431.600 C 325.576 431.864,325.541 431.926,326.200 431.954 C 326.640 431.973,327.270 431.813,327.600 431.600 C 328.301 431.147,327.814 431.147,326.400 431.600 M294.400 432.400 C 294.730 432.613,295.360 432.778,295.800 432.766 L 296.600 432.744 295.800 432.400 C 294.604 431.886,293.605 431.886,294.400 432.400 M323.000 432.400 L 322.200 432.744 323.000 432.766 C 323.440 432.778,324.070 432.613,324.400 432.400 C 325.195 431.886,324.196 431.886,323.000 432.400 M298.600 433.180 C 299.361 433.526,302.317 433.764,301.967 433.451 C 301.875 433.369,300.900 433.193,299.800 433.059 C 298.454 432.895,298.061 432.935,298.600 433.180 M318.200 433.200 L 317.000 433.505 318.200 433.525 C 318.860 433.535,319.760 433.389,320.200 433.200 L 321.000 432.856 320.200 432.875 C 319.760 432.886,318.860 433.032,318.200 433.200 M306.120 433.898 C 308.055 433.972,311.115 433.971,312.920 433.897 C 314.724 433.823,313.140 433.763,309.400 433.764 C 305.660 433.764,304.184 433.825,306.120 433.898 M364.567 436.629 L 363.000 438.058 364.700 436.762 C 366.253 435.578,366.632 435.200,366.267 435.200 C 366.193 435.200,365.428 435.843,364.567 436.629 M257.200 438.997 C 257.200 439.095,258.505 440.053,260.100 441.126 C 263.039 443.103,265.331 444.419,264.600 443.710 C 263.988 443.117,257.200 438.793,257.200 438.997 M359.700 440.040 C 358.765 440.702,358.000 441.333,358.000 441.441 C 358.000 441.550,358.810 441.081,359.800 440.400 C 360.790 439.719,361.600 439.080,361.600 438.981 C 361.600 438.705,361.524 438.748,359.700 440.040 M353.281 444.066 C 351.675 444.962,350.436 445.769,350.526 445.859 C 350.702 446.036,356.400 442.841,356.400 442.565 C 356.400 442.322,356.442 442.302,353.281 444.066 M266.000 444.579 C 266.000 444.689,266.540 445.059,267.200 445.400 C 267.860 445.741,268.400 445.931,268.400 445.821 C 268.400 445.711,267.860 445.341,267.200 445.000 C 266.540 444.659,266.000 444.469,266.000 444.579 M345.200 448.200 C 344.650 448.514,344.380 448.772,344.600 448.772 C 344.820 448.772,345.450 448.514,346.000 448.200 C 346.550 447.886,346.820 447.628,346.600 447.628 C 346.380 447.628,345.750 447.886,345.200 448.200 M282.200 451.812 C 283.080 452.129,284.070 452.383,284.400 452.376 C 284.730 452.370,284.280 452.105,283.400 451.788 C 282.520 451.471,281.530 451.217,281.200 451.224 C 280.870 451.230,281.320 451.495,282.200 451.812 M335.600 451.800 C 334.830 452.097,334.470 452.339,334.800 452.339 C 335.130 452.339,336.030 452.097,336.800 451.800 C 337.570 451.503,337.930 451.261,337.600 451.261 C 337.270 451.261,336.370 451.503,335.600 451.800 M332.200 452.800 C 331.696 453.017,331.622 453.144,332.000 453.144 C 332.330 453.144,332.960 452.989,333.400 452.800 C 333.904 452.583,333.978 452.456,333.600 452.456 C 333.270 452.456,332.640 452.611,332.200 452.800 M288.600 453.600 C 289.796 454.114,290.795 454.114,290.000 453.600 C 289.670 453.387,289.040 453.222,288.600 453.234 L 287.800 453.256 288.600 453.600 M329.000 453.600 C 328.496 453.817,328.422 453.944,328.800 453.944 C 329.130 453.944,329.760 453.789,330.200 453.600 C 330.704 453.383,330.778 453.256,330.400 453.256 C 330.070 453.256,329.440 453.411,329.000 453.600 M292.200 454.400 C 292.860 454.568,293.760 454.714,294.200 454.725 L 295.000 454.744 294.200 454.400 C 293.760 454.211,292.860 454.065,292.200 454.075 L 291.000 454.095 292.200 454.400 M324.600 454.400 L 323.800 454.744 324.600 454.725 C 325.040 454.714,325.940 454.568,326.600 454.400 L 327.800 454.095 326.600 454.075 C 325.940 454.065,325.040 454.211,324.600 454.400 M297.600 455.220 C 300.014 455.650,301.906 455.613,299.800 455.177 C 298.920 454.995,297.660 454.858,297.000 454.873 C 296.100 454.893,296.250 454.980,297.600 455.220 M318.800 455.200 C 316.801 455.621,318.852 455.638,321.200 455.220 C 322.824 454.932,322.863 454.900,321.600 454.903 C 320.830 454.904,319.570 455.038,318.800 455.200 M305.900 455.898 C 307.935 455.971,311.265 455.971,313.300 455.898 C 315.335 455.825,313.670 455.766,309.600 455.766 C 305.530 455.766,303.865 455.825,305.900 455.898 " stroke="none" fill="#a4b4d4" fill-rule="evenodd"></path></g></svg>