 <svg  version="1.0" xmlns="http://www.w3.org/2000/svg"  width="300.000000pt" height="343.000000pt" viewBox="0 0 300.000000 343.000000"  preserveAspectRatio="xMidYMid meet">  <g transform="translate(0.000000,343.000000) scale(0.100000,-0.100000)" fill="#325096" stroke="none"> <path d="M765 3410 c-96 -43 -125 -109 -125 -286 l0 -124 -189 0 c-234 0 -269 -9 -351 -90 -89 -87 -100 -126 -100 -360 l0 -190 1500 0 1500 0 0 190 c0 234 -11 273 -100 360 -82 81 -117 90 -351 90 l-189 0 0 124 c0 138 -13 192 -58 240 -91 96 -264 83 -338 -27 -28 -41 -29 -46 -32 -189 l-4 -148 -428 0 -428 0 -4 148 c-3 143 -4 148 -32 189 -56 83 -178 116 -271 73z"/> <path d="M0 1200 c0 -937 0 -939 22 -997 29 -77 104 -152 181 -181 l58 -22 1239 0 1239 0 58 22 c77 29 152 104 181 181 22 58 22 60 22 997 l0 940 -1500 0 -1500 0 0 -940z"/> </g> </svg> 