 <svg  version="1.0" xmlns="http://www.w3.org/2000/svg"  width="300.000000pt" height="343.000000pt" viewBox="0 0 300.000000 343.000000"  preserveAspectRatio="xMidYMid meet">  <g transform="translate(0.000000,343.000000) scale(0.100000,-0.100000)" fill="#323c96" stroke="none"> <path d="M780 3413 c-19 -10 -45 -33 -57 -52 -22 -32 -23 -44 -23 -197 l0 -162 -192 -4 -193 -3 -68 -32 c-115 -55 -198 -156 -234 -283 -18 -67 -18 -2295 1 -2360 46 -161 160 -272 318 -309 66 -15 2270 -15 2336 0 158 37 272 148 318 309 19 65 19 2293 1 2360 -36 127 -119 228 -234 283 l-68 32 -192 3 -193 4 0 162 c0 153 -1 165 -23 197 -46 68 -161 90 -225 42 -63 -47 -67 -60 -70 -239 l-3 -164 -479 0 -479 0 -3 164 c-3 179 -7 192 -71 240 -36 27 -121 32 -167 9z m78 -1455 l2 -188 -270 0 -270 0 0 183 c0 101 3 187 7 190 4 4 124 6 267 5 l261 -3 3 -187z m962 2 l0 -190 -320 0 -320 0 0 190 0 190 320 0 320 0 0 -190z m858 -2 l2 -188 -270 0 -270 0 0 183 c0 101 3 187 7 190 4 4 124 6 267 5 l261 -3 3 -187z m-1818 -723 l0 -215 -270 0 -270 0 0 215 0 215 270 0 270 0 0 -215z m960 0 l0 -215 -320 0 -320 0 0 215 0 215 320 0 320 0 0 -215z m860 0 l0 -215 -270 0 -270 0 0 215 0 215 270 0 270 0 0 -215z m-1820 -726 l0 -191 -235 4 -235 3 -32 33 -33 32 -4 155 -3 155 271 0 271 0 0 -191z m960 1 l0 -190 -320 0 -320 0 0 190 0 190 320 0 320 0 0 -190z m859 35 l-4 -155 -33 -32 -32 -33 -235 -3 -235 -4 0 191 0 191 271 0 271 0 -3 -155z"/> </g> </svg> 