<svg id="svg" version="1.1" xmlns="http://www.w3.org/2000/svg" xmlns:xlink="http://www.w3.org/1999/xlink" width="400" height="457.14285714285717" viewBox="0, 0, 400,457.14285714285717"><g id="svgg"><path id="path0" d="M105.800 0.276 C 105.140 0.383,104.408 0.629,104.173 0.823 C 103.939 1.017,103.194 1.218,102.517 1.270 C 101.699 1.332,101.354 1.537,101.487 1.882 C 101.618 2.224,101.332 2.400,100.643 2.400 C 100.069 2.400,99.600 2.580,99.600 2.800 C 99.600 3.020,99.285 3.200,98.900 3.200 C 98.082 3.201,96.000 4.885,96.000 5.547 C 96.000 5.796,95.678 6.000,95.283 6.000 C 94.366 6.000,91.600 8.592,91.600 9.453 C 91.600 10.082,89.718 11.999,89.100 12.000 C 88.935 12.000,88.800 12.450,88.800 13.000 C 88.800 13.550,88.620 14.000,88.400 14.000 C 88.180 14.000,88.000 14.360,88.000 14.800 C 88.000 15.240,87.820 15.600,87.600 15.600 C 87.380 15.600,87.200 16.230,87.200 17.000 C 87.200 17.932,87.013 18.400,86.641 18.400 C 86.256 18.400,86.103 18.837,86.148 19.807 C 86.195 20.798,86.065 21.157,85.707 21.020 C 85.302 20.864,85.200 24.449,85.200 38.813 L 85.200 56.800 59.400 56.800 C 42.467 56.800,33.600 56.937,33.600 57.200 C 33.600 57.420,32.790 57.600,31.800 57.600 C 30.810 57.600,30.000 57.780,30.000 58.000 C 30.000 58.220,29.370 58.400,28.600 58.400 C 27.579 58.400,27.200 58.575,27.200 59.045 C 27.200 59.569,26.929 59.638,25.746 59.416 C 24.526 59.187,24.331 59.244,24.534 59.772 C 24.713 60.238,24.521 60.400,23.787 60.400 C 23.244 60.400,22.800 60.580,22.800 60.800 C 22.800 61.020,22.390 61.200,21.888 61.200 C 21.387 61.200,20.717 61.560,20.400 62.000 C 20.083 62.440,19.503 62.800,19.112 62.800 C 18.720 62.800,18.400 63.081,18.400 63.424 C 18.400 63.767,18.220 63.936,18.000 63.800 C 17.780 63.664,17.600 63.833,17.600 64.176 C 17.600 64.532,17.258 64.800,16.803 64.800 C 16.365 64.800,15.443 65.385,14.755 66.100 C 14.066 66.815,13.345 67.355,13.151 67.300 C 12.958 67.245,12.800 67.441,12.800 67.736 C 12.800 68.338,9.967 71.055,9.501 70.900 C 9.335 70.845,9.200 70.988,9.200 71.217 C 9.200 71.446,8.840 72.020,8.400 72.492 C 7.960 72.964,7.600 73.587,7.600 73.875 C 7.600 74.164,7.420 74.400,7.200 74.400 C 6.980 74.400,6.800 74.681,6.800 75.024 C 6.800 75.367,6.620 75.536,6.400 75.400 C 6.173 75.260,6.000 75.596,6.000 76.176 C 6.000 76.739,5.807 77.200,5.571 77.200 C 4.866 77.200,4.000 78.286,4.000 79.171 C 4.000 79.627,3.820 80.000,3.600 80.000 C 3.380 80.000,3.200 80.349,3.200 80.776 C 3.200 81.203,3.020 81.664,2.800 81.800 C 2.580 81.936,2.400 82.499,2.400 83.052 C 2.400 83.605,2.114 84.343,1.765 84.692 C 1.396 85.061,1.208 85.728,1.314 86.286 C 1.437 86.926,1.337 87.185,1.016 87.061 C 0.289 86.783,0.316 85.912,0.134 115.500 L -0.036 143.200 200.000 143.200 L 400.036 143.200 399.866 115.500 C 399.684 85.912,399.711 86.783,398.984 87.061 C 398.663 87.185,398.563 86.926,398.686 86.286 C 398.792 85.728,398.604 85.061,398.235 84.692 C 397.886 84.343,397.600 83.605,397.600 83.052 C 397.600 82.499,397.420 81.936,397.200 81.800 C 396.980 81.664,396.800 81.203,396.800 80.776 C 396.800 80.349,396.620 80.000,396.400 80.000 C 396.180 80.000,396.000 79.627,396.000 79.171 C 396.000 78.286,395.134 77.200,394.429 77.200 C 394.193 77.200,394.000 76.739,394.000 76.176 C 394.000 75.596,393.827 75.260,393.600 75.400 C 393.380 75.536,393.200 75.367,393.200 75.024 C 393.200 74.681,393.020 74.400,392.800 74.400 C 392.580 74.400,392.400 74.124,392.400 73.787 C 392.400 73.451,392.131 73.072,391.802 72.946 C 391.474 72.819,391.304 72.555,391.426 72.358 C 391.548 72.161,391.457 72.000,391.224 72.000 C 390.991 72.000,390.800 71.730,390.800 71.400 C 390.800 71.070,390.665 70.845,390.499 70.900 C 390.033 71.055,387.200 68.338,387.200 67.736 C 387.200 67.441,387.042 67.245,386.849 67.300 C 386.655 67.355,385.934 66.815,385.245 66.100 C 384.557 65.385,383.635 64.800,383.197 64.800 C 382.742 64.800,382.400 64.532,382.400 64.176 C 382.400 63.833,382.220 63.664,382.000 63.800 C 381.780 63.936,381.600 63.767,381.600 63.424 C 381.600 63.081,381.280 62.800,380.888 62.800 C 380.497 62.800,379.917 62.440,379.600 62.000 C 379.283 61.560,378.613 61.200,378.112 61.200 C 377.610 61.200,377.200 61.020,377.200 60.800 C 377.200 60.580,376.756 60.400,376.213 60.400 C 375.479 60.400,375.287 60.238,375.466 59.772 C 375.669 59.244,375.474 59.187,374.254 59.416 C 373.071 59.638,372.800 59.569,372.800 59.045 C 372.800 58.575,372.421 58.400,371.400 58.400 C 370.630 58.400,370.000 58.220,370.000 58.000 C 370.000 57.780,369.190 57.600,368.200 57.600 C 367.210 57.600,366.400 57.420,366.400 57.200 C 366.400 56.937,357.533 56.800,340.600 56.800 L 314.800 56.800 314.800 38.813 C 314.800 24.449,314.698 20.864,314.293 21.020 C 313.935 21.157,313.805 20.798,313.852 19.807 C 313.897 18.837,313.744 18.400,313.359 18.400 C 312.987 18.400,312.800 17.932,312.800 17.000 C 312.800 16.230,312.620 15.600,312.400 15.600 C 312.180 15.600,312.000 15.240,312.000 14.800 C 312.000 14.360,311.820 14.000,311.600 14.000 C 311.380 14.000,311.200 13.550,311.200 13.000 C 311.200 12.450,311.065 12.000,310.900 12.000 C 310.282 11.999,308.400 10.082,308.400 9.453 C 308.400 8.592,305.634 6.000,304.717 6.000 C 304.322 6.000,304.000 5.796,304.000 5.547 C 304.000 4.885,301.918 3.201,301.100 3.200 C 300.715 3.200,300.400 3.020,300.400 2.800 C 300.400 2.580,299.931 2.400,299.357 2.400 C 298.668 2.400,298.382 2.224,298.513 1.882 C 298.646 1.537,298.301 1.332,297.483 1.270 C 296.806 1.218,295.989 0.956,295.665 0.688 C 294.826 -0.008,276.100 -0.009,275.670 0.687 C 275.504 0.955,274.791 1.218,274.084 1.272 C 273.354 1.328,272.800 1.592,272.800 1.885 C 272.800 2.168,272.451 2.400,272.024 2.400 C 271.597 2.400,271.136 2.580,271.000 2.800 C 270.864 3.020,270.485 3.200,270.158 3.200 C 269.480 3.200,267.600 4.951,267.600 5.582 C 267.600 5.812,267.226 6.000,266.769 6.000 C 265.865 6.000,262.800 8.933,262.800 9.797 C 262.800 10.090,262.260 10.783,261.600 11.339 C 260.940 11.894,260.400 12.638,260.400 12.991 C 260.400 13.592,260.149 13.992,258.900 15.385 C 258.625 15.692,258.400 16.496,258.400 17.171 C 258.400 17.847,258.220 18.400,258.000 18.400 C 257.780 18.400,257.600 18.929,257.600 19.576 C 257.600 20.223,257.420 20.864,257.200 21.000 C 256.943 21.159,256.800 27.604,256.800 39.024 L 256.800 56.800 200.000 56.800 L 143.200 56.800 143.200 39.024 C 143.200 27.604,143.057 21.159,142.800 21.000 C 142.580 20.864,142.400 20.223,142.400 19.576 C 142.400 18.929,142.220 18.400,142.000 18.400 C 141.780 18.400,141.600 17.847,141.600 17.171 C 141.600 16.496,141.375 15.692,141.100 15.385 C 139.851 13.992,139.600 13.592,139.600 12.991 C 139.600 12.638,139.060 11.894,138.400 11.339 C 137.740 10.783,137.200 10.090,137.200 9.797 C 137.200 8.933,134.135 6.000,133.231 6.000 C 132.774 6.000,132.400 5.812,132.400 5.582 C 132.400 4.951,130.520 3.200,129.842 3.200 C 129.515 3.200,129.136 3.020,129.000 2.800 C 128.864 2.580,128.403 2.400,127.976 2.400 C 127.549 2.400,127.200 2.168,127.200 1.885 C 127.200 1.592,126.646 1.328,125.916 1.272 C 125.209 1.218,124.496 0.955,124.330 0.687 C 124.024 0.191,108.452 -0.154,105.800 0.276 M0.095 298.667 C 0.179 400.529,0.302 426.567,0.700 426.700 C 0.975 426.792,1.200 427.482,1.200 428.233 C 1.200 429.181,1.384 429.600,1.800 429.600 C 2.221 429.600,2.400 430.025,2.400 431.024 C 2.400 431.871,2.562 432.347,2.800 432.200 C 3.027 432.060,3.200 432.396,3.200 432.976 C 3.200 433.539,3.380 434.000,3.600 434.000 C 3.820 434.000,4.000 434.360,4.000 434.800 C 4.000 435.240,4.180 435.600,4.400 435.600 C 4.620 435.600,4.800 435.870,4.800 436.200 C 4.800 436.530,5.021 436.755,5.291 436.700 C 5.560 436.645,5.843 437.005,5.918 437.500 C 5.994 437.995,6.195 438.400,6.365 438.400 C 6.535 438.400,7.091 439.210,7.600 440.200 C 8.109 441.190,8.690 442.000,8.891 442.000 C 9.282 442.000,10.400 443.003,10.400 443.353 C 10.400 443.627,12.373 445.600,12.647 445.600 C 12.940 445.600,14.000 446.689,14.000 446.990 C 14.000 447.546,16.016 449.200,16.694 449.200 C 17.095 449.200,17.683 449.560,18.000 450.000 C 18.317 450.440,18.807 450.800,19.088 450.800 C 19.728 450.800,21.216 452.251,20.900 452.567 C 20.772 452.695,21.147 452.800,21.733 452.800 C 22.320 452.800,22.800 452.980,22.800 453.200 C 22.800 453.420,23.149 453.600,23.576 453.600 C 24.003 453.600,24.464 453.780,24.600 454.000 C 24.736 454.220,25.357 454.400,25.981 454.400 C 26.619 454.400,27.215 454.662,27.345 455.000 C 27.477 455.346,28.075 455.600,28.754 455.600 C 29.403 455.600,30.008 455.825,30.100 456.100 C 30.233 456.499,64.569 456.600,200.000 456.600 C 335.431 456.600,369.767 456.499,369.900 456.100 C 369.992 455.825,370.597 455.600,371.246 455.600 C 371.925 455.600,372.523 455.346,372.655 455.000 C 372.785 454.662,373.381 454.400,374.019 454.400 C 374.643 454.400,375.264 454.220,375.400 454.000 C 375.536 453.780,375.997 453.600,376.424 453.600 C 376.851 453.600,377.200 453.420,377.200 453.200 C 377.200 452.980,377.680 452.800,378.267 452.800 C 378.853 452.800,379.228 452.695,379.100 452.567 C 378.784 452.251,380.272 450.800,380.912 450.800 C 381.193 450.800,381.683 450.440,382.000 450.000 C 382.317 449.560,382.905 449.200,383.306 449.200 C 383.984 449.200,386.000 447.546,386.000 446.990 C 386.000 446.689,387.060 445.600,387.353 445.600 C 387.627 445.600,389.600 443.627,389.600 443.353 C 389.600 443.003,390.718 442.000,391.109 442.000 C 391.310 442.000,391.891 441.190,392.400 440.200 C 392.909 439.210,393.465 438.400,393.635 438.400 C 393.805 438.400,394.006 437.995,394.082 437.500 C 394.157 437.005,394.440 436.645,394.709 436.700 C 394.979 436.755,395.200 436.530,395.200 436.200 C 395.200 435.870,395.380 435.600,395.600 435.600 C 395.820 435.600,396.000 435.240,396.000 434.800 C 396.000 434.360,396.180 434.000,396.400 434.000 C 396.620 434.000,396.800 433.539,396.800 432.976 C 396.800 432.396,396.973 432.060,397.200 432.200 C 397.438 432.347,397.600 431.871,397.600 431.024 C 397.600 430.025,397.779 429.600,398.200 429.600 C 398.616 429.600,398.800 429.181,398.800 428.233 C 398.800 427.482,399.025 426.792,399.300 426.700 C 399.698 426.567,399.821 400.529,399.905 298.667 L 400.011 170.800 200.000 170.800 L -0.011 170.800 0.095 298.667 " stroke="none" fill="#4c5c8c" fill-rule="evenodd"></path><path id="path1" d="" stroke="none" fill="#505c8c" fill-rule="evenodd"></path><path id="path2" d="" stroke="none" fill="#505c8c" fill-rule="evenodd"></path><path id="path3" d="" stroke="none" fill="#505c8c" fill-rule="evenodd"></path><path id="path4" d="" stroke="none" fill="#505c8c" fill-rule="evenodd"></path></g></svg>