 <svg  version="1.0" xmlns="http://www.w3.org/2000/svg"  width="300.000000pt" height="299.000000pt" viewBox="0 0 300.000000 299.000000"  preserveAspectRatio="xMidYMid meet">  <g transform="translate(0.000000,299.000000) scale(0.100000,-0.100000)" fill="#325096" stroke="none"> <path d="M423 2970 c-42 -25 -45 -44 -41 -282 3 -190 4 -197 26 -221 29 -31 61 -38 101 -21 57 24 62 52 59 280 l-3 206 -33 29 c-38 34 -65 36 -109 9z"/> <path d="M1919 2973 c-40 -25 -49 -72 -49 -267 0 -202 8 -236 63 -262 30 -14 37 -14 70 0 23 9 41 25 47 41 15 38 13 418 -2 450 -13 28 -55 55 -85 55 -10 0 -30 -8 -44 -17z"/> <path d="M147 2605 c-60 -22 -93 -51 -119 -103 l-23 -47 -3 -835 c-2 -586 1 -850 9 -888 7 -38 21 -66 47 -94 64 -70 40 -68 678 -68 l574 0 0 90 0 90 -557 2 -558 3 0 650 0 650 1025 0 1025 0 3 -187 2 -188 90 0 90 0 0 394 0 393 -26 47 c-36 64 -92 95 -183 103 l-71 6 2 -74 c2 -68 0 -79 -28 -119 -57 -85 -156 -115 -240 -72 -74 38 -104 95 -104 197 l0 65 -559 0 -559 0 -3 -78 c-3 -65 -9 -85 -32 -120 -71 -108 -217 -112 -301 -8 -27 33 -31 47 -36 119 l-5 82 -50 2 c-27 1 -67 -4 -88 -12z"/> <path d="M380 1685 l0 -185 185 0 185 0 0 185 0 185 -185 0 -185 0 0 -185z"/> <path d="M940 1685 l0 -185 185 0 185 0 0 185 0 185 -185 0 -185 0 0 -185z"/> <path d="M1500 1685 l0 -185 185 0 185 0 0 185 0 185 -185 0 -185 0 0 -185z"/> <path d="M2145 1494 c-11 -2 -40 -10 -65 -15 -209 -51 -377 -176 -483 -360 -26 -45 -64 -139 -72 -176 -2 -10 -8 -38 -14 -63 -14 -58 -14 -192 0 -250 6 -25 13 -56 15 -70 10 -48 62 -159 108 -229 49 -74 154 -177 209 -206 18 -9 51 -27 75 -41 85 -47 274 -88 362 -77 137 16 215 37 310 84 124 61 261 200 324 329 73 147 95 327 62 485 -18 88 -21 95 -63 181 -89 182 -276 335 -478 389 -59 16 -251 29 -290 19z m244 -200 c132 -38 243 -117 321 -230 27 -40 50 -76 50 -82 0 -5 6 -22 14 -38 8 -16 21 -69 28 -117 11 -78 10 -99 -6 -175 -25 -126 -66 -203 -156 -292 -90 -90 -171 -134 -295 -158 -74 -14 -97 -14 -173 -3 -48 7 -100 19 -116 27 -16 8 -33 14 -38 14 -21 0 -123 75 -176 130 -211 217 -207 554 8 771 152 154 344 208 539 153z"/> <path d="M2150 940 l0 -280 281 0 282 0 -5 108 c-5 96 -9 114 -39 177 -86 176 -245 274 -446 275 l-73 0 0 -280z"/> <path d="M380 1125 l0 -185 185 0 185 0 0 185 0 185 -185 0 -185 0 0 -185z"/> <path d="M940 1125 l0 -185 185 0 185 0 0 185 0 185 -185 0 -185 0 0 -185z"/> </g> </svg> 