<svg width="400" height="400" xmlns="http://www.w3.org/2000/svg" xmlns:xlink="http://www.w3.org/1999/xlink" xml:space="preserve" overflow="hidden"><g><path d="M171.029 36.512C110.637 49.049 67.224 98.931 64.319 159.124L63.709 171.749 58.007 172.266C50.634 172.934 44.98 176.476 41.305 182.728L38.5 187.5 38.17 217C37.595 268.481 38.036 269 82.348 269 125.657 269 124.326 270.653 123.822 217.5 123.403 173.219 123.209 172.805 102.651 172.159L91.802 171.818 92.511 162.659C96.058 116.849 128.572 76.979 171.295 66.052 238.99 48.739 302.074 93.741 307.547 163.25L308.237 172 298.368 172.002C286.952 172.003 282.891 173.478 279.237 178.947L276.934 182.394 277.217 221.132 277.5 259.871 280.5 263.025C285.471 268.251 287.861 269 299.559 269L310.217 269 309.548 271.75C303.088 298.315 272.204 324.542 244.86 326.682L237.22 327.279 236.506 324.029C234.025 312.732 224.852 309.013 199.446 309.006 170.669 308.997 162 315.125 162 335.477 162 356.567 168.649 361 200.28 361L223.6 361 227.608 358.401C229.813 356.971 232.491 354.497 233.559 352.904 235.279 350.335 236.084 350.005 240.64 350.003 280.756 349.98 318.735 319.898 332.489 277.25L335.15 269 340.625 269C349 269 356.057 263.895 359.686 255.209 362.208 249.172 361.771 188.425 359.168 183.349 355.437 176.072 348.788 172 340.637 172L336.211 172 336.086 162.761C334.975 80.154 255.101 19.06 171.029 36.512" fill="#445588" fill-rule="evenodd"/></g></svg>