 <svg  version="1.0" xmlns="http://www.w3.org/2000/svg"  width="300.000000pt" height="303.000000pt" viewBox="0 0 300.000000 303.000000"  preserveAspectRatio="xMidYMid meet">  <g transform="translate(0.000000,303.000000) scale(0.100000,-0.100000)" fill="#325096" stroke="none"> <path d="M1345 3009 c-163 -20 -359 -84 -490 -161 -103 -61 -171 -116 -261 -211 -206 -217 -316 -480 -340 -808 l-6 -87 -52 -6 c-63 -8 -104 -32 -142 -82 l-29 -37 0 -311 c0 -309 0 -311 24 -349 12 -21 39 -49 59 -62 l37 -25 264 0 c258 0 266 1 298 23 18 12 42 41 54 64 19 40 20 56 17 366 l-3 324 -27 34 c-33 44 -80 59 -182 59 l-76 0 0 74 c0 151 55 335 146 488 61 103 211 257 313 324 89 57 198 104 301 130 108 27 393 27 500 0 290 -74 525 -265 655 -531 30 -60 63 -146 74 -190 22 -86 43 -276 33 -286 -4 -4 -50 -9 -103 -11 -102 -4 -134 -16 -164 -62 -16 -25 -17 -31 -16 -490 l1 -239 40 -38 40 -38 113 -3 c111 -3 112 -3 109 -26 -5 -50 -67 -177 -123 -253 -123 -166 -342 -289 -513 -289 l-63 0 -17 45 c-40 104 -114 130 -352 123 -148 -4 -153 -5 -200 -33 -70 -44 -89 -87 -89 -206 0 -87 2 -99 27 -136 48 -73 85 -83 300 -83 211 0 238 6 288 68 l31 39 92 6 c265 17 518 166 674 397 46 68 87 155 119 250 16 47 33 88 39 92 5 4 34 8 64 8 51 0 57 3 101 48 69 68 72 85 68 415 -3 274 -4 283 -26 319 -31 49 -80 78 -146 85 l-54 6 -7 106 c-21 333 -147 607 -381 830 -177 170 -361 264 -617 316 -99 20 -297 27 -402 14z"/> </g> </svg> 