 <svg  version="1.0" xmlns="http://www.w3.org/2000/svg"  width="300.000000pt" height="301.000000pt" viewBox="0 0 300.000000 301.000000"  preserveAspectRatio="xMidYMid meet">  <g transform="translate(0.000000,301.000000) scale(0.100000,-0.100000)" fill="#325096" stroke="none"> <path d="M1360 3004 c-209 -26 -381 -75 -544 -158 -417 -212 -708 -610 -792 -1081 -33 -190 -20 -467 32 -655 113 -410 401 -762 778 -950 134 -66 231 -100 380 -132 151 -32 417 -32 576 1 284 58 530 187 739 386 385 366 544 895 430 1424 -61 282 -198 530 -404 736 -204 203 -478 349 -765 406 -92 18 -353 32 -430 23z m470 -212 c478 -127 826 -478 952 -962 39 -149 49 -379 24 -532 -28 -172 -89 -340 -176 -483 -180 -297 -458 -505 -795 -597 -117 -31 -126 -32 -325 -33 -166 0 -220 4 -285 19 -262 61 -480 180 -656 358 -194 195 -326 452 -374 724 -19 112 -19 327 0 440 100 579 547 1014 1130 1098 17 2 111 3 210 1 164 -2 190 -5 295 -33z"/> <path d="M1480 2723 c-33 -12 -40 -36 -40 -138 0 -112 11 -135 63 -135 44 0 57 32 57 141 0 93 -1 98 -26 118 -28 22 -30 23 -54 14z"/> <path d="M847 2532 c-24 -26 -21 -48 14 -111 42 -76 57 -91 90 -91 27 0 59 30 59 57 0 15 -65 126 -86 147 -21 21 -57 20 -77 -2z"/> <path d="M2076 2535 c-26 -27 -86 -132 -86 -152 0 -29 34 -55 66 -51 23 2 37 16 71 73 24 38 43 79 43 91 0 44 -62 71 -94 39z"/> <path d="M1936 1913 c-192 -153 -353 -276 -360 -274 -49 16 -86 19 -119 10 l-38 -10 -239 170 c-155 111 -248 171 -264 171 -29 0 -66 -42 -66 -74 0 -31 25 -52 278 -231 207 -148 222 -161 222 -189 0 -71 72 -136 150 -136 79 0 139 53 150 133 4 37 13 48 86 107 44 36 203 164 352 285 251 203 272 222 272 251 0 35 -12 49 -51 59 -22 5 -69 -29 -373 -272z"/> <path d="M436 2087 c-12 -9 -17 -23 -14 -47 3 -32 9 -38 79 -74 75 -39 77 -40 103 -23 36 24 36 69 -1 95 -43 30 -110 62 -131 62 -10 0 -26 -6 -36 -13z"/> <path d="M2446 2067 c-33 -18 -64 -39 -69 -48 -15 -24 0 -68 27 -80 20 -9 35 -5 97 27 67 35 74 42 77 72 7 69 -40 80 -132 29z"/> <path d="M292 1548 c-17 -17 -15 -73 2 -88 22 -17 185 -23 216 -8 28 15 40 69 19 94 -15 18 -219 20 -237 2z"/> <path d="M2476 1544 c-17 -16 -21 -51 -8 -70 15 -24 54 -34 124 -34 92 0 122 14 126 58 5 55 -8 62 -124 62 -80 0 -106 -3 -118 -16z"/> <path d="M503 1034 c-35 -19 -68 -44 -74 -55 -16 -31 -3 -68 26 -75 35 -9 62 0 120 38 40 27 51 39 53 65 2 23 -3 35 -20 47 -30 22 -34 21 -105 -20z"/> <path d="M2390 1050 c-25 -25 -26 -62 -2 -82 9 -8 39 -27 66 -41 77 -42 126 -33 126 23 0 32 -16 47 -91 89 -66 37 -73 37 -99 11z"/> <path d="M923 672 c-17 -11 -93 -144 -93 -163 0 -26 35 -51 66 -47 23 2 37 16 71 73 24 38 43 79 43 91 0 39 -53 68 -87 46z"/> <path d="M2007 662 c-10 -10 -17 -26 -17 -36 0 -25 76 -152 96 -160 42 -16 84 6 84 46 0 21 -59 126 -86 153 -21 20 -57 19 -77 -3z"/> <path d="M1457 542 c-14 -15 -17 -40 -17 -125 0 -98 2 -107 22 -121 30 -21 54 -20 78 4 17 17 20 33 20 118 0 72 -4 103 -16 120 -19 27 -64 29 -87 4z"/> </g> </svg> 