 <svg  version="1.0" xmlns="http://www.w3.org/2000/svg"  width="300.000000pt" height="295.000000pt" viewBox="0 0 300.000000 295.000000"  preserveAspectRatio="xMidYMid meet">  <g transform="translate(0.000000,295.000000) scale(0.100000,-0.100000)" fill="#325096" stroke="none"> <path d="M2130 2936 c-118 -27 -208 -86 -280 -184 -43 -60 -46 -62 -90 -62 -56 0 -115 -27 -157 -72 -32 -33 -63 -110 -63 -155 0 -14 -18 -39 -45 -64 -62 -57 -85 -109 -85 -194 0 -107 54 -193 155 -248 40 -22 43 -22 625 -22 l585 0 43 23 c99 53 167 147 178 248 8 66 -23 159 -70 217 -40 49 -128 101 -191 112 -43 7 -55 18 -55 50 0 36 -66 159 -112 210 -111 122 -281 176 -438 141z"/> <path d="M1142 2748 c-7 -7 -12 -42 -12 -85 l0 -73 -94 0 c-362 0 -642 -224 -687 -548 -13 -91 -6 -102 62 -102 56 0 60 5 79 103 18 90 72 187 138 249 113 103 222 145 391 147 l111 2 0 -73 c0 -134 31 -132 167 10 136 142 136 135 -5 275 -59 59 -114 107 -123 107 -8 0 -20 -5 -27 -12z"/> <path d="M94 1776 c-17 -8 -44 -31 -60 -52 l-29 -37 -3 -571 c-3 -639 -4 -631 66 -684 l35 -27 370 -3 369 -3 -6 -47 c-4 -26 -12 -77 -18 -114 l-11 -66 -84 -4 c-99 -4 -113 -14 -113 -89 0 -82 -17 -79 463 -79 l418 0 24 25 c36 35 35 96 -1 124 -22 17 -41 21 -100 21 l-73 0 -6 33 c-2 17 -11 69 -18 115 l-14 82 356 0 c329 0 359 2 398 20 25 11 51 33 63 52 19 32 20 49 20 623 0 567 -1 591 -20 622 -10 18 -31 40 -47 50 -26 17 -81 18 -988 20 -794 2 -965 0 -991 -11z m1886 -656 l0 -510 -905 0 -905 0 0 510 0 510 905 0 905 0 0 -510z"/> <path d="M2532 1758 c-8 -8 -12 -47 -12 -109 0 -69 -6 -116 -20 -162 -33 -106 -114 -211 -197 -256 -20 -10 -23 -20 -23 -76 0 -42 4 -65 13 -68 46 -16 232 142 286 243 59 110 71 161 71 295 0 81 -4 125 -12 133 -7 7 -30 12 -53 12 -23 0 -46 -5 -53 -12z"/> </g> </svg> 