<svg id="svg" version="1.1" xmlns="http://www.w3.org/2000/svg" xmlns:xlink="http://www.w3.org/1999/xlink" width="400" height="320" viewBox="0, 0, 400,320"><g id="svgg"><path id="path0" d="M72.320 20.194 C 72.320 20.413,71.835 20.501,71.040 20.425 C 70.117 20.337,69.760 20.424,69.760 20.736 C 69.760 21.035,69.418 21.140,68.657 21.074 C 68.051 21.022,67.451 21.083,67.324 21.210 C 67.197 21.336,66.865 21.438,66.587 21.435 C 66.012 21.429,60.697 24.032,60.533 24.400 C 60.475 24.532,60.151 24.640,59.813 24.640 C 59.476 24.640,59.200 24.784,59.200 24.960 C 59.200 25.136,58.944 25.280,58.631 25.280 C 58.317 25.280,57.854 25.568,57.600 25.920 C 57.346 26.272,56.940 26.560,56.698 26.560 C 56.455 26.560,55.853 26.992,55.360 27.520 C 54.867 28.048,54.313 28.480,54.128 28.480 C 53.944 28.480,52.598 29.696,51.137 31.183 C 48.191 34.179,47.566 34.880,47.840 34.880 C 47.942 34.880,47.731 35.195,47.372 35.580 C 47.014 35.966,46.720 36.404,46.720 36.554 C 46.720 36.704,46.432 37.136,46.080 37.514 C 45.728 37.892,45.440 38.390,45.440 38.620 C 45.440 38.851,45.296 39.040,45.120 39.040 C 44.944 39.040,44.800 39.328,44.800 39.680 C 44.800 40.032,44.656 40.320,44.480 40.320 C 44.304 40.320,44.160 40.608,44.160 40.960 C 44.160 41.312,44.016 41.600,43.840 41.600 C 43.664 41.600,43.520 41.888,43.520 42.240 C 43.520 42.592,43.376 42.880,43.200 42.880 C 43.024 42.880,42.880 43.168,42.880 43.520 C 42.880 43.872,42.736 44.160,42.560 44.160 C 42.384 44.160,42.240 44.448,42.240 44.800 C 42.240 45.152,42.096 45.440,41.920 45.440 C 41.744 45.440,41.600 45.800,41.600 46.240 C 41.600 46.680,41.456 47.040,41.280 47.040 C 41.104 47.040,40.960 47.616,40.960 48.320 C 40.960 49.024,40.816 49.600,40.640 49.600 C 40.464 49.600,40.320 50.168,40.320 50.861 C 40.320 51.555,40.176 52.211,40.000 52.320 C 39.788 52.451,39.680 80.803,39.680 136.339 L 39.680 220.160 60.000 220.160 L 80.320 220.160 80.320 140.160 L 80.320 60.160 200.000 60.160 L 319.680 60.160 319.680 140.160 L 319.680 220.160 340.000 220.160 L 360.320 220.160 360.320 136.339 C 360.320 80.803,360.212 52.451,360.000 52.320 C 359.824 52.211,359.680 51.555,359.680 50.861 C 359.680 50.168,359.536 49.600,359.360 49.600 C 359.184 49.600,359.040 49.024,359.040 48.320 C 359.040 47.616,358.896 47.040,358.720 47.040 C 358.544 47.040,358.400 46.680,358.400 46.240 C 358.400 45.800,358.256 45.440,358.080 45.440 C 357.904 45.440,357.760 45.152,357.760 44.800 C 357.760 44.448,357.616 44.160,357.440 44.160 C 357.264 44.160,357.120 43.872,357.120 43.520 C 357.120 43.168,356.976 42.880,356.800 42.880 C 356.624 42.880,356.480 42.592,356.480 42.240 C 356.480 41.888,356.336 41.600,356.160 41.600 C 355.984 41.600,355.840 41.312,355.840 40.960 C 355.840 40.608,355.696 40.320,355.520 40.320 C 355.344 40.320,355.200 40.032,355.200 39.680 C 355.200 39.328,355.056 39.040,354.880 39.040 C 354.704 39.040,354.560 38.851,354.560 38.620 C 354.560 38.390,354.272 37.892,353.920 37.514 C 353.568 37.136,353.280 36.704,353.280 36.554 C 353.280 36.404,352.986 35.966,352.628 35.580 C 352.269 35.195,352.058 34.880,352.160 34.880 C 352.434 34.880,351.809 34.179,348.863 31.183 C 347.402 29.696,346.056 28.480,345.872 28.480 C 345.687 28.480,345.133 28.048,344.640 27.520 C 344.147 26.992,343.545 26.560,343.302 26.560 C 343.060 26.560,342.654 26.272,342.400 25.920 C 342.146 25.568,341.683 25.280,341.369 25.280 C 341.056 25.280,340.800 25.136,340.800 24.960 C 340.800 24.784,340.524 24.640,340.187 24.640 C 339.849 24.640,339.525 24.532,339.467 24.400 C 339.303 24.032,333.988 21.429,333.413 21.435 C 333.135 21.438,332.803 21.336,332.676 21.210 C 332.549 21.083,331.949 21.022,331.343 21.074 C 330.582 21.140,330.240 21.035,330.240 20.736 C 330.240 20.424,329.883 20.337,328.960 20.425 C 328.165 20.501,327.680 20.413,327.680 20.194 C 327.680 19.936,292.997 19.840,200.000 19.840 C 107.003 19.840,72.320 19.936,72.320 20.194 M7.840 240.000 C 7.731 240.176,7.291 240.320,6.861 240.320 C 6.432 240.320,6.080 240.464,6.080 240.640 C 6.080 240.816,5.861 240.960,5.594 240.960 C 4.977 240.960,0.960 244.954,0.960 245.567 C 0.960 245.820,0.780 246.087,0.560 246.161 C -0.021 246.355,-0.021 263.087,0.560 263.280 C 0.789 263.356,0.960 263.948,0.960 264.667 C 0.960 265.356,1.104 265.920,1.280 265.920 C 1.456 265.920,1.600 266.352,1.600 266.880 C 1.600 267.408,1.744 267.840,1.920 267.840 C 2.096 267.840,2.240 268.124,2.240 268.470 C 2.240 268.817,2.528 269.613,2.880 270.240 C 3.232 270.867,3.520 271.562,3.520 271.786 C 3.520 272.367,4.275 273.915,4.560 273.918 C 4.692 273.919,4.800 274.176,4.800 274.489 C 4.800 274.803,5.088 275.266,5.440 275.520 C 5.792 275.774,6.080 276.237,6.080 276.551 C 6.080 276.864,6.224 277.120,6.400 277.120 C 6.576 277.120,6.720 277.398,6.720 277.737 C 6.720 278.077,6.936 278.570,7.200 278.834 C 7.464 279.098,7.680 279.461,7.680 279.641 C 7.680 279.821,7.932 280.115,8.240 280.294 C 8.548 280.474,8.682 280.625,8.537 280.630 C 8.393 280.636,8.502 280.868,8.780 281.146 C 9.058 281.424,9.204 281.784,9.104 281.946 C 9.004 282.108,9.155 282.240,9.440 282.240 C 9.725 282.240,9.898 282.348,9.824 282.480 C 9.750 282.612,10.174 283.192,10.765 283.769 C 11.356 284.346,11.840 284.732,11.840 284.626 C 11.840 284.521,12.056 284.650,12.320 284.914 C 12.584 285.178,12.800 285.573,12.800 285.790 C 12.800 286.008,12.881 286.106,12.979 286.007 C 13.078 285.909,14.300 286.965,15.695 288.354 C 17.090 289.743,18.417 290.880,18.645 290.880 C 18.872 290.880,19.266 291.168,19.520 291.520 C 19.774 291.872,20.164 292.160,20.388 292.160 C 20.612 292.160,20.974 292.448,21.194 292.800 C 21.414 293.152,21.777 293.440,22.001 293.440 C 22.550 293.440,23.716 294.114,24.354 294.800 C 24.641 295.108,25.074 295.361,25.318 295.361 C 25.561 295.362,26.231 295.650,26.808 296.001 C 27.384 296.353,28.140 296.640,28.488 296.640 C 28.835 296.640,29.120 296.758,29.120 296.902 C 29.120 297.046,29.840 297.360,30.720 297.600 C 31.600 297.840,32.320 298.154,32.320 298.298 C 32.320 298.442,32.656 298.560,33.067 298.560 C 33.477 298.560,33.917 298.664,34.044 298.790 C 34.171 298.917,34.771 298.978,35.377 298.926 C 36.010 298.871,36.480 298.978,36.480 299.175 C 36.480 299.376,37.151 299.520,38.080 299.520 C 38.960 299.520,39.680 299.664,39.680 299.840 C 39.680 300.053,93.333 300.160,200.000 300.160 C 306.667 300.160,360.320 300.053,360.320 299.840 C 360.320 299.664,361.040 299.520,361.920 299.520 C 362.849 299.520,363.520 299.376,363.520 299.175 C 363.520 298.978,363.990 298.871,364.623 298.926 C 365.229 298.978,365.829 298.917,365.956 298.790 C 366.083 298.664,366.523 298.560,366.933 298.560 C 367.344 298.560,367.680 298.442,367.680 298.298 C 367.680 298.154,368.400 297.840,369.280 297.600 C 370.160 297.360,370.880 297.046,370.880 296.902 C 370.880 296.758,371.165 296.640,371.512 296.640 C 371.860 296.640,372.616 296.353,373.192 296.001 C 373.769 295.650,374.439 295.362,374.682 295.361 C 374.926 295.361,375.359 295.108,375.646 294.800 C 376.284 294.114,377.450 293.440,377.999 293.440 C 378.223 293.440,378.586 293.152,378.806 292.800 C 379.026 292.448,379.362 292.160,379.554 292.160 C 379.746 292.160,380.307 291.728,380.800 291.200 C 381.293 290.672,381.858 290.240,382.055 290.240 C 382.252 290.240,383.410 289.247,384.628 288.034 C 385.846 286.821,386.923 285.909,387.021 286.008 C 387.119 286.106,387.200 286.008,387.200 285.790 C 387.200 285.573,387.416 285.178,387.680 284.914 C 387.944 284.650,388.160 284.521,388.160 284.626 C 388.160 284.732,388.644 284.346,389.235 283.769 C 389.826 283.192,390.255 282.621,390.189 282.501 C 390.122 282.380,390.437 281.912,390.888 281.461 C 391.340 281.009,391.595 280.636,391.455 280.630 C 391.315 280.625,391.452 280.474,391.760 280.294 C 392.068 280.115,392.320 279.821,392.320 279.641 C 392.320 279.461,392.536 279.098,392.800 278.834 C 393.064 278.570,393.280 278.077,393.280 277.737 C 393.280 277.398,393.424 277.120,393.600 277.120 C 393.776 277.120,393.920 276.864,393.920 276.551 C 393.920 276.237,394.208 275.774,394.560 275.520 C 394.912 275.266,395.200 274.803,395.200 274.489 C 395.200 274.176,395.308 273.919,395.440 273.918 C 395.725 273.915,396.480 272.367,396.480 271.786 C 396.480 271.562,396.768 270.867,397.120 270.240 C 397.472 269.613,397.760 268.817,397.760 268.470 C 397.760 268.124,397.904 267.840,398.080 267.840 C 398.256 267.840,398.400 267.408,398.400 266.880 C 398.400 266.352,398.544 265.920,398.720 265.920 C 398.896 265.920,399.040 265.356,399.040 264.667 C 399.040 263.948,399.211 263.356,399.440 263.280 C 400.285 262.998,399.984 246.581,399.120 245.830 C 398.724 245.486,398.400 245.038,398.400 244.834 C 398.400 244.325,395.636 241.600,395.119 241.600 C 394.889 241.600,394.494 241.312,394.240 240.960 C 393.986 240.608,393.459 240.320,393.068 240.320 C 392.677 240.320,392.269 240.176,392.160 240.000 C 391.886 239.556,8.114 239.556,7.840 240.000 " stroke="none" fill="#4c5c8c" fill-rule="evenodd"></path><path id="path1" d="M70.644 20.386 C 71.042 20.463,71.618 20.460,71.924 20.380 C 72.230 20.300,71.904 20.237,71.200 20.241 C 70.496 20.244,70.246 20.310,70.644 20.386 M328.244 20.386 C 328.642 20.463,329.218 20.460,329.524 20.380 C 329.830 20.300,329.504 20.237,328.800 20.241 C 328.096 20.244,327.846 20.310,328.244 20.386 M68.240 21.021 C 68.548 21.101,69.052 21.101,69.360 21.021 C 69.668 20.940,69.416 20.874,68.800 20.874 C 68.184 20.874,67.932 20.940,68.240 21.021 M330.640 21.021 C 330.948 21.101,331.452 21.101,331.760 21.021 C 332.068 20.940,331.816 20.874,331.200 20.874 C 330.584 20.874,330.332 20.940,330.640 21.021 M34.960 299.101 C 35.268 299.181,35.772 299.181,36.080 299.101 C 36.388 299.020,36.136 298.954,35.520 298.954 C 34.904 298.954,34.652 299.020,34.960 299.101 M363.920 299.101 C 364.228 299.181,364.732 299.181,365.040 299.101 C 365.348 299.020,365.096 298.954,364.480 298.954 C 363.864 298.954,363.612 299.020,363.920 299.101 M37.524 299.750 C 38.011 299.823,38.731 299.821,39.124 299.745 C 39.518 299.669,39.120 299.609,38.240 299.612 C 37.360 299.614,37.038 299.676,37.524 299.750 M361.044 299.750 C 361.531 299.823,362.251 299.821,362.644 299.745 C 363.038 299.669,362.640 299.609,361.760 299.612 C 360.880 299.614,360.558 299.676,361.044 299.750 " stroke="none" fill="#505c8c" fill-rule="evenodd"></path><path id="path2" d="M70.644 20.386 C 71.042 20.463,71.618 20.460,71.924 20.380 C 72.230 20.300,71.904 20.237,71.200 20.241 C 70.496 20.244,70.246 20.310,70.644 20.386 M328.244 20.386 C 328.642 20.463,329.218 20.460,329.524 20.380 C 329.830 20.300,329.504 20.237,328.800 20.241 C 328.096 20.244,327.846 20.310,328.244 20.386 M68.240 21.021 C 68.548 21.101,69.052 21.101,69.360 21.021 C 69.668 20.940,69.416 20.874,68.800 20.874 C 68.184 20.874,67.932 20.940,68.240 21.021 M330.640 21.021 C 330.948 21.101,331.452 21.101,331.760 21.021 C 332.068 20.940,331.816 20.874,331.200 20.874 C 330.584 20.874,330.332 20.940,330.640 21.021 M34.960 299.101 C 35.268 299.181,35.772 299.181,36.080 299.101 C 36.388 299.020,36.136 298.954,35.520 298.954 C 34.904 298.954,34.652 299.020,34.960 299.101 M363.920 299.101 C 364.228 299.181,364.732 299.181,365.040 299.101 C 365.348 299.020,365.096 298.954,364.480 298.954 C 363.864 298.954,363.612 299.020,363.920 299.101 M37.524 299.750 C 38.011 299.823,38.731 299.821,39.124 299.745 C 39.518 299.669,39.120 299.609,38.240 299.612 C 37.360 299.614,37.038 299.676,37.524 299.750 M361.044 299.750 C 361.531 299.823,362.251 299.821,362.644 299.745 C 363.038 299.669,362.640 299.609,361.760 299.612 C 360.880 299.614,360.558 299.676,361.044 299.750 " stroke="none" fill="#505c8c" fill-rule="evenodd"></path><path id="path3" d="M70.644 20.386 C 71.042 20.463,71.618 20.460,71.924 20.380 C 72.230 20.300,71.904 20.237,71.200 20.241 C 70.496 20.244,70.246 20.310,70.644 20.386 M328.244 20.386 C 328.642 20.463,329.218 20.460,329.524 20.380 C 329.830 20.300,329.504 20.237,328.800 20.241 C 328.096 20.244,327.846 20.310,328.244 20.386 M68.240 21.021 C 68.548 21.101,69.052 21.101,69.360 21.021 C 69.668 20.940,69.416 20.874,68.800 20.874 C 68.184 20.874,67.932 20.940,68.240 21.021 M330.640 21.021 C 330.948 21.101,331.452 21.101,331.760 21.021 C 332.068 20.940,331.816 20.874,331.200 20.874 C 330.584 20.874,330.332 20.940,330.640 21.021 M34.960 299.101 C 35.268 299.181,35.772 299.181,36.080 299.101 C 36.388 299.020,36.136 298.954,35.520 298.954 C 34.904 298.954,34.652 299.020,34.960 299.101 M363.920 299.101 C 364.228 299.181,364.732 299.181,365.040 299.101 C 365.348 299.020,365.096 298.954,364.480 298.954 C 363.864 298.954,363.612 299.020,363.920 299.101 M37.524 299.750 C 38.011 299.823,38.731 299.821,39.124 299.745 C 39.518 299.669,39.120 299.609,38.240 299.612 C 37.360 299.614,37.038 299.676,37.524 299.750 M361.044 299.750 C 361.531 299.823,362.251 299.821,362.644 299.745 C 363.038 299.669,362.640 299.609,361.760 299.612 C 360.880 299.614,360.558 299.676,361.044 299.750 " stroke="none" fill="#505c8c" fill-rule="evenodd"></path><path id="path4" d="M70.644 20.386 C 71.042 20.463,71.618 20.460,71.924 20.380 C 72.230 20.300,71.904 20.237,71.200 20.241 C 70.496 20.244,70.246 20.310,70.644 20.386 M328.244 20.386 C 328.642 20.463,329.218 20.460,329.524 20.380 C 329.830 20.300,329.504 20.237,328.800 20.241 C 328.096 20.244,327.846 20.310,328.244 20.386 M68.240 21.021 C 68.548 21.101,69.052 21.101,69.360 21.021 C 69.668 20.940,69.416 20.874,68.800 20.874 C 68.184 20.874,67.932 20.940,68.240 21.021 M330.640 21.021 C 330.948 21.101,331.452 21.101,331.760 21.021 C 332.068 20.940,331.816 20.874,331.200 20.874 C 330.584 20.874,330.332 20.940,330.640 21.021 M34.960 299.101 C 35.268 299.181,35.772 299.181,36.080 299.101 C 36.388 299.020,36.136 298.954,35.520 298.954 C 34.904 298.954,34.652 299.020,34.960 299.101 M363.920 299.101 C 364.228 299.181,364.732 299.181,365.040 299.101 C 365.348 299.020,365.096 298.954,364.480 298.954 C 363.864 298.954,363.612 299.020,363.920 299.101 M37.524 299.750 C 38.011 299.823,38.731 299.821,39.124 299.745 C 39.518 299.669,39.120 299.609,38.240 299.612 C 37.360 299.614,37.038 299.676,37.524 299.750 M361.044 299.750 C 361.531 299.823,362.251 299.821,362.644 299.745 C 363.038 299.669,362.640 299.609,361.760 299.612 C 360.880 299.614,360.558 299.676,361.044 299.750 " stroke="none" fill="#505c8c" fill-rule="evenodd"></path></g></svg>