 <svg  version="1.0" xmlns="http://www.w3.org/2000/svg"  width="300.000000pt" height="240.000000pt" viewBox="0 0 300.000000 240.000000"  preserveAspectRatio="xMidYMid meet">  <g transform="translate(0.000000,240.000000) scale(0.100000,-0.100000)" fill="#325096" stroke="none"> <path d="M520 2241 c-83 -26 -150 -82 -191 -161 l-24 -45 -3 -642 -3 -643 151 0 150 0 0 600 0 600 900 0 900 0 0 -600 0 -600 150 0 151 0 -3 643 -3 642 -24 45 c-32 61 -76 107 -136 138 l-50 27 -970 2 c-533 1 -981 -2 -995 -6z"/> <path d="M28 569 c-30 -29 -31 -33 -25 -94 13 -138 114 -265 243 -305 65 -20 88 -20 1254 -20 1166 0 1189 0 1254 20 129 40 230 167 243 305 6 61 5 65 -25 94 l-30 31 -1442 0 -1442 0 -30 -31z"/> </g> </svg> 