<svg id="svg" version="1.1" xmlns="http://www.w3.org/2000/svg" xmlns:xlink="http://www.w3.org/1999/xlink" width="400" height="400" viewBox="0, 0, 400,400"><g id="svgg"><path id="path0" d="M180.500 0.273 C 178.465 0.359,176.800 0.603,176.800 0.815 C 176.800 1.027,175.810 1.200,174.600 1.200 C 173.390 1.200,172.400 1.380,172.400 1.600 C 172.400 1.822,171.333 2.000,170.000 2.000 C 168.667 2.000,167.600 2.178,167.600 2.400 C 167.600 2.620,166.700 2.800,165.600 2.800 C 164.500 2.800,163.600 2.980,163.600 3.200 C 163.600 3.420,162.981 3.600,162.224 3.600 C 161.467 3.600,160.736 3.780,160.600 4.000 C 160.464 4.220,159.733 4.400,158.976 4.400 C 158.219 4.400,157.600 4.580,157.600 4.800 C 157.600 5.020,157.060 5.200,156.400 5.200 C 155.740 5.200,155.200 5.380,155.200 5.600 C 155.200 5.820,154.480 6.000,153.600 6.000 C 152.720 6.000,152.000 6.180,152.000 6.400 C 152.000 6.620,151.460 6.800,150.800 6.800 C 150.140 6.800,149.600 6.980,149.600 7.200 C 149.600 7.420,149.060 7.600,148.400 7.600 C 147.740 7.600,147.200 7.760,147.200 7.955 C 147.200 8.150,146.345 8.433,145.300 8.585 C 144.255 8.737,142.827 9.194,142.128 9.601 C 141.428 10.008,140.438 10.399,139.928 10.470 C 139.417 10.542,138.910 10.690,138.800 10.800 C 138.327 11.273,136.763 12.000,136.218 12.000 C 135.891 12.000,134.983 12.360,134.200 12.800 C 133.417 13.240,132.511 13.600,132.188 13.600 C 131.865 13.600,131.600 13.780,131.600 14.000 C 131.600 14.220,131.240 14.400,130.800 14.400 C 130.360 14.400,130.000 14.580,130.000 14.800 C 130.000 15.020,129.430 15.200,128.733 15.200 C 128.037 15.200,127.584 15.317,127.727 15.460 C 128.087 15.820,126.760 16.772,125.876 16.787 C 125.478 16.794,125.264 16.980,125.400 17.200 C 125.536 17.420,125.277 17.600,124.824 17.600 C 124.371 17.600,124.000 17.780,124.000 18.000 C 124.000 18.220,123.640 18.400,123.200 18.400 C 122.760 18.400,122.400 18.580,122.400 18.800 C 122.400 19.020,122.040 19.200,121.600 19.200 C 121.160 19.200,120.800 19.380,120.800 19.600 C 120.800 19.820,120.440 20.000,120.000 20.000 C 119.560 20.000,119.200 20.180,119.200 20.400 C 119.200 20.620,118.880 20.800,118.488 20.800 C 118.097 20.800,117.517 21.160,117.200 21.600 C 116.883 22.040,116.303 22.400,115.912 22.400 C 115.520 22.400,115.200 22.580,115.200 22.800 C 115.200 23.020,114.880 23.200,114.488 23.200 C 114.097 23.200,113.517 23.560,113.200 24.000 C 112.883 24.440,112.309 24.800,111.926 24.800 C 111.542 24.800,111.028 25.174,110.783 25.631 C 110.529 26.107,110.095 26.369,109.769 26.244 C 109.430 26.113,109.200 26.272,109.200 26.636 C 109.200 26.972,109.020 27.136,108.800 27.000 C 108.580 26.864,108.400 26.943,108.400 27.176 C 108.400 27.409,108.083 27.600,107.696 27.600 C 107.309 27.600,106.768 27.960,106.493 28.400 C 106.218 28.840,105.740 29.200,105.431 29.200 C 105.121 29.200,104.358 29.740,103.735 30.400 C 103.112 31.060,102.365 31.600,102.075 31.600 C 101.786 31.600,101.094 32.140,100.539 32.800 C 99.983 33.460,99.294 34.000,99.008 34.000 C 98.721 34.000,97.582 34.900,96.476 36.000 C 95.371 37.100,94.181 38.000,93.833 38.000 C 93.485 38.000,93.200 38.148,93.200 38.329 C 93.200 38.613,91.585 40.274,87.781 43.900 C 87.261 44.395,86.643 44.800,86.408 44.800 C 85.797 44.800,82.400 48.275,82.400 48.900 C 82.400 49.187,81.316 50.452,79.991 51.711 C 78.666 52.970,77.689 54.000,77.820 54.000 C 77.950 54.000,77.787 54.270,77.457 54.600 C 77.127 54.930,76.741 55.200,76.600 55.200 C 76.137 55.200,75.232 56.299,75.486 56.552 C 75.622 56.689,75.523 56.800,75.267 56.800 C 75.010 56.800,74.799 57.115,74.799 57.500 C 74.798 57.885,74.259 58.560,73.600 59.000 C 72.941 59.440,72.402 60.036,72.401 60.324 C 72.401 60.612,72.220 60.736,72.000 60.600 C 71.780 60.464,71.600 60.659,71.600 61.033 C 71.600 61.407,71.060 62.229,70.400 62.860 C 69.740 63.491,69.200 64.203,69.200 64.443 C 69.200 64.683,68.660 65.383,68.000 66.000 C 67.340 66.617,66.800 67.369,66.800 67.672 C 66.800 67.975,66.440 68.483,66.000 68.800 C 65.560 69.117,65.200 69.657,65.200 70.000 C 65.200 70.343,64.840 70.883,64.400 71.200 C 63.960 71.517,63.600 72.095,63.600 72.485 C 63.600 72.874,63.240 73.418,62.800 73.693 C 62.360 73.968,62.000 74.487,62.000 74.847 C 62.000 75.639,61.044 76.510,60.630 76.097 C 60.467 75.933,60.370 75.980,60.414 76.200 C 60.602 77.133,60.370 78.029,60.000 77.800 C 59.780 77.664,59.600 77.923,59.600 78.376 C 59.600 78.829,59.420 79.200,59.200 79.200 C 58.980 79.200,58.819 79.335,58.843 79.500 C 58.930 80.104,58.297 81.600,57.953 81.600 C 57.759 81.600,57.600 81.960,57.600 82.400 C 57.600 82.840,57.420 83.200,57.200 83.200 C 56.980 83.200,56.800 83.560,56.800 84.000 C 56.800 84.440,56.620 84.800,56.400 84.800 C 56.180 84.800,56.000 85.160,56.000 85.600 C 56.000 86.040,55.820 86.400,55.600 86.400 C 55.380 86.400,55.200 86.720,55.200 87.112 C 55.200 87.503,54.840 88.083,54.400 88.400 C 53.960 88.717,53.600 89.297,53.600 89.688 C 53.600 90.080,53.420 90.400,53.200 90.400 C 52.980 90.400,52.800 90.940,52.800 91.600 C 52.800 92.260,52.654 92.800,52.475 92.800 C 52.296 92.800,51.902 93.430,51.600 94.200 C 51.298 94.970,50.904 95.600,50.725 95.600 C 50.546 95.600,50.400 95.960,50.400 96.400 C 50.400 96.840,50.220 97.200,50.000 97.200 C 49.780 97.200,49.600 97.549,49.600 97.976 C 49.600 98.403,49.420 98.864,49.200 99.000 C 48.980 99.136,48.800 99.687,48.800 100.224 C 48.800 100.761,48.620 101.200,48.400 101.200 C 48.180 101.200,48.000 101.645,48.000 102.188 C 48.000 102.731,47.640 103.817,47.200 104.600 C 46.760 105.383,46.400 106.379,46.400 106.812 C 46.400 107.245,46.220 107.600,46.000 107.600 C 45.780 107.600,45.600 108.050,45.600 108.600 C 45.600 109.150,45.420 109.600,45.200 109.600 C 44.980 109.600,44.800 110.129,44.800 110.776 C 44.800 111.423,44.637 112.054,44.437 112.177 C 44.238 112.300,43.946 113.335,43.789 114.477 C 43.632 115.619,43.255 116.802,42.952 117.105 C 42.648 117.409,42.400 118.174,42.400 118.805 C 42.400 119.436,42.235 120.055,42.034 120.179 C 41.833 120.304,41.542 121.752,41.387 123.398 C 41.233 125.043,40.948 126.291,40.753 126.171 C 40.559 126.051,40.400 126.863,40.400 127.976 C 40.400 129.089,40.220 130.000,40.000 130.000 C 39.778 130.000,39.600 131.067,39.600 132.400 C 39.600 133.733,39.422 134.800,39.200 134.800 C 38.978 134.800,38.800 135.867,38.800 137.200 C 38.800 138.533,38.622 139.600,38.400 139.600 C 38.169 139.600,38.000 140.867,38.000 142.600 C 38.000 144.333,37.831 145.600,37.600 145.600 C 37.340 145.600,37.200 151.467,37.200 162.400 C 37.200 173.333,37.340 179.200,37.600 179.200 C 37.833 179.200,38.000 180.533,38.000 182.400 C 38.000 184.267,38.167 185.600,38.400 185.600 C 38.622 185.600,38.800 186.667,38.800 188.000 C 38.800 189.333,38.978 190.400,39.200 190.400 C 39.420 190.400,39.600 191.390,39.600 192.600 C 39.600 193.810,39.780 194.800,40.000 194.800 C 40.220 194.800,40.400 195.700,40.400 196.800 C 40.400 197.900,40.559 198.800,40.753 198.800 C 40.947 198.800,41.233 200.150,41.387 201.800 C 41.542 203.450,41.833 204.800,42.034 204.800 C 42.235 204.800,42.400 205.526,42.400 206.413 C 42.400 207.446,42.607 208.104,42.975 208.246 C 43.325 208.380,43.657 209.319,43.821 210.633 C 43.970 211.825,44.251 212.800,44.446 212.800 C 44.641 212.800,44.800 213.340,44.800 214.000 C 44.800 214.660,44.980 215.200,45.200 215.200 C 45.420 215.200,45.600 215.740,45.600 216.400 C 45.600 217.060,45.780 217.600,46.000 217.600 C 46.220 217.600,46.400 218.039,46.400 218.576 C 46.400 219.113,46.580 219.664,46.800 219.800 C 47.020 219.936,47.200 220.407,47.200 220.847 C 47.200 221.287,47.380 221.536,47.600 221.400 C 47.833 221.256,48.000 221.663,48.000 222.376 C 48.000 223.049,48.180 223.600,48.400 223.600 C 48.620 223.600,48.800 224.140,48.800 224.800 C 48.800 225.460,48.980 226.000,49.200 226.000 C 49.420 226.000,49.600 226.360,49.600 226.800 C 49.600 227.240,49.780 227.600,50.000 227.600 C 50.220 227.600,50.400 227.960,50.400 228.400 C 50.400 228.840,50.580 229.200,50.800 229.200 C 51.020 229.200,51.200 229.560,51.200 230.000 C 51.200 230.440,51.380 230.800,51.600 230.800 C 51.820 230.800,52.000 231.160,52.000 231.600 C 52.000 232.040,52.135 232.401,52.300 232.403 C 52.659 232.407,53.600 234.344,53.600 235.080 C 53.600 235.366,53.780 235.600,54.000 235.600 C 54.220 235.600,54.400 236.100,54.400 236.712 C 54.400 237.365,54.730 238.061,55.200 238.400 C 55.640 238.717,56.000 239.297,56.000 239.688 C 56.000 240.080,56.180 240.400,56.400 240.400 C 56.620 240.400,56.800 240.670,56.800 241.000 C 56.800 241.330,56.980 241.600,57.200 241.600 C 57.420 241.600,57.600 241.960,57.600 242.400 C 57.600 242.840,57.780 243.200,58.000 243.200 C 58.220 243.200,58.400 243.487,58.400 243.837 C 58.400 244.187,58.758 244.928,59.195 245.484 C 59.632 246.039,59.891 246.653,59.771 246.847 C 59.651 247.041,59.743 247.200,59.976 247.200 C 60.209 247.200,60.400 247.517,60.400 247.904 C 60.400 248.291,60.760 248.832,61.200 249.107 C 61.640 249.382,62.000 249.926,62.000 250.315 C 62.000 250.705,62.360 251.283,62.800 251.600 C 63.240 251.917,63.600 252.379,63.600 252.626 C 63.600 252.874,63.960 253.402,64.400 253.800 C 64.840 254.198,65.200 254.813,65.200 255.166 C 65.200 255.519,65.560 256.032,66.000 256.307 C 66.440 256.582,66.800 257.055,66.800 257.358 C 66.800 257.662,67.338 258.335,67.996 258.855 C 68.654 259.375,69.194 260.043,69.196 260.340 C 69.198 260.636,69.740 261.383,70.400 262.000 C 71.060 262.617,71.600 263.330,71.600 263.586 C 71.600 263.842,72.517 264.945,73.638 266.037 C 74.910 267.276,75.592 268.244,75.451 268.611 C 75.313 268.971,75.463 269.200,75.836 269.200 C 76.172 269.200,76.336 269.380,76.200 269.600 C 76.064 269.820,76.122 270.000,76.329 270.000 C 76.820 270.000,80.000 273.180,80.000 273.671 C 80.000 273.878,80.180 273.936,80.400 273.800 C 80.620 273.664,80.800 273.844,80.800 274.200 C 80.800 274.556,80.980 274.736,81.200 274.600 C 81.420 274.464,81.600 274.652,81.600 275.017 C 81.600 275.675,86.664 280.800,87.314 280.800 C 87.611 280.800,89.487 282.628,92.287 285.645 C 93.910 287.394,94.662 288.000,95.234 288.019 C 95.545 288.029,96.340 288.740,97.000 289.600 C 97.660 290.460,98.507 291.171,98.882 291.181 C 99.257 291.192,100.014 291.650,100.564 292.200 C 101.114 292.750,101.770 293.200,102.021 293.200 C 102.273 293.200,102.983 293.740,103.600 294.400 C 104.217 295.060,104.969 295.600,105.272 295.600 C 105.575 295.600,106.083 295.960,106.400 296.400 C 106.717 296.840,107.285 297.200,107.661 297.200 C 108.038 297.200,108.460 297.560,108.600 298.000 C 108.764 298.518,109.205 298.800,109.851 298.800 C 110.399 298.800,110.753 298.953,110.637 299.140 C 110.522 299.327,110.916 299.730,111.514 300.037 C 112.111 300.344,112.891 300.911,113.247 301.297 C 113.603 301.684,114.100 302.000,114.352 302.000 C 114.928 302.000,116.315 302.785,117.355 303.700 C 117.793 304.085,118.387 304.400,118.675 304.400 C 118.964 304.400,119.200 304.580,119.200 304.800 C 119.200 305.020,119.560 305.200,120.000 305.200 C 120.440 305.200,120.800 305.360,120.800 305.555 C 120.800 305.751,121.423 306.028,122.184 306.171 C 122.946 306.314,124.102 306.964,124.754 307.615 C 125.467 308.329,126.358 308.800,126.993 308.800 C 127.594 308.800,127.941 308.972,127.800 309.200 C 127.656 309.433,128.063 309.600,128.776 309.600 C 129.449 309.600,130.000 309.780,130.000 310.000 C 130.000 310.220,130.360 310.400,130.800 310.400 C 131.240 310.400,131.600 310.580,131.600 310.800 C 131.600 311.020,131.960 311.200,132.400 311.200 C 132.840 311.200,133.200 311.380,133.200 311.600 C 133.200 311.820,133.560 312.000,134.000 312.000 C 134.440 312.000,134.800 312.180,134.800 312.400 C 134.800 312.620,135.340 312.800,136.000 312.800 C 136.660 312.800,137.200 312.980,137.200 313.200 C 137.200 313.420,137.560 313.600,138.000 313.600 C 138.440 313.600,138.800 313.780,138.800 314.000 C 138.800 314.220,139.160 314.400,139.600 314.400 C 140.040 314.400,140.400 314.580,140.400 314.800 C 140.400 315.020,140.940 315.200,141.600 315.200 C 142.260 315.200,142.800 315.380,142.800 315.600 C 142.800 315.820,143.340 316.000,144.000 316.000 C 144.660 316.000,145.200 316.180,145.200 316.400 C 145.200 316.620,145.650 316.800,146.200 316.800 C 146.750 316.800,147.200 316.980,147.200 317.200 C 147.200 317.420,147.729 317.600,148.376 317.600 C 149.023 317.600,149.664 317.780,149.800 318.000 C 149.936 318.220,150.487 318.400,151.024 318.400 C 151.561 318.400,152.000 318.580,152.000 318.800 C 152.000 319.020,152.709 319.200,153.576 319.200 C 154.443 319.200,155.264 319.380,155.400 319.600 C 155.536 319.820,156.076 320.000,156.600 320.000 C 157.124 320.000,157.652 320.160,157.773 320.356 C 157.894 320.551,158.624 320.821,159.396 320.956 C 160.168 321.090,161.430 321.310,162.200 321.444 C 162.970 321.578,163.600 321.848,163.600 322.044 C 163.600 322.240,164.500 322.400,165.600 322.400 C 166.700 322.400,167.600 322.580,167.600 322.800 C 167.600 323.022,168.667 323.200,170.000 323.200 C 171.320 323.200,172.400 323.354,172.400 323.541 C 172.400 323.729,173.319 323.794,174.442 323.686 C 175.852 323.551,176.583 323.649,176.802 324.003 C 177.027 324.367,178.117 324.492,180.559 324.433 C 182.772 324.380,184.000 324.502,184.000 324.775 C 184.000 325.068,188.979 325.200,200.000 325.200 C 211.021 325.200,216.000 325.068,216.000 324.775 C 216.000 324.502,217.228 324.380,219.441 324.433 C 221.870 324.492,222.974 324.366,223.196 324.007 C 223.416 323.650,224.245 323.551,225.955 323.674 C 227.300 323.771,228.400 323.705,228.400 323.526 C 228.400 323.346,229.300 323.200,230.400 323.200 C 231.500 323.200,232.400 323.020,232.400 322.800 C 232.400 322.580,233.300 322.400,234.400 322.400 C 235.500 322.400,236.400 322.240,236.400 322.044 C 236.400 321.848,237.030 321.578,237.800 321.444 C 238.570 321.310,239.832 321.090,240.604 320.956 C 241.376 320.821,242.106 320.551,242.227 320.356 C 242.348 320.160,243.157 320.000,244.024 320.000 C 244.891 320.000,245.600 319.820,245.600 319.600 C 245.600 319.380,246.140 319.200,246.800 319.200 C 247.460 319.200,248.000 319.020,248.000 318.800 C 248.000 318.580,248.439 318.400,248.976 318.400 C 249.513 318.400,250.064 318.220,250.200 318.000 C 250.336 317.780,250.977 317.600,251.624 317.600 C 252.271 317.600,252.800 317.420,252.800 317.200 C 252.800 316.980,253.250 316.800,253.800 316.800 C 254.350 316.800,254.800 316.620,254.800 316.400 C 254.800 316.180,255.340 316.000,256.000 316.000 C 256.660 316.000,257.200 315.820,257.200 315.600 C 257.200 315.380,257.740 315.200,258.400 315.200 C 259.060 315.200,259.600 315.020,259.600 314.800 C 259.600 314.580,259.960 314.400,260.400 314.400 C 260.840 314.400,261.200 314.220,261.200 314.000 C 261.200 313.780,261.740 313.600,262.400 313.600 C 263.060 313.600,263.600 313.420,263.600 313.200 C 263.600 312.980,263.960 312.800,264.400 312.800 C 264.840 312.800,265.200 312.620,265.200 312.400 C 265.200 312.180,265.560 312.000,266.000 312.000 C 266.440 312.000,266.800 311.820,266.800 311.600 C 266.800 311.380,267.160 311.200,267.600 311.200 C 268.040 311.200,268.400 311.020,268.400 310.800 C 268.400 310.580,268.940 310.400,269.600 310.400 C 270.260 310.400,270.800 310.220,270.800 310.000 C 270.800 309.780,271.160 309.600,271.600 309.600 C 272.040 309.600,272.400 309.420,272.400 309.200 C 272.400 308.980,272.671 308.800,273.001 308.800 C 273.769 308.800,276.102 307.555,276.981 306.676 C 277.353 306.304,278.004 306.000,278.429 306.000 C 278.853 306.000,279.200 305.820,279.200 305.600 C 279.200 305.380,279.560 305.200,280.000 305.200 C 280.440 305.200,280.800 305.020,280.800 304.800 C 280.800 304.580,281.036 304.400,281.325 304.400 C 281.613 304.400,282.207 304.085,282.645 303.700 C 283.685 302.785,285.072 302.000,285.648 302.000 C 285.900 302.000,286.397 301.684,286.753 301.297 C 287.109 300.911,287.889 300.344,288.486 300.037 C 289.084 299.730,289.478 299.327,289.363 299.140 C 289.247 298.953,289.601 298.800,290.149 298.800 C 290.795 298.800,291.236 298.518,291.400 298.000 C 291.540 297.560,291.962 297.200,292.339 297.200 C 292.715 297.200,293.283 296.840,293.600 296.400 C 293.917 295.960,294.425 295.600,294.728 295.600 C 295.031 295.600,295.783 295.060,296.400 294.400 C 297.017 293.740,297.727 293.200,297.979 293.200 C 298.230 293.200,298.886 292.750,299.436 292.200 C 299.986 291.650,300.743 291.192,301.118 291.181 C 301.493 291.171,302.340 290.460,303.000 289.600 C 303.660 288.740,304.455 288.029,304.766 288.019 C 305.337 288.000,306.083 287.400,307.713 285.647 C 310.620 282.524,311.577 281.600,311.910 281.600 C 312.566 281.600,318.400 275.663,318.400 274.996 C 318.400 274.642,318.580 274.464,318.800 274.600 C 319.020 274.736,319.200 274.556,319.200 274.200 C 319.200 273.844,319.380 273.664,319.600 273.800 C 319.820 273.936,320.000 273.878,320.000 273.671 C 320.000 273.464,320.741 272.553,321.647 271.647 C 322.553 270.741,323.464 270.000,323.671 270.000 C 323.878 270.000,323.936 269.820,323.800 269.600 C 323.664 269.380,323.828 269.200,324.164 269.200 C 324.537 269.200,324.687 268.971,324.549 268.611 C 324.408 268.244,325.090 267.276,326.362 266.037 C 327.483 264.945,328.400 263.842,328.400 263.586 C 328.400 263.330,328.940 262.617,329.600 262.000 C 330.260 261.383,330.802 260.636,330.804 260.340 C 330.806 260.043,331.346 259.375,332.004 258.855 C 332.662 258.335,333.200 257.662,333.200 257.358 C 333.200 257.055,333.560 256.582,334.000 256.307 C 334.440 256.032,334.800 255.519,334.800 255.166 C 334.800 254.813,335.160 254.198,335.600 253.800 C 336.040 253.402,336.400 252.874,336.400 252.626 C 336.400 252.379,336.760 251.917,337.200 251.600 C 337.640 251.283,338.000 250.705,338.000 250.315 C 338.000 249.926,338.360 249.382,338.800 249.107 C 339.240 248.832,339.600 248.291,339.600 247.904 C 339.600 247.517,339.791 247.200,340.024 247.200 C 340.257 247.200,340.349 247.041,340.229 246.847 C 340.109 246.653,340.368 246.039,340.805 245.484 C 341.242 244.928,341.600 244.187,341.600 243.837 C 341.600 243.487,341.780 243.200,342.000 243.200 C 342.220 243.200,342.400 242.840,342.400 242.400 C 342.400 241.960,342.580 241.600,342.800 241.600 C 343.020 241.600,343.200 241.330,343.200 241.000 C 343.200 240.670,343.380 240.400,343.600 240.400 C 343.820 240.400,344.000 240.119,344.000 239.776 C 344.000 239.433,344.180 239.264,344.400 239.400 C 344.620 239.536,344.800 239.277,344.800 238.824 C 344.800 238.371,344.980 238.000,345.200 238.000 C 345.420 238.000,345.600 237.640,345.600 237.200 C 345.600 236.760,345.780 236.400,346.000 236.400 C 346.220 236.400,346.400 236.040,346.400 235.600 C 346.400 235.160,346.580 234.800,346.800 234.800 C 347.020 234.800,347.200 234.260,347.200 233.600 C 347.200 232.940,347.380 232.400,347.600 232.400 C 347.820 232.400,348.000 232.040,348.000 231.600 C 348.000 231.160,348.180 230.800,348.400 230.800 C 348.620 230.800,348.800 230.440,348.800 230.000 C 348.800 229.560,348.980 229.200,349.200 229.200 C 349.420 229.200,349.600 228.840,349.600 228.400 C 349.600 227.960,349.780 227.600,350.000 227.600 C 350.220 227.600,350.400 227.060,350.400 226.400 C 350.400 225.740,350.580 225.200,350.800 225.200 C 351.020 225.200,351.200 224.840,351.200 224.400 C 351.200 223.960,351.380 223.600,351.600 223.600 C 351.820 223.600,352.000 223.049,352.000 222.376 C 352.000 221.663,352.167 221.256,352.400 221.400 C 352.620 221.536,352.800 221.287,352.800 220.847 C 352.800 220.407,352.980 219.936,353.200 219.800 C 353.420 219.664,353.600 219.113,353.600 218.576 C 353.600 218.039,353.780 217.600,354.000 217.600 C 354.220 217.600,354.400 217.060,354.400 216.400 C 354.400 215.740,354.580 215.200,354.800 215.200 C 355.020 215.200,355.200 214.660,355.200 214.000 C 355.200 213.340,355.359 212.800,355.554 212.800 C 355.749 212.800,356.030 211.825,356.179 210.633 C 356.343 209.319,356.675 208.380,357.025 208.246 C 357.393 208.104,357.600 207.446,357.600 206.413 C 357.600 205.526,357.765 204.800,357.966 204.800 C 358.167 204.800,358.458 203.450,358.613 201.800 C 358.767 200.150,359.053 198.800,359.247 198.800 C 359.441 198.800,359.600 197.900,359.600 196.800 C 359.600 195.700,359.780 194.800,360.000 194.800 C 360.220 194.800,360.400 193.810,360.400 192.600 C 360.400 191.390,360.580 190.400,360.800 190.400 C 361.022 190.400,361.200 189.333,361.200 188.000 C 361.200 186.667,361.378 185.600,361.600 185.600 C 361.833 185.600,362.000 184.267,362.000 182.400 C 362.000 180.533,362.167 179.200,362.400 179.200 C 362.660 179.200,362.800 173.333,362.800 162.400 C 362.800 151.467,362.660 145.600,362.400 145.600 C 362.169 145.600,362.000 144.333,362.000 142.600 C 362.000 140.867,361.831 139.600,361.600 139.600 C 361.378 139.600,361.200 138.533,361.200 137.200 C 361.200 135.867,361.022 134.800,360.800 134.800 C 360.578 134.800,360.400 133.733,360.400 132.400 C 360.400 131.067,360.222 130.000,360.000 130.000 C 359.780 130.000,359.600 129.089,359.600 127.976 C 359.600 126.863,359.441 126.051,359.247 126.171 C 359.052 126.291,358.767 125.043,358.613 123.398 C 358.458 121.752,358.167 120.304,357.966 120.179 C 357.765 120.055,357.600 119.616,357.600 119.205 C 357.600 118.794,357.360 118.217,357.066 117.923 C 356.773 117.630,356.406 116.314,356.252 115.000 C 356.097 113.686,355.797 112.437,355.585 112.225 C 355.373 112.013,355.200 111.336,355.200 110.720 C 355.200 110.104,355.020 109.600,354.800 109.600 C 354.580 109.600,354.400 109.150,354.400 108.600 C 354.400 108.050,354.220 107.600,354.000 107.600 C 353.780 107.600,353.600 107.245,353.600 106.812 C 353.600 106.379,353.240 105.383,352.800 104.600 C 352.360 103.817,352.000 102.731,352.000 102.188 C 352.000 101.645,351.820 101.200,351.600 101.200 C 351.380 101.200,351.200 100.840,351.200 100.400 C 351.200 99.960,351.020 99.600,350.800 99.600 C 350.580 99.600,350.400 99.060,350.400 98.400 C 350.400 97.740,350.220 97.200,350.000 97.200 C 349.780 97.200,349.600 96.840,349.600 96.400 C 349.600 95.960,349.454 95.600,349.275 95.600 C 349.096 95.600,348.702 94.970,348.400 94.200 C 348.098 93.430,347.704 92.800,347.525 92.800 C 347.346 92.800,347.200 92.260,347.200 91.600 C 347.200 90.940,347.020 90.400,346.800 90.400 C 346.580 90.400,346.400 90.080,346.400 89.688 C 346.400 89.297,346.040 88.717,345.600 88.400 C 345.160 88.083,344.800 87.503,344.800 87.112 C 344.800 86.720,344.620 86.400,344.400 86.400 C 344.180 86.400,344.000 86.040,344.000 85.600 C 344.000 85.160,343.820 84.800,343.600 84.800 C 343.380 84.800,343.200 84.440,343.200 84.000 C 343.200 83.560,343.020 83.200,342.800 83.200 C 342.580 83.200,342.400 82.840,342.400 82.400 C 342.400 81.960,342.241 81.600,342.047 81.600 C 341.703 81.600,341.070 80.104,341.157 79.500 C 341.181 79.335,341.020 79.200,340.800 79.200 C 340.580 79.200,340.400 78.829,340.400 78.376 C 340.400 77.923,340.220 77.664,340.000 77.800 C 339.630 78.029,339.398 77.133,339.586 76.200 C 339.630 75.980,339.533 75.933,339.370 76.097 C 338.956 76.510,338.000 75.639,338.000 74.847 C 338.000 74.487,337.640 73.968,337.200 73.693 C 336.760 73.418,336.400 72.874,336.400 72.485 C 336.400 72.095,336.040 71.517,335.600 71.200 C 335.160 70.883,334.800 70.343,334.800 70.000 C 334.800 69.657,334.440 69.117,334.000 68.800 C 333.560 68.483,333.200 67.975,333.200 67.672 C 333.200 67.369,332.660 66.617,332.000 66.000 C 331.340 65.383,330.800 64.683,330.800 64.443 C 330.800 64.203,330.260 63.491,329.600 62.860 C 328.940 62.229,328.398 61.463,328.396 61.157 C 328.394 60.851,327.899 60.210,327.296 59.734 C 324.932 57.867,324.327 57.218,324.493 56.722 C 324.659 56.224,323.924 55.200,323.400 55.200 C 323.259 55.200,322.873 54.930,322.543 54.600 C 322.213 54.270,322.050 54.000,322.180 54.000 C 322.311 54.000,321.334 52.970,320.009 51.711 C 318.684 50.452,317.600 49.187,317.600 48.900 C 317.600 48.275,314.203 44.800,313.592 44.800 C 313.357 44.800,312.750 44.395,312.243 43.900 C 311.737 43.405,310.710 42.447,309.962 41.771 C 309.213 41.096,307.946 39.791,307.146 38.871 C 306.346 37.952,305.463 37.200,305.183 37.200 C 304.904 37.200,303.969 36.480,303.107 35.600 C 302.244 34.720,301.298 34.000,301.005 34.000 C 300.711 34.000,300.017 33.460,299.461 32.800 C 298.906 32.140,298.214 31.600,297.925 31.600 C 297.635 31.600,296.888 31.060,296.265 30.400 C 295.642 29.740,294.879 29.200,294.569 29.200 C 294.260 29.200,293.782 28.840,293.507 28.400 C 293.232 27.960,292.691 27.600,292.304 27.600 C 291.917 27.600,291.600 27.409,291.600 27.176 C 291.600 26.943,291.420 26.864,291.200 27.000 C 290.980 27.136,290.800 26.972,290.800 26.636 C 290.800 26.272,290.570 26.113,290.231 26.244 C 289.905 26.369,289.471 26.107,289.217 25.631 C 288.972 25.174,288.458 24.800,288.074 24.800 C 287.691 24.800,287.117 24.440,286.800 24.000 C 286.483 23.560,285.903 23.200,285.512 23.200 C 285.120 23.200,284.800 23.020,284.800 22.800 C 284.800 22.580,284.480 22.400,284.088 22.400 C 283.697 22.400,283.117 22.040,282.800 21.600 C 282.483 21.160,281.903 20.800,281.512 20.800 C 281.120 20.800,280.800 20.620,280.800 20.400 C 280.800 20.180,280.440 20.000,280.000 20.000 C 279.560 20.000,279.200 19.820,279.200 19.600 C 279.200 19.380,278.840 19.200,278.400 19.200 C 277.960 19.200,277.600 19.020,277.600 18.800 C 277.600 18.580,277.240 18.400,276.800 18.400 C 276.360 18.400,276.000 18.220,276.000 18.000 C 276.000 17.780,275.629 17.600,275.176 17.600 C 274.723 17.600,274.454 17.436,274.579 17.235 C 274.703 17.034,274.264 16.630,273.602 16.337 C 272.941 16.044,272.400 15.669,272.400 15.502 C 272.400 15.336,272.051 15.200,271.624 15.200 C 271.197 15.200,270.736 15.020,270.600 14.800 C 270.464 14.580,269.913 14.400,269.376 14.400 C 268.839 14.400,268.400 14.220,268.400 14.000 C 268.400 13.780,268.147 13.600,267.838 13.600 C 267.172 13.600,263.859 11.932,263.667 11.500 C 263.593 11.335,263.008 11.200,262.367 11.200 C 261.725 11.200,261.200 11.059,261.200 10.887 C 261.200 10.715,260.766 10.539,260.235 10.495 C 259.705 10.451,258.670 10.065,257.935 9.638 C 257.201 9.211,255.745 8.737,254.700 8.585 C 253.655 8.433,252.800 8.150,252.800 7.955 C 252.800 7.760,252.260 7.600,251.600 7.600 C 250.940 7.600,250.400 7.420,250.400 7.200 C 250.400 6.980,249.860 6.800,249.200 6.800 C 248.540 6.800,248.000 6.620,248.000 6.400 C 248.000 6.180,247.460 6.000,246.800 6.000 C 246.140 6.000,245.600 5.820,245.600 5.600 C 245.600 5.380,244.880 5.200,244.000 5.200 C 243.120 5.200,242.400 5.020,242.400 4.800 C 242.400 4.580,241.781 4.400,241.024 4.400 C 240.267 4.400,239.536 4.220,239.400 4.000 C 239.264 3.780,238.533 3.600,237.776 3.600 C 237.019 3.600,236.400 3.420,236.400 3.200 C 236.400 2.980,235.500 2.800,234.400 2.800 C 233.300 2.800,232.400 2.620,232.400 2.400 C 232.400 2.178,231.333 2.000,230.000 2.000 C 228.667 2.000,227.600 1.822,227.600 1.600 C 227.600 1.380,226.625 1.200,225.433 1.200 C 224.113 1.200,223.205 1.014,223.108 0.724 C 222.949 0.248,189.421 -0.106,180.500 0.273 M199.600 72.800 C 199.600 73.022,200.659 73.200,201.976 73.200 C 203.283 73.200,204.459 73.372,204.589 73.583 C 204.719 73.793,205.090 73.864,205.413 73.740 C 205.770 73.603,206.000 73.752,206.000 74.120 C 206.000 74.528,206.260 74.657,206.800 74.516 C 207.247 74.399,207.600 74.504,207.600 74.753 C 207.600 74.999,207.868 75.200,208.197 75.200 C 208.525 75.200,209.018 75.560,209.293 76.000 C 209.568 76.440,210.030 76.800,210.320 76.800 C 210.610 76.800,210.756 76.947,210.645 77.127 C 210.534 77.307,210.793 77.707,211.221 78.015 C 211.650 78.324,212.000 78.820,212.000 79.117 C 212.000 79.414,212.272 79.929,212.604 80.261 C 212.936 80.593,213.105 81.030,212.980 81.232 C 212.855 81.435,212.943 81.600,213.176 81.600 C 213.409 81.600,213.600 81.960,213.600 82.400 C 213.600 82.840,213.780 83.200,214.000 83.200 C 214.220 83.200,214.400 83.920,214.400 84.800 C 214.400 85.680,214.580 86.400,214.800 86.400 C 215.035 86.400,215.200 87.800,215.200 89.800 L 215.200 93.200 216.400 93.200 C 217.060 93.200,217.600 93.380,217.600 93.600 C 217.600 93.820,218.500 94.000,219.600 94.000 C 220.700 94.000,221.600 94.180,221.600 94.400 C 221.600 94.620,222.511 94.800,223.624 94.800 C 224.871 94.800,225.552 94.953,225.400 95.200 C 225.251 95.442,225.796 95.600,226.776 95.600 C 227.669 95.600,228.400 95.780,228.400 96.000 C 228.400 96.220,229.120 96.400,230.000 96.400 C 230.880 96.400,231.600 96.580,231.600 96.800 C 231.600 97.020,232.140 97.200,232.800 97.200 C 233.460 97.200,234.000 97.380,234.000 97.600 C 234.000 97.820,234.320 98.000,234.712 98.000 C 235.103 98.000,235.683 98.360,236.000 98.800 C 236.317 99.240,236.815 99.600,237.106 99.600 C 237.692 99.600,239.600 101.365,239.600 101.906 C 239.600 102.095,239.950 102.625,240.378 103.084 C 240.806 103.544,241.320 104.523,241.520 105.260 C 241.721 105.997,242.046 106.570,242.242 106.532 C 242.830 106.421,242.435 114.452,241.783 115.860 C 241.463 116.554,241.200 117.409,241.200 117.760 C 241.200 118.112,241.020 118.400,240.800 118.400 C 240.580 118.400,240.400 118.675,240.400 119.011 C 240.400 119.755,237.027 123.200,236.299 123.200 C 236.012 123.200,235.517 123.560,235.200 124.000 C 234.861 124.470,234.165 124.800,233.512 124.800 C 232.900 124.800,232.400 124.980,232.400 125.200 C 232.400 125.420,231.680 125.600,230.800 125.600 C 229.920 125.600,229.200 125.780,229.200 126.000 C 229.200 126.220,228.660 126.400,228.000 126.400 C 227.303 126.400,226.800 126.189,226.800 125.897 C 226.800 125.547,226.255 125.438,225.000 125.537 C 223.870 125.627,223.200 125.517,223.200 125.240 C 223.200 124.979,222.389 124.800,221.200 124.800 C 220.100 124.800,219.200 124.620,219.200 124.400 C 219.200 124.180,218.300 124.000,217.200 124.000 C 216.100 124.000,215.200 123.820,215.200 123.600 C 215.200 123.380,214.300 123.200,213.200 123.200 C 212.100 123.200,211.200 123.020,211.200 122.800 C 211.200 122.580,210.221 122.400,209.024 122.400 C 207.827 122.400,206.736 122.220,206.600 122.000 C 206.450 121.757,203.537 121.600,199.200 121.600 C 194.863 121.600,191.950 121.757,191.800 122.000 C 191.664 122.220,190.753 122.400,189.776 122.400 C 188.799 122.400,188.000 122.580,188.000 122.800 C 188.000 123.020,187.460 123.200,186.800 123.200 C 186.140 123.200,185.600 123.380,185.600 123.600 C 185.600 123.820,185.240 124.000,184.800 124.000 C 184.360 124.000,184.000 124.180,184.000 124.400 C 184.000 124.620,183.640 124.800,183.200 124.800 C 182.760 124.800,182.400 125.001,182.400 125.247 C 182.400 125.496,182.047 125.601,181.600 125.484 C 181.069 125.345,180.800 125.472,180.800 125.861 C 180.800 126.183,180.633 126.344,180.429 126.218 C 180.225 126.092,179.948 126.335,179.813 126.758 C 179.679 127.182,179.126 127.819,178.584 128.173 C 177.105 129.143,177.086 135.522,178.558 136.994 C 179.084 137.521,179.624 137.842,179.758 137.709 C 179.891 137.576,180.000 137.767,180.000 138.133 C 180.000 138.500,180.135 138.764,180.300 138.721 C 180.913 138.559,182.334 139.250,182.550 139.815 C 182.674 140.137,183.051 140.400,183.387 140.400 C 183.724 140.400,184.000 140.574,184.000 140.786 C 184.000 140.999,184.900 141.292,186.000 141.438 C 187.100 141.584,188.000 141.860,188.000 142.052 C 188.000 142.243,188.360 142.400,188.800 142.400 C 189.240 142.400,189.600 142.580,189.600 142.800 C 189.600 143.020,190.104 143.200,190.720 143.200 C 191.936 143.200,193.992 144.016,193.997 144.500 C 193.999 144.665,194.720 144.800,195.600 144.800 C 196.480 144.800,197.200 144.980,197.200 145.200 C 197.200 145.420,197.729 145.600,198.376 145.600 C 199.023 145.600,199.664 145.780,199.800 146.000 C 199.936 146.220,200.487 146.400,201.024 146.400 C 201.561 146.400,202.000 146.580,202.000 146.800 C 202.000 147.020,202.540 147.200,203.200 147.200 C 203.860 147.200,204.400 147.380,204.400 147.600 C 204.400 147.820,205.120 148.000,206.000 148.000 C 206.880 148.000,207.600 148.180,207.600 148.400 C 207.600 148.620,208.039 148.800,208.576 148.800 C 209.113 148.800,209.664 148.980,209.800 149.200 C 209.936 149.420,210.487 149.600,211.024 149.600 C 211.561 149.600,212.000 149.780,212.000 150.000 C 212.000 150.220,212.540 150.400,213.200 150.400 C 213.860 150.400,214.400 150.580,214.400 150.800 C 214.400 151.020,214.814 151.200,215.320 151.200 C 216.374 151.200,218.392 152.053,218.397 152.500 C 218.399 152.665,218.940 152.800,219.600 152.800 C 220.260 152.800,220.800 152.980,220.800 153.200 C 220.800 153.420,221.160 153.600,221.600 153.600 C 222.040 153.600,222.400 153.780,222.400 154.000 C 222.400 154.220,222.829 154.400,223.354 154.400 C 224.492 154.400,226.498 155.369,226.127 155.739 C 225.984 155.883,226.357 156.000,226.957 156.000 C 227.652 156.000,227.948 156.160,227.774 156.443 C 227.589 156.741,227.778 156.797,228.350 156.616 C 228.970 156.419,229.200 156.516,229.200 156.973 C 229.200 157.320,229.536 157.600,229.951 157.600 C 230.364 157.600,230.926 157.870,231.200 158.200 C 231.474 158.530,232.036 158.800,232.449 158.800 C 232.862 158.800,233.200 158.980,233.200 159.200 C 233.200 159.420,233.488 159.600,233.840 159.600 C 234.191 159.600,234.983 160.140,235.600 160.800 C 236.217 161.460,236.936 162.000,237.199 162.000 C 237.722 162.000,242.400 166.744,242.400 167.274 C 242.400 167.453,242.604 167.600,242.853 167.600 C 243.438 167.600,244.800 169.168,244.800 169.841 C 244.800 170.127,245.044 170.504,245.342 170.680 C 245.641 170.856,246.200 171.673,246.586 172.496 C 246.972 173.320,247.448 173.894,247.644 173.773 C 247.840 173.652,248.000 173.923,248.000 174.376 C 248.000 174.829,248.180 175.200,248.400 175.200 C 248.620 175.200,248.800 175.560,248.800 176.000 C 248.800 176.440,248.980 176.800,249.200 176.800 C 249.420 176.800,249.600 177.340,249.600 178.000 C 249.600 178.660,249.780 179.200,250.000 179.200 C 250.220 179.200,250.400 179.740,250.400 180.400 C 250.400 181.060,250.580 181.600,250.800 181.600 C 251.020 181.600,251.200 182.219,251.200 182.976 C 251.200 183.733,251.380 184.464,251.600 184.600 C 251.842 184.749,252.000 187.596,252.000 191.800 C 252.000 196.004,251.842 198.851,251.600 199.000 C 251.380 199.136,251.200 199.867,251.200 200.624 C 251.200 201.381,251.020 202.000,250.800 202.000 C 250.580 202.000,250.400 202.720,250.400 203.600 C 250.400 204.480,250.220 205.200,250.000 205.200 C 249.780 205.200,249.600 205.560,249.600 206.000 C 249.600 206.440,249.420 206.800,249.200 206.800 C 248.980 206.800,248.800 207.250,248.800 207.800 C 248.800 208.350,248.620 208.800,248.400 208.800 C 248.180 208.800,248.000 209.149,248.000 209.576 C 248.000 210.003,247.820 210.464,247.600 210.600 C 247.380 210.736,247.200 211.227,247.200 211.690 C 247.200 212.154,247.089 212.422,246.952 212.286 C 246.538 211.871,245.600 213.086,245.600 214.038 C 245.600 214.530,245.483 214.817,245.340 214.674 C 245.016 214.349,243.178 216.441,243.430 216.848 C 243.662 217.223,238.568 222.400,237.966 222.400 C 237.721 222.400,237.017 222.940,236.400 223.600 C 235.783 224.260,234.991 224.800,234.640 224.800 C 234.288 224.800,234.000 224.991,234.000 225.224 C 234.000 225.457,233.820 225.536,233.600 225.400 C 233.380 225.264,233.200 225.411,233.200 225.726 C 233.200 226.042,232.684 226.403,232.052 226.530 C 231.421 226.656,229.973 227.308,228.835 227.980 C 227.696 228.651,226.503 229.200,226.182 229.200 C 225.862 229.200,225.600 229.380,225.600 229.600 C 225.600 229.820,225.060 230.000,224.400 230.000 C 223.740 230.000,223.200 230.180,223.200 230.400 C 223.200 230.620,222.581 230.800,221.824 230.800 C 221.067 230.800,220.336 230.980,220.200 231.200 C 220.064 231.420,219.243 231.600,218.376 231.600 C 217.509 231.600,216.800 231.759,216.800 231.953 C 216.800 232.148,216.440 232.401,216.000 232.516 C 215.320 232.694,215.200 233.062,215.200 234.963 C 215.200 236.193,215.020 237.200,214.800 237.200 C 214.580 237.200,214.400 238.066,214.400 239.125 C 214.400 240.231,214.060 241.754,213.600 242.706 C 213.160 243.616,212.800 244.550,212.800 244.781 C 212.800 245.011,212.620 245.200,212.400 245.200 C 212.180 245.200,212.000 245.470,212.000 245.800 C 212.000 246.130,211.809 246.400,211.576 246.400 C 211.343 246.400,211.264 246.580,211.400 246.800 C 211.536 247.020,211.502 247.201,211.324 247.202 C 211.146 247.203,210.425 247.743,209.722 248.402 C 209.019 249.061,208.293 249.600,208.110 249.600 C 207.927 249.600,207.517 249.960,207.200 250.400 C 206.861 250.870,206.165 251.200,205.512 251.200 C 204.900 251.200,204.400 251.380,204.400 251.600 C 204.400 251.820,203.680 252.000,202.800 252.000 C 201.920 252.000,201.200 252.180,201.200 252.400 C 201.200 252.620,200.480 252.800,199.600 252.800 C 198.720 252.800,198.000 252.620,198.000 252.400 C 198.000 252.180,197.460 252.000,196.800 252.000 C 196.140 252.000,195.600 251.820,195.600 251.600 C 195.600 251.380,195.060 251.200,194.400 251.200 C 193.740 251.200,193.200 251.020,193.200 250.800 C 193.200 250.580,192.852 250.400,192.427 250.400 C 192.002 250.400,191.548 250.085,191.419 249.700 C 191.289 249.315,190.575 248.550,189.831 248.000 C 189.087 247.450,188.549 246.885,188.635 246.745 C 188.721 246.605,188.433 246.397,187.996 246.283 C 187.521 246.159,187.200 245.737,187.200 245.237 C 187.200 244.777,187.020 244.400,186.800 244.400 C 186.580 244.400,186.400 243.871,186.400 243.224 C 186.400 242.577,186.220 241.936,186.000 241.800 C 185.780 241.664,185.600 241.034,185.600 240.400 C 185.600 239.766,185.420 239.136,185.200 239.000 C 184.980 238.864,184.800 237.143,184.800 235.176 L 184.800 231.600 183.624 231.600 C 182.977 231.600,182.336 231.420,182.200 231.200 C 182.064 230.980,181.513 230.800,180.976 230.800 C 180.439 230.800,180.000 230.620,180.000 230.400 C 180.000 230.180,179.280 230.000,178.400 230.000 C 177.520 230.000,176.800 229.820,176.800 229.600 C 176.800 229.380,176.260 229.200,175.600 229.200 C 174.940 229.200,174.400 229.020,174.400 228.800 C 174.400 228.580,173.948 228.400,173.395 228.400 C 172.842 228.400,172.032 228.220,171.595 228.000 C 171.158 227.780,170.442 227.420,170.005 227.200 C 169.568 226.980,168.859 226.800,168.429 226.800 C 167.999 226.800,167.551 226.644,167.433 226.454 C 167.315 226.263,166.765 226.194,166.210 226.300 C 165.507 226.435,165.200 226.318,165.200 225.916 C 165.200 225.502,164.860 225.388,164.000 225.515 C 163.280 225.620,162.800 225.513,162.800 225.245 C 162.800 225.000,162.260 224.800,161.600 224.800 C 160.940 224.800,160.400 224.620,160.400 224.400 C 160.400 224.180,159.961 224.000,159.424 224.000 C 158.887 224.000,158.336 223.820,158.200 223.600 C 158.064 223.380,157.553 223.200,157.065 223.200 C 156.576 223.200,155.917 222.840,155.600 222.400 C 155.283 221.960,154.773 221.600,154.468 221.600 C 153.864 221.600,150.400 218.263,150.400 217.681 C 150.400 217.485,150.040 216.998,149.600 216.600 C 149.160 216.202,148.800 215.465,148.800 214.962 C 148.800 214.459,148.620 213.936,148.400 213.800 C 148.180 213.664,148.000 212.944,148.000 212.200 C 148.000 211.456,147.820 210.736,147.600 210.600 C 147.380 210.464,147.200 209.924,147.200 209.400 C 147.200 208.876,147.380 208.336,147.600 208.200 C 147.820 208.064,148.000 207.333,148.000 206.576 C 148.000 205.819,148.180 205.200,148.400 205.200 C 148.620 205.200,148.800 204.840,148.800 204.400 C 148.800 203.960,148.980 203.600,149.200 203.600 C 149.420 203.600,149.600 203.240,149.600 202.800 C 149.600 202.360,149.780 202.000,150.000 202.000 C 150.220 202.000,150.400 201.706,150.400 201.347 C 150.400 200.121,154.758 196.400,156.195 196.400 C 156.528 196.400,156.801 196.265,156.803 196.100 C 156.805 195.935,157.291 195.575,157.883 195.300 C 159.176 194.699,166.000 194.615,166.000 195.200 C 166.000 195.420,166.720 195.600,167.600 195.600 C 168.480 195.600,169.200 195.780,169.200 196.000 C 169.200 196.220,169.740 196.400,170.400 196.400 C 171.060 196.400,171.600 196.580,171.600 196.800 C 171.600 197.020,172.140 197.200,172.800 197.200 C 173.460 197.200,174.000 197.380,174.000 197.600 C 174.000 197.820,174.439 198.000,174.976 198.000 C 175.513 198.000,176.064 198.180,176.200 198.400 C 176.336 198.620,176.887 198.800,177.424 198.800 C 177.961 198.800,178.400 198.980,178.400 199.200 C 178.400 199.420,178.940 199.600,179.600 199.600 C 180.260 199.600,180.800 199.780,180.800 200.000 C 180.800 200.220,181.340 200.400,182.000 200.400 C 182.660 200.400,183.200 200.580,183.200 200.800 C 183.200 201.020,183.729 201.200,184.376 201.200 C 185.023 201.200,185.664 201.380,185.800 201.600 C 185.936 201.820,186.667 202.000,187.424 202.000 C 188.181 202.000,188.800 202.161,188.800 202.358 C 188.800 202.846,191.404 203.228,196.300 203.459 C 198.555 203.565,200.400 203.820,200.400 204.026 C 200.400 204.529,203.487 204.506,203.800 204.000 C 203.936 203.780,205.556 203.600,207.400 203.600 C 209.244 203.600,210.864 203.420,211.000 203.200 C 211.136 202.980,211.957 202.800,212.824 202.800 C 213.691 202.800,214.400 202.620,214.400 202.400 C 214.400 202.180,214.760 202.000,215.200 202.000 C 215.640 202.000,216.001 201.865,216.003 201.700 C 216.006 201.381,217.910 200.400,218.526 200.400 C 219.064 200.400,221.600 197.531,221.600 196.922 C 221.600 196.635,221.780 196.400,222.000 196.400 C 222.242 196.400,222.400 194.662,222.400 191.987 L 222.400 187.573 221.013 186.187 C 220.251 185.424,219.390 184.800,219.102 184.800 C 218.813 184.800,218.317 184.440,218.000 184.000 C 217.683 183.560,217.229 183.200,216.991 183.200 C 216.325 183.200,214.407 182.237,214.403 181.900 C 214.401 181.735,213.860 181.600,213.200 181.600 C 212.540 181.600,212.000 181.420,212.000 181.200 C 212.000 180.980,211.640 180.800,211.200 180.800 C 210.760 180.800,210.400 180.620,210.400 180.400 C 210.400 180.180,210.038 180.000,209.595 180.000 C 209.152 180.000,208.477 179.838,208.095 179.639 C 207.713 179.440,206.590 179.049,205.600 178.769 C 204.610 178.490,203.629 178.112,203.420 177.930 C 203.211 177.749,202.637 177.600,202.144 177.600 C 201.651 177.600,201.136 177.420,201.000 177.200 C 200.864 176.980,200.324 176.800,199.800 176.800 C 199.276 176.800,198.751 176.644,198.633 176.454 C 198.515 176.263,197.965 176.194,197.410 176.300 C 196.707 176.435,196.400 176.318,196.400 175.916 C 196.400 175.502,196.060 175.388,195.200 175.515 C 194.480 175.620,194.000 175.513,194.000 175.245 C 194.000 175.000,193.381 174.800,192.624 174.800 C 191.867 174.800,191.136 174.620,191.000 174.400 C 190.864 174.180,190.313 174.000,189.776 174.000 C 189.239 174.000,188.800 173.820,188.800 173.600 C 188.800 173.380,188.260 173.200,187.600 173.200 C 186.940 173.200,186.400 173.020,186.400 172.800 C 186.400 172.580,185.860 172.400,185.200 172.400 C 184.540 172.400,184.000 172.220,184.000 172.000 C 184.000 171.780,183.460 171.600,182.800 171.600 C 182.140 171.600,181.600 171.420,181.600 171.200 C 181.600 170.980,181.060 170.800,180.400 170.800 C 179.740 170.800,179.200 170.620,179.200 170.400 C 179.200 170.180,178.840 170.000,178.400 170.000 C 177.960 170.000,177.600 169.820,177.600 169.600 C 177.600 169.380,177.060 169.200,176.400 169.200 C 175.740 169.200,175.199 169.065,175.197 168.900 C 175.193 168.541,173.256 167.600,172.520 167.600 C 172.234 167.600,172.000 167.420,172.000 167.200 C 172.000 166.980,171.730 166.800,171.400 166.800 C 171.070 166.800,170.800 166.620,170.800 166.400 C 170.800 166.180,170.440 166.000,170.000 166.000 C 169.560 166.000,169.200 165.820,169.200 165.600 C 169.200 165.380,168.880 165.200,168.488 165.200 C 168.097 165.200,167.517 164.840,167.200 164.400 C 166.883 163.960,166.343 163.600,166.000 163.600 C 165.657 163.600,165.117 163.240,164.800 162.800 C 164.483 162.360,163.923 162.000,163.557 162.000 C 163.190 162.000,162.465 161.462,161.945 160.804 C 161.425 160.146,160.730 159.603,160.400 159.599 C 159.624 159.588,156.000 156.104,156.000 155.369 C 156.000 155.060,155.460 154.291,154.800 153.660 C 154.140 153.029,153.600 152.258,153.600 151.945 C 153.600 151.632,153.240 151.117,152.800 150.800 C 152.360 150.483,152.000 149.903,152.000 149.512 C 152.000 149.120,151.820 148.800,151.600 148.800 C 151.380 148.800,151.200 148.440,151.200 148.000 C 151.200 147.560,151.020 147.200,150.800 147.200 C 150.580 147.200,150.400 146.750,150.400 146.200 C 150.400 145.650,150.220 145.200,150.000 145.200 C 149.780 145.200,149.600 144.660,149.600 144.000 C 149.600 143.340,149.420 142.800,149.200 142.800 C 148.980 142.800,148.800 142.080,148.800 141.200 C 148.800 140.320,148.620 139.600,148.400 139.600 C 148.149 139.600,148.000 137.067,148.000 132.800 C 148.000 128.533,148.149 126.000,148.400 126.000 C 148.620 126.000,148.800 125.201,148.800 124.224 C 148.800 123.247,148.980 122.336,149.200 122.200 C 149.420 122.064,149.600 121.513,149.600 120.976 C 149.600 120.439,149.780 120.000,150.000 120.000 C 150.220 120.000,150.400 119.640,150.400 119.200 C 150.400 118.760,150.580 118.400,150.800 118.400 C 151.020 118.400,151.200 118.165,151.200 117.877 C 151.200 116.896,153.965 111.855,154.984 110.980 C 155.543 110.500,156.000 109.906,156.000 109.659 C 156.000 109.003,162.195 102.800,162.850 102.800 C 163.157 102.800,163.632 102.440,163.907 102.000 C 164.182 101.560,164.726 101.200,165.115 101.200 C 165.505 101.200,166.083 100.840,166.400 100.400 C 166.717 99.960,167.297 99.600,167.688 99.600 C 168.080 99.600,168.400 99.420,168.400 99.200 C 168.400 98.980,168.760 98.800,169.200 98.800 C 169.640 98.800,170.001 98.665,170.003 98.500 C 170.007 98.135,171.949 97.200,172.703 97.200 C 173.002 97.200,173.136 97.020,173.000 96.800 C 172.859 96.572,173.204 96.400,173.800 96.400 C 174.396 96.400,174.741 96.228,174.600 96.000 C 174.456 95.767,174.863 95.600,175.576 95.600 C 176.249 95.600,176.800 95.420,176.800 95.200 C 176.800 94.980,177.340 94.800,178.000 94.800 C 178.660 94.800,179.200 94.620,179.200 94.400 C 179.200 94.180,179.740 94.000,180.400 94.000 C 181.060 94.000,181.600 93.820,181.600 93.600 C 181.600 93.380,182.320 93.200,183.200 93.200 L 184.800 93.200 184.800 89.800 C 184.800 87.800,184.965 86.400,185.200 86.400 C 185.420 86.400,185.600 85.680,185.600 84.800 C 185.600 83.920,185.780 83.200,186.000 83.200 C 186.220 83.200,186.400 82.840,186.400 82.400 C 186.400 81.960,186.591 81.600,186.824 81.600 C 187.057 81.600,187.145 81.435,187.020 81.232 C 186.895 81.030,187.064 80.593,187.396 80.261 C 187.728 79.929,188.000 79.414,188.000 79.117 C 188.000 78.820,188.350 78.324,188.779 78.015 C 189.207 77.707,189.466 77.307,189.355 77.127 C 189.244 76.947,189.390 76.800,189.680 76.800 C 189.970 76.800,190.432 76.440,190.707 76.000 C 190.982 75.560,191.475 75.200,191.803 75.200 C 192.132 75.200,192.400 75.009,192.400 74.776 C 192.400 74.543,192.580 74.464,192.800 74.600 C 193.020 74.736,193.200 74.546,193.200 74.177 C 193.200 73.676,193.455 73.555,194.210 73.700 C 194.765 73.806,195.315 73.737,195.433 73.546 C 195.551 73.356,196.357 73.200,197.224 73.200 C 198.091 73.200,198.800 73.020,198.800 72.800 C 198.800 72.580,198.980 72.400,199.200 72.400 C 199.420 72.400,199.600 72.580,199.600 72.800 M29.200 275.231 C 29.200 275.480,28.603 275.610,27.780 275.539 C 26.895 275.463,26.233 275.623,26.021 275.966 C 25.823 276.286,25.331 276.423,24.841 276.295 C 24.378 276.174,24.000 276.238,24.000 276.437 C 24.000 276.637,23.595 276.806,23.100 276.813 C 22.605 276.820,21.858 277.084,21.441 277.400 C 21.024 277.716,20.529 277.880,20.341 277.764 C 20.153 277.648,20.000 277.743,20.000 277.976 C 20.000 278.209,19.706 278.400,19.347 278.400 C 18.988 278.400,18.403 278.716,18.047 279.103 C 17.691 279.489,16.905 280.060,16.300 280.370 C 15.695 280.681,15.200 281.085,15.200 281.268 C 15.200 281.450,14.926 281.600,14.591 281.600 C 14.257 281.600,12.993 282.590,11.783 283.800 C 10.573 285.010,9.669 286.000,9.776 286.000 C 9.882 286.000,9.256 286.706,8.384 287.569 C 7.513 288.431,6.800 289.382,6.800 289.680 C 6.800 289.979,6.440 290.483,6.000 290.800 C 5.560 291.117,5.200 291.685,5.200 292.061 C 5.200 292.438,4.840 292.860,4.400 293.000 C 3.960 293.140,3.600 293.476,3.600 293.747 C 3.600 294.462,2.652 296.393,2.300 296.397 C 2.135 296.399,2.000 296.929,2.000 297.576 C 2.000 298.223,1.820 298.864,1.600 299.000 C 1.380 299.136,1.200 299.651,1.200 300.144 C 1.200 300.637,0.975 301.265,0.700 301.540 C -0.031 302.271,-0.031 372.929,0.700 373.660 C 0.975 373.935,1.200 374.574,1.200 375.080 C 1.200 375.586,1.380 376.000,1.600 376.000 C 1.820 376.000,2.000 376.540,2.000 377.200 C 2.000 377.860,2.180 378.400,2.400 378.400 C 2.620 378.400,2.800 378.760,2.800 379.200 C 2.800 379.640,2.980 380.000,3.200 380.000 C 3.420 380.000,3.600 380.320,3.600 380.712 C 3.600 381.103,3.960 381.683,4.400 382.000 C 4.840 382.317,5.200 382.857,5.200 383.200 C 5.200 383.543,5.560 384.083,6.000 384.400 C 6.440 384.717,6.800 385.189,6.800 385.448 C 6.800 385.708,7.475 386.598,8.300 387.427 C 9.125 388.255,9.755 389.083,9.700 389.267 C 9.645 389.450,9.825 389.555,10.100 389.500 C 10.375 389.445,10.555 389.625,10.500 389.900 C 10.445 390.175,10.550 390.355,10.733 390.300 C 10.917 390.245,11.745 390.875,12.573 391.700 C 13.402 392.525,14.292 393.200,14.552 393.200 C 14.811 393.200,15.283 393.560,15.600 394.000 C 15.917 394.440,16.457 394.800,16.800 394.800 C 17.143 394.800,17.683 395.160,18.000 395.600 C 18.317 396.040,18.897 396.400,19.288 396.400 C 19.680 396.400,20.000 396.580,20.000 396.800 C 20.000 397.020,20.360 397.200,20.800 397.200 C 21.240 397.200,21.600 397.380,21.600 397.600 C 21.600 397.820,22.140 398.000,22.800 398.000 C 23.460 398.000,24.000 398.180,24.000 398.400 C 24.000 398.620,24.414 398.800,24.920 398.800 C 25.426 398.800,26.065 399.025,26.340 399.300 C 26.738 399.698,62.005 399.800,200.000 399.800 C 337.995 399.800,373.262 399.698,373.660 399.300 C 373.935 399.025,374.574 398.800,375.080 398.800 C 375.586 398.800,376.000 398.620,376.000 398.400 C 376.000 398.180,376.540 398.000,377.200 398.000 C 377.860 398.000,378.400 397.820,378.400 397.600 C 378.400 397.380,378.760 397.200,379.200 397.200 C 379.640 397.200,380.000 397.020,380.000 396.800 C 380.000 396.580,380.320 396.400,380.712 396.400 C 381.103 396.400,381.683 396.040,382.000 395.600 C 382.317 395.160,382.857 394.800,383.200 394.800 C 383.543 394.800,384.083 394.440,384.400 394.000 C 384.717 393.560,385.189 393.200,385.448 393.200 C 385.708 393.200,386.598 392.525,387.427 391.700 C 388.255 390.875,389.083 390.245,389.267 390.300 C 389.450 390.355,389.555 390.175,389.500 389.900 C 389.445 389.625,389.625 389.445,389.900 389.500 C 390.175 389.555,390.355 389.450,390.300 389.267 C 390.245 389.083,390.875 388.255,391.700 387.427 C 392.525 386.598,393.200 385.708,393.200 385.448 C 393.200 385.189,393.560 384.717,394.000 384.400 C 394.440 384.083,394.800 383.543,394.800 383.200 C 394.800 382.857,395.160 382.317,395.600 382.000 C 396.040 381.683,396.400 381.103,396.400 380.712 C 396.400 380.320,396.580 380.000,396.800 380.000 C 397.020 380.000,397.200 379.640,397.200 379.200 C 397.200 378.760,397.380 378.400,397.600 378.400 C 397.820 378.400,398.000 377.860,398.000 377.200 C 398.000 376.540,398.180 376.000,398.400 376.000 C 398.620 376.000,398.800 375.586,398.800 375.080 C 398.800 374.574,399.025 373.935,399.300 373.660 C 399.693 373.267,399.800 365.515,399.800 337.600 C 399.800 309.685,399.693 301.933,399.300 301.540 C 399.025 301.265,398.800 300.637,398.800 300.144 C 398.800 299.651,398.620 299.136,398.400 299.000 C 398.180 298.864,398.000 298.223,398.000 297.576 C 398.000 296.929,397.865 296.399,397.700 296.397 C 397.348 296.393,396.400 294.462,396.400 293.747 C 396.400 293.476,396.040 293.140,395.600 293.000 C 395.160 292.860,394.800 292.438,394.800 292.061 C 394.800 291.685,394.440 291.117,394.000 290.800 C 393.560 290.483,393.200 289.979,393.200 289.680 C 393.200 289.382,392.487 288.431,391.616 287.569 C 390.744 286.706,390.118 286.000,390.224 286.000 C 390.331 286.000,389.427 285.010,388.217 283.800 C 387.007 282.590,385.743 281.600,385.409 281.600 C 385.074 281.600,384.800 281.450,384.800 281.268 C 384.800 281.085,384.305 280.681,383.700 280.370 C 383.095 280.060,382.309 279.489,381.953 279.103 C 381.597 278.716,381.012 278.400,380.653 278.400 C 380.294 278.400,380.000 278.220,380.000 278.000 C 380.000 277.780,379.651 277.600,379.224 277.600 C 378.797 277.600,378.336 277.420,378.200 277.200 C 378.064 276.980,377.513 276.800,376.976 276.800 C 376.439 276.800,376.000 276.637,376.000 276.437 C 376.000 276.238,375.622 276.174,375.159 276.295 C 374.669 276.423,374.177 276.286,373.979 275.966 C 373.767 275.623,373.105 275.463,372.220 275.539 C 371.397 275.610,370.800 275.480,370.800 275.231 C 370.800 274.934,367.389 274.800,359.800 274.800 C 352.325 274.800,348.800 274.936,348.800 275.224 C 348.800 275.457,348.620 275.536,348.400 275.400 C 348.180 275.264,348.000 275.444,348.000 275.800 C 348.000 276.156,347.840 276.348,347.644 276.227 C 347.448 276.106,346.984 276.647,346.613 277.430 C 346.241 278.213,345.411 279.355,344.769 279.970 C 344.126 280.584,343.600 281.382,343.600 281.743 C 343.600 282.104,343.330 282.400,343.000 282.400 C 342.670 282.400,342.400 282.548,342.400 282.728 C 342.400 282.909,341.590 283.902,340.600 284.935 C 339.610 285.969,338.800 287.002,338.800 287.232 C 338.800 287.631,336.007 290.434,330.861 295.200 C 329.555 296.410,328.567 297.535,328.666 297.700 C 328.766 297.865,328.675 298.000,328.464 298.000 C 327.937 298.000,325.255 300.722,325.520 300.987 C 325.637 301.104,325.423 301.200,325.045 301.200 C 324.666 301.200,323.296 302.280,322.000 303.600 C 320.704 304.920,319.448 306.000,319.209 306.000 C 318.969 306.000,318.143 306.630,317.373 307.400 C 316.603 308.170,315.799 308.800,315.587 308.800 C 314.884 308.800,314.630 308.986,313.262 310.500 C 312.517 311.325,311.652 312.000,311.341 312.000 C 311.030 312.000,310.672 312.269,310.546 312.598 C 310.419 312.926,310.155 313.096,309.958 312.974 C 309.761 312.852,309.600 312.943,309.600 313.176 C 309.600 313.409,309.402 313.600,309.160 313.600 C 308.919 313.600,308.217 314.140,307.600 314.800 C 306.983 315.460,306.231 316.000,305.928 316.000 C 305.625 316.000,305.117 316.360,304.800 316.800 C 304.483 317.240,303.943 317.600,303.600 317.600 C 303.257 317.600,302.717 317.960,302.400 318.400 C 302.083 318.840,301.543 319.200,301.200 319.200 C 300.857 319.200,300.317 319.560,300.000 320.000 C 299.683 320.440,299.103 320.800,298.712 320.800 C 298.320 320.800,298.000 320.980,298.000 321.200 C 298.000 321.420,297.680 321.600,297.288 321.600 C 296.897 321.600,296.317 321.960,296.000 322.400 C 295.683 322.840,295.103 323.200,294.712 323.200 C 294.320 323.200,294.000 323.359,294.000 323.553 C 294.000 323.748,293.622 324.006,293.160 324.126 C 289.739 325.021,294.420 325.200,321.224 325.200 L 349.600 325.200 349.600 337.400 L 349.600 349.600 200.000 349.600 L 50.400 349.600 50.400 337.400 L 50.400 325.200 78.776 325.200 C 105.580 325.200,110.261 325.021,106.840 324.126 C 106.378 324.006,106.000 323.748,106.000 323.553 C 106.000 323.359,105.680 323.200,105.288 323.200 C 104.897 323.200,104.317 322.840,104.000 322.400 C 103.683 321.960,103.103 321.600,102.712 321.600 C 102.320 321.600,102.000 321.420,102.000 321.200 C 102.000 320.980,101.680 320.800,101.288 320.800 C 100.897 320.800,100.317 320.440,100.000 320.000 C 99.683 319.560,99.143 319.200,98.800 319.200 C 98.457 319.200,97.917 318.840,97.600 318.400 C 97.283 317.960,96.743 317.600,96.400 317.600 C 96.057 317.600,95.517 317.240,95.200 316.800 C 94.883 316.360,94.375 316.000,94.072 316.000 C 93.769 316.000,93.017 315.460,92.400 314.800 C 91.783 314.140,91.081 313.600,90.840 313.600 C 90.598 313.600,90.400 313.409,90.400 313.176 C 90.400 312.943,90.239 312.852,90.042 312.974 C 89.845 313.096,89.581 312.926,89.454 312.598 C 89.328 312.269,88.970 312.000,88.659 312.000 C 88.348 312.000,87.483 311.325,86.738 310.500 C 85.370 308.986,85.116 308.800,84.413 308.800 C 84.201 308.800,83.397 308.170,82.627 307.400 C 81.857 306.630,81.032 306.000,80.794 306.000 C 80.556 306.000,79.119 304.740,77.600 303.200 C 76.081 301.660,74.666 300.400,74.455 300.400 C 74.244 300.400,73.617 299.860,73.061 299.200 C 72.506 298.540,71.830 298.000,71.559 298.000 C 71.288 298.000,71.177 297.889,71.313 297.754 C 71.552 297.514,70.693 296.636,64.837 291.136 C 63.276 289.671,62.000 288.280,62.000 288.045 C 62.000 287.810,61.010 286.596,59.800 285.347 C 58.590 284.098,57.600 282.924,57.600 282.738 C 57.600 282.552,57.330 282.400,57.000 282.400 C 56.670 282.400,56.400 282.104,56.400 281.743 C 56.400 281.382,55.874 280.584,55.231 279.970 C 54.589 279.355,53.759 278.213,53.387 277.430 C 53.016 276.647,52.552 276.106,52.356 276.227 C 52.160 276.348,52.000 276.156,52.000 275.800 C 52.000 275.444,51.820 275.264,51.600 275.400 C 51.380 275.536,51.200 275.457,51.200 275.224 C 51.200 274.936,47.675 274.800,40.200 274.800 C 32.611 274.800,29.200 274.934,29.200 275.231 " stroke="none" fill="#4c5c8c" fill-rule="evenodd"></path><path id="path1" d="M43.293 115.600 C 43.293 116.370,43.375 116.685,43.476 116.300 C 43.576 115.915,43.576 115.285,43.476 114.900 C 43.375 114.515,43.293 114.830,43.293 115.600 M356.509 116.000 C 356.509 116.990,356.587 117.395,356.682 116.900 C 356.778 116.405,356.778 115.595,356.682 115.100 C 356.587 114.605,356.509 115.010,356.509 116.000 M223.900 125.482 C 224.395 125.578,225.205 125.578,225.700 125.482 C 226.195 125.387,225.790 125.309,224.800 125.309 C 223.810 125.309,223.405 125.387,223.900 125.482 M230.305 125.483 C 230.802 125.579,231.522 125.575,231.905 125.475 C 232.287 125.375,231.880 125.296,231.000 125.301 C 230.120 125.305,229.807 125.387,230.305 125.483 M227.300 126.276 C 227.685 126.376,228.315 126.376,228.700 126.276 C 229.085 126.175,228.770 126.093,228.000 126.093 C 227.230 126.093,226.915 126.175,227.300 126.276 M27.300 275.476 C 27.685 275.576,28.315 275.576,28.700 275.476 C 29.085 275.375,28.770 275.293,28.000 275.293 C 27.230 275.293,26.915 275.375,27.300 275.476 M371.300 275.476 C 371.685 275.576,372.315 275.576,372.700 275.476 C 373.085 275.375,372.770 275.293,372.000 275.293 C 371.230 275.293,370.915 275.375,371.300 275.476 M174.105 323.887 C 174.714 323.979,175.614 323.977,176.105 323.882 C 176.597 323.787,176.100 323.711,175.000 323.714 C 173.900 323.717,173.497 323.795,174.105 323.887 M224.307 323.890 C 225.026 323.979,226.106 323.977,226.707 323.886 C 227.308 323.795,226.720 323.722,225.400 323.724 C 224.080 323.726,223.588 323.801,224.307 323.890 M179.100 324.693 C 180.035 324.777,181.565 324.777,182.500 324.693 C 183.435 324.609,182.670 324.540,180.800 324.540 C 178.930 324.540,178.165 324.609,179.100 324.693 M217.500 324.693 C 218.435 324.777,219.965 324.777,220.900 324.693 C 221.835 324.609,221.070 324.540,219.200 324.540 C 217.330 324.540,216.565 324.609,217.500 324.693 M10.200 389.600 C 11.059 390.480,11.852 391.200,11.962 391.200 C 12.072 391.200,11.459 390.480,10.600 389.600 C 9.741 388.720,8.948 388.000,8.838 388.000 C 8.728 388.000,9.341 388.720,10.200 389.600 M389.381 389.700 L 387.800 391.400 389.500 389.819 C 391.081 388.348,391.384 388.000,391.081 388.000 C 391.016 388.000,390.251 388.765,389.381 389.700 " stroke="none" fill="#505c8c" fill-rule="evenodd"></path><path id="path2" d="M43.293 115.600 C 43.293 116.370,43.375 116.685,43.476 116.300 C 43.576 115.915,43.576 115.285,43.476 114.900 C 43.375 114.515,43.293 114.830,43.293 115.600 M356.509 116.000 C 356.509 116.990,356.587 117.395,356.682 116.900 C 356.778 116.405,356.778 115.595,356.682 115.100 C 356.587 114.605,356.509 115.010,356.509 116.000 M223.900 125.482 C 224.395 125.578,225.205 125.578,225.700 125.482 C 226.195 125.387,225.790 125.309,224.800 125.309 C 223.810 125.309,223.405 125.387,223.900 125.482 M230.305 125.483 C 230.802 125.579,231.522 125.575,231.905 125.475 C 232.287 125.375,231.880 125.296,231.000 125.301 C 230.120 125.305,229.807 125.387,230.305 125.483 M227.300 126.276 C 227.685 126.376,228.315 126.376,228.700 126.276 C 229.085 126.175,228.770 126.093,228.000 126.093 C 227.230 126.093,226.915 126.175,227.300 126.276 M27.300 275.476 C 27.685 275.576,28.315 275.576,28.700 275.476 C 29.085 275.375,28.770 275.293,28.000 275.293 C 27.230 275.293,26.915 275.375,27.300 275.476 M371.300 275.476 C 371.685 275.576,372.315 275.576,372.700 275.476 C 373.085 275.375,372.770 275.293,372.000 275.293 C 371.230 275.293,370.915 275.375,371.300 275.476 M174.105 323.887 C 174.714 323.979,175.614 323.977,176.105 323.882 C 176.597 323.787,176.100 323.711,175.000 323.714 C 173.900 323.717,173.497 323.795,174.105 323.887 M224.307 323.890 C 225.026 323.979,226.106 323.977,226.707 323.886 C 227.308 323.795,226.720 323.722,225.400 323.724 C 224.080 323.726,223.588 323.801,224.307 323.890 M179.100 324.693 C 180.035 324.777,181.565 324.777,182.500 324.693 C 183.435 324.609,182.670 324.540,180.800 324.540 C 178.930 324.540,178.165 324.609,179.100 324.693 M217.500 324.693 C 218.435 324.777,219.965 324.777,220.900 324.693 C 221.835 324.609,221.070 324.540,219.200 324.540 C 217.330 324.540,216.565 324.609,217.500 324.693 M10.200 389.600 C 11.059 390.480,11.852 391.200,11.962 391.200 C 12.072 391.200,11.459 390.480,10.600 389.600 C 9.741 388.720,8.948 388.000,8.838 388.000 C 8.728 388.000,9.341 388.720,10.200 389.600 M389.381 389.700 L 387.800 391.400 389.500 389.819 C 391.081 388.348,391.384 388.000,391.081 388.000 C 391.016 388.000,390.251 388.765,389.381 389.700 " stroke="none" fill="#505c8c" fill-rule="evenodd"></path><path id="path3" d="M43.293 115.600 C 43.293 116.370,43.375 116.685,43.476 116.300 C 43.576 115.915,43.576 115.285,43.476 114.900 C 43.375 114.515,43.293 114.830,43.293 115.600 M356.509 116.000 C 356.509 116.990,356.587 117.395,356.682 116.900 C 356.778 116.405,356.778 115.595,356.682 115.100 C 356.587 114.605,356.509 115.010,356.509 116.000 M223.900 125.482 C 224.395 125.578,225.205 125.578,225.700 125.482 C 226.195 125.387,225.790 125.309,224.800 125.309 C 223.810 125.309,223.405 125.387,223.900 125.482 M230.305 125.483 C 230.802 125.579,231.522 125.575,231.905 125.475 C 232.287 125.375,231.880 125.296,231.000 125.301 C 230.120 125.305,229.807 125.387,230.305 125.483 M227.300 126.276 C 227.685 126.376,228.315 126.376,228.700 126.276 C 229.085 126.175,228.770 126.093,228.000 126.093 C 227.230 126.093,226.915 126.175,227.300 126.276 M27.300 275.476 C 27.685 275.576,28.315 275.576,28.700 275.476 C 29.085 275.375,28.770 275.293,28.000 275.293 C 27.230 275.293,26.915 275.375,27.300 275.476 M371.300 275.476 C 371.685 275.576,372.315 275.576,372.700 275.476 C 373.085 275.375,372.770 275.293,372.000 275.293 C 371.230 275.293,370.915 275.375,371.300 275.476 M174.105 323.887 C 174.714 323.979,175.614 323.977,176.105 323.882 C 176.597 323.787,176.100 323.711,175.000 323.714 C 173.900 323.717,173.497 323.795,174.105 323.887 M224.307 323.890 C 225.026 323.979,226.106 323.977,226.707 323.886 C 227.308 323.795,226.720 323.722,225.400 323.724 C 224.080 323.726,223.588 323.801,224.307 323.890 M179.100 324.693 C 180.035 324.777,181.565 324.777,182.500 324.693 C 183.435 324.609,182.670 324.540,180.800 324.540 C 178.930 324.540,178.165 324.609,179.100 324.693 M217.500 324.693 C 218.435 324.777,219.965 324.777,220.900 324.693 C 221.835 324.609,221.070 324.540,219.200 324.540 C 217.330 324.540,216.565 324.609,217.500 324.693 M10.200 389.600 C 11.059 390.480,11.852 391.200,11.962 391.200 C 12.072 391.200,11.459 390.480,10.600 389.600 C 9.741 388.720,8.948 388.000,8.838 388.000 C 8.728 388.000,9.341 388.720,10.200 389.600 M389.381 389.700 L 387.800 391.400 389.500 389.819 C 391.081 388.348,391.384 388.000,391.081 388.000 C 391.016 388.000,390.251 388.765,389.381 389.700 " stroke="none" fill="#505c8c" fill-rule="evenodd"></path><path id="path4" d="M43.293 115.600 C 43.293 116.370,43.375 116.685,43.476 116.300 C 43.576 115.915,43.576 115.285,43.476 114.900 C 43.375 114.515,43.293 114.830,43.293 115.600 M356.509 116.000 C 356.509 116.990,356.587 117.395,356.682 116.900 C 356.778 116.405,356.778 115.595,356.682 115.100 C 356.587 114.605,356.509 115.010,356.509 116.000 M223.900 125.482 C 224.395 125.578,225.205 125.578,225.700 125.482 C 226.195 125.387,225.790 125.309,224.800 125.309 C 223.810 125.309,223.405 125.387,223.900 125.482 M230.305 125.483 C 230.802 125.579,231.522 125.575,231.905 125.475 C 232.287 125.375,231.880 125.296,231.000 125.301 C 230.120 125.305,229.807 125.387,230.305 125.483 M227.300 126.276 C 227.685 126.376,228.315 126.376,228.700 126.276 C 229.085 126.175,228.770 126.093,228.000 126.093 C 227.230 126.093,226.915 126.175,227.300 126.276 M27.300 275.476 C 27.685 275.576,28.315 275.576,28.700 275.476 C 29.085 275.375,28.770 275.293,28.000 275.293 C 27.230 275.293,26.915 275.375,27.300 275.476 M371.300 275.476 C 371.685 275.576,372.315 275.576,372.700 275.476 C 373.085 275.375,372.770 275.293,372.000 275.293 C 371.230 275.293,370.915 275.375,371.300 275.476 M174.105 323.887 C 174.714 323.979,175.614 323.977,176.105 323.882 C 176.597 323.787,176.100 323.711,175.000 323.714 C 173.900 323.717,173.497 323.795,174.105 323.887 M224.307 323.890 C 225.026 323.979,226.106 323.977,226.707 323.886 C 227.308 323.795,226.720 323.722,225.400 323.724 C 224.080 323.726,223.588 323.801,224.307 323.890 M179.100 324.693 C 180.035 324.777,181.565 324.777,182.500 324.693 C 183.435 324.609,182.670 324.540,180.800 324.540 C 178.930 324.540,178.165 324.609,179.100 324.693 M217.500 324.693 C 218.435 324.777,219.965 324.777,220.900 324.693 C 221.835 324.609,221.070 324.540,219.200 324.540 C 217.330 324.540,216.565 324.609,217.500 324.693 M10.200 389.600 C 11.059 390.480,11.852 391.200,11.962 391.200 C 12.072 391.200,11.459 390.480,10.600 389.600 C 9.741 388.720,8.948 388.000,8.838 388.000 C 8.728 388.000,9.341 388.720,10.200 389.600 M389.381 389.700 L 387.800 391.400 389.500 389.819 C 391.081 388.348,391.384 388.000,391.081 388.000 C 391.016 388.000,390.251 388.765,389.381 389.700 " stroke="none" fill="#505c8c" fill-rule="evenodd"></path></g></svg>