 <svg  version="1.0" xmlns="http://www.w3.org/2000/svg"  width="300.000000pt" height="300.000000pt" viewBox="0 0 300.000000 300.000000"  preserveAspectRatio="xMidYMid meet">  <g transform="translate(0.000000,300.000000) scale(0.100000,-0.100000)" fill="#325096" stroke="none"> <path d="M615 2646 c-35 -16 -226 -211 -252 -258 -16 -30 -18 -71 -21 -432 l-3 -399 25 -51 c20 -40 151 -176 623 -647 556 -554 601 -597 646 -609 97 -26 80 -40 611 488 467 466 515 520 516 577 0 78 3 75 -623 704 -409 410 -615 609 -642 622 -37 17 -70 19 -445 18 -313 0 -412 -3 -435 -13z m245 -245 c78 -41 123 -139 101 -219 -39 -141 -209 -195 -317 -100 -81 71 -93 180 -29 264 52 68 171 95 245 55z m395 -510 l30 -30 60 21 c75 25 155 20 217 -14 58 -32 61 -59 12 -110 l-39 -39 -82 7 -82 7 -35 -35 c-19 -19 -38 -47 -42 -62 -10 -40 13 -83 51 -96 37 -12 39 -12 170 48 161 75 267 70 347 -15 62 -65 78 -190 35 -275 l-23 -45 28 -34 c37 -44 35 -70 -7 -108 -44 -38 -73 -39 -108 -3 l-28 29 -48 -24 c-66 -33 -145 -40 -208 -19 -93 31 -105 76 -37 135 35 31 38 32 103 25 80 -7 115 6 158 62 54 71 27 154 -50 154 -17 0 -81 -24 -142 -52 -177 -84 -272 -78 -358 23 -62 71 -72 184 -26 273 l20 39 -30 31 c-39 40 -39 62 1 103 40 41 72 42 113 4z"/> </g> </svg> 