 <svg  version="1.0" xmlns="http://www.w3.org/2000/svg"  width="300.000000pt" height="298.000000pt" viewBox="0 0 300.000000 298.000000"  preserveAspectRatio="xMidYMid meet">  <g transform="translate(0.000000,298.000000) scale(0.100000,-0.100000)" fill="#325096" stroke="none"> <path d="M1449 2961 c-23 -19 -24 -24 -27 -190 l-3 -171 25 -25 c31 -31 78 -33 106 -5 18 18 20 33 20 193 0 168 -1 174 -23 195 -29 27 -67 28 -98 3z"/> <path d="M482 2717 c-43 -45 -32 -66 102 -202 102 -102 130 -125 153 -125 53 0 95 59 72 102 -7 13 -63 74 -125 136 -99 99 -117 112 -147 112 -22 0 -41 -8 -55 -23z"/> <path d="M2309 2623 c-66 -64 -122 -128 -126 -141 -13 -52 38 -101 92 -88 39 10 265 240 265 270 0 40 -37 76 -77 76 -31 0 -48 -13 -154 -117z"/> <path d="M1321 2330 c-156 -22 -284 -79 -384 -170 -128 -118 -175 -239 -213 -546 -14 -115 -39 -317 -55 -449 -17 -132 -34 -274 -39 -315 -17 -140 -40 -315 -45 -342 l-4 -28 920 0 920 0 -6 33 c-6 41 -33 254 -45 372 -6 50 -12 101 -15 115 -3 14 -9 66 -15 115 -20 196 -80 665 -90 708 -57 255 -217 422 -469 489 -87 23 -351 33 -460 18z m-171 -393 c0 -1 -5 -18 -10 -37 -6 -19 -21 -96 -35 -170 -39 -218 -174 -875 -185 -905 -8 -21 -14 -25 -22 -17 -9 9 -9 39 1 124 18 169 20 187 31 268 6 41 12 91 14 110 33 302 59 469 83 523 27 59 74 107 106 107 9 0 17 -1 17 -3z"/> <path d="M29 2001 c-35 -36 -37 -61 -5 -98 l24 -28 182 0 c179 0 182 0 201 24 28 35 25 85 -7 110 -25 19 -40 21 -196 21 l-170 0 -29 -29z"/> <path d="M2590 2017 c-32 -16 -47 -58 -34 -94 16 -48 43 -54 226 -51 157 3 169 4 189 25 32 31 30 80 -5 110 -26 22 -34 23 -189 23 -110 0 -170 -4 -187 -13z"/> <path d="M202 1299 c-101 -99 -122 -126 -122 -150 0 -40 32 -69 76 -69 32 0 46 11 144 110 60 60 114 119 120 131 14 25 -3 74 -31 89 -44 24 -64 12 -187 -111z"/> <path d="M2606 1399 c-19 -15 -26 -30 -26 -55 0 -30 13 -46 118 -149 105 -103 121 -115 153 -115 35 0 60 17 71 51 11 30 -21 76 -129 182 -119 116 -138 125 -187 86z"/> <path d="M301 316 c-17 -19 -27 -52 -44 -150 -20 -120 -20 -127 -4 -144 17 -16 95 -17 1170 -20 634 -1 1190 1 1236 5 62 6 87 12 95 25 11 19 -17 225 -37 263 -24 46 21 44 -1218 45 l-1176 0 -22 -24z"/> </g> </svg> 