 <svg  version="1.0" xmlns="http://www.w3.org/2000/svg"  width="300.000000pt" height="300.000000pt" viewBox="0 0 300.000000 300.000000"  preserveAspectRatio="xMidYMid meet">  <g transform="translate(0.000000,300.000000) scale(0.100000,-0.100000)" fill="#ff0000" stroke="none"> <path d="M1302 2989 c-598 -81 -1103 -526 -1252 -1104 -38 -146 -50 -242 -50 -385 0 -653 420 -1229 1040 -1428 170 -54 256 -67 460 -67 204 1 293 13 459 67 925 296 1328 1378 822 2211 -213 350 -569 600 -981 688 -112 23 -383 33 -498 18z m-267 -780 c33 -9 79 -49 253 -222 l212 -211 213 211 c173 173 219 213 252 222 50 13 61 14 108 0 101 -28 164 -138 137 -240 -10 -38 -40 -73 -223 -257 l-212 -212 204 -204 c112 -112 210 -214 217 -227 36 -66 24 -155 -28 -215 -54 -62 -124 -84 -199 -64 -38 10 -73 40 -256 223 l-213 211 -212 -211 c-174 -173 -220 -213 -253 -222 -50 -13 -61 -14 -108 0 -101 28 -164 138 -137 240 10 38 40 73 223 257 l211 212 -211 213 c-183 183 -213 218 -223 256 -26 98 29 202 126 236 48 17 68 18 119 4z"/> </g> </svg> 