<svg width="96" height="96" xmlns="http://www.w3.org/2000/svg" xmlns:xlink="http://www.w3.org/1999/xlink" xml:space="preserve" overflow="hidden"><g><path d="M48 14C66.7 14 82 29.3 82 48 82 66.7 66.7 82 48 82 29.3 82 14 66.7 14 48 14 29.3 29.3 14 48 14M48 10C27 10 10 27 10 48 10 69 27 86 48 86 69 86 86 69 86 48 86 27 69 10 48 10L48 10Z" fill="#FF0000"/><path d="M48 61C41.9 61 36.8 65.6 36.1 71.5 39.3 68.7 43.4 67 48 67 52.6 67 56.7 68.7 59.9 71.5 59.2 65.6 54.1 61 48 61Z" fill="#FF0000"/><path d="M38 44.7C38 48.0137 35.3137 50.7 32 50.7 28.6863 50.7 26 48.0137 26 44.7 26 41.3863 28.6863 38.7 32 38.7 35.3137 38.7 38 41.3863 38 44.7Z" fill="#FF0000"/><path d="M27.6 33C27.9 32.9 34.1 31.2 38.5 36.4 38.9 36.9 39.5 37.1 40 37.1 40.5 37.1 40.9 36.9 41.3 36.6 42.1 35.9 42.2 34.6 41.5 33.8 35.3 26.7 26.8 29.1 26.4 29.2 25.3 29.5 24.7 30.6 25.1 31.7 25.4 32.7 26.5 33.3 27.6 33Z" fill="#FF0000"/><path d="M69.6 29.2C69.2 29.1 60.7 26.7 54.5 33.8 53.8 34.6 53.9 35.9 54.7 36.6 55.1 36.9 55.5 37.1 56 37.1 56.6 37.1 57.1 36.9 57.5 36.4 62 31.3 68.1 32.9 68.4 33 69.5 33.3 70.6 32.7 70.9 31.6 71.2 30.6 70.6 29.5 69.6 29.2Z" fill="#FF0000"/><path d="M70 44.7C70 48.0137 67.3137 50.7 64 50.7 60.6863 50.7 58 48.0137 58 44.7 58 41.3863 60.6863 38.7 64 38.7 67.3137 38.7 70 41.3863 70 44.7Z" fill="#FF0000"/></g></svg>