<svg width="96" height="96" xmlns="http://www.w3.org/2000/svg" xmlns:xlink="http://www.w3.org/1999/xlink" xml:space="preserve" overflow="hidden"><g><path d="M59 63 37 63C35.9 63 35 63.9 35 65 35 66.1 35.9 67 37 67L59 67C60.1 67 61 66.1 61 65 61 63.9 60.1 63 59 63Z" fill="#FFFF00"/><path d="M38 35.7C39.1 35.7 40 34.8 40 33.7 40 32.6 39.1 31.7 38 31.7L26 31.7C24.9 31.7 24 32.6 24 33.7 24 34.8 24.9 35.7 26 35.7L38 35.7Z" fill="#FFFF00"/><path d="M38 44.7C38 48.0137 35.3137 50.7 32 50.7 28.6863 50.7 26 48.0137 26 44.7 26 41.3863 28.6863 38.7 32 38.7 35.3137 38.7 38 41.3863 38 44.7Z" fill="#FFFF00"/><path d="M70 31.7 58 31.7C56.9 31.7 56 32.6 56 33.7 56 34.8 56.9 35.7 58 35.7L70 35.7C71.1 35.7 72 34.8 72 33.7 72 32.6 71.1 31.7 70 31.7Z" fill="#FFFF00"/><path d="M70 44.7C70 48.0137 67.3137 50.7 64 50.7 60.6863 50.7 58 48.0137 58 44.7 58 41.3863 60.6863 38.7 64 38.7 67.3137 38.7 70 41.3863 70 44.7Z" fill="#FFFF00"/><path d="M48 14C66.7 14 82 29.3 82 48 82 66.7 66.7 82 48 82 29.3 82 14 66.7 14 48 14 29.3 29.3 14 48 14M48 10C27 10 10 27 10 48 10 69 27 86 48 86 69 86 86 69 86 48 86 27 69 10 48 10L48 10Z" fill="#FFFF00"/></g></svg>