 <svg  version="1.0" xmlns="http://www.w3.org/2000/svg"  width="300.000000pt" height="300.000000pt" viewBox="0 0 300.000000 300.000000"  preserveAspectRatio="xMidYMid meet">  <g transform="translate(0.000000,300.000000) scale(0.050000,-0.050000)" fill="#f07633" stroke="none"> <path d="M1938 5756 c-9 -28 -6 -221 4 -227 6 -4 10 26 9 67 -2 41 4 89 13 108 9 19 7 39 -4 46 -11 7 -21 10 -22 6z"/> <path d="M2770 5361 c-292 -38 -447 -76 -623 -153 -35 -16 -69 -28 -76 -28 -29 0 -311 -149 -311 -164 0 -9 -9 -16 -21 -16 -86 0 -568 -461 -707 -676 -230 -355 -324 -615 -392 -1084 -43 -291 23 -790 141 -1070 9 -22 37 -89 61 -150 25 -60 70 -149 101 -196 32 -47 57 -90 57 -95 0 -67 438 -532 621 -659 98 -68 254 -163 299 -182 17 -7 71 -31 120 -52 148 -65 166 -72 270 -104 447 -137 957 -135 1403 8 186 59 267 92 292 117 12 12 38 23 57 23 18 0 44 14 58 30 14 17 33 30 44 30 94 0 623 469 766 679 70 103 164 258 182 301 7 17 31 71 52 120 62 140 70 163 103 270 146 479 124 1200 -48 1530 -9 16 -35 75 -59 130 -24 55 -51 114 -62 130 -10 17 -24 44 -31 60 -99 230 -683 840 -804 840 -10 0 -27 11 -39 25 -19 23 -198 116 -354 185 -61 26 -297 90 -480 128 -138 29 -476 42 -620 23z m675 -282 c102 -23 194 -50 204 -60 10 -10 35 -19 55 -19 43 0 343 -138 353 -162 3 -10 18 -18 32 -18 14 0 69 -34 123 -75 791 -602 1088 -1473 814 -2385 -43 -142 -200 -474 -246 -520 -5 -5 -32 -41 -59 -80 -984 -1400 -3195 -1063 -3738 570 -134 401 -135 1185 -2 1319 10 10 19 35 19 55 0 132 284 583 505 801 223 220 663 495 792 495 19 0 44 9 54 19 95 95 772 132 1094 60z"/> <path d="M1862 3720 c-315 -147 -325 -517 -18 -680 307 -164 662 207 489 510 -99 172 -306 247 -471 170z m218 -193 c0 7 17 -3 37 -22 20 -19 33 -42 29 -50 -5 -8 0 -15 11 -15 52 0 0 -190 -62 -223 -29 -15 -36 -15 -26 1 8 13 1 17 -18 10 -17 -7 -27 -19 -22 -27 14 -22 -55 -18 -84 4 -14 11 -25 14 -25 6 0 -8 -22 12 -48 43 -57 68 -58 184 -2 246 40 44 81 55 58 15 -8 -14 6 -4 31 21 43 44 47 45 83 12 21 -19 38 -28 38 -21z"/> <path d="M3850 3713 c-254 -120 -306 -392 -114 -598 28 -30 63 -55 76 -55 14 0 28 -11 32 -23 31 -91 342 -22 436 95 203 253 36 628 -280 628 -27 0 -95 -22 -150 -47z m205 -166 c25 -6 45 -26 45 -43 0 -17 6 -25 13 -17 22 22 62 -54 57 -107 -3 -27 -6 -61 -7 -74 -5 -45 -89 -109 -106 -81 -13 20 -16 20 -17 0 0 -44 -96 -27 -154 27 -87 80 -65 295 27 260 16 -6 24 -3 18 7 -10 15 11 27 69 38 6 2 30 -3 55 -10z"/> <path d="M2810 2367 c-287 -63 -358 -86 -520 -172 -262 -138 -550 -404 -550 -506 0 -157 140 -172 261 -28 78 93 269 254 339 285 17 8 44 21 60 31 291 167 780 188 1100 48 28 -12 64 -27 80 -34 109 -45 309 -204 417 -330 124 -145 263 -129 263 31 -1 128 -397 452 -710 578 -195 79 -586 130 -740 97z"/> </g> </svg> 