 <svg  version="1.0" xmlns="http://www.w3.org/2000/svg"  width="300.000000pt" height="300.000000pt" viewBox="0 0 300.000000 300.000000"  preserveAspectRatio="xMidYMid meet">  <g transform="translate(0.000000,300.000000) scale(0.100000,-0.100000)" fill="#4caf50" stroke="none"> <path d="M1430 2673 c-433 -30 -799 -274 -986 -658 -287 -589 -37 -1298 559 -1580 301 -143 692 -143 992 -1 452 214 723 686 675 1174 -45 452 -331 828 -755 993 -129 50 -343 82 -485 72z m-346 -816 c112 -64 142 -204 63 -294 -40 -45 -82 -63 -149 -63 -102 0 -178 67 -186 164 -6 72 2 98 40 141 65 75 157 95 232 52z m995 4 c45 -23 98 -81 107 -117 4 -14 4 -50 2 -80 -8 -97 -84 -164 -186 -164 -86 0 -155 43 -181 113 -15 40 -14 123 3 155 50 95 167 137 255 93z m-344 -704 c130 -45 212 -95 309 -186 85 -81 106 -133 69 -173 -29 -32 -58 -22 -140 50 -177 155 -276 195 -478 195 -190 0 -310 -52 -483 -207 -71 -63 -100 -70 -131 -31 -29 38 -12 76 78 166 78 78 160 130 273 175 92 36 147 43 298 40 112 -3 147 -8 205 -29z"/> </g> </svg> 