<svg width="96" height="96" xmlns="http://www.w3.org/2000/svg" xmlns:xlink="http://www.w3.org/1999/xlink" xml:space="preserve" overflow="hidden"><g transform="translate(-592 -372)"><path d="M640 382C619 382 602 399 602 420 602 441 619 458 640 458 661 458 678 441 678 420 678 399 661 382 640 382ZM618 414C618 410.7 620.7 408 624 408 627.3 408 630 410.7 630 414 630 417.3 627.3 420 624 420 620.7 420 618 417.3 618 414ZM659.8 436.2C655.2 442.2 648.1 446 640 446 631.9 446 624.8 442.2 620.2 436.2 620 435.9 619.8 435.5 619.8 435 619.8 433.9 620.7 433 621.8 433 622.5 433 623.1 433.3 623.4 433.8 627.2 438.8 633.2 441.9 640 441.9 646.8 441.9 652.7 438.8 656.6 433.8 657 433.3 657.6 433 658.2 433 659.3 433 660.2 433.9 660.2 435 660.2 435.5 660 435.9 659.8 436.2ZM656 420C652.7 420 650 417.3 650 414 650 410.7 652.7 408 656 408 659.3 408 662 410.7 662 414 662 417.3 659.3 420 656 420Z"/></g></svg>