 <svg  version="1.0" xmlns="http://www.w3.org/2000/svg"  width="300.000000pt" height="300.000000pt" viewBox="0 0 300.000000 300.000000"  preserveAspectRatio="xMidYMid meet">  <g transform="translate(0.000000,300.000000) scale(0.100000,-0.100000)" fill="#f07633" stroke="none"> <path d="M1280 2660 c-358 -68 -675 -308 -838 -635 -161 -324 -161 -726 0 -1050 110 -221 311 -422 533 -532 220 -110 493 -148 735 -103 135 25 181 40 296 94 284 135 511 389 610 682 145 433 38 897 -282 1217 -103 103 -202 173 -328 233 -115 54 -161 69 -296 94 -131 25 -299 24 -430 0z m-196 -803 c65 -37 99 -88 104 -155 9 -121 -70 -202 -195 -202 -107 1 -183 80 -183 192 0 49 5 62 33 100 65 85 161 111 241 65z m1001 0 c21 -12 54 -42 72 -65 28 -37 33 -52 33 -98 0 -119 -77 -194 -197 -194 -107 1 -183 80 -183 192 0 49 5 62 33 100 43 56 99 88 157 88 28 0 60 -9 85 -23z m-405 -686 c152 -37 293 -121 395 -233 59 -66 70 -105 38 -140 -31 -34 -66 -23 -129 43 -61 62 -170 141 -214 154 -14 4 -29 11 -35 15 -22 17 -158 40 -234 40 -194 0 -354 -72 -500 -224 -47 -50 -81 -59 -113 -29 -36 32 -24 74 42 146 99 108 238 190 385 227 97 25 266 26 365 1z"/> </g> </svg> 