 <svg  version="1.0" xmlns="http://www.w3.org/2000/svg"  width="96.000000pt" height="96.000000pt" viewBox="0 0 96.000000 96.000000"  preserveAspectRatio="xMidYMid meet">  <g transform="translate(0.000000,96.000000) scale(0.100000,-0.100000)" fill="#009e61" stroke="none"> <path d="M395 846 c-151 -36 -255 -147 -285 -304 -16 -79 -1 -163 42 -245 73 -137 239 -217 390 -187 165 32 276 144 308 308 21 107 -16 233 -95 321 -42 46 -132 95 -203 110 -64 13 -92 13 -157 -3z m-33 -263 c22 -20 23 -61 1 -85 -34 -38 -103 -11 -103 40 0 54 62 81 102 45z m320 0 c38 -34 11 -103 -40 -103 -54 0 -81 62 -45 102 20 22 61 23 85 1z m18 -253 c0 -21 -68 -85 -115 -106 -67 -32 -143 -32 -210 0 -47 21 -115 85 -115 106 0 6 85 10 220 10 135 0 220 -4 220 -10z"/> </g> </svg> 