<?xml version="1.0" encoding="UTF-8"?>
<svg version="1.1" xmlns="http://www.w3.org/2000/svg"  >
<path d="M0 0 C0.8559375 0.7321875 1.711875 1.464375 2.59375 2.21875 C29.21810886 25.55615097 46.31624358 58.96859871 51 94 C51.13704346 94.9751355 51.13704346 94.9751355 51.27685547 95.9699707 C53.59989317 114.11326783 52.80861671 133.12649165 49 151 C48.83371094 151.78632813 48.66742188 152.57265625 48.49609375 153.3828125 C42.58627647 180.26153704 29.82773658 205.70452046 11.0078125 225.8359375 C9.28645685 227.69125078 7.70342909 229.58720874 6.125 231.5625 C2.00892406 236.3758347 -3.00034901 240.15121206 -8 244 C-8.79736572 244.6177832 -8.79736572 244.6177832 -9.61083984 245.24804688 C-18.51640558 252.08591989 -27.76620907 257.40011626 -38 262 C-38.61456055 262.27827637 -39.22912109 262.55655273 -39.86230469 262.84326172 C-54.13973404 269.19944131 -69.47933255 273.23442143 -85 275 C-85.93328125 275.11085938 -86.8665625 275.22171875 -87.828125 275.3359375 C-126.46153151 279.24150045 -168.36528238 271.37129534 -200 248 C-200.5578418 247.58878906 -201.11568359 247.17757813 -201.69042969 246.75390625 C-235.50975364 221.60859533 -255.60260915 185.28488791 -262.45703125 143.9921875 C-268.38433138 102.55335554 -259.41710036 58.38907777 -234.0625 24.5625 C-210.13721389 -6.49028064 -174.44683817 -32.55300723 -134.80712891 -38.32861328 C-85.791529 -43.94676385 -37.67028177 -32.35212435 0 0 Z M-190.75 75.3125 C-196.92686445 82.69042143 -198.78011104 89.49936203 -198 99 C-196.64603972 105.31184427 -194.4733996 110.52502701 -189.0703125 114.375 C-181.49562659 119.25831399 -174.98605506 119.8361356 -166 119 C-159.15002799 116.965987 -153.72796879 113.12715663 -150 107 C-146.56784714 99.87469407 -145.67258742 92.45120316 -148.125 84.875 C-151.05459573 78.03473461 -155.43818195 73.77952298 -162.16796875 70.7265625 C-172.52381102 66.61955469 -182.39824454 68.28943291 -190.75 75.3125 Z M-58.875 76.6875 C-63.99702679 83.09300449 -65.77086512 89.90591622 -65 98 C-62.75843929 106.59264939 -58.55268102 112.02601776 -51.12109375 116.80078125 C-44.89816062 120.31908783 -36.35674932 120.08918733 -29.546875 118.38671875 C-23.49387792 115.68193462 -18.87864089 110.69732516 -15.8984375 104.83203125 C-13.00535075 97.19374147 -12.83169525 89.27772074 -16.08984375 81.74609375 C-19.16201858 75.85226479 -23.63902228 72.30782815 -29.80078125 69.91015625 C-40.57226191 66.84574234 -51.06608691 68.53694696 -58.875 76.6875 Z M-187 173 C-189.44950621 175.44950621 -189.32271254 176.24723021 -189.375 179.625 C-189.12818627 189.18217598 -183.6933059 195.57442634 -177 202 C-154.72268238 220.54478645 -122.69316765 229.51857725 -94 227 C-69.64577822 223.91983569 -42.09117284 212.37987984 -26.30078125 192.8671875 C-22.79978028 187.84172664 -21.2959016 183.21953583 -22 177 C-23.35885116 174.59916562 -23.35885116 174.59916562 -25 173 C-30.45515431 173.4506135 -33.64519021 174.67173793 -38.0625 177.875 C-38.89430786 178.46849243 -38.89430786 178.46849243 -39.74291992 179.07397461 C-42.70307097 181.21243786 -45.57016445 183.44258284 -48.390625 185.76171875 C-69.10730953 202.77517713 -91.33013795 208.61729005 -118 207 C-137.57577638 204.60558821 -153.30656475 194.17940546 -168.3125 182.1875 C-176.69739554 175.27554583 -176.69739554 175.27554583 -187 173 Z " fill="#000000" transform="translate(306,81)"/>
</svg>

