<?xml version="1.0" encoding="utf-8" ?><svg xmlns="http://www.w3.org/2000/svg" xmlns:xlink="http://www.w3.org/1999/xlink" width="2592" height="2592" viewBox="0 0 2592 2592"><path fill="#FFFFFE" transform="scale(0.632812 0.632812)" d="M0 0L4096 0L4096 4096L0 4096L0 0Z"/><path fill="#E57930" transform="scale(0.632812 0.632812)" d="M2012.54 430.181C2905.41 411.19 3644.73 1119.36 3664.18 2012.21C3683.63 2905.06 2975.84 3644.75 2083 3664.66C1189.51 3684.58 449.169 2976.17 429.705 2082.67C410.241 1189.17 1119.03 449.186 2012.54 430.181Z"/><path fill="#FFFFFE" transform="scale(0.632812 0.632812)" d="M1998.52 595.066C2800.62 567.372 3473.45 1194.83 3501.74 1996.9C3530.03 2798.97 2903.08 3472.27 2101.03 3501.16C1298.13 3530.07 623.97 2902.32 595.651 2099.4C567.331 1296.48 1195.59 622.789 1998.52 595.066Z"/><path fill="#E57930" transform="scale(0.632812 0.632812)" d="M2022.07 2464.8C2030.27 2464.44 2039.84 2464.5 2048.15 2464.58C2312.54 2467.11 2577.6 2584.75 2791.49 2733.72C2835.13 2765.18 2879.18 2794.26 2918.89 2830.86C2951.81 2861.2 2953.07 2919.64 2921.82 2951.25C2906.45 2966.8 2865.59 2981.62 2844.36 2971.49C2794.15 2947.53 2755.03 2903.5 2708.24 2873.79C2516.27 2745.66 2309.68 2636.43 2074.19 2626.88C2045.07 2624.67 2003.08 2626.91 1973.45 2629.95C1761.55 2651.69 1564.7 2755.58 1391.56 2874.43C1354.11 2900.13 1286.05 2969.24 1246.26 2973.49C1222.43 2975.83 1198.66 2968.44 1180.36 2953C1163.47 2938.86 1152.99 2918.53 1151.26 2896.57C1148.22 2857.38 1173.01 2834.51 1200.62 2811.93C1401.39 2647.7 1639.69 2525.55 1895.69 2477.67C1936.79 2469.99 1980.35 2467.7 2022.07 2464.8Z"/><path fill="#E57930" transform="scale(0.632812 0.632812)" d="M2714.52 1520.78C2865.07 1502.12 3002.29 1608.92 3021.17 1759.44C3040.04 1909.97 2933.44 2047.34 2782.94 2066.43C2632.14 2085.56 2494.43 1978.69 2475.52 1827.86C2456.61 1677.04 2563.67 1539.48 2714.52 1520.78Z"/><path fill="#FFFFFE" transform="scale(0.632812 0.632812)" d="M2732.64 1678.84C2795.52 1670.6 2853.2 1714.83 2861.56 1777.7C2869.92 1840.57 2825.8 1898.33 2762.95 1906.81C2699.93 1915.31 2641.98 1871.05 2633.59 1808.01C2625.21 1744.98 2669.58 1687.1 2732.64 1678.84Z"/><path fill="#E57930" transform="scale(0.632812 0.632812)" d="M1325.33 1517.37C1476.55 1505.54 1608.78 1618.42 1620.82 1769.63C1632.87 1920.83 1520.17 2053.22 1368.98 2065.47C1217.5 2077.74 1084.8 1964.77 1072.73 1813.27C1060.67 1661.77 1173.82 1529.23 1325.33 1517.37Z"/><path fill="#FFFFFE" transform="scale(0.632812 0.632812)" d="M1325.8 1678.45C1387.83 1667.77 1446.81 1709.33 1457.61 1771.35C1468.42 1833.37 1426.98 1892.42 1364.99 1903.36C1302.81 1914.32 1243.55 1872.74 1232.71 1810.54C1221.87 1748.34 1263.58 1689.16 1325.8 1678.45Z"/></svg>