<svg width="96" height="96" xmlns="http://www.w3.org/2000/svg" xmlns:xlink="http://www.w3.org/1999/xlink" xml:space="preserve" overflow="hidden"><g><path d="M28.2 67.8C28 68.1 27.8 68.5 27.8 69 27.8 70.1 28.7 71 29.8 71 30.5 71 31.1 70.7 31.4 70.2 35.2 65.2 41.2 62.1 48 62.1 54.8 62.1 60.7 65.2 64.6 70.2 65 70.7 65.6 71 66.2 71 67.3 71 68.2 70.1 68.2 69 68.2 68.6 68.1 68.2 67.8 67.8 63.2 61.9 56.1 58 48 58 39.9 58 32.8 61.9 28.2 67.8Z" fill="#FFC000"/><path d="M70 42C70 45.3137 67.3137 48 64 48 60.6863 48 58 45.3137 58 42 58 38.6863 60.6863 36 64 36 67.3137 36 70 38.6863 70 42Z" fill="#FFC000"/><path d="M38 42C38 45.3137 35.3137 48 32 48 28.6863 48 26 45.3137 26 42 26 38.6863 28.6863 36 32 36 35.3137 36 38 38.6863 38 42Z" fill="#FFC000"/><path d="M48 14C66.7 14 82 29.3 82 48 82 66.7 66.7 82 48 82 29.3 82 14 66.7 14 48 14 29.3 29.3 14 48 14M48 10C27 10 10 27 10 48 10 69 27 86 48 86 69 86 86 69 86 48 86 27 69 10 48 10L48 10Z" fill="#FFC000"/></g></svg>