 <svg  version="1.0" xmlns="http://www.w3.org/2000/svg"  width="96.000000pt" height="96.000000pt" viewBox="0 0 96.000000 96.000000"  preserveAspectRatio="xMidYMid meet">  <g transform="translate(0.000000,96.000000) scale(0.100000,-0.100000)" fill="#ff0000" stroke="none"> <path d="M402 850 c-62 -13 -157 -67 -198 -113 -20 -22 -50 -69 -67 -106 -45 -96 -45 -206 0 -302 43 -92 91 -142 180 -186 70 -34 82 -37 162 -37 75 0 94 4 152 31 92 43 142 91 186 180 34 70 37 82 37 163 0 81 -3 93 -37 163 -43 87 -94 137 -181 178 -68 32 -164 44 -234 29z m236 -70 c71 -38 110 -77 149 -153 25 -46 28 -63 28 -147 0 -89 -2 -99 -34 -158 -39 -71 -79 -110 -154 -149 -46 -25 -63 -28 -147 -28 -84 0 -101 3 -147 28 -75 39 -115 78 -154 149 -32 59 -34 69 -34 158 0 84 3 101 27 146 37 70 72 110 125 141 76 44 112 54 198 50 68 -3 89 -8 143 -37z"/> <path d="M255 659 c-11 -16 3 -24 46 -25 24 0 51 -9 70 -23 22 -16 34 -20 42 -12 24 24 -52 71 -117 71 -19 0 -38 -5 -41 -11z"/> <path d="M595 656 c-40 -17 -61 -44 -48 -57 8 -8 20 -5 41 11 18 13 46 22 73 23 32 2 44 6 44 17 0 20 -70 24 -110 6z"/> <path d="M280 550 c-24 -24 -25 -38 -4 -68 29 -42 104 -17 104 35 0 20 -38 53 -60 53 -11 0 -29 -9 -40 -20z"/> <path d="M600 550 c-24 -24 -25 -38 -4 -68 29 -42 104 -17 104 35 0 20 -38 53 -60 53 -11 0 -29 -9 -40 -20z"/> <path d="M434 336 c-29 -13 -64 -50 -64 -68 0 -4 16 0 35 8 19 7 53 14 75 14 22 0 56 -7 75 -14 19 -8 35 -12 35 -8 0 19 -36 55 -66 68 -41 17 -50 17 -90 0z"/> </g> </svg> 