 <svg  version="1.0" xmlns="http://www.w3.org/2000/svg"  width="96.000000pt" height="96.000000pt" viewBox="0 0 96.000000 96.000000"  preserveAspectRatio="xMidYMid meet">  <g transform="translate(0.000000,96.000000) scale(0.100000,-0.100000)" fill="#ff0000" stroke="none"> <path d="M402 850 c-62 -13 -157 -67 -198 -113 -20 -22 -50 -69 -67 -106 -45 -96 -45 -206 0 -302 43 -92 91 -142 180 -186 70 -34 82 -37 162 -37 75 0 94 4 152 31 92 43 142 91 186 180 34 70 37 82 37 163 0 81 -3 93 -37 163 -43 87 -94 137 -181 178 -68 32 -164 44 -234 29z m-24 -170 c36 -22 50 -46 35 -61 -7 -7 -23 -2 -48 16 -25 17 -50 25 -71 23 -38 -2 -49 5 -41 27 9 22 84 20 125 -5z m327 -4 c0 -17 -7 -20 -42 -21 -28 -1 -54 -9 -74 -24 -33 -24 -57 -17 -46 13 20 50 162 78 162 32z m-343 -93 c22 -20 23 -61 1 -85 -34 -38 -103 -11 -103 40 0 54 62 81 102 45z m320 0 c38 -34 11 -103 -40 -103 -54 0 -81 62 -45 102 20 22 61 23 85 1z m-142 -248 c28 -14 67 -71 57 -82 -3 -2 -18 4 -33 14 -38 24 -130 24 -168 0 -35 -24 -42 -17 -22 22 30 56 106 77 166 46z"/> </g> </svg> 