 <svg  version="1.0" xmlns="http://www.w3.org/2000/svg"  width="96.000000pt" height="96.000000pt" viewBox="0 0 96.000000 96.000000"  preserveAspectRatio="xMidYMid meet">  <g transform="translate(0.000000,96.000000) scale(0.050000,-0.050000)" fill="#ffe438" stroke="none"> <path d="M700 1675 c-191 -63 -394 -268 -456 -460 -251 -776 674 -1359 1247 -786 575 574 -15 1503 -791 1246z m410 -56 c524 -137 702 -768 322 -1136 -394 -382 -1023 -184 -1135 356 -95 462 360 898 813 780z"/> <path d="M484 1245 c11 -58 316 -63 316 -6 0 38 -12 41 -161 41 -143 0 -161 -4 -155 -35z"/> <path d="M1120 1239 c0 -57 305 -52 316 6 6 31 -12 35 -155 35 -149 0 -161 -3 -161 -41z"/> <path d="M552 1102 c-88 -97 29 -245 143 -181 107 59 67 219 -55 219 -30 0 -69 -17 -88 -38z"/> <path d="M1192 1102 c-88 -97 29 -245 143 -181 107 59 67 219 -55 219 -30 0 -69 -17 -88 -38z"/> <path d="M708 662 c-62 -63 -4 -82 252 -82 247 0 260 2 260 40 0 22 -7 40 -15 41 -117 6 -490 7 -497 1z"/> </g> </svg> 