<svg width="96" height="96" xmlns="http://www.w3.org/2000/svg" xmlns:xlink="http://www.w3.org/1999/xlink" xml:space="preserve" overflow="hidden"><g><path d="M48 10C27 10 10 27 10 48 10 69 27 86 48 86 69 86 86 69 86 48 86 27 69 10 48 10ZM24 31C24 29.9 24.9 29 26 29L38 29C39.1 29 40 29.9 40 31 40 32.1 39.1 33 38 33L26 33C24.9 33 24 32.1 24 31ZM26 42C26 38.7 28.7 36 32 36 35.3 36 38 38.7 38 42 38 45.3 35.3 48 32 48 28.7 48 26 45.3 26 42ZM59 67 37 67C35.9 67 35 66.1 35 65 35 63.9 35.9 63 37 63L59 63C60.1 63 61 63.9 61 65 61 66.1 60.1 67 59 67ZM64 48C60.7 48 58 45.3 58 42 58 38.7 60.7 36 64 36 67.3 36 70 38.7 70 42 70 45.3 67.3 48 64 48ZM70 33 58 33C56.9 33 56 32.1 56 31 56 29.9 56.9 29 58 29L70 29C71.1 29 72 29.9 72 31 72 32.1 71.1 33 70 33Z" fill="#FFFF00"/></g></svg>