 <svg  version="1.0" xmlns="http://www.w3.org/2000/svg"  width="300.000000pt" height="300.000000pt" viewBox="0 0 300.000000 300.000000"  preserveAspectRatio="xMidYMid meet">  <g transform="translate(0.000000,300.000000) scale(0.100000,-0.100000)" fill="#ffe438" stroke="none"> <path d="M1345 2675 c-55 -7 -112 -17 -126 -23 -15 -6 -29 -9 -32 -6 -2 2 -25 -4 -51 -15 -25 -11 -46 -18 -46 -15 0 2 -15 -3 -32 -13 -18 -9 -39 -18 -47 -19 -13 -2 -163 -87 -185 -105 -6 -5 -45 -35 -86 -68 -94 -75 -114 -97 -218 -236 -41 -56 -118 -195 -107 -195 3 0 -2 -11 -10 -24 -9 -13 -18 -36 -21 -51 -3 -15 -12 -41 -20 -57 -9 -17 -13 -32 -10 -35 2 -3 -2 -22 -9 -44 -8 -21 -16 -69 -19 -106 -3 -38 -9 -87 -12 -111 -7 -46 12 -257 28 -310 5 -18 11 -43 13 -55 1 -12 10 -39 19 -60 9 -20 14 -37 11 -37 -14 0 94 -207 137 -265 4 -5 27 -35 50 -65 67 -88 109 -129 253 -238 54 -41 208 -120 257 -131 4 -1 25 -9 45 -18 21 -9 47 -17 58 -19 11 -1 49 -10 85 -20 92 -24 368 -24 460 0 36 10 74 19 85 20 11 2 30 8 41 14 12 6 33 13 47 16 46 8 204 89 272 138 127 93 204 169 303 303 45 60 142 252 142 280 0 9 5 26 12 38 6 12 12 31 14 42 1 11 10 49 20 85 13 49 17 105 17 230 0 125 -4 181 -17 230 -10 36 -19 74 -20 85 -2 11 -8 30 -14 41 -6 12 -13 33 -16 47 -8 46 -89 204 -138 272 -92 126 -177 211 -303 303 -72 52 -224 130 -273 138 -14 3 -38 12 -54 20 -17 9 -32 13 -35 10 -3 -2 -17 0 -32 6 -32 12 -240 38 -296 36 -22 0 -85 -6 -140 -13z m-111 -607 c22 -32 20 -64 -6 -82 -19 -13 -58 -16 -228 -16 -151 0 -211 3 -224 13 -23 17 -28 68 -8 90 13 15 38 17 233 17 214 0 218 0 233 -22z m998 5 c24 -21 23 -58 -2 -83 -19 -19 -33 -20 -228 -20 -172 0 -211 3 -230 16 -26 18 -29 60 -5 86 15 16 36 18 231 18 186 0 218 -2 234 -17z m-1148 -220 c58 -30 106 -104 106 -162 0 -36 -21 -91 -45 -122 -33 -42 -83 -62 -152 -62 -51 0 -67 5 -97 28 -53 40 -76 84 -77 146 -2 63 23 123 62 151 64 47 137 55 203 21z m1001 0 c69 -35 98 -87 96 -172 -2 -66 -19 -100 -72 -142 -38 -30 -49 -33 -103 -33 -62 1 -118 22 -144 53 -23 28 -52 102 -52 131 0 32 22 87 47 115 61 71 147 89 228 48z m-201 -838 c25 -26 28 -53 9 -79 l-18 -25 -375 0 -375 0 -18 25 c-19 26 -16 53 9 79 23 23 745 23 768 0z"/> </g> </svg> 