 <svg  version="1.0" xmlns="http://www.w3.org/2000/svg"  width="96.000000pt" height="96.000000pt" viewBox="0 0 96.000000 96.000000"  preserveAspectRatio="xMidYMid meet">  <g transform="translate(0.000000,96.000000) scale(0.050000,-0.050000)" fill="#4caf00" stroke="none"> <path d="M750 1693 c-837 -277 -666 -1483 210 -1483 815 0 1052 1104 310 1443 -142 65 -388 84 -520 40z m422 -95 c195 -60 366 -231 426 -426 217 -703 -643 -1200 -1138 -658 -466 510 46 1290 712 1084z"/> <path d="M553 1163 c-44 -48 -42 -129 4 -170 79 -72 203 -17 203 90 0 103 -138 156 -207 80z"/> <path d="M1193 1163 c-72 -79 -17 -203 90 -203 103 0 156 138 80 207 -48 44 -129 42 -170 -4z"/> <path d="M564 656 c16 -112 266 -229 449 -210 156 16 347 135 347 216 0 55 -33 47 -124 -30 -161 -138 -391 -138 -552 0 -93 79 -129 86 -120 24z"/> </g> </svg> 