 <svg  version="1.0" xmlns="http://www.w3.org/2000/svg"  width="96.000000pt" height="96.000000pt" viewBox="0 0 96.000000 96.000000"  preserveAspectRatio="xMidYMid meet">  <g transform="translate(0.000000,96.000000) scale(0.100000,-0.100000)" fill="#325096" stroke="none"> <path d="M385 761 c-120 -56 -168 -191 -109 -310 57 -115 189 -158 305 -100 35 17 37 17 53 0 9 -10 16 -23 16 -30 0 -23 122 -141 146 -141 29 0 54 25 54 54 0 24 -116 146 -139 146 -8 0 -22 7 -32 16 -17 16 -17 18 2 57 17 32 20 54 17 113 -3 62 -8 79 -35 116 -63 87 -185 122 -278 79z m192 -57 c80 -60 107 -179 55 -244 -17 -21 -17 -21 -84 -3 -67 17 -100 15 -195 -13 -49 -14 -72 119 -33 196 12 23 37 49 62 65 37 22 52 25 105 23 43 -3 71 -10 90 -24z"/> <path d="M411 664 c-25 -21 -31 -33 -31 -66 0 -50 13 -74 52 -94 40 -21 91 -11 118 23 30 38 34 67 15 106 -29 61 -101 75 -154 31z"/> <path d="M192 733 c-18 -7 -42 -57 -42 -88 0 -25 39 -75 58 -75 5 0 15 19 20 43 6 24 22 59 36 79 13 20 22 39 18 42 -6 7 -72 7 -90 -1z"/> <path d="M678 735 c-3 -3 8 -31 24 -61 15 -31 28 -67 28 -80 0 -48 65 -13 75 40 8 38 -14 90 -40 100 -20 7 -80 8 -87 1z"/> <path d="M146 520 c-74 -29 -86 -44 -86 -107 l0 -53 108 0 c60 0 111 3 115 6 3 4 -5 22 -18 42 -13 19 -30 57 -36 84 -7 26 -18 48 -23 48 -6 -1 -33 -9 -60 -20z"/> <path d="M736 528 c-14 -51 -28 -95 -32 -105 -3 -7 1 -13 9 -13 9 0 29 -11 45 -25 24 -20 41 -25 86 -25 l56 0 0 53 c0 60 -12 77 -70 100 -59 24 -90 29 -94 15z"/> <path d="M307 333 c-4 -3 -7 -30 -7 -60 l0 -53 180 0 c197 0 203 2 160 57 -11 14 -20 32 -20 40 0 11 -5 13 -17 8 -10 -4 -40 -14 -68 -22 -54 -15 -120 -7 -175 22 -32 17 -43 18 -53 8z"/> </g> </svg> 