<svg id="svg" version="1.1" xmlns="http://www.w3.org/2000/svg" xmlns:xlink="http://www.w3.org/1999/xlink" width="400" height="400" viewBox="0, 0, 400,400"><g id="svgg"><path id="path0" d="M186.800 0.274 C 185.590 0.369,184.429 0.616,184.220 0.823 C 184.011 1.030,183.257 1.200,182.544 1.200 C 181.831 1.200,181.136 1.380,181.000 1.600 C 180.864 1.820,180.043 2.000,179.176 2.000 C 178.309 2.000,177.600 2.180,177.600 2.400 C 177.600 2.620,177.049 2.800,176.376 2.800 C 175.663 2.800,175.256 2.967,175.400 3.200 C 175.544 3.433,175.137 3.600,174.424 3.600 C 173.751 3.600,173.200 3.780,173.200 4.000 C 173.200 4.220,172.840 4.400,172.400 4.400 C 171.960 4.400,171.600 4.580,171.600 4.800 C 171.600 5.020,171.060 5.200,170.400 5.200 C 169.740 5.200,169.200 5.380,169.200 5.600 C 169.200 5.820,168.840 6.000,168.400 6.000 C 167.960 6.000,167.600 6.180,167.600 6.400 C 167.600 6.620,167.240 6.800,166.800 6.800 C 166.360 6.800,166.000 6.980,166.000 7.200 C 166.000 7.420,165.640 7.600,165.200 7.600 C 164.760 7.600,164.400 7.780,164.400 8.000 C 164.400 8.220,164.054 8.400,163.631 8.400 C 163.208 8.400,162.327 8.850,161.673 9.400 C 161.019 9.950,160.313 10.400,160.104 10.400 C 159.895 10.400,159.398 10.760,159.000 11.200 C 158.602 11.640,157.987 12.000,157.634 12.000 C 157.281 12.000,156.768 12.360,156.493 12.800 C 156.218 13.240,155.746 13.600,155.445 13.600 C 155.143 13.600,154.155 14.320,153.248 15.200 C 152.341 16.080,151.417 16.800,151.195 16.800 C 150.743 16.800,143.600 23.932,143.600 24.383 C 143.600 24.542,143.130 24.886,142.556 25.147 C 141.778 25.502,141.568 25.833,141.729 26.451 C 141.848 26.906,141.852 27.185,141.736 27.070 C 141.422 26.756,138.800 29.582,138.800 30.234 C 138.800 30.545,138.650 30.800,138.468 30.800 C 138.285 30.800,137.881 31.295,137.570 31.900 C 137.260 32.505,136.689 33.291,136.303 33.647 C 135.916 34.003,135.600 34.588,135.600 34.947 C 135.600 35.306,135.420 35.600,135.200 35.600 C 134.980 35.600,134.800 35.920,134.800 36.312 C 134.800 36.703,134.440 37.283,134.000 37.600 C 133.560 37.917,133.200 38.497,133.200 38.888 C 133.200 39.280,133.020 39.600,132.800 39.600 C 132.580 39.600,132.400 39.960,132.400 40.400 C 132.400 40.840,132.220 41.200,132.000 41.200 C 131.780 41.200,131.600 41.470,131.600 41.800 C 131.600 42.130,131.420 42.400,131.200 42.400 C 130.980 42.400,130.800 42.850,130.800 43.400 C 130.800 43.950,130.620 44.400,130.400 44.400 C 130.180 44.400,130.000 44.850,130.000 45.400 C 130.000 45.950,129.853 46.400,129.672 46.400 C 129.492 46.400,129.096 47.311,128.793 48.425 C 128.490 49.539,128.097 50.540,127.921 50.649 C 127.744 50.758,127.600 51.289,127.600 51.830 C 127.600 53.000,126.709 56.000,126.361 56.000 C 126.227 56.000,126.204 56.900,126.310 58.000 C 126.456 59.525,126.371 60.000,125.951 59.999 C 125.533 59.999,125.433 60.531,125.537 62.199 C 125.625 63.608,125.517 64.400,125.237 64.400 C 124.933 64.400,124.800 67.380,124.800 74.200 C 124.800 80.467,124.944 84.000,125.200 84.000 C 125.420 84.000,125.600 84.540,125.600 85.200 C 125.600 85.860,125.801 86.400,126.047 86.400 C 126.296 86.400,126.401 86.753,126.284 87.201 C 126.169 87.641,126.238 87.900,126.437 87.777 C 126.755 87.581,126.984 88.432,126.847 89.300 C 126.821 89.465,126.980 89.600,127.200 89.600 C 127.420 89.600,127.600 89.830,127.600 90.112 C 127.600 90.393,127.960 90.883,128.400 91.200 C 128.840 91.517,129.200 91.989,129.200 92.248 C 129.200 92.862,131.938 95.600,132.552 95.600 C 132.811 95.600,133.283 95.960,133.600 96.400 C 133.917 96.840,134.457 97.200,134.800 97.200 C 135.143 97.200,135.683 97.560,136.000 98.000 C 136.339 98.470,137.035 98.800,137.688 98.800 C 138.300 98.800,138.800 98.980,138.800 99.200 C 138.800 99.420,139.340 99.600,140.000 99.600 C 140.660 99.600,141.200 99.780,141.200 100.000 C 141.200 100.265,161.067 100.400,200.000 100.400 C 238.933 100.400,258.800 100.265,258.800 100.000 C 258.800 99.780,259.340 99.600,260.000 99.600 C 260.660 99.600,261.200 99.420,261.200 99.200 C 261.200 98.980,261.700 98.800,262.312 98.800 C 262.965 98.800,263.661 98.470,264.000 98.000 C 264.317 97.560,264.857 97.200,265.200 97.200 C 265.543 97.200,266.083 96.840,266.400 96.400 C 266.717 95.960,267.189 95.600,267.448 95.600 C 268.009 95.600,270.800 92.886,270.800 92.342 C 270.800 91.787,272.673 90.007,272.958 90.291 C 273.091 90.424,273.200 90.043,273.200 89.443 C 273.200 88.843,273.347 88.444,273.528 88.555 C 273.708 88.667,273.777 88.227,273.682 87.579 C 273.579 86.876,273.689 86.400,273.955 86.400 C 274.200 86.400,274.400 85.860,274.400 85.200 C 274.400 84.540,274.580 84.000,274.800 84.000 C 275.056 84.000,275.200 80.333,275.200 73.800 C 275.200 66.691,275.068 63.600,274.763 63.600 C 274.483 63.600,274.375 62.809,274.463 61.404 C 274.563 59.809,274.449 59.150,274.049 58.997 C 273.664 58.849,273.565 58.373,273.720 57.417 C 273.842 56.663,273.783 55.992,273.589 55.924 C 273.394 55.856,273.190 55.125,273.136 54.300 C 273.081 53.475,272.937 52.800,272.815 52.800 C 272.693 52.800,272.146 51.360,271.600 49.600 C 271.054 47.840,270.471 46.400,270.304 46.400 C 270.137 46.400,270.000 45.950,270.000 45.400 C 270.000 44.850,269.820 44.400,269.600 44.400 C 269.380 44.400,269.200 43.950,269.200 43.400 C 269.200 42.850,269.020 42.400,268.800 42.400 C 268.580 42.400,268.400 42.130,268.400 41.800 C 268.400 41.470,268.220 41.200,268.000 41.200 C 267.780 41.200,267.600 40.840,267.600 40.400 C 267.600 39.960,267.420 39.600,267.200 39.600 C 266.980 39.600,266.800 39.240,266.800 38.800 C 266.800 38.360,266.620 38.000,266.400 38.000 C 266.180 38.000,266.000 37.680,266.000 37.288 C 266.000 36.897,265.640 36.317,265.200 36.000 C 264.760 35.683,264.400 35.169,264.400 34.859 C 264.400 34.548,264.084 34.003,263.697 33.647 C 263.311 33.291,262.740 32.505,262.430 31.900 C 262.119 31.295,261.715 30.800,261.532 30.800 C 261.350 30.800,261.200 30.532,261.200 30.203 C 261.200 29.875,260.660 29.091,260.000 28.460 C 259.340 27.829,258.800 27.010,258.800 26.638 C 258.800 26.267,258.261 25.656,257.603 25.281 C 256.944 24.907,256.404 24.487,256.403 24.348 C 256.398 23.913,248.438 16.000,248.005 16.000 C 247.778 16.000,247.028 15.460,246.337 14.800 C 245.646 14.140,244.840 13.600,244.544 13.600 C 244.249 13.600,243.782 13.240,243.507 12.800 C 243.232 12.360,242.719 12.000,242.366 12.000 C 242.013 12.000,241.398 11.640,241.000 11.200 C 240.602 10.760,240.105 10.400,239.896 10.400 C 239.687 10.400,238.981 9.950,238.327 9.400 C 237.673 8.850,236.792 8.400,236.369 8.400 C 235.946 8.400,235.600 8.220,235.600 8.000 C 235.600 7.780,235.240 7.600,234.800 7.600 C 234.360 7.600,234.000 7.420,234.000 7.200 C 234.000 6.980,233.640 6.800,233.200 6.800 C 232.760 6.800,232.400 6.620,232.400 6.400 C 232.400 6.180,232.040 6.000,231.600 6.000 C 231.160 6.000,230.800 5.820,230.800 5.600 C 230.800 5.380,230.260 5.200,229.600 5.200 C 228.940 5.200,228.400 5.020,228.400 4.800 C 228.400 4.580,228.040 4.400,227.600 4.400 C 227.160 4.400,226.800 4.220,226.800 4.000 C 226.800 3.780,226.249 3.600,225.576 3.600 C 224.863 3.600,224.456 3.433,224.600 3.200 C 224.744 2.967,224.337 2.800,223.624 2.800 C 222.951 2.800,222.400 2.620,222.400 2.400 C 222.400 2.180,221.691 2.000,220.824 2.000 C 219.957 2.000,219.136 1.820,219.000 1.600 C 218.864 1.380,218.169 1.200,217.456 1.200 C 216.743 1.200,215.939 0.979,215.670 0.710 C 215.179 0.219,191.985 -0.131,186.800 0.274 M43.600 75.245 C 43.600 75.513,43.120 75.620,42.400 75.515 C 41.537 75.388,41.200 75.502,41.200 75.919 C 41.200 76.351,40.893 76.439,40.000 76.260 C 39.340 76.128,38.800 76.174,38.800 76.361 C 38.800 76.549,38.260 76.927,37.600 77.200 C 36.940 77.473,36.400 77.855,36.400 78.049 C 36.400 78.242,36.132 78.400,35.803 78.400 C 35.475 78.400,34.691 78.940,34.060 79.600 C 33.429 80.260,32.724 80.800,32.492 80.800 C 32.261 80.800,31.617 81.340,31.061 82.000 C 30.506 82.660,29.860 83.200,29.626 83.200 C 29.392 83.200,29.200 83.494,29.200 83.853 C 29.200 84.212,28.869 84.797,28.464 85.153 C 28.059 85.509,27.609 86.282,27.463 86.872 C 27.318 87.462,26.930 88.213,26.601 88.542 C 26.272 88.871,26.111 89.424,26.244 89.770 C 26.396 90.167,26.268 90.400,25.898 90.400 C 25.495 90.400,25.368 90.699,25.493 91.353 C 25.593 91.877,25.478 92.428,25.238 92.577 C 24.994 92.727,24.800 93.990,24.800 95.424 C 24.800 96.875,24.625 98.000,24.400 98.000 C 24.180 98.000,24.000 98.900,24.000 100.000 C 24.000 101.100,24.180 102.000,24.400 102.000 C 24.620 102.000,24.800 102.990,24.800 104.200 C 24.800 105.539,24.973 106.400,25.242 106.400 C 25.516 106.400,25.626 107.007,25.531 108.000 C 25.420 109.169,25.528 109.600,25.932 109.600 C 26.271 109.600,26.392 109.844,26.244 110.230 C 26.111 110.576,26.272 111.129,26.601 111.458 C 26.930 111.787,27.317 112.525,27.460 113.099 C 27.604 113.672,28.232 114.694,28.855 115.371 C 32.546 119.374,33.200 120.110,33.200 120.254 C 33.200 120.342,33.830 121.026,34.600 121.774 C 35.370 122.521,36.001 123.013,36.003 122.867 C 36.004 122.720,36.363 123.140,36.800 123.800 C 37.237 124.460,37.596 124.854,37.597 124.675 C 37.599 124.496,38.860 125.645,40.400 127.228 C 41.940 128.811,43.200 130.263,43.200 130.453 C 43.200 130.644,43.470 130.800,43.800 130.800 C 44.130 130.800,44.400 130.953,44.400 131.139 C 44.400 131.325,46.020 133.104,48.000 135.092 C 49.980 137.079,51.601 138.592,51.603 138.453 C 51.604 138.314,51.933 138.696,52.333 139.303 C 52.733 139.910,53.137 140.349,53.230 140.279 C 53.324 140.210,54.878 141.648,56.684 143.476 C 58.490 145.304,59.840 146.801,59.684 146.803 C 59.528 146.804,59.940 147.163,60.600 147.600 C 61.260 148.037,61.686 148.396,61.547 148.397 C 61.408 148.399,62.921 150.020,64.908 152.000 C 66.896 153.980,68.675 155.600,68.861 155.600 C 69.047 155.600,69.200 155.870,69.200 156.200 C 69.200 156.530,69.356 156.800,69.547 156.800 C 69.737 156.800,71.189 158.060,72.772 159.600 C 74.355 161.140,75.504 162.401,75.325 162.403 C 75.146 162.404,75.540 162.763,76.200 163.200 C 76.860 163.637,77.259 163.996,77.087 163.997 C 76.914 163.999,77.403 164.630,78.173 165.400 C 78.943 166.170,79.672 166.800,79.792 166.800 C 80.196 166.800,82.376 169.394,82.388 169.888 C 82.395 170.156,82.040 171.017,81.600 171.800 C 81.160 172.583,80.800 173.468,80.800 173.766 C 80.800 174.587,79.758 176.424,79.461 176.127 C 79.317 175.984,79.200 176.426,79.200 177.110 C 79.200 177.793,79.020 178.464,78.800 178.600 C 78.580 178.736,78.400 179.287,78.400 179.824 C 78.400 180.361,78.220 180.800,78.000 180.800 C 77.780 180.800,77.600 181.340,77.600 182.000 C 77.600 182.660,77.420 183.200,77.200 183.200 C 76.980 183.200,76.800 183.890,76.800 184.733 C 76.800 185.577,76.670 186.396,76.512 186.555 C 76.353 186.713,76.277 187.463,76.343 188.221 C 76.423 189.160,76.292 189.600,75.931 189.600 C 75.541 189.600,75.437 190.140,75.541 191.639 C 75.621 192.786,75.489 193.871,75.241 194.119 C 74.999 194.361,74.800 195.694,74.800 197.080 L 74.800 199.600 46.824 199.600 C 28.604 199.600,18.761 199.740,18.600 200.000 C 18.464 200.220,17.924 200.400,17.400 200.400 C 16.876 200.400,16.336 200.580,16.200 200.800 C 16.064 201.020,15.622 201.200,15.217 201.200 C 14.163 201.200,9.951 203.492,9.302 204.418 C 9.001 204.848,8.579 205.200,8.364 205.200 C 7.856 205.200,5.200 207.856,5.200 208.364 C 5.200 208.579,4.848 209.001,4.418 209.302 C 3.517 209.933,1.200 214.151,1.200 215.161 C 1.200 215.534,0.975 216.065,0.700 216.340 C -0.014 217.054,-0.014 232.946,0.700 233.660 C 0.975 233.935,1.200 234.466,1.200 234.839 C 1.200 235.849,3.517 240.067,4.418 240.698 C 4.848 240.999,5.200 241.421,5.200 241.636 C 5.200 242.144,7.856 244.800,8.364 244.800 C 8.579 244.800,9.001 245.152,9.302 245.582 C 9.951 246.508,14.163 248.800,15.217 248.800 C 15.622 248.800,16.064 248.980,16.200 249.200 C 16.336 249.420,16.876 249.600,17.400 249.600 C 17.924 249.600,18.464 249.780,18.600 250.000 C 18.761 250.260,28.604 250.400,46.824 250.400 L 74.800 250.400 74.800 257.400 C 74.800 261.800,74.949 264.400,75.200 264.400 C 75.433 264.400,75.600 265.733,75.600 267.600 C 75.600 269.616,75.759 270.800,76.030 270.800 C 76.289 270.800,76.417 271.511,76.351 272.587 C 76.290 273.570,76.366 274.500,76.520 274.654 C 76.674 274.807,76.800 275.613,76.800 276.443 C 76.800 277.273,76.980 278.064,77.200 278.200 C 77.420 278.336,77.600 279.157,77.600 280.024 C 77.600 280.891,77.760 281.600,77.956 281.600 C 78.152 281.600,78.422 282.230,78.556 283.000 C 78.690 283.770,78.910 285.030,79.044 285.800 C 79.178 286.570,79.448 287.200,79.644 287.200 C 79.840 287.200,80.000 287.639,80.000 288.176 C 80.000 288.713,80.180 289.264,80.400 289.400 C 80.620 289.536,80.800 290.087,80.800 290.624 C 80.800 291.161,80.980 291.600,81.200 291.600 C 81.420 291.600,81.600 292.140,81.600 292.800 C 81.600 293.460,81.780 294.000,82.000 294.000 C 82.220 294.000,82.400 294.540,82.400 295.200 C 82.400 295.860,82.535 296.401,82.700 296.403 C 83.147 296.408,84.000 298.426,84.000 299.480 C 84.000 299.986,84.180 300.400,84.400 300.400 C 84.620 300.400,84.800 300.760,84.800 301.200 C 84.800 301.640,84.980 302.000,85.200 302.000 C 85.420 302.000,85.600 302.283,85.600 302.629 C 85.600 303.359,84.662 304.400,84.004 304.400 C 83.755 304.400,82.482 305.506,81.175 306.858 C 79.869 308.210,78.800 309.193,78.800 309.042 C 78.800 308.892,78.549 309.001,78.242 309.284 C 77.935 309.568,77.766 309.935,77.866 310.100 C 77.965 310.265,77.767 310.400,77.424 310.400 C 77.081 310.400,76.845 310.625,76.900 310.900 C 76.955 311.175,76.775 311.355,76.500 311.300 C 76.225 311.245,76.045 311.342,76.100 311.516 C 76.231 311.930,61.930 326.231,61.516 326.100 C 61.342 326.045,61.245 326.225,61.300 326.500 C 61.355 326.775,61.175 326.955,60.900 326.900 C 60.625 326.845,60.400 327.081,60.400 327.424 C 60.400 327.767,60.265 327.965,60.100 327.866 C 59.935 327.766,59.568 327.935,59.284 328.242 C 59.001 328.549,58.878 328.800,59.011 328.800 C 59.144 328.800,56.175 331.860,52.412 335.600 C 48.649 339.340,45.481 342.400,45.372 342.400 C 45.110 342.400,42.400 345.114,42.400 345.376 C 42.400 345.487,39.430 348.561,35.800 352.206 C 32.170 355.851,29.200 358.940,29.200 359.070 C 29.200 359.200,28.828 359.629,28.374 360.023 C 27.919 360.417,27.578 360.851,27.615 360.987 C 27.735 361.424,26.714 363.600,26.389 363.600 C 26.216 363.600,26.169 363.960,26.284 364.400 C 26.422 364.927,26.296 365.200,25.916 365.200 C 25.502 365.200,25.388 365.540,25.515 366.400 C 25.620 367.120,25.513 367.600,25.245 367.600 C 24.961 367.600,24.800 368.610,24.800 370.400 C 24.800 372.000,24.629 373.200,24.400 373.200 C 24.180 373.200,24.000 374.010,24.000 375.000 C 24.000 375.990,24.180 376.800,24.400 376.800 C 24.622 376.800,24.800 377.867,24.800 379.200 C 24.800 380.685,24.968 381.600,25.242 381.600 C 25.516 381.600,25.626 382.207,25.531 383.200 C 25.419 384.374,25.527 384.800,25.936 384.800 C 26.296 384.800,26.419 385.083,26.284 385.600 C 26.169 386.040,26.216 386.400,26.389 386.400 C 26.672 386.400,27.619 388.300,27.726 389.083 C 27.800 389.626,29.384 391.104,29.700 390.924 C 29.865 390.830,30.000 390.998,30.000 391.298 C 30.000 391.999,32.555 394.800,33.193 394.800 C 33.461 394.800,34.183 395.340,34.800 396.000 C 35.417 396.660,36.209 397.200,36.560 397.200 C 36.912 397.200,37.200 397.380,37.200 397.600 C 37.200 397.820,37.560 398.000,38.000 398.000 C 38.440 398.000,38.800 398.180,38.800 398.400 C 38.800 398.620,39.325 398.800,39.967 398.800 C 40.608 398.800,41.208 399.025,41.300 399.300 C 41.426 399.679,43.529 399.800,50.000 399.800 C 56.471 399.800,58.574 399.679,58.700 399.300 C 58.792 399.025,59.392 398.800,60.033 398.800 C 60.675 398.800,61.200 398.620,61.200 398.400 C 61.200 398.180,61.560 398.000,62.000 398.000 C 62.440 398.000,62.800 397.820,62.800 397.600 C 62.800 397.380,63.084 397.200,63.431 397.200 C 63.779 397.200,64.754 396.480,65.600 395.600 C 66.446 394.720,67.339 394.000,67.585 394.000 C 67.831 394.000,68.745 393.251,69.616 392.335 C 70.487 391.419,71.200 390.796,71.200 390.951 C 71.200 391.105,71.451 390.999,71.758 390.716 C 72.065 390.432,72.234 390.065,72.134 389.900 C 72.035 389.735,72.233 389.600,72.576 389.600 C 72.919 389.600,73.155 389.375,73.100 389.100 C 73.045 388.825,73.225 388.645,73.500 388.700 C 73.775 388.755,73.955 388.658,73.900 388.484 C 73.769 388.070,88.070 373.769,88.484 373.900 C 88.658 373.955,88.755 373.775,88.700 373.500 C 88.645 373.225,88.825 373.045,89.100 373.100 C 89.375 373.155,89.600 372.919,89.600 372.576 C 89.600 372.233,89.735 372.035,89.900 372.134 C 90.065 372.234,90.432 372.065,90.716 371.758 C 90.999 371.451,91.122 371.200,90.989 371.200 C 90.856 371.200,93.825 368.140,97.588 364.400 C 101.351 360.660,104.519 357.600,104.628 357.600 C 104.890 357.600,107.600 354.885,107.600 354.623 C 107.600 354.511,109.765 352.246,112.411 349.589 L 117.222 344.758 118.780 346.379 C 119.636 347.271,120.549 348.000,120.808 348.000 C 121.067 348.000,121.783 348.540,122.400 349.200 C 123.017 349.860,123.732 350.400,123.989 350.400 C 124.611 350.400,125.628 351.438,125.314 351.752 C 125.178 351.889,125.377 352.000,125.757 352.000 C 126.137 352.000,126.336 352.180,126.200 352.400 C 126.064 352.620,126.250 352.800,126.613 352.800 C 126.977 352.800,127.686 353.115,128.191 353.500 C 130.486 355.253,135.277 358.248,136.300 358.570 C 136.795 358.726,137.200 359.022,137.200 359.227 C 137.200 359.432,137.560 359.600,138.000 359.600 C 138.440 359.600,138.800 359.780,138.800 360.000 C 138.800 360.220,139.160 360.400,139.600 360.400 C 140.040 360.400,140.400 360.546,140.400 360.725 C 140.400 360.904,141.030 361.298,141.800 361.600 C 142.570 361.902,143.200 362.296,143.200 362.475 C 143.200 362.654,143.453 362.800,143.762 362.800 C 144.428 362.800,147.741 364.468,147.933 364.900 C 148.007 365.065,148.412 365.200,148.833 365.200 C 149.255 365.200,149.600 365.380,149.600 365.600 C 149.600 365.820,150.014 366.000,150.520 366.000 C 151.574 366.000,153.592 366.853,153.597 367.300 C 153.599 367.465,154.140 367.600,154.800 367.600 C 155.460 367.600,156.000 367.780,156.000 368.000 C 156.000 368.220,156.540 368.400,157.200 368.400 C 157.860 368.400,158.400 368.580,158.400 368.800 C 158.400 369.020,158.839 369.200,159.376 369.200 C 159.913 369.200,160.464 369.380,160.600 369.600 C 160.736 369.820,161.287 370.000,161.824 370.000 C 162.361 370.000,162.800 370.160,162.800 370.356 C 162.800 370.552,163.430 370.822,164.200 370.956 C 164.970 371.090,166.230 371.310,167.000 371.444 C 167.770 371.578,168.400 371.848,168.400 372.044 C 168.400 372.240,169.109 372.400,169.976 372.400 C 170.843 372.400,171.664 372.580,171.800 372.800 C 171.936 373.020,172.727 373.200,173.557 373.200 C 174.387 373.200,175.189 373.323,175.339 373.473 C 175.489 373.623,176.599 373.700,177.806 373.644 C 179.164 373.581,180.000 373.705,180.000 373.971 C 180.000 374.235,181.074 374.400,182.800 374.400 C 184.400 374.400,185.600 374.571,185.600 374.800 C 185.600 375.020,186.140 375.200,186.800 375.200 L 188.000 375.200 188.000 281.624 C 188.000 219.671,188.135 187.964,188.400 187.800 C 188.620 187.664,188.800 186.753,188.800 185.776 C 188.800 184.690,188.981 184.000,189.267 184.000 C 189.523 184.000,189.621 183.887,189.483 183.749 C 189.242 183.509,190.097 181.552,190.841 180.638 C 192.419 178.699,193.620 177.600,194.160 177.600 C 194.512 177.600,194.800 177.420,194.800 177.200 C 194.800 176.980,195.160 176.800,195.600 176.800 C 196.040 176.800,196.400 176.620,196.400 176.400 C 196.400 176.163,197.867 176.000,200.000 176.000 C 202.133 176.000,203.600 176.163,203.600 176.400 C 203.600 176.620,203.960 176.800,204.400 176.800 C 204.840 176.800,205.200 176.980,205.200 177.200 C 205.200 177.420,205.488 177.600,205.840 177.600 C 206.395 177.600,207.272 178.398,209.057 180.529 C 209.873 181.502,210.775 183.492,210.517 183.749 C 210.379 183.887,210.477 184.000,210.733 184.000 C 211.019 184.000,211.200 184.690,211.200 185.776 C 211.200 186.753,211.380 187.664,211.600 187.800 C 211.865 187.964,212.000 219.671,212.000 281.624 L 212.000 375.200 213.600 375.200 C 214.480 375.200,215.200 375.020,215.200 374.800 C 215.200 374.571,216.400 374.400,218.000 374.400 C 219.758 374.400,220.800 374.237,220.800 373.963 C 220.800 373.683,221.592 373.575,223.001 373.663 C 224.211 373.738,225.201 373.665,225.201 373.500 C 225.200 373.335,225.819 373.200,226.576 373.200 C 227.333 373.200,228.064 373.020,228.200 372.800 C 228.336 372.580,229.217 372.400,230.157 372.400 C 231.097 372.400,231.990 372.277,232.141 372.126 C 232.665 371.602,235.408 370.812,236.724 370.806 C 237.503 370.802,237.946 370.636,237.800 370.400 C 237.653 370.162,238.129 370.000,238.976 370.000 C 239.759 370.000,240.400 369.820,240.400 369.600 C 240.400 369.380,240.850 369.200,241.400 369.200 C 241.950 369.200,242.400 369.020,242.400 368.800 C 242.400 368.580,242.760 368.400,243.200 368.400 C 243.640 368.400,244.000 368.220,244.000 368.000 C 244.000 367.780,244.540 367.600,245.200 367.600 C 245.860 367.600,246.401 367.465,246.403 367.300 C 246.408 366.853,248.426 366.000,249.480 366.000 C 249.986 366.000,250.400 365.820,250.400 365.600 C 250.400 365.380,250.745 365.200,251.167 365.200 C 251.588 365.200,251.993 365.065,252.067 364.900 C 252.259 364.468,255.572 362.800,256.238 362.800 C 256.547 362.800,256.800 362.654,256.800 362.475 C 256.800 362.296,257.430 361.902,258.200 361.600 C 258.970 361.298,259.600 360.904,259.600 360.725 C 259.600 360.546,259.960 360.400,260.400 360.400 C 260.840 360.400,261.200 360.220,261.200 360.000 C 261.200 359.780,261.560 359.600,262.000 359.600 C 262.440 359.600,262.800 359.420,262.800 359.200 C 262.800 358.980,263.056 358.800,263.369 358.800 C 263.681 358.800,265.145 357.990,266.622 357.000 C 268.098 356.010,269.507 355.195,269.753 355.189 C 269.999 355.183,270.725 354.643,271.367 353.989 C 272.008 353.335,272.874 352.800,273.290 352.800 C 273.707 352.800,273.936 352.620,273.800 352.400 C 273.664 352.180,273.844 352.000,274.200 352.000 C 274.556 352.000,274.736 351.820,274.600 351.600 C 274.464 351.380,274.648 351.200,275.008 351.200 C 275.368 351.200,276.354 350.480,277.200 349.600 C 278.046 348.720,278.946 348.000,279.200 348.000 C 279.454 348.000,280.364 347.271,281.220 346.379 L 282.778 344.758 287.589 349.589 C 290.235 352.246,292.400 354.511,292.400 354.623 C 292.400 354.885,295.110 357.600,295.372 357.600 C 295.481 357.600,298.649 360.660,302.412 364.400 C 306.175 368.140,309.144 371.200,309.011 371.200 C 308.878 371.200,309.001 371.451,309.284 371.758 C 309.568 372.065,309.935 372.234,310.100 372.134 C 310.265 372.035,310.400 372.233,310.400 372.576 C 310.400 372.919,310.625 373.155,310.900 373.100 C 311.175 373.045,311.355 373.225,311.300 373.500 C 311.245 373.775,311.342 373.955,311.516 373.900 C 311.930 373.769,326.231 388.070,326.100 388.484 C 326.045 388.658,326.225 388.755,326.500 388.700 C 326.775 388.645,326.976 388.780,326.948 389.000 C 326.919 389.220,327.324 389.811,327.848 390.314 C 328.371 390.817,328.800 391.106,328.800 390.956 C 328.800 390.807,329.869 391.790,331.175 393.142 C 332.482 394.494,333.792 395.600,334.087 395.600 C 334.382 395.600,334.883 395.960,335.200 396.400 C 335.517 396.840,336.097 397.200,336.488 397.200 C 336.880 397.200,337.200 397.380,337.200 397.600 C 337.200 397.820,337.560 398.000,338.000 398.000 C 338.440 398.000,338.800 398.180,338.800 398.400 C 338.800 398.620,339.145 398.800,339.567 398.800 C 339.988 398.800,340.408 399.025,340.500 399.300 C 340.627 399.681,342.889 399.800,350.000 399.800 C 357.111 399.800,359.373 399.681,359.500 399.300 C 359.592 399.025,360.012 398.800,360.433 398.800 C 360.855 398.800,361.200 398.620,361.200 398.400 C 361.200 398.180,361.560 398.000,362.000 398.000 C 362.440 398.000,362.800 397.820,362.800 397.600 C 362.800 397.380,363.120 397.200,363.512 397.200 C 363.903 397.200,364.483 396.840,364.800 396.400 C 365.117 395.960,365.615 395.600,365.906 395.600 C 366.401 395.600,370.800 391.386,370.800 390.911 C 370.800 390.792,371.172 390.371,371.626 389.977 C 372.081 389.583,372.422 389.149,372.385 389.013 C 372.265 388.576,373.286 386.400,373.611 386.400 C 373.784 386.400,373.831 386.040,373.716 385.600 C 373.578 385.073,373.704 384.800,374.084 384.800 C 374.498 384.800,374.612 384.460,374.485 383.600 C 374.380 382.880,374.487 382.400,374.755 382.400 C 375.039 382.400,375.200 381.390,375.200 379.600 C 375.200 378.000,375.371 376.800,375.600 376.800 C 375.820 376.800,376.000 375.990,376.000 375.000 C 376.000 374.010,375.820 373.200,375.600 373.200 C 375.378 373.200,375.200 372.133,375.200 370.800 C 375.200 369.315,375.032 368.400,374.758 368.400 C 374.484 368.400,374.374 367.793,374.469 366.800 C 374.581 365.626,374.473 365.200,374.064 365.200 C 373.704 365.200,373.581 364.917,373.716 364.400 C 373.831 363.960,373.784 363.600,373.611 363.600 C 373.311 363.600,372.159 361.217,372.257 360.800 C 372.283 360.690,371.876 360.189,371.352 359.686 C 370.829 359.183,370.400 358.890,370.400 359.035 C 370.400 359.180,370.130 359.074,369.800 358.800 C 369.470 358.526,369.200 358.052,369.200 357.746 C 369.200 357.441,366.590 354.582,363.400 351.393 C 360.210 348.205,357.600 345.501,357.600 345.385 C 357.600 345.117,354.895 342.400,354.628 342.400 C 354.519 342.400,351.351 339.340,347.588 335.600 C 343.825 331.860,340.855 328.800,340.987 328.800 C 341.120 328.800,340.817 328.371,340.314 327.848 C 339.811 327.324,339.220 326.919,339.000 326.948 C 338.780 326.976,338.645 326.775,338.700 326.500 C 338.755 326.225,338.658 326.045,338.484 326.100 C 338.070 326.231,323.769 311.930,323.900 311.516 C 323.955 311.342,323.775 311.245,323.500 311.300 C 323.225 311.355,323.045 311.175,323.100 310.900 C 323.155 310.625,322.919 310.400,322.576 310.400 C 322.233 310.400,322.035 310.265,322.134 310.100 C 322.234 309.935,322.065 309.568,321.758 309.284 C 321.451 309.001,321.200 308.894,321.200 309.047 C 321.200 309.200,320.310 308.397,319.223 307.262 C 318.135 306.128,317.047 305.200,316.804 305.200 C 316.145 305.200,314.400 303.327,314.400 302.618 C 314.400 302.278,314.580 302.000,314.800 302.000 C 315.020 302.000,315.200 301.640,315.200 301.200 C 315.200 300.760,315.380 300.400,315.600 300.400 C 315.820 300.400,316.000 300.040,316.000 299.600 C 316.000 299.160,316.180 298.800,316.400 298.800 C 316.620 298.800,316.800 298.260,316.800 297.600 C 316.800 296.940,316.980 296.400,317.200 296.400 C 317.420 296.400,317.600 295.860,317.600 295.200 C 317.600 294.540,317.780 294.000,318.000 294.000 C 318.220 294.000,318.400 293.640,318.400 293.200 C 318.400 292.760,318.580 292.400,318.800 292.400 C 319.020 292.400,319.200 291.950,319.200 291.400 C 319.200 290.850,319.380 290.400,319.600 290.400 C 319.820 290.400,320.000 289.759,320.000 288.976 C 320.000 288.129,320.162 287.653,320.400 287.800 C 320.638 287.947,320.800 287.477,320.800 286.642 C 320.800 285.870,321.002 284.734,321.250 284.119 C 321.497 283.503,321.845 282.640,322.023 282.200 C 322.380 281.315,322.740 279.486,323.066 276.900 C 323.184 275.965,323.397 275.200,323.540 275.201 C 323.683 275.201,323.738 274.211,323.663 273.001 C 323.575 271.592,323.683 270.800,323.963 270.800 C 324.237 270.800,324.400 269.758,324.400 268.000 C 324.400 266.400,324.571 265.200,324.800 265.200 C 325.048 265.200,325.200 263.000,325.200 259.400 C 325.200 255.800,325.352 253.600,325.600 253.600 C 325.820 253.600,326.000 253.060,326.000 252.400 L 326.000 251.200 351.400 251.200 C 368.067 251.200,376.800 251.062,376.800 250.800 C 376.800 250.571,378.000 250.400,379.600 250.400 C 381.200 250.400,382.400 250.229,382.400 250.000 C 382.400 249.780,382.925 249.600,383.567 249.600 C 384.208 249.600,384.793 249.464,384.867 249.298 C 384.940 249.132,386.215 248.385,387.700 247.638 C 389.185 246.891,390.400 246.127,390.400 245.940 C 390.400 245.753,390.584 245.600,390.809 245.600 C 391.341 245.600,395.600 241.341,395.600 240.809 C 395.600 240.584,395.753 240.400,395.940 240.400 C 396.127 240.400,396.889 239.185,397.632 237.700 C 398.376 236.215,399.167 234.871,399.392 234.714 C 399.958 234.318,399.948 215.671,399.381 215.285 C 399.151 215.128,398.452 213.943,397.828 212.651 C 397.204 211.359,396.267 209.931,395.747 209.479 C 395.226 209.026,394.800 208.502,394.800 208.315 C 394.800 207.842,392.116 205.200,391.636 205.200 C 391.421 205.200,390.999 204.848,390.698 204.418 C 390.049 203.492,385.837 201.200,384.783 201.200 C 384.378 201.200,383.936 201.020,383.800 200.800 C 383.664 200.580,383.124 200.400,382.600 200.400 C 382.076 200.400,381.536 200.220,381.400 200.000 C 381.239 199.740,371.396 199.600,353.176 199.600 L 325.200 199.600 325.200 197.080 C 325.200 195.694,325.001 194.361,324.759 194.119 C 324.511 193.871,324.379 192.786,324.459 191.639 C 324.563 190.141,324.459 189.600,324.070 189.600 C 323.692 189.600,323.571 189.086,323.649 187.813 C 323.710 186.830,323.634 185.900,323.480 185.746 C 323.326 185.593,323.200 184.877,323.200 184.157 C 323.200 183.437,323.020 182.736,322.800 182.600 C 322.580 182.464,322.400 181.924,322.400 181.400 C 322.400 180.876,322.220 180.336,322.000 180.200 C 321.780 180.064,321.600 179.513,321.600 178.976 C 321.600 178.439,321.420 178.000,321.200 178.000 C 320.980 178.000,320.800 177.539,320.800 176.976 C 320.800 176.396,320.627 176.060,320.400 176.200 C 320.180 176.336,320.000 176.095,320.000 175.664 C 320.000 175.234,319.460 173.855,318.800 172.600 C 318.140 171.345,317.605 170.112,317.612 169.859 C 317.624 169.386,319.818 166.800,320.208 166.800 C 320.328 166.800,321.057 166.170,321.827 165.400 C 322.597 164.630,323.086 163.999,322.913 163.997 C 322.741 163.996,323.140 163.637,323.800 163.200 C 324.460 162.763,324.854 162.404,324.675 162.403 C 324.496 162.401,325.645 161.140,327.228 159.600 C 328.811 158.060,330.263 156.800,330.453 156.800 C 330.644 156.800,330.800 156.530,330.800 156.200 C 330.800 155.870,330.953 155.600,331.139 155.600 C 331.325 155.600,333.104 153.980,335.092 152.000 C 337.079 150.020,338.592 148.399,338.453 148.397 C 338.314 148.396,338.696 148.067,339.303 147.667 C 339.910 147.267,340.349 146.863,340.279 146.770 C 340.210 146.676,341.648 145.122,343.476 143.316 C 345.304 141.510,346.801 140.160,346.803 140.316 C 346.804 140.472,347.163 140.060,347.600 139.400 C 348.037 138.740,348.396 138.314,348.397 138.453 C 348.399 138.592,350.020 137.079,352.000 135.092 C 353.980 133.104,355.600 131.325,355.600 131.139 C 355.600 130.953,355.870 130.800,356.200 130.800 C 356.530 130.800,356.800 130.644,356.800 130.453 C 356.800 130.263,358.060 128.811,359.600 127.228 C 361.140 125.645,362.401 124.496,362.403 124.675 C 362.404 124.854,362.763 124.460,363.200 123.800 C 363.637 123.140,363.996 122.741,363.997 122.913 C 363.999 123.086,364.630 122.597,365.400 121.827 C 366.170 121.057,366.800 120.352,366.800 120.260 C 366.800 119.933,370.102 116.800,370.447 116.800 C 370.641 116.800,370.800 116.506,370.800 116.147 C 370.800 115.788,371.131 115.203,371.536 114.847 C 371.941 114.491,372.391 113.718,372.537 113.128 C 372.682 112.538,373.070 111.787,373.399 111.458 C 373.728 111.129,373.889 110.576,373.756 110.230 C 373.604 109.833,373.732 109.600,374.102 109.600 C 374.505 109.600,374.632 109.301,374.507 108.647 C 374.407 108.123,374.522 107.572,374.762 107.423 C 375.003 107.275,375.200 106.353,375.200 105.376 C 375.200 104.399,375.380 103.600,375.600 103.600 C 375.837 103.600,376.000 102.133,376.000 100.000 C 376.000 97.867,375.837 96.400,375.600 96.400 C 375.380 96.400,375.200 95.601,375.200 94.624 C 375.200 93.647,375.003 92.725,374.762 92.577 C 374.522 92.428,374.407 91.877,374.507 91.353 C 374.632 90.699,374.505 90.400,374.102 90.400 C 373.732 90.400,373.604 90.167,373.756 89.770 C 373.889 89.424,373.728 88.871,373.399 88.542 C 373.070 88.213,372.682 87.462,372.537 86.872 C 372.391 86.282,371.941 85.509,371.536 85.153 C 371.131 84.797,370.800 84.212,370.800 83.853 C 370.800 83.494,370.641 83.200,370.447 83.200 C 369.987 83.200,366.800 80.013,366.800 79.553 C 366.800 79.359,366.506 79.200,366.147 79.200 C 365.788 79.200,365.203 78.869,364.847 78.464 C 364.491 78.059,363.718 77.609,363.128 77.463 C 362.538 77.318,361.787 76.930,361.458 76.601 C 361.129 76.272,360.576 76.111,360.230 76.244 C 359.844 76.392,359.600 76.271,359.600 75.932 C 359.600 75.528,359.169 75.420,358.000 75.531 C 357.007 75.626,356.400 75.516,356.400 75.242 C 356.400 74.938,354.406 74.800,350.000 74.800 C 345.565 74.800,343.600 74.937,343.600 75.245 C 343.600 75.513,343.120 75.620,342.400 75.515 C 341.537 75.388,341.200 75.502,341.200 75.919 C 341.200 76.351,340.893 76.439,340.000 76.260 C 339.340 76.128,338.800 76.174,338.800 76.361 C 338.800 76.549,338.260 76.927,337.600 77.200 C 336.940 77.473,336.400 77.855,336.400 78.049 C 336.400 78.242,336.137 78.400,335.815 78.400 C 335.494 78.400,334.518 79.120,333.647 80.000 C 332.776 80.880,331.870 81.600,331.635 81.600 C 331.399 81.600,330.982 81.960,330.707 82.400 C 330.432 82.840,330.065 83.200,329.890 83.200 C 329.716 83.200,328.943 83.830,328.173 84.600 C 327.403 85.370,326.914 86.001,327.087 86.003 C 327.259 86.004,326.860 86.363,326.200 86.800 C 325.540 87.237,325.146 87.596,325.325 87.597 C 325.504 87.599,324.355 88.860,322.772 90.400 C 321.189 91.940,319.737 93.200,319.547 93.200 C 319.356 93.200,319.200 93.470,319.200 93.800 C 319.200 94.130,319.047 94.400,318.861 94.400 C 318.675 94.400,316.896 96.020,314.908 98.000 C 312.921 99.980,311.408 101.601,311.547 101.603 C 311.686 101.604,311.260 101.963,310.600 102.400 C 309.940 102.837,309.528 103.196,309.684 103.197 C 309.840 103.199,308.490 104.696,306.684 106.524 C 304.878 108.352,303.324 109.790,303.230 109.721 C 303.137 109.651,302.733 110.090,302.333 110.697 C 301.933 111.304,301.604 111.686,301.603 111.547 C 301.601 111.408,299.980 112.921,298.000 114.908 C 296.020 116.896,294.400 118.675,294.400 118.861 C 294.400 119.047,294.130 119.200,293.800 119.200 C 293.470 119.200,293.200 119.356,293.200 119.547 C 293.200 119.737,291.940 121.189,290.400 122.772 C 288.860 124.355,287.599 125.504,287.597 125.325 C 287.596 125.146,287.237 125.540,286.800 126.200 C 286.363 126.860,286.004 127.280,286.003 127.133 C 286.001 126.987,285.370 127.479,284.600 128.226 C 283.830 128.974,283.200 129.726,283.200 129.897 C 283.200 130.068,282.840 130.432,282.400 130.707 C 281.960 130.982,281.600 131.456,281.600 131.761 C 281.600 132.754,280.530 132.757,278.579 131.769 C 277.526 131.236,276.445 130.800,276.178 130.800 C 275.399 130.800,273.587 129.747,273.873 129.461 C 274.016 129.317,273.574 129.200,272.890 129.200 C 272.207 129.200,271.536 129.020,271.400 128.800 C 271.264 128.580,270.713 128.400,270.176 128.400 C 269.639 128.400,269.200 128.220,269.200 128.000 C 269.200 127.780,268.660 127.600,268.000 127.600 C 267.340 127.600,266.800 127.420,266.800 127.200 C 266.800 126.980,266.110 126.800,265.267 126.800 C 264.423 126.800,263.607 126.674,263.454 126.520 C 263.300 126.366,262.370 126.290,261.387 126.351 C 260.114 126.429,259.600 126.308,259.600 125.930 C 259.600 125.541,259.059 125.437,257.561 125.541 C 256.414 125.621,255.329 125.489,255.081 125.241 C 254.454 124.614,145.546 124.614,144.919 125.241 C 144.671 125.489,143.586 125.621,142.439 125.541 C 140.941 125.437,140.400 125.541,140.400 125.930 C 140.400 126.308,139.886 126.429,138.613 126.351 C 137.630 126.290,136.700 126.366,136.546 126.520 C 136.393 126.674,135.577 126.800,134.733 126.800 C 133.890 126.800,133.200 126.980,133.200 127.200 C 133.200 127.420,132.660 127.600,132.000 127.600 C 131.340 127.600,130.800 127.780,130.800 128.000 C 130.800 128.220,130.361 128.400,129.824 128.400 C 129.287 128.400,128.736 128.580,128.600 128.800 C 128.464 129.020,127.793 129.200,127.110 129.200 C 126.426 129.200,125.984 129.317,126.127 129.461 C 126.424 129.758,124.587 130.800,123.766 130.800 C 123.468 130.800,122.583 131.160,121.800 131.600 C 121.017 132.040,120.156 132.395,119.888 132.388 C 119.394 132.376,116.800 130.196,116.800 129.792 C 116.800 129.672,116.170 128.943,115.400 128.173 C 114.630 127.403,113.999 126.914,113.997 127.087 C 113.996 127.259,113.637 126.860,113.200 126.200 C 112.763 125.540,112.404 125.146,112.403 125.325 C 112.401 125.504,111.140 124.355,109.600 122.772 C 108.060 121.189,106.800 119.737,106.800 119.547 C 106.800 119.356,106.530 119.200,106.200 119.200 C 105.870 119.200,105.600 119.047,105.600 118.861 C 105.600 118.675,103.980 116.896,102.000 114.908 C 100.020 112.921,98.399 111.408,98.397 111.547 C 98.396 111.686,98.037 111.260,97.600 110.600 C 97.163 109.940,96.804 109.528,96.803 109.684 C 96.801 109.840,95.304 108.490,93.476 106.684 C 91.648 104.878,90.210 103.324,90.279 103.230 C 90.349 103.137,89.910 102.733,89.303 102.333 C 88.696 101.933,88.314 101.604,88.453 101.603 C 88.592 101.601,87.079 99.980,85.092 98.000 C 83.104 96.020,81.325 94.400,81.139 94.400 C 80.953 94.400,80.800 94.130,80.800 93.800 C 80.800 93.470,80.644 93.200,80.453 93.200 C 80.263 93.200,78.811 91.940,77.228 90.400 C 75.645 88.860,74.496 87.599,74.675 87.597 C 74.854 87.596,74.460 87.237,73.800 86.800 C 73.140 86.363,72.741 86.004,72.913 86.003 C 73.086 86.001,72.597 85.370,71.827 84.600 C 71.057 83.830,70.352 83.200,70.260 83.200 C 70.110 83.200,69.383 82.554,65.371 78.855 C 64.694 78.232,63.672 77.604,63.099 77.460 C 62.525 77.317,61.805 76.948,61.499 76.641 C 61.170 76.312,60.502 76.168,59.871 76.289 C 59.110 76.434,58.800 76.326,58.800 75.916 C 58.800 75.502,58.460 75.388,57.600 75.515 C 56.880 75.620,56.400 75.513,56.400 75.245 C 56.400 74.937,54.435 74.800,50.000 74.800 C 45.565 74.800,43.600 74.937,43.600 75.245 " stroke="none" fill="#4c5c8c" fill-rule="evenodd"></path><path id="path1" d="M125.931 58.400 C 125.848 59.280,125.919 60.000,126.089 60.000 C 126.260 60.000,126.400 59.280,126.400 58.400 C 126.400 57.520,126.329 56.800,126.242 56.800 C 126.155 56.800,126.015 57.520,125.931 58.400 M273.600 57.776 C 273.600 58.313,273.747 58.844,273.928 58.955 C 274.108 59.067,274.177 58.627,274.082 57.979 C 273.872 56.549,273.600 56.435,273.600 57.776 M274.520 61.600 C 274.520 62.810,274.595 63.305,274.687 62.700 C 274.778 62.095,274.778 61.105,274.687 60.500 C 274.595 59.895,274.520 60.390,274.520 61.600 M125.320 62.400 C 125.320 63.610,125.395 64.105,125.487 63.500 C 125.578 62.895,125.578 61.905,125.487 61.300 C 125.395 60.695,125.320 61.190,125.320 62.400 M42.400 75.200 L 41.400 75.520 42.500 75.560 C 43.105 75.582,43.600 75.420,43.600 75.200 C 43.600 74.980,43.555 74.818,43.500 74.840 C 43.445 74.862,42.950 75.024,42.400 75.200 M56.400 75.255 C 56.400 75.445,56.850 75.600,57.400 75.600 C 57.950 75.600,58.400 75.531,58.400 75.447 C 58.400 75.362,57.950 75.207,57.400 75.102 C 56.850 74.997,56.400 75.066,56.400 75.255 M342.400 75.200 L 341.400 75.520 342.500 75.560 C 343.105 75.582,343.600 75.420,343.600 75.200 C 343.600 74.980,343.555 74.818,343.500 74.840 C 343.445 74.862,342.950 75.024,342.400 75.200 M356.400 75.280 C 356.400 75.456,357.030 75.600,357.800 75.600 C 358.570 75.600,359.200 75.530,359.200 75.444 C 359.200 75.358,358.570 75.214,357.800 75.124 C 357.030 75.034,356.400 75.104,356.400 75.280 M273.552 87.513 C 273.421 88.307,273.479 88.681,273.701 88.459 C 273.903 88.257,274.001 87.667,273.919 87.146 C 273.793 86.345,273.737 86.402,273.552 87.513 M25.124 107.800 C 25.214 108.570,25.358 109.200,25.444 109.200 C 25.530 109.200,25.600 108.570,25.600 107.800 C 25.600 107.030,25.456 106.400,25.280 106.400 C 25.104 106.400,25.034 107.030,25.124 107.800 M142.800 125.200 L 140.600 125.470 142.676 125.535 C 143.818 125.571,144.864 125.420,145.000 125.200 C 145.136 124.980,145.192 124.829,145.124 124.865 C 145.056 124.901,144.010 125.052,142.800 125.200 M255.163 125.324 C 255.342 125.503,256.369 125.590,257.444 125.518 L 259.400 125.387 257.119 125.194 C 255.864 125.087,254.984 125.146,255.163 125.324 M137.900 126.282 C 138.395 126.378,139.205 126.378,139.700 126.282 C 140.195 126.187,139.790 126.109,138.800 126.109 C 137.810 126.109,137.405 126.187,137.900 126.282 M260.300 126.282 C 260.795 126.378,261.605 126.378,262.100 126.282 C 262.595 126.187,262.190 126.109,261.200 126.109 C 260.210 126.109,259.805 126.187,260.300 126.282 M323.709 188.000 C 323.709 188.990,323.787 189.395,323.882 188.900 C 323.978 188.405,323.978 187.595,323.882 187.100 C 323.787 186.605,323.709 187.010,323.709 188.000 M76.093 188.400 C 76.093 189.170,76.175 189.485,76.276 189.100 C 76.376 188.715,76.376 188.085,76.276 187.700 C 76.175 187.315,76.093 187.630,76.093 188.400 M75.194 192.081 C 75.087 193.336,75.146 194.216,75.324 194.037 C 75.503 193.858,75.590 192.831,75.518 191.756 L 75.387 189.800 75.194 192.081 M324.446 191.876 C 324.421 193.018,324.538 194.038,324.707 194.143 C 324.876 194.247,324.957 193.583,324.886 192.666 C 324.679 189.975,324.496 189.647,324.446 191.876 M75.337 267.400 C 75.339 269.160,75.409 269.830,75.493 268.889 C 75.578 267.949,75.577 266.509,75.491 265.689 C 75.405 264.870,75.336 265.640,75.337 267.400 M324.531 267.800 C 324.533 269.340,324.605 269.921,324.692 269.091 C 324.779 268.261,324.777 267.001,324.689 266.291 C 324.600 265.581,324.529 266.260,324.531 267.800 M76.109 272.400 C 76.109 273.390,76.187 273.795,76.282 273.300 C 76.378 272.805,76.378 271.995,76.282 271.500 C 76.187 271.005,76.109 271.410,76.109 272.400 M323.720 272.800 C 323.720 274.010,323.795 274.505,323.887 273.900 C 323.978 273.295,323.978 272.305,323.887 271.700 C 323.795 271.095,323.720 271.590,323.720 272.800 M374.501 367.000 C 374.505 367.880,374.587 368.193,374.683 367.695 C 374.779 367.198,374.775 366.478,374.675 366.095 C 374.575 365.713,374.496 366.120,374.501 367.000 M176.900 373.887 C 177.505 373.978,178.495 373.978,179.100 373.887 C 179.705 373.795,179.210 373.720,178.000 373.720 C 176.790 373.720,176.295 373.795,176.900 373.887 M221.700 373.887 C 222.305 373.978,223.295 373.978,223.900 373.887 C 224.505 373.795,224.010 373.720,222.800 373.720 C 221.590 373.720,221.095 373.795,221.700 373.887 M181.491 374.689 C 182.201 374.777,183.461 374.779,184.291 374.692 C 185.121 374.605,184.540 374.533,183.000 374.531 C 181.460 374.529,180.781 374.600,181.491 374.689 M216.291 374.689 C 217.001 374.777,218.261 374.779,219.091 374.692 C 219.921 374.605,219.340 374.533,217.800 374.531 C 216.260 374.529,215.581 374.600,216.291 374.689 M25.301 383.000 C 25.305 383.880,25.387 384.193,25.483 383.695 C 25.579 383.198,25.575 382.478,25.475 382.095 C 25.375 381.713,25.296 382.120,25.301 383.000 " stroke="none" fill="#505c8c" fill-rule="evenodd"></path><path id="path2" d="M125.931 58.400 C 125.848 59.280,125.919 60.000,126.089 60.000 C 126.260 60.000,126.400 59.280,126.400 58.400 C 126.400 57.520,126.329 56.800,126.242 56.800 C 126.155 56.800,126.015 57.520,125.931 58.400 M273.600 57.776 C 273.600 58.313,273.747 58.844,273.928 58.955 C 274.108 59.067,274.177 58.627,274.082 57.979 C 273.872 56.549,273.600 56.435,273.600 57.776 M274.520 61.600 C 274.520 62.810,274.595 63.305,274.687 62.700 C 274.778 62.095,274.778 61.105,274.687 60.500 C 274.595 59.895,274.520 60.390,274.520 61.600 M125.320 62.400 C 125.320 63.610,125.395 64.105,125.487 63.500 C 125.578 62.895,125.578 61.905,125.487 61.300 C 125.395 60.695,125.320 61.190,125.320 62.400 M42.400 75.200 L 41.400 75.520 42.500 75.560 C 43.105 75.582,43.600 75.420,43.600 75.200 C 43.600 74.980,43.555 74.818,43.500 74.840 C 43.445 74.862,42.950 75.024,42.400 75.200 M56.400 75.255 C 56.400 75.445,56.850 75.600,57.400 75.600 C 57.950 75.600,58.400 75.531,58.400 75.447 C 58.400 75.362,57.950 75.207,57.400 75.102 C 56.850 74.997,56.400 75.066,56.400 75.255 M342.400 75.200 L 341.400 75.520 342.500 75.560 C 343.105 75.582,343.600 75.420,343.600 75.200 C 343.600 74.980,343.555 74.818,343.500 74.840 C 343.445 74.862,342.950 75.024,342.400 75.200 M356.400 75.280 C 356.400 75.456,357.030 75.600,357.800 75.600 C 358.570 75.600,359.200 75.530,359.200 75.444 C 359.200 75.358,358.570 75.214,357.800 75.124 C 357.030 75.034,356.400 75.104,356.400 75.280 M273.552 87.513 C 273.421 88.307,273.479 88.681,273.701 88.459 C 273.903 88.257,274.001 87.667,273.919 87.146 C 273.793 86.345,273.737 86.402,273.552 87.513 M25.124 107.800 C 25.214 108.570,25.358 109.200,25.444 109.200 C 25.530 109.200,25.600 108.570,25.600 107.800 C 25.600 107.030,25.456 106.400,25.280 106.400 C 25.104 106.400,25.034 107.030,25.124 107.800 M142.800 125.200 L 140.600 125.470 142.676 125.535 C 143.818 125.571,144.864 125.420,145.000 125.200 C 145.136 124.980,145.192 124.829,145.124 124.865 C 145.056 124.901,144.010 125.052,142.800 125.200 M255.163 125.324 C 255.342 125.503,256.369 125.590,257.444 125.518 L 259.400 125.387 257.119 125.194 C 255.864 125.087,254.984 125.146,255.163 125.324 M137.900 126.282 C 138.395 126.378,139.205 126.378,139.700 126.282 C 140.195 126.187,139.790 126.109,138.800 126.109 C 137.810 126.109,137.405 126.187,137.900 126.282 M260.300 126.282 C 260.795 126.378,261.605 126.378,262.100 126.282 C 262.595 126.187,262.190 126.109,261.200 126.109 C 260.210 126.109,259.805 126.187,260.300 126.282 M323.709 188.000 C 323.709 188.990,323.787 189.395,323.882 188.900 C 323.978 188.405,323.978 187.595,323.882 187.100 C 323.787 186.605,323.709 187.010,323.709 188.000 M76.093 188.400 C 76.093 189.170,76.175 189.485,76.276 189.100 C 76.376 188.715,76.376 188.085,76.276 187.700 C 76.175 187.315,76.093 187.630,76.093 188.400 M75.194 192.081 C 75.087 193.336,75.146 194.216,75.324 194.037 C 75.503 193.858,75.590 192.831,75.518 191.756 L 75.387 189.800 75.194 192.081 M324.446 191.876 C 324.421 193.018,324.538 194.038,324.707 194.143 C 324.876 194.247,324.957 193.583,324.886 192.666 C 324.679 189.975,324.496 189.647,324.446 191.876 M75.337 267.400 C 75.339 269.160,75.409 269.830,75.493 268.889 C 75.578 267.949,75.577 266.509,75.491 265.689 C 75.405 264.870,75.336 265.640,75.337 267.400 M324.531 267.800 C 324.533 269.340,324.605 269.921,324.692 269.091 C 324.779 268.261,324.777 267.001,324.689 266.291 C 324.600 265.581,324.529 266.260,324.531 267.800 M76.109 272.400 C 76.109 273.390,76.187 273.795,76.282 273.300 C 76.378 272.805,76.378 271.995,76.282 271.500 C 76.187 271.005,76.109 271.410,76.109 272.400 M323.720 272.800 C 323.720 274.010,323.795 274.505,323.887 273.900 C 323.978 273.295,323.978 272.305,323.887 271.700 C 323.795 271.095,323.720 271.590,323.720 272.800 M374.501 367.000 C 374.505 367.880,374.587 368.193,374.683 367.695 C 374.779 367.198,374.775 366.478,374.675 366.095 C 374.575 365.713,374.496 366.120,374.501 367.000 M176.900 373.887 C 177.505 373.978,178.495 373.978,179.100 373.887 C 179.705 373.795,179.210 373.720,178.000 373.720 C 176.790 373.720,176.295 373.795,176.900 373.887 M221.700 373.887 C 222.305 373.978,223.295 373.978,223.900 373.887 C 224.505 373.795,224.010 373.720,222.800 373.720 C 221.590 373.720,221.095 373.795,221.700 373.887 M181.491 374.689 C 182.201 374.777,183.461 374.779,184.291 374.692 C 185.121 374.605,184.540 374.533,183.000 374.531 C 181.460 374.529,180.781 374.600,181.491 374.689 M216.291 374.689 C 217.001 374.777,218.261 374.779,219.091 374.692 C 219.921 374.605,219.340 374.533,217.800 374.531 C 216.260 374.529,215.581 374.600,216.291 374.689 M25.301 383.000 C 25.305 383.880,25.387 384.193,25.483 383.695 C 25.579 383.198,25.575 382.478,25.475 382.095 C 25.375 381.713,25.296 382.120,25.301 383.000 " stroke="none" fill="#505c8c" fill-rule="evenodd"></path><path id="path3" d="M125.931 58.400 C 125.848 59.280,125.919 60.000,126.089 60.000 C 126.260 60.000,126.400 59.280,126.400 58.400 C 126.400 57.520,126.329 56.800,126.242 56.800 C 126.155 56.800,126.015 57.520,125.931 58.400 M273.600 57.776 C 273.600 58.313,273.747 58.844,273.928 58.955 C 274.108 59.067,274.177 58.627,274.082 57.979 C 273.872 56.549,273.600 56.435,273.600 57.776 M274.520 61.600 C 274.520 62.810,274.595 63.305,274.687 62.700 C 274.778 62.095,274.778 61.105,274.687 60.500 C 274.595 59.895,274.520 60.390,274.520 61.600 M125.320 62.400 C 125.320 63.610,125.395 64.105,125.487 63.500 C 125.578 62.895,125.578 61.905,125.487 61.300 C 125.395 60.695,125.320 61.190,125.320 62.400 M42.400 75.200 L 41.400 75.520 42.500 75.560 C 43.105 75.582,43.600 75.420,43.600 75.200 C 43.600 74.980,43.555 74.818,43.500 74.840 C 43.445 74.862,42.950 75.024,42.400 75.200 M56.400 75.255 C 56.400 75.445,56.850 75.600,57.400 75.600 C 57.950 75.600,58.400 75.531,58.400 75.447 C 58.400 75.362,57.950 75.207,57.400 75.102 C 56.850 74.997,56.400 75.066,56.400 75.255 M342.400 75.200 L 341.400 75.520 342.500 75.560 C 343.105 75.582,343.600 75.420,343.600 75.200 C 343.600 74.980,343.555 74.818,343.500 74.840 C 343.445 74.862,342.950 75.024,342.400 75.200 M356.400 75.280 C 356.400 75.456,357.030 75.600,357.800 75.600 C 358.570 75.600,359.200 75.530,359.200 75.444 C 359.200 75.358,358.570 75.214,357.800 75.124 C 357.030 75.034,356.400 75.104,356.400 75.280 M273.552 87.513 C 273.421 88.307,273.479 88.681,273.701 88.459 C 273.903 88.257,274.001 87.667,273.919 87.146 C 273.793 86.345,273.737 86.402,273.552 87.513 M25.124 107.800 C 25.214 108.570,25.358 109.200,25.444 109.200 C 25.530 109.200,25.600 108.570,25.600 107.800 C 25.600 107.030,25.456 106.400,25.280 106.400 C 25.104 106.400,25.034 107.030,25.124 107.800 M142.800 125.200 L 140.600 125.470 142.676 125.535 C 143.818 125.571,144.864 125.420,145.000 125.200 C 145.136 124.980,145.192 124.829,145.124 124.865 C 145.056 124.901,144.010 125.052,142.800 125.200 M255.163 125.324 C 255.342 125.503,256.369 125.590,257.444 125.518 L 259.400 125.387 257.119 125.194 C 255.864 125.087,254.984 125.146,255.163 125.324 M137.900 126.282 C 138.395 126.378,139.205 126.378,139.700 126.282 C 140.195 126.187,139.790 126.109,138.800 126.109 C 137.810 126.109,137.405 126.187,137.900 126.282 M260.300 126.282 C 260.795 126.378,261.605 126.378,262.100 126.282 C 262.595 126.187,262.190 126.109,261.200 126.109 C 260.210 126.109,259.805 126.187,260.300 126.282 M323.709 188.000 C 323.709 188.990,323.787 189.395,323.882 188.900 C 323.978 188.405,323.978 187.595,323.882 187.100 C 323.787 186.605,323.709 187.010,323.709 188.000 M76.093 188.400 C 76.093 189.170,76.175 189.485,76.276 189.100 C 76.376 188.715,76.376 188.085,76.276 187.700 C 76.175 187.315,76.093 187.630,76.093 188.400 M75.194 192.081 C 75.087 193.336,75.146 194.216,75.324 194.037 C 75.503 193.858,75.590 192.831,75.518 191.756 L 75.387 189.800 75.194 192.081 M324.446 191.876 C 324.421 193.018,324.538 194.038,324.707 194.143 C 324.876 194.247,324.957 193.583,324.886 192.666 C 324.679 189.975,324.496 189.647,324.446 191.876 M75.337 267.400 C 75.339 269.160,75.409 269.830,75.493 268.889 C 75.578 267.949,75.577 266.509,75.491 265.689 C 75.405 264.870,75.336 265.640,75.337 267.400 M324.531 267.800 C 324.533 269.340,324.605 269.921,324.692 269.091 C 324.779 268.261,324.777 267.001,324.689 266.291 C 324.600 265.581,324.529 266.260,324.531 267.800 M76.109 272.400 C 76.109 273.390,76.187 273.795,76.282 273.300 C 76.378 272.805,76.378 271.995,76.282 271.500 C 76.187 271.005,76.109 271.410,76.109 272.400 M323.720 272.800 C 323.720 274.010,323.795 274.505,323.887 273.900 C 323.978 273.295,323.978 272.305,323.887 271.700 C 323.795 271.095,323.720 271.590,323.720 272.800 M374.501 367.000 C 374.505 367.880,374.587 368.193,374.683 367.695 C 374.779 367.198,374.775 366.478,374.675 366.095 C 374.575 365.713,374.496 366.120,374.501 367.000 M176.900 373.887 C 177.505 373.978,178.495 373.978,179.100 373.887 C 179.705 373.795,179.210 373.720,178.000 373.720 C 176.790 373.720,176.295 373.795,176.900 373.887 M221.700 373.887 C 222.305 373.978,223.295 373.978,223.900 373.887 C 224.505 373.795,224.010 373.720,222.800 373.720 C 221.590 373.720,221.095 373.795,221.700 373.887 M181.491 374.689 C 182.201 374.777,183.461 374.779,184.291 374.692 C 185.121 374.605,184.540 374.533,183.000 374.531 C 181.460 374.529,180.781 374.600,181.491 374.689 M216.291 374.689 C 217.001 374.777,218.261 374.779,219.091 374.692 C 219.921 374.605,219.340 374.533,217.800 374.531 C 216.260 374.529,215.581 374.600,216.291 374.689 M25.301 383.000 C 25.305 383.880,25.387 384.193,25.483 383.695 C 25.579 383.198,25.575 382.478,25.475 382.095 C 25.375 381.713,25.296 382.120,25.301 383.000 " stroke="none" fill="#505c8c" fill-rule="evenodd"></path><path id="path4" d="M125.931 58.400 C 125.848 59.280,125.919 60.000,126.089 60.000 C 126.260 60.000,126.400 59.280,126.400 58.400 C 126.400 57.520,126.329 56.800,126.242 56.800 C 126.155 56.800,126.015 57.520,125.931 58.400 M273.600 57.776 C 273.600 58.313,273.747 58.844,273.928 58.955 C 274.108 59.067,274.177 58.627,274.082 57.979 C 273.872 56.549,273.600 56.435,273.600 57.776 M274.520 61.600 C 274.520 62.810,274.595 63.305,274.687 62.700 C 274.778 62.095,274.778 61.105,274.687 60.500 C 274.595 59.895,274.520 60.390,274.520 61.600 M125.320 62.400 C 125.320 63.610,125.395 64.105,125.487 63.500 C 125.578 62.895,125.578 61.905,125.487 61.300 C 125.395 60.695,125.320 61.190,125.320 62.400 M42.400 75.200 L 41.400 75.520 42.500 75.560 C 43.105 75.582,43.600 75.420,43.600 75.200 C 43.600 74.980,43.555 74.818,43.500 74.840 C 43.445 74.862,42.950 75.024,42.400 75.200 M56.400 75.255 C 56.400 75.445,56.850 75.600,57.400 75.600 C 57.950 75.600,58.400 75.531,58.400 75.447 C 58.400 75.362,57.950 75.207,57.400 75.102 C 56.850 74.997,56.400 75.066,56.400 75.255 M342.400 75.200 L 341.400 75.520 342.500 75.560 C 343.105 75.582,343.600 75.420,343.600 75.200 C 343.600 74.980,343.555 74.818,343.500 74.840 C 343.445 74.862,342.950 75.024,342.400 75.200 M356.400 75.280 C 356.400 75.456,357.030 75.600,357.800 75.600 C 358.570 75.600,359.200 75.530,359.200 75.444 C 359.200 75.358,358.570 75.214,357.800 75.124 C 357.030 75.034,356.400 75.104,356.400 75.280 M273.552 87.513 C 273.421 88.307,273.479 88.681,273.701 88.459 C 273.903 88.257,274.001 87.667,273.919 87.146 C 273.793 86.345,273.737 86.402,273.552 87.513 M25.124 107.800 C 25.214 108.570,25.358 109.200,25.444 109.200 C 25.530 109.200,25.600 108.570,25.600 107.800 C 25.600 107.030,25.456 106.400,25.280 106.400 C 25.104 106.400,25.034 107.030,25.124 107.800 M142.800 125.200 L 140.600 125.470 142.676 125.535 C 143.818 125.571,144.864 125.420,145.000 125.200 C 145.136 124.980,145.192 124.829,145.124 124.865 C 145.056 124.901,144.010 125.052,142.800 125.200 M255.163 125.324 C 255.342 125.503,256.369 125.590,257.444 125.518 L 259.400 125.387 257.119 125.194 C 255.864 125.087,254.984 125.146,255.163 125.324 M137.900 126.282 C 138.395 126.378,139.205 126.378,139.700 126.282 C 140.195 126.187,139.790 126.109,138.800 126.109 C 137.810 126.109,137.405 126.187,137.900 126.282 M260.300 126.282 C 260.795 126.378,261.605 126.378,262.100 126.282 C 262.595 126.187,262.190 126.109,261.200 126.109 C 260.210 126.109,259.805 126.187,260.300 126.282 M323.709 188.000 C 323.709 188.990,323.787 189.395,323.882 188.900 C 323.978 188.405,323.978 187.595,323.882 187.100 C 323.787 186.605,323.709 187.010,323.709 188.000 M76.093 188.400 C 76.093 189.170,76.175 189.485,76.276 189.100 C 76.376 188.715,76.376 188.085,76.276 187.700 C 76.175 187.315,76.093 187.630,76.093 188.400 M75.194 192.081 C 75.087 193.336,75.146 194.216,75.324 194.037 C 75.503 193.858,75.590 192.831,75.518 191.756 L 75.387 189.800 75.194 192.081 M324.446 191.876 C 324.421 193.018,324.538 194.038,324.707 194.143 C 324.876 194.247,324.957 193.583,324.886 192.666 C 324.679 189.975,324.496 189.647,324.446 191.876 M75.337 267.400 C 75.339 269.160,75.409 269.830,75.493 268.889 C 75.578 267.949,75.577 266.509,75.491 265.689 C 75.405 264.870,75.336 265.640,75.337 267.400 M324.531 267.800 C 324.533 269.340,324.605 269.921,324.692 269.091 C 324.779 268.261,324.777 267.001,324.689 266.291 C 324.600 265.581,324.529 266.260,324.531 267.800 M76.109 272.400 C 76.109 273.390,76.187 273.795,76.282 273.300 C 76.378 272.805,76.378 271.995,76.282 271.500 C 76.187 271.005,76.109 271.410,76.109 272.400 M323.720 272.800 C 323.720 274.010,323.795 274.505,323.887 273.900 C 323.978 273.295,323.978 272.305,323.887 271.700 C 323.795 271.095,323.720 271.590,323.720 272.800 M374.501 367.000 C 374.505 367.880,374.587 368.193,374.683 367.695 C 374.779 367.198,374.775 366.478,374.675 366.095 C 374.575 365.713,374.496 366.120,374.501 367.000 M176.900 373.887 C 177.505 373.978,178.495 373.978,179.100 373.887 C 179.705 373.795,179.210 373.720,178.000 373.720 C 176.790 373.720,176.295 373.795,176.900 373.887 M221.700 373.887 C 222.305 373.978,223.295 373.978,223.900 373.887 C 224.505 373.795,224.010 373.720,222.800 373.720 C 221.590 373.720,221.095 373.795,221.700 373.887 M181.491 374.689 C 182.201 374.777,183.461 374.779,184.291 374.692 C 185.121 374.605,184.540 374.533,183.000 374.531 C 181.460 374.529,180.781 374.600,181.491 374.689 M216.291 374.689 C 217.001 374.777,218.261 374.779,219.091 374.692 C 219.921 374.605,219.340 374.533,217.800 374.531 C 216.260 374.529,215.581 374.600,216.291 374.689 M25.301 383.000 C 25.305 383.880,25.387 384.193,25.483 383.695 C 25.579 383.198,25.575 382.478,25.475 382.095 C 25.375 381.713,25.296 382.120,25.301 383.000 " stroke="none" fill="#505c8c" fill-rule="evenodd"></path></g></svg>