 <svg  version="1.0" xmlns="http://www.w3.org/2000/svg"  width="300.000000pt" height="300.000000pt" viewBox="0 0 300.000000 300.000000"  preserveAspectRatio="xMidYMid meet">  <g transform="translate(0.000000,300.000000) scale(0.100000,-0.100000)" fill="#325096" stroke="none"> <path d="M1385 2990 c-218 -47 -398 -230 -435 -443 -25 -140 -6 -219 64 -271 27 -21 38 -21 486 -21 448 0 459 0 486 21 51 38 68 70 72 139 15 240 -135 468 -366 552 -74 28 -233 40 -307 23z"/> <path d="M310 2427 c-102 -48 -143 -131 -113 -230 14 -47 35 -72 220 -259 l205 -206 -20 -59 c-11 -32 -26 -84 -33 -115 l-12 -58 -205 0 c-189 0 -209 -2 -250 -21 -66 -32 -97 -86 -97 -168 0 -80 24 -126 83 -159 38 -21 51 -22 256 -22 l216 0 0 -42 c0 -80 54 -310 81 -344 6 -7 -65 -84 -202 -220 -210 -208 -235 -239 -250 -302 -9 -43 13 -127 43 -160 32 -34 95 -62 143 -62 72 0 112 30 309 228 l189 190 81 -55 c129 -89 253 -141 389 -161 l57 -9 0 691 c0 445 4 704 10 728 13 46 43 68 90 68 47 0 77 -22 90 -68 6 -24 10 -284 10 -729 l0 -692 30 4 c149 19 325 92 450 189 l45 35 195 -193 c107 -107 209 -201 227 -210 67 -34 166 -12 222 48 13 14 30 48 37 76 11 43 11 58 -3 103 -14 48 -34 71 -234 271 -137 138 -215 224 -210 230 26 34 81 262 81 338 l0 36 213 4 c205 3 214 4 256 28 126 71 119 266 -11 329 -41 19 -61 21 -250 21 l-205 0 -12 58 c-7 31 -22 83 -33 115 l-21 59 200 201 c111 111 209 218 219 237 76 149 -86 319 -242 254 -26 -11 -109 -86 -245 -221 l-207 -205 -33 15 c-92 41 -99 42 -569 42 -470 0 -477 -1 -569 -42 l-33 -15 -207 205 c-137 136 -219 210 -245 221 -44 18 -100 20 -136 3z"/> </g> </svg> 