 <svg  version="1.0" xmlns="http://www.w3.org/2000/svg"  width="300.000000pt" height="480.000000pt" viewBox="0 0 300.000000 480.000000"  preserveAspectRatio="xMidYMid meet">  <g transform="translate(0.000000,480.000000) scale(0.100000,-0.100000)" fill="#325096" stroke="none"> <path d="M1383 4779 c-70 -27 -136 -94 -162 -164 -19 -49 -21 -78 -21 -249 l0 -193 -67 -12 c-194 -34 -349 -87 -498 -169 -104 -58 -135 -82 -231 -177 -104 -103 -115 -118 -168 -225 -79 -162 -100 -249 -100 -430 -1 -122 3 -158 22 -225 38 -129 96 -235 181 -326 128 -138 228 -211 393 -285 160 -72 213 -92 363 -135 407 -118 481 -139 498 -139 33 0 241 -72 368 -127 141 -61 226 -121 254 -179 12 -23 21 -68 23 -112 11 -203 -120 -340 -380 -396 -323 -70 -670 -29 -1143 136 -228 80 -233 81 -290 75 -159 -16 -275 -143 -275 -302 0 -79 19 -130 72 -195 45 -57 70 -70 276 -144 216 -78 336 -111 582 -161 41 -8 85 -17 97 -20 21 -5 22 -9 25 -213 3 -191 5 -210 25 -248 36 -67 70 -101 135 -133 52 -27 72 -31 138 -31 124 0 214 54 273 164 20 38 22 57 25 242 l3 201 81 12 c215 33 449 128 606 246 228 171 362 453 362 759 0 136 -10 190 -56 311 -42 113 -80 172 -169 271 -89 98 -211 180 -385 259 -183 84 -379 147 -815 262 -289 76 -504 162 -593 239 -81 69 -110 176 -78 287 23 78 68 133 160 194 97 64 194 97 349 117 218 29 446 14 786 -54 196 -38 248 -39 326 -2 174 83 230 288 122 449 -57 86 -142 121 -357 151 -70 10 -267 45 -317 57 -23 5 -23 6 -23 200 0 172 -2 201 -21 250 -56 150 -237 225 -396 164z"/> </g> </svg> 