<svg id="svg" version="1.1" xmlns="http://www.w3.org/2000/svg" xmlns:xlink="http://www.w3.org/1999/xlink" width="400" height="640" viewBox="0, 0, 400,640"><g id="svgg"><path id="path0" d="M189.200 0.400 C 189.200 0.620,188.390 0.800,187.400 0.800 C 186.067 0.800,185.600 0.956,185.600 1.400 C 185.600 1.844,185.133 2.000,183.800 2.000 C 182.467 2.000,182.000 2.156,182.000 2.600 C 182.000 3.021,181.575 3.200,180.576 3.200 C 179.793 3.200,179.256 3.368,179.383 3.572 C 179.679 4.052,179.132 4.382,177.865 4.486 C 177.311 4.532,176.953 4.724,177.069 4.912 C 177.185 5.100,176.919 5.348,176.477 5.464 C 176.035 5.579,175.579 6.035,175.464 6.477 C 175.331 6.985,175.074 7.169,174.765 6.978 C 174.452 6.785,174.379 6.843,174.562 7.139 C 174.866 7.630,172.987 8.563,172.412 8.207 C 172.235 8.098,171.993 8.385,171.872 8.845 C 171.752 9.304,171.462 9.562,171.227 9.417 C 170.977 9.262,170.800 9.495,170.800 9.976 C 170.800 10.541,170.541 10.800,169.976 10.800 C 169.495 10.800,169.262 10.977,169.417 11.227 C 169.562 11.462,169.304 11.752,168.845 11.872 C 168.385 11.993,168.098 12.235,168.207 12.412 C 168.563 12.987,167.630 14.866,167.139 14.562 C 166.843 14.379,166.785 14.452,166.978 14.765 C 167.169 15.074,166.985 15.331,166.477 15.464 C 166.035 15.579,165.579 16.035,165.464 16.477 C 165.348 16.919,165.100 17.185,164.912 17.069 C 164.724 16.953,164.532 17.311,164.486 17.865 C 164.382 19.132,164.052 19.679,163.572 19.383 C 163.368 19.256,163.200 19.793,163.200 20.576 C 163.200 21.575,163.021 22.000,162.600 22.000 C 162.156 22.000,162.000 22.467,162.000 23.800 C 162.000 25.103,161.840 25.600,161.422 25.600 C 161.016 25.600,160.808 26.166,160.722 27.500 C 160.634 28.868,160.432 29.400,160.000 29.400 C 159.230 29.400,159.307 26.561,159.250 56.800 L 159.200 83.200 156.420 83.200 C 154.400 83.200,153.550 83.360,153.313 83.783 C 153.074 84.211,152.033 84.397,149.394 84.483 C 146.780 84.568,145.827 84.736,145.900 85.100 C 145.985 85.525,141.148 85.929,139.470 85.637 C 139.289 85.606,139.247 85.752,139.377 85.962 C 139.740 86.551,139.151 86.745,136.699 86.844 C 135.347 86.899,134.476 87.108,134.523 87.368 C 134.569 87.630,133.615 87.847,132.100 87.919 C 130.236 88.008,129.600 88.186,129.600 88.619 C 129.600 89.119,126.449 89.523,124.700 89.247 C 124.535 89.221,124.421 89.335,124.447 89.500 C 124.615 90.560,124.273 90.800,122.600 90.800 C 121.267 90.800,120.800 90.956,120.800 91.400 C 120.800 91.853,120.311 92.000,118.800 92.000 C 117.289 92.000,116.800 92.147,116.800 92.600 C 116.800 93.032,116.358 93.200,115.220 93.200 C 114.260 93.200,113.513 93.426,113.317 93.777 C 113.122 94.125,112.252 94.391,111.122 94.450 C 110.062 94.505,109.282 94.732,109.324 94.973 C 109.367 95.213,108.566 95.453,107.500 95.522 C 106.166 95.608,105.600 95.816,105.600 96.222 C 105.600 96.574,105.204 96.800,104.587 96.800 C 104.031 96.800,103.471 97.070,103.345 97.400 C 103.188 97.807,102.550 98.000,101.357 98.000 C 100.062 98.000,99.600 98.158,99.600 98.600 C 99.600 99.119,98.345 99.444,97.100 99.247 C 96.935 99.221,96.821 99.335,96.847 99.500 C 96.999 100.460,96.673 100.800,95.600 100.800 C 94.800 100.800,94.400 101.000,94.400 101.400 C 94.400 101.800,94.000 102.000,93.200 102.000 C 92.400 102.000,92.000 102.200,92.000 102.600 C 92.000 103.021,91.575 103.200,90.576 103.200 C 89.793 103.200,89.256 103.368,89.383 103.572 C 89.679 104.052,89.132 104.382,87.865 104.486 C 87.311 104.532,86.946 104.713,87.055 104.888 C 87.281 105.255,85.553 105.996,85.097 105.728 C 84.931 105.630,84.686 105.831,84.554 106.175 C 84.416 106.534,83.842 106.800,83.204 106.800 C 82.412 106.800,82.030 107.041,81.874 107.640 C 81.753 108.103,81.462 108.362,81.227 108.217 C 80.992 108.072,80.800 108.213,80.800 108.532 C 80.800 108.877,80.234 109.217,79.400 109.374 C 78.562 109.531,78.000 109.870,78.000 110.218 C 78.000 110.598,77.583 110.800,76.800 110.800 C 76.000 110.800,75.600 111.000,75.600 111.400 C 75.600 111.730,75.330 112.000,75.000 112.000 C 74.670 112.000,74.400 112.270,74.400 112.600 C 74.400 113.000,74.000 113.200,73.200 113.200 C 72.400 113.200,72.000 113.400,72.000 113.800 C 72.000 114.130,71.730 114.400,71.400 114.400 C 71.070 114.400,70.800 114.670,70.800 115.000 C 70.800 115.401,70.399 115.600,69.587 115.600 C 68.695 115.600,68.286 115.838,68.041 116.500 C 67.858 116.995,67.549 117.400,67.354 117.400 C 67.159 117.400,67.045 117.535,67.100 117.700 C 67.155 117.865,66.936 118.000,66.614 118.000 C 66.292 118.000,65.833 118.365,65.594 118.811 C 65.355 119.257,64.984 119.514,64.770 119.381 C 64.556 119.249,64.406 119.289,64.437 119.470 C 64.599 120.400,64.312 120.800,63.481 120.800 C 62.951 120.800,62.147 121.300,61.581 121.983 C 61.042 122.634,60.274 123.174,59.876 123.183 C 59.478 123.192,59.258 123.371,59.388 123.580 C 59.517 123.789,59.252 124.158,58.800 124.400 C 58.348 124.642,58.083 125.011,58.212 125.220 C 58.342 125.429,58.069 125.600,57.606 125.600 C 57.027 125.600,56.802 125.818,56.882 126.300 C 56.963 126.777,56.777 126.963,56.300 126.882 C 55.818 126.802,55.600 127.027,55.600 127.606 C 55.600 128.069,55.429 128.342,55.220 128.212 C 55.011 128.083,54.642 128.348,54.400 128.800 C 54.158 129.252,53.789 129.517,53.580 129.388 C 53.371 129.258,53.200 129.427,53.200 129.763 C 53.200 130.555,50.555 133.200,49.763 133.200 C 49.427 133.200,49.258 133.371,49.388 133.580 C 49.517 133.789,49.252 134.158,48.800 134.400 C 48.348 134.642,48.083 135.011,48.212 135.220 C 48.342 135.429,48.069 135.600,47.606 135.600 C 47.027 135.600,46.802 135.818,46.882 136.300 C 46.963 136.777,46.777 136.963,46.300 136.882 C 45.818 136.802,45.600 137.027,45.600 137.606 C 45.600 138.069,45.429 138.342,45.220 138.212 C 45.011 138.083,44.642 138.348,44.400 138.800 C 44.158 139.252,43.789 139.517,43.580 139.388 C 43.371 139.258,43.200 139.504,43.200 139.934 C 43.200 140.363,42.930 140.818,42.600 140.945 C 42.270 141.071,42.000 141.631,42.000 142.187 C 42.000 142.821,41.775 143.200,41.400 143.200 C 41.070 143.200,40.800 143.470,40.800 143.800 C 40.800 144.349,40.312 144.584,39.470 144.437 C 39.289 144.406,39.249 144.556,39.381 144.770 C 39.514 144.984,39.269 145.349,38.838 145.580 C 38.406 145.811,37.996 146.455,37.927 147.012 C 37.857 147.569,37.641 147.974,37.446 147.912 C 37.251 147.851,36.938 148.217,36.749 148.726 C 36.561 149.235,36.221 149.536,35.993 149.396 C 35.766 149.255,35.606 149.289,35.637 149.470 C 35.852 150.704,35.525 152.000,35.000 152.000 C 34.600 152.000,34.400 152.400,34.400 153.200 C 34.400 154.000,34.200 154.400,33.800 154.400 C 33.470 154.400,33.200 154.651,33.200 154.957 C 33.200 155.264,32.943 155.613,32.629 155.734 C 32.315 155.854,32.000 156.458,31.929 157.076 C 31.856 157.713,31.583 158.157,31.300 158.100 C 30.976 158.035,30.800 158.493,30.800 159.400 C 30.800 160.476,30.635 160.800,30.087 160.800 C 29.602 160.800,29.346 161.144,29.285 161.878 C 29.236 162.470,28.972 163.094,28.698 163.263 C 28.216 163.561,28.157 163.719,28.050 165.000 C 28.023 165.330,27.752 165.600,27.450 165.600 C 27.122 165.600,26.900 166.027,26.900 166.656 C 26.900 167.237,26.607 167.876,26.250 168.076 C 25.802 168.327,25.600 168.993,25.600 170.220 C 25.600 171.506,25.439 172.000,25.022 172.000 C 24.616 172.000,24.408 172.566,24.322 173.900 C 24.255 174.945,24.020 175.751,23.800 175.690 C 23.580 175.630,23.310 176.440,23.200 177.490 C 23.071 178.725,22.823 179.365,22.500 179.300 C 22.153 179.231,22.000 179.813,22.000 181.200 C 22.000 182.685,21.850 183.200,21.417 183.200 C 20.966 183.200,20.807 183.904,20.717 186.300 C 20.625 188.737,20.472 189.400,20.000 189.400 C 19.532 189.400,19.370 190.060,19.266 192.400 C 19.174 194.456,18.954 195.501,18.566 195.720 C 18.127 195.968,18.000 197.117,18.000 200.820 C 18.000 204.779,17.898 205.600,17.406 205.600 C 16.891 205.600,16.825 207.413,16.906 219.300 C 16.980 230.007,17.109 232.978,17.500 232.900 C 17.911 232.818,18.344 239.650,18.056 241.675 C 18.034 241.827,18.328 241.891,18.708 241.817 C 19.321 241.699,19.392 242.043,19.331 244.842 C 19.268 247.715,19.331 248.000,20.031 248.000 C 20.711 248.000,20.800 248.301,20.800 250.600 C 20.800 252.467,20.941 253.172,21.300 253.100 C 21.631 253.034,21.841 253.642,21.922 254.900 C 22.008 256.234,22.216 256.800,22.622 256.800 C 23.050 256.800,23.200 257.326,23.200 258.824 C 23.200 259.971,23.361 260.748,23.572 260.617 C 24.052 260.321,24.382 260.868,24.486 262.135 C 24.532 262.689,24.713 263.054,24.888 262.946 C 25.217 262.742,25.590 263.451,25.759 264.601 C 25.812 264.966,26.059 265.389,26.307 265.542 C 26.554 265.695,26.802 266.581,26.857 267.510 C 26.920 268.582,27.147 269.200,27.478 269.200 C 27.911 269.200,28.220 270.522,28.056 271.675 C 28.034 271.827,28.360 271.885,28.780 271.804 C 29.350 271.694,29.506 271.850,29.396 272.420 C 29.315 272.840,29.373 273.166,29.525 273.144 C 30.469 273.010,30.800 273.336,30.800 274.400 C 30.800 275.200,31.000 275.600,31.400 275.600 C 31.800 275.600,32.000 276.000,32.000 276.800 C 32.000 277.600,32.200 278.000,32.600 278.000 C 32.930 278.000,33.200 278.270,33.200 278.600 C 33.200 278.930,33.459 279.200,33.775 279.200 C 34.131 279.200,34.397 279.695,34.475 280.500 C 34.550 281.278,34.801 281.760,35.100 281.700 C 35.421 281.636,35.600 282.084,35.600 282.953 C 35.600 283.992,35.795 284.358,36.440 284.526 C 36.916 284.651,37.163 284.936,37.011 285.183 C 36.862 285.423,36.889 285.594,37.070 285.563 C 37.862 285.425,38.429 285.630,38.215 285.975 C 38.088 286.182,38.256 286.503,38.589 286.690 C 38.922 286.876,39.235 287.517,39.285 288.114 C 39.346 288.855,39.601 289.200,40.087 289.200 C 40.540 289.200,40.800 289.500,40.800 290.024 C 40.800 290.505,40.977 290.738,41.227 290.583 C 41.462 290.438,41.749 290.685,41.866 291.132 C 41.995 291.623,42.301 291.859,42.639 291.730 C 42.954 291.609,43.200 291.758,43.200 292.068 C 43.200 292.675,44.761 294.183,45.400 294.193 C 45.620 294.197,45.803 294.380,45.807 294.600 C 45.817 295.239,47.325 296.800,47.932 296.800 C 48.242 296.800,48.391 297.046,48.270 297.361 C 48.141 297.699,48.377 298.005,48.868 298.134 C 49.315 298.251,49.562 298.538,49.417 298.773 C 49.262 299.023,49.495 299.200,49.976 299.200 C 50.541 299.200,50.800 299.459,50.800 300.024 C 50.800 300.505,50.977 300.738,51.227 300.583 C 51.462 300.438,51.749 300.685,51.866 301.132 C 51.995 301.623,52.301 301.859,52.639 301.730 C 52.954 301.609,53.200 301.758,53.200 302.068 C 53.200 302.675,54.761 304.183,55.400 304.193 C 55.620 304.197,55.803 304.380,55.807 304.600 C 55.817 305.239,57.325 306.800,57.932 306.800 C 58.242 306.800,58.391 307.046,58.270 307.361 C 58.141 307.699,58.377 308.005,58.868 308.134 C 59.315 308.251,59.562 308.538,59.417 308.773 C 59.249 309.045,59.669 309.200,60.576 309.200 C 61.747 309.200,62.000 309.346,62.000 310.024 C 62.000 310.477,62.171 310.742,62.380 310.612 C 62.589 310.483,62.958 310.748,63.200 311.200 C 63.442 311.652,63.811 311.917,64.020 311.788 C 64.363 311.576,64.571 312.117,64.447 312.900 C 64.421 313.065,64.535 313.179,64.700 313.153 C 66.043 312.941,67.152 313.260,66.945 313.800 C 66.785 314.216,66.972 314.400,67.557 314.400 C 68.021 314.400,68.355 314.625,68.300 314.900 C 68.240 315.199,68.722 315.450,69.500 315.525 C 70.305 315.603,70.800 315.869,70.800 316.225 C 70.800 316.541,71.070 316.800,71.400 316.800 C 71.730 316.800,72.000 317.070,72.000 317.400 C 72.000 317.800,72.400 318.000,73.200 318.000 C 74.000 318.000,74.400 318.200,74.400 318.600 C 74.400 318.930,74.670 319.200,75.000 319.200 C 75.530 319.200,75.766 319.650,75.661 320.458 C 75.643 320.600,76.233 320.688,76.973 320.653 C 78.054 320.602,78.291 320.727,78.183 321.287 C 78.109 321.670,78.173 321.966,78.325 321.944 C 79.617 321.761,80.800 322.085,80.800 322.624 C 80.800 322.967,80.971 323.142,81.180 323.012 C 81.389 322.883,81.755 323.143,81.994 323.589 C 82.250 324.067,82.833 324.400,83.414 324.400 C 84.024 324.400,84.400 324.629,84.400 325.000 C 84.400 325.395,84.795 325.600,85.557 325.600 C 86.194 325.600,86.813 325.857,86.934 326.171 C 87.054 326.485,87.658 326.800,88.276 326.871 C 88.913 326.944,89.357 327.217,89.300 327.500 C 89.236 327.821,89.685 328.000,90.557 328.000 C 91.395 328.000,92.003 328.230,92.145 328.600 C 92.271 328.930,92.831 329.200,93.387 329.200 C 94.291 329.200,94.594 329.572,94.447 330.500 C 94.421 330.665,94.535 330.779,94.700 330.753 C 95.765 330.585,96.800 330.883,96.800 331.359 C 96.800 331.740,97.232 331.898,98.159 331.854 C 99.253 331.802,99.491 331.926,99.383 332.487 C 99.309 332.870,99.373 333.166,99.525 333.144 C 101.139 332.915,103.200 333.282,103.200 333.800 C 103.200 334.130,103.335 334.379,103.500 334.353 C 104.633 334.174,105.985 334.475,105.900 334.887 C 105.844 335.161,106.376 335.468,107.116 335.587 C 107.839 335.704,108.379 335.980,108.316 336.200 C 108.252 336.420,109.055 336.655,110.100 336.722 C 111.434 336.808,112.000 337.016,112.000 337.422 C 112.000 337.798,112.420 338.000,113.200 338.000 C 114.000 338.000,114.400 338.200,114.400 338.600 C 114.400 339.044,114.867 339.200,116.200 339.200 C 117.466 339.200,118.000 339.364,118.000 339.753 C 118.000 340.360,119.187 340.786,120.900 340.795 C 121.627 340.798,122.000 341.011,122.000 341.424 C 122.000 341.767,122.165 341.945,122.366 341.821 C 122.865 341.513,124.899 342.317,124.648 342.722 C 124.538 342.901,125.200 343.091,126.120 343.145 C 127.075 343.201,127.931 343.492,128.116 343.822 C 128.323 344.191,129.083 344.400,130.220 344.400 C 131.536 344.400,132.000 344.557,132.000 345.000 C 132.000 345.465,132.529 345.600,134.357 345.600 C 136.031 345.600,136.778 345.766,136.934 346.171 C 137.054 346.485,137.658 346.800,138.276 346.871 C 138.913 346.944,139.357 347.217,139.300 347.500 C 139.228 347.859,139.933 348.000,141.800 348.000 C 143.844 348.000,144.400 348.128,144.400 348.600 C 144.400 349.044,144.867 349.200,146.200 349.200 C 147.466 349.200,148.000 349.364,148.000 349.753 C 148.000 350.360,149.187 350.786,150.900 350.795 C 151.569 350.798,152.000 351.017,152.000 351.356 C 152.000 351.661,152.225 351.903,152.500 351.893 C 155.099 351.796,157.187 352.064,157.100 352.482 C 156.992 353.000,157.243 353.073,159.400 353.150 C 160.356 353.184,160.800 353.390,160.800 353.800 C 160.800 354.272,161.356 354.400,163.400 354.400 C 165.267 354.400,165.972 354.541,165.900 354.900 C 165.830 355.248,166.562 355.436,168.300 355.519 C 170.164 355.608,170.800 355.786,170.800 356.219 C 170.800 356.641,171.293 356.800,172.600 356.800 C 173.907 356.800,174.400 356.959,174.400 357.381 C 174.400 357.814,175.036 357.992,176.900 358.081 C 178.638 358.164,179.370 358.352,179.300 358.700 C 179.231 359.047,179.813 359.200,181.200 359.200 C 182.903 359.200,183.200 359.314,183.200 359.965 C 183.200 360.647,183.482 360.724,185.758 360.665 C 187.902 360.611,188.296 360.703,188.194 361.236 C 188.093 361.754,188.526 361.888,190.533 361.960 C 192.185 362.020,193.102 362.238,193.318 362.624 C 193.535 363.013,194.334 363.200,195.777 363.200 C 197.308 363.200,197.980 363.370,198.145 363.800 C 198.302 364.211,198.945 364.400,200.187 364.400 C 201.532 364.400,202.000 364.555,202.000 365.000 C 202.000 365.465,202.529 365.600,204.357 365.600 C 206.084 365.600,206.776 365.761,206.945 366.200 C 207.114 366.642,207.812 366.800,209.587 366.800 C 211.465 366.800,212.000 366.933,212.000 367.400 C 212.000 367.844,212.467 368.000,213.800 368.000 C 215.133 368.000,215.600 368.156,215.600 368.600 C 215.600 369.072,216.156 369.200,218.200 369.200 C 220.439 369.200,220.800 369.300,220.800 369.922 C 220.800 370.488,221.165 370.665,222.496 370.744 C 223.429 370.799,224.317 371.066,224.469 371.338 C 224.622 371.610,225.418 371.878,226.239 371.933 C 227.960 372.049,228.508 372.301,228.183 372.828 C 228.050 373.043,229.059 373.200,230.576 373.200 C 232.467 373.200,233.200 373.346,233.200 373.722 C 233.200 374.052,233.814 374.280,234.871 374.342 C 236.770 374.454,237.317 374.687,236.977 375.238 C 236.847 375.448,236.889 375.594,237.070 375.563 C 238.600 375.297,240.800 375.673,240.800 376.200 C 240.800 376.644,241.267 376.800,242.600 376.800 C 243.903 376.800,244.400 376.960,244.400 377.378 C 244.400 377.784,244.966 377.992,246.300 378.078 C 247.558 378.159,248.166 378.369,248.100 378.700 C 248.035 379.024,248.493 379.200,249.400 379.200 C 250.483 379.200,250.800 379.364,250.800 379.922 C 250.800 380.488,251.165 380.665,252.490 380.743 C 253.419 380.798,254.312 381.058,254.475 381.321 C 254.773 381.804,254.942 381.859,256.400 381.950 C 256.840 381.978,257.155 382.217,257.100 382.482 C 256.992 383.000,257.243 383.073,259.400 383.150 C 260.356 383.184,260.800 383.390,260.800 383.800 C 260.800 384.200,261.200 384.400,262.000 384.400 C 262.776 384.400,263.200 384.603,263.200 384.975 C 263.200 385.331,263.695 385.597,264.500 385.675 C 265.278 385.750,265.760 386.001,265.700 386.300 C 265.635 386.626,266.102 386.800,267.043 386.800 C 268.161 386.800,268.434 386.935,268.255 387.400 C 268.078 387.862,268.344 388.000,269.413 388.000 C 270.379 388.000,270.800 388.182,270.800 388.600 C 270.800 389.000,271.200 389.200,272.000 389.200 C 272.884 389.200,273.200 389.387,273.200 389.913 C 273.200 390.394,273.542 390.654,274.256 390.713 C 274.837 390.761,275.512 391.058,275.756 391.372 C 276.000 391.686,276.650 392.001,277.200 392.072 C 277.750 392.142,278.166 392.380,278.124 392.600 C 278.082 392.820,278.409 393.133,278.850 393.297 C 279.291 393.460,279.536 393.779,279.396 394.007 C 279.255 394.234,279.289 394.394,279.470 394.363 C 280.704 394.148,282.000 394.475,282.000 395.000 C 282.000 395.330,282.180 395.600,282.400 395.600 C 282.906 395.600,284.400 397.075,284.400 397.575 C 284.400 397.781,284.985 398.006,285.700 398.075 C 286.478 398.150,286.960 398.401,286.900 398.700 C 286.845 398.975,287.070 399.200,287.400 399.200 C 287.730 399.200,288.000 399.449,288.000 399.753 C 288.000 400.058,288.360 400.401,288.800 400.516 C 289.240 400.631,289.600 401.012,289.600 401.363 C 289.600 401.713,289.870 402.000,290.200 402.000 C 290.530 402.000,290.800 402.270,290.800 402.600 C 290.800 402.930,291.025 403.155,291.300 403.100 C 291.599 403.040,291.850 403.522,291.925 404.300 C 291.994 405.015,292.219 405.600,292.425 405.600 C 292.925 405.600,294.400 407.094,294.400 407.600 C 294.400 407.820,294.670 408.000,295.000 408.000 C 295.443 408.000,295.600 408.464,295.600 409.780 C 295.600 410.917,295.809 411.677,296.178 411.884 C 296.508 412.068,296.799 412.925,296.855 413.878 C 296.909 414.797,297.144 415.515,297.377 415.474 C 298.129 415.342,298.160 432.879,297.408 433.299 C 296.982 433.538,296.800 434.281,296.800 435.777 C 296.800 437.308,296.630 437.980,296.200 438.145 C 295.789 438.302,295.600 438.945,295.600 440.187 C 295.600 441.532,295.445 442.000,295.000 442.000 C 294.600 442.000,294.400 442.400,294.400 443.200 C 294.400 444.000,294.200 444.400,293.800 444.400 C 293.400 444.400,293.200 444.800,293.200 445.600 C 293.200 446.376,292.997 446.800,292.625 446.800 C 292.269 446.800,292.003 447.295,291.925 448.100 C 291.850 448.878,291.599 449.360,291.300 449.300 C 291.025 449.245,290.800 449.560,290.800 450.000 C 290.800 450.501,290.533 450.800,290.087 450.800 C 289.601 450.800,289.346 451.145,289.285 451.886 C 289.235 452.483,288.922 453.124,288.589 453.310 C 288.256 453.497,288.088 453.818,288.215 454.025 C 288.429 454.370,287.862 454.575,287.070 454.437 C 286.889 454.406,286.862 454.577,287.011 454.817 C 287.162 455.062,286.928 455.346,286.477 455.464 C 286.035 455.579,285.579 456.035,285.464 456.477 C 285.346 456.928,285.062 457.162,284.817 457.011 C 284.577 456.862,284.406 456.889,284.437 457.070 C 284.575 457.862,284.370 458.429,284.025 458.215 C 283.818 458.088,283.497 458.256,283.310 458.589 C 283.124 458.922,282.483 459.235,281.886 459.285 C 281.145 459.346,280.800 459.601,280.800 460.087 C 280.800 460.540,280.500 460.800,279.976 460.800 C 279.495 460.800,279.262 460.977,279.417 461.227 C 279.562 461.462,279.315 461.749,278.868 461.866 C 278.377 461.995,278.141 462.301,278.270 462.639 C 278.430 463.056,278.116 463.200,277.043 463.200 C 276.102 463.200,275.635 463.374,275.700 463.700 C 275.760 463.999,275.278 464.250,274.500 464.325 C 273.785 464.394,273.200 464.619,273.200 464.825 C 273.200 465.583,271.580 466.789,270.446 466.875 C 269.629 466.937,269.314 467.152,269.398 467.589 C 269.495 468.092,269.201 468.183,267.889 468.058 C 266.715 467.946,266.128 468.084,265.786 468.551 C 265.525 468.908,264.837 469.239,264.256 469.287 C 263.542 469.346,263.200 469.606,263.200 470.087 C 263.200 470.676,262.852 470.800,261.200 470.800 C 259.813 470.800,259.231 470.953,259.300 471.300 C 259.365 471.624,258.793 471.844,257.678 471.924 C 256.641 471.999,255.869 472.277,255.735 472.624 C 255.589 473.004,254.918 473.200,253.757 473.200 C 252.462 473.200,252.000 473.358,252.000 473.800 C 252.000 474.320,248.892 474.730,247.100 474.447 C 246.935 474.421,246.845 474.625,246.900 474.900 C 246.972 475.258,246.119 475.433,243.900 475.517 C 241.504 475.607,240.800 475.766,240.800 476.217 C 240.800 476.684,240.090 476.800,237.220 476.800 C 234.500 476.800,233.561 476.940,233.314 477.383 C 233.052 477.850,231.773 477.977,226.894 478.020 C 221.951 478.065,220.800 478.181,220.800 478.638 C 220.800 479.495,195.791 479.475,195.462 478.617 C 195.276 478.131,194.007 478.048,187.861 478.117 C 181.210 478.192,180.497 478.135,180.611 477.543 C 180.722 476.967,180.150 476.879,175.900 476.824 C 170.964 476.760,170.207 476.637,170.623 475.962 C 170.753 475.752,170.711 475.606,170.530 475.637 C 168.852 475.929,164.015 475.525,164.100 475.100 C 164.172 474.742,163.319 474.567,161.100 474.483 C 158.704 474.393,158.000 474.234,158.000 473.783 C 158.000 473.320,157.331 473.200,154.757 473.200 C 152.039 473.200,151.552 473.103,151.745 472.600 C 151.935 472.105,151.523 472.000,149.387 472.000 C 147.354 472.000,146.800 471.871,146.800 471.400 C 146.800 470.933,146.267 470.800,144.400 470.800 C 142.623 470.800,142.000 470.656,142.000 470.247 C 142.000 469.580,140.781 469.213,138.543 469.205 C 137.546 469.202,136.805 468.990,136.683 468.673 C 136.559 468.348,135.671 468.110,134.365 468.050 C 132.053 467.945,131.465 467.742,131.817 467.172 C 131.950 466.957,130.941 466.800,129.424 466.800 C 127.533 466.800,126.800 466.654,126.800 466.278 C 126.800 465.948,126.186 465.720,125.129 465.658 C 123.230 465.546,122.683 465.313,123.023 464.762 C 123.153 464.552,123.111 464.406,122.930 464.437 C 121.197 464.738,118.000 464.325,118.000 463.800 C 118.000 463.358,117.538 463.200,116.243 463.200 C 115.082 463.200,114.411 463.004,114.265 462.624 C 114.131 462.277,113.359 461.999,112.322 461.924 C 111.207 461.844,110.635 461.624,110.700 461.300 C 110.772 460.941,110.067 460.800,108.200 460.800 C 105.739 460.800,105.395 460.637,105.540 459.539 C 105.559 459.395,104.699 459.305,103.629 459.339 C 101.982 459.391,101.704 459.294,101.817 458.708 C 101.891 458.328,101.827 458.034,101.675 458.056 C 100.061 458.285,98.000 457.918,98.000 457.400 C 98.000 457.005,97.605 456.800,96.843 456.800 C 96.180 456.800,95.587 456.542,95.454 456.196 C 95.327 455.864,95.082 455.616,94.911 455.644 C 93.586 455.861,91.614 455.528,91.700 455.100 C 91.766 454.769,91.158 454.559,89.900 454.478 C 88.566 454.392,88.000 454.184,88.000 453.778 C 88.000 453.402,87.580 453.200,86.800 453.200 C 86.020 453.200,85.600 452.998,85.600 452.622 C 85.600 452.216,85.034 452.008,83.700 451.922 C 82.442 451.841,81.834 451.631,81.900 451.300 C 81.965 450.976,81.507 450.800,80.600 450.800 C 79.517 450.800,79.200 450.636,79.200 450.078 C 79.200 449.512,78.835 449.335,77.510 449.257 C 76.581 449.202,75.688 448.942,75.525 448.679 C 75.227 448.196,75.058 448.141,73.600 448.050 C 73.160 448.023,72.845 447.783,72.900 447.518 C 73.017 446.953,72.823 446.916,69.400 446.850 C 67.419 446.812,66.800 446.662,66.800 446.221 C 66.800 445.737,65.671 445.641,60.000 445.641 C 54.329 445.641,53.200 445.737,53.200 446.221 C 53.200 446.662,52.581 446.812,50.600 446.850 C 47.177 446.916,46.983 446.953,47.100 447.518 C 47.155 447.783,46.840 448.023,46.400 448.050 C 44.942 448.141,44.773 448.196,44.475 448.679 C 44.312 448.942,43.419 449.202,42.490 449.257 C 41.165 449.335,40.800 449.512,40.800 450.078 C 40.800 450.533,40.504 450.800,40.000 450.800 C 39.560 450.800,39.245 451.025,39.300 451.300 C 39.360 451.599,38.878 451.850,38.100 451.925 C 37.295 452.003,36.800 452.269,36.800 452.625 C 36.800 452.997,36.376 453.200,35.600 453.200 C 34.800 453.200,34.400 453.400,34.400 453.800 C 34.400 454.130,34.130 454.400,33.800 454.400 C 33.470 454.400,33.200 454.580,33.200 454.800 C 33.200 455.320,31.490 457.030,31.100 456.900 C 30.935 456.845,30.800 457.070,30.800 457.400 C 30.800 457.730,30.551 458.000,30.247 458.000 C 29.942 458.000,29.599 458.360,29.484 458.800 C 29.369 459.240,28.988 459.600,28.637 459.600 C 28.287 459.600,28.000 459.870,28.000 460.200 C 28.000 460.530,27.730 460.800,27.400 460.800 C 27.070 460.800,26.821 460.935,26.847 461.100 C 27.025 462.228,26.715 463.200,26.176 463.200 C 25.833 463.200,25.672 463.392,25.817 463.627 C 25.962 463.862,25.703 464.153,25.240 464.274 C 24.641 464.430,24.400 464.812,24.400 465.604 C 24.400 466.215,24.143 466.813,23.829 466.934 C 23.515 467.054,23.200 467.658,23.129 468.276 C 23.056 468.913,22.783 469.357,22.500 469.300 C 22.179 469.236,22.000 469.685,22.000 470.557 C 22.000 471.395,21.770 472.003,21.400 472.145 C 20.967 472.311,20.800 472.990,20.800 474.587 C 20.800 476.670,20.604 477.015,19.514 476.852 C 19.356 476.828,19.228 481.577,19.228 487.405 C 19.228 497.671,19.252 498.000,20.014 498.000 C 20.691 498.000,20.800 498.278,20.800 500.000 C 20.800 501.387,20.953 501.969,21.300 501.900 C 21.583 501.843,21.856 502.287,21.929 502.924 C 22.000 503.542,22.315 504.146,22.629 504.266 C 22.943 504.387,23.200 504.922,23.200 505.455 C 23.200 505.989,23.470 506.529,23.800 506.655 C 24.142 506.787,24.400 507.383,24.400 508.043 C 24.400 508.805,24.605 509.200,25.000 509.200 C 25.401 509.200,25.600 509.601,25.600 510.413 C 25.600 511.248,25.842 511.715,26.376 511.913 C 26.803 512.071,27.208 512.380,27.276 512.600 C 27.344 512.820,27.535 512.955,27.700 512.900 C 27.865 512.845,28.000 513.064,28.000 513.386 C 28.000 513.708,28.365 514.167,28.811 514.406 C 29.257 514.645,29.514 515.016,29.381 515.230 C 29.249 515.444,29.289 515.594,29.470 515.563 C 30.312 515.416,30.800 515.651,30.800 516.200 C 30.800 516.530,31.070 516.800,31.400 516.800 C 31.730 516.800,32.000 517.070,32.000 517.400 C 32.000 517.730,32.270 518.000,32.600 518.000 C 32.930 518.000,33.200 518.270,33.200 518.600 C 33.200 518.930,33.470 519.200,33.800 519.200 C 34.341 519.200,34.578 519.675,34.447 520.500 C 34.421 520.665,34.535 520.779,34.700 520.753 C 35.828 520.575,36.800 520.885,36.800 521.424 C 36.800 521.767,36.960 521.949,37.155 521.828 C 37.595 521.556,38.492 522.575,38.130 522.937 C 37.985 523.082,38.527 523.200,39.333 523.200 C 40.370 523.200,40.800 523.376,40.800 523.800 C 40.800 524.200,41.200 524.400,42.000 524.400 C 42.800 524.400,43.200 524.600,43.200 525.000 C 43.200 525.442,43.662 525.600,44.957 525.600 C 46.111 525.600,46.790 525.796,46.934 526.171 C 47.054 526.485,47.658 526.800,48.276 526.871 C 48.913 526.944,49.357 527.217,49.300 527.500 C 49.236 527.821,49.685 528.000,50.557 528.000 C 51.395 528.000,52.003 528.230,52.145 528.600 C 52.297 528.996,52.923 529.200,53.987 529.200 C 55.473 529.200,55.811 529.465,55.647 530.500 C 55.621 530.665,55.735 530.779,55.900 530.753 C 57.467 530.505,59.600 530.878,59.600 531.400 C 59.600 531.800,60.000 532.000,60.800 532.000 C 61.600 532.000,62.000 532.200,62.000 532.600 C 62.000 533.044,62.467 533.200,63.800 533.200 C 65.103 533.200,65.600 533.360,65.600 533.778 C 65.600 534.184,66.166 534.392,67.500 534.478 C 68.566 534.547,69.367 534.787,69.324 535.027 C 69.282 535.268,70.062 535.495,71.122 535.550 C 72.252 535.609,73.122 535.875,73.317 536.223 C 73.513 536.574,74.260 536.800,75.220 536.800 C 76.358 536.800,76.800 536.968,76.800 537.400 C 76.800 537.853,77.289 538.000,78.800 538.000 C 80.311 538.000,80.800 538.147,80.800 538.600 C 80.800 539.044,81.267 539.200,82.600 539.200 C 84.257 539.200,84.596 539.430,84.460 540.461 C 84.441 540.605,85.301 540.695,86.371 540.661 C 88.018 540.609,88.296 540.706,88.183 541.292 C 88.109 541.672,88.173 541.966,88.325 541.944 C 89.939 541.715,92.000 542.082,92.000 542.600 C 92.000 543.071,92.554 543.200,94.587 543.200 C 96.723 543.200,97.135 543.305,96.945 543.800 C 96.759 544.285,97.106 544.400,98.757 544.400 C 100.277 544.400,100.800 544.549,100.800 544.981 C 100.800 545.414,101.436 545.592,103.300 545.681 C 105.038 545.764,105.770 545.952,105.700 546.300 C 105.628 546.658,106.325 546.800,108.157 546.800 C 110.061 546.800,110.773 546.953,110.945 547.400 C 111.111 547.833,111.790 548.000,113.387 548.000 C 115.087 548.000,115.600 548.139,115.600 548.600 C 115.600 549.072,116.156 549.200,118.200 549.200 C 120.452 549.200,120.800 549.298,120.800 549.932 C 120.800 550.545,121.172 550.678,123.098 550.756 C 124.603 550.817,125.507 551.048,125.718 551.425 C 125.942 551.825,126.765 552.000,128.420 552.000 C 130.269 552.000,130.800 552.134,130.800 552.600 C 130.800 552.930,130.935 553.179,131.100 553.153 C 133.128 552.832,137.145 553.277,136.945 553.800 C 136.752 554.303,137.239 554.400,139.957 554.400 C 142.531 554.400,143.200 554.520,143.200 554.983 C 143.200 555.434,143.904 555.593,146.300 555.683 C 148.519 555.767,149.372 555.942,149.300 556.300 C 149.226 556.672,150.173 556.800,153.000 556.800 C 156.111 556.800,156.800 556.909,156.800 557.400 C 156.800 557.800,157.200 558.000,158.000 558.000 L 159.200 558.000 159.250 583.800 C 159.307 613.366,159.230 610.600,160.000 610.600 C 160.457 610.600,160.628 611.197,160.719 613.100 C 160.808 614.964,160.986 615.600,161.419 615.600 C 161.798 615.600,162.000 616.018,162.000 616.800 C 162.000 617.600,162.200 618.000,162.600 618.000 C 163.021 618.000,163.200 618.425,163.200 619.424 C 163.200 620.207,163.368 620.744,163.572 620.617 C 164.052 620.321,164.382 620.868,164.486 622.135 C 164.532 622.689,164.724 623.047,164.912 622.931 C 165.100 622.815,165.353 623.098,165.474 623.560 C 165.594 624.022,165.942 624.400,166.247 624.400 C 166.576 624.400,166.800 624.821,166.800 625.437 C 166.800 626.148,167.059 626.543,167.623 626.690 C 168.075 626.808,168.358 627.134,168.250 627.413 C 168.143 627.693,168.421 628.017,168.868 628.134 C 169.315 628.251,169.562 628.538,169.417 628.773 C 169.262 629.023,169.495 629.200,169.976 629.200 C 170.541 629.200,170.800 629.459,170.800 630.024 C 170.800 630.505,170.977 630.738,171.227 630.583 C 171.462 630.438,171.749 630.685,171.866 631.132 C 171.983 631.579,172.307 631.857,172.587 631.750 C 172.866 631.642,173.192 631.925,173.310 632.377 C 173.457 632.941,173.852 633.200,174.563 633.200 C 175.179 633.200,175.600 633.424,175.600 633.753 C 175.600 634.058,175.978 634.406,176.440 634.526 C 176.902 634.647,177.185 634.900,177.069 635.088 C 176.953 635.276,177.311 635.468,177.865 635.514 C 179.132 635.618,179.679 635.948,179.383 636.428 C 179.256 636.632,179.793 636.800,180.576 636.800 C 181.575 636.800,182.000 636.979,182.000 637.400 C 182.000 637.800,182.400 638.000,183.200 638.000 C 184.000 638.000,184.400 638.200,184.400 638.600 C 184.400 639.044,184.867 639.200,186.200 639.200 C 187.190 639.200,188.000 639.380,188.000 639.600 C 188.000 639.858,192.267 640.000,200.000 640.000 C 207.733 640.000,212.000 639.858,212.000 639.600 C 212.000 639.380,212.810 639.200,213.800 639.200 C 215.133 639.200,215.600 639.044,215.600 638.600 C 215.600 638.200,216.000 638.000,216.800 638.000 C 217.600 638.000,218.000 637.800,218.000 637.400 C 218.000 636.979,218.425 636.800,219.424 636.800 C 220.207 636.800,220.744 636.632,220.617 636.428 C 220.321 635.948,220.868 635.618,222.135 635.514 C 222.689 635.468,223.047 635.276,222.931 635.088 C 222.815 634.900,223.098 634.647,223.560 634.526 C 224.022 634.406,224.400 634.058,224.400 633.753 C 224.400 633.424,224.821 633.200,225.437 633.200 C 226.148 633.200,226.543 632.941,226.690 632.377 C 226.808 631.925,227.134 631.642,227.413 631.750 C 227.693 631.857,228.017 631.579,228.134 631.132 C 228.251 630.685,228.538 630.438,228.773 630.583 C 229.023 630.738,229.200 630.505,229.200 630.024 C 229.200 629.459,229.459 629.200,230.024 629.200 C 230.505 629.200,230.738 629.023,230.583 628.773 C 230.438 628.538,230.685 628.251,231.132 628.134 C 231.579 628.017,231.857 627.693,231.750 627.413 C 231.642 627.134,231.925 626.808,232.377 626.690 C 232.941 626.543,233.200 626.148,233.200 625.437 C 233.200 624.821,233.424 624.400,233.753 624.400 C 234.058 624.400,234.406 624.022,234.526 623.560 C 234.647 623.098,234.900 622.815,235.088 622.931 C 235.276 623.047,235.468 622.689,235.514 622.135 C 235.618 620.868,235.948 620.321,236.428 620.617 C 236.632 620.744,236.800 620.207,236.800 619.424 C 236.800 618.425,236.979 618.000,237.400 618.000 C 237.800 618.000,238.000 617.600,238.000 616.800 C 238.000 616.018,238.202 615.600,238.581 615.600 C 239.014 615.600,239.192 614.964,239.281 613.100 C 239.372 611.197,239.543 610.600,240.000 610.600 C 240.770 610.600,240.693 613.292,240.750 584.400 L 240.800 559.200 244.213 559.200 C 246.877 559.200,247.676 559.068,247.855 558.600 C 248.041 558.117,248.939 558.000,252.443 558.000 C 256.049 558.000,256.800 557.897,256.800 557.400 C 256.800 556.920,257.401 556.800,259.813 556.800 C 262.121 556.800,262.879 556.660,263.055 556.200 C 263.224 555.761,263.916 555.600,265.643 555.600 C 267.471 555.600,268.000 555.465,268.000 555.000 C 268.000 554.527,268.560 554.400,270.643 554.400 C 272.828 554.400,273.246 554.296,273.055 553.800 C 272.865 553.305,273.277 553.200,275.413 553.200 C 277.446 553.200,278.000 553.071,278.000 552.600 C 278.000 552.082,280.061 551.715,281.675 551.944 C 281.827 551.966,281.891 551.672,281.817 551.292 C 281.704 550.706,281.982 550.609,283.629 550.661 C 284.699 550.695,285.559 550.605,285.540 550.461 C 285.404 549.430,285.743 549.200,287.400 549.200 C 288.733 549.200,289.200 549.044,289.200 548.600 C 289.200 548.147,289.689 548.000,291.200 548.000 C 292.711 548.000,293.200 547.853,293.200 547.400 C 293.200 547.000,293.600 546.800,294.400 546.800 C 295.200 546.800,295.600 546.600,295.600 546.200 C 295.600 545.756,296.067 545.600,297.400 545.600 C 298.733 545.600,299.200 545.444,299.200 545.000 C 299.200 544.602,299.598 544.400,300.380 544.400 C 301.054 544.400,301.716 544.121,301.924 543.750 C 302.124 543.392,302.763 543.100,303.344 543.100 C 303.973 543.100,304.400 542.878,304.400 542.550 C 304.400 542.248,304.670 541.977,305.000 541.950 C 306.281 541.843,306.439 541.784,306.737 541.302 C 306.906 541.028,307.530 540.764,308.122 540.715 C 308.856 540.654,309.200 540.398,309.200 539.913 C 309.200 539.365,309.524 539.200,310.600 539.200 C 311.507 539.200,311.965 539.024,311.900 538.700 C 311.843 538.417,312.287 538.144,312.924 538.071 C 313.542 538.000,314.146 537.685,314.266 537.371 C 314.387 537.057,314.922 536.800,315.455 536.800 C 315.989 536.800,316.529 536.530,316.655 536.200 C 316.782 535.870,317.136 535.600,317.443 535.600 C 317.749 535.600,318.000 535.330,318.000 535.000 C 318.000 534.475,319.296 534.148,320.530 534.363 C 320.711 534.394,320.745 534.234,320.604 534.007 C 320.346 533.589,320.934 533.239,322.269 533.016 C 322.671 532.949,322.955 532.693,322.900 532.447 C 322.845 532.201,323.061 532.000,323.380 532.000 C 323.699 532.000,324.111 531.731,324.295 531.403 C 324.478 531.074,325.117 530.765,325.714 530.715 C 326.312 530.666,326.800 530.401,326.800 530.126 C 326.800 529.248,329.530 526.861,330.685 526.728 C 331.315 526.656,331.757 526.383,331.700 526.100 C 331.608 525.641,332.112 525.420,332.930 525.563 C 333.111 525.594,333.138 525.423,332.989 525.183 C 332.838 524.938,333.072 524.654,333.523 524.536 C 333.965 524.421,334.421 523.965,334.536 523.523 C 334.669 523.015,334.926 522.831,335.235 523.022 C 335.548 523.215,335.621 523.157,335.438 522.861 C 335.134 522.370,337.013 521.437,337.588 521.793 C 337.765 521.902,338.007 521.615,338.128 521.155 C 338.248 520.696,338.538 520.438,338.773 520.583 C 339.023 520.738,339.200 520.505,339.200 520.024 C 339.200 519.459,339.459 519.200,340.024 519.200 C 340.505 519.200,340.738 519.023,340.583 518.773 C 340.438 518.538,340.685 518.251,341.132 518.134 C 341.623 518.005,341.859 517.699,341.730 517.361 C 341.609 517.046,341.758 516.800,342.068 516.800 C 342.675 516.800,344.183 515.239,344.193 514.600 C 344.197 514.380,344.380 514.197,344.600 514.193 C 345.239 514.183,346.800 512.675,346.800 512.068 C 346.800 511.758,347.046 511.609,347.361 511.730 C 347.699 511.859,348.005 511.623,348.134 511.132 C 348.251 510.685,348.538 510.438,348.773 510.583 C 349.023 510.738,349.200 510.505,349.200 510.024 C 349.200 509.459,349.459 509.200,350.024 509.200 C 350.505 509.200,350.738 509.023,350.583 508.773 C 350.438 508.538,350.685 508.251,351.132 508.134 C 351.579 508.017,351.857 507.693,351.750 507.413 C 351.642 507.134,351.925 506.808,352.377 506.690 C 352.941 506.543,353.200 506.148,353.200 505.437 C 353.200 504.821,353.424 504.400,353.753 504.400 C 354.058 504.400,354.406 504.022,354.526 503.560 C 354.651 503.084,354.936 502.837,355.183 502.989 C 355.423 503.138,355.594 503.111,355.563 502.930 C 355.420 502.112,355.641 501.608,356.100 501.700 C 356.383 501.757,356.656 501.315,356.728 500.685 C 356.861 499.530,359.248 496.800,360.126 496.800 C 360.401 496.800,360.665 496.325,360.713 495.744 C 360.761 495.163,361.058 494.488,361.372 494.244 C 361.686 494.000,362.001 493.350,362.072 492.800 C 362.142 492.250,362.359 491.890,362.554 492.000 C 362.749 492.110,363.062 491.783,363.251 491.274 C 363.439 490.765,363.779 490.464,364.007 490.604 C 364.234 490.745,364.394 490.711,364.363 490.530 C 364.148 489.296,364.475 488.000,365.000 488.000 C 365.400 488.000,365.600 487.600,365.600 486.800 C 365.600 486.000,365.800 485.600,366.200 485.600 C 366.600 485.600,366.800 485.200,366.800 484.400 C 366.800 483.624,367.003 483.200,367.375 483.200 C 367.731 483.200,367.997 482.705,368.075 481.900 C 368.150 481.122,368.401 480.640,368.700 480.700 C 369.024 480.765,369.200 480.307,369.200 479.400 C 369.200 478.324,369.365 478.000,369.913 478.000 C 370.399 478.000,370.654 477.655,370.715 476.914 C 370.765 476.317,371.036 475.699,371.319 475.541 C 371.602 475.383,371.878 474.582,371.933 473.761 C 372.049 472.040,372.301 471.492,372.828 471.817 C 373.032 471.944,373.200 471.407,373.200 470.624 C 373.200 469.625,373.379 469.200,373.800 469.200 C 374.244 469.200,374.400 468.733,374.400 467.400 C 374.400 466.093,374.559 465.600,374.981 465.600 C 375.414 465.600,375.592 464.964,375.681 463.100 C 375.764 461.362,375.952 460.630,376.300 460.700 C 376.659 460.772,376.800 460.067,376.800 458.200 C 376.800 456.156,376.928 455.600,377.400 455.600 C 377.883 455.600,378.000 454.978,378.000 452.400 C 378.000 449.822,378.117 449.200,378.600 449.200 C 379.089 449.200,379.200 448.533,379.200 445.600 C 379.200 442.791,379.322 442.000,379.757 442.000 C 380.063 442.000,380.426 441.550,380.564 441.000 C 380.912 439.614,380.835 404.401,380.484 404.453 C 379.336 404.623,379.200 404.278,379.200 401.200 C 379.200 398.853,379.067 398.027,378.700 398.100 C 378.342 398.172,378.167 397.319,378.083 395.100 C 377.995 392.762,377.828 392.000,377.405 392.000 C 377.019 392.000,376.806 391.406,376.722 390.100 C 376.641 388.842,376.431 388.234,376.100 388.300 C 375.753 388.369,375.600 387.787,375.600 386.400 C 375.600 384.889,375.453 384.400,375.000 384.400 C 374.556 384.400,374.400 383.933,374.400 382.600 C 374.400 381.267,374.244 380.800,373.800 380.800 C 373.379 380.800,373.200 380.375,373.200 379.376 C 373.200 378.593,373.032 378.056,372.828 378.183 C 372.301 378.508,372.049 377.960,371.933 376.239 C 371.878 375.418,371.602 374.617,371.319 374.459 C 371.036 374.301,370.765 373.683,370.715 373.086 C 370.654 372.345,370.399 372.000,369.913 372.000 C 369.365 372.000,369.200 371.676,369.200 370.600 C 369.200 369.693,369.024 369.235,368.700 369.300 C 368.401 369.360,368.150 368.878,368.075 368.100 C 367.997 367.295,367.731 366.800,367.375 366.800 C 367.059 366.800,366.800 366.530,366.800 366.200 C 366.800 365.870,366.575 365.645,366.300 365.700 C 366.001 365.760,365.750 365.278,365.675 364.500 C 365.606 363.785,365.381 363.200,365.175 363.200 C 364.417 363.200,363.211 361.580,363.125 360.446 C 363.059 359.580,362.857 359.312,362.346 359.410 C 361.858 359.504,361.699 359.326,361.800 358.800 C 361.900 358.278,361.741 358.096,361.267 358.187 C 360.730 358.290,360.603 358.039,360.653 356.973 C 360.688 356.233,360.600 355.643,360.458 355.661 C 359.650 355.766,359.200 355.530,359.200 355.000 C 359.200 354.670,358.930 354.400,358.600 354.400 C 358.270 354.400,358.000 354.130,358.000 353.800 C 358.000 353.470,357.730 353.200,357.400 353.200 C 357.000 353.200,356.800 352.800,356.800 352.000 C 356.800 351.200,356.600 350.800,356.200 350.800 C 355.651 350.800,355.416 350.312,355.563 349.470 C 355.594 349.289,355.444 349.249,355.230 349.381 C 355.016 349.514,354.645 349.257,354.406 348.811 C 354.167 348.365,353.708 348.000,353.386 348.000 C 353.064 348.000,352.845 347.775,352.900 347.500 C 352.955 347.225,352.775 347.045,352.500 347.100 C 352.225 347.155,352.000 346.936,352.000 346.614 C 352.000 346.292,351.635 345.833,351.189 345.594 C 350.743 345.355,350.486 344.984,350.619 344.770 C 350.751 344.556,350.711 344.406,350.530 344.437 C 349.688 344.584,349.200 344.349,349.200 343.800 C 349.200 343.470,348.930 343.200,348.600 343.200 C 348.270 343.200,348.000 342.930,348.000 342.600 C 348.000 342.270,347.730 342.000,347.400 342.000 C 347.070 342.000,346.800 341.730,346.800 341.400 C 346.800 341.070,346.530 340.800,346.200 340.800 C 345.651 340.800,345.416 340.312,345.563 339.470 C 345.594 339.289,345.444 339.249,345.230 339.381 C 345.016 339.514,344.645 339.257,344.406 338.811 C 344.167 338.365,343.708 338.000,343.386 338.000 C 343.064 338.000,342.845 337.775,342.900 337.500 C 342.955 337.225,342.775 337.045,342.500 337.100 C 342.225 337.155,342.000 336.936,342.000 336.614 C 342.000 336.292,341.635 335.833,341.189 335.594 C 340.743 335.355,340.486 334.984,340.619 334.770 C 340.751 334.556,340.711 334.406,340.530 334.437 C 339.688 334.584,339.200 334.349,339.200 333.800 C 339.200 333.400,338.800 333.200,338.000 333.200 C 337.200 333.200,336.800 333.000,336.800 332.600 C 336.800 332.270,336.530 332.000,336.200 332.000 C 335.870 332.000,335.600 331.730,335.600 331.400 C 335.600 331.070,335.330 330.800,335.000 330.800 C 334.470 330.800,334.234 330.350,334.339 329.542 C 334.357 329.400,333.767 329.312,333.027 329.347 C 331.961 329.397,331.710 329.270,331.813 328.733 C 331.904 328.259,331.722 328.100,331.200 328.200 C 330.674 328.301,330.496 328.142,330.590 327.654 C 330.688 327.143,330.420 326.941,329.554 326.875 C 328.420 326.789,326.800 325.583,326.800 324.825 C 326.800 324.619,326.215 324.394,325.500 324.325 C 324.722 324.250,324.240 323.999,324.300 323.700 C 324.355 323.425,324.130 323.200,323.800 323.200 C 323.470 323.200,323.200 322.941,323.200 322.625 C 323.200 322.269,322.705 322.003,321.900 321.925 C 321.122 321.850,320.640 321.599,320.700 321.300 C 320.755 321.025,320.440 320.800,320.000 320.800 C 319.499 320.800,319.200 320.533,319.200 320.087 C 319.200 319.602,318.856 319.346,318.122 319.285 C 317.530 319.236,316.906 318.972,316.737 318.698 C 316.439 318.216,316.281 318.157,315.000 318.050 C 314.670 318.023,314.400 317.753,314.400 317.450 C 314.400 317.122,313.973 316.900,313.344 316.900 C 312.763 316.900,312.124 316.608,311.924 316.250 C 311.716 315.879,311.054 315.600,310.380 315.600 C 309.598 315.600,309.200 315.398,309.200 315.000 C 309.200 314.605,308.805 314.400,308.043 314.400 C 307.383 314.400,306.787 314.142,306.655 313.800 C 306.529 313.470,305.989 313.200,305.455 313.200 C 304.922 313.200,304.387 312.943,304.266 312.629 C 304.146 312.315,303.542 312.000,302.924 311.929 C 302.287 311.856,301.843 311.583,301.900 311.300 C 301.965 310.976,301.507 310.800,300.600 310.800 C 299.524 310.800,299.200 310.635,299.200 310.087 C 299.200 309.602,298.856 309.346,298.122 309.285 C 297.530 309.236,296.906 308.972,296.737 308.698 C 296.439 308.216,296.281 308.157,295.000 308.050 C 294.670 308.023,294.400 307.760,294.400 307.466 C 294.400 307.117,293.830 306.909,292.764 306.867 C 290.920 306.795,290.277 306.523,290.623 305.962 C 290.753 305.752,290.711 305.606,290.530 305.637 C 289.324 305.847,288.000 305.525,288.000 305.022 C 288.000 304.616,287.434 304.408,286.100 304.322 C 284.842 304.241,284.234 304.031,284.300 303.700 C 284.365 303.374,283.898 303.200,282.957 303.200 C 281.839 303.200,281.566 303.065,281.745 302.600 C 281.930 302.117,281.594 302.000,280.030 302.000 C 278.671 302.000,278.016 301.819,277.855 301.400 C 277.703 301.004,277.077 300.800,276.013 300.800 C 274.527 300.800,274.189 300.535,274.353 299.500 C 274.379 299.335,274.265 299.221,274.100 299.247 C 272.533 299.495,270.400 299.122,270.400 298.600 C 270.400 298.158,269.938 298.000,268.643 298.000 C 267.450 298.000,266.812 297.807,266.655 297.400 C 266.498 296.990,265.856 296.800,264.625 296.800 C 263.189 296.800,262.872 296.679,263.055 296.200 C 263.241 295.715,262.894 295.600,261.243 295.600 C 259.694 295.600,259.200 295.455,259.200 295.000 C 259.200 294.556,258.733 294.400,257.400 294.400 C 256.067 294.400,255.600 294.244,255.600 293.800 C 255.600 293.345,255.106 293.200,253.557 293.200 C 251.906 293.200,251.559 293.085,251.745 292.600 C 251.935 292.105,251.523 292.000,249.387 292.000 C 247.354 292.000,246.800 291.871,246.800 291.400 C 246.800 290.956,246.333 290.800,245.000 290.800 C 243.327 290.800,242.985 290.560,243.153 289.500 C 243.179 289.335,243.065 289.221,242.900 289.247 C 241.211 289.514,238.000 289.119,238.000 288.644 C 238.000 288.339,237.775 288.097,237.500 288.107 C 235.428 288.184,234.400 287.944,234.400 287.382 C 234.400 287.043,234.175 286.794,233.900 286.830 C 231.836 287.098,229.200 286.745,229.200 286.200 C 229.200 285.728,228.644 285.600,226.600 285.600 C 224.733 285.600,224.028 285.459,224.100 285.100 C 224.164 284.781,223.548 284.528,222.400 284.400 C 221.252 284.272,220.636 284.019,220.700 283.700 C 220.772 283.341,220.067 283.200,218.200 283.200 C 216.194 283.200,215.600 283.067,215.600 282.619 C 215.600 282.186,214.964 282.008,213.100 281.919 C 211.362 281.836,210.630 281.648,210.700 281.300 C 210.769 280.953,210.187 280.800,208.800 280.800 C 207.097 280.800,206.800 280.686,206.800 280.035 C 206.800 279.353,206.518 279.276,204.242 279.335 C 202.098 279.389,201.704 279.297,201.806 278.764 C 201.907 278.246,201.474 278.112,199.467 278.040 C 197.815 277.980,196.898 277.762,196.682 277.376 C 196.478 277.010,195.715 276.800,194.593 276.800 C 193.186 276.800,192.872 276.678,193.055 276.200 C 193.246 275.704,192.828 275.600,190.643 275.600 C 188.560 275.600,188.000 275.473,188.000 275.000 C 188.000 274.535,187.471 274.400,185.643 274.400 C 183.916 274.400,183.224 274.239,183.055 273.800 C 182.899 273.392,182.259 273.200,181.055 273.200 C 179.851 273.200,179.212 273.008,179.055 272.600 C 178.889 272.167,178.210 272.000,176.613 272.000 C 174.950 272.000,174.400 271.856,174.400 271.422 C 174.400 271.016,173.834 270.808,172.500 270.722 C 171.152 270.635,170.600 270.430,170.600 270.013 C 170.600 269.606,170.047 269.379,168.800 269.275 C 167.810 269.192,166.872 268.916,166.715 268.662 C 166.403 268.157,166.264 268.124,164.200 268.050 C 163.336 268.019,162.838 267.815,162.900 267.516 C 162.967 267.192,162.204 266.981,160.600 266.880 C 159.085 266.784,158.082 266.520,157.880 266.164 C 157.704 265.854,157.119 265.600,156.580 265.600 C 155.976 265.600,155.600 265.370,155.600 265.000 C 155.600 264.547,155.111 264.400,153.600 264.400 C 152.213 264.400,151.631 264.247,151.700 263.900 C 151.766 263.569,151.158 263.359,149.900 263.278 C 148.566 263.192,148.000 262.984,148.000 262.578 C 148.000 262.160,147.503 262.000,146.200 262.000 C 144.867 262.000,144.400 261.844,144.400 261.400 C 144.400 261.000,144.000 260.800,143.200 260.800 C 142.445 260.800,142.000 260.595,142.000 260.247 C 142.000 259.640,140.813 259.214,139.100 259.205 C 138.373 259.202,138.000 258.989,138.000 258.576 C 138.000 258.233,137.835 258.055,137.634 258.179 C 137.073 258.526,135.117 257.658,135.406 257.191 C 135.545 256.965,135.511 256.806,135.330 256.837 C 134.039 257.062,132.847 256.744,133.045 256.228 C 133.203 255.815,132.894 255.620,131.932 255.528 C 131.129 255.451,130.640 255.201,130.700 254.900 C 130.755 254.625,130.665 254.421,130.500 254.447 C 129.255 254.644,128.000 254.319,128.000 253.800 C 128.000 253.400,127.600 253.200,126.800 253.200 C 126.024 253.200,125.600 252.997,125.600 252.625 C 125.600 252.269,125.105 252.003,124.300 251.925 C 123.522 251.850,123.040 251.599,123.100 251.300 C 123.161 250.994,122.761 250.800,122.070 250.800 C 120.984 250.800,119.200 249.409,119.200 248.561 C 119.200 248.349,118.743 248.137,118.184 248.090 C 117.625 248.044,116.716 247.519,116.164 246.924 C 115.613 246.328,114.886 245.801,114.549 245.751 C 113.359 245.577,112.752 245.201,113.004 244.793 C 113.145 244.566,113.111 244.406,112.930 244.437 C 112.135 244.576,111.571 244.370,111.788 244.020 C 111.917 243.811,111.652 243.442,111.200 243.200 C 110.748 242.958,110.483 242.589,110.612 242.380 C 110.742 242.171,110.477 242.000,110.024 242.000 C 109.558 242.000,109.200 241.739,109.200 241.400 C 109.200 241.070,108.930 240.800,108.600 240.800 C 108.261 240.800,108.000 240.442,108.000 239.976 C 108.000 239.523,107.829 239.258,107.620 239.388 C 107.411 239.517,107.042 239.252,106.800 238.800 C 106.558 238.348,106.189 238.083,105.980 238.212 C 105.630 238.429,105.424 237.865,105.563 237.070 C 105.594 236.889,105.434 236.855,105.207 236.996 C 104.773 237.264,103.964 235.620,104.272 235.097 C 104.370 234.931,104.169 234.686,103.825 234.554 C 103.458 234.413,103.200 233.838,103.200 233.157 C 103.200 232.395,102.995 232.000,102.600 232.000 C 102.200 232.000,102.000 231.600,102.000 230.800 C 102.000 230.000,101.800 229.600,101.400 229.600 C 100.880 229.600,100.470 226.492,100.753 224.700 C 100.779 224.535,100.665 224.421,100.500 224.447 C 99.265 224.642,99.200 224.332,99.200 218.200 C 99.200 213.188,99.306 212.000,99.753 212.000 C 100.468 212.000,100.788 210.755,100.795 207.943 C 100.798 206.475,100.980 205.616,101.315 205.488 C 101.599 205.379,101.876 204.610,101.932 203.779 C 102.049 202.040,102.300 201.491,102.828 201.817 C 103.032 201.944,103.200 201.407,103.200 200.624 C 103.200 199.625,103.379 199.200,103.800 199.200 C 104.200 199.200,104.400 198.800,104.400 198.000 C 104.400 197.200,104.600 196.800,105.000 196.800 C 105.330 196.800,105.600 196.530,105.600 196.200 C 105.600 195.870,105.870 195.600,106.200 195.600 C 106.600 195.600,106.800 195.200,106.800 194.400 C 106.800 193.645,107.005 193.200,107.353 193.200 C 107.658 193.200,108.006 192.822,108.126 192.360 C 108.247 191.897,108.538 191.638,108.773 191.783 C 109.008 191.928,109.200 191.798,109.200 191.493 C 109.200 190.820,110.859 189.200,111.549 189.200 C 111.823 189.200,111.928 189.008,111.783 188.773 C 111.638 188.538,111.897 188.247,112.360 188.126 C 112.822 188.006,113.200 187.658,113.200 187.353 C 113.200 187.049,113.481 186.800,113.824 186.800 C 114.167 186.800,114.328 186.608,114.183 186.373 C 114.038 186.138,114.297 185.847,114.760 185.726 C 115.222 185.606,115.600 185.258,115.600 184.953 C 115.600 184.632,116.013 184.400,116.586 184.400 C 117.167 184.400,117.750 184.067,118.006 183.589 C 118.245 183.143,118.611 182.883,118.820 183.012 C 119.029 183.142,119.200 182.967,119.200 182.624 C 119.200 182.085,120.383 181.761,121.675 181.944 C 121.827 181.966,121.885 181.640,121.804 181.220 C 121.694 180.650,121.850 180.494,122.420 180.604 C 122.840 180.685,123.166 180.627,123.144 180.475 C 123.010 179.531,123.336 179.200,124.400 179.200 C 125.200 179.200,125.600 179.000,125.600 178.600 C 125.600 178.200,126.000 178.000,126.800 178.000 C 127.600 178.000,128.000 177.800,128.000 177.400 C 128.000 176.979,128.425 176.800,129.424 176.800 C 130.207 176.800,130.744 176.632,130.617 176.428 C 130.321 175.948,130.868 175.618,132.135 175.514 C 132.689 175.468,133.054 175.287,132.946 175.112 C 132.742 174.783,133.451 174.410,134.601 174.241 C 134.966 174.188,135.389 173.941,135.542 173.693 C 135.695 173.446,136.581 173.198,137.510 173.143 C 138.582 173.080,139.200 172.853,139.200 172.522 C 139.200 172.080,141.484 171.729,142.900 171.953 C 143.065 171.979,143.200 171.730,143.200 171.400 C 143.200 170.878,145.026 170.520,146.500 170.753 C 146.665 170.779,146.800 170.440,146.800 170.000 C 146.800 169.307,147.067 169.200,148.800 169.200 C 150.187 169.200,150.769 169.047,150.700 168.700 C 150.628 168.342,151.481 168.167,153.700 168.083 C 156.046 167.995,156.800 167.829,156.800 167.402 C 156.800 166.990,157.471 166.806,159.300 166.719 C 161.038 166.636,161.770 166.448,161.700 166.100 C 161.616 165.679,168.713 165.247,170.530 165.563 C 170.711 165.594,170.753 165.448,170.623 165.238 C 170.206 164.563,170.965 164.440,175.916 164.375 C 179.306 164.332,180.745 164.175,180.685 163.856 C 180.545 163.105,214.060 163.007,214.480 163.757 C 214.728 164.201,216.065 164.335,220.664 164.379 C 226.476 164.434,227.401 164.551,227.012 165.180 C 226.902 165.358,228.731 165.535,231.077 165.573 C 235.445 165.642,236.185 165.777,235.783 166.428 C 235.648 166.646,236.889 166.800,238.776 166.800 C 241.338 166.800,242.000 166.920,242.000 167.385 C 242.000 167.848,242.772 167.994,245.700 168.085 C 248.399 168.169,249.373 168.335,249.300 168.700 C 249.227 169.067,250.053 169.200,252.400 169.200 C 255.459 169.200,255.800 169.330,255.665 170.448 C 255.648 170.584,257.279 170.729,259.289 170.769 C 261.848 170.821,263.072 171.009,263.372 171.395 C 263.675 171.786,264.633 171.925,266.658 171.873 C 269.174 171.809,269.500 171.883,269.383 172.492 C 269.309 172.872,269.373 173.166,269.525 173.144 C 271.577 172.852,275.600 173.287,275.600 173.800 C 275.600 174.291,276.289 174.400,279.400 174.400 C 282.462 174.400,283.200 174.513,283.200 174.983 C 283.200 175.434,283.904 175.593,286.300 175.683 C 288.519 175.767,289.372 175.942,289.300 176.300 C 289.222 176.690,291.573 176.800,300.000 176.800 C 308.427 176.800,310.778 176.690,310.700 176.300 C 310.636 175.981,311.252 175.728,312.400 175.600 C 313.548 175.472,314.164 175.219,314.100 174.900 C 314.015 174.475,315.347 174.171,316.500 174.353 C 316.665 174.379,316.800 174.130,316.800 173.800 C 316.800 173.286,317.797 172.978,318.900 173.153 C 319.065 173.179,319.200 172.930,319.200 172.600 C 319.200 172.086,320.413 171.765,321.675 171.944 C 321.827 171.966,321.891 171.670,321.817 171.287 C 321.709 170.727,321.946 170.602,323.027 170.653 C 323.767 170.688,324.357 170.600,324.339 170.458 C 324.234 169.650,324.470 169.200,325.000 169.200 C 325.330 169.200,325.600 168.930,325.600 168.600 C 325.600 168.270,325.870 168.000,326.200 168.000 C 326.530 168.000,326.800 167.730,326.800 167.400 C 326.800 167.070,327.070 166.800,327.400 166.800 C 327.730 166.800,328.000 166.530,328.000 166.200 C 328.000 165.870,328.270 165.600,328.600 165.600 C 328.930 165.600,329.200 165.330,329.200 165.000 C 329.200 164.451,329.688 164.216,330.530 164.363 C 330.711 164.394,330.738 164.223,330.589 163.983 C 330.437 163.736,330.683 163.451,331.155 163.328 C 331.615 163.207,331.905 162.970,331.800 162.800 C 331.695 162.630,331.877 162.268,332.204 161.996 C 332.532 161.724,332.811 161.659,332.825 161.851 C 332.839 162.043,333.018 161.783,333.222 161.274 C 333.426 160.765,333.779 160.464,334.007 160.604 C 334.234 160.745,334.394 160.711,334.363 160.530 C 334.148 159.296,334.475 158.000,335.000 158.000 C 335.330 158.000,335.600 157.749,335.600 157.443 C 335.600 157.136,335.870 156.782,336.200 156.655 C 336.530 156.529,336.800 155.989,336.800 155.455 C 336.800 154.922,337.059 154.386,337.376 154.265 C 337.723 154.131,338.001 153.359,338.076 152.322 C 338.156 151.207,338.376 150.635,338.700 150.700 C 339.047 150.769,339.200 150.187,339.200 148.800 C 339.200 147.105,339.315 146.800,339.956 146.800 C 340.653 146.800,340.717 146.416,340.776 141.905 C 340.821 138.384,340.983 136.929,341.354 136.722 C 341.970 136.377,341.929 134.850,341.293 134.457 C 341.011 134.283,340.816 132.575,340.773 129.905 C 340.736 127.555,340.591 125.646,340.452 125.663 C 339.374 125.798,339.200 125.456,339.200 123.200 C 339.200 121.333,339.067 120.800,338.600 120.800 C 338.182 120.800,338.000 120.379,338.000 119.413 C 338.000 118.344,337.862 118.078,337.400 118.255 C 336.935 118.434,336.800 118.161,336.800 117.043 C 336.800 116.102,336.626 115.635,336.300 115.700 C 336.001 115.760,335.750 115.278,335.675 114.500 C 335.606 113.785,335.381 113.200,335.175 113.200 C 334.417 113.200,333.211 111.580,333.125 110.446 C 333.059 109.580,332.857 109.312,332.346 109.410 C 331.858 109.504,331.699 109.326,331.800 108.800 C 331.905 108.256,331.744 108.095,331.200 108.200 C 330.650 108.306,330.495 108.144,330.604 107.580 C 330.685 107.160,330.627 106.834,330.475 106.856 C 329.661 106.971,329.200 106.734,329.200 106.200 C 329.200 105.870,328.930 105.600,328.600 105.600 C 328.270 105.600,328.000 105.330,328.000 105.000 C 328.000 104.670,327.749 104.400,327.443 104.400 C 327.136 104.400,326.782 104.130,326.655 103.800 C 326.529 103.470,326.069 103.200,325.633 103.200 C 324.838 103.200,322.371 101.246,323.042 101.147 C 323.239 101.118,322.770 100.983,322.000 100.847 C 321.132 100.694,320.600 100.372,320.600 100.000 C 320.600 99.414,320.453 99.353,318.800 99.250 C 318.360 99.223,318.000 98.919,318.000 98.576 C 318.000 98.233,317.835 98.055,317.634 98.179 C 317.135 98.487,315.101 97.683,315.352 97.278 C 315.462 97.099,314.800 96.909,313.880 96.855 C 312.925 96.799,312.069 96.508,311.884 96.178 C 311.647 95.755,310.763 95.600,308.580 95.600 C 306.198 95.600,305.600 95.480,305.600 95.000 C 305.600 94.517,304.978 94.400,302.400 94.400 C 299.822 94.400,299.200 94.283,299.200 93.800 C 299.200 93.308,298.506 93.200,295.357 93.200 C 292.106 93.200,291.550 93.108,291.745 92.600 C 291.937 92.098,291.456 92.000,288.787 92.000 C 286.221 92.000,285.600 91.883,285.600 91.400 C 285.600 90.909,284.911 90.800,281.800 90.800 C 278.317 90.800,278.000 90.736,278.000 90.031 C 278.000 89.331,277.715 89.268,274.842 89.331 C 272.043 89.392,271.699 89.321,271.817 88.708 C 271.891 88.328,271.827 88.034,271.675 88.056 C 269.645 88.344,264.400 87.911,264.400 87.454 C 264.400 87.047,263.622 86.891,261.332 86.838 C 259.207 86.788,258.131 86.591,257.832 86.195 C 257.530 85.795,256.375 85.589,254.000 85.511 C 251.761 85.438,250.628 85.247,250.683 84.952 C 250.738 84.653,249.548 84.480,247.086 84.430 C 244.353 84.375,243.324 84.207,243.084 83.778 C 242.906 83.460,242.319 83.200,241.780 83.200 L 240.800 83.200 240.750 56.800 C 240.693 26.561,240.770 29.400,240.000 29.400 C 239.568 29.400,239.366 28.868,239.278 27.500 C 239.192 26.166,238.984 25.600,238.578 25.600 C 238.160 25.600,238.000 25.103,238.000 23.800 C 238.000 22.467,237.844 22.000,237.400 22.000 C 236.979 22.000,236.800 21.575,236.800 20.576 C 236.800 19.793,236.632 19.256,236.428 19.383 C 235.948 19.679,235.618 19.132,235.514 17.865 C 235.468 17.311,235.276 16.953,235.088 17.069 C 234.900 17.185,234.652 16.919,234.536 16.477 C 234.421 16.035,233.965 15.579,233.523 15.464 C 233.015 15.331,232.831 15.074,233.022 14.765 C 233.215 14.452,233.157 14.379,232.861 14.562 C 232.370 14.866,231.437 12.987,231.793 12.412 C 231.902 12.235,231.615 11.993,231.155 11.872 C 230.696 11.752,230.438 11.462,230.583 11.227 C 230.738 10.977,230.505 10.800,230.024 10.800 C 229.459 10.800,229.200 10.541,229.200 9.976 C 229.200 9.495,229.023 9.262,228.773 9.417 C 228.538 9.562,228.248 9.304,228.128 8.845 C 228.007 8.385,227.765 8.098,227.588 8.207 C 227.013 8.563,225.134 7.630,225.438 7.139 C 225.621 6.843,225.548 6.785,225.235 6.978 C 224.926 7.169,224.669 6.985,224.536 6.477 C 224.421 6.035,223.965 5.579,223.523 5.464 C 223.081 5.348,222.815 5.100,222.931 4.912 C 223.047 4.724,222.689 4.532,222.135 4.486 C 220.868 4.382,220.321 4.052,220.617 3.572 C 220.744 3.368,220.207 3.200,219.424 3.200 C 218.425 3.200,218.000 3.021,218.000 2.600 C 218.000 2.156,217.533 2.000,216.200 2.000 C 214.867 2.000,214.400 1.844,214.400 1.400 C 214.400 0.956,213.933 0.800,212.600 0.800 C 211.610 0.800,210.800 0.620,210.800 0.400 C 210.800 0.143,206.933 0.000,200.000 0.000 C 193.067 0.000,189.200 0.143,189.200 0.400 " stroke="none" fill="#4c5c8c" fill-rule="evenodd"></path><path id="path1" d="" stroke="none" fill="#505c8c" fill-rule="evenodd"></path><path id="path2" d="" stroke="none" fill="#505c8c" fill-rule="evenodd"></path><path id="path3" d="" stroke="none" fill="#505c8c" fill-rule="evenodd"></path><path id="path4" d="" stroke="none" fill="#505c8c" fill-rule="evenodd"></path></g></svg>