 <svg  version="1.0" xmlns="http://www.w3.org/2000/svg"  width="300.000000pt" height="267.000000pt" viewBox="0 0 300.000000 267.000000"  preserveAspectRatio="xMidYMid meet">  <g transform="translate(0.000000,267.000000) scale(0.100000,-0.100000)" fill="#325096" stroke="none"> <path d="M2080 2478 c-18 -13 -43 -36 -54 -51 -20 -27 -21 -42 -24 -313 l-3 -284 -277 0 c-259 0 -279 -1 -310 -20 -18 -11 -41 -34 -52 -52 -19 -31 -20 -51 -20 -310 l0 -277 -284 -3 c-271 -3 -286 -4 -313 -24 -15 -11 -38 -36 -50 -54 -23 -32 -23 -39 -23 -311 l0 -278 -284 -3 c-269 -3 -286 -4 -312 -24 -54 -40 -69 -70 -69 -139 0 -71 17 -103 75 -142 33 -23 35 -23 420 -23 385 0 387 0 420 23 18 12 43 35 54 50 20 27 21 42 24 313 l3 284 278 0 c272 0 279 0 311 23 70 46 71 54 70 361 l-1 275 285 3 c271 3 286 4 313 24 15 11 38 36 51 54 22 32 22 39 22 311 l0 278 284 3 c269 3 286 4 312 24 54 40 69 70 69 139 0 71 -17 103 -75 143 -33 22 -35 22 -420 22 -385 0 -387 0 -420 -22z"/> </g> </svg> 