<svg id="svg" version="1.1" xmlns="http://www.w3.org/2000/svg" xmlns:xlink="http://www.w3.org/1999/xlink" width="400" height="355.55555555555554" viewBox="0, 0, 400,355.55555555555554"><g id="svgg"><path id="path0" d="M283.022 22.440 C 283.022 22.678,282.596 22.774,281.956 22.680 C 281.192 22.568,280.889 22.669,280.889 23.035 C 280.889 23.402,280.586 23.503,279.822 23.391 C 279.236 23.305,278.756 23.347,278.756 23.485 C 278.756 23.738,276.823 24.644,276.453 24.564 C 276.105 24.488,274.576 26.122,274.735 26.400 C 274.818 26.547,274.668 26.667,274.402 26.667 C 273.779 26.667,271.289 28.937,271.289 29.505 C 271.289 29.743,270.809 30.385,270.222 30.933 C 269.636 31.481,269.156 32.186,269.156 32.498 C 269.156 32.811,268.996 33.067,268.800 33.067 C 268.604 33.067,268.444 33.387,268.444 33.778 C 268.444 34.169,268.284 34.489,268.089 34.489 C 267.893 34.489,267.733 34.969,267.733 35.556 C 267.733 36.142,267.573 36.622,267.378 36.622 C 267.182 36.622,267.022 37.013,267.022 37.490 C 267.022 37.967,266.862 38.457,266.667 38.578 C 266.433 38.722,266.311 51.204,266.311 74.865 L 266.311 110.933 230.222 110.933 C 203.948 110.933,194.133 111.041,194.133 111.329 C 194.133 111.567,193.707 111.663,193.067 111.569 C 192.303 111.456,192.000 111.557,192.000 111.924 C 192.000 112.291,191.697 112.392,190.933 112.280 C 190.347 112.194,189.867 112.236,189.867 112.374 C 189.867 112.654,187.830 113.568,187.648 113.370 C 187.442 113.147,185.689 115.013,185.846 115.289 C 185.929 115.436,185.779 115.556,185.513 115.556 C 184.890 115.556,182.400 117.826,182.400 118.394 C 182.400 118.632,181.920 119.274,181.333 119.822 C 180.747 120.370,180.267 121.074,180.267 121.387 C 180.267 121.700,180.107 121.956,179.911 121.956 C 179.716 121.956,179.556 122.276,179.556 122.667 C 179.556 123.058,179.396 123.378,179.200 123.378 C 179.004 123.378,178.844 123.858,178.844 124.444 C 178.844 125.031,178.684 125.511,178.489 125.511 C 178.293 125.511,178.133 125.902,178.133 126.379 C 178.133 126.856,177.973 127.346,177.778 127.467 C 177.545 127.611,177.422 140.093,177.422 163.754 L 177.422 199.822 141.333 199.822 C 115.059 199.822,105.244 199.930,105.244 200.218 C 105.244 200.456,104.818 200.551,104.178 200.457 C 103.414 200.345,103.111 200.446,103.111 200.813 C 103.111 201.180,102.808 201.281,102.044 201.169 C 101.458 201.082,100.978 201.125,100.978 201.263 C 100.978 201.543,98.941 202.457,98.759 202.259 C 98.553 202.035,96.800 203.902,96.957 204.178 C 97.040 204.324,96.890 204.444,96.624 204.444 C 96.001 204.444,93.511 206.715,93.511 207.283 C 93.511 207.520,93.031 208.163,92.444 208.711 C 91.858 209.259,91.378 209.963,91.378 210.276 C 91.378 210.589,91.218 210.844,91.022 210.844 C 90.827 210.844,90.667 211.164,90.667 211.556 C 90.667 211.947,90.507 212.267,90.311 212.267 C 90.116 212.267,89.956 212.747,89.956 213.333 C 89.956 213.920,89.796 214.400,89.600 214.400 C 89.404 214.400,89.244 214.791,89.244 215.268 C 89.244 215.745,89.084 216.235,88.889 216.356 C 88.656 216.500,88.533 228.981,88.533 252.643 L 88.533 288.711 52.444 288.711 C 26.170 288.711,16.356 288.819,16.356 289.107 C 16.356 289.345,15.929 289.440,15.289 289.346 C 14.525 289.234,14.222 289.335,14.222 289.702 C 14.222 290.069,13.919 290.170,13.156 290.057 C 12.569 289.971,12.089 290.014,12.089 290.152 C 12.089 290.431,10.053 291.346,9.870 291.148 C 9.665 290.924,7.911 292.791,8.068 293.067 C 8.151 293.213,8.002 293.333,7.735 293.333 C 7.112 293.333,4.622 295.604,4.622 296.172 C 4.622 296.409,4.142 297.052,3.556 297.600 C 2.969 298.148,2.489 298.852,2.489 299.165 C 2.489 299.478,2.329 299.733,2.133 299.733 C 1.938 299.733,1.778 300.053,1.778 300.444 C 1.778 300.836,1.618 301.156,1.422 301.156 C 1.227 301.156,1.067 301.622,1.067 302.193 C 1.067 302.763,0.867 303.296,0.622 303.378 C -0.021 303.592,-0.021 318.630,0.622 318.844 C 0.867 318.926,1.067 319.459,1.067 320.030 C 1.067 320.600,1.227 321.067,1.422 321.067 C 1.618 321.067,1.778 321.387,1.778 321.778 C 1.778 322.169,1.938 322.489,2.133 322.489 C 2.329 322.489,2.489 322.745,2.489 323.057 C 2.489 323.370,2.969 324.074,3.556 324.622 C 4.142 325.170,4.622 325.813,4.622 326.050 C 4.622 326.618,7.112 328.889,7.735 328.889 C 8.002 328.889,8.151 329.009,8.068 329.156 C 7.908 329.436,9.221 330.844,9.704 330.910 C 10.362 331.000,12.089 331.840,12.089 332.070 C 12.089 332.208,12.569 332.251,13.156 332.165 C 13.919 332.053,14.222 332.154,14.222 332.520 C 14.222 332.887,14.525 332.988,15.289 332.876 C 15.929 332.782,16.356 332.878,16.356 333.115 C 16.356 333.404,29.944 333.511,66.667 333.511 C 103.389 333.511,116.978 333.404,116.978 333.115 C 116.978 332.878,117.404 332.782,118.044 332.876 C 118.808 332.988,119.111 332.887,119.111 332.520 C 119.111 332.154,119.414 332.053,120.178 332.165 C 120.764 332.251,121.244 332.208,121.244 332.070 C 121.244 331.791,123.281 330.876,123.463 331.074 C 123.669 331.298,125.422 329.431,125.265 329.156 C 125.182 329.009,125.332 328.889,125.598 328.889 C 126.221 328.889,128.711 326.618,128.711 326.050 C 128.711 325.813,129.191 325.170,129.778 324.622 C 130.364 324.074,130.844 323.370,130.844 323.057 C 130.844 322.745,131.004 322.489,131.200 322.489 C 131.396 322.489,131.556 322.169,131.556 321.778 C 131.556 321.387,131.716 321.067,131.911 321.067 C 132.107 321.067,132.267 320.587,132.267 320.000 C 132.267 319.413,132.427 318.933,132.622 318.933 C 132.818 318.933,132.978 318.543,132.978 318.065 C 132.978 317.588,133.138 317.099,133.333 316.978 C 133.567 316.834,133.689 304.352,133.689 280.690 L 133.689 244.622 169.778 244.622 C 196.052 244.622,205.867 244.515,205.867 244.226 C 205.867 243.989,206.293 243.893,206.933 243.987 C 207.697 244.099,208.000 243.998,208.000 243.631 C 208.000 243.265,208.303 243.164,209.067 243.276 C 209.653 243.362,210.133 243.320,210.133 243.182 C 210.133 242.902,212.170 241.987,212.352 242.185 C 212.558 242.409,214.311 240.542,214.154 240.267 C 214.071 240.120,214.221 240.000,214.487 240.000 C 215.110 240.000,217.600 237.729,217.600 237.161 C 217.600 236.924,218.080 236.281,218.667 235.733 C 219.253 235.185,219.733 234.481,219.733 234.168 C 219.733 233.856,219.893 233.600,220.089 233.600 C 220.284 233.600,220.444 233.280,220.444 232.889 C 220.444 232.498,220.604 232.178,220.800 232.178 C 220.996 232.178,221.156 231.698,221.156 231.111 C 221.156 230.524,221.316 230.044,221.511 230.044 C 221.707 230.044,221.867 229.654,221.867 229.177 C 221.867 228.699,222.027 228.210,222.222 228.089 C 222.455 227.945,222.578 215.463,222.578 191.801 L 222.578 155.733 258.667 155.733 C 284.941 155.733,294.756 155.626,294.756 155.337 C 294.756 155.100,295.182 155.004,295.822 155.098 C 296.586 155.210,296.889 155.109,296.889 154.743 C 296.889 154.376,297.192 154.275,297.956 154.387 C 298.542 154.473,299.022 154.431,299.022 154.293 C 299.022 154.040,300.955 153.134,301.324 153.214 C 301.673 153.289,303.202 151.656,303.043 151.378 C 302.960 151.231,303.110 151.111,303.376 151.111 C 303.999 151.111,306.489 148.840,306.489 148.272 C 306.489 148.035,306.969 147.392,307.556 146.844 C 308.142 146.296,308.622 145.592,308.622 145.280 C 308.622 144.967,308.782 144.711,308.978 144.711 C 309.173 144.711,309.333 144.391,309.333 144.000 C 309.333 143.609,309.493 143.289,309.689 143.289 C 309.884 143.289,310.044 142.809,310.044 142.222 C 310.044 141.636,310.204 141.156,310.400 141.156 C 310.596 141.156,310.756 140.765,310.756 140.288 C 310.756 139.810,310.916 139.321,311.111 139.200 C 311.344 139.056,311.467 126.574,311.467 102.912 L 311.467 66.844 347.556 66.844 C 373.830 66.844,383.644 66.737,383.644 66.449 C 383.644 66.211,384.071 66.115,384.711 66.209 C 385.475 66.321,385.778 66.220,385.778 65.854 C 385.778 65.487,386.081 65.386,386.844 65.498 C 387.431 65.584,387.911 65.542,387.911 65.404 C 387.911 65.151,389.844 64.245,390.213 64.325 C 390.561 64.401,392.091 62.767,391.932 62.489 C 391.849 62.342,391.998 62.222,392.265 62.222 C 392.888 62.222,395.378 59.951,395.378 59.384 C 395.378 59.146,395.858 58.504,396.444 57.956 C 397.031 57.408,397.511 56.703,397.511 56.391 C 397.511 56.078,397.671 55.822,397.867 55.822 C 398.062 55.822,398.222 55.502,398.222 55.111 C 398.222 54.720,398.382 54.400,398.578 54.400 C 398.773 54.400,398.933 53.933,398.933 53.363 C 398.933 52.793,399.133 52.259,399.378 52.178 C 399.715 52.065,399.822 50.197,399.822 44.444 C 399.822 38.692,399.715 36.823,399.378 36.711 C 399.133 36.630,398.933 36.096,398.933 35.526 C 398.933 34.956,398.773 34.489,398.578 34.489 C 398.382 34.489,398.222 34.169,398.222 33.778 C 398.222 33.387,398.062 33.067,397.867 33.067 C 397.671 33.067,397.511 32.811,397.511 32.498 C 397.511 32.186,397.031 31.481,396.444 30.933 C 395.858 30.385,395.378 29.743,395.378 29.505 C 395.378 28.937,392.888 26.667,392.265 26.667 C 391.998 26.667,391.849 26.547,391.932 26.400 C 392.089 26.124,390.335 24.258,390.130 24.481 C 389.947 24.679,387.911 23.765,387.911 23.485 C 387.911 23.347,387.431 23.305,386.844 23.391 C 386.081 23.503,385.778 23.402,385.778 23.035 C 385.778 22.669,385.475 22.568,384.711 22.680 C 384.071 22.774,383.644 22.678,383.644 22.440 C 383.644 22.151,370.056 22.044,333.333 22.044 C 296.611 22.044,283.022 22.151,283.022 22.440 " stroke="none" fill="#4c5c8c" fill-rule="evenodd"></path><path id="path1" d="" stroke="none" fill="#505c8c" fill-rule="evenodd"></path><path id="path2" d="" stroke="none" fill="#505c8c" fill-rule="evenodd"></path><path id="path3" d="" stroke="none" fill="#505c8c" fill-rule="evenodd"></path><path id="path4" d="" stroke="none" fill="#505c8c" fill-rule="evenodd"></path></g></svg>