 <svg  version="1.0" xmlns="http://www.w3.org/2000/svg"  width="288.000000pt" height="246.000000pt" viewBox="0 0 288.000000 246.000000"  preserveAspectRatio="xMidYMid meet">  <g transform="translate(0.000000,246.000000) scale(0.100000,-0.100000)" fill="#325096" stroke="none"> <path d="M1835 2332 c-11 -2 -24 -8 -29 -13 -6 -5 -26 -9 -45 -9 -20 -1 -47 -7 -61 -15 -14 -8 -46 -14 -71 -15 -32 0 -49 -5 -53 -15 -3 -8 -17 -15 -32 -15 -17 0 -28 -6 -31 -20 -3 -11 -14 -20 -25 -20 -12 0 -17 4 -12 12 5 8 2 9 -10 5 -10 -4 -20 -7 -22 -7 -2 0 -4 -7 -4 -15 0 -8 -8 -15 -17 -16 -15 0 -15 -2 2 -8 18 -8 14 -15 -42 -68 -35 -33 -63 -66 -63 -74 0 -20 -20 -39 -42 -39 -14 0 -18 -7 -16 -31 2 -23 -3 -35 -21 -47 -23 -16 -24 -16 -16 8 8 25 7 25 -13 6 -12 -10 -27 -16 -35 -13 -8 3 -27 -6 -42 -19 -16 -13 -52 -35 -82 -49 -54 -26 -56 -30 -54 -95 6 -126 30 -169 98 -170 31 0 134 52 142 72 5 14 41 -23 41 -43 0 -9 16 -41 35 -70 37 -54 39 -79 8 -79 -10 0 -27 -7 -37 -15 -22 -17 -56 -20 -56 -5 0 5 10 15 22 21 20 11 20 13 5 24 -13 9 -15 20 -10 46 l6 34 -26 -18 c-14 -9 -33 -17 -41 -17 -8 0 -25 -10 -36 -22 -17 -18 -20 -31 -15 -58 3 -19 6 -45 6 -57 1 -13 7 -23 14 -23 10 0 11 -8 6 -27 -5 -20 -14 -28 -32 -29 -23 -1 -76 -9 -127 -20 -15 -3 -29 -17 -37 -38 -17 -41 -72 -90 -118 -105 -24 -8 -37 -20 -41 -37 -4 -15 -19 -31 -39 -40 -18 -8 -40 -20 -49 -27 -14 -9 -22 -9 -38 1 -34 21 -47 15 -42 -18 l4 -29 -67 1 c-49 1 -71 -3 -82 -15 -13 -13 -14 -19 -3 -31 7 -9 23 -16 36 -16 12 0 26 -4 29 -10 3 -5 15 -10 26 -10 12 0 23 -10 29 -26 6 -14 17 -33 26 -42 13 -13 15 -29 11 -85 -9 -103 -14 -107 -150 -100 -62 3 -128 9 -147 14 -27 7 -43 4 -76 -12 l-42 -20 5 -78 c5 -66 2 -86 -15 -123 -32 -67 -34 -84 -17 -102 11 -11 15 -29 13 -54 l-3 -37 56 3 c55 4 56 3 77 -32 23 -40 37 -44 63 -20 10 9 50 21 91 27 70 12 86 20 137 71 55 56 61 65 51 71 -36 22 29 122 99 151 54 23 82 53 75 81 -4 13 -1 30 6 38 15 18 71 19 116 3 30 -10 37 -9 71 15 22 15 44 27 50 27 6 0 16 7 23 15 31 37 102 1 104 -52 0 -17 4 -29 8 -27 4 3 27 -13 50 -36 24 -22 66 -52 95 -65 62 -30 153 -114 153 -142 0 -42 -24 -57 -96 -61 -91 -4 -100 -8 -83 -28 18 -22 111 -65 126 -60 7 3 13 21 13 40 0 30 3 35 27 38 16 2 32 12 38 24 6 12 17 29 24 38 12 14 11 19 -4 36 -35 39 16 71 56 34 9 -8 20 -11 23 -6 9 15 -17 42 -69 71 -28 15 -49 33 -48 39 2 7 -14 15 -37 18 -41 7 -90 50 -90 79 0 7 -16 23 -35 35 -19 12 -36 25 -36 28 -6 31 -4 69 4 80 11 14 61 17 53 3 -9 -14 4 -41 20 -41 8 0 14 -5 14 -12 0 -9 3 -9 12 0 10 10 15 6 24 -20 10 -30 45 -60 87 -74 9 -4 17 -10 17 -14 0 -4 10 -10 23 -14 12 -3 43 -19 70 -35 46 -30 47 -31 41 -71 -5 -31 -3 -45 10 -59 9 -10 16 -23 14 -28 -2 -5 16 -26 40 -48 23 -22 42 -43 42 -47 0 -13 -28 -9 -33 5 -2 6 -8 9 -12 5 -11 -11 12 -43 32 -43 12 0 21 -11 28 -33 6 -21 16 -32 30 -34 11 0 26 -2 33 -2 7 -1 18 -8 23 -16 8 -11 9 -9 5 12 -3 14 -9 33 -12 41 -4 12 0 14 16 10 14 -4 20 -1 18 8 -2 8 3 13 10 11 6 -1 12 5 12 13 0 9 6 12 16 8 15 -5 15 -4 -1 20 -9 15 -22 24 -30 20 -9 -3 -16 4 -20 20 -4 14 -15 33 -26 43 -10 9 -19 26 -19 37 0 18 1 19 25 3 22 -15 28 -15 46 -2 13 9 17 16 10 21 -15 9 -2 28 14 21 7 -2 17 0 23 6 8 8 23 6 53 -7 39 -18 43 -18 71 -2 16 9 38 17 48 17 32 0 31 17 -1 50 -26 26 -30 36 -25 63 4 17 13 35 21 40 8 4 15 19 15 33 0 14 9 37 19 50 11 13 29 55 40 94 35 115 72 146 220 184 99 26 136 44 186 88 35 30 35 31 18 50 -10 11 -27 44 -38 73 -15 40 -32 62 -65 87 -53 40 -95 98 -111 153 -6 22 -17 58 -25 80 -7 22 -15 71 -19 109 -7 84 -31 189 -52 230 -9 17 -31 48 -48 69 -20 23 -31 45 -28 56 3 13 -4 22 -26 31 -17 7 -31 16 -31 21 0 11 -11 12 90 -6 47 -8 103 -15 125 -15 40 0 105 31 105 50 0 18 -38 48 -72 59 -18 5 -64 21 -101 35 -38 14 -92 28 -120 32 -29 4 -64 13 -79 20 -15 8 -51 14 -79 14 -47 0 -51 1 -34 14 17 12 16 14 -16 24 -48 15 -82 18 -98 7 -10 -5 -16 -4 -19 4 -3 9 -7 9 -19 0 -9 -8 -17 -9 -21 -3 -10 14 -33 21 -57 16z m-225 -82 c0 -5 -2 -10 -4 -10 -3 0 -8 5 -11 10 -3 6 -1 10 4 10 6 0 11 -4 11 -10z m-73 -17 c-4 -3 -10 -3 -14 0 -3 4 0 7 7 7 7 0 10 -3 7 -7z m-50 -60 c-4 -3 -7 0 -7 7 0 7 3 10 7 7 3 -4 3 -10 0 -14z m398 -152 c12 -21 -106 -121 -143 -121 -19 0 -19 -4 -6 -114 7 -54 14 -65 57 -83 27 -13 66 -8 168 18 52 13 92 11 115 -6 19 -14 19 -14 -1 -15 -12 0 -26 -5 -32 -11 -7 -7 -41 -11 -85 -10 -74 1 -125 -14 -121 -37 4 -15 -10 -15 -25 0 -9 9 -15 8 -27 -8 -29 -39 -8 -59 34 -32 15 9 25 9 45 0 27 -12 33 -36 16 -62 -10 -16 -7 -17 -70 22 -17 11 -23 9 -42 -10 -18 -18 -23 -35 -25 -84 -1 -49 -5 -62 -18 -64 -9 -1 -25 -10 -34 -18 -20 -18 -51 -21 -51 -6 0 15 -71 12 -104 -5 -16 -9 -47 -20 -69 -24 -33 -8 -42 -6 -60 12 -20 20 -21 20 -70 3 -61 -22 -70 -15 -23 16 20 14 33 28 30 31 -4 3 -4 14 0 23 6 15 8 16 24 0 26 -22 45 -20 72 9 13 14 34 25 46 25 13 0 26 5 29 10 4 6 11 8 16 5 5 -4 14 6 19 20 13 34 13 38 -2 29 -8 -5 -9 2 -5 26 4 18 7 38 7 45 0 7 14 18 31 24 68 24 76 70 18 107 -39 24 -41 27 -34 62 8 44 47 89 95 109 48 21 70 42 70 69 0 34 36 54 97 54 28 0 54 -4 58 -9z m-595 -617 c0 -8 -4 -12 -10 -9 -5 3 -10 10 -10 16 0 5 5 9 10 9 6 0 10 -7 10 -16z m-20 -24 c0 -13 -20 -13 -40 0 -12 8 -9 10 13 10 15 0 27 -4 27 -10z"/> <path d="M1360 2170 c-13 -9 -13 -10 0 -10 8 0 22 5 30 10 13 9 13 10 0 10 -8 0 -22 -5 -30 -10z"/> <path d="M602 1640 c-7 -12 -23 -20 -40 -20 -36 -1 -121 -78 -100 -92 10 -7 10 -11 1 -15 -7 -2 -13 -11 -13 -19 0 -8 6 -14 13 -14 7 -1 5 -6 -5 -14 -21 -16 -24 -30 -4 -23 15 6 47 -27 43 -46 -1 -7 9 -12 26 -12 32 0 57 -27 57 -62 0 -18 -5 -23 -28 -23 -16 0 -32 -8 -40 -20 -10 -17 -10 -20 3 -20 25 0 17 -20 -15 -38 -16 -9 -30 -20 -30 -23 0 -4 18 -9 40 -13 37 -6 57 -26 26 -26 -8 0 -34 -16 -58 -37 -41 -35 -42 -36 -13 -28 17 4 41 9 54 11 13 1 28 7 34 13 6 6 43 11 82 11 91 0 149 16 141 37 -4 10 3 26 16 40 27 29 16 56 -25 61 -20 2 -26 10 -31 37 -4 20 -19 44 -35 57 -15 13 -33 38 -41 56 -7 17 -15 32 -19 32 -3 0 -12 4 -19 9 -11 6 -8 16 12 46 14 20 23 41 20 46 -3 5 -23 9 -44 9 -43 0 -61 15 -31 25 23 7 67 75 48 75 -7 0 -18 -9 -25 -20z"/> <path d="M346 1404 c-9 -8 -16 -22 -16 -29 0 -9 -14 -15 -37 -17 -30 -2 -37 -7 -38 -26 -1 -13 4 -26 12 -29 20 -8 16 -24 -12 -53 -52 -54 -1 -78 84 -40 24 11 52 20 62 20 23 0 39 29 39 71 0 20 9 42 23 57 l22 24 -24 19 c-29 23 -93 25 -115 3z"/> <path d="M1167 633 c-19 -5 -19 -4 -5 -88 2 -14 -3 -21 -18 -23 -18 -3 -20 -8 -16 -65 2 -34 6 -64 8 -66 1 -1 15 1 31 6 25 9 28 15 31 62 2 29 -2 59 -8 66 -7 8 -8 32 -4 64 4 28 5 50 3 50 -2 -1 -12 -3 -22 -6z"/> <path d="M2010 311 c0 -5 5 -13 10 -16 6 -3 10 -2 10 4 0 5 -4 13 -10 16 -5 3 -10 2 -10 -4z"/> </g> </svg> 