<svg id="svg" version="1.1" xmlns="http://www.w3.org/2000/svg" xmlns:xlink="http://www.w3.org/1999/xlink" width="400" height="533.3333333333334" viewBox="0, 0, 400,533.3333333333334"><g id="svgg"><path id="path0" d="M51.824 0.380 C 50.738 0.531,49.778 0.867,49.691 1.127 C 49.596 1.413,48.679 1.600,47.367 1.600 C 45.847 1.600,45.230 1.749,45.300 2.100 C 45.365 2.423,44.796 2.644,43.691 2.723 C 42.751 2.791,42.086 3.016,42.214 3.223 C 42.342 3.431,41.886 3.600,41.200 3.600 C 40.465 3.600,40.055 3.765,40.202 4.003 C 40.339 4.224,40.124 4.508,39.725 4.632 C 39.326 4.757,38.687 5.025,38.305 5.229 C 37.923 5.433,37.248 5.600,36.805 5.600 C 36.362 5.600,36.045 5.825,36.100 6.100 C 36.156 6.381,35.719 6.655,35.100 6.727 C 34.470 6.799,34.000 7.098,34.000 7.427 C 34.000 7.772,33.602 8.000,33.000 8.000 C 32.450 8.000,32.000 8.180,32.000 8.400 C 32.000 8.620,31.460 8.800,30.800 8.800 C 30.000 8.800,29.600 9.000,29.600 9.400 C 29.600 9.730,29.420 10.000,29.200 10.000 C 28.980 10.000,28.800 10.293,28.800 10.650 C 28.800 11.159,28.539 11.248,27.600 11.060 C 26.701 10.880,26.400 10.968,26.400 11.410 C 26.400 11.735,26.220 12.000,26.000 12.000 C 25.780 12.000,25.600 12.270,25.600 12.600 C 25.600 12.930,25.319 13.200,24.976 13.200 C 24.633 13.200,24.464 13.380,24.600 13.600 C 24.810 13.940,23.691 14.204,22.700 14.047 C 22.535 14.021,22.400 14.180,22.400 14.400 C 22.400 14.958,20.918 16.385,20.633 16.100 C 20.505 15.972,20.400 16.167,20.400 16.533 C 20.400 16.900,20.130 17.200,19.800 17.200 C 19.470 17.200,19.200 17.378,19.200 17.595 C 19.200 18.210,17.896 19.583,17.529 19.356 C 17.348 19.244,17.200 19.433,17.200 19.776 C 17.200 20.119,16.930 20.400,16.600 20.400 C 16.270 20.400,16.000 20.681,16.000 21.024 C 16.000 21.367,15.820 21.536,15.600 21.400 C 15.380 21.264,15.200 21.433,15.200 21.776 C 15.200 22.119,14.968 22.400,14.685 22.400 C 14.402 22.400,14.140 22.802,14.103 23.294 C 14.066 23.786,13.848 24.251,13.618 24.327 C 13.388 24.404,13.200 24.722,13.200 25.033 C 13.200 25.345,12.930 25.600,12.600 25.600 C 12.270 25.600,12.000 25.864,12.000 26.187 C 12.000 26.511,11.775 26.689,11.500 26.583 C 11.191 26.465,10.978 26.769,10.943 27.381 C 10.884 28.413,9.967 29.600,9.229 29.600 C 8.993 29.600,8.800 30.039,8.800 30.576 C 8.800 31.113,8.620 31.664,8.400 31.800 C 8.180 31.936,8.000 32.487,8.000 33.024 C 8.000 33.625,7.769 34.000,7.400 34.000 C 7.027 34.000,6.800 34.378,6.800 35.000 C 6.800 35.622,6.573 36.000,6.200 36.000 C 5.827 36.000,5.600 36.378,5.600 37.000 C 5.600 37.550,5.420 38.000,5.200 38.000 C 4.980 38.000,4.800 38.450,4.800 39.000 C 4.800 39.622,4.573 40.000,4.200 40.000 C 3.831 40.000,3.600 40.375,3.600 40.976 C 3.600 41.513,3.420 42.064,3.200 42.200 C 2.980 42.336,2.800 43.047,2.800 43.781 C 2.800 44.597,2.567 45.204,2.200 45.345 C 1.779 45.506,1.600 46.164,1.600 47.554 C 1.600 48.694,1.404 49.599,1.138 49.687 C 0.118 50.027,0.058 61.896,0.058 266.600 C 0.058 471.304,0.118 483.173,1.138 483.513 C 1.404 483.601,1.600 484.506,1.600 485.646 C 1.600 487.036,1.779 487.694,2.200 487.855 C 2.567 487.996,2.800 488.603,2.800 489.419 C 2.800 490.153,2.980 490.864,3.200 491.000 C 3.420 491.136,3.600 491.687,3.600 492.224 C 3.600 492.825,3.831 493.200,4.200 493.200 C 4.573 493.200,4.800 493.578,4.800 494.200 C 4.800 494.750,4.980 495.200,5.200 495.200 C 5.420 495.200,5.600 495.650,5.600 496.200 C 5.600 496.822,5.827 497.200,6.200 497.200 C 6.573 497.200,6.800 497.578,6.800 498.200 C 6.800 498.822,7.027 499.200,7.400 499.200 C 7.769 499.200,8.000 499.575,8.000 500.176 C 8.000 500.713,8.180 501.264,8.400 501.400 C 8.620 501.536,8.800 502.087,8.800 502.624 C 8.800 503.161,8.993 503.600,9.229 503.600 C 9.967 503.600,10.884 504.787,10.943 505.819 C 10.978 506.431,11.191 506.735,11.500 506.617 C 11.775 506.511,12.000 506.689,12.000 507.013 C 12.000 507.336,12.270 507.600,12.600 507.600 C 12.930 507.600,13.200 507.855,13.200 508.167 C 13.200 508.478,13.388 508.796,13.618 508.873 C 13.848 508.949,14.066 509.414,14.103 509.906 C 14.140 510.398,14.402 510.800,14.685 510.800 C 14.968 510.800,15.200 511.081,15.200 511.424 C 15.200 511.767,15.380 511.936,15.600 511.800 C 15.820 511.664,16.000 511.833,16.000 512.176 C 16.000 512.519,16.270 512.800,16.600 512.800 C 16.930 512.800,17.200 513.081,17.200 513.424 C 17.200 513.767,17.348 513.956,17.529 513.844 C 17.896 513.617,19.200 514.990,19.200 515.605 C 19.200 515.822,19.470 516.000,19.800 516.000 C 20.130 516.000,20.400 516.300,20.400 516.667 C 20.400 517.033,20.505 517.228,20.633 517.100 C 20.918 516.815,22.400 518.242,22.400 518.800 C 22.400 519.020,22.535 519.179,22.700 519.153 C 23.691 518.996,24.810 519.260,24.600 519.600 C 24.464 519.820,24.633 520.000,24.976 520.000 C 25.319 520.000,25.600 520.270,25.600 520.600 C 25.600 520.930,25.780 521.200,26.000 521.200 C 26.220 521.200,26.400 521.466,26.400 521.790 C 26.400 522.232,26.701 522.320,27.600 522.140 C 28.539 521.952,28.800 522.041,28.800 522.550 C 28.800 522.908,28.980 523.200,29.200 523.200 C 29.420 523.200,29.600 523.470,29.600 523.800 C 29.600 524.200,30.000 524.400,30.800 524.400 C 31.460 524.400,32.000 524.580,32.000 524.800 C 32.000 525.020,32.450 525.200,33.000 525.200 C 33.602 525.200,34.000 525.428,34.000 525.773 C 34.000 526.102,34.470 526.401,35.100 526.473 C 35.719 526.545,36.156 526.819,36.100 527.100 C 36.045 527.375,36.362 527.600,36.805 527.600 C 37.248 527.600,37.923 527.767,38.305 527.971 C 38.687 528.175,39.326 528.443,39.725 528.568 C 40.124 528.692,40.339 528.976,40.202 529.197 C 40.055 529.435,40.465 529.600,41.200 529.600 C 41.886 529.600,42.342 529.769,42.214 529.977 C 42.086 530.184,42.751 530.409,43.691 530.477 C 44.796 530.556,45.365 530.777,45.300 531.100 C 45.230 531.451,45.847 531.600,47.367 531.600 C 48.691 531.600,49.595 531.786,49.693 532.078 C 50.027 533.082,59.653 533.151,200.000 533.151 C 340.347 533.151,349.973 533.082,350.307 532.078 C 350.405 531.786,351.309 531.600,352.633 531.600 C 354.153 531.600,354.770 531.451,354.700 531.100 C 354.635 530.777,355.204 530.556,356.309 530.477 C 357.249 530.409,357.914 530.184,357.786 529.977 C 357.658 529.769,358.114 529.600,358.800 529.600 C 359.535 529.600,359.945 529.435,359.798 529.197 C 359.661 528.976,359.876 528.692,360.275 528.568 C 360.674 528.443,361.313 528.175,361.695 527.971 C 362.077 527.767,362.752 527.600,363.195 527.600 C 363.638 527.600,363.955 527.375,363.900 527.100 C 363.844 526.819,364.281 526.545,364.900 526.473 C 365.530 526.401,366.000 526.102,366.000 525.773 C 366.000 525.428,366.398 525.200,367.000 525.200 C 367.550 525.200,368.000 525.020,368.000 524.800 C 368.000 524.580,368.540 524.400,369.200 524.400 C 370.000 524.400,370.400 524.200,370.400 523.800 C 370.400 523.470,370.580 523.200,370.800 523.200 C 371.020 523.200,371.200 522.908,371.200 522.550 C 371.200 522.041,371.461 521.952,372.400 522.140 C 373.299 522.320,373.600 522.232,373.600 521.790 C 373.600 521.466,373.780 521.200,374.000 521.200 C 374.220 521.200,374.400 520.930,374.400 520.600 C 374.400 520.270,374.681 520.000,375.024 520.000 C 375.367 520.000,375.536 519.820,375.400 519.600 C 375.190 519.260,376.309 518.996,377.300 519.153 C 377.465 519.179,377.600 519.020,377.600 518.800 C 377.600 518.242,379.082 516.815,379.367 517.100 C 379.495 517.228,379.600 517.033,379.600 516.667 C 379.600 516.300,379.870 516.000,380.200 516.000 C 380.530 516.000,380.800 515.822,380.800 515.605 C 380.800 514.990,382.104 513.617,382.471 513.844 C 382.652 513.956,382.800 513.767,382.800 513.424 C 382.800 513.081,383.070 512.800,383.400 512.800 C 383.730 512.800,384.000 512.519,384.000 512.176 C 384.000 511.833,384.180 511.664,384.400 511.800 C 384.620 511.936,384.800 511.767,384.800 511.424 C 384.800 511.081,385.032 510.800,385.315 510.800 C 385.598 510.800,385.860 510.398,385.897 509.906 C 385.934 509.414,386.152 508.949,386.382 508.873 C 386.612 508.796,386.800 508.478,386.800 508.167 C 386.800 507.855,387.070 507.600,387.400 507.600 C 387.730 507.600,388.000 507.336,388.000 507.013 C 388.000 506.689,388.225 506.511,388.500 506.617 C 388.809 506.735,389.022 506.431,389.057 505.819 C 389.116 504.787,390.033 503.600,390.771 503.600 C 391.007 503.600,391.200 503.161,391.200 502.624 C 391.200 502.087,391.380 501.536,391.600 501.400 C 391.820 501.264,392.000 500.713,392.000 500.176 C 392.000 499.575,392.231 499.200,392.600 499.200 C 392.973 499.200,393.200 498.822,393.200 498.200 C 393.200 497.578,393.427 497.200,393.800 497.200 C 394.173 497.200,394.400 496.822,394.400 496.200 C 394.400 495.650,394.580 495.200,394.800 495.200 C 395.020 495.200,395.200 494.750,395.200 494.200 C 395.200 493.578,395.427 493.200,395.800 493.200 C 396.169 493.200,396.400 492.825,396.400 492.224 C 396.400 491.687,396.580 491.136,396.800 491.000 C 397.020 490.864,397.200 490.153,397.200 489.419 C 397.200 488.603,397.433 487.996,397.800 487.855 C 398.221 487.694,398.400 487.036,398.400 485.646 C 398.400 484.506,398.596 483.601,398.862 483.513 C 399.876 483.175,399.943 473.466,399.971 322.500 L 400.000 166.000 333.600 166.000 C 289.600 166.000,267.200 165.865,267.200 165.600 C 267.200 165.361,265.652 165.200,263.357 165.200 C 260.106 165.200,259.550 165.108,259.745 164.600 C 259.932 164.112,259.568 164.000,257.787 164.000 C 256.270 164.000,255.600 163.842,255.600 163.485 C 255.600 163.202,255.211 162.941,254.736 162.905 C 254.261 162.869,253.766 162.669,253.636 162.460 C 253.506 162.252,252.950 162.013,252.400 161.931 C 251.842 161.847,251.449 161.551,251.510 161.261 C 251.570 160.975,251.473 160.831,251.294 160.942 C 250.787 161.255,248.400 159.964,248.400 159.377 C 248.400 159.089,247.905 158.796,247.300 158.727 C 246.620 158.648,246.244 158.390,246.316 158.051 C 246.387 157.720,246.208 157.588,245.867 157.719 C 245.532 157.848,245.090 157.541,244.783 156.968 C 244.498 156.436,244.025 156.000,243.732 156.000 C 243.440 156.000,243.200 155.730,243.200 155.400 C 243.200 155.070,242.930 154.800,242.600 154.800 C 242.270 154.800,242.000 154.530,242.000 154.200 C 242.000 153.870,241.820 153.600,241.600 153.600 C 241.380 153.600,241.200 153.150,241.200 152.600 C 241.200 151.978,240.973 151.600,240.600 151.600 C 240.270 151.600,240.000 151.319,240.000 150.976 C 240.000 150.633,239.820 150.464,239.600 150.600 C 239.373 150.741,239.200 150.400,239.200 149.811 C 239.200 149.241,238.930 148.671,238.600 148.545 C 238.270 148.418,238.000 147.884,238.000 147.357 C 238.000 146.773,237.766 146.400,237.400 146.400 C 237.027 146.400,236.800 146.022,236.800 145.400 C 236.800 144.850,236.620 144.400,236.400 144.400 C 236.180 144.400,236.000 143.410,236.000 142.200 C 236.000 140.653,235.852 140.030,235.500 140.100 C 235.135 140.173,234.969 139.199,234.885 136.500 C 234.794 133.572,234.648 132.800,234.185 132.800 C 233.674 132.800,233.600 124.398,233.600 66.400 L 233.600 0.000 143.700 0.053 C 94.255 0.083,52.911 0.230,51.824 0.380 M266.302 66.620 C 266.238 108.307,266.342 133.382,266.580 133.620 C 266.817 133.857,292.003 134.000,333.480 134.000 L 400.000 134.000 400.000 132.888 C 400.000 132.235,399.670 131.539,399.200 131.200 C 398.760 130.883,398.400 130.393,398.400 130.112 C 398.400 129.830,398.207 129.600,397.971 129.600 C 397.736 129.600,397.286 129.343,396.971 129.029 C 396.657 128.714,396.400 128.264,396.400 128.029 C 396.400 127.793,396.130 127.600,395.800 127.600 C 395.470 127.600,395.200 127.407,395.200 127.171 C 395.200 126.936,394.943 126.486,394.629 126.171 C 394.314 125.857,393.864 125.600,393.629 125.600 C 393.393 125.600,393.200 125.330,393.200 125.000 C 393.200 124.670,393.007 124.400,392.771 124.400 C 392.218 124.400,391.200 123.382,391.200 122.829 C 391.200 122.593,391.007 122.400,390.771 122.400 C 390.218 122.400,389.200 121.382,389.200 120.829 C 389.200 120.593,388.930 120.400,388.600 120.400 C 388.270 120.400,388.000 120.130,388.000 119.800 C 388.000 119.470,387.807 119.200,387.571 119.200 C 387.336 119.200,386.886 118.943,386.571 118.629 C 386.257 118.314,386.000 117.864,386.000 117.629 C 386.000 117.393,385.822 117.200,385.605 117.200 C 384.990 117.200,383.617 115.896,383.844 115.529 C 383.956 115.348,383.767 115.200,383.424 115.200 C 383.081 115.200,382.800 114.930,382.800 114.600 C 382.800 114.270,382.530 114.000,382.200 114.000 C 381.870 114.000,381.600 113.730,381.600 113.400 C 381.600 113.070,381.319 112.800,380.976 112.800 C 380.633 112.800,380.464 112.620,380.600 112.400 C 380.736 112.180,380.597 112.000,380.291 112.000 C 379.985 112.000,379.494 111.550,379.200 111.000 C 378.906 110.450,378.425 110.000,378.132 110.000 C 377.840 110.000,377.600 109.730,377.600 109.400 C 377.600 109.070,377.330 108.800,377.000 108.800 C 376.670 108.800,376.400 108.519,376.400 108.176 C 376.400 107.833,376.220 107.664,376.000 107.800 C 375.780 107.936,375.600 107.767,375.600 107.424 C 375.600 107.081,375.406 106.800,375.169 106.800 C 374.932 106.800,374.212 106.274,373.569 105.631 C 372.926 104.988,372.400 104.268,372.400 104.031 C 372.400 103.794,372.130 103.600,371.800 103.600 C 371.470 103.600,371.200 103.407,371.200 103.171 C 371.200 102.936,370.943 102.486,370.629 102.171 C 370.314 101.857,369.864 101.600,369.629 101.600 C 369.393 101.600,369.200 101.360,369.200 101.068 C 369.200 100.775,368.750 100.294,368.200 100.000 C 367.650 99.706,367.200 99.225,367.200 98.932 C 367.200 98.640,366.960 98.400,366.668 98.400 C 366.375 98.400,365.894 97.950,365.600 97.400 C 365.306 96.850,364.825 96.400,364.532 96.400 C 364.240 96.400,364.000 96.207,364.000 95.971 C 364.000 95.418,362.982 94.400,362.429 94.400 C 362.193 94.400,362.000 94.130,362.000 93.800 C 362.000 93.470,361.814 93.200,361.587 93.200 C 361.069 93.200,358.800 90.909,358.800 90.386 C 358.800 90.174,358.519 90.000,358.176 90.000 C 357.833 90.000,357.664 89.820,357.800 89.600 C 357.936 89.380,357.767 89.200,357.424 89.200 C 357.081 89.200,356.800 88.930,356.800 88.600 C 356.800 88.270,356.634 88.000,356.431 88.000 C 355.914 88.000,353.600 85.632,353.600 85.103 C 353.600 84.863,353.495 84.772,353.367 84.900 C 353.082 85.185,351.600 83.758,351.600 83.200 C 351.600 82.980,351.330 82.800,351.000 82.800 C 350.670 82.800,350.400 82.530,350.400 82.200 C 350.400 81.870,350.207 81.600,349.971 81.600 C 349.407 81.600,348.400 80.578,348.400 80.005 C 348.400 79.756,348.252 79.644,348.071 79.756 C 347.704 79.983,346.400 78.610,346.400 77.995 C 346.400 77.778,346.130 77.600,345.800 77.600 C 345.470 77.600,345.200 77.407,345.200 77.171 C 345.200 76.618,344.182 75.600,343.629 75.600 C 343.393 75.600,343.200 75.319,343.200 74.976 C 343.200 74.633,343.052 74.444,342.871 74.556 C 342.504 74.783,341.200 73.410,341.200 72.795 C 341.200 72.578,340.930 72.400,340.600 72.400 C 340.270 72.400,340.000 72.207,340.000 71.971 C 340.000 71.418,338.982 70.400,338.429 70.400 C 338.193 70.400,338.000 70.130,338.000 69.800 C 338.000 69.470,337.822 69.200,337.605 69.200 C 336.990 69.200,335.617 67.896,335.844 67.529 C 335.956 67.348,335.767 67.200,335.424 67.200 C 335.081 67.200,334.800 66.930,334.800 66.600 C 334.800 66.270,334.519 66.000,334.176 66.000 C 333.833 66.000,333.664 65.820,333.800 65.600 C 333.936 65.380,333.767 65.200,333.424 65.200 C 333.081 65.200,332.800 64.930,332.800 64.600 C 332.800 64.270,332.622 64.000,332.405 64.000 C 331.781 64.000,330.418 62.694,330.650 62.319 C 330.765 62.133,330.705 62.030,330.517 62.090 C 330.092 62.226,327.600 59.725,327.600 59.163 C 327.600 58.937,327.452 58.844,327.271 58.956 C 326.904 59.183,325.600 57.810,325.600 57.195 C 325.600 56.978,325.426 56.800,325.214 56.800 C 324.691 56.800,322.400 54.531,322.400 54.013 C 322.400 53.786,322.130 53.600,321.800 53.600 C 321.470 53.600,321.200 53.407,321.200 53.171 C 321.200 52.740,320.227 51.600,319.859 51.600 C 319.504 51.600,317.200 49.148,317.200 48.769 C 317.200 48.566,316.930 48.400,316.600 48.400 C 316.270 48.400,316.000 48.136,316.000 47.813 C 316.000 47.455,315.765 47.315,315.400 47.455 C 315.020 47.601,314.800 47.450,314.800 47.043 C 314.800 46.689,314.650 46.400,314.468 46.400 C 314.285 46.400,313.894 45.950,313.600 45.400 C 313.306 44.850,312.825 44.400,312.532 44.400 C 312.240 44.400,312.000 44.130,312.000 43.800 C 312.000 43.470,311.749 43.200,311.443 43.200 C 311.136 43.200,310.778 42.919,310.646 42.575 C 310.511 42.225,310.201 42.076,309.941 42.236 C 309.674 42.402,309.584 42.350,309.729 42.115 C 309.868 41.890,309.450 41.298,308.800 40.800 C 308.150 40.302,307.715 39.738,307.833 39.547 C 307.951 39.356,307.767 39.200,307.424 39.200 C 307.081 39.200,306.800 38.930,306.800 38.600 C 306.800 38.270,306.626 38.000,306.414 38.000 C 305.937 38.000,303.369 35.523,303.481 35.171 C 303.525 35.030,303.120 34.678,302.581 34.390 C 302.041 34.101,301.600 33.625,301.600 33.332 C 301.600 33.040,301.422 32.800,301.205 32.800 C 300.590 32.800,299.217 31.496,299.444 31.129 C 299.556 30.948,299.367 30.800,299.024 30.800 C 298.681 30.800,298.400 30.530,298.400 30.200 C 298.400 29.870,298.207 29.600,297.971 29.600 C 297.418 29.600,296.400 28.582,296.400 28.029 C 296.400 27.793,296.160 27.600,295.868 27.600 C 295.575 27.600,295.094 27.150,294.800 26.600 C 294.506 26.050,294.025 25.600,293.732 25.600 C 293.440 25.600,293.200 25.330,293.200 25.000 C 293.200 24.670,293.007 24.400,292.771 24.400 C 292.218 24.400,291.200 23.382,291.200 22.829 C 291.200 22.593,290.930 22.400,290.600 22.400 C 290.270 22.400,290.000 22.119,290.000 21.776 C 290.000 21.433,289.820 21.264,289.600 21.400 C 289.380 21.536,289.200 21.367,289.200 21.024 C 289.200 20.681,288.930 20.400,288.600 20.400 C 288.270 20.400,288.000 20.130,288.000 19.800 C 288.000 19.470,287.865 19.242,287.700 19.293 C 287.234 19.437,285.616 17.898,285.844 17.529 C 285.956 17.348,285.767 17.200,285.424 17.200 C 285.081 17.200,284.800 16.930,284.800 16.600 C 284.800 16.270,284.575 16.045,284.300 16.100 C 284.025 16.155,283.845 15.975,283.900 15.700 C 283.955 15.425,283.730 15.200,283.400 15.200 C 283.070 15.200,282.800 14.930,282.800 14.600 C 282.800 14.270,282.622 14.000,282.405 14.000 C 281.790 14.000,280.417 12.696,280.644 12.329 C 280.756 12.148,280.567 12.000,280.224 12.000 C 279.881 12.000,279.600 11.760,279.600 11.468 C 279.600 11.175,279.150 10.694,278.600 10.400 C 278.050 10.106,277.600 9.625,277.600 9.332 C 277.600 9.040,277.407 8.800,277.171 8.800 C 276.618 8.800,275.600 7.782,275.600 7.229 C 275.600 6.993,275.330 6.800,275.000 6.800 C 274.670 6.800,274.400 6.530,274.400 6.200 C 274.400 5.870,274.207 5.600,273.971 5.600 C 273.418 5.600,272.400 4.582,272.400 4.029 C 272.400 3.793,272.214 3.600,271.987 3.600 C 271.456 3.600,269.200 1.303,269.200 0.763 C 269.200 0.537,269.020 0.464,268.800 0.600 C 268.580 0.736,268.400 0.657,268.400 0.424 C 268.400 0.191,267.951 -0.000,267.402 -0.000 L 266.405 -0.000 266.302 66.620 M149.599 67.700 C 149.599 68.063,150.313 68.163,152.199 68.066 C 154.363 67.954,154.800 68.038,154.800 68.566 C 154.800 68.976,155.154 69.200,155.800 69.200 C 156.422 69.200,156.800 69.427,156.800 69.800 C 156.800 70.173,157.178 70.400,157.800 70.400 C 158.350 70.400,158.800 70.580,158.800 70.800 C 158.800 71.020,158.956 71.200,159.147 71.200 C 159.819 71.200,163.200 74.914,163.200 75.653 C 163.200 76.064,163.380 76.400,163.600 76.400 C 163.820 76.400,164.000 76.934,164.000 77.587 C 164.000 78.479,164.150 78.717,164.600 78.545 C 165.113 78.348,165.200 79.017,165.200 83.157 C 165.200 86.056,165.043 88.000,164.808 88.000 C 164.592 88.000,164.302 88.450,164.164 89.000 C 164.026 89.550,163.753 90.000,163.557 90.000 C 163.360 90.000,163.200 90.540,163.200 91.200 C 163.200 91.860,163.035 92.400,162.834 92.400 C 162.633 92.400,161.820 93.030,161.027 93.800 C 160.234 94.570,159.409 95.200,159.193 95.200 C 158.977 95.200,158.800 95.470,158.800 95.800 C 158.800 96.173,158.422 96.400,157.800 96.400 C 157.250 96.400,156.800 96.580,156.800 96.800 C 156.800 97.020,156.434 97.200,155.987 97.200 C 155.541 97.200,155.071 97.470,154.945 97.800 C 154.773 98.247,154.061 98.400,152.157 98.400 C 150.151 98.400,149.600 98.529,149.600 99.000 C 149.600 99.528,145.664 99.600,116.576 99.600 C 97.239 99.600,83.645 99.452,83.774 99.242 C 84.111 98.697,82.969 98.400,80.544 98.400 C 79.314 98.400,78.452 98.239,78.580 98.033 C 78.705 97.830,78.265 97.546,77.603 97.401 C 76.942 97.255,76.400 96.971,76.400 96.768 C 76.400 96.566,75.950 96.400,75.400 96.400 C 74.778 96.400,74.400 96.173,74.400 95.800 C 74.400 95.470,74.220 95.200,74.000 95.200 C 73.262 95.200,70.400 92.010,70.400 91.187 C 70.400 90.741,70.130 90.271,69.800 90.145 C 69.470 90.018,69.200 89.610,69.200 89.237 C 69.200 88.865,69.031 88.389,68.824 88.180 C 68.211 87.561,68.093 78.459,68.700 78.693 C 69.034 78.822,69.200 78.473,69.200 77.643 C 69.200 76.959,69.368 76.400,69.573 76.400 C 69.778 76.400,70.066 76.021,70.214 75.557 C 70.593 74.363,71.672 73.197,72.133 73.482 C 72.357 73.621,72.395 73.515,72.222 73.235 C 72.029 72.924,72.225 72.666,72.760 72.526 C 73.222 72.406,73.600 72.135,73.600 71.925 C 73.600 71.260,74.711 70.400,75.571 70.400 C 76.041 70.400,76.400 70.140,76.400 69.800 C 76.400 69.425,76.779 69.200,77.413 69.200 C 77.969 69.200,78.533 68.918,78.665 68.574 C 78.853 68.085,79.436 67.969,81.329 68.047 C 82.915 68.111,83.806 67.982,83.909 67.673 C 84.145 66.964,149.600 66.991,149.599 67.700 M149.800 134.400 C 149.936 134.620,151.117 134.800,152.424 134.800 C 154.269 134.800,154.800 134.934,154.800 135.400 C 154.800 135.773,155.178 136.000,155.800 136.000 C 156.350 136.000,156.800 136.180,156.800 136.400 C 156.800 136.620,157.200 136.800,157.688 136.800 C 158.493 136.800,160.797 138.947,160.799 139.700 C 160.800 139.865,160.978 140.000,161.195 140.000 C 161.977 140.000,163.200 141.396,163.200 142.289 C 163.200 142.790,163.380 143.200,163.600 143.200 C 163.820 143.200,164.000 143.566,164.000 144.013 C 164.000 144.459,164.270 144.929,164.600 145.055 C 165.087 145.242,165.200 146.183,165.200 150.043 C 165.200 154.005,165.100 154.800,164.600 154.800 C 164.227 154.800,164.000 155.178,164.000 155.800 C 164.000 156.350,163.820 156.800,163.600 156.800 C 163.380 156.800,163.200 157.250,163.200 157.800 C 163.200 158.422,162.973 158.800,162.600 158.800 C 162.270 158.800,162.000 159.070,162.000 159.400 C 162.000 159.730,161.807 160.000,161.571 160.000 C 161.041 160.000,160.000 161.008,160.000 161.521 C 160.000 162.003,157.541 163.211,157.106 162.942 C 156.927 162.831,156.830 162.975,156.890 163.261 C 156.951 163.547,156.584 163.844,156.076 163.922 C 155.567 163.999,155.053 164.318,154.933 164.631 C 154.775 165.041,153.999 165.200,152.157 165.200 C 150.719 165.200,149.600 165.375,149.600 165.600 C 149.600 165.863,138.325 166.000,116.576 166.000 C 94.663 166.000,83.636 165.865,83.800 165.600 C 83.955 165.349,83.067 165.200,81.411 165.200 C 79.437 165.200,78.717 165.049,78.545 164.600 C 78.418 164.270,77.903 164.000,77.400 164.000 C 76.897 164.000,76.382 163.730,76.255 163.400 C 76.129 163.070,75.737 162.800,75.384 162.800 C 74.639 162.800,73.600 161.866,73.600 161.195 C 73.600 160.941,73.381 160.806,73.113 160.896 C 72.404 161.132,70.400 158.779,70.400 157.711 C 70.400 157.168,70.158 156.800,69.800 156.800 C 69.470 156.800,69.200 156.451,69.200 156.024 C 69.200 155.597,69.020 155.136,68.800 155.000 C 68.569 154.858,68.400 152.729,68.400 149.976 C 68.400 147.059,68.556 145.200,68.800 145.200 C 69.020 145.200,69.200 144.750,69.200 144.200 C 69.200 143.650,69.377 143.200,69.592 143.200 C 69.808 143.200,70.106 142.717,70.254 142.126 C 70.516 141.084,72.502 138.800,73.146 138.800 C 73.321 138.800,73.706 138.350,74.000 137.800 C 74.294 137.250,74.754 136.800,75.022 136.800 C 75.290 136.800,76.002 136.544,76.604 136.232 C 77.207 135.919,77.949 135.759,78.254 135.876 C 78.635 136.022,78.732 135.887,78.562 135.445 C 78.350 134.892,78.689 134.800,80.934 134.800 C 82.374 134.800,83.664 134.620,83.800 134.400 C 83.962 134.139,95.396 134.000,116.800 134.000 C 138.204 134.000,149.638 134.139,149.800 134.400 M199.600 225.800 C 199.600 226.272,200.156 226.400,202.200 226.400 C 204.244 226.400,204.800 226.528,204.800 227.000 C 204.800 227.373,205.178 227.600,205.800 227.600 C 206.350 227.600,206.800 227.780,206.800 228.000 C 206.800 228.220,207.250 228.400,207.800 228.400 C 208.422 228.400,208.800 228.627,208.800 229.000 C 208.800 229.330,208.993 229.600,209.229 229.600 C 209.782 229.600,210.800 230.618,210.800 231.171 C 210.800 231.407,211.070 231.600,211.400 231.600 C 211.730 231.600,212.000 231.870,212.000 232.200 C 212.000 232.530,212.270 232.800,212.600 232.800 C 212.973 232.800,213.200 233.178,213.200 233.800 C 213.200 234.350,213.380 234.800,213.600 234.800 C 213.820 234.800,214.000 235.250,214.000 235.800 C 214.000 236.422,214.227 236.800,214.600 236.800 C 215.072 236.800,215.200 237.356,215.200 239.400 C 215.200 241.470,215.325 242.000,215.813 242.000 C 216.348 242.000,216.421 243.191,216.383 251.300 L 216.340 260.600 218.370 260.721 C 219.820 260.807,220.400 261.007,220.400 261.421 C 220.400 261.867,220.997 262.000,223.000 262.000 C 224.467 262.000,225.600 262.174,225.600 262.400 C 225.600 262.625,226.719 262.800,228.157 262.800 C 230.061 262.800,230.773 262.953,230.945 263.400 C 231.102 263.811,231.745 264.000,232.987 264.000 C 234.291 264.000,234.800 264.160,234.800 264.571 C 234.800 265.024,235.255 265.095,237.000 264.915 C 238.865 264.723,239.200 264.788,239.200 265.344 C 239.200 265.843,239.584 266.000,240.800 266.000 C 241.867 266.000,242.367 266.167,242.300 266.500 C 242.235 266.823,242.804 267.044,243.909 267.123 C 244.849 267.191,245.514 267.416,245.386 267.623 C 245.258 267.831,245.433 268.000,245.776 268.000 C 246.119 268.000,246.400 268.174,246.400 268.386 C 246.400 268.909,248.669 271.200,249.187 271.200 C 249.414 271.200,249.600 271.470,249.600 271.800 C 249.600 272.130,249.780 272.400,250.000 272.400 C 250.220 272.400,250.400 272.850,250.400 273.400 C 250.400 274.022,250.627 274.400,251.000 274.400 C 251.336 274.400,251.600 274.757,251.600 275.213 C 251.600 275.659,251.870 276.129,252.200 276.255 C 252.687 276.442,252.800 277.383,252.800 281.243 C 252.800 285.205,252.700 286.000,252.200 286.000 C 251.827 286.000,251.600 286.378,251.600 287.000 C 251.600 287.622,251.373 288.000,251.000 288.000 C 250.642 288.000,250.400 288.368,250.400 288.911 C 250.400 289.412,249.860 290.413,249.200 291.136 C 248.540 291.858,248.000 292.339,248.000 292.204 C 248.000 292.069,247.574 292.418,247.054 292.979 C 246.534 293.541,245.808 294.000,245.442 294.000 C 245.075 294.000,244.679 294.250,244.562 294.555 C 244.445 294.860,243.808 295.218,243.148 295.350 C 242.482 295.484,242.059 295.771,242.197 295.995 C 242.360 296.260,240.775 296.400,237.624 296.400 C 233.603 296.400,232.800 296.300,232.800 295.800 C 232.800 295.354,232.330 295.200,230.971 295.200 C 229.879 295.200,228.901 294.958,228.543 294.600 C 228.193 294.250,227.215 294.000,226.195 294.000 C 225.234 294.000,224.336 293.820,224.200 293.600 C 224.064 293.380,222.961 293.200,221.748 293.200 C 220.321 293.200,219.331 292.988,218.943 292.600 C 218.524 292.181,217.499 292.000,215.548 292.000 C 213.786 292.000,212.844 291.852,213.000 291.600 C 213.163 291.336,208.730 291.200,200.000 291.200 C 191.270 291.200,186.837 291.336,187.000 291.600 C 187.218 291.952,184.835 292.229,183.300 292.030 C 183.025 291.994,182.800 292.243,182.800 292.582 C 182.800 293.122,181.293 293.467,179.900 293.247 C 179.735 293.221,179.600 293.380,179.600 293.600 C 179.600 293.820,179.234 294.000,178.787 294.000 C 178.341 294.000,177.871 294.270,177.745 294.600 C 177.618 294.930,177.084 295.200,176.557 295.200 C 175.973 295.200,175.600 295.434,175.600 295.800 C 175.600 296.173,175.222 296.400,174.600 296.400 C 174.050 296.400,173.600 296.580,173.600 296.800 C 173.600 297.020,173.045 297.200,172.367 297.200 C 171.569 297.200,171.191 297.374,171.297 297.692 C 171.387 297.962,170.772 298.802,169.931 299.557 C 169.089 300.313,168.400 301.262,168.400 301.666 C 168.400 302.070,168.130 302.400,167.800 302.400 C 167.470 302.400,167.200 302.655,167.200 302.967 C 167.200 303.278,167.009 303.597,166.776 303.675 C 166.504 303.765,166.353 305.944,166.353 309.800 C 166.353 313.656,166.504 315.835,166.776 315.925 C 167.009 316.003,167.200 316.502,167.200 317.033 C 167.200 317.626,167.432 318.000,167.800 318.000 C 168.130 318.000,168.400 318.251,168.400 318.557 C 168.400 318.864,168.681 319.222,169.025 319.354 C 169.369 319.486,169.539 319.776,169.402 319.997 C 169.262 320.223,169.558 320.400,170.076 320.400 C 170.584 320.401,171.523 320.851,172.162 321.400 C 172.801 321.950,173.566 322.400,173.862 322.400 C 174.158 322.400,174.400 322.580,174.400 322.800 C 174.400 323.020,174.850 323.200,175.400 323.200 C 176.022 323.200,176.400 323.427,176.400 323.800 C 176.400 324.195,176.795 324.400,177.557 324.400 C 178.217 324.400,178.813 324.658,178.945 325.000 C 179.071 325.330,179.541 325.600,179.987 325.600 C 180.434 325.600,180.800 325.780,180.800 326.000 C 180.800 326.220,181.520 326.400,182.400 326.400 C 183.556 326.400,184.000 326.567,184.000 327.000 C 184.000 327.417,184.420 327.600,185.376 327.600 C 186.133 327.600,186.864 327.780,187.000 328.000 C 187.136 328.220,187.867 328.400,188.624 328.400 C 189.580 328.400,190.000 328.583,190.000 329.000 C 190.000 329.421,190.425 329.600,191.429 329.600 C 192.214 329.600,193.127 329.870,193.457 330.200 C 193.787 330.530,194.584 330.800,195.229 330.800 C 195.873 330.800,196.400 330.980,196.400 331.200 C 196.400 331.420,197.120 331.600,198.000 331.600 C 199.156 331.600,199.600 331.767,199.600 332.200 C 199.600 332.633,200.044 332.800,201.200 332.800 C 202.080 332.800,202.800 332.980,202.800 333.200 C 202.800 333.420,203.700 333.600,204.800 333.600 C 206.311 333.600,206.800 333.747,206.800 334.200 C 206.800 334.633,207.244 334.800,208.400 334.800 C 209.431 334.800,210.000 334.982,210.000 335.311 C 210.000 335.665,210.489 335.774,211.600 335.669 C 212.865 335.548,213.200 335.650,213.200 336.158 C 213.200 336.625,213.582 336.800,214.600 336.800 C 215.578 336.800,216.000 336.981,216.000 337.400 C 216.000 337.833,216.444 338.000,217.600 338.000 C 218.480 338.000,219.200 338.180,219.200 338.400 C 219.200 338.620,219.920 338.800,220.800 338.800 C 221.956 338.800,222.400 338.967,222.400 339.400 C 222.400 339.833,222.844 340.000,224.000 340.000 C 225.156 340.000,225.600 340.167,225.600 340.600 C 225.600 340.973,225.978 341.200,226.600 341.200 C 227.150 341.200,227.600 341.380,227.600 341.600 C 227.600 341.820,228.050 342.000,228.600 342.000 C 229.222 342.000,229.600 342.227,229.600 342.600 C 229.600 343.033,230.044 343.200,231.200 343.200 C 232.080 343.200,232.800 343.380,232.800 343.600 C 232.800 343.820,233.256 344.000,233.813 344.000 C 234.369 344.000,234.929 344.270,235.055 344.600 C 235.182 344.930,235.632 345.200,236.055 345.200 C 236.479 345.200,236.928 345.469,237.054 345.798 C 237.181 346.126,237.426 346.307,237.600 346.200 C 237.774 346.093,238.019 346.274,238.146 346.602 C 238.272 346.931,238.746 347.200,239.200 347.200 C 239.654 347.200,240.129 347.470,240.255 347.800 C 240.382 348.130,240.927 348.400,241.466 348.400 C 242.018 348.400,242.339 348.575,242.200 348.800 C 242.064 349.020,242.214 349.200,242.534 349.200 C 242.853 349.200,243.218 349.470,243.345 349.800 C 243.471 350.130,243.941 350.400,244.387 350.400 C 244.843 350.400,245.200 350.664,245.200 351.000 C 245.200 351.330,245.427 351.600,245.705 351.600 C 245.983 351.600,246.548 352.050,246.961 352.600 C 247.374 353.150,248.060 353.600,248.485 353.600 C 249.323 353.600,250.400 354.483,250.400 355.171 C 250.400 355.407,250.670 355.600,251.000 355.600 C 251.330 355.600,251.600 355.864,251.600 356.187 C 251.600 356.545,251.835 356.685,252.200 356.545 C 252.530 356.418,252.800 356.523,252.800 356.777 C 252.800 357.031,253.430 357.888,254.200 358.681 C 254.993 359.497,255.600 360.530,255.600 361.061 C 255.600 361.629,255.837 362.000,256.200 362.000 C 256.530 362.000,256.800 362.180,256.800 362.400 C 256.800 362.620,257.005 362.800,257.256 362.800 C 257.875 362.800,258.772 364.038,258.787 364.913 C 258.794 365.304,259.070 365.729,259.400 365.855 C 259.730 365.982,260.000 366.516,260.000 367.043 C 260.000 367.569,260.180 368.000,260.400 368.000 C 260.620 368.000,260.800 368.338,260.800 368.751 C 260.800 369.164,261.070 369.726,261.400 370.000 C 261.730 370.274,262.000 370.842,262.000 371.262 C 262.000 371.681,262.270 372.129,262.600 372.255 C 262.970 372.397,263.200 373.005,263.200 373.843 C 263.200 374.589,263.380 375.200,263.600 375.200 C 263.820 375.200,264.000 375.997,264.000 376.971 C 264.000 378.013,264.247 378.990,264.600 379.343 C 265.099 379.842,265.200 381.502,265.200 389.171 C 265.200 397.108,265.116 398.400,264.600 398.400 C 264.148 398.400,264.000 398.886,264.000 400.376 C 264.000 401.463,263.820 402.464,263.600 402.600 C 263.380 402.736,263.200 403.447,263.200 404.181 C 263.200 404.997,262.967 405.604,262.600 405.745 C 262.270 405.871,262.000 406.341,262.000 406.787 C 262.000 407.267,261.737 407.600,261.357 407.600 C 260.956 407.600,260.799 407.821,260.940 408.188 C 261.064 408.512,260.904 409.039,260.583 409.360 C 260.262 409.681,260.000 410.406,260.000 410.971 C 260.000 411.619,259.778 412.000,259.400 412.000 C 259.027 412.000,258.800 412.378,258.800 413.000 C 258.800 413.550,258.620 414.000,258.400 414.000 C 258.180 414.000,258.000 414.270,258.000 414.600 C 258.000 414.930,257.730 415.200,257.400 415.200 C 257.027 415.200,256.800 415.578,256.800 416.200 C 256.800 416.822,256.573 417.200,256.200 417.200 C 255.870 417.200,255.600 417.393,255.600 417.629 C 255.600 418.182,254.582 419.200,254.029 419.200 C 253.793 419.200,253.600 419.393,253.600 419.629 C 253.600 420.182,252.582 421.200,252.029 421.200 C 251.793 421.200,251.600 421.388,251.600 421.617 C 251.600 422.100,247.220 426.400,246.729 426.400 C 246.548 426.400,246.400 426.670,246.400 427.000 C 246.400 427.346,246.038 427.600,245.546 427.600 C 245.076 427.600,244.275 428.050,243.765 428.600 C 243.255 429.150,242.605 429.603,242.319 429.607 C 242.034 429.611,241.376 430.061,240.858 430.607 C 240.340 431.153,239.569 431.600,239.145 431.600 C 238.722 431.600,238.271 431.870,238.145 432.200 C 238.018 432.530,237.484 432.800,236.957 432.800 C 236.342 432.800,236.000 433.031,236.000 433.447 C 236.000 433.921,235.733 434.042,235.000 433.902 C 234.329 433.774,234.000 433.890,234.000 434.255 C 234.000 434.624,233.483 434.800,232.400 434.800 C 231.244 434.800,230.800 434.967,230.800 435.400 C 230.800 435.831,230.359 436.000,229.233 436.000 C 228.372 436.000,227.607 436.172,227.533 436.382 C 227.460 436.593,226.725 436.810,225.900 436.864 C 224.990 436.924,224.400 437.167,224.400 437.482 C 224.400 437.826,223.822 438.000,222.680 438.000 C 221.734 438.000,220.789 438.170,220.580 438.377 C 220.371 438.585,219.300 438.794,218.200 438.844 L 216.200 438.933 216.323 448.267 C 216.432 456.505,216.374 457.600,215.823 457.600 C 215.327 457.600,215.200 458.096,215.200 460.029 C 215.200 461.654,215.002 462.656,214.600 463.057 C 214.270 463.387,214.000 464.015,214.000 464.452 C 214.000 464.889,213.820 465.136,213.600 465.000 C 213.367 464.856,213.200 465.263,213.200 465.976 C 213.200 466.797,213.003 467.200,212.600 467.200 C 212.270 467.200,212.000 467.380,212.000 467.600 C 212.000 467.820,211.711 468.000,211.357 468.000 C 210.950 468.000,210.799 468.220,210.945 468.600 C 211.071 468.930,210.976 469.200,210.733 469.200 C 210.490 469.200,209.875 469.650,209.365 470.200 C 208.855 470.750,208.154 471.200,207.807 471.200 C 207.459 471.200,207.071 471.470,206.945 471.800 C 206.818 472.130,206.284 472.400,205.757 472.400 C 205.173 472.400,204.800 472.634,204.800 473.000 C 204.800 473.500,204.000 473.600,200.000 473.600 C 196.000 473.600,195.200 473.500,195.200 473.000 C 195.200 472.634,194.827 472.400,194.243 472.400 C 193.716 472.400,193.182 472.130,193.055 471.800 C 192.929 471.470,192.541 471.200,192.193 471.200 C 191.846 471.200,191.145 470.750,190.635 470.200 C 190.125 469.650,189.510 469.200,189.267 469.200 C 189.024 469.200,188.929 468.930,189.055 468.600 C 189.201 468.220,189.050 468.000,188.643 468.000 C 188.289 468.000,188.000 467.820,188.000 467.600 C 188.000 467.380,187.730 467.200,187.400 467.200 C 186.997 467.200,186.800 466.797,186.800 465.976 C 186.800 465.263,186.633 464.856,186.400 465.000 C 186.180 465.136,186.000 464.889,186.000 464.452 C 186.000 464.015,185.730 463.387,185.400 463.057 C 184.998 462.656,184.800 461.654,184.800 460.029 C 184.800 458.096,184.673 457.600,184.177 457.600 C 183.626 457.600,183.568 456.502,183.677 448.238 C 183.744 443.088,183.676 438.952,183.525 439.046 C 183.373 439.140,183.102 438.955,182.923 438.634 C 182.723 438.277,181.824 438.003,180.599 437.926 C 179.263 437.842,178.633 437.634,178.700 437.300 C 178.770 436.948,178.147 436.800,176.600 436.800 C 175.390 436.800,174.400 436.620,174.400 436.400 C 174.400 436.180,173.494 436.000,172.387 436.000 C 170.968 436.000,170.307 435.823,170.145 435.400 C 170.002 435.028,169.393 434.800,168.545 434.800 C 167.791 434.800,167.085 434.567,166.976 434.282 C 166.848 433.948,166.283 433.821,165.389 433.925 C 164.312 434.051,164.000 433.943,164.000 433.444 C 164.000 432.940,163.575 432.800,162.049 432.800 C 160.803 432.800,159.918 432.583,159.600 432.200 C 159.326 431.870,158.753 431.600,158.327 431.600 C 157.901 431.600,157.658 431.431,157.786 431.223 C 157.914 431.016,157.249 430.791,156.309 430.723 C 155.204 430.644,154.635 430.423,154.700 430.100 C 154.766 429.768,154.275 429.600,153.243 429.600 C 152.228 429.600,151.605 429.391,151.455 429.000 C 151.311 428.623,150.699 428.400,149.813 428.400 C 149.036 428.400,148.400 428.220,148.400 428.000 C 148.400 427.780,147.680 427.600,146.800 427.600 C 145.644 427.600,145.200 427.433,145.200 427.000 C 145.200 426.627,144.822 426.400,144.200 426.400 C 143.650 426.400,143.200 426.220,143.200 426.000 C 143.200 425.780,142.750 425.600,142.200 425.600 C 141.578 425.600,141.200 425.373,141.200 425.000 C 141.200 424.670,140.930 424.400,140.600 424.400 C 140.270 424.400,140.000 424.207,140.000 423.971 C 140.000 423.418,138.982 422.400,138.429 422.400 C 138.193 422.400,138.000 422.130,138.000 421.800 C 138.000 421.470,137.730 421.200,137.400 421.200 C 137.027 421.200,136.800 420.822,136.800 420.200 C 136.800 419.650,136.620 419.200,136.400 419.200 C 136.180 419.200,136.000 418.750,136.000 418.200 C 136.000 417.578,135.773 417.200,135.400 417.200 C 134.953 417.200,134.800 416.727,134.800 415.344 C 134.800 414.051,134.588 413.323,134.100 412.944 C 133.433 412.426,133.433 412.374,134.100 411.856 C 134.588 411.477,134.800 410.749,134.800 409.456 C 134.800 408.073,134.953 407.600,135.400 407.600 C 135.769 407.600,136.000 407.225,136.000 406.624 C 136.000 406.087,136.180 405.536,136.400 405.400 C 136.620 405.264,136.800 404.803,136.800 404.376 C 136.800 403.949,137.070 403.600,137.400 403.600 C 137.730 403.600,138.000 403.330,138.000 403.000 C 138.000 402.670,138.193 402.400,138.429 402.400 C 138.982 402.400,140.000 401.382,140.000 400.829 C 140.000 400.593,140.270 400.400,140.600 400.400 C 140.930 400.400,141.200 400.130,141.200 399.800 C 141.200 399.470,141.549 399.200,141.976 399.200 C 142.403 399.200,142.864 399.020,143.000 398.800 C 143.136 398.580,143.687 398.400,144.224 398.400 C 144.825 398.400,145.200 398.169,145.200 397.800 C 145.200 397.300,146.000 397.200,150.000 397.200 C 154.000 397.200,154.800 397.300,154.800 397.800 C 154.800 398.233,155.244 398.400,156.400 398.400 C 157.280 398.400,158.000 398.580,158.000 398.800 C 158.000 399.020,158.636 399.200,159.413 399.200 C 160.299 399.200,160.911 399.423,161.055 399.800 C 161.195 400.165,161.801 400.400,162.600 400.400 C 163.323 400.400,164.003 400.630,164.111 400.911 C 164.219 401.193,164.913 401.468,165.653 401.524 C 166.394 401.580,167.060 401.800,167.133 402.013 C 167.207 402.226,167.972 402.400,168.833 402.400 C 169.959 402.400,170.400 402.569,170.400 403.000 C 170.400 403.433,170.844 403.600,172.000 403.600 C 172.880 403.600,173.600 403.780,173.600 404.000 C 173.600 404.220,174.320 404.400,175.200 404.400 C 176.356 404.400,176.800 404.567,176.800 405.000 C 176.800 405.453,177.289 405.600,178.800 405.600 C 180.311 405.600,180.800 405.747,180.800 406.200 C 180.800 406.653,181.289 406.800,182.800 406.800 C 183.900 406.800,184.800 406.980,184.800 407.200 C 184.800 407.426,185.938 407.600,187.413 407.600 C 189.366 407.600,190.083 407.751,190.255 408.200 C 190.453 408.714,192.140 408.800,202.055 408.800 C 211.971 408.800,213.658 408.714,213.855 408.200 C 214.016 407.781,214.669 407.600,216.019 407.600 C 217.083 407.600,218.064 407.420,218.200 407.200 C 218.336 406.980,218.874 406.800,219.395 406.800 C 219.916 406.800,220.613 406.530,220.943 406.200 C 221.273 405.870,221.916 405.600,222.371 405.600 C 222.841 405.600,223.200 405.340,223.200 405.000 C 223.200 404.600,223.600 404.400,224.400 404.400 C 225.060 404.400,225.600 404.220,225.600 404.000 C 225.600 403.780,226.050 403.600,226.600 403.600 C 227.166 403.600,227.600 403.369,227.600 403.068 C 227.600 402.775,228.050 402.294,228.600 402.000 C 229.150 401.706,229.600 401.225,229.600 400.932 C 229.600 400.640,229.881 400.400,230.224 400.400 C 230.567 400.400,230.735 400.219,230.598 399.997 C 230.461 399.776,230.631 399.486,230.975 399.354 C 231.319 399.222,231.600 398.684,231.600 398.157 C 231.600 397.573,231.834 397.200,232.200 397.200 C 232.568 397.200,232.800 396.826,232.800 396.233 C 232.800 395.702,232.986 395.205,233.214 395.129 C 233.859 394.914,233.943 382.799,233.300 382.800 C 233.025 382.800,232.800 382.350,232.800 381.800 C 232.800 381.178,232.573 380.800,232.200 380.800 C 231.870 380.800,231.600 380.530,231.600 380.200 C 231.600 379.870,231.420 379.600,231.200 379.600 C 230.980 379.600,230.800 379.300,230.800 378.933 C 230.800 378.567,230.678 378.388,230.530 378.537 C 230.171 378.895,228.364 377.182,228.636 376.742 C 228.752 376.554,228.567 376.400,228.224 376.400 C 227.881 376.400,227.600 376.220,227.600 376.000 C 227.600 375.780,227.240 375.600,226.800 375.600 C 226.017 375.600,224.400 374.309,224.400 373.685 C 224.400 373.512,223.998 373.340,223.506 373.303 C 223.014 373.266,222.549 373.048,222.473 372.818 C 222.396 372.588,221.898 372.400,221.367 372.400 C 220.774 372.400,220.400 372.168,220.400 371.800 C 220.400 371.367,219.956 371.200,218.800 371.200 C 217.920 371.200,217.200 371.020,217.200 370.800 C 217.200 370.580,216.769 370.400,216.243 370.400 C 215.716 370.400,215.182 370.130,215.055 369.800 C 214.910 369.422,214.298 369.200,213.400 369.200 C 212.502 369.200,211.890 368.978,211.745 368.600 C 211.603 368.230,210.995 368.000,210.157 368.000 C 209.411 368.000,208.800 367.820,208.800 367.600 C 208.800 367.380,208.080 367.200,207.200 367.200 C 206.044 367.200,205.600 367.033,205.600 366.600 C 205.600 366.183,205.180 366.000,204.224 366.000 C 203.467 366.000,202.736 365.820,202.600 365.600 C 202.464 365.380,201.733 365.200,200.976 365.200 C 200.020 365.200,199.600 365.017,199.600 364.600 C 199.600 364.167,199.156 364.000,198.000 364.000 C 197.120 364.000,196.400 363.822,196.400 363.605 C 196.400 363.387,195.680 363.094,194.800 362.954 C 193.920 362.813,193.200 362.541,193.200 362.349 C 193.200 362.157,192.319 362.000,191.243 362.000 C 189.872 362.000,189.217 361.820,189.055 361.400 C 188.912 361.026,188.302 360.800,187.436 360.800 C 186.672 360.800,185.936 360.620,185.800 360.400 C 185.664 360.180,184.933 360.000,184.176 360.000 C 183.220 360.000,182.800 359.817,182.800 359.400 C 182.800 358.979,182.375 358.800,181.371 358.800 C 180.586 358.800,179.673 358.530,179.343 358.200 C 179.013 357.870,178.216 357.600,177.571 357.600 C 176.927 357.600,176.400 357.420,176.400 357.200 C 176.400 356.980,175.950 356.800,175.400 356.800 C 174.778 356.800,174.400 356.573,174.400 356.200 C 174.400 355.767,173.956 355.600,172.800 355.600 C 171.920 355.600,171.200 355.420,171.200 355.200 C 171.200 354.980,170.769 354.800,170.243 354.800 C 169.716 354.800,169.182 354.530,169.055 354.200 C 168.911 353.823,168.299 353.600,167.413 353.600 C 166.424 353.600,166.000 353.420,166.000 353.000 C 166.000 352.631,165.625 352.400,165.024 352.400 C 164.487 352.400,163.936 352.220,163.800 352.000 C 163.664 351.780,163.203 351.600,162.776 351.600 C 162.349 351.600,162.000 351.330,162.000 351.000 C 162.000 350.670,161.730 350.400,161.400 350.400 C 161.070 350.400,160.800 350.127,160.800 349.792 C 160.800 349.344,160.538 349.251,159.800 349.436 C 159.057 349.622,158.800 349.528,158.800 349.070 C 158.800 348.694,158.370 348.404,157.700 348.327 C 157.020 348.248,156.644 347.990,156.716 347.651 C 156.790 347.302,156.609 347.188,156.216 347.338 C 155.834 347.485,155.600 347.352,155.600 346.987 C 155.600 346.628,155.213 346.400,154.600 346.400 C 154.050 346.400,153.600 346.220,153.600 346.000 C 153.600 345.442,152.118 344.015,151.833 344.300 C 151.705 344.428,151.600 344.233,151.600 343.867 C 151.600 343.393,151.253 343.200,150.400 343.200 C 149.580 343.200,149.200 343.003,149.200 342.576 C 149.200 342.233,149.020 342.064,148.800 342.200 C 148.580 342.336,148.400 342.167,148.400 341.824 C 148.400 341.481,148.130 341.200,147.800 341.200 C 147.470 341.200,147.200 340.930,147.200 340.600 C 147.200 340.270,147.020 340.000,146.800 340.000 C 146.580 340.000,146.400 339.700,146.400 339.333 C 146.400 338.967,146.280 338.787,146.132 338.934 C 145.777 339.290,144.400 338.022,144.400 337.338 C 144.400 337.042,144.130 336.800,143.800 336.800 C 143.427 336.800,143.200 336.422,143.200 335.800 C 143.200 335.250,143.007 334.800,142.771 334.800 C 142.008 334.800,141.200 333.683,141.200 332.629 C 141.200 332.063,141.007 331.600,140.771 331.600 C 140.040 331.600,139.199 330.500,139.110 329.426 C 139.064 328.862,138.795 328.400,138.513 328.400 C 138.193 328.400,138.000 327.872,138.000 327.000 C 138.000 326.022,137.819 325.600,137.400 325.600 C 137.004 325.600,136.800 325.204,136.800 324.433 C 136.800 323.792,136.630 323.207,136.421 323.133 C 136.213 323.060,136.000 322.145,135.947 321.100 C 135.883 319.847,135.672 319.200,135.325 319.200 C 134.496 319.200,134.567 302.176,135.400 301.343 C 135.753 300.990,136.000 300.013,136.000 298.971 C 136.000 297.997,136.180 297.200,136.400 297.200 C 136.620 297.200,136.800 296.480,136.800 295.600 C 136.800 294.444,136.967 294.000,137.400 294.000 C 137.773 294.000,138.000 293.622,138.000 293.000 C 138.000 292.378,138.227 292.000,138.600 292.000 C 138.973 292.000,139.200 291.622,139.200 291.000 C 139.200 290.450,139.380 290.000,139.600 290.000 C 139.820 290.000,140.000 289.544,140.000 288.987 C 140.000 288.431,140.270 287.871,140.600 287.745 C 140.930 287.618,141.200 287.161,141.200 286.729 C 141.200 285.879,142.079 284.800,142.771 284.800 C 143.007 284.800,143.200 284.363,143.200 283.829 C 143.200 283.270,143.624 282.525,144.200 282.071 C 144.750 281.639,145.200 281.075,145.200 280.819 C 145.200 280.563,145.368 280.457,145.573 280.583 C 145.778 280.710,146.267 280.271,146.659 279.607 C 147.052 278.943,147.534 278.400,147.731 278.400 C 147.929 278.400,149.226 277.230,150.615 275.800 C 152.168 274.200,153.467 273.200,153.993 273.200 C 154.463 273.200,154.736 273.020,154.600 272.800 C 154.464 272.580,154.633 272.400,154.976 272.400 C 155.319 272.400,155.600 272.130,155.600 271.800 C 155.600 271.393,156.007 271.200,156.867 271.200 C 157.563 271.200,158.028 271.095,157.900 270.967 C 157.557 270.624,159.098 269.200,159.813 269.200 C 160.149 269.200,160.529 268.930,160.655 268.600 C 160.782 268.270,161.306 268.000,161.819 268.000 C 162.333 268.000,162.864 267.820,163.000 267.600 C 163.136 267.380,163.577 267.200,163.981 267.200 C 164.384 267.200,164.818 266.930,164.945 266.600 C 165.071 266.270,165.546 266.000,166.000 266.000 C 166.454 266.000,166.936 265.711,167.071 265.358 C 167.265 264.854,167.658 264.771,168.906 264.971 C 170.230 265.182,170.456 265.123,170.260 264.612 C 170.050 264.064,171.715 263.702,173.300 263.953 C 173.465 263.979,173.600 263.730,173.600 263.400 C 173.600 262.981,174.022 262.800,175.000 262.800 C 175.770 262.800,176.400 262.620,176.400 262.400 C 176.400 262.180,177.281 262.000,178.357 262.000 C 179.689 262.000,180.385 261.817,180.535 261.425 C 180.656 261.109,181.409 260.794,182.208 260.725 L 183.661 260.600 183.617 251.300 C 183.579 243.191,183.652 242.000,184.187 242.000 C 184.675 242.000,184.800 241.470,184.800 239.400 C 184.800 237.356,184.928 236.800,185.400 236.800 C 185.773 236.800,186.000 236.422,186.000 235.800 C 186.000 235.250,186.180 234.800,186.400 234.800 C 186.620 234.800,186.800 234.350,186.800 233.800 C 186.800 233.178,187.027 232.800,187.400 232.800 C 187.730 232.800,188.000 232.530,188.000 232.200 C 188.000 231.870,188.270 231.600,188.600 231.600 C 188.930 231.600,189.200 231.407,189.200 231.171 C 189.200 230.618,190.218 229.600,190.771 229.600 C 191.007 229.600,191.200 229.330,191.200 229.000 C 191.200 228.627,191.578 228.400,192.200 228.400 C 192.750 228.400,193.200 228.220,193.200 228.000 C 193.200 227.780,193.650 227.600,194.200 227.600 C 194.822 227.600,195.200 227.373,195.200 227.000 C 195.200 226.567,195.644 226.400,196.800 226.400 C 197.956 226.400,198.400 226.233,198.400 225.800 C 198.400 225.470,198.670 225.200,199.000 225.200 C 199.330 225.200,199.600 225.470,199.600 225.800 " stroke="none" fill="#4c5c8c" fill-rule="evenodd"></path><path id="path1" d="M233.795 66.400 C 233.795 103.030,233.842 118.015,233.900 99.700 C 233.958 81.385,233.958 51.415,233.900 33.100 C 233.842 14.785,233.795 29.770,233.795 66.400 M266.195 66.400 C 266.195 103.030,266.242 118.015,266.300 99.700 C 266.358 81.385,266.358 51.415,266.300 33.100 C 266.242 14.785,266.195 29.770,266.195 66.400 M79.907 68.290 C 80.626 68.379,81.706 68.377,82.307 68.286 C 82.908 68.195,82.320 68.122,81.000 68.124 C 79.680 68.126,79.188 68.201,79.907 68.290 M151.100 68.289 C 151.815 68.378,152.985 68.378,153.700 68.289 C 154.415 68.201,153.830 68.128,152.400 68.128 C 150.970 68.128,150.385 68.201,151.100 68.289 M183.772 251.000 C 183.772 256.060,183.829 258.075,183.899 255.477 C 183.969 252.880,183.968 248.740,183.898 246.277 C 183.828 243.815,183.771 245.940,183.772 251.000 M216.172 251.000 C 216.172 256.060,216.229 258.075,216.299 255.477 C 216.369 252.880,216.368 248.740,216.298 246.277 C 216.228 243.815,216.171 245.940,216.172 251.000 M236.700 265.082 C 237.195 265.178,238.005 265.178,238.500 265.082 C 238.995 264.987,238.590 264.909,237.600 264.909 C 236.610 264.909,236.205 264.987,236.700 265.082 M166.158 309.800 C 166.158 312.880,166.221 314.087,166.297 312.482 C 166.373 310.878,166.373 308.358,166.296 306.882 C 166.219 305.407,166.157 306.720,166.158 309.800 M211.105 335.883 C 211.602 335.979,212.322 335.975,212.705 335.875 C 213.087 335.775,212.680 335.696,211.800 335.701 C 210.920 335.705,210.607 335.787,211.105 335.883 M233.758 389.000 C 233.758 392.080,233.821 393.287,233.897 391.682 C 233.973 390.078,233.973 387.558,233.896 386.082 C 233.819 384.607,233.757 385.920,233.758 389.000 M133.800 412.000 C 133.485 412.510,133.904 413.202,134.524 413.194 C 134.811 413.190,134.762 413.032,134.400 412.794 C 133.867 412.444,133.867 412.356,134.400 412.006 C 134.762 411.768,134.811 411.610,134.524 411.606 C 134.262 411.603,133.936 411.780,133.800 412.000 M164.500 433.876 C 164.885 433.976,165.515 433.976,165.900 433.876 C 166.285 433.775,165.970 433.693,165.200 433.693 C 164.430 433.693,164.115 433.775,164.500 433.876 M183.771 448.800 C 183.771 453.750,183.828 455.775,183.899 453.300 C 183.969 450.825,183.969 446.775,183.899 444.300 C 183.828 441.825,183.771 443.850,183.771 448.800 M216.171 448.800 C 216.171 453.750,216.228 455.775,216.299 453.300 C 216.369 450.825,216.369 446.775,216.299 444.300 C 216.228 441.825,216.171 443.850,216.171 448.800 M197.500 473.496 C 198.875 473.574,201.125 473.574,202.500 473.496 C 203.875 473.418,202.750 473.354,200.000 473.354 C 197.250 473.354,196.125 473.418,197.500 473.496 " stroke="none" fill="#505c8c" fill-rule="evenodd"></path><path id="path2" d="M233.795 66.400 C 233.795 103.030,233.842 118.015,233.900 99.700 C 233.958 81.385,233.958 51.415,233.900 33.100 C 233.842 14.785,233.795 29.770,233.795 66.400 M266.195 66.400 C 266.195 103.030,266.242 118.015,266.300 99.700 C 266.358 81.385,266.358 51.415,266.300 33.100 C 266.242 14.785,266.195 29.770,266.195 66.400 M79.907 68.290 C 80.626 68.379,81.706 68.377,82.307 68.286 C 82.908 68.195,82.320 68.122,81.000 68.124 C 79.680 68.126,79.188 68.201,79.907 68.290 M151.100 68.289 C 151.815 68.378,152.985 68.378,153.700 68.289 C 154.415 68.201,153.830 68.128,152.400 68.128 C 150.970 68.128,150.385 68.201,151.100 68.289 M183.772 251.000 C 183.772 256.060,183.829 258.075,183.899 255.477 C 183.969 252.880,183.968 248.740,183.898 246.277 C 183.828 243.815,183.771 245.940,183.772 251.000 M216.172 251.000 C 216.172 256.060,216.229 258.075,216.299 255.477 C 216.369 252.880,216.368 248.740,216.298 246.277 C 216.228 243.815,216.171 245.940,216.172 251.000 M236.700 265.082 C 237.195 265.178,238.005 265.178,238.500 265.082 C 238.995 264.987,238.590 264.909,237.600 264.909 C 236.610 264.909,236.205 264.987,236.700 265.082 M166.158 309.800 C 166.158 312.880,166.221 314.087,166.297 312.482 C 166.373 310.878,166.373 308.358,166.296 306.882 C 166.219 305.407,166.157 306.720,166.158 309.800 M211.105 335.883 C 211.602 335.979,212.322 335.975,212.705 335.875 C 213.087 335.775,212.680 335.696,211.800 335.701 C 210.920 335.705,210.607 335.787,211.105 335.883 M233.758 389.000 C 233.758 392.080,233.821 393.287,233.897 391.682 C 233.973 390.078,233.973 387.558,233.896 386.082 C 233.819 384.607,233.757 385.920,233.758 389.000 M133.800 412.000 C 133.485 412.510,133.904 413.202,134.524 413.194 C 134.811 413.190,134.762 413.032,134.400 412.794 C 133.867 412.444,133.867 412.356,134.400 412.006 C 134.762 411.768,134.811 411.610,134.524 411.606 C 134.262 411.603,133.936 411.780,133.800 412.000 M164.500 433.876 C 164.885 433.976,165.515 433.976,165.900 433.876 C 166.285 433.775,165.970 433.693,165.200 433.693 C 164.430 433.693,164.115 433.775,164.500 433.876 M183.771 448.800 C 183.771 453.750,183.828 455.775,183.899 453.300 C 183.969 450.825,183.969 446.775,183.899 444.300 C 183.828 441.825,183.771 443.850,183.771 448.800 M216.171 448.800 C 216.171 453.750,216.228 455.775,216.299 453.300 C 216.369 450.825,216.369 446.775,216.299 444.300 C 216.228 441.825,216.171 443.850,216.171 448.800 M197.500 473.496 C 198.875 473.574,201.125 473.574,202.500 473.496 C 203.875 473.418,202.750 473.354,200.000 473.354 C 197.250 473.354,196.125 473.418,197.500 473.496 " stroke="none" fill="#505c8c" fill-rule="evenodd"></path><path id="path3" d="M233.795 66.400 C 233.795 103.030,233.842 118.015,233.900 99.700 C 233.958 81.385,233.958 51.415,233.900 33.100 C 233.842 14.785,233.795 29.770,233.795 66.400 M266.195 66.400 C 266.195 103.030,266.242 118.015,266.300 99.700 C 266.358 81.385,266.358 51.415,266.300 33.100 C 266.242 14.785,266.195 29.770,266.195 66.400 M79.907 68.290 C 80.626 68.379,81.706 68.377,82.307 68.286 C 82.908 68.195,82.320 68.122,81.000 68.124 C 79.680 68.126,79.188 68.201,79.907 68.290 M151.100 68.289 C 151.815 68.378,152.985 68.378,153.700 68.289 C 154.415 68.201,153.830 68.128,152.400 68.128 C 150.970 68.128,150.385 68.201,151.100 68.289 M183.772 251.000 C 183.772 256.060,183.829 258.075,183.899 255.477 C 183.969 252.880,183.968 248.740,183.898 246.277 C 183.828 243.815,183.771 245.940,183.772 251.000 M216.172 251.000 C 216.172 256.060,216.229 258.075,216.299 255.477 C 216.369 252.880,216.368 248.740,216.298 246.277 C 216.228 243.815,216.171 245.940,216.172 251.000 M236.700 265.082 C 237.195 265.178,238.005 265.178,238.500 265.082 C 238.995 264.987,238.590 264.909,237.600 264.909 C 236.610 264.909,236.205 264.987,236.700 265.082 M166.158 309.800 C 166.158 312.880,166.221 314.087,166.297 312.482 C 166.373 310.878,166.373 308.358,166.296 306.882 C 166.219 305.407,166.157 306.720,166.158 309.800 M211.105 335.883 C 211.602 335.979,212.322 335.975,212.705 335.875 C 213.087 335.775,212.680 335.696,211.800 335.701 C 210.920 335.705,210.607 335.787,211.105 335.883 M233.758 389.000 C 233.758 392.080,233.821 393.287,233.897 391.682 C 233.973 390.078,233.973 387.558,233.896 386.082 C 233.819 384.607,233.757 385.920,233.758 389.000 M133.800 412.000 C 133.485 412.510,133.904 413.202,134.524 413.194 C 134.811 413.190,134.762 413.032,134.400 412.794 C 133.867 412.444,133.867 412.356,134.400 412.006 C 134.762 411.768,134.811 411.610,134.524 411.606 C 134.262 411.603,133.936 411.780,133.800 412.000 M164.500 433.876 C 164.885 433.976,165.515 433.976,165.900 433.876 C 166.285 433.775,165.970 433.693,165.200 433.693 C 164.430 433.693,164.115 433.775,164.500 433.876 M183.771 448.800 C 183.771 453.750,183.828 455.775,183.899 453.300 C 183.969 450.825,183.969 446.775,183.899 444.300 C 183.828 441.825,183.771 443.850,183.771 448.800 M216.171 448.800 C 216.171 453.750,216.228 455.775,216.299 453.300 C 216.369 450.825,216.369 446.775,216.299 444.300 C 216.228 441.825,216.171 443.850,216.171 448.800 M197.500 473.496 C 198.875 473.574,201.125 473.574,202.500 473.496 C 203.875 473.418,202.750 473.354,200.000 473.354 C 197.250 473.354,196.125 473.418,197.500 473.496 " stroke="none" fill="#505c8c" fill-rule="evenodd"></path><path id="path4" d="M233.795 66.400 C 233.795 103.030,233.842 118.015,233.900 99.700 C 233.958 81.385,233.958 51.415,233.900 33.100 C 233.842 14.785,233.795 29.770,233.795 66.400 M266.195 66.400 C 266.195 103.030,266.242 118.015,266.300 99.700 C 266.358 81.385,266.358 51.415,266.300 33.100 C 266.242 14.785,266.195 29.770,266.195 66.400 M79.907 68.290 C 80.626 68.379,81.706 68.377,82.307 68.286 C 82.908 68.195,82.320 68.122,81.000 68.124 C 79.680 68.126,79.188 68.201,79.907 68.290 M151.100 68.289 C 151.815 68.378,152.985 68.378,153.700 68.289 C 154.415 68.201,153.830 68.128,152.400 68.128 C 150.970 68.128,150.385 68.201,151.100 68.289 M183.772 251.000 C 183.772 256.060,183.829 258.075,183.899 255.477 C 183.969 252.880,183.968 248.740,183.898 246.277 C 183.828 243.815,183.771 245.940,183.772 251.000 M216.172 251.000 C 216.172 256.060,216.229 258.075,216.299 255.477 C 216.369 252.880,216.368 248.740,216.298 246.277 C 216.228 243.815,216.171 245.940,216.172 251.000 M236.700 265.082 C 237.195 265.178,238.005 265.178,238.500 265.082 C 238.995 264.987,238.590 264.909,237.600 264.909 C 236.610 264.909,236.205 264.987,236.700 265.082 M166.158 309.800 C 166.158 312.880,166.221 314.087,166.297 312.482 C 166.373 310.878,166.373 308.358,166.296 306.882 C 166.219 305.407,166.157 306.720,166.158 309.800 M211.105 335.883 C 211.602 335.979,212.322 335.975,212.705 335.875 C 213.087 335.775,212.680 335.696,211.800 335.701 C 210.920 335.705,210.607 335.787,211.105 335.883 M233.758 389.000 C 233.758 392.080,233.821 393.287,233.897 391.682 C 233.973 390.078,233.973 387.558,233.896 386.082 C 233.819 384.607,233.757 385.920,233.758 389.000 M133.800 412.000 C 133.485 412.510,133.904 413.202,134.524 413.194 C 134.811 413.190,134.762 413.032,134.400 412.794 C 133.867 412.444,133.867 412.356,134.400 412.006 C 134.762 411.768,134.811 411.610,134.524 411.606 C 134.262 411.603,133.936 411.780,133.800 412.000 M164.500 433.876 C 164.885 433.976,165.515 433.976,165.900 433.876 C 166.285 433.775,165.970 433.693,165.200 433.693 C 164.430 433.693,164.115 433.775,164.500 433.876 M183.771 448.800 C 183.771 453.750,183.828 455.775,183.899 453.300 C 183.969 450.825,183.969 446.775,183.899 444.300 C 183.828 441.825,183.771 443.850,183.771 448.800 M216.171 448.800 C 216.171 453.750,216.228 455.775,216.299 453.300 C 216.369 450.825,216.369 446.775,216.299 444.300 C 216.228 441.825,216.171 443.850,216.171 448.800 M197.500 473.496 C 198.875 473.574,201.125 473.574,202.500 473.496 C 203.875 473.418,202.750 473.354,200.000 473.354 C 197.250 473.354,196.125 473.418,197.500 473.496 " stroke="none" fill="#505c8c" fill-rule="evenodd"></path></g></svg>