 <svg  version="1.0" xmlns="http://www.w3.org/2000/svg"  width="300.000000pt" height="400.000000pt" viewBox="0 0 300.000000 400.000000"  preserveAspectRatio="xMidYMid meet">  <g transform="translate(0.000000,400.000000) scale(0.100000,-0.100000)" fill="#325096" stroke="none"> <path d="M349 3977 c-77 -26 -168 -79 -209 -122 -44 -45 -98 -142 -120 -214 -20 -62 -20 -101 -20 -1641 0 -1540 0 -1579 20 -1641 54 -175 181 -298 355 -344 89 -23 2161 -23 2250 0 174 46 301 169 355 344 19 61 20 99 20 1226 l0 1164 -532 3 c-530 3 -533 3 -575 25 -53 29 -87 63 -116 116 -22 42 -22 45 -25 575 l-3 532 -667 0 c-664 -1 -667 -1 -733 -23z m806 -487 c59 -13 85 -49 85 -115 0 -66 -26 -102 -85 -115 -22 -5 -148 -10 -280 -10 -132 0 -258 5 -280 10 -59 13 -85 49 -85 115 0 63 28 102 82 115 47 11 515 11 563 0z m-1 -500 c58 -13 86 -51 86 -116 0 -65 -26 -101 -85 -114 -22 -5 -148 -10 -280 -10 -132 0 -258 5 -280 10 -59 13 -85 49 -85 115 0 64 26 102 80 115 48 11 516 12 564 0z m418 -710 c43 -36 58 -78 58 -167 l0 -62 58 -11 c118 -24 165 -44 189 -79 41 -60 23 -145 -37 -176 -37 -19 -69 -19 -138 2 -41 12 -95 17 -192 17 -123 1 -139 -1 -180 -23 -60 -31 -80 -57 -80 -107 0 -72 43 -96 340 -189 210 -65 315 -138 379 -262 17 -35 21 -60 21 -140 0 -89 -3 -103 -31 -158 -16 -33 -44 -75 -62 -93 -44 -46 -134 -97 -206 -118 l-61 -17 0 -61 c0 -88 -15 -130 -58 -166 -54 -44 -100 -42 -150 8 -43 43 -52 73 -52 167 l0 63 -41 7 c-78 13 -261 83 -289 110 -34 33 -43 73 -27 122 14 42 66 83 106 83 14 0 78 -19 141 -41 112 -41 119 -42 245 -43 117 -1 134 1 172 22 98 52 98 161 0 220 -17 11 -97 41 -177 67 -270 89 -318 112 -398 189 -71 67 -92 119 -92 227 0 83 3 98 32 156 48 98 141 169 271 207 l57 17 0 58 c0 90 10 121 52 163 50 50 96 52 150 8z"/> <path d="M2000 3500 l0 -500 502 0 503 0 -500 500 c-275 275 -501 500 -502 500 -2 0 -3 -225 -3 -500z"/> </g> </svg> 