<?xml version="1.0" standalone="no"?>
<!DOCTYPE svg PUBLIC "-//W3C//DTD SVG 20010904//EN"
 "http://www.w3.org/TR/2001/REC-SVG-20010904/DTD/svg10.dtd">
<svg version="1.0" xmlns="http://www.w3.org/2000/svg"
 width="277.170640pt" height="154.178192pt" viewBox="0 0 277.170640 154.178192"
 preserveAspectRatio="xMidYMid meet">
<metadata>
Created by potrace 1.12, written by Peter Selinger 2001-2015
</metadata>
<g transform="translate(-7.829360,157.801333) scale(0.100000,-0.100000)"
fill="#000000" stroke="none">
<path d="M1320 1574 c-14 -2 -59 -9 -100 -15 -94 -14 -283 -75 -376 -122 -189
-95 -426 -299 -528 -454 -134 -205 -210 -428 -231 -675 l-7 -78 200 0 200 0 7
68 c34 347 238 641 549 792 147 72 224 91 391 97 115 4 157 2 235 -15 118 -24
232 -69 327 -128 l73 -45 150 126 c175 147 173 129 34 221 -145 96 -316 168
-489 206 -86 18 -372 33 -435 22z"/>
<path d="M2420 1178 c-30 -22 -127 -100 -215 -172 -759 -619 -694 -569 -754
-577 -153 -21 -229 -182 -144 -303 111 -158 343 -96 369 97 6 42 19 62 111
170 122 144 650 771 676 804 25 31 20 29 -43 -19z m-874 -872 c55 -55 43 -125
-28 -162 -117 -61 -209 121 -93 184 40 22 85 14 121 -22z"/>
<path d="M2465 1060 c-4 -6 15 -10 50 -10 35 0 54 4 50 10 -3 6 -26 10 -50 10
-24 0 -47 -4 -50 -10z"/>
<path d="M2397 984 c-19 -19 3 -24 114 -24 92 0 120 3 117 13 -5 13 -218 23
-231 11z"/>
<path d="M2337 904 c-20 -20 8 -24 169 -24 136 0 175 3 172 13 -4 9 -48 13
-169 15 -91 1 -168 -1 -172 -4z"/>
<path d="M2260 815 c-11 -13 15 -15 228 -15 210 0 241 2 236 15 -9 22 -445 22
-464 0z"/>
<path d="M2300 730 c0 -6 83 -10 230 -10 147 0 230 4 230 10 0 6 -83 10 -230
10 -147 0 -230 -4 -230 -10z"/>
<path d="M2352 648 c4 -10 59 -14 221 -16 189 -2 217 0 217 13 0 13 -30 15
-221 15 -172 0 -220 -3 -217 -12z"/>
<path d="M2390 565 c10 -12 47 -15 216 -15 175 0 204 2 204 15 0 13 -31 15
-216 15 -191 0 -215 -2 -204 -15z"/>
<path d="M2415 490 c4 -6 85 -10 211 -10 129 0 204 4 204 10 0 6 -77 10 -211
10 -137 0 -208 -3 -204 -10z"/>
<path d="M2435 410 c-4 -7 65 -10 199 -10 131 0 206 4 206 10 0 6 -73 10 -199
10 -123 0 -202 -4 -206 -10z"/>
<path d="M2445 330 c-3 -6 0 -12 7 -15 25 -10 388 0 391 10 3 14 -389 19 -398
5z"/>
<path d="M2450 245 c0 -13 29 -15 200 -15 171 0 200 2 200 15 0 13 -29 15
-200 15 -171 0 -200 -2 -200 -15z"/>
</g>
</svg>
