<svg id="svg" version="1.1" xmlns="http://www.w3.org/2000/svg" xmlns:xlink="http://www.w3.org/1999/xlink" width="400" height="457.14285714285717" viewBox="0, 0, 400,457.14285714285717"><g id="svgg"><path id="path0" d="M19.700 0.268 C 18.985 0.369,18.400 0.619,18.400 0.825 C 18.400 1.031,17.854 1.200,17.187 1.200 C 16.479 1.200,15.879 1.449,15.745 1.800 C 15.618 2.130,15.174 2.400,14.757 2.400 C 14.341 2.400,14.000 2.580,14.000 2.800 C 14.000 3.020,13.685 3.200,13.300 3.200 C 12.482 3.201,10.400 4.885,10.400 5.547 C 10.400 5.796,10.019 6.000,9.554 6.000 C 8.553 6.000,6.000 8.642,6.000 9.678 C 6.000 10.075,5.812 10.400,5.582 10.400 C 4.853 10.400,3.200 12.331,3.200 13.182 C 3.200 13.632,3.020 14.000,2.800 14.000 C 2.580 14.000,2.400 14.360,2.400 14.800 C 2.400 15.244,2.133 15.600,1.800 15.600 C 1.384 15.600,1.200 16.019,1.200 16.967 C 1.200 17.718,0.975 18.408,0.700 18.500 C -0.036 18.745,-0.036 438.055,0.700 438.300 C 0.975 438.392,1.200 439.082,1.200 439.833 C 1.200 440.781,1.384 441.200,1.800 441.200 C 2.133 441.200,2.400 441.556,2.400 442.000 C 2.400 442.440,2.580 442.800,2.800 442.800 C 3.020 442.800,3.200 443.168,3.200 443.618 C 3.200 444.469,4.853 446.400,5.582 446.400 C 5.812 446.400,6.000 446.725,6.000 447.122 C 6.000 448.158,8.553 450.800,9.554 450.800 C 10.019 450.800,10.400 451.004,10.400 451.253 C 10.400 451.915,12.482 453.599,13.300 453.600 C 13.685 453.600,14.000 453.780,14.000 454.000 C 14.000 454.220,14.341 454.400,14.757 454.400 C 15.174 454.400,15.618 454.670,15.745 455.000 C 15.877 455.346,16.475 455.600,17.154 455.600 C 17.803 455.600,18.408 455.825,18.500 456.100 C 18.628 456.482,21.009 456.600,28.600 456.600 C 36.191 456.600,38.573 456.482,38.700 456.100 C 38.792 455.825,39.397 455.600,40.046 455.600 C 40.725 455.600,41.323 455.346,41.455 455.000 C 41.582 454.670,42.026 454.400,42.443 454.400 C 42.859 454.400,43.200 454.220,43.200 454.000 C 43.200 453.780,43.661 453.600,44.224 453.600 C 44.804 453.600,45.140 453.427,45.000 453.200 C 44.864 452.980,45.033 452.800,45.376 452.800 C 45.719 452.800,46.000 452.519,46.000 452.176 C 46.000 451.833,46.180 451.664,46.400 451.800 C 46.620 451.936,46.800 451.767,46.800 451.424 C 46.800 451.063,47.143 450.800,47.613 450.800 C 48.667 450.800,51.200 448.267,51.200 447.213 C 51.200 446.766,51.335 446.400,51.500 446.400 C 52.211 446.398,54.000 444.434,54.000 443.653 C 54.000 443.184,54.180 442.800,54.400 442.800 C 54.620 442.800,54.800 442.459,54.800 442.043 C 54.800 441.626,55.070 441.182,55.400 441.055 C 55.751 440.921,56.000 440.321,56.000 439.613 C 56.000 438.946,56.180 438.400,56.400 438.400 C 56.620 438.400,56.800 437.871,56.800 437.224 C 56.800 436.577,56.980 435.936,57.200 435.800 C 57.463 435.637,57.600 419.652,57.600 389.146 L 57.600 342.739 59.270 342.859 C 60.326 342.936,61.000 342.800,61.103 342.490 C 61.199 342.202,61.995 342.000,63.033 342.000 C 64.005 342.000,64.800 341.820,64.800 341.600 C 64.800 341.380,65.509 341.200,66.376 341.200 C 67.243 341.200,68.064 341.020,68.200 340.800 C 68.336 340.580,69.326 340.400,70.400 340.400 C 71.474 340.400,72.464 340.220,72.600 340.000 C 72.736 339.780,73.454 339.600,74.195 339.600 C 74.936 339.600,75.813 339.330,76.143 339.000 C 76.480 338.663,77.457 338.400,78.371 338.400 C 79.267 338.400,80.000 338.220,80.000 338.000 C 80.000 337.780,80.810 337.600,81.800 337.600 C 82.790 337.600,83.600 337.439,83.600 337.242 C 83.600 336.894,85.004 336.603,88.900 336.146 C 89.945 336.023,90.800 335.760,90.800 335.561 C 90.800 335.363,91.436 335.200,92.213 335.200 C 93.099 335.200,93.711 334.977,93.855 334.600 C 94.012 334.193,94.650 334.000,95.843 334.000 C 96.809 334.000,97.600 333.820,97.600 333.600 C 97.600 333.380,98.410 333.200,99.400 333.200 C 100.390 333.200,101.200 333.020,101.200 332.800 C 101.200 332.580,102.010 332.400,103.000 332.400 C 103.990 332.400,104.800 332.220,104.800 332.000 C 104.800 331.780,105.610 331.600,106.600 331.600 C 107.933 331.600,108.400 331.444,108.400 331.000 C 108.400 330.556,108.867 330.400,110.200 330.400 C 111.190 330.400,112.000 330.220,112.000 330.000 C 112.000 329.780,112.709 329.600,113.576 329.600 C 114.443 329.600,115.264 329.420,115.400 329.200 C 115.536 328.980,116.447 328.800,117.424 328.800 C 118.401 328.800,119.200 328.620,119.200 328.400 C 119.200 328.180,120.190 328.000,121.400 328.000 C 123.089 328.000,123.600 327.861,123.600 327.400 C 123.600 326.939,124.111 326.800,125.800 326.800 C 127.010 326.800,128.000 326.620,128.000 326.400 C 128.000 326.167,129.333 326.000,131.200 326.000 C 133.067 326.000,134.400 325.833,134.400 325.600 C 134.400 325.356,136.267 325.200,139.200 325.200 C 142.240 325.200,144.000 325.048,144.000 324.786 C 144.000 324.507,147.093 324.437,153.500 324.572 C 166.163 324.838,172.000 325.170,172.000 325.625 C 172.000 325.831,173.440 326.000,175.200 326.000 C 177.067 326.000,178.400 326.167,178.400 326.400 C 178.400 326.620,179.390 326.800,180.600 326.800 C 182.147 326.800,182.770 326.948,182.700 327.300 C 182.631 327.643,183.322 327.838,184.900 327.920 C 186.165 327.986,187.200 328.211,187.200 328.420 C 187.200 328.629,188.010 328.800,189.000 328.800 C 189.990 328.800,190.800 328.980,190.800 329.200 C 190.800 329.420,191.509 329.600,192.376 329.600 C 193.243 329.600,194.064 329.780,194.200 330.000 C 194.336 330.220,195.137 330.400,195.981 330.400 C 196.853 330.400,197.599 330.619,197.710 330.909 C 197.817 331.189,198.421 331.460,199.052 331.512 C 199.684 331.564,200.260 331.785,200.333 332.003 C 200.407 332.222,201.082 332.400,201.833 332.400 C 202.585 332.400,203.200 332.580,203.200 332.800 C 203.200 333.020,203.830 333.200,204.600 333.200 C 205.370 333.200,206.000 333.380,206.000 333.600 C 206.000 333.820,206.360 334.000,206.800 334.000 C 207.240 334.000,207.600 334.232,207.600 334.515 C 207.600 334.809,208.157 335.072,208.900 335.128 C 209.615 335.181,210.260 335.400,210.333 335.613 C 210.407 335.826,210.844 336.000,211.305 336.000 C 212.412 336.000,214.800 336.875,214.800 337.280 C 214.800 337.456,215.160 337.600,215.600 337.600 C 216.040 337.600,216.400 337.780,216.400 338.000 C 216.400 338.220,216.850 338.400,217.400 338.400 C 218.022 338.400,218.400 338.627,218.400 339.000 C 218.400 339.373,218.778 339.600,219.400 339.600 C 219.950 339.600,220.400 339.780,220.400 340.000 C 220.400 340.220,220.814 340.400,221.320 340.400 C 222.374 340.400,224.392 341.253,224.397 341.700 C 224.399 341.865,224.850 342.000,225.400 342.000 C 226.041 342.000,226.400 342.225,226.400 342.627 C 226.400 343.072,226.632 343.180,227.202 342.999 C 227.735 342.830,228.085 342.955,228.245 343.372 C 228.377 343.718,228.826 344.000,229.243 344.000 C 229.659 344.000,230.000 344.180,230.000 344.400 C 230.000 344.620,230.641 344.800,231.424 344.800 C 232.271 344.800,232.747 344.962,232.600 345.200 C 232.460 345.427,232.796 345.600,233.376 345.600 C 234.020 345.600,234.400 345.823,234.400 346.200 C 234.400 346.530,234.535 346.779,234.700 346.753 C 235.604 346.610,236.415 346.852,236.200 347.200 C 236.053 347.438,236.529 347.600,237.376 347.600 C 238.159 347.600,238.800 347.780,238.800 348.000 C 238.800 348.220,239.430 348.400,240.200 348.400 C 240.970 348.400,241.600 348.580,241.600 348.800 C 241.600 349.020,242.129 349.200,242.776 349.200 C 243.423 349.200,244.064 349.380,244.200 349.600 C 244.336 349.820,244.955 350.000,245.575 350.000 C 246.195 350.000,246.926 350.270,247.200 350.600 C 247.474 350.930,248.115 351.200,248.625 351.200 C 249.135 351.200,249.664 351.380,249.800 351.600 C 249.936 351.820,250.757 352.000,251.624 352.000 C 252.491 352.000,253.200 352.180,253.200 352.400 C 253.200 352.620,254.010 352.800,255.000 352.800 C 255.990 352.800,256.800 352.980,256.800 353.200 C 256.800 353.420,257.610 353.600,258.600 353.600 C 259.833 353.600,260.400 353.768,260.400 354.133 C 260.400 354.534,260.943 354.621,262.600 354.483 C 264.438 354.331,264.800 354.408,264.800 354.950 C 264.800 355.489,265.285 355.600,267.624 355.600 C 269.404 355.600,270.356 355.748,270.200 356.000 C 270.042 356.255,271.263 356.400,273.576 356.400 C 275.725 356.400,277.200 356.563,277.200 356.800 C 277.200 357.053,280.000 357.200,284.800 357.200 C 290.982 357.200,292.400 357.303,292.400 357.750 C 292.400 358.150,293.000 358.300,294.600 358.300 C 296.200 358.300,296.800 358.150,296.800 357.750 C 296.800 357.302,298.279 357.200,304.800 357.200 C 309.867 357.200,312.800 357.053,312.800 356.800 C 312.800 356.563,314.267 356.400,316.400 356.400 C 318.533 356.400,320.000 356.237,320.000 356.000 C 320.000 355.780,320.990 355.600,322.200 355.600 C 323.935 355.600,324.400 355.467,324.400 354.970 C 324.400 354.467,324.802 354.362,326.403 354.447 C 327.560 354.508,328.608 354.352,328.883 354.077 C 329.145 353.815,330.224 353.600,331.280 353.600 C 332.336 353.600,333.200 353.420,333.200 353.200 C 333.200 352.980,334.100 352.800,335.200 352.800 C 336.300 352.800,337.200 352.620,337.200 352.400 C 337.200 352.180,337.740 352.000,338.400 352.000 C 339.060 352.000,339.600 351.820,339.600 351.600 C 339.600 351.380,340.410 351.200,341.400 351.200 C 342.733 351.200,343.200 351.044,343.200 350.600 C 343.200 350.227,343.578 350.000,344.200 350.000 C 344.750 350.000,345.200 349.820,345.200 349.600 C 345.200 349.380,345.740 349.200,346.400 349.200 C 347.060 349.200,347.600 349.020,347.600 348.800 C 347.600 348.580,348.129 348.400,348.776 348.400 C 349.423 348.400,350.064 348.220,350.200 348.000 C 350.336 347.780,351.077 347.600,351.847 347.600 C 352.679 347.600,353.147 347.438,353.000 347.200 C 352.856 346.967,353.255 346.800,353.953 346.800 C 354.613 346.800,355.257 346.631,355.384 346.425 C 355.798 345.756,358.093 344.800,359.285 344.800 C 359.958 344.800,360.343 344.632,360.200 344.400 C 360.053 344.162,360.529 344.000,361.376 344.000 C 362.421 344.000,362.800 343.828,362.800 343.353 C 362.800 342.897,363.043 342.770,363.624 342.922 C 364.129 343.054,364.534 342.917,364.667 342.569 C 364.798 342.229,365.442 342.000,366.266 342.000 C 367.085 342.000,367.547 341.837,367.400 341.600 C 367.253 341.362,367.729 341.200,368.576 341.200 C 369.359 341.200,370.000 341.020,370.000 340.800 C 370.000 340.580,370.461 340.400,371.024 340.400 C 371.604 340.400,371.940 340.227,371.800 340.000 C 371.656 339.766,372.067 339.600,372.789 339.600 C 373.519 339.600,374.119 339.354,374.255 339.000 C 374.397 338.630,375.005 338.400,375.843 338.400 C 376.589 338.400,377.200 338.220,377.200 338.000 C 377.200 337.780,377.650 337.600,378.200 337.600 C 378.750 337.600,379.200 337.420,379.200 337.200 C 379.200 336.980,379.562 336.800,380.005 336.800 C 380.783 336.800,381.169 336.658,383.095 335.662 C 383.587 335.408,384.326 335.200,384.739 335.200 C 385.151 335.200,385.826 334.750,386.239 334.200 C 386.652 333.650,387.320 333.200,387.724 333.200 C 388.563 333.200,389.600 332.295,389.600 331.562 C 389.600 331.290,389.695 331.161,389.810 331.277 C 390.087 331.554,393.200 328.524,393.200 327.977 C 393.200 327.744,393.380 327.664,393.600 327.800 C 393.820 327.936,394.000 327.767,394.000 327.424 C 394.000 327.081,394.193 326.800,394.429 326.800 C 394.990 326.800,396.000 325.779,396.000 325.212 C 396.000 324.967,396.360 324.380,396.800 323.908 C 397.240 323.436,397.600 322.723,397.600 322.325 C 397.600 321.926,397.870 321.600,398.200 321.600 C 398.616 321.600,398.800 321.181,398.800 320.233 C 398.800 319.482,399.025 318.792,399.300 318.700 C 400.024 318.459,400.037 49.317,399.313 48.870 C 399.045 48.704,398.782 47.991,398.728 47.284 C 398.672 46.554,398.408 46.000,398.115 46.000 C 397.829 46.000,397.600 45.544,397.600 44.976 C 397.600 44.396,397.427 44.060,397.200 44.200 C 396.980 44.336,396.800 44.167,396.800 43.824 C 396.800 43.481,396.620 43.200,396.400 43.200 C 396.180 43.200,396.000 42.932,396.000 42.605 C 396.000 41.837,394.757 40.379,394.329 40.644 C 394.148 40.756,394.000 40.702,394.000 40.524 C 393.999 39.981,392.138 38.000,391.630 38.000 C 391.367 38.000,391.264 37.820,391.400 37.600 C 391.536 37.380,391.457 37.200,391.224 37.200 C 390.991 37.200,390.800 36.968,390.800 36.685 C 390.800 36.402,390.395 36.140,389.900 36.103 C 389.405 36.066,388.701 35.668,388.336 35.218 C 387.971 34.768,387.296 34.400,386.836 34.400 C 386.376 34.400,386.000 34.220,386.000 34.000 C 386.000 33.780,385.640 33.600,385.200 33.600 C 384.760 33.600,384.400 33.455,384.400 33.277 C 384.400 32.744,381.426 31.600,380.042 31.600 C 379.333 31.600,378.854 31.436,378.978 31.235 C 379.110 31.022,376.477 30.849,372.635 30.820 C 368.473 30.788,365.972 30.922,365.809 31.185 C 365.668 31.413,364.854 31.600,364.000 31.600 C 363.146 31.600,362.336 31.780,362.200 32.000 C 362.064 32.220,361.603 32.400,361.176 32.400 C 360.749 32.400,360.400 32.670,360.400 33.000 C 360.400 33.330,360.051 33.600,359.624 33.600 C 359.197 33.600,358.736 33.780,358.600 34.000 C 358.464 34.220,358.003 34.400,357.576 34.400 C 357.149 34.400,356.800 34.580,356.800 34.800 C 356.800 35.020,356.339 35.200,355.776 35.200 C 355.196 35.200,354.860 35.373,355.000 35.600 C 355.136 35.820,354.871 36.000,354.411 36.000 C 353.951 36.000,353.471 36.270,353.345 36.600 C 353.218 36.930,352.684 37.200,352.157 37.200 C 351.631 37.200,351.200 37.380,351.200 37.600 C 351.200 37.820,350.840 38.000,350.400 38.000 C 349.960 38.000,349.600 38.180,349.600 38.400 C 349.600 38.620,349.240 38.800,348.800 38.800 C 348.360 38.800,348.000 38.980,348.000 39.200 C 348.000 39.420,347.370 39.600,346.600 39.600 C 345.577 39.600,345.200 39.774,345.200 40.247 C 345.200 40.689,344.956 40.829,344.426 40.691 C 343.978 40.574,343.562 40.723,343.438 41.044 C 343.321 41.350,342.859 41.600,342.413 41.600 C 341.966 41.600,341.600 41.780,341.600 42.000 C 341.600 42.220,340.970 42.400,340.200 42.400 C 339.430 42.400,338.800 42.580,338.800 42.800 C 338.800 43.020,338.440 43.200,338.000 43.200 C 337.560 43.200,337.200 43.380,337.200 43.600 C 337.200 43.820,336.654 44.000,335.987 44.000 C 335.279 44.000,334.679 44.249,334.545 44.600 C 334.403 44.970,333.795 45.200,332.957 45.200 C 332.211 45.200,331.600 45.380,331.600 45.600 C 331.600 45.820,331.060 46.000,330.400 46.000 C 329.740 46.000,329.200 46.180,329.200 46.400 C 329.200 46.620,328.654 46.800,327.987 46.800 C 327.256 46.800,326.680 47.048,326.534 47.427 C 326.359 47.883,325.853 48.022,324.677 47.937 C 323.665 47.864,322.999 48.004,322.897 48.310 C 322.807 48.580,322.219 48.800,321.590 48.800 C 320.962 48.800,320.336 48.980,320.200 49.200 C 320.064 49.420,319.074 49.600,318.000 49.600 C 316.926 49.600,315.936 49.780,315.800 50.000 C 315.664 50.220,314.573 50.400,313.376 50.400 C 312.179 50.400,311.200 50.580,311.200 50.800 C 311.200 51.022,310.129 51.200,308.787 51.200 C 306.974 51.200,306.316 51.354,306.136 51.822 C 305.939 52.335,305.190 52.431,301.866 52.369 C 299.160 52.319,297.786 52.443,297.684 52.747 C 297.456 53.433,273.600 53.387,273.600 52.700 C 273.601 52.324,272.608 52.234,269.600 52.337 C 266.149 52.456,265.600 52.387,265.600 51.837 C 265.600 51.487,265.465 51.221,265.300 51.247 C 263.898 51.469,259.998 51.127,260.200 50.800 C 260.353 50.552,259.612 50.400,258.247 50.400 C 257.037 50.400,255.936 50.220,255.800 50.000 C 255.664 49.780,254.843 49.600,253.976 49.600 C 253.109 49.600,252.400 49.420,252.400 49.200 C 252.400 48.980,251.481 48.800,250.357 48.800 C 248.840 48.800,248.366 48.665,248.515 48.278 C 248.663 47.892,248.229 47.761,246.858 47.778 C 245.576 47.793,245.031 47.645,245.100 47.300 C 245.165 46.976,244.707 46.800,243.800 46.800 C 243.030 46.800,242.400 46.620,242.400 46.400 C 242.400 46.180,241.770 46.000,241.000 46.000 C 240.230 46.000,239.600 45.820,239.600 45.600 C 239.600 45.380,239.060 45.200,238.400 45.200 C 237.688 45.200,237.200 44.991,237.200 44.685 C 237.200 44.391,236.643 44.128,235.900 44.072 C 235.185 44.019,234.540 43.800,234.467 43.587 C 234.393 43.374,233.898 43.200,233.367 43.200 C 232.835 43.200,232.400 43.020,232.400 42.800 C 232.400 42.580,231.860 42.400,231.200 42.400 C 230.540 42.400,230.000 42.220,230.000 42.000 C 230.000 41.780,229.550 41.600,229.000 41.600 C 228.359 41.600,228.000 41.375,228.000 40.973 C 228.000 40.528,227.768 40.420,227.200 40.600 C 226.632 40.780,226.400 40.672,226.400 40.227 C 226.400 39.825,226.041 39.600,225.400 39.600 C 224.850 39.600,224.400 39.420,224.400 39.200 C 224.400 38.980,223.759 38.800,222.976 38.800 C 222.129 38.800,221.653 38.638,221.800 38.400 C 221.940 38.173,221.604 38.000,221.024 38.000 C 220.461 38.000,220.000 37.820,220.000 37.600 C 220.000 37.380,219.634 37.200,219.187 37.200 C 218.741 37.200,218.271 36.930,218.145 36.600 C 218.018 36.270,217.700 36.000,217.437 36.000 C 216.735 36.000,214.807 35.048,214.803 34.700 C 214.801 34.535,214.170 34.400,213.400 34.400 C 212.630 34.400,212.000 34.233,212.000 34.028 C 212.000 33.823,211.595 33.594,211.100 33.518 C 210.605 33.443,210.233 33.198,210.272 32.974 C 210.312 32.749,209.955 32.537,209.478 32.501 C 209.002 32.465,208.549 32.248,208.473 32.018 C 208.396 31.788,207.819 31.600,207.190 31.600 C 206.562 31.600,205.936 31.420,205.800 31.200 C 205.664 30.980,205.034 30.800,204.400 30.800 C 203.766 30.800,203.136 30.620,203.000 30.400 C 202.864 30.180,202.243 30.000,201.619 30.000 C 200.981 30.000,200.385 29.738,200.255 29.400 C 200.121 29.049,199.521 28.800,198.813 28.800 C 198.146 28.800,197.600 28.640,197.600 28.444 C 197.600 28.109,196.680 27.884,193.100 27.343 C 192.275 27.218,191.600 26.955,191.600 26.758 C 191.600 26.561,190.790 26.400,189.800 26.400 C 188.810 26.400,188.000 26.220,188.000 26.000 C 188.000 25.780,187.004 25.600,185.787 25.600 C 184.190 25.600,183.511 25.433,183.345 25.000 C 183.174 24.554,182.464 24.400,180.581 24.400 C 179.187 24.400,177.936 24.220,177.800 24.000 C 177.664 23.780,176.314 23.600,174.800 23.600 C 173.286 23.600,171.936 23.420,171.800 23.200 C 171.652 22.961,169.063 22.800,165.376 22.800 C 161.525 22.800,159.200 22.649,159.200 22.400 C 159.200 22.156,157.333 22.000,154.400 22.000 C 151.467 22.000,149.600 22.156,149.600 22.400 C 149.600 22.649,147.267 22.800,143.400 22.800 C 139.533 22.800,137.200 22.951,137.200 23.200 C 137.200 23.437,135.744 23.600,133.633 23.600 C 131.672 23.600,130.007 23.770,129.933 23.978 C 129.860 24.186,128.855 24.398,127.700 24.449 C 126.273 24.513,125.600 24.712,125.600 25.071 C 125.600 25.445,124.961 25.600,123.424 25.600 C 122.227 25.600,121.136 25.780,121.000 26.000 C 120.864 26.220,120.043 26.400,119.176 26.400 C 118.309 26.400,117.600 26.580,117.600 26.800 C 117.600 27.020,116.790 27.200,115.800 27.200 C 114.810 27.200,114.000 27.380,114.000 27.600 C 114.000 27.820,113.190 28.000,112.200 28.000 C 111.210 28.000,110.400 28.180,110.400 28.400 C 110.400 28.620,109.674 28.800,108.787 28.800 C 107.723 28.800,107.097 29.004,106.945 29.400 C 106.788 29.807,106.150 30.000,104.957 30.000 C 103.991 30.000,103.200 30.180,103.200 30.400 C 103.200 30.620,102.390 30.800,101.400 30.800 C 100.410 30.800,99.600 30.980,99.600 31.200 C 99.600 31.420,98.891 31.600,98.024 31.600 C 97.157 31.600,96.336 31.780,96.200 32.000 C 96.064 32.220,95.238 32.400,94.364 32.400 C 93.320 32.400,92.696 32.606,92.545 33.000 C 92.388 33.407,91.750 33.600,90.557 33.600 C 89.591 33.600,88.800 33.780,88.800 34.000 C 88.800 34.220,87.990 34.400,87.000 34.400 C 86.010 34.400,85.200 34.580,85.200 34.800 C 85.200 35.020,84.491 35.200,83.624 35.200 C 82.757 35.200,81.936 35.380,81.800 35.600 C 81.664 35.820,80.753 36.000,79.776 36.000 C 78.464 36.000,78.000 36.157,78.000 36.600 C 78.000 37.032,77.558 37.200,76.424 37.200 C 75.557 37.200,74.736 37.380,74.600 37.600 C 74.464 37.820,73.553 38.000,72.576 38.000 C 71.599 38.000,70.800 38.180,70.800 38.400 C 70.800 38.620,70.080 38.800,69.200 38.800 C 68.320 38.800,67.600 38.980,67.600 39.200 C 67.600 39.420,66.790 39.600,65.800 39.600 C 64.403 39.600,64.000 39.746,64.000 40.252 C 64.000 40.788,63.680 40.868,62.200 40.701 C 60.840 40.548,60.400 40.633,60.400 41.049 C 60.400 41.412,59.922 41.600,59.000 41.600 L 57.600 41.600 57.600 31.424 C 57.600 25.071,57.450 21.154,57.200 21.000 C 56.980 20.864,56.800 20.223,56.800 19.576 C 56.800 18.929,56.620 18.400,56.400 18.400 C 56.180 18.400,56.000 17.854,56.000 17.187 C 56.000 16.479,55.751 15.879,55.400 15.745 C 55.070 15.618,54.800 15.174,54.800 14.757 C 54.800 14.341,54.620 14.000,54.400 14.000 C 54.180 14.000,54.000 13.616,54.000 13.147 C 54.000 12.366,52.211 10.402,51.500 10.400 C 51.335 10.400,51.200 10.034,51.200 9.587 C 51.200 8.533,48.667 6.000,47.613 6.000 C 47.143 6.000,46.800 5.737,46.800 5.376 C 46.800 5.033,46.620 4.864,46.400 5.000 C 46.180 5.136,46.000 4.967,46.000 4.624 C 46.000 4.281,45.719 4.000,45.376 4.000 C 45.033 4.000,44.864 3.820,45.000 3.600 C 45.140 3.373,44.804 3.200,44.224 3.200 C 43.661 3.200,43.200 3.020,43.200 2.800 C 43.200 2.580,42.859 2.400,42.443 2.400 C 42.026 2.400,41.582 2.130,41.455 1.800 C 41.323 1.454,40.725 1.200,40.046 1.200 C 39.397 1.200,38.792 0.977,38.701 0.704 C 38.535 0.204,22.735 -0.158,19.700 0.268 M176.538 83.781 C 176.679 84.151,177.262 84.400,177.987 84.400 C 178.654 84.400,179.200 84.580,179.200 84.800 C 179.200 85.020,179.740 85.200,180.400 85.200 C 181.060 85.200,181.600 85.380,181.600 85.600 C 181.600 85.820,182.230 86.000,183.000 86.000 C 183.770 86.000,184.400 86.180,184.400 86.400 C 184.400 86.620,185.030 86.800,185.800 86.800 C 186.570 86.800,187.200 86.977,187.200 87.192 C 187.200 87.408,187.650 87.698,188.200 87.836 C 188.750 87.974,189.200 88.247,189.200 88.443 C 189.200 88.640,189.560 88.800,190.000 88.800 C 190.440 88.800,190.800 88.980,190.800 89.200 C 190.800 89.420,191.340 89.600,192.000 89.600 C 192.660 89.600,193.200 89.780,193.200 90.000 C 193.200 90.220,193.650 90.400,194.200 90.400 C 194.822 90.400,195.200 90.627,195.200 91.000 C 195.200 91.330,195.549 91.600,195.976 91.600 C 196.403 91.600,196.864 91.780,197.000 92.000 C 197.136 92.220,197.597 92.400,198.024 92.400 C 198.451 92.400,198.800 92.580,198.800 92.800 C 198.800 93.020,199.149 93.200,199.576 93.200 C 200.003 93.200,200.464 93.380,200.600 93.600 C 200.736 93.820,201.177 94.000,201.581 94.000 C 201.984 94.000,202.418 94.270,202.545 94.600 C 202.671 94.930,203.143 95.200,203.593 95.200 C 204.043 95.200,204.723 95.368,205.105 95.574 C 205.487 95.779,206.385 96.183,207.100 96.471 C 207.815 96.760,208.400 97.131,208.400 97.298 C 208.400 97.464,209.030 97.600,209.800 97.600 C 210.570 97.600,211.200 97.780,211.200 98.000 C 211.200 98.220,211.748 98.400,212.417 98.400 C 213.550 98.400,213.922 98.588,215.385 99.900 C 215.692 100.175,216.496 100.400,217.171 100.400 C 217.847 100.400,218.400 100.580,218.400 100.800 C 218.400 101.020,218.929 101.200,219.576 101.200 C 220.223 101.200,220.864 101.380,221.000 101.600 C 221.136 101.820,221.782 102.000,222.436 102.000 C 223.124 102.000,223.722 102.253,223.855 102.600 C 223.987 102.942,224.583 103.200,225.243 103.200 C 225.879 103.200,226.400 103.380,226.400 103.600 C 226.400 103.820,226.535 103.979,226.700 103.953 C 228.002 103.747,228.000 103.713,228.000 130.315 L 228.000 156.630 226.800 156.721 C 226.026 156.780,225.600 156.625,225.600 156.285 C 225.600 155.945,224.992 155.721,223.900 155.658 C 222.965 155.604,222.140 155.389,222.067 155.180 C 221.993 154.971,221.318 154.800,220.567 154.800 C 219.815 154.800,219.200 154.620,219.200 154.400 C 219.200 154.180,218.390 154.000,217.400 154.000 C 216.410 154.000,215.600 153.820,215.600 153.600 C 215.600 153.380,215.047 153.200,214.371 153.200 C 213.696 153.200,212.873 152.930,212.543 152.600 C 212.213 152.270,211.326 152.000,210.571 152.000 C 209.817 152.000,209.200 151.820,209.200 151.600 C 209.200 151.380,208.660 151.200,208.000 151.200 C 207.340 151.200,206.800 151.020,206.800 150.800 C 206.800 150.580,205.990 150.400,205.000 150.400 C 204.010 150.400,203.200 150.220,203.200 150.000 C 203.200 149.780,202.467 149.600,201.571 149.600 C 200.657 149.600,199.680 149.337,199.343 149.000 C 198.970 148.627,197.988 148.400,196.748 148.400 C 195.520 148.400,194.848 148.246,195.000 148.000 C 195.156 147.748,194.204 147.600,192.424 147.600 C 190.808 147.600,189.600 147.429,189.600 147.200 C 189.600 146.967,188.267 146.800,186.400 146.800 C 184.533 146.800,183.200 146.633,183.200 146.400 C 183.200 146.152,181.067 146.000,177.600 146.000 L 172.000 146.000 172.000 114.668 L 172.000 83.337 174.150 83.250 C 175.778 83.184,176.358 83.313,176.538 83.781 M114.000 121.400 L 114.000 154.000 112.200 154.000 C 111.210 154.000,110.400 154.180,110.400 154.400 C 110.400 154.620,109.691 154.800,108.824 154.800 C 107.957 154.800,107.136 154.980,107.000 155.200 C 106.864 155.420,105.858 155.600,104.764 155.600 C 103.365 155.600,102.707 155.778,102.545 156.200 C 102.376 156.639,101.684 156.800,99.957 156.800 C 98.652 156.800,97.600 156.979,97.600 157.200 C 97.600 157.420,96.891 157.600,96.024 157.600 C 95.157 157.600,94.336 157.780,94.200 158.000 C 94.064 158.220,92.973 158.400,91.776 158.400 C 90.579 158.400,89.600 158.580,89.600 158.800 C 89.600 159.020,88.711 159.200,87.624 159.200 C 86.537 159.200,85.536 159.380,85.400 159.600 C 85.264 159.820,84.438 160.000,83.564 160.000 C 82.520 160.000,81.896 160.206,81.745 160.600 C 81.584 161.019,80.931 161.200,79.581 161.200 C 78.517 161.200,77.536 161.380,77.400 161.600 C 77.264 161.820,76.353 162.000,75.376 162.000 C 74.399 162.000,73.600 162.180,73.600 162.400 C 73.600 162.620,72.610 162.800,71.400 162.800 C 70.190 162.800,69.200 162.980,69.200 163.200 C 69.200 163.420,68.210 163.600,67.000 163.600 C 65.311 163.600,64.800 163.739,64.800 164.200 C 64.800 164.644,64.333 164.800,63.000 164.800 C 62.010 164.800,61.200 164.980,61.200 165.200 C 61.200 165.420,60.390 165.600,59.400 165.600 L 57.600 165.600 57.600 133.800 L 57.600 102.000 59.400 102.000 C 60.390 102.000,61.200 101.820,61.200 101.600 C 61.200 101.380,62.010 101.200,63.000 101.200 C 63.990 101.200,64.800 101.020,64.800 100.800 C 64.800 100.580,65.520 100.400,66.400 100.400 C 67.280 100.400,68.000 100.243,68.000 100.052 C 68.000 99.861,68.849 99.608,69.887 99.491 C 70.925 99.374,71.840 99.081,71.920 98.839 C 72.001 98.598,72.761 98.400,73.610 98.400 C 74.458 98.400,75.264 98.220,75.400 98.000 C 75.536 97.780,76.447 97.600,77.424 97.600 C 78.401 97.600,79.200 97.420,79.200 97.200 C 79.200 96.980,79.920 96.800,80.800 96.800 C 81.680 96.800,82.400 96.620,82.400 96.400 C 82.400 96.180,83.109 96.000,83.976 96.000 C 84.843 96.000,85.664 95.820,85.800 95.600 C 85.936 95.380,86.762 95.200,87.636 95.200 C 88.680 95.200,89.304 94.994,89.455 94.600 C 89.612 94.193,90.250 94.000,91.443 94.000 C 92.409 94.000,93.200 93.820,93.200 93.600 C 93.200 93.380,94.010 93.200,95.000 93.200 C 95.990 93.200,96.800 93.020,96.800 92.800 C 96.800 92.580,97.610 92.400,98.600 92.400 C 99.590 92.400,100.400 92.220,100.400 92.000 C 100.400 91.780,101.126 91.600,102.013 91.600 C 103.077 91.600,103.703 91.396,103.855 91.000 C 104.012 90.593,104.650 90.400,105.843 90.400 C 106.809 90.400,107.600 90.220,107.600 90.000 C 107.600 89.780,108.410 89.600,109.400 89.600 C 110.390 89.600,111.200 89.420,111.200 89.200 C 111.200 88.980,111.830 88.800,112.600 88.800 L 114.000 88.800 114.000 121.400 M342.400 135.000 L 342.400 165.600 340.600 165.600 C 339.610 165.600,338.800 165.780,338.800 166.000 C 338.800 166.220,338.091 166.400,337.224 166.400 C 336.357 166.400,335.536 166.580,335.400 166.800 C 335.264 167.020,334.353 167.200,333.376 167.200 C 332.004 167.200,331.600 167.348,331.600 167.850 C 331.600 168.392,331.238 168.469,329.400 168.317 C 327.743 168.179,327.200 168.266,327.200 168.667 C 327.200 169.032,326.633 169.200,325.400 169.200 C 324.410 169.200,323.600 169.380,323.600 169.600 C 323.600 169.820,322.610 170.000,321.400 170.000 C 320.190 170.000,319.200 170.180,319.200 170.400 C 319.200 170.620,318.311 170.800,317.224 170.800 C 316.137 170.800,315.136 170.980,315.000 171.200 C 314.864 171.420,313.516 171.600,312.005 171.600 C 310.096 171.600,309.074 171.783,308.657 172.200 C 308.153 172.704,306.298 172.800,297.029 172.800 L 286.000 172.800 286.000 142.400 L 286.000 112.000 293.600 112.000 C 298.400 112.000,301.200 111.853,301.200 111.600 C 301.200 111.357,303.000 111.200,305.800 111.200 C 309.622 111.200,310.400 111.099,310.400 110.600 C 310.400 110.111,311.069 110.000,314.024 110.000 C 316.337 110.000,317.558 109.855,317.400 109.600 C 317.245 109.349,318.121 109.200,319.753 109.200 C 321.183 109.200,322.464 109.020,322.600 108.800 C 322.736 108.580,323.827 108.400,325.024 108.400 C 326.221 108.400,327.200 108.220,327.200 108.000 C 327.200 107.780,328.190 107.600,329.400 107.600 C 330.610 107.600,331.600 107.420,331.600 107.200 C 331.600 106.980,332.410 106.800,333.400 106.800 C 334.733 106.800,335.200 106.644,335.200 106.200 C 335.200 105.756,335.667 105.600,337.000 105.600 C 337.990 105.600,338.800 105.430,338.800 105.223 C 338.800 105.016,339.565 104.777,340.500 104.693 C 341.435 104.609,342.245 104.508,342.300 104.470 C 342.355 104.431,342.400 118.170,342.400 135.000 M170.895 174.900 L 171.000 203.000 162.500 202.915 C 155.270 202.843,154.000 202.918,154.000 203.415 C 154.000 203.857,153.464 204.000,151.800 204.000 C 150.590 204.000,149.600 204.180,149.600 204.400 C 149.600 204.620,148.610 204.800,147.400 204.800 C 146.190 204.800,145.200 204.980,145.200 205.200 C 145.200 205.420,144.210 205.600,143.000 205.600 C 141.790 205.600,140.800 205.780,140.800 206.000 C 140.800 206.220,139.990 206.400,139.000 206.400 C 137.667 206.400,137.200 206.556,137.200 207.000 C 137.200 207.467,136.664 207.600,134.776 207.600 C 133.263 207.600,132.446 207.750,132.600 208.000 C 132.754 208.250,131.937 208.400,130.424 208.400 C 129.075 208.400,128.000 208.577,128.000 208.800 C 128.000 209.020,127.291 209.200,126.424 209.200 C 125.557 209.200,124.736 209.380,124.600 209.600 C 124.464 209.820,123.458 210.000,122.364 210.000 C 120.965 210.000,120.307 210.178,120.145 210.600 C 119.988 211.007,119.350 211.200,118.157 211.200 C 117.191 211.200,116.400 211.380,116.400 211.600 C 116.400 211.820,116.040 212.000,115.600 212.000 C 114.808 212.000,114.800 211.733,114.800 183.971 C 114.800 152.433,114.543 154.800,117.971 154.800 C 119.087 154.800,120.000 154.620,120.000 154.400 C 120.000 154.180,120.810 154.000,121.800 154.000 C 123.180 154.000,123.600 153.851,123.600 153.363 C 123.600 152.841,123.997 152.751,125.801 152.863 C 127.368 152.961,128.001 152.856,128.001 152.500 C 128.000 152.174,128.626 152.000,129.800 152.000 C 130.790 152.000,131.600 151.820,131.600 151.600 C 131.600 151.380,132.590 151.200,133.800 151.200 C 135.010 151.200,136.000 151.020,136.000 150.800 C 136.000 150.578,137.067 150.400,138.400 150.400 C 139.733 150.400,140.800 150.222,140.800 150.000 C 140.800 149.780,141.790 149.600,143.000 149.600 C 144.547 149.600,145.170 149.452,145.100 149.100 C 145.028 148.742,145.881 148.567,148.100 148.483 C 149.805 148.419,151.200 148.194,151.200 147.983 C 151.200 147.757,153.570 147.600,157.000 147.600 C 160.600 147.600,162.800 147.448,162.800 147.200 C 162.800 146.960,164.398 146.800,166.795 146.800 L 170.789 146.800 170.895 174.900 M230.000 159.600 C 230.000 159.820,230.630 160.000,231.400 160.000 C 232.307 160.000,232.765 160.176,232.700 160.500 C 232.635 160.823,233.202 161.044,234.300 161.123 C 235.235 161.191,236.000 161.416,236.000 161.623 C 236.000 161.830,236.630 162.000,237.400 162.000 C 238.170 162.000,238.800 162.180,238.800 162.400 C 238.800 162.620,239.430 162.800,240.200 162.800 C 240.970 162.800,241.600 162.980,241.600 163.200 C 241.600 163.420,242.410 163.600,243.400 163.600 C 244.720 163.600,245.200 163.757,245.200 164.190 C 245.200 164.632,245.501 164.720,246.400 164.540 C 247.339 164.352,247.600 164.441,247.600 164.950 C 247.600 165.454,248.005 165.600,249.400 165.600 C 250.390 165.600,251.200 165.780,251.200 166.000 C 251.200 166.220,251.830 166.400,252.600 166.400 C 253.370 166.400,254.000 166.580,254.000 166.800 C 254.000 167.020,254.630 167.200,255.400 167.200 C 256.170 167.200,256.800 167.380,256.800 167.600 C 256.800 167.820,257.610 168.000,258.600 168.000 C 259.829 168.000,260.400 168.168,260.400 168.531 C 260.400 168.892,260.781 169.006,261.595 168.886 C 262.441 168.762,262.863 168.899,263.038 169.355 C 263.207 169.795,263.780 170.000,264.843 170.000 C 265.699 170.000,266.400 170.180,266.400 170.400 C 266.400 170.620,267.174 170.800,268.120 170.800 C 269.066 170.800,270.011 170.968,270.220 171.173 C 270.429 171.379,271.320 171.604,272.200 171.673 C 273.217 171.754,273.764 171.982,273.700 172.300 C 273.628 172.662,274.369 172.800,276.376 172.800 C 277.903 172.800,279.264 172.980,279.400 173.200 C 279.536 173.420,280.897 173.600,282.424 173.600 L 285.200 173.600 285.201 201.300 L 285.202 229.000 280.801 228.875 C 278.380 228.806,276.400 228.581,276.400 228.375 C 276.400 228.169,275.140 228.000,273.600 228.000 C 272.000 228.000,270.800 227.829,270.800 227.600 C 270.800 227.374,269.667 227.200,268.200 227.200 C 266.733 227.200,265.600 227.026,265.600 226.800 C 265.600 226.580,264.629 226.400,263.443 226.400 C 261.894 226.400,261.221 226.231,261.055 225.800 C 260.904 225.406,260.280 225.200,259.236 225.200 C 258.362 225.200,257.536 225.020,257.400 224.800 C 257.264 224.580,256.443 224.400,255.576 224.400 C 254.709 224.400,254.000 224.220,254.000 224.000 C 254.000 223.780,253.190 223.600,252.200 223.600 C 251.210 223.600,250.400 223.420,250.400 223.200 C 250.400 222.980,249.770 222.800,249.000 222.800 C 248.022 222.800,247.600 222.619,247.600 222.200 C 247.600 221.756,247.133 221.600,245.800 221.600 C 244.810 221.600,244.000 221.420,244.000 221.200 C 244.000 220.980,243.460 220.800,242.800 220.800 C 242.140 220.800,241.600 220.620,241.600 220.400 C 241.600 220.180,240.970 220.000,240.200 220.000 C 239.430 220.000,238.800 219.820,238.800 219.600 C 238.800 219.380,237.990 219.200,237.000 219.200 C 235.799 219.200,235.200 219.029,235.200 218.685 C 235.200 218.392,234.644 218.128,233.907 218.072 C 233.195 218.017,232.439 217.799,232.227 217.587 C 232.014 217.374,231.246 217.200,230.520 217.200 L 229.200 217.200 229.200 188.200 C 229.200 169.133,229.337 159.200,229.600 159.200 C 229.820 159.200,230.000 159.380,230.000 159.600 M179.200 205.200 C 179.200 205.426,180.333 205.600,181.800 205.600 C 183.267 205.600,184.400 205.774,184.400 206.000 C 184.400 206.220,185.191 206.400,186.157 206.400 C 187.350 206.400,187.988 206.593,188.145 207.000 C 188.297 207.396,188.923 207.600,189.987 207.600 C 190.874 207.600,191.600 207.780,191.600 208.000 C 191.600 208.220,192.129 208.400,192.776 208.400 C 193.423 208.400,194.064 208.580,194.200 208.800 C 194.336 209.020,194.966 209.200,195.600 209.200 C 196.234 209.200,196.864 209.380,197.000 209.600 C 197.136 209.820,197.962 210.000,198.836 210.000 C 199.880 210.000,200.504 210.206,200.655 210.600 C 200.787 210.942,201.383 211.200,202.043 211.200 C 202.679 211.200,203.200 211.345,203.200 211.522 C 203.200 211.699,203.965 211.888,204.900 211.942 C 205.835 211.996,206.660 212.211,206.733 212.420 C 206.807 212.629,207.482 212.800,208.233 212.800 C 208.985 212.800,209.600 212.980,209.600 213.200 C 209.600 213.420,210.140 213.600,210.800 213.600 C 211.460 213.600,212.000 213.780,212.000 214.000 C 212.000 214.220,212.791 214.400,213.757 214.400 C 214.950 214.400,215.588 214.593,215.745 215.000 C 215.879 215.351,216.479 215.600,217.187 215.600 C 217.854 215.600,218.400 215.780,218.400 216.000 C 218.400 216.220,219.210 216.400,220.200 216.400 C 221.190 216.400,222.000 216.580,222.000 216.800 C 222.000 217.020,222.540 217.200,223.200 217.200 C 223.860 217.200,224.400 217.380,224.400 217.600 C 224.400 217.820,225.030 218.000,225.800 218.000 C 226.801 218.000,227.200 218.178,227.200 218.624 C 227.200 218.967,227.380 219.136,227.600 219.000 C 227.865 218.836,228.000 228.863,228.000 248.776 C 228.000 268.525,227.863 278.800,227.600 278.800 C 227.380 278.800,227.200 278.620,227.200 278.400 C 227.200 278.180,226.570 278.000,225.800 278.000 C 225.030 278.000,224.400 277.820,224.400 277.600 C 224.400 277.380,223.860 277.200,223.200 277.200 C 222.423 277.200,222.000 276.997,222.000 276.625 C 222.000 276.192,221.656 276.106,220.600 276.277 C 219.479 276.459,219.200 276.374,219.200 275.852 C 219.200 275.373,218.828 275.200,217.800 275.200 C 217.030 275.200,216.400 275.020,216.400 274.800 C 216.400 274.580,215.759 274.400,214.976 274.400 C 214.185 274.400,213.656 274.232,213.786 274.022 C 213.917 273.811,213.178 273.591,212.110 273.522 C 211.047 273.454,210.233 273.212,210.274 272.977 C 210.315 272.744,209.600 272.509,208.685 272.455 C 207.769 272.401,206.926 272.225,206.810 272.064 C 206.695 271.903,205.880 271.718,205.000 271.653 C 204.120 271.588,203.229 271.369,203.020 271.167 C 202.811 270.965,201.956 270.800,201.120 270.800 C 200.284 270.800,199.600 270.620,199.600 270.400 C 199.600 270.180,198.625 270.000,197.433 270.000 C 196.131 270.000,195.204 269.813,195.110 269.531 C 195.007 269.220,194.047 269.094,192.277 269.158 C 190.071 269.238,189.600 269.145,189.600 268.628 C 189.600 268.122,189.095 268.000,187.000 268.000 C 185.533 268.000,184.400 267.826,184.400 267.600 C 184.400 267.363,182.933 267.200,180.800 267.200 C 178.667 267.200,177.200 267.037,177.200 266.800 C 177.200 266.574,176.067 266.400,174.600 266.400 L 172.000 266.400 172.000 235.600 L 172.000 204.800 175.600 204.800 C 177.733 204.800,179.200 204.963,179.200 205.200 M114.000 241.852 L 114.000 269.305 112.600 269.077 C 111.544 268.906,111.200 268.992,111.200 269.425 C 111.200 269.855,110.646 270.000,109.000 270.000 C 107.790 270.000,106.800 270.180,106.800 270.400 C 106.800 270.620,106.091 270.800,105.224 270.800 C 104.357 270.800,103.536 270.980,103.400 271.200 C 103.264 271.420,102.353 271.600,101.376 271.600 C 100.399 271.600,99.600 271.780,99.600 272.000 C 99.600 272.220,98.874 272.400,97.987 272.400 C 96.923 272.400,96.297 272.604,96.145 273.000 C 95.988 273.407,95.350 273.600,94.157 273.600 C 93.191 273.600,92.400 273.780,92.400 274.000 C 92.400 274.220,91.691 274.400,90.824 274.400 C 89.957 274.400,89.136 274.580,89.000 274.800 C 88.864 275.020,87.953 275.200,86.976 275.200 C 85.612 275.200,85.200 275.349,85.200 275.842 C 85.200 276.349,84.866 276.452,83.608 276.332 C 82.568 276.233,81.949 276.357,81.821 276.690 C 81.707 276.987,80.950 277.200,80.013 277.200 C 79.126 277.200,78.400 277.380,78.400 277.600 C 78.400 277.820,77.500 278.000,76.400 278.000 C 75.300 278.000,74.400 278.180,74.400 278.400 C 74.400 278.620,73.579 278.800,72.576 278.800 C 71.463 278.800,70.849 278.956,71.000 279.200 C 71.149 279.441,70.611 279.600,69.643 279.600 C 68.570 279.600,67.918 279.818,67.671 280.259 C 67.385 280.769,66.927 280.869,65.651 280.698 C 64.395 280.529,64.000 280.610,64.000 281.038 C 64.000 281.437,63.479 281.600,62.200 281.600 C 61.210 281.600,60.400 281.780,60.400 282.000 C 60.400 282.220,59.770 282.400,59.000 282.400 L 57.600 282.400 57.600 254.200 L 57.600 226.000 59.024 226.000 C 59.871 226.000,60.347 225.838,60.200 225.600 C 60.046 225.350,60.863 225.200,62.376 225.200 C 63.725 225.200,64.800 225.023,64.800 224.800 C 64.800 224.580,65.520 224.400,66.400 224.400 C 67.280 224.400,68.000 224.220,68.000 224.000 C 68.000 223.778,69.067 223.600,70.400 223.600 C 72.267 223.600,72.800 223.467,72.800 223.000 C 72.800 222.539,73.311 222.400,75.000 222.400 C 76.210 222.400,77.200 222.220,77.200 222.000 C 77.200 221.780,77.909 221.600,78.776 221.600 C 79.643 221.600,80.464 221.420,80.600 221.200 C 80.736 220.980,81.827 220.800,83.024 220.800 C 84.221 220.800,85.200 220.620,85.200 220.400 C 85.200 220.180,86.010 220.000,87.000 220.000 C 88.371 220.000,88.800 219.850,88.800 219.370 C 88.800 218.864,89.207 218.762,90.873 218.851 C 92.217 218.922,93.003 218.792,93.107 218.480 C 93.205 218.185,94.103 218.000,95.433 218.000 C 96.625 218.000,97.600 217.820,97.600 217.600 C 97.600 217.380,98.410 217.200,99.400 217.200 C 100.390 217.200,101.200 217.020,101.200 216.800 C 101.200 216.580,102.022 216.400,103.026 216.400 C 104.031 216.400,105.175 216.227,105.569 216.016 C 105.964 215.805,106.942 215.589,107.743 215.535 C 108.619 215.476,109.200 215.230,109.200 214.918 C 109.200 214.552,109.902 214.400,111.600 214.400 L 114.000 214.400 114.000 241.852 M342.387 256.700 C 342.374 289.826,342.441 288.800,340.280 288.800 C 339.712 288.800,339.136 288.980,339.000 289.200 C 338.864 289.420,338.133 289.600,337.376 289.600 C 336.619 289.600,336.000 289.780,336.000 290.000 C 336.000 290.220,335.640 290.400,335.200 290.400 C 334.760 290.400,334.400 290.580,334.400 290.800 C 334.400 291.020,333.963 291.200,333.429 291.200 C 332.894 291.200,332.167 291.490,331.813 291.844 C 331.429 292.228,330.773 292.412,330.185 292.299 C 329.528 292.174,329.200 292.293,329.200 292.655 C 329.200 293.011,328.714 293.200,327.800 293.200 C 327.030 293.200,326.400 293.380,326.400 293.600 C 326.400 293.820,326.040 294.000,325.600 294.000 C 325.160 294.000,324.800 294.180,324.800 294.400 C 324.800 294.620,323.906 294.800,322.813 294.800 C 321.380 294.800,320.879 294.941,321.018 295.303 C 321.160 295.674,320.736 295.769,319.406 295.663 C 317.957 295.548,317.600 295.646,317.600 296.160 C 317.600 296.652,317.184 296.800,315.800 296.800 C 314.810 296.800,314.000 296.980,314.000 297.200 C 314.000 297.429,312.800 297.600,311.200 297.600 C 309.600 297.600,308.400 297.771,308.400 298.000 C 308.400 298.244,306.533 298.400,303.600 298.400 C 299.600 298.400,298.800 298.500,298.800 299.000 C 298.800 299.493,298.089 299.600,294.800 299.600 C 291.511 299.600,290.800 299.493,290.800 299.000 C 290.800 298.533,290.267 298.400,288.400 298.400 L 286.000 298.400 286.000 265.000 L 286.000 231.600 299.000 231.600 C 310.611 231.600,312.000 231.532,312.000 230.965 C 312.000 230.414,312.590 230.347,316.400 230.465 C 319.727 230.567,320.801 230.478,320.800 230.100 C 320.800 229.748,321.626 229.600,323.600 229.600 C 325.200 229.600,326.400 229.429,326.400 229.200 C 326.400 228.974,327.533 228.800,329.000 228.800 C 330.467 228.800,331.600 228.626,331.600 228.400 C 331.600 228.180,332.590 228.000,333.800 228.000 C 335.010 228.000,336.000 227.820,336.000 227.600 C 336.000 227.380,336.810 227.200,337.800 227.200 C 339.133 227.200,339.600 227.044,339.600 226.600 C 339.600 226.181,340.022 226.000,341.000 226.000 L 342.400 226.000 342.387 256.700 " stroke="none" fill="#4c5c8c" fill-rule="evenodd"></path><path id="path1" d="M61.905 40.683 C 62.402 40.779,63.122 40.775,63.505 40.675 C 63.887 40.575,63.480 40.496,62.600 40.501 C 61.720 40.505,61.407 40.587,61.905 40.683 M245.160 47.720 C 245.346 47.906,246.106 47.996,246.849 47.919 C 248.167 47.783,248.158 47.775,246.510 47.580 C 245.581 47.471,244.973 47.533,245.160 47.720 M324.305 47.883 C 324.802 47.979,325.522 47.975,325.905 47.875 C 326.287 47.775,325.880 47.696,325.000 47.701 C 324.120 47.705,323.807 47.787,324.305 47.883 M267.300 52.294 C 268.345 52.376,270.055 52.376,271.100 52.294 C 272.145 52.212,271.290 52.144,269.200 52.144 C 267.110 52.144,266.255 52.212,267.300 52.294 M300.313 52.295 C 301.476 52.376,303.276 52.376,304.313 52.293 C 305.351 52.211,304.400 52.145,302.200 52.146 C 300.000 52.147,299.151 52.214,300.313 52.295 M173.705 83.487 C 174.314 83.579,175.214 83.577,175.705 83.482 C 176.197 83.387,175.700 83.311,174.600 83.314 C 173.500 83.317,173.097 83.395,173.705 83.487 M124.500 153.087 C 125.105 153.178,126.095 153.178,126.700 153.087 C 127.305 152.995,126.810 152.920,125.600 152.920 C 124.390 152.920,123.895 152.995,124.500 153.087 M99.107 156.690 C 99.826 156.779,100.906 156.777,101.507 156.686 C 102.108 156.595,101.520 156.522,100.200 156.524 C 98.880 156.526,98.388 156.601,99.107 156.690 M328.905 168.287 C 329.514 168.379,330.414 168.377,330.905 168.282 C 331.397 168.187,330.900 168.111,329.800 168.114 C 328.700 168.117,328.297 168.195,328.905 168.287 M261.600 169.077 C 262.150 169.189,262.749 169.488,262.930 169.740 C 263.151 170.048,263.207 170.001,263.100 169.600 C 263.009 169.262,262.429 168.972,261.769 168.937 C 260.762 168.882,260.739 168.901,261.600 169.077 M89.705 219.087 C 90.314 219.179,91.214 219.177,91.705 219.082 C 92.197 218.987,91.700 218.911,90.600 218.914 C 89.500 218.917,89.097 218.995,89.705 219.087 M262.307 226.290 C 263.026 226.379,264.106 226.377,264.707 226.286 C 265.308 226.195,264.720 226.122,263.400 226.124 C 262.080 226.126,261.588 226.201,262.307 226.290 M313.900 230.695 C 315.055 230.776,316.945 230.776,318.100 230.695 C 319.255 230.614,318.310 230.548,316.000 230.548 C 313.690 230.548,312.745 230.614,313.900 230.695 M190.700 269.089 C 191.415 269.178,192.585 269.178,193.300 269.089 C 194.015 269.001,193.430 268.928,192.000 268.928 C 190.570 268.928,189.985 269.001,190.700 269.089 M83.105 276.283 C 83.602 276.379,84.322 276.375,84.705 276.275 C 85.087 276.175,84.680 276.096,83.800 276.101 C 82.920 276.105,82.607 276.187,83.105 276.283 M65.505 280.683 C 66.002 280.779,66.722 280.775,67.105 280.675 C 67.487 280.575,67.080 280.496,66.200 280.501 C 65.320 280.505,65.007 280.587,65.505 280.683 M292.700 299.495 C 293.855 299.576,295.745 299.576,296.900 299.495 C 298.055 299.414,297.110 299.348,294.800 299.348 C 292.490 299.348,291.545 299.414,292.700 299.495 M58.305 343.083 C 58.802 343.179,59.522 343.175,59.905 343.075 C 60.287 342.975,59.880 342.896,59.000 342.901 C 58.120 342.905,57.807 342.987,58.305 343.083 M262.105 354.687 C 262.714 354.779,263.614 354.777,264.105 354.682 C 264.597 354.587,264.100 354.511,263.000 354.514 C 261.900 354.517,261.497 354.595,262.105 354.687 M325.305 354.687 C 325.914 354.779,326.814 354.777,327.305 354.682 C 327.797 354.587,327.300 354.511,326.200 354.514 C 325.100 354.517,324.697 354.595,325.305 354.687 " stroke="none" fill="#505c8c" fill-rule="evenodd"></path><path id="path2" d="M61.905 40.683 C 62.402 40.779,63.122 40.775,63.505 40.675 C 63.887 40.575,63.480 40.496,62.600 40.501 C 61.720 40.505,61.407 40.587,61.905 40.683 M245.160 47.720 C 245.346 47.906,246.106 47.996,246.849 47.919 C 248.167 47.783,248.158 47.775,246.510 47.580 C 245.581 47.471,244.973 47.533,245.160 47.720 M324.305 47.883 C 324.802 47.979,325.522 47.975,325.905 47.875 C 326.287 47.775,325.880 47.696,325.000 47.701 C 324.120 47.705,323.807 47.787,324.305 47.883 M267.300 52.294 C 268.345 52.376,270.055 52.376,271.100 52.294 C 272.145 52.212,271.290 52.144,269.200 52.144 C 267.110 52.144,266.255 52.212,267.300 52.294 M300.313 52.295 C 301.476 52.376,303.276 52.376,304.313 52.293 C 305.351 52.211,304.400 52.145,302.200 52.146 C 300.000 52.147,299.151 52.214,300.313 52.295 M173.705 83.487 C 174.314 83.579,175.214 83.577,175.705 83.482 C 176.197 83.387,175.700 83.311,174.600 83.314 C 173.500 83.317,173.097 83.395,173.705 83.487 M124.500 153.087 C 125.105 153.178,126.095 153.178,126.700 153.087 C 127.305 152.995,126.810 152.920,125.600 152.920 C 124.390 152.920,123.895 152.995,124.500 153.087 M99.107 156.690 C 99.826 156.779,100.906 156.777,101.507 156.686 C 102.108 156.595,101.520 156.522,100.200 156.524 C 98.880 156.526,98.388 156.601,99.107 156.690 M328.905 168.287 C 329.514 168.379,330.414 168.377,330.905 168.282 C 331.397 168.187,330.900 168.111,329.800 168.114 C 328.700 168.117,328.297 168.195,328.905 168.287 M261.600 169.077 C 262.150 169.189,262.749 169.488,262.930 169.740 C 263.151 170.048,263.207 170.001,263.100 169.600 C 263.009 169.262,262.429 168.972,261.769 168.937 C 260.762 168.882,260.739 168.901,261.600 169.077 M89.705 219.087 C 90.314 219.179,91.214 219.177,91.705 219.082 C 92.197 218.987,91.700 218.911,90.600 218.914 C 89.500 218.917,89.097 218.995,89.705 219.087 M262.307 226.290 C 263.026 226.379,264.106 226.377,264.707 226.286 C 265.308 226.195,264.720 226.122,263.400 226.124 C 262.080 226.126,261.588 226.201,262.307 226.290 M313.900 230.695 C 315.055 230.776,316.945 230.776,318.100 230.695 C 319.255 230.614,318.310 230.548,316.000 230.548 C 313.690 230.548,312.745 230.614,313.900 230.695 M190.700 269.089 C 191.415 269.178,192.585 269.178,193.300 269.089 C 194.015 269.001,193.430 268.928,192.000 268.928 C 190.570 268.928,189.985 269.001,190.700 269.089 M83.105 276.283 C 83.602 276.379,84.322 276.375,84.705 276.275 C 85.087 276.175,84.680 276.096,83.800 276.101 C 82.920 276.105,82.607 276.187,83.105 276.283 M65.505 280.683 C 66.002 280.779,66.722 280.775,67.105 280.675 C 67.487 280.575,67.080 280.496,66.200 280.501 C 65.320 280.505,65.007 280.587,65.505 280.683 M292.700 299.495 C 293.855 299.576,295.745 299.576,296.900 299.495 C 298.055 299.414,297.110 299.348,294.800 299.348 C 292.490 299.348,291.545 299.414,292.700 299.495 M58.305 343.083 C 58.802 343.179,59.522 343.175,59.905 343.075 C 60.287 342.975,59.880 342.896,59.000 342.901 C 58.120 342.905,57.807 342.987,58.305 343.083 M262.105 354.687 C 262.714 354.779,263.614 354.777,264.105 354.682 C 264.597 354.587,264.100 354.511,263.000 354.514 C 261.900 354.517,261.497 354.595,262.105 354.687 M325.305 354.687 C 325.914 354.779,326.814 354.777,327.305 354.682 C 327.797 354.587,327.300 354.511,326.200 354.514 C 325.100 354.517,324.697 354.595,325.305 354.687 " stroke="none" fill="#505c8c" fill-rule="evenodd"></path><path id="path3" d="M61.905 40.683 C 62.402 40.779,63.122 40.775,63.505 40.675 C 63.887 40.575,63.480 40.496,62.600 40.501 C 61.720 40.505,61.407 40.587,61.905 40.683 M245.160 47.720 C 245.346 47.906,246.106 47.996,246.849 47.919 C 248.167 47.783,248.158 47.775,246.510 47.580 C 245.581 47.471,244.973 47.533,245.160 47.720 M324.305 47.883 C 324.802 47.979,325.522 47.975,325.905 47.875 C 326.287 47.775,325.880 47.696,325.000 47.701 C 324.120 47.705,323.807 47.787,324.305 47.883 M267.300 52.294 C 268.345 52.376,270.055 52.376,271.100 52.294 C 272.145 52.212,271.290 52.144,269.200 52.144 C 267.110 52.144,266.255 52.212,267.300 52.294 M300.313 52.295 C 301.476 52.376,303.276 52.376,304.313 52.293 C 305.351 52.211,304.400 52.145,302.200 52.146 C 300.000 52.147,299.151 52.214,300.313 52.295 M173.705 83.487 C 174.314 83.579,175.214 83.577,175.705 83.482 C 176.197 83.387,175.700 83.311,174.600 83.314 C 173.500 83.317,173.097 83.395,173.705 83.487 M124.500 153.087 C 125.105 153.178,126.095 153.178,126.700 153.087 C 127.305 152.995,126.810 152.920,125.600 152.920 C 124.390 152.920,123.895 152.995,124.500 153.087 M99.107 156.690 C 99.826 156.779,100.906 156.777,101.507 156.686 C 102.108 156.595,101.520 156.522,100.200 156.524 C 98.880 156.526,98.388 156.601,99.107 156.690 M328.905 168.287 C 329.514 168.379,330.414 168.377,330.905 168.282 C 331.397 168.187,330.900 168.111,329.800 168.114 C 328.700 168.117,328.297 168.195,328.905 168.287 M261.600 169.077 C 262.150 169.189,262.749 169.488,262.930 169.740 C 263.151 170.048,263.207 170.001,263.100 169.600 C 263.009 169.262,262.429 168.972,261.769 168.937 C 260.762 168.882,260.739 168.901,261.600 169.077 M89.705 219.087 C 90.314 219.179,91.214 219.177,91.705 219.082 C 92.197 218.987,91.700 218.911,90.600 218.914 C 89.500 218.917,89.097 218.995,89.705 219.087 M262.307 226.290 C 263.026 226.379,264.106 226.377,264.707 226.286 C 265.308 226.195,264.720 226.122,263.400 226.124 C 262.080 226.126,261.588 226.201,262.307 226.290 M313.900 230.695 C 315.055 230.776,316.945 230.776,318.100 230.695 C 319.255 230.614,318.310 230.548,316.000 230.548 C 313.690 230.548,312.745 230.614,313.900 230.695 M190.700 269.089 C 191.415 269.178,192.585 269.178,193.300 269.089 C 194.015 269.001,193.430 268.928,192.000 268.928 C 190.570 268.928,189.985 269.001,190.700 269.089 M83.105 276.283 C 83.602 276.379,84.322 276.375,84.705 276.275 C 85.087 276.175,84.680 276.096,83.800 276.101 C 82.920 276.105,82.607 276.187,83.105 276.283 M65.505 280.683 C 66.002 280.779,66.722 280.775,67.105 280.675 C 67.487 280.575,67.080 280.496,66.200 280.501 C 65.320 280.505,65.007 280.587,65.505 280.683 M292.700 299.495 C 293.855 299.576,295.745 299.576,296.900 299.495 C 298.055 299.414,297.110 299.348,294.800 299.348 C 292.490 299.348,291.545 299.414,292.700 299.495 M58.305 343.083 C 58.802 343.179,59.522 343.175,59.905 343.075 C 60.287 342.975,59.880 342.896,59.000 342.901 C 58.120 342.905,57.807 342.987,58.305 343.083 M262.105 354.687 C 262.714 354.779,263.614 354.777,264.105 354.682 C 264.597 354.587,264.100 354.511,263.000 354.514 C 261.900 354.517,261.497 354.595,262.105 354.687 M325.305 354.687 C 325.914 354.779,326.814 354.777,327.305 354.682 C 327.797 354.587,327.300 354.511,326.200 354.514 C 325.100 354.517,324.697 354.595,325.305 354.687 " stroke="none" fill="#505c8c" fill-rule="evenodd"></path><path id="path4" d="M61.905 40.683 C 62.402 40.779,63.122 40.775,63.505 40.675 C 63.887 40.575,63.480 40.496,62.600 40.501 C 61.720 40.505,61.407 40.587,61.905 40.683 M245.160 47.720 C 245.346 47.906,246.106 47.996,246.849 47.919 C 248.167 47.783,248.158 47.775,246.510 47.580 C 245.581 47.471,244.973 47.533,245.160 47.720 M324.305 47.883 C 324.802 47.979,325.522 47.975,325.905 47.875 C 326.287 47.775,325.880 47.696,325.000 47.701 C 324.120 47.705,323.807 47.787,324.305 47.883 M267.300 52.294 C 268.345 52.376,270.055 52.376,271.100 52.294 C 272.145 52.212,271.290 52.144,269.200 52.144 C 267.110 52.144,266.255 52.212,267.300 52.294 M300.313 52.295 C 301.476 52.376,303.276 52.376,304.313 52.293 C 305.351 52.211,304.400 52.145,302.200 52.146 C 300.000 52.147,299.151 52.214,300.313 52.295 M173.705 83.487 C 174.314 83.579,175.214 83.577,175.705 83.482 C 176.197 83.387,175.700 83.311,174.600 83.314 C 173.500 83.317,173.097 83.395,173.705 83.487 M124.500 153.087 C 125.105 153.178,126.095 153.178,126.700 153.087 C 127.305 152.995,126.810 152.920,125.600 152.920 C 124.390 152.920,123.895 152.995,124.500 153.087 M99.107 156.690 C 99.826 156.779,100.906 156.777,101.507 156.686 C 102.108 156.595,101.520 156.522,100.200 156.524 C 98.880 156.526,98.388 156.601,99.107 156.690 M328.905 168.287 C 329.514 168.379,330.414 168.377,330.905 168.282 C 331.397 168.187,330.900 168.111,329.800 168.114 C 328.700 168.117,328.297 168.195,328.905 168.287 M261.600 169.077 C 262.150 169.189,262.749 169.488,262.930 169.740 C 263.151 170.048,263.207 170.001,263.100 169.600 C 263.009 169.262,262.429 168.972,261.769 168.937 C 260.762 168.882,260.739 168.901,261.600 169.077 M89.705 219.087 C 90.314 219.179,91.214 219.177,91.705 219.082 C 92.197 218.987,91.700 218.911,90.600 218.914 C 89.500 218.917,89.097 218.995,89.705 219.087 M262.307 226.290 C 263.026 226.379,264.106 226.377,264.707 226.286 C 265.308 226.195,264.720 226.122,263.400 226.124 C 262.080 226.126,261.588 226.201,262.307 226.290 M313.900 230.695 C 315.055 230.776,316.945 230.776,318.100 230.695 C 319.255 230.614,318.310 230.548,316.000 230.548 C 313.690 230.548,312.745 230.614,313.900 230.695 M190.700 269.089 C 191.415 269.178,192.585 269.178,193.300 269.089 C 194.015 269.001,193.430 268.928,192.000 268.928 C 190.570 268.928,189.985 269.001,190.700 269.089 M83.105 276.283 C 83.602 276.379,84.322 276.375,84.705 276.275 C 85.087 276.175,84.680 276.096,83.800 276.101 C 82.920 276.105,82.607 276.187,83.105 276.283 M65.505 280.683 C 66.002 280.779,66.722 280.775,67.105 280.675 C 67.487 280.575,67.080 280.496,66.200 280.501 C 65.320 280.505,65.007 280.587,65.505 280.683 M292.700 299.495 C 293.855 299.576,295.745 299.576,296.900 299.495 C 298.055 299.414,297.110 299.348,294.800 299.348 C 292.490 299.348,291.545 299.414,292.700 299.495 M58.305 343.083 C 58.802 343.179,59.522 343.175,59.905 343.075 C 60.287 342.975,59.880 342.896,59.000 342.901 C 58.120 342.905,57.807 342.987,58.305 343.083 M262.105 354.687 C 262.714 354.779,263.614 354.777,264.105 354.682 C 264.597 354.587,264.100 354.511,263.000 354.514 C 261.900 354.517,261.497 354.595,262.105 354.687 M325.305 354.687 C 325.914 354.779,326.814 354.777,327.305 354.682 C 327.797 354.587,327.300 354.511,326.200 354.514 C 325.100 354.517,324.697 354.595,325.305 354.687 " stroke="none" fill="#505c8c" fill-rule="evenodd"></path></g></svg>