 <svg  version="1.0" xmlns="http://www.w3.org/2000/svg"  width="300.000000pt" height="343.000000pt" viewBox="0 0 300.000000 343.000000"  preserveAspectRatio="xMidYMid meet">  <g transform="translate(0.000000,343.000000) scale(0.100000,-0.100000)" fill="#325096" stroke="none"> <path d="M110 3402 c-46 -23 -59 -36 -82 -82 l-28 -55 0 -1550 0 -1550 28 -55 c23 -46 36 -59 82 -82 121 -61 255 -14 304 106 14 33 16 91 16 381 l0 343 33 7 c17 4 142 34 277 68 l245 60 165 0 c147 0 176 -3 269 -27 57 -14 147 -45 200 -68 185 -79 208 -87 267 -103 177 -47 358 -57 519 -29 78 13 259 66 320 93 11 5 56 23 101 41 49 19 93 44 112 63 65 68 62 7 62 1087 0 863 -2 985 -15 1018 -34 80 -101 122 -194 122 -50 0 -74 -7 -143 -41 -177 -86 -316 -119 -503 -119 -183 0 -327 33 -500 115 -167 79 -292 107 -490 107 -116 0 -169 -5 -235 -21 -187 -44 -461 -112 -475 -117 -12 -5 -15 7 -15 69 0 119 -43 194 -134 231 -58 24 -122 20 -186 -12z m1241 -603 c19 -6 68 -27 109 -47 41 -19 116 -49 165 -67 l90 -33 3 -201 c3 -224 8 -211 -74 -187 -125 37 -205 55 -276 61 l-78 7 0 -214 0 -215 -87 -6 c-49 -3 -108 -11 -133 -17 -25 -6 -81 -19 -125 -28 l-80 -18 -3 -212 -2 -211 -38 -10 c-20 -5 -48 -12 -62 -15 -14 -4 -85 -22 -159 -41 -73 -19 -142 -37 -152 -40 -18 -6 -19 3 -19 212 l0 219 63 13 c34 7 76 16 92 21 17 4 80 18 140 30 61 12 116 24 123 26 9 2 12 56 12 223 0 219 0 219 23 224 147 34 280 57 333 57 l64 0 0 240 c0 268 -4 254 71 229z m-491 -278 l0 -249 -32 -7 c-18 -3 -51 -10 -73 -15 -22 -5 -85 -18 -140 -30 -55 -12 -116 -26 -136 -31 -20 -5 -39 -9 -43 -9 -3 0 -6 109 -6 243 l0 242 153 38 c83 21 175 44 202 52 28 7 56 14 63 14 9 1 12 -55 12 -248z m1710 -104 l0 -233 -62 -13 c-35 -7 -76 -17 -93 -22 -16 -6 -85 -13 -152 -16 l-123 -6 0 -214 0 -213 118 0 c105 0 248 17 295 35 16 7 17 -8 17 -233 l0 -240 -87 -30 c-112 -40 -191 -54 -273 -50 l-65 3 -5 260 -5 260 -40 3 c-58 4 -165 27 -280 60 l-100 29 -3 222 c-2 209 -1 222 15 218 43 -12 172 -51 212 -64 44 -14 173 -43 192 -43 5 0 9 94 9 230 l0 230 38 0 c69 0 348 43 360 55 3 3 11 5 19 5 10 0 13 -45 13 -233z m-1175 -533 c68 -17 80 -21 220 -62 l100 -29 3 -223 c1 -123 -1 -227 -5 -231 -5 -4 -40 4 -80 17 -40 13 -84 26 -98 28 -15 3 -41 10 -60 16 -18 6 -37 10 -41 8 -5 -1 -42 4 -81 11 l-73 13 0 227 c0 125 3 231 7 234 10 11 42 8 108 -9z"/> </g> </svg> 