<svg id="svg" version="1.1" xmlns="http://www.w3.org/2000/svg" xmlns:xlink="http://www.w3.org/1999/xlink" width="400" height="320" viewBox="0, 0, 400,320"><g id="svgg"><path id="path0" d="M149.120 40.000 C 149.120 40.176,148.480 40.320,147.699 40.320 C 146.917 40.320,146.189 40.464,146.080 40.640 C 145.971 40.816,145.162 40.960,144.282 40.960 C 143.297 40.960,142.758 41.083,142.880 41.280 C 143.001 41.476,142.504 41.600,141.600 41.600 C 140.696 41.600,140.199 41.724,140.320 41.920 C 140.435 42.107,140.110 42.240,139.539 42.240 C 139.000 42.240,138.560 42.384,138.560 42.560 C 138.560 42.736,138.128 42.880,137.600 42.880 C 137.072 42.880,136.640 43.024,136.640 43.200 C 136.640 43.376,136.352 43.520,136.000 43.520 C 135.648 43.520,135.360 43.664,135.360 43.840 C 135.360 44.016,134.928 44.160,134.400 44.160 C 133.872 44.160,133.440 44.304,133.440 44.480 C 133.440 44.656,133.152 44.800,132.800 44.800 C 132.448 44.800,132.159 44.908,132.158 45.040 C 132.155 45.327,130.605 46.080,130.016 46.080 C 129.787 46.080,129.600 46.224,129.600 46.400 C 129.600 46.576,129.319 46.720,128.976 46.720 C 128.634 46.720,127.965 47.080,127.490 47.520 C 126.705 48.247,126.466 48.364,125.896 48.299 C 125.794 48.287,125.454 48.575,125.138 48.939 C 124.823 49.303,124.345 49.600,124.077 49.600 C 123.808 49.600,123.510 49.805,123.414 50.056 C 123.317 50.307,122.726 50.755,122.099 51.052 C 121.473 51.350,120.960 51.721,120.960 51.876 C 120.960 52.032,120.766 52.160,120.530 52.160 C 120.293 52.160,119.839 52.448,119.520 52.800 C 119.201 53.152,118.707 53.440,118.421 53.440 C 118.135 53.440,117.694 53.728,117.440 54.080 C 117.186 54.432,116.732 54.720,116.431 54.720 C 116.130 54.720,115.792 55.008,115.680 55.360 C 115.568 55.712,115.199 56.000,114.858 56.000 C 114.518 56.000,114.240 56.120,114.240 56.266 C 114.240 56.412,113.844 56.735,113.360 56.984 C 112.876 57.232,112.247 57.689,111.962 57.998 C 111.678 58.307,111.242 58.560,110.993 58.560 C 110.745 58.560,110.334 58.848,110.080 59.200 C 109.826 59.552,109.363 59.840,109.049 59.840 C 108.736 59.840,108.480 59.992,108.480 60.179 C 108.480 60.365,108.336 60.429,108.160 60.320 C 107.984 60.211,107.840 60.362,107.840 60.655 C 107.840 60.982,107.666 61.122,107.390 61.016 C 107.143 60.921,106.688 61.121,106.380 61.462 C 106.073 61.802,105.587 62.080,105.301 62.080 C 105.015 62.080,104.574 62.368,104.320 62.720 C 104.066 63.072,103.637 63.360,103.366 63.360 C 103.096 63.360,102.694 63.648,102.474 64.000 C 102.254 64.352,101.779 64.640,101.418 64.640 C 101.058 64.640,100.851 64.784,100.960 64.960 C 101.069 65.136,100.925 65.280,100.640 65.280 C 100.355 65.280,100.211 65.424,100.320 65.600 C 100.429 65.776,100.256 65.920,99.936 65.920 C 99.616 65.920,99.174 66.208,98.954 66.560 C 98.734 66.912,98.300 67.200,97.988 67.200 C 97.676 67.200,97.214 67.488,96.960 67.840 C 96.706 68.192,96.274 68.480,96.000 68.480 C 95.726 68.480,95.294 68.768,95.040 69.120 C 94.786 69.472,94.375 69.760,94.127 69.760 C 93.878 69.760,93.442 70.013,93.158 70.322 C 92.873 70.631,92.244 71.088,91.760 71.336 C 91.276 71.585,90.880 71.908,90.880 72.054 C 90.880 72.200,90.592 72.320,90.240 72.320 C 89.888 72.320,89.600 72.461,89.600 72.634 C 89.600 72.807,89.268 73.031,88.861 73.133 C 88.455 73.235,87.859 73.670,87.537 74.099 C 87.214 74.529,86.772 74.880,86.554 74.880 C 86.337 74.880,85.979 75.096,85.760 75.360 C 85.541 75.624,85.126 75.840,84.838 75.840 C 84.550 75.840,84.134 76.128,83.914 76.480 C 83.694 76.832,83.327 77.120,83.098 77.120 C 82.868 77.120,82.402 77.372,82.060 77.680 C 81.719 77.988,81.044 78.444,80.560 78.694 L 79.680 79.148 79.680 149.654 L 79.680 220.160 88.327 220.160 L 96.974 220.160 98.734 221.920 C 99.702 222.888,100.383 223.681,100.247 223.682 C 100.111 223.683,100.397 223.946,100.883 224.266 C 101.368 224.586,101.668 224.945,101.549 225.064 C 101.430 225.183,101.597 225.280,101.919 225.280 C 102.241 225.280,103.777 226.568,105.332 228.143 C 106.887 229.718,108.161 230.906,108.162 230.783 C 108.163 230.660,108.433 230.968,108.762 231.466 C 109.091 231.965,109.450 232.361,109.560 232.346 C 109.670 232.332,109.886 232.320,110.040 232.320 C 110.420 232.320,114.560 236.441,114.560 236.819 C 114.560 236.985,114.766 237.120,115.018 237.120 C 115.271 237.120,115.568 237.408,115.680 237.760 C 115.792 238.112,116.096 238.400,116.357 238.400 C 116.618 238.400,118.271 239.840,120.031 241.600 C 121.791 243.360,123.408 244.800,123.623 244.800 C 123.994 244.800,125.259 245.998,128.945 249.840 C 129.832 250.764,130.704 251.520,130.883 251.520 C 131.062 251.520,132.350 252.657,133.745 254.046 C 135.140 255.435,136.362 256.491,136.461 256.393 C 136.559 256.294,136.640 256.444,136.640 256.725 C 136.640 257.007,136.933 257.330,137.290 257.443 C 137.648 257.557,138.296 258.005,138.730 258.439 C 139.165 258.874,139.529 259.115,139.540 258.975 C 139.551 258.835,139.691 259.044,139.850 259.440 C 140.009 259.836,140.384 260.160,140.683 260.160 C 140.982 260.160,141.138 260.249,141.029 260.358 C 140.786 260.601,141.584 261.440,142.057 261.440 C 142.246 261.440,142.400 261.561,142.400 261.708 C 142.400 262.106,144.880 264.640,145.269 264.640 C 145.454 264.640,147.057 266.080,148.831 267.840 C 150.606 269.600,152.186 271.040,152.342 271.040 C 152.498 271.040,153.430 271.832,154.414 272.800 C 155.398 273.768,156.377 274.560,156.591 274.560 C 156.804 274.560,157.186 274.848,157.440 275.200 C 157.694 275.552,158.157 275.840,158.471 275.840 C 158.784 275.840,159.040 275.984,159.040 276.160 C 159.040 276.336,159.296 276.480,159.609 276.480 C 159.923 276.480,160.386 276.768,160.640 277.120 C 160.894 277.472,161.401 277.760,161.767 277.760 C 162.553 277.760,164.154 278.456,164.158 278.800 C 164.159 278.932,164.592 279.040,165.120 279.040 C 165.648 279.040,166.080 279.184,166.080 279.360 C 166.080 279.536,166.664 279.680,167.379 279.680 C 168.163 279.680,168.599 279.807,168.480 280.000 C 168.351 280.209,170.390 280.320,174.362 280.320 C 178.070 280.320,180.519 280.195,180.640 280.000 C 180.749 279.824,181.549 279.680,182.419 279.680 C 183.288 279.680,184.000 279.536,184.000 279.360 C 184.000 279.184,184.432 279.040,184.960 279.040 C 185.488 279.040,185.920 278.896,185.920 278.720 C 185.920 278.544,186.196 278.400,186.533 278.400 C 186.871 278.400,187.195 278.292,187.253 278.160 C 187.391 277.850,191.337 275.840,191.808 275.840 C 192.005 275.840,192.346 275.552,192.566 275.200 C 192.786 274.848,193.115 274.560,193.297 274.560 C 193.480 274.560,193.977 274.212,194.403 273.787 C 194.828 273.361,195.441 272.821,195.764 272.587 C 196.088 272.352,196.597 271.804,196.896 271.369 C 197.195 270.934,197.440 270.670,197.440 270.782 C 197.440 270.895,197.944 270.497,198.560 269.899 C 199.176 269.301,199.680 268.615,199.680 268.375 C 199.680 268.135,199.968 267.679,200.320 267.360 C 200.672 267.041,200.960 266.587,200.960 266.350 C 200.960 266.114,201.104 265.920,201.280 265.920 C 201.456 265.920,201.600 265.632,201.600 265.280 C 201.600 264.928,201.744 264.640,201.920 264.640 C 202.096 264.640,202.240 264.352,202.240 264.000 C 202.240 263.648,202.384 263.360,202.560 263.360 C 202.736 263.360,202.880 263.072,202.880 262.720 C 202.880 262.368,203.024 262.080,203.200 262.080 C 203.376 262.080,203.520 261.800,203.520 261.459 C 203.520 261.117,203.664 260.749,203.840 260.640 C 204.016 260.531,204.160 260.091,204.160 259.661 C 204.160 259.093,204.335 258.880,204.800 258.880 C 205.166 258.880,205.440 259.093,205.440 259.379 C 205.440 259.653,205.553 259.808,205.691 259.723 C 205.829 259.638,206.297 260.014,206.731 260.559 C 208.078 262.252,211.860 265.920,212.260 265.922 C 212.469 265.922,213.471 266.786,214.486 267.842 C 215.501 268.897,216.513 269.760,216.735 269.760 C 216.957 269.760,217.341 270.040,217.588 270.383 C 217.835 270.725,218.143 270.940,218.272 270.860 C 218.402 270.780,218.740 270.945,219.022 271.228 C 219.305 271.511,219.756 271.658,220.025 271.555 C 220.303 271.448,220.429 271.503,220.318 271.684 C 220.210 271.858,220.355 272.000,220.640 272.000 C 220.925 272.000,221.073 272.137,220.969 272.305 C 220.866 272.473,221.397 272.764,222.150 272.952 C 222.904 273.141,223.770 273.435,224.076 273.607 C 224.381 273.779,224.921 273.920,225.276 273.920 C 225.630 273.920,225.920 274.064,225.920 274.240 C 225.920 274.416,226.640 274.560,227.520 274.560 C 228.400 274.560,229.120 274.704,229.120 274.880 C 229.120 275.082,231.307 275.200,235.040 275.200 C 238.773 275.200,240.960 275.082,240.960 274.880 C 240.960 274.704,241.680 274.560,242.560 274.560 C 243.440 274.560,244.160 274.416,244.160 274.240 C 244.160 274.064,244.426 273.920,244.751 273.920 C 245.289 273.920,246.649 273.388,248.076 272.619 C 248.381 272.455,248.849 272.320,249.116 272.320 C 249.382 272.320,249.600 272.211,249.600 272.078 C 249.600 271.832,251.594 270.847,251.784 270.999 C 251.842 271.045,252.146 270.785,252.462 270.421 C 252.777 270.057,253.205 269.760,253.412 269.760 C 253.619 269.760,254.851 268.680,256.150 267.360 C 257.449 266.040,258.414 264.959,258.296 264.958 C 258.177 264.957,258.454 264.705,258.911 264.398 C 259.369 264.091,259.679 263.653,259.600 263.425 C 259.521 263.197,259.759 262.748,260.128 262.427 C 260.498 262.107,260.800 261.610,260.800 261.322 C 260.800 261.035,260.944 260.800,261.120 260.800 C 261.296 260.800,261.440 260.504,261.440 260.141 C 261.440 259.779,261.584 259.571,261.760 259.680 C 261.936 259.789,262.080 259.682,262.080 259.443 C 262.080 258.839,262.828 257.286,263.120 257.282 C 263.252 257.281,263.360 256.992,263.360 256.640 C 263.360 255.851,263.825 255.814,264.382 256.560 C 264.612 256.868,265.015 257.168,265.277 257.226 C 265.539 257.284,265.827 257.428,265.917 257.546 C 266.007 257.664,266.296 257.807,266.560 257.864 C 266.824 257.921,267.088 258.101,267.147 258.264 C 267.205 258.427,267.665 258.560,268.168 258.560 C 268.671 258.560,269.159 258.685,269.253 258.837 C 269.348 258.989,269.788 259.045,270.232 258.960 C 270.788 258.854,271.040 258.947,271.040 259.258 C 271.040 259.585,271.343 259.676,272.122 259.585 C 272.717 259.516,273.302 259.617,273.421 259.809 C 273.566 260.045,275.734 260.160,280.000 260.160 C 284.266 260.160,286.434 260.045,286.579 259.809 C 286.698 259.617,287.283 259.516,287.878 259.585 C 288.643 259.674,288.960 259.583,288.960 259.273 C 288.960 259.006,289.241 258.868,289.680 258.921 C 290.076 258.969,290.724 258.830,291.120 258.613 C 291.516 258.395,291.842 258.331,291.845 258.469 C 291.848 258.607,291.964 258.541,292.103 258.322 C 292.242 258.102,292.744 257.891,293.218 257.852 C 293.692 257.813,294.080 257.624,294.080 257.432 C 294.080 257.100,296.199 256.000,296.837 256.000 C 297.003 256.000,297.346 255.712,297.600 255.360 C 297.854 255.008,298.245 254.720,298.471 254.720 C 298.696 254.720,298.880 254.576,298.880 254.400 C 298.880 254.224,299.120 254.080,299.413 254.080 C 299.707 254.080,299.860 253.993,299.753 253.887 C 299.647 253.780,300.703 252.562,302.100 251.180 C 303.497 249.798,304.640 248.477,304.640 248.244 C 304.640 248.012,304.928 247.614,305.280 247.360 C 305.632 247.106,305.920 246.643,305.920 246.329 C 305.920 246.016,306.064 245.760,306.240 245.760 C 306.416 245.760,306.560 245.610,306.560 245.427 C 306.560 245.243,306.848 244.784,307.200 244.406 C 307.552 244.028,307.840 243.386,307.840 242.980 C 307.840 242.573,307.984 242.240,308.160 242.240 C 308.336 242.240,308.480 241.960,308.480 241.619 C 308.480 241.277,308.624 240.909,308.800 240.800 C 308.976 240.691,309.120 240.251,309.120 239.821 C 309.120 239.392,309.264 239.040,309.440 239.040 C 309.616 239.040,309.760 238.328,309.760 237.459 C 309.760 236.589,309.909 235.786,310.092 235.673 C 310.499 235.421,310.479 224.082,310.071 223.938 C 309.919 223.884,309.760 223.164,309.718 222.338 C 309.676 221.511,309.525 220.908,309.381 220.996 C 309.237 221.085,309.120 220.798,309.120 220.358 C 309.120 219.918,308.976 219.469,308.800 219.360 C 308.624 219.251,308.480 218.883,308.480 218.541 C 308.480 218.200,308.336 217.920,308.160 217.920 C 307.984 217.920,307.840 217.578,307.840 217.159 C 307.840 216.741,307.627 216.222,307.367 216.006 C 306.836 215.565,305.920 213.853,305.920 213.301 C 305.920 213.103,305.632 212.734,305.280 212.480 C 304.928 212.226,304.640 211.848,304.640 211.639 C 304.640 211.137,301.880 208.306,301.632 208.554 C 301.527 208.660,301.440 208.543,301.439 208.293 C 301.439 208.044,301.017 207.558,300.502 207.213 C 299.987 206.868,299.636 206.472,299.722 206.333 C 299.807 206.194,299.629 206.080,299.326 206.080 C 299.022 206.080,298.862 205.991,298.971 205.882 C 299.229 205.625,298.404 204.800,297.890 204.800 C 297.672 204.800,297.578 204.715,297.682 204.611 C 297.913 204.381,295.758 202.240,295.296 202.240 C 295.116 202.240,293.397 200.656,291.478 198.720 C 289.558 196.784,287.841 195.200,287.663 195.200 C 287.485 195.200,285.820 193.688,283.963 191.840 C 282.106 189.992,280.437 188.480,280.255 188.480 C 280.072 188.480,278.348 186.896,276.423 184.960 C 274.498 183.024,272.787 181.440,272.620 181.440 C 272.453 181.440,270.783 179.928,268.908 178.080 C 267.032 176.232,265.378 174.720,265.231 174.720 C 264.818 174.720,259.029 168.870,259.128 168.553 C 259.176 168.399,259.068 168.364,258.888 168.475 C 258.708 168.587,258.560 168.445,258.560 168.160 C 258.560 167.875,258.428 167.724,258.266 167.824 C 258.104 167.924,257.744 167.778,257.466 167.500 C 257.188 167.222,256.960 167.092,256.960 167.211 C 256.960 167.330,255.528 165.972,253.778 164.194 C 252.028 162.415,250.438 160.960,250.246 160.960 C 249.911 160.960,246.080 157.263,246.080 156.940 C 246.080 156.559,243.170 153.920,242.751 153.920 C 242.494 153.920,240.756 152.408,238.887 150.560 C 237.019 148.712,235.348 147.200,235.175 147.200 C 235.001 147.200,234.355 146.696,233.739 146.080 C 233.123 145.464,232.725 144.960,232.854 144.960 C 232.984 144.960,232.765 144.708,232.368 144.400 C 230.972 143.318,229.120 141.437,229.120 141.101 C 229.120 140.915,228.976 140.851,228.800 140.960 C 228.624 141.069,228.480 140.938,228.480 140.669 C 228.480 140.374,228.296 140.251,228.017 140.358 C 227.721 140.471,226.288 139.262,224.027 136.988 C 222.088 135.036,220.271 133.440,219.991 133.440 C 219.711 133.440,219.571 133.296,219.680 133.120 C 219.789 132.944,219.681 132.800,219.440 132.800 C 219.200 132.800,218.579 132.227,218.061 131.528 C 216.911 129.972,216.025 129.884,214.768 131.200 C 214.264 131.728,213.722 132.162,213.565 132.163 C 213.408 132.165,212.704 132.706,212.000 133.365 C 211.296 134.023,210.329 134.764,209.851 135.009 C 209.373 135.255,209.044 135.557,209.120 135.680 C 209.196 135.803,208.867 136.098,208.389 136.336 C 207.911 136.573,206.997 137.315,206.357 137.984 C 205.717 138.653,204.993 139.200,204.748 139.200 C 204.502 139.200,204.099 139.480,203.852 139.823 C 203.605 140.165,203.286 140.373,203.142 140.284 C 202.998 140.195,202.880 140.353,202.880 140.635 C 202.880 140.917,202.700 141.119,202.480 141.084 C 201.839 140.980,200.960 141.471,200.960 141.933 C 200.960 142.166,200.672 142.448,200.320 142.560 C 199.968 142.672,199.680 142.897,199.680 143.062 C 199.680 143.226,199.450 143.360,199.168 143.360 C 198.887 143.360,198.275 143.756,197.808 144.240 C 197.342 144.724,196.597 145.307,196.152 145.535 C 195.708 145.764,195.060 146.375,194.712 146.894 C 194.365 147.414,193.886 147.839,193.648 147.839 C 193.411 147.840,192.813 148.272,192.320 148.800 C 191.827 149.328,191.254 149.760,191.047 149.760 C 190.839 149.760,190.116 150.336,189.440 151.040 C 188.764 151.744,188.049 152.320,187.851 152.320 C 187.654 152.320,187.104 152.680,186.629 153.120 C 186.155 153.560,185.513 153.920,185.203 153.920 C 184.893 153.920,184.640 154.114,184.640 154.350 C 184.640 154.930,183.598 155.840,182.935 155.840 C 182.641 155.840,182.400 155.960,182.400 156.106 C 182.400 156.252,182.045 156.562,181.611 156.794 C 181.177 157.026,180.897 157.339,180.990 157.488 C 181.082 157.638,180.861 157.760,180.499 157.760 C 180.136 157.760,179.840 157.904,179.840 158.080 C 179.840 158.256,179.584 158.400,179.271 158.400 C 178.957 158.400,178.494 158.688,178.240 159.040 C 177.986 159.392,177.523 159.680,177.209 159.680 C 176.896 159.680,176.640 159.824,176.640 160.000 C 176.640 160.176,176.352 160.320,176.000 160.320 C 175.648 160.320,175.360 160.464,175.360 160.640 C 175.360 160.816,175.072 160.960,174.720 160.960 C 174.368 160.960,174.080 161.104,174.080 161.280 C 174.080 161.456,173.648 161.600,173.120 161.600 C 172.592 161.600,172.160 161.744,172.160 161.920 C 172.160 162.096,171.808 162.240,171.379 162.240 C 170.949 162.240,170.509 162.384,170.400 162.560 C 170.291 162.736,169.859 162.880,169.440 162.880 C 169.021 162.880,168.589 163.024,168.480 163.200 C 168.371 163.376,167.787 163.520,167.181 163.520 C 166.576 163.520,166.080 163.664,166.080 163.840 C 166.080 164.016,165.360 164.160,164.480 164.160 C 163.600 164.160,162.880 164.304,162.880 164.480 C 162.880 164.682,160.693 164.800,156.960 164.800 C 153.227 164.800,151.040 164.682,151.040 164.480 C 151.040 164.304,150.320 164.160,149.440 164.160 C 148.560 164.160,147.840 164.016,147.840 163.840 C 147.840 163.664,147.264 163.520,146.560 163.520 C 145.856 163.520,145.280 163.376,145.280 163.200 C 145.280 163.024,144.848 162.880,144.320 162.880 C 143.792 162.880,143.360 162.736,143.360 162.560 C 143.360 162.384,142.928 162.240,142.400 162.240 C 141.872 162.240,141.440 162.096,141.440 161.920 C 141.440 161.744,141.000 161.600,140.461 161.600 C 139.890 161.600,139.565 161.467,139.680 161.280 C 139.789 161.104,139.581 160.960,139.219 160.960 C 138.856 160.960,138.560 160.816,138.560 160.640 C 138.560 160.464,138.272 160.320,137.920 160.320 C 137.568 160.320,137.280 160.176,137.280 160.000 C 137.280 159.824,137.062 159.680,136.796 159.680 C 136.178 159.680,135.037 159.041,134.366 158.320 C 134.079 158.012,133.642 157.760,133.393 157.760 C 133.145 157.760,132.734 157.472,132.480 157.120 C 132.226 156.768,131.818 156.480,131.572 156.480 C 131.326 156.480,130.397 155.760,129.508 154.880 C 128.619 154.000,127.736 153.279,127.546 153.278 C 127.356 153.277,126.735 152.809,126.166 152.238 C 124.528 150.593,124.160 150.147,124.160 149.807 C 124.160 149.632,123.584 148.925,122.880 148.235 C 122.176 147.544,121.600 146.773,121.600 146.521 C 121.600 146.268,121.312 145.854,120.960 145.600 C 120.608 145.346,120.320 144.898,120.320 144.604 C 120.320 144.309,120.120 143.992,119.875 143.898 C 119.630 143.804,119.024 142.888,118.527 141.863 C 118.030 140.839,117.510 139.952,117.372 139.893 C 117.233 139.835,117.120 139.511,117.120 139.173 C 117.120 138.836,116.976 138.560,116.800 138.560 C 116.624 138.560,116.480 138.128,116.480 137.600 C 116.480 137.072,116.336 136.640,116.160 136.640 C 115.984 136.640,115.840 136.352,115.840 136.000 C 115.840 135.648,115.696 135.360,115.520 135.360 C 115.344 135.360,115.200 134.928,115.200 134.400 C 115.200 133.872,115.056 133.440,114.880 133.440 C 114.704 133.440,114.560 132.944,114.560 132.339 C 114.560 131.733,114.416 131.149,114.240 131.040 C 114.064 130.931,113.920 130.211,113.920 129.440 C 113.920 128.669,113.776 127.949,113.600 127.840 C 113.404 127.719,113.280 125.117,113.280 121.101 C 113.280 116.954,113.397 114.560,113.600 114.560 C 113.776 114.560,113.920 113.832,113.920 112.941 C 113.920 111.943,114.043 111.398,114.240 111.520 C 114.433 111.639,114.560 111.203,114.560 110.419 C 114.560 109.704,114.704 109.120,114.880 109.120 C 115.056 109.120,115.200 108.688,115.200 108.160 C 115.200 107.632,115.344 107.200,115.520 107.200 C 115.696 107.200,115.840 106.768,115.840 106.240 C 115.840 105.712,115.984 105.280,116.160 105.280 C 116.336 105.280,116.480 104.992,116.480 104.640 C 116.480 104.288,116.624 104.000,116.800 104.000 C 116.976 104.000,117.120 103.712,117.120 103.360 C 117.120 103.008,117.264 102.720,117.440 102.720 C 117.616 102.720,117.760 102.432,117.760 102.080 C 117.760 101.728,117.904 101.440,118.080 101.440 C 118.256 101.440,118.400 101.152,118.400 100.800 C 118.400 100.448,118.544 100.160,118.720 100.160 C 118.896 100.160,119.040 99.945,119.040 99.683 C 119.040 99.420,119.328 99.026,119.680 98.806 C 120.032 98.586,120.320 98.090,120.320 97.705 C 120.320 97.284,120.576 96.922,120.960 96.800 C 121.312 96.688,121.600 96.376,121.600 96.107 C 121.600 95.837,122.032 95.213,122.560 94.720 C 123.088 94.227,123.520 93.593,123.520 93.312 C 123.520 93.030,123.672 92.800,123.859 92.800 C 124.045 92.800,124.122 92.678,124.030 92.528 C 123.937 92.379,124.217 92.066,124.651 91.834 C 125.085 91.602,125.440 91.315,125.440 91.196 C 125.440 90.804,128.596 87.680,128.992 87.680 C 129.205 87.680,129.934 87.096,130.613 86.383 C 131.291 85.670,131.990 85.175,132.166 85.284 C 132.494 85.487,133.439 84.731,133.441 84.263 C 133.441 84.118,133.873 83.712,134.400 83.360 C 134.927 83.008,135.359 82.612,135.359 82.480 C 135.360 82.348,135.575 82.240,135.837 82.240 C 136.100 82.240,136.494 81.952,136.714 81.600 C 136.934 81.248,137.264 80.960,137.446 80.960 C 137.629 80.960,137.986 80.672,138.240 80.320 C 138.494 79.968,138.981 79.680,139.324 79.680 C 139.666 79.680,139.860 79.594,139.755 79.488 C 139.513 79.246,141.614 77.120,142.094 77.120 C 142.290 77.120,143.004 76.544,143.680 75.840 C 144.356 75.136,145.070 74.560,145.266 74.560 C 145.625 74.560,146.638 73.732,147.909 72.400 C 148.286 72.004,148.756 71.680,148.953 71.680 C 149.149 71.680,149.873 71.104,150.560 70.400 C 151.247 69.696,152.093 69.120,152.438 69.120 C 152.784 69.120,152.980 69.034,152.875 68.928 C 152.633 68.686,154.734 66.560,155.214 66.560 C 155.410 66.560,156.124 65.984,156.800 65.280 C 157.476 64.576,158.196 64.000,158.400 64.000 C 158.604 64.000,159.324 63.424,160.000 62.720 C 160.676 62.016,161.362 61.440,161.524 61.440 C 161.686 61.440,162.399 60.870,163.110 60.174 C 163.820 59.478,164.491 58.998,164.601 59.107 C 164.710 59.217,164.800 59.139,164.800 58.933 C 164.800 58.728,165.009 58.560,165.265 58.560 C 165.521 58.560,166.193 57.984,166.758 57.280 C 167.324 56.576,167.995 56.000,168.250 56.000 C 168.505 56.000,169.218 55.424,169.835 54.720 C 170.452 54.016,171.120 53.439,171.319 53.438 C 171.517 53.436,172.256 52.868,172.960 52.173 C 173.664 51.479,174.397 50.904,174.589 50.896 C 175.024 50.876,177.600 48.378,177.600 47.975 C 177.600 47.813,177.968 47.680,178.419 47.680 C 178.883 47.680,179.152 47.541,179.040 47.360 C 178.931 47.184,179.031 47.040,179.261 47.039 C 179.492 47.039,179.968 46.607,180.320 46.080 C 180.672 45.553,181.068 45.121,181.200 45.121 C 181.596 45.119,181.472 44.466,180.983 43.977 C 180.731 43.726,180.236 43.520,179.882 43.520 C 179.528 43.520,179.149 43.376,179.040 43.200 C 178.931 43.024,178.499 42.880,178.080 42.880 C 177.661 42.880,177.229 42.736,177.120 42.560 C 177.011 42.384,176.571 42.240,176.141 42.240 C 175.712 42.240,175.360 42.096,175.360 41.920 C 175.360 41.744,174.928 41.600,174.400 41.600 C 173.872 41.600,173.440 41.456,173.440 41.280 C 173.440 41.104,172.720 40.960,171.840 40.960 C 170.960 40.960,170.240 40.816,170.240 40.640 C 170.240 40.464,169.456 40.320,168.499 40.320 C 167.541 40.320,166.669 40.176,166.560 40.000 C 166.436 39.799,163.143 39.680,157.741 39.680 C 152.207 39.680,149.120 39.795,149.120 40.000 M230.400 40.000 C 230.400 40.176,229.760 40.320,228.979 40.320 C 228.197 40.320,227.469 40.464,227.360 40.640 C 227.251 40.816,226.451 40.960,225.581 40.960 C 224.712 40.960,224.000 41.104,224.000 41.280 C 224.000 41.456,223.568 41.600,223.040 41.600 C 222.512 41.600,222.080 41.744,222.080 41.920 C 222.080 42.096,221.640 42.240,221.101 42.240 C 220.530 42.240,220.205 42.373,220.320 42.560 C 220.435 42.747,220.110 42.880,219.539 42.880 C 219.000 42.880,218.560 43.024,218.560 43.200 C 218.560 43.376,218.128 43.520,217.600 43.520 C 217.072 43.520,216.640 43.664,216.640 43.840 C 216.640 44.016,216.352 44.160,216.000 44.160 C 215.648 44.160,215.360 44.304,215.360 44.480 C 215.360 44.656,215.072 44.800,214.720 44.800 C 214.368 44.800,214.080 44.944,214.080 45.120 C 214.080 45.296,213.680 45.440,213.191 45.440 C 212.668 45.440,212.111 45.704,211.840 46.080 C 211.586 46.432,211.199 46.720,210.979 46.720 C 210.413 46.720,208.117 47.953,207.663 48.501 C 207.453 48.753,207.043 48.960,206.751 48.960 C 206.460 48.960,206.014 49.248,205.760 49.600 C 205.506 49.952,205.116 50.240,204.892 50.240 C 204.669 50.240,204.073 50.672,203.568 51.200 C 203.064 51.728,202.475 52.160,202.260 52.160 C 202.046 52.160,201.316 52.736,200.640 53.440 C 199.964 54.144,199.238 54.720,199.029 54.720 C 198.819 54.720,198.142 55.296,197.525 56.000 C 196.908 56.704,196.132 57.280,195.801 57.280 C 195.471 57.280,195.200 57.417,195.200 57.584 C 195.200 58.017,193.198 59.837,192.720 59.839 C 192.500 59.839,192.320 59.992,192.320 60.179 C 192.320 60.365,192.207 60.448,192.069 60.363 C 191.931 60.278,191.483 60.629,191.073 61.144 C 190.663 61.659,190.135 62.080,189.899 62.080 C 189.663 62.080,188.750 62.800,187.870 63.680 C 186.990 64.560,186.084 65.283,185.855 65.287 C 185.627 65.291,184.945 65.867,184.339 66.567 C 183.734 67.267,183.039 67.840,182.796 67.840 C 182.553 67.840,182.138 68.056,181.874 68.320 C 181.610 68.584,181.513 68.801,181.657 68.802 C 181.802 68.803,181.523 69.066,181.037 69.386 C 180.552 69.706,180.252 70.065,180.371 70.184 C 180.490 70.303,180.335 70.400,180.028 70.400 C 179.721 70.400,178.916 70.976,178.240 71.680 C 177.564 72.384,176.809 72.960,176.563 72.960 C 176.317 72.960,175.806 73.284,175.429 73.680 C 174.261 74.905,173.155 75.840,172.876 75.840 C 172.730 75.840,172.047 76.416,171.360 77.120 C 170.673 77.824,169.913 78.400,169.672 78.400 C 169.186 78.400,168.268 79.201,168.495 79.428 C 168.574 79.507,168.279 79.765,167.840 80.000 C 167.400 80.236,167.040 80.548,167.040 80.694 C 167.040 80.840,166.885 80.960,166.695 80.960 C 166.505 80.960,165.796 81.536,165.120 82.240 C 164.444 82.944,163.726 83.520,163.524 83.520 C 163.323 83.520,162.457 84.240,161.600 85.120 C 160.743 86.000,159.820 86.720,159.549 86.720 C 159.277 86.720,158.597 87.224,158.036 87.840 C 157.476 88.456,156.885 88.960,156.724 88.960 C 156.563 88.960,156.014 89.356,155.506 89.840 C 154.203 91.079,153.658 91.520,153.428 91.520 C 153.319 91.520,152.676 92.096,152.000 92.800 C 151.324 93.504,150.606 94.080,150.404 94.080 C 150.203 94.080,149.337 94.800,148.480 95.680 C 147.623 96.560,146.732 97.283,146.501 97.287 C 146.269 97.291,145.585 97.867,144.979 98.567 C 144.374 99.267,143.683 99.840,143.446 99.840 C 143.208 99.840,142.796 100.020,142.531 100.240 C 141.316 101.248,140.480 102.135,140.480 102.415 C 140.480 102.583,140.259 102.720,139.990 102.720 C 139.720 102.720,139.408 102.972,139.296 103.280 C 139.184 103.588,138.397 104.516,137.546 105.342 C 136.696 106.168,136.000 107.068,136.000 107.342 C 136.000 107.616,135.856 107.840,135.680 107.840 C 135.504 107.840,135.360 108.128,135.360 108.480 C 135.360 108.832,135.216 109.120,135.040 109.120 C 134.864 109.120,134.720 109.408,134.720 109.760 C 134.720 110.112,134.576 110.400,134.400 110.400 C 134.224 110.400,134.080 110.688,134.080 111.040 C 134.080 111.392,133.936 111.680,133.760 111.680 C 133.584 111.680,133.440 112.032,133.440 112.461 C 133.440 112.891,133.296 113.331,133.120 113.440 C 132.944 113.549,132.800 114.125,132.800 114.720 C 132.800 115.315,132.656 115.891,132.480 116.000 C 132.288 116.118,132.160 118.237,132.160 121.280 C 132.160 124.323,132.288 126.442,132.480 126.560 C 132.656 126.669,132.800 127.253,132.800 127.859 C 132.800 128.464,132.944 128.960,133.120 128.960 C 133.296 128.960,133.440 129.392,133.440 129.920 C 133.440 130.448,133.584 130.880,133.760 130.880 C 133.936 130.880,134.080 131.168,134.080 131.520 C 134.080 131.872,134.188 132.161,134.320 132.162 C 134.599 132.165,135.360 133.708,135.360 134.270 C 135.360 134.480,135.565 134.730,135.816 134.826 C 136.067 134.923,136.512 135.509,136.807 136.129 C 137.101 136.749,137.616 137.343,137.951 137.450 C 138.286 137.556,138.560 137.788,138.560 137.964 C 138.560 138.422,139.405 139.208,139.642 138.971 C 139.751 138.862,139.840 139.018,139.840 139.317 C 139.840 139.616,140.164 139.991,140.560 140.150 C 140.956 140.309,141.162 140.449,141.017 140.460 C 140.586 140.493,141.677 141.440,142.146 141.440 C 142.384 141.440,142.786 141.728,143.040 142.080 C 143.294 142.432,143.757 142.720,144.071 142.720 C 144.384 142.720,144.640 142.864,144.640 143.040 C 144.640 143.216,144.928 143.360,145.280 143.360 C 145.632 143.360,145.920 143.504,145.920 143.680 C 145.920 143.856,146.208 144.000,146.560 144.000 C 146.912 144.000,147.200 144.144,147.200 144.320 C 147.200 144.496,147.632 144.640,148.160 144.640 C 148.688 144.640,149.120 144.784,149.120 144.960 C 149.120 145.136,149.840 145.280,150.720 145.280 C 151.600 145.280,152.320 145.424,152.320 145.600 C 152.320 145.799,154.127 145.920,157.101 145.920 C 159.943 145.920,161.962 145.790,162.080 145.600 C 162.189 145.424,162.773 145.280,163.379 145.280 C 163.984 145.280,164.480 145.136,164.480 144.960 C 164.480 144.784,164.811 144.640,165.216 144.640 C 166.059 144.640,167.674 143.958,167.678 143.600 C 167.679 143.468,167.968 143.360,168.320 143.360 C 168.672 143.360,168.960 143.216,168.960 143.040 C 168.960 142.864,169.216 142.720,169.529 142.720 C 169.843 142.720,170.306 142.432,170.560 142.080 C 170.814 141.728,171.220 141.440,171.462 141.440 C 171.705 141.440,172.321 140.993,172.832 140.446 C 173.392 139.847,173.951 139.525,174.240 139.636 C 174.538 139.750,174.720 139.634,174.720 139.331 C 174.720 139.062,174.834 138.913,174.973 138.998 C 175.112 139.084,175.508 138.733,175.853 138.218 C 176.198 137.703,176.732 137.281,177.040 137.281 C 177.348 137.280,177.600 137.133,177.600 136.953 C 177.600 136.773,177.955 136.464,178.390 136.266 C 178.824 136.068,179.104 135.783,179.011 135.633 C 178.918 135.483,179.078 135.360,179.366 135.360 C 179.654 135.360,180.444 134.784,181.120 134.080 C 181.796 133.376,182.519 132.800,182.727 132.800 C 182.934 132.800,183.507 132.368,184.000 131.840 C 184.493 131.312,185.066 130.880,185.273 130.880 C 185.481 130.880,186.204 130.304,186.880 129.600 C 187.556 128.896,188.272 128.320,188.469 128.320 C 188.667 128.320,189.189 127.960,189.629 127.520 C 190.069 127.080,190.578 126.720,190.760 126.720 C 190.941 126.720,191.644 126.144,192.320 125.440 C 192.996 124.736,193.741 124.159,193.975 124.157 C 194.209 124.155,194.740 123.723,195.156 123.197 C 195.572 122.671,196.094 122.240,196.317 122.240 C 196.540 122.240,197.316 121.664,198.042 120.960 C 198.767 120.256,199.514 119.680,199.701 119.680 C 199.888 119.680,200.405 119.248,200.849 118.720 C 201.293 118.192,201.843 117.760,202.070 117.760 C 202.297 117.760,203.076 117.184,203.802 116.480 C 204.527 115.776,205.252 115.200,205.412 115.200 C 205.572 115.200,206.067 114.768,206.511 114.240 C 206.955 113.712,207.520 113.280,207.766 113.280 C 208.012 113.280,208.705 112.788,209.307 112.187 C 209.908 111.585,210.602 111.045,210.849 110.987 C 211.096 110.928,211.688 110.484,212.164 110.000 C 212.640 109.516,213.183 109.120,213.370 109.120 C 213.557 109.120,214.275 108.544,214.965 107.840 C 215.656 107.136,216.380 106.560,216.576 106.560 C 217.040 106.560,218.545 105.052,218.313 104.819 C 218.214 104.721,218.541 104.640,219.040 104.640 C 219.539 104.640,219.860 104.554,219.755 104.448 C 219.511 104.204,221.616 102.080,222.101 102.080 C 222.300 102.080,222.867 101.648,223.360 101.120 C 223.853 100.592,224.487 100.160,224.768 100.160 C 225.050 100.160,225.280 99.992,225.280 99.787 C 225.280 99.581,225.368 99.501,225.476 99.609 C 225.583 99.716,226.028 99.380,226.464 98.862 C 226.900 98.344,227.474 97.920,227.740 97.920 C 228.006 97.920,228.627 97.488,229.120 96.960 C 229.613 96.432,230.255 96.000,230.547 96.000 C 230.839 96.000,230.989 95.856,230.880 95.680 C 230.771 95.504,230.799 95.359,230.941 95.359 C 231.084 95.358,231.660 94.926,232.223 94.399 C 232.785 93.871,233.365 93.440,233.512 93.440 C 233.659 93.440,233.986 93.152,234.240 92.800 C 234.494 92.448,234.957 92.160,235.271 92.160 C 235.584 92.160,235.840 92.016,235.840 91.840 C 235.840 91.664,236.128 91.520,236.480 91.520 C 236.832 91.520,237.120 91.376,237.120 91.200 C 237.120 91.024,237.684 90.880,238.373 90.880 C 239.063 90.880,239.711 90.700,239.813 90.480 C 239.963 90.160,240.037 90.160,240.187 90.480 C 240.289 90.700,240.937 90.880,241.627 90.880 C 242.316 90.880,242.880 91.024,242.880 91.200 C 242.880 91.376,243.240 91.520,243.680 91.520 C 244.449 91.520,247.040 93.653,247.040 94.286 C 247.040 94.440,247.328 94.746,247.680 94.966 C 248.042 95.192,248.320 95.712,248.320 96.163 C 248.320 96.601,248.464 96.960,248.640 96.960 C 248.816 96.960,248.960 97.435,248.960 98.016 C 248.960 98.597,249.136 99.248,249.352 99.464 C 249.661 99.773,249.661 99.988,249.352 100.484 C 249.136 100.829,248.960 101.545,248.960 102.076 C 248.960 102.606,248.816 103.040,248.640 103.040 C 248.464 103.040,248.320 103.256,248.320 103.520 C 248.320 103.784,248.176 104.000,248.000 104.000 C 247.824 104.000,247.680 104.288,247.680 104.640 C 247.680 104.992,247.536 105.280,247.360 105.280 C 247.184 105.280,247.040 105.441,247.040 105.637 C 247.040 106.090,244.597 108.480,244.135 108.480 C 243.945 108.480,243.236 109.056,242.560 109.760 C 241.884 110.464,241.161 111.040,240.953 111.040 C 240.746 111.040,240.173 111.472,239.680 112.000 C 239.187 112.528,238.548 112.960,238.262 112.960 C 237.975 112.960,237.657 113.176,237.556 113.440 C 237.454 113.704,237.171 113.920,236.926 113.920 C 236.681 113.920,236.480 114.151,236.480 114.434 C 236.480 114.768,236.305 114.881,235.982 114.757 C 235.485 114.567,233.920 115.836,233.920 116.431 C 233.920 116.596,233.704 116.814,233.440 116.916 C 232.725 117.190,232.833 118.915,233.598 119.451 C 233.949 119.696,234.141 119.992,234.025 120.109 C 233.908 120.225,233.980 120.320,234.183 120.320 C 234.628 120.320,235.840 121.316,235.840 121.682 C 235.840 122.059,237.999 124.160,238.387 124.160 C 238.818 124.160,239.831 125.041,243.081 128.240 C 244.556 129.692,245.969 130.880,246.220 130.880 C 246.471 130.880,246.768 131.168,246.880 131.520 C 246.992 131.872,247.228 132.160,247.404 132.160 C 247.581 132.160,247.942 132.376,248.206 132.640 C 248.470 132.904,248.619 133.120,248.537 133.120 C 248.454 133.120,249.268 133.984,250.343 135.040 C 251.419 136.096,252.412 136.960,252.550 136.960 C 252.687 136.960,252.800 137.184,252.800 137.459 C 252.800 137.733,252.944 137.869,253.120 137.760 C 253.296 137.651,253.440 137.787,253.440 138.061 C 253.440 138.342,253.712 138.560,254.062 138.560 C 254.404 138.560,254.908 138.880,255.182 139.271 C 255.456 139.662,255.680 139.876,255.680 139.746 C 255.680 139.617,256.737 140.557,258.030 141.835 C 259.322 143.114,260.345 144.205,260.304 144.259 C 260.169 144.436,261.779 145.920,262.106 145.920 C 262.280 145.920,263.857 147.365,265.611 149.131 C 267.365 150.897,268.804 152.229,268.810 152.091 C 268.815 151.953,268.966 152.092,269.146 152.400 C 269.325 152.708,269.680 152.960,269.933 152.960 C 270.427 152.960,274.560 156.992,274.560 157.473 C 274.560 157.631,274.776 157.760,275.040 157.760 C 275.304 157.760,275.520 157.903,275.520 158.077 C 275.520 158.459,277.420 160.320,277.810 160.320 C 277.961 160.320,279.035 161.256,280.196 162.400 C 281.357 163.544,282.436 164.480,282.593 164.480 C 282.751 164.480,282.880 164.696,282.880 164.960 C 282.880 165.224,283.010 165.440,283.168 165.440 C 283.326 165.440,283.960 165.944,284.576 166.560 C 285.192 167.176,285.926 167.680,286.208 167.680 C 286.490 167.680,286.720 167.811,286.720 167.971 C 286.720 168.404,293.156 174.720,293.598 174.720 C 293.806 174.720,294.627 175.437,295.422 176.313 C 296.217 177.189,296.960 177.813,297.074 177.700 C 297.187 177.586,297.280 177.625,297.280 177.787 C 297.281 178.149,298.736 179.871,298.912 179.717 C 298.983 179.656,299.369 179.946,299.771 180.363 C 300.173 180.779,300.415 181.120,300.308 181.120 C 300.202 181.120,300.330 181.336,300.594 181.600 C 300.858 181.864,301.363 182.080,301.716 182.080 C 302.076 182.080,302.446 182.360,302.560 182.720 C 302.672 183.072,302.993 183.360,303.275 183.360 C 303.556 183.360,303.704 183.442,303.604 183.543 C 303.375 183.772,309.352 189.760,309.809 189.760 C 309.993 189.760,310.542 190.187,311.030 190.709 C 311.517 191.231,312.007 191.567,312.118 191.455 C 312.229 191.344,312.320 191.484,312.320 191.765 C 312.320 192.047,312.610 192.369,312.965 192.481 C 313.319 192.594,313.540 192.798,313.456 192.935 C 313.371 193.072,313.657 193.374,314.091 193.606 C 314.525 193.838,314.880 194.147,314.880 194.291 C 314.880 194.692,316.842 196.480,317.281 196.480 C 317.493 196.480,318.040 196.930,318.496 197.481 C 320.447 199.836,320.320 203.943,320.320 138.570 C 320.320 81.715,320.294 79.040,319.751 79.040 C 319.437 79.040,318.974 78.752,318.720 78.400 C 318.466 78.048,318.003 77.760,317.689 77.760 C 317.376 77.760,317.120 77.634,317.120 77.480 C 317.120 77.326,316.688 77.114,316.160 77.008 C 315.597 76.895,315.200 76.614,315.200 76.328 C 315.200 76.058,314.922 75.840,314.578 75.840 C 314.236 75.840,313.755 75.553,313.509 75.202 C 313.264 74.851,312.962 74.665,312.838 74.788 C 312.715 74.912,312.296 74.643,311.907 74.192 C 311.518 73.741,310.876 73.269,310.480 73.144 C 310.084 73.019,309.760 72.783,309.760 72.618 C 309.760 72.454,309.472 72.320,309.120 72.320 C 308.768 72.320,308.480 72.176,308.480 72.000 C 308.480 71.824,308.224 71.680,307.911 71.680 C 307.597 71.680,307.134 71.392,306.880 71.040 C 306.626 70.688,306.163 70.400,305.849 70.400 C 305.536 70.400,305.280 70.280,305.280 70.134 C 305.280 69.988,304.884 69.665,304.400 69.416 C 303.916 69.168,303.287 68.711,303.002 68.402 C 302.718 68.093,302.282 67.840,302.033 67.840 C 301.785 67.840,301.374 67.552,301.120 67.200 C 300.866 66.848,300.394 66.560,300.070 66.560 C 299.747 66.560,299.571 66.416,299.680 66.240 C 299.789 66.064,299.582 65.920,299.222 65.920 C 298.861 65.920,298.386 65.632,298.166 65.280 C 297.946 64.928,297.535 64.640,297.253 64.640 C 296.970 64.640,296.490 64.365,296.186 64.029 C 295.882 63.693,295.283 63.330,294.856 63.223 C 294.429 63.116,294.080 62.806,294.080 62.535 C 294.080 62.264,293.948 62.124,293.786 62.224 C 293.624 62.324,293.274 62.189,293.009 61.923 C 292.743 61.657,292.301 61.440,292.026 61.440 C 291.750 61.440,291.355 61.166,291.146 60.832 C 290.937 60.497,290.571 60.299,290.333 60.390 C 290.095 60.481,289.636 60.251,289.313 59.878 C 288.990 59.505,288.522 59.200,288.273 59.200 C 288.025 59.200,287.614 58.912,287.360 58.560 C 287.106 58.208,286.652 57.920,286.351 57.920 C 286.050 57.920,285.712 57.632,285.600 57.280 C 285.470 56.871,285.116 56.640,284.618 56.640 C 284.190 56.640,283.840 56.496,283.840 56.320 C 283.840 56.144,283.625 56.000,283.363 56.000 C 283.100 56.000,282.706 55.712,282.486 55.360 C 282.266 55.008,281.855 54.720,281.573 54.720 C 281.290 54.720,280.799 54.432,280.480 54.080 C 280.161 53.728,279.739 53.440,279.541 53.440 C 279.343 53.440,278.974 53.152,278.720 52.800 C 278.466 52.448,278.003 52.160,277.689 52.160 C 277.376 52.160,277.120 52.016,277.120 51.840 C 277.120 51.664,276.832 51.520,276.480 51.520 C 276.128 51.520,275.840 51.400,275.840 51.254 C 275.840 51.108,275.444 50.784,274.960 50.535 C 274.476 50.285,274.008 49.989,273.920 49.877 C 273.832 49.764,273.256 49.385,272.640 49.033 C 272.024 48.682,271.556 48.234,271.600 48.037 C 271.644 47.841,271.572 47.697,271.440 47.718 C 270.710 47.833,270.069 47.637,270.245 47.352 C 270.356 47.172,270.329 47.047,270.184 47.075 C 269.642 47.179,267.840 46.629,267.840 46.360 C 267.840 46.206,267.552 46.080,267.200 46.080 C 266.848 46.080,266.560 45.936,266.560 45.760 C 266.560 45.584,266.272 45.440,265.920 45.440 C 265.568 45.440,265.280 45.296,265.280 45.120 C 265.280 44.944,264.992 44.800,264.640 44.800 C 264.288 44.800,264.000 44.656,264.000 44.480 C 264.000 44.304,263.712 44.160,263.360 44.160 C 263.008 44.160,262.720 44.016,262.720 43.840 C 262.720 43.664,262.288 43.520,261.760 43.520 C 261.232 43.520,260.800 43.376,260.800 43.200 C 260.800 43.024,260.448 42.880,260.019 42.880 C 259.589 42.880,259.149 42.736,259.040 42.560 C 258.931 42.384,258.499 42.240,258.080 42.240 C 257.661 42.240,257.229 42.096,257.120 41.920 C 257.011 41.744,256.427 41.600,255.821 41.600 C 255.216 41.600,254.720 41.456,254.720 41.280 C 254.720 41.104,254.144 40.960,253.440 40.960 C 252.736 40.960,252.160 40.816,252.160 40.640 C 252.160 40.462,251.307 40.320,250.240 40.320 C 249.173 40.320,248.320 40.178,248.320 40.000 C 248.320 39.794,245.120 39.680,239.360 39.680 C 233.600 39.680,230.400 39.794,230.400 40.000 M6.080 80.000 C 6.080 80.176,5.792 80.320,5.440 80.320 C 5.088 80.320,4.800 80.464,4.800 80.640 C 4.800 80.816,4.603 80.960,4.362 80.960 C 3.807 80.960,0.960 83.785,0.960 84.335 C 0.960 84.562,0.780 84.807,0.560 84.880 C -0.028 85.076,-0.028 226.340,0.560 226.928 C 0.780 227.148,0.960 227.573,0.960 227.872 C 0.960 228.679,2.814 232.053,3.534 232.558 C 3.879 232.799,4.160 233.137,4.160 233.309 C 4.160 233.716,6.284 235.840,6.691 235.840 C 6.863 235.840,7.201 236.121,7.442 236.466 C 7.961 237.207,11.331 239.040,12.174 239.040 C 12.497 239.040,12.851 239.184,12.960 239.360 C 13.069 239.536,13.501 239.680,13.920 239.680 C 14.339 239.680,14.771 239.824,14.880 240.000 C 15.007 240.206,20.424 240.320,30.080 240.320 C 39.736 240.320,45.153 240.206,45.280 240.000 C 45.389 239.824,45.829 239.680,46.259 239.680 C 46.688 239.680,47.040 239.536,47.040 239.360 C 47.040 239.184,47.472 239.040,48.000 239.040 C 48.528 239.040,48.960 238.896,48.960 238.720 C 48.960 238.544,49.248 238.400,49.600 238.400 C 49.952 238.400,50.240 238.256,50.240 238.080 C 50.240 237.904,50.470 237.760,50.752 237.760 C 51.033 237.760,51.667 237.328,52.160 236.800 C 52.653 236.272,53.232 235.840,53.445 235.840 C 53.956 235.840,56.000 233.599,56.000 233.039 C 56.000 232.799,56.108 232.664,56.240 232.739 C 56.493 232.883,57.760 231.701,57.819 231.266 C 57.900 230.674,58.656 229.120,58.863 229.120 C 58.988 229.120,59.026 228.688,58.948 228.160 C 58.847 227.472,58.938 227.200,59.268 227.200 C 59.598 227.200,59.689 226.928,59.588 226.240 C 59.504 225.664,59.590 225.280,59.804 225.280 C 60.064 225.280,60.160 205.747,60.160 152.480 L 60.160 79.680 33.120 79.680 C 15.307 79.680,6.080 79.789,6.080 80.000 M339.840 152.480 C 339.840 205.747,339.936 225.280,340.196 225.280 C 340.410 225.280,340.496 225.664,340.412 226.240 C 340.311 226.928,340.402 227.200,340.732 227.200 C 341.062 227.200,341.153 227.472,341.052 228.160 C 340.974 228.688,341.012 229.120,341.137 229.120 C 341.388 229.120,342.211 230.953,342.033 231.117 C 341.832 231.302,343.512 232.880,343.760 232.739 C 343.892 232.664,344.000 232.799,344.000 233.039 C 344.000 233.599,346.044 235.840,346.555 235.840 C 346.768 235.840,347.347 236.272,347.840 236.800 C 348.333 237.328,348.967 237.760,349.248 237.760 C 349.530 237.760,349.760 237.904,349.760 238.080 C 349.760 238.256,350.048 238.400,350.400 238.400 C 350.752 238.400,351.040 238.544,351.040 238.720 C 351.040 238.896,351.472 239.040,352.000 239.040 C 352.528 239.040,352.960 239.184,352.960 239.360 C 352.960 239.536,353.312 239.680,353.741 239.680 C 354.171 239.680,354.611 239.824,354.720 240.000 C 354.847 240.206,360.264 240.320,369.920 240.320 C 379.576 240.320,384.993 240.206,385.120 240.000 C 385.229 239.824,385.661 239.680,386.080 239.680 C 386.499 239.680,386.931 239.536,387.040 239.360 C 387.149 239.184,387.503 239.040,387.826 239.040 C 388.669 239.040,392.039 237.207,392.558 236.466 C 392.799 236.121,393.137 235.840,393.309 235.840 C 393.716 235.840,395.840 233.716,395.840 233.309 C 395.840 233.137,396.121 232.799,396.466 232.558 C 397.186 232.053,399.040 228.679,399.040 227.872 C 399.040 227.573,399.220 227.148,399.440 226.928 C 399.758 226.610,399.840 211.950,399.840 155.771 C 399.840 99.449,399.758 84.986,399.440 84.880 C 399.220 84.807,399.040 84.562,399.040 84.335 C 399.040 83.785,396.193 80.960,395.638 80.960 C 395.397 80.960,395.200 80.816,395.200 80.640 C 395.200 80.464,394.912 80.320,394.560 80.320 C 394.208 80.320,393.920 80.176,393.920 80.000 C 393.920 79.789,384.693 79.680,366.880 79.680 L 339.840 79.680 339.840 152.480 M32.960 201.280 C 32.960 201.456,33.176 201.600,33.440 201.600 C 33.704 201.600,33.920 201.744,33.920 201.920 C 33.920 202.096,34.225 202.240,34.598 202.240 C 35.476 202.240,37.760 204.524,37.760 205.402 C 37.760 205.775,37.904 206.080,38.080 206.080 C 38.256 206.080,38.400 206.296,38.400 206.560 C 38.400 206.824,38.544 207.040,38.720 207.040 C 38.910 207.040,39.040 208.213,39.040 209.920 C 39.040 211.627,38.910 212.800,38.720 212.800 C 38.544 212.800,38.400 213.000,38.400 213.243 C 38.400 214.526,35.824 217.448,33.970 218.269 C 33.415 218.515,32.960 218.825,32.960 218.958 C 32.960 219.091,31.664 219.200,30.080 219.200 C 28.373 219.200,27.200 219.070,27.200 218.880 C 27.200 218.704,26.912 218.560,26.560 218.560 C 26.208 218.560,25.920 218.416,25.920 218.240 C 25.920 218.064,25.700 217.920,25.432 217.920 C 24.797 217.920,22.080 215.203,22.080 214.568 C 22.080 214.300,21.936 214.080,21.760 214.080 C 21.584 214.080,21.440 213.792,21.440 213.440 C 21.440 213.088,21.296 212.800,21.120 212.800 C 20.930 212.800,20.800 211.627,20.800 209.920 C 20.800 208.336,20.909 207.040,21.042 207.040 C 21.175 207.040,21.485 206.585,21.731 206.030 C 22.552 204.176,25.474 201.600,26.757 201.600 C 27.000 201.600,27.200 201.456,27.200 201.280 C 27.200 201.090,28.373 200.960,30.080 200.960 C 31.787 200.960,32.960 201.090,32.960 201.280 M372.800 201.280 C 372.800 201.456,373.000 201.600,373.243 201.600 C 374.526 201.600,377.448 204.176,378.269 206.030 C 378.515 206.585,378.825 207.040,378.958 207.040 C 379.091 207.040,379.200 208.336,379.200 209.920 C 379.200 211.627,379.070 212.800,378.880 212.800 C 378.704 212.800,378.560 213.088,378.560 213.440 C 378.560 213.792,378.416 214.080,378.240 214.080 C 378.064 214.080,377.920 214.300,377.920 214.568 C 377.920 215.203,375.203 217.920,374.568 217.920 C 374.300 217.920,374.080 218.064,374.080 218.240 C 374.080 218.416,373.792 218.560,373.440 218.560 C 373.088 218.560,372.800 218.704,372.800 218.880 C 372.800 219.070,371.627 219.200,369.920 219.200 C 368.336 219.200,367.040 219.091,367.040 218.958 C 367.040 218.825,366.585 218.515,366.030 218.269 C 364.176 217.448,361.600 214.526,361.600 213.243 C 361.600 213.000,361.456 212.800,361.280 212.800 C 361.090 212.800,360.960 211.627,360.960 209.920 C 360.960 208.213,361.090 207.040,361.280 207.040 C 361.456 207.040,361.600 206.824,361.600 206.560 C 361.600 206.296,361.744 206.080,361.920 206.080 C 362.096 206.080,362.240 205.775,362.240 205.402 C 362.240 204.524,364.524 202.240,365.402 202.240 C 365.775 202.240,366.080 202.096,366.080 201.920 C 366.080 201.744,366.296 201.600,366.560 201.600 C 366.824 201.600,367.040 201.456,367.040 201.280 C 367.040 201.090,368.213 200.960,369.920 200.960 C 371.627 200.960,372.800 201.090,372.800 201.280 " stroke="none" fill="#4c5c8c" fill-rule="evenodd"></path><path id="path1" d="M183.728 155.073 C 183.490 155.342,183.359 155.626,183.436 155.703 C 183.514 155.781,183.839 155.555,184.158 155.202 C 184.478 154.849,184.609 154.565,184.450 154.572 C 184.290 154.579,183.965 154.804,183.728 155.073 M35.840 203.013 C 35.840 203.351,36.804 204.263,36.977 204.089 C 37.058 204.009,36.835 203.681,36.482 203.362 C 36.129 203.042,35.840 202.885,35.840 203.013 M363.362 203.518 C 363.042 203.871,362.885 204.160,363.013 204.160 C 363.351 204.160,364.263 203.196,364.089 203.023 C 364.009 202.942,363.681 203.165,363.362 203.518 M271.760 259.741 C 272.068 259.821,272.572 259.821,272.880 259.741 C 273.188 259.660,272.936 259.594,272.320 259.594 C 271.704 259.594,271.452 259.660,271.760 259.741 M287.120 259.741 C 287.428 259.821,287.932 259.821,288.240 259.741 C 288.548 259.660,288.296 259.594,287.680 259.594 C 287.064 259.594,286.812 259.660,287.120 259.741 " stroke="none" fill="#505c8c" fill-rule="evenodd"></path><path id="path2" d="M183.728 155.073 C 183.490 155.342,183.359 155.626,183.436 155.703 C 183.514 155.781,183.839 155.555,184.158 155.202 C 184.478 154.849,184.609 154.565,184.450 154.572 C 184.290 154.579,183.965 154.804,183.728 155.073 M35.840 203.013 C 35.840 203.351,36.804 204.263,36.977 204.089 C 37.058 204.009,36.835 203.681,36.482 203.362 C 36.129 203.042,35.840 202.885,35.840 203.013 M363.362 203.518 C 363.042 203.871,362.885 204.160,363.013 204.160 C 363.351 204.160,364.263 203.196,364.089 203.023 C 364.009 202.942,363.681 203.165,363.362 203.518 M271.760 259.741 C 272.068 259.821,272.572 259.821,272.880 259.741 C 273.188 259.660,272.936 259.594,272.320 259.594 C 271.704 259.594,271.452 259.660,271.760 259.741 M287.120 259.741 C 287.428 259.821,287.932 259.821,288.240 259.741 C 288.548 259.660,288.296 259.594,287.680 259.594 C 287.064 259.594,286.812 259.660,287.120 259.741 " stroke="none" fill="#505c8c" fill-rule="evenodd"></path><path id="path3" d="M183.728 155.073 C 183.490 155.342,183.359 155.626,183.436 155.703 C 183.514 155.781,183.839 155.555,184.158 155.202 C 184.478 154.849,184.609 154.565,184.450 154.572 C 184.290 154.579,183.965 154.804,183.728 155.073 M35.840 203.013 C 35.840 203.351,36.804 204.263,36.977 204.089 C 37.058 204.009,36.835 203.681,36.482 203.362 C 36.129 203.042,35.840 202.885,35.840 203.013 M363.362 203.518 C 363.042 203.871,362.885 204.160,363.013 204.160 C 363.351 204.160,364.263 203.196,364.089 203.023 C 364.009 202.942,363.681 203.165,363.362 203.518 M271.760 259.741 C 272.068 259.821,272.572 259.821,272.880 259.741 C 273.188 259.660,272.936 259.594,272.320 259.594 C 271.704 259.594,271.452 259.660,271.760 259.741 M287.120 259.741 C 287.428 259.821,287.932 259.821,288.240 259.741 C 288.548 259.660,288.296 259.594,287.680 259.594 C 287.064 259.594,286.812 259.660,287.120 259.741 " stroke="none" fill="#505c8c" fill-rule="evenodd"></path><path id="path4" d="M183.728 155.073 C 183.490 155.342,183.359 155.626,183.436 155.703 C 183.514 155.781,183.839 155.555,184.158 155.202 C 184.478 154.849,184.609 154.565,184.450 154.572 C 184.290 154.579,183.965 154.804,183.728 155.073 M35.840 203.013 C 35.840 203.351,36.804 204.263,36.977 204.089 C 37.058 204.009,36.835 203.681,36.482 203.362 C 36.129 203.042,35.840 202.885,35.840 203.013 M363.362 203.518 C 363.042 203.871,362.885 204.160,363.013 204.160 C 363.351 204.160,364.263 203.196,364.089 203.023 C 364.009 202.942,363.681 203.165,363.362 203.518 M271.760 259.741 C 272.068 259.821,272.572 259.821,272.880 259.741 C 273.188 259.660,272.936 259.594,272.320 259.594 C 271.704 259.594,271.452 259.660,271.760 259.741 M287.120 259.741 C 287.428 259.821,287.932 259.821,288.240 259.741 C 288.548 259.660,288.296 259.594,287.680 259.594 C 287.064 259.594,286.812 259.660,287.120 259.741 " stroke="none" fill="#505c8c" fill-rule="evenodd"></path></g></svg>