 <svg  version="1.0" xmlns="http://www.w3.org/2000/svg"  width="300.000000pt" height="240.000000pt" viewBox="0 0 300.000000 240.000000"  preserveAspectRatio="xMidYMid meet">  <g transform="translate(0.000000,240.000000) scale(0.100000,-0.100000)" fill="#325096" stroke="none"> <path d="M1072 2085 c-71 -20 -93 -32 -296 -165 l-175 -115 0 -527 -1 -528 66 0 67 0 104 -97 c252 -235 351 -320 391 -336 109 -44 230 1 283 105 11 21 22 38 26 38 3 0 28 -21 55 -46 26 -25 64 -52 83 -60 49 -20 138 -18 184 5 36 19 104 85 112 110 3 9 16 8 48 -4 65 -23 119 -19 182 13 78 39 112 92 117 182 6 109 -5 125 -260 361 -340 313 -430 394 -439 392 -5 -2 -66 -47 -136 -102 -175 -134 -197 -145 -303 -145 -102 -1 -171 26 -237 93 -60 61 -87 121 -91 210 -9 159 21 202 293 422 l215 174 -38 13 c-57 21 -188 24 -250 7z"/> <path d="M1683 2085 c-101 -27 -106 -31 -521 -368 -73 -60 -139 -121 -147 -137 -8 -16 -15 -55 -15 -90 0 -107 71 -180 175 -180 59 0 87 15 220 119 356 277 376 291 409 291 41 0 66 -26 66 -70 0 -33 -6 -40 -94 -112 l-28 -24 232 -214 c128 -118 274 -253 324 -300 l91 -84 3 439 c2 343 -1 442 -10 450 -25 22 -344 223 -393 247 -94 48 -211 60 -312 33z"/> <path d="M22 1777 l-22 -23 0 -520 c0 -572 -1 -561 63 -608 25 -19 43 -21 162 -21 119 0 137 2 162 21 64 47 63 33 63 632 l0 542 -203 0 c-200 0 -204 0 -225 -23z m253 -902 c14 -13 25 -36 25 -50 0 -33 -42 -75 -75 -75 -33 0 -75 42 -75 75 0 33 42 75 75 75 14 0 37 -11 50 -25z"/> <path d="M2550 1258 c0 -599 -1 -585 63 -632 25 -19 43 -21 162 -21 119 0 137 2 162 21 64 47 63 36 63 605 0 507 0 517 -21 543 l-20 26 -205 0 -204 0 0 -542z m275 -383 c14 -13 25 -36 25 -50 0 -33 -42 -75 -75 -75 -33 0 -75 42 -75 75 0 33 42 75 75 75 14 0 37 -11 50 -25z"/> </g> </svg> 