<svg id="svg" version="1.1" xmlns="http://www.w3.org/2000/svg" xmlns:xlink="http://www.w3.org/1999/xlink" width="400" height="355.55555555555554" viewBox="0, 0, 400,355.55555555555554"><g id="svgg"><path id="path0" d="M192.356 0.241 C 191.671 0.332,190.959 0.555,190.773 0.736 C 190.588 0.918,190.148 1.067,189.796 1.067 C 189.444 1.067,189.156 1.227,189.156 1.422 C 189.156 1.618,188.826 1.778,188.423 1.778 C 188.021 1.778,187.775 1.914,187.878 2.080 C 187.981 2.246,187.630 2.601,187.099 2.868 C 186.568 3.136,185.253 4.253,184.178 5.351 C 183.102 6.449,181.782 7.457,181.244 7.592 C 180.707 7.726,180.267 8.073,180.267 8.362 C 180.267 8.652,180.125 8.889,179.951 8.889 C 179.777 8.889,178.905 9.609,178.012 10.489 C 177.119 11.369,176.206 12.089,175.982 12.089 C 175.514 12.089,173.511 14.137,173.511 14.615 C 173.511 14.790,173.306 14.933,173.056 14.933 C 172.806 14.933,172.371 15.253,172.089 15.644 C 171.807 16.036,171.427 16.356,171.244 16.356 C 171.061 16.356,169.830 17.476,168.509 18.844 C 167.188 20.213,165.912 21.333,165.673 21.333 C 165.434 21.333,164.940 21.678,164.575 22.099 C 164.210 22.520,163.911 22.738,163.911 22.583 C 163.911 22.429,163.453 22.879,162.892 23.584 C 162.332 24.289,161.772 24.765,161.648 24.640 C 161.524 24.516,161.422 24.691,161.422 25.028 C 161.422 25.366,161.262 25.543,161.067 25.422 C 160.871 25.301,160.711 25.372,160.711 25.579 C 160.711 25.786,160.468 25.956,160.170 25.956 C 159.872 25.956,158.776 26.836,157.735 27.911 C 156.693 28.987,155.908 29.867,155.990 29.867 C 156.072 29.867,155.900 30.107,155.606 30.400 C 155.313 30.693,154.893 30.933,154.672 30.933 C 154.452 30.933,153.329 31.893,152.178 33.067 C 151.026 34.240,149.918 35.200,149.715 35.200 C 149.512 35.200,148.770 35.760,148.065 36.444 C 147.360 37.129,146.637 37.689,146.458 37.689 C 146.280 37.689,146.133 37.860,146.133 38.070 C 146.133 38.588,145.418 39.263,144.160 39.933 C 143.031 40.534,140.886 42.311,141.290 42.311 C 141.425 42.311,140.975 42.871,140.290 43.556 C 139.606 44.240,138.893 44.800,138.705 44.800 C 138.518 44.800,137.254 45.920,135.895 47.289 C 134.537 48.658,133.227 49.778,132.983 49.778 C 132.739 49.778,131.919 50.458,131.159 51.289 C 130.399 52.120,129.778 52.674,129.778 52.521 C 129.778 52.368,129.209 52.812,128.513 53.508 C 127.817 54.203,127.097 54.679,126.913 54.565 C 126.729 54.451,126.578 54.504,126.578 54.682 C 126.578 55.176,123.180 58.667,122.699 58.667 C 122.467 58.667,121.172 59.787,119.822 61.156 C 118.472 62.524,117.212 63.644,117.021 63.644 C 116.831 63.644,115.593 64.684,114.271 65.956 C 112.949 67.227,111.742 68.267,111.590 68.267 C 111.438 68.267,110.204 69.387,108.849 70.756 C 107.493 72.124,106.194 73.244,105.961 73.244 C 105.728 73.244,104.456 74.364,103.135 75.733 C 101.814 77.102,100.541 78.222,100.306 78.222 C 99.748 78.222,98.112 79.861,98.392 80.140 C 98.510 80.259,98.352 80.356,98.039 80.356 C 97.726 80.356,97.368 80.678,97.243 81.072 C 97.118 81.466,96.867 81.696,96.686 81.584 C 96.504 81.472,96.356 81.550,96.356 81.757 C 96.356 81.964,96.169 82.133,95.941 82.133 C 95.485 82.133,95.309 82.283,92.394 85.143 C 91.291 86.225,90.232 87.111,90.041 87.111 C 89.850 87.111,88.565 88.231,87.185 89.600 C 85.805 90.969,84.459 92.089,84.194 92.089 C 83.929 92.089,83.477 92.421,83.190 92.827 C 82.055 94.428,80.048 96.300,78.862 96.862 C 78.176 97.188,77.404 97.847,77.147 98.327 C 76.890 98.806,76.617 99.136,76.540 99.058 C 76.463 98.981,75.782 99.541,75.028 100.303 C 74.273 101.065,73.483 101.689,73.272 101.689 C 73.061 101.689,71.968 102.618,70.844 103.754 C 69.720 104.889,68.360 106.036,67.823 106.302 C 67.285 106.569,66.914 106.854,66.997 106.938 C 67.268 107.208,63.321 110.933,62.763 110.933 C 62.466 110.933,62.222 111.120,62.222 111.348 C 62.222 111.576,62.135 111.676,62.029 111.570 C 61.923 111.464,60.896 112.317,59.746 113.466 C 58.597 114.615,57.505 115.556,57.320 115.556 C 57.134 115.556,56.262 116.276,55.382 117.156 C 54.502 118.036,53.853 118.756,53.939 118.756 C 54.025 118.756,53.855 118.996,53.562 119.289 C 53.269 119.582,52.857 119.822,52.648 119.822 C 52.438 119.822,52.267 119.982,52.267 120.178 C 52.267 120.373,52.098 120.533,51.891 120.533 C 51.685 120.533,50.574 121.493,49.422 122.667 C 48.271 123.840,47.137 124.800,46.903 124.800 C 46.669 124.800,46.032 125.266,45.488 125.835 C 44.944 126.404,44.407 126.777,44.294 126.664 C 44.181 126.552,44.089 126.644,44.089 126.870 C 44.089 127.372,42.979 128.711,42.562 128.711 C 42.396 128.711,42.019 128.953,41.724 129.248 C 41.429 129.543,41.015 129.678,40.805 129.548 C 40.579 129.408,40.527 129.480,40.677 129.723 C 40.827 129.966,40.705 130.133,40.377 130.133 C 40.072 130.133,39.822 130.269,39.822 130.434 C 39.822 130.857,38.560 132.266,38.181 132.268 C 38.008 132.268,37.547 132.748,37.156 133.333 C 36.764 133.919,36.237 134.398,35.983 134.399 C 35.729 134.400,34.417 135.520,33.067 136.889 C 31.717 138.258,30.429 139.378,30.204 139.378 C 29.980 139.378,29.332 139.875,28.765 140.482 C 28.198 141.089,27.733 141.465,27.733 141.317 C 27.733 141.168,27.413 141.416,27.022 141.867 C 26.631 142.318,26.311 142.795,26.311 142.928 C 26.311 143.060,25.871 143.396,25.333 143.673 C 24.796 143.950,24.226 144.380,24.067 144.629 C 23.908 144.878,23.588 144.973,23.356 144.839 C 23.123 144.706,23.042 144.718,23.175 144.866 C 23.453 145.176,20.479 148.267,19.903 148.267 C 19.693 148.267,18.417 149.387,17.067 150.756 C 15.717 152.124,14.437 153.244,14.222 153.244 C 14.008 153.244,13.109 154.004,12.225 154.933 C 11.341 155.862,10.469 156.582,10.287 156.533 C 10.105 156.484,9.996 156.644,10.044 156.889 C 10.093 157.133,9.933 157.293,9.689 157.244 C 9.444 157.196,9.244 157.316,9.244 157.511 C 9.244 157.707,9.088 157.867,8.896 157.867 C 8.444 157.867,4.622 161.748,4.622 162.208 C 4.622 162.401,4.142 163.008,3.556 163.556 C 2.969 164.104,2.489 164.808,2.489 165.120 C 2.489 165.433,2.329 165.689,2.133 165.689 C 1.938 165.689,1.778 165.999,1.778 166.379 C 1.778 166.759,1.618 167.168,1.422 167.289 C 1.227 167.410,1.067 167.886,1.067 168.347 C 1.067 168.808,0.867 169.252,0.622 169.334 C -0.021 169.548,-0.021 185.297,0.622 185.511 C 0.867 185.593,1.067 185.966,1.067 186.341 C 1.067 186.716,1.227 187.022,1.422 187.022 C 1.618 187.022,1.778 187.342,1.778 187.733 C 1.778 188.124,1.938 188.444,2.133 188.444 C 2.329 188.444,2.489 188.764,2.489 189.156 C 2.489 189.547,2.649 189.867,2.844 189.867 C 3.040 189.867,3.200 190.121,3.200 190.432 C 3.200 190.742,4.346 192.102,5.747 193.454 C 7.147 194.805,8.176 195.911,8.032 195.911 C 7.366 195.911,8.870 196.873,10.222 197.312 C 11.053 197.582,11.733 197.937,11.733 198.101 C 11.733 198.266,11.973 198.400,12.267 198.400 C 12.560 198.400,12.800 198.532,12.800 198.694 C 12.800 198.856,13.280 198.918,13.867 198.831 C 14.615 198.722,14.933 198.822,14.933 199.169 C 14.933 199.531,15.313 199.627,16.356 199.528 C 17.239 199.443,17.778 199.541,17.778 199.785 C 17.778 200.065,21.566 200.178,30.933 200.178 L 44.089 200.178 44.089 267.001 C 44.089 311.167,44.209 333.899,44.444 334.044 C 44.640 334.165,44.800 334.895,44.800 335.665 C 44.800 336.436,44.960 337.067,45.156 337.067 C 45.351 337.067,45.511 337.547,45.511 338.133 C 45.511 338.720,45.671 339.200,45.867 339.200 C 46.062 339.200,46.222 339.520,46.222 339.911 C 46.222 340.302,46.382 340.622,46.578 340.622 C 46.773 340.622,46.933 340.907,46.933 341.255 C 46.933 341.603,47.253 342.118,47.644 342.400 C 48.036 342.682,48.356 343.159,48.356 343.460 C 48.356 343.761,48.676 344.207,49.067 344.451 C 49.458 344.695,49.778 345.223,49.778 345.624 C 49.778 346.025,49.938 346.254,50.133 346.133 C 50.329 346.012,50.489 346.064,50.489 346.248 C 50.489 346.684,53.316 349.511,53.752 349.511 C 53.936 349.511,53.988 349.671,53.867 349.867 C 53.746 350.062,53.975 350.222,54.376 350.222 C 54.777 350.222,55.305 350.542,55.549 350.933 C 55.793 351.324,56.239 351.644,56.540 351.644 C 56.841 351.644,57.318 351.964,57.600 352.356 C 57.882 352.747,58.397 353.067,58.745 353.067 C 59.093 353.067,59.378 353.227,59.378 353.422 C 59.378 353.618,59.858 353.778,60.444 353.778 C 61.031 353.778,61.511 353.938,61.511 354.133 C 61.511 354.329,61.818 354.489,62.193 354.489 C 62.567 354.489,62.941 354.689,63.022 354.933 C 63.139 355.285,70.870 355.378,100.089 355.378 C 129.308 355.378,137.038 355.285,137.156 354.933 C 137.237 354.689,137.770 354.489,138.341 354.489 C 138.911 354.489,139.378 354.368,139.378 354.220 C 139.378 354.072,139.898 353.724,140.533 353.447 C 141.169 353.170,141.948 352.651,142.264 352.294 C 142.580 351.937,143.065 351.644,143.341 351.644 C 143.617 351.644,144.074 351.324,144.356 350.933 C 144.637 350.542,145.078 350.222,145.335 350.222 C 145.762 350.222,146.768 349.366,149.422 346.744 C 149.959 346.212,150.399 345.471,150.400 345.096 C 150.400 344.721,150.499 344.514,150.620 344.635 C 150.959 344.974,151.675 344.102,151.947 343.019 C 152.081 342.483,152.438 342.044,152.739 342.044 C 153.040 342.044,153.195 341.897,153.084 341.718 C 152.973 341.538,153.124 341.149,153.419 340.854 C 153.714 340.559,153.956 340.075,153.956 339.780 C 153.956 339.484,154.094 339.156,154.263 339.052 C 154.433 338.947,154.494 338.458,154.400 337.964 C 154.283 337.352,154.386 337.067,154.724 337.067 C 155.087 337.067,155.183 336.688,155.083 335.644 C 154.999 334.761,155.096 334.222,155.340 334.222 C 155.624 334.222,155.733 324.920,155.733 300.643 C 155.733 278.641,155.856 266.988,156.089 266.844 C 156.284 266.724,156.444 265.594,156.444 264.335 C 156.444 263.045,156.600 262.044,156.800 262.044 C 156.996 262.044,157.156 261.404,157.156 260.622 C 157.156 259.840,157.316 259.200,157.511 259.200 C 157.707 259.200,157.867 258.960,157.867 258.667 C 157.867 258.373,158.027 258.133,158.222 258.133 C 158.418 258.133,158.578 257.918,158.578 257.655 C 158.578 256.887,159.678 254.898,160.217 254.691 C 160.489 254.587,160.711 254.275,160.711 253.999 C 160.711 253.344,164.455 249.600,165.110 249.600 C 165.386 249.600,165.698 249.378,165.802 249.106 C 166.009 248.567,167.998 247.467,168.766 247.467 C 169.029 247.467,169.244 247.307,169.244 247.111 C 169.244 246.916,169.484 246.756,169.778 246.756 C 170.071 246.756,170.311 246.596,170.311 246.400 C 170.311 246.204,170.791 246.044,171.378 246.044 C 171.964 246.044,172.444 245.884,172.444 245.689 C 172.444 245.484,173.563 245.333,175.090 245.333 C 176.545 245.333,177.835 245.173,177.956 244.978 C 178.258 244.488,221.742 244.488,222.044 244.978 C 222.165 245.173,223.295 245.333,224.554 245.333 C 225.844 245.333,226.844 245.489,226.844 245.689 C 226.844 245.884,227.484 246.044,228.267 246.044 C 229.049 246.044,229.689 246.204,229.689 246.400 C 229.689 246.596,229.929 246.756,230.222 246.756 C 230.516 246.756,230.756 246.916,230.756 247.111 C 230.756 247.307,230.971 247.467,231.234 247.467 C 232.002 247.467,233.991 248.567,234.198 249.106 C 234.302 249.378,234.614 249.600,234.890 249.600 C 235.545 249.600,239.289 253.344,239.289 253.999 C 239.289 254.275,239.511 254.587,239.783 254.691 C 240.322 254.898,241.422 256.887,241.422 257.655 C 241.422 257.918,241.582 258.133,241.778 258.133 C 241.973 258.133,242.133 258.373,242.133 258.667 C 242.133 258.960,242.293 259.200,242.489 259.200 C 242.684 259.200,242.844 259.840,242.844 260.622 C 242.844 261.404,243.004 262.044,243.200 262.044 C 243.400 262.044,243.556 263.045,243.556 264.335 C 243.556 265.594,243.716 266.724,243.911 266.844 C 244.144 266.988,244.267 278.641,244.267 300.643 C 244.267 324.920,244.376 334.222,244.660 334.222 C 244.904 334.222,245.001 334.761,244.917 335.644 C 244.817 336.688,244.913 337.067,245.276 337.067 C 245.614 337.067,245.717 337.352,245.600 337.964 C 245.506 338.458,245.567 338.947,245.737 339.052 C 245.906 339.156,246.044 339.553,246.044 339.932 C 246.044 340.312,246.204 340.622,246.400 340.622 C 246.596 340.622,246.756 340.942,246.756 341.333 C 246.756 341.724,246.993 342.044,247.282 342.044 C 247.572 342.044,247.919 342.483,248.053 343.019 C 248.325 344.102,249.041 344.974,249.380 344.635 C 249.501 344.514,249.600 344.721,249.600 345.096 C 249.601 345.471,250.041 346.212,250.578 346.744 C 253.232 349.366,254.238 350.222,254.665 350.222 C 254.922 350.222,255.363 350.542,255.644 350.933 C 255.926 351.324,256.383 351.644,256.659 351.644 C 256.935 351.644,257.422 351.924,257.740 352.267 C 258.487 353.070,259.754 353.778,260.444 353.778 C 261.072 353.778,262.460 354.502,262.831 355.022 C 263.239 355.594,336.787 355.505,336.978 354.933 C 337.059 354.689,337.593 354.489,338.163 354.489 C 338.733 354.489,339.200 354.329,339.200 354.133 C 339.200 353.938,339.520 353.778,339.911 353.778 C 340.302 353.778,340.622 353.618,340.622 353.422 C 340.622 353.227,340.942 353.067,341.333 353.067 C 341.724 353.067,342.044 352.907,342.044 352.711 C 342.044 352.516,342.324 352.354,342.667 352.352 C 343.009 352.351,343.667 351.871,344.129 351.286 C 344.591 350.701,345.280 350.222,345.661 350.222 C 346.042 350.222,346.254 350.062,346.133 349.867 C 346.012 349.671,346.064 349.511,346.248 349.511 C 346.684 349.511,349.511 346.684,349.511 346.248 C 349.511 346.064,349.671 346.012,349.867 346.133 C 350.062 346.254,350.222 346.042,350.222 345.661 C 350.222 345.280,350.701 344.591,351.286 344.129 C 351.871 343.667,352.351 343.009,352.352 342.667 C 352.354 342.324,352.516 342.044,352.711 342.044 C 352.907 342.044,353.067 341.724,353.067 341.333 C 353.067 340.942,353.227 340.622,353.422 340.622 C 353.618 340.622,353.778 340.302,353.778 339.911 C 353.778 339.520,353.938 339.200,354.133 339.200 C 354.329 339.200,354.489 338.720,354.489 338.133 C 354.489 337.547,354.649 337.067,354.844 337.067 C 355.040 337.067,355.200 336.436,355.200 335.665 C 355.200 334.895,355.360 334.165,355.556 334.044 C 355.777 333.908,355.911 330.604,355.911 325.312 C 355.911 319.874,356.040 316.800,356.267 316.800 C 356.502 316.800,356.622 302.526,356.622 274.688 C 356.622 246.996,356.500 232.500,356.267 232.356 C 356.038 232.214,355.911 226.426,355.911 216.157 L 355.911 200.178 369.067 200.178 C 378.434 200.178,382.222 200.065,382.222 199.785 C 382.222 199.541,382.761 199.443,383.644 199.528 C 384.687 199.627,385.067 199.531,385.067 199.169 C 385.067 198.822,385.385 198.722,386.133 198.831 C 386.720 198.918,387.200 198.856,387.200 198.694 C 387.200 198.532,387.440 198.400,387.733 198.400 C 388.027 198.400,388.267 198.269,388.267 198.110 C 388.267 197.950,388.936 197.444,389.754 196.984 C 392.140 195.643,396.089 192.045,396.089 191.213 C 396.089 190.950,396.409 190.504,396.800 190.222 C 397.191 189.940,397.511 189.425,397.511 189.077 C 397.511 188.729,397.671 188.444,397.867 188.444 C 398.062 188.444,398.222 188.124,398.222 187.733 C 398.222 187.342,398.382 187.022,398.578 187.022 C 398.773 187.022,398.933 186.654,398.933 186.204 C 398.933 185.755,399.133 185.187,399.378 184.942 C 399.939 184.381,400.022 169.006,399.467 168.609 C 398.976 168.260,398.222 166.863,398.222 166.306 C 398.222 166.053,397.902 165.615,397.511 165.333 C 397.120 165.051,396.800 164.606,396.800 164.344 C 396.800 164.082,395.683 162.781,394.318 161.453 C 392.953 160.125,391.939 158.935,392.066 158.808 C 392.193 158.681,391.950 158.578,391.526 158.578 C 391.102 158.578,390.756 158.408,390.756 158.201 C 390.756 157.994,390.596 157.924,390.400 158.044 C 390.204 158.165,390.044 158.015,390.044 157.710 C 390.044 157.405,389.902 157.196,389.729 157.244 C 389.555 157.293,388.691 156.573,387.808 155.644 C 386.926 154.716,386.020 153.956,385.796 153.956 C 385.571 153.956,384.283 152.836,382.933 151.467 C 381.583 150.098,380.306 148.978,380.094 148.978 C 379.568 148.978,377.240 146.612,377.505 146.347 C 377.623 146.229,377.442 146.133,377.105 146.133 C 376.767 146.133,376.583 145.985,376.695 145.803 C 376.807 145.622,376.591 145.376,376.215 145.256 C 375.838 145.137,375.272 144.645,374.957 144.164 C 374.642 143.683,374.162 143.289,373.890 143.289 C 373.619 143.289,372.993 142.809,372.499 142.222 C 372.005 141.636,371.470 141.156,371.308 141.156 C 371.147 141.156,370.537 140.599,369.952 139.919 C 369.367 139.239,368.681 138.679,368.427 138.674 C 368.173 138.670,366.861 137.547,365.511 136.178 C 364.161 134.809,362.799 133.689,362.485 133.689 C 362.171 133.689,362.012 133.529,362.133 133.333 C 362.254 133.138,362.185 132.978,361.981 132.978 C 361.516 132.978,360.178 131.854,360.178 131.465 C 360.178 131.046,357.778 128.711,357.348 128.711 C 356.914 128.711,355.796 127.774,353.211 125.244 C 352.162 124.218,351.128 123.378,350.913 123.378 C 350.449 123.378,347.733 120.620,347.733 120.149 C 347.733 119.969,347.562 119.822,347.352 119.822 C 346.826 119.822,345.940 118.890,346.210 118.620 C 346.331 118.499,346.164 118.400,345.840 118.400 C 345.515 118.400,344.116 117.280,342.731 115.911 C 341.346 114.542,339.984 113.422,339.706 113.422 C 339.428 113.422,339.200 113.236,339.200 113.007 C 339.200 112.779,339.092 112.701,338.960 112.832 C 338.828 112.964,338.429 112.631,338.074 112.092 C 337.718 111.552,337.426 111.244,337.425 111.407 C 337.423 111.569,336.795 111.049,336.028 110.251 C 335.261 109.453,334.450 108.800,334.225 108.800 C 334.000 108.800,333.576 108.560,333.283 108.267 C 332.989 107.973,332.881 107.732,333.041 107.731 C 333.202 107.730,332.853 107.411,332.267 107.022 C 331.680 106.634,331.339 106.315,331.509 106.313 C 331.888 106.311,328.466 103.120,328.078 103.115 C 327.925 103.113,326.845 102.159,325.678 100.995 C 324.511 99.832,323.551 98.992,323.545 99.129 C 323.539 99.266,323.371 99.098,323.172 98.756 C 322.972 98.413,322.658 98.133,322.474 98.133 C 322.068 98.133,320.767 97.049,318.743 95.022 C 317.913 94.191,317.120 93.511,316.980 93.511 C 316.841 93.511,315.606 92.391,314.238 91.022 C 312.869 89.653,311.597 88.533,311.413 88.533 C 311.228 88.533,309.877 87.333,308.410 85.867 C 306.943 84.400,305.458 83.200,305.110 83.200 C 304.761 83.200,304.265 82.805,304.006 82.323 C 303.748 81.841,303.413 81.523,303.261 81.617 C 303.109 81.711,302.882 81.466,302.757 81.072 C 302.632 80.678,302.274 80.356,301.961 80.356 C 301.648 80.356,301.490 80.259,301.608 80.140 C 301.888 79.861,300.252 78.222,299.694 78.222 C 299.459 78.222,298.186 77.102,296.865 75.733 C 295.544 74.364,294.268 73.244,294.029 73.244 C 293.790 73.244,292.382 72.004,290.899 70.489 C 289.416 68.973,288.083 67.771,287.937 67.818 C 287.790 67.864,286.526 66.784,285.126 65.418 C 283.727 64.051,282.433 62.933,282.252 62.933 C 282.070 62.933,280.817 61.813,279.467 60.444 C 278.117 59.076,276.814 57.956,276.572 57.956 C 276.096 57.956,273.422 55.157,273.422 54.660 C 273.422 54.494,273.262 54.457,273.067 54.578 C 272.871 54.699,272.711 54.617,272.711 54.396 C 272.711 53.894,271.974 53.194,271.284 53.038 C 270.997 52.974,270.643 52.734,270.498 52.505 C 270.352 52.276,270.231 52.235,270.228 52.413 C 270.225 52.592,269.116 51.592,267.765 50.191 C 266.413 48.790,265.096 47.644,264.836 47.644 C 264.577 47.644,263.299 46.524,261.997 45.156 C 260.694 43.787,259.362 42.667,259.037 42.667 C 258.713 42.667,258.524 42.541,258.619 42.388 C 258.714 42.235,258.296 41.715,257.690 41.232 C 256.092 39.960,254.578 38.396,254.578 38.017 C 254.578 37.837,254.263 37.689,253.879 37.689 C 253.494 37.689,252.137 36.650,250.858 35.378 C 249.580 34.107,248.371 33.067,248.171 33.067 C 247.659 33.067,243.916 29.269,244.174 29.011 C 244.290 28.895,244.157 28.800,243.878 28.800 C 243.599 28.800,243.171 28.480,242.927 28.089 C 242.683 27.698,242.321 27.378,242.123 27.378 C 241.925 27.378,240.663 26.292,239.318 24.966 C 237.972 23.639,236.700 22.611,236.489 22.681 C 236.279 22.751,234.991 21.677,233.626 20.293 C 232.262 18.910,230.979 17.778,230.776 17.778 C 230.573 17.778,229.921 17.258,229.328 16.622 C 226.840 13.956,225.635 12.800,225.343 12.800 C 225.172 12.800,224.240 12.008,223.272 11.039 C 222.303 10.071,221.511 9.362,221.511 9.465 C 221.511 9.567,221.271 9.411,220.978 9.117 C 220.684 8.824,220.444 8.416,220.444 8.210 C 220.444 8.004,220.008 7.726,219.475 7.593 C 218.942 7.459,217.782 6.616,216.898 5.719 C 216.013 4.822,214.854 3.865,214.323 3.591 C 213.792 3.317,213.442 2.957,213.544 2.791 C 213.647 2.625,213.312 2.489,212.800 2.489 C 212.270 2.489,211.964 2.336,212.089 2.133 C 212.210 1.938,211.979 1.778,211.577 1.778 C 211.174 1.778,210.844 1.618,210.844 1.422 C 210.844 1.227,210.556 1.067,210.204 1.067 C 209.852 1.067,209.366 0.868,209.124 0.626 C 208.678 0.181,195.148 -0.130,192.356 0.241 " stroke="none" fill="#4c5c8c" fill-rule="evenodd"></path><path id="path1" d="M15.915 199.718 C 16.358 199.803,16.998 199.800,17.337 199.711 C 17.677 199.622,17.316 199.552,16.533 199.556 C 15.751 199.560,15.473 199.633,15.915 199.718 M382.849 199.718 C 383.291 199.803,383.931 199.800,384.271 199.711 C 384.611 199.622,384.249 199.552,383.467 199.556 C 382.684 199.560,382.406 199.633,382.849 199.718 M155.112 335.467 C 155.116 336.249,155.189 336.527,155.274 336.085 C 155.359 335.642,155.356 335.002,155.267 334.663 C 155.178 334.323,155.108 334.684,155.112 335.467 M244.712 335.467 C 244.716 336.249,244.789 336.527,244.874 336.085 C 244.959 335.642,244.956 335.002,244.867 334.663 C 244.778 334.323,244.708 334.684,244.712 335.467 " stroke="none" fill="#505c8c" fill-rule="evenodd"></path><path id="path2" d="M15.915 199.718 C 16.358 199.803,16.998 199.800,17.337 199.711 C 17.677 199.622,17.316 199.552,16.533 199.556 C 15.751 199.560,15.473 199.633,15.915 199.718 M382.849 199.718 C 383.291 199.803,383.931 199.800,384.271 199.711 C 384.611 199.622,384.249 199.552,383.467 199.556 C 382.684 199.560,382.406 199.633,382.849 199.718 M155.112 335.467 C 155.116 336.249,155.189 336.527,155.274 336.085 C 155.359 335.642,155.356 335.002,155.267 334.663 C 155.178 334.323,155.108 334.684,155.112 335.467 M244.712 335.467 C 244.716 336.249,244.789 336.527,244.874 336.085 C 244.959 335.642,244.956 335.002,244.867 334.663 C 244.778 334.323,244.708 334.684,244.712 335.467 " stroke="none" fill="#505c8c" fill-rule="evenodd"></path><path id="path3" d="M15.915 199.718 C 16.358 199.803,16.998 199.800,17.337 199.711 C 17.677 199.622,17.316 199.552,16.533 199.556 C 15.751 199.560,15.473 199.633,15.915 199.718 M382.849 199.718 C 383.291 199.803,383.931 199.800,384.271 199.711 C 384.611 199.622,384.249 199.552,383.467 199.556 C 382.684 199.560,382.406 199.633,382.849 199.718 M155.112 335.467 C 155.116 336.249,155.189 336.527,155.274 336.085 C 155.359 335.642,155.356 335.002,155.267 334.663 C 155.178 334.323,155.108 334.684,155.112 335.467 M244.712 335.467 C 244.716 336.249,244.789 336.527,244.874 336.085 C 244.959 335.642,244.956 335.002,244.867 334.663 C 244.778 334.323,244.708 334.684,244.712 335.467 " stroke="none" fill="#505c8c" fill-rule="evenodd"></path><path id="path4" d="M15.915 199.718 C 16.358 199.803,16.998 199.800,17.337 199.711 C 17.677 199.622,17.316 199.552,16.533 199.556 C 15.751 199.560,15.473 199.633,15.915 199.718 M382.849 199.718 C 383.291 199.803,383.931 199.800,384.271 199.711 C 384.611 199.622,384.249 199.552,383.467 199.556 C 382.684 199.560,382.406 199.633,382.849 199.718 M155.112 335.467 C 155.116 336.249,155.189 336.527,155.274 336.085 C 155.359 335.642,155.356 335.002,155.267 334.663 C 155.178 334.323,155.108 334.684,155.112 335.467 M244.712 335.467 C 244.716 336.249,244.789 336.527,244.874 336.085 C 244.959 335.642,244.956 335.002,244.867 334.663 C 244.778 334.323,244.708 334.684,244.712 335.467 " stroke="none" fill="#505c8c" fill-rule="evenodd"></path></g></svg>