 <svg  version="1.0" xmlns="http://www.w3.org/2000/svg"  width="300.000000pt" height="302.000000pt" viewBox="0 0 300.000000 302.000000"  preserveAspectRatio="xMidYMid meet">  <g transform="translate(0.000000,302.000000) scale(0.100000,-0.100000)" fill="#325096" stroke="none"> <path d="M1457 3005 c-36 -19 -1424 -1401 -1443 -1437 -19 -37 -18 -53 10 -85 24 -28 25 -28 173 -33 l148 -5 3 -707 2 -708 30 -15 c26 -14 78 -15 370 -13 300 3 341 5 356 20 15 14 17 64 18 502 l1 485 23 23 23 23 330 0 331 0 24 -28 24 -28 0 -484 0 -484 30 -16 c43 -22 667 -22 710 0 l30 15 2 708 3 707 148 5 c148 5 149 5 173 33 28 32 29 48 10 85 -21 39 -1421 1430 -1451 1442 -35 13 -45 13 -78 -5z"/> </g> </svg> 