 <svg  version="1.0" xmlns="http://www.w3.org/2000/svg"  width="300.000000pt" height="300.000000pt" viewBox="0 0 300.000000 300.000000"  preserveAspectRatio="xMidYMid meet">  <g transform="translate(0.000000,300.000000) scale(0.100000,-0.100000)" fill="#325096" stroke="none"> <path d="M116 2800 c-40 -12 -83 -56 -101 -104 -14 -36 -15 -163 -13 -1096 l3 -1055 22 -54 c60 -147 173 -248 318 -286 52 -13 215 -15 1280 -15 773 0 1233 4 1256 10 64 18 119 99 119 175 0 76 -55 157 -119 175 -23 6 -470 10 -1216 10 -789 0 -1192 4 -1218 11 -77 21 -71 -61 -77 1094 l-5 1030 -23 37 c-40 65 -138 94 -226 68z"/> <path d="M2550 2425 c-21 -10 -167 -148 -355 -335 l-320 -320 -170 171 c-94 93 -185 179 -203 190 -41 26 -134 28 -184 5 -50 -24 -723 -702 -743 -748 -39 -95 8 -213 98 -247 40 -15 122 -14 160 3 18 8 151 134 297 280 146 146 269 266 275 266 5 0 88 -79 185 -175 108 -107 189 -180 212 -190 47 -19 99 -19 146 0 44 19 787 754 833 824 54 84 29 204 -53 258 -49 33 -127 40 -178 18z"/> </g> </svg> 