<svg id="svg" version="1.1" xmlns="http://www.w3.org/2000/svg" xmlns:xlink="http://www.w3.org/1999/xlink" width="400" height="400" viewBox="0, 0, 400,400"><g id="svgg"><path id="path0" d="M18.400 25.245 C 18.400 25.513,17.920 25.620,17.200 25.515 C 16.341 25.389,16.000 25.502,16.000 25.915 C 16.000 26.327,15.659 26.441,14.800 26.315 C 14.140 26.218,13.600 26.266,13.600 26.421 C 13.600 26.706,11.426 27.724,11.010 27.634 C 10.618 27.549,8.898 29.387,9.076 29.700 C 9.170 29.865,9.002 30.000,8.702 30.000 C 8.001 30.000,5.200 32.555,5.200 33.193 C 5.200 33.461,4.660 34.183,4.000 34.800 C 3.340 35.417,2.800 36.209,2.800 36.560 C 2.800 36.912,2.620 37.200,2.400 37.200 C 2.180 37.200,2.000 37.560,2.000 38.000 C 2.000 38.440,1.820 38.800,1.600 38.800 C 1.380 38.800,1.200 39.325,1.200 39.967 C 1.200 40.608,0.975 41.208,0.700 41.300 C -0.036 41.545,-0.036 326.455,0.700 326.700 C 0.987 326.796,1.200 327.536,1.200 328.433 C 1.200 329.295,1.380 330.000,1.600 330.000 C 1.820 330.000,2.000 330.540,2.000 331.200 C 2.000 331.860,2.180 332.400,2.400 332.400 C 2.620 332.400,2.800 332.940,2.800 333.600 C 2.800 334.260,2.980 334.800,3.200 334.800 C 3.420 334.800,3.600 335.155,3.600 335.588 C 3.600 336.021,3.960 337.017,4.400 337.800 C 4.840 338.583,5.200 339.489,5.200 339.812 C 5.200 340.135,5.380 340.400,5.600 340.400 C 5.820 340.400,6.000 340.670,6.000 341.000 C 6.000 341.330,6.180 341.600,6.400 341.600 C 6.620 341.600,6.800 341.960,6.800 342.400 C 6.800 342.840,6.980 343.200,7.200 343.200 C 7.420 343.200,7.600 343.560,7.600 344.000 C 7.600 344.440,7.780 344.800,8.000 344.800 C 8.220 344.800,8.400 345.132,8.400 345.539 C 8.400 346.192,8.744 346.734,10.408 348.700 C 10.641 348.975,10.694 349.200,10.527 349.200 C 10.359 349.200,10.622 349.480,11.111 349.823 C 11.600 350.165,12.000 350.667,12.000 350.938 C 12.000 351.209,12.900 352.317,14.000 353.400 C 15.100 354.483,16.000 355.538,16.000 355.742 C 16.000 356.317,18.533 358.791,19.126 358.796 C 19.415 358.798,20.529 359.700,21.600 360.800 C 22.671 361.900,23.753 362.800,24.003 362.800 C 24.558 362.800,25.638 363.829,25.367 364.100 C 25.259 364.207,25.819 364.602,26.610 364.978 C 27.401 365.353,28.147 365.917,28.267 366.230 C 28.387 366.544,28.916 366.800,29.443 366.800 C 29.969 366.800,30.400 366.980,30.400 367.200 C 30.400 367.420,30.670 367.600,31.000 367.600 C 31.330 367.600,31.600 367.780,31.600 368.000 C 31.600 368.220,31.960 368.400,32.400 368.400 C 32.840 368.400,33.200 368.580,33.200 368.800 C 33.200 369.020,33.560 369.200,34.000 369.200 C 34.440 369.200,34.800 369.380,34.800 369.600 C 34.800 369.820,35.160 370.000,35.600 370.000 C 36.040 370.000,36.400 370.180,36.400 370.400 C 36.400 370.620,36.760 370.800,37.200 370.800 C 37.640 370.800,38.000 370.980,38.000 371.200 C 38.000 371.420,38.540 371.600,39.200 371.600 C 39.860 371.600,40.400 371.780,40.400 372.000 C 40.400 372.220,40.839 372.400,41.376 372.400 C 41.913 372.400,42.464 372.580,42.600 372.800 C 42.736 373.020,43.287 373.200,43.824 373.200 C 44.361 373.200,44.800 373.340,44.800 373.511 C 44.800 373.681,45.520 373.752,46.400 373.669 C 47.555 373.558,48.000 373.667,48.000 374.058 C 48.000 374.460,48.515 374.564,50.000 374.461 C 51.268 374.373,52.000 374.483,52.000 374.761 C 52.000 375.079,97.530 375.200,216.800 375.200 C 337.599 375.200,381.600 375.081,381.600 374.755 C 381.600 374.487,382.080 374.380,382.800 374.485 C 383.659 374.611,384.000 374.498,384.000 374.085 C 384.000 373.673,384.341 373.559,385.200 373.685 C 385.860 373.782,386.400 373.734,386.400 373.579 C 386.400 373.265,388.691 372.236,388.896 372.459 C 389.127 372.710,391.100 370.610,390.924 370.300 C 390.830 370.135,390.998 370.000,391.298 370.000 C 391.999 370.000,394.800 367.445,394.800 366.807 C 394.800 366.539,395.340 365.817,396.000 365.200 C 396.660 364.583,397.200 363.791,397.200 363.440 C 397.200 363.088,397.380 362.800,397.600 362.800 C 397.820 362.800,398.000 362.440,398.000 362.000 C 398.000 361.560,398.180 361.200,398.400 361.200 C 398.620 361.200,398.800 360.675,398.800 360.033 C 398.800 359.392,399.025 358.792,399.300 358.700 C 399.679 358.574,399.800 356.471,399.800 350.000 C 399.800 343.529,399.679 341.426,399.300 341.300 C 399.025 341.208,398.800 340.608,398.800 339.967 C 398.800 339.325,398.620 338.800,398.400 338.800 C 398.180 338.800,398.000 338.440,398.000 338.000 C 398.000 337.560,397.820 337.200,397.600 337.200 C 397.380 337.200,397.200 336.912,397.200 336.560 C 397.200 336.209,396.660 335.417,396.000 334.800 C 395.340 334.183,394.800 333.461,394.800 333.193 C 394.800 332.555,391.999 330.000,391.298 330.000 C 390.998 330.000,390.830 329.865,390.924 329.700 C 391.100 329.390,389.127 327.290,388.896 327.541 C 388.691 327.764,386.400 326.735,386.400 326.421 C 386.400 326.266,385.860 326.218,385.200 326.315 C 384.341 326.441,384.000 326.327,384.000 325.915 C 384.000 325.502,383.659 325.389,382.800 325.515 C 382.080 325.620,381.600 325.513,381.600 325.245 C 381.600 324.919,339.032 324.800,222.200 324.800 C 116.200 324.800,62.800 324.666,62.800 324.400 C 62.800 324.180,61.900 324.000,60.800 324.000 C 59.700 324.000,58.800 323.864,58.800 323.698 C 58.800 323.531,58.232 323.144,57.537 322.836 C 55.220 321.810,52.000 318.158,52.000 316.554 C 52.000 316.249,51.820 316.000,51.600 316.000 C 51.380 316.000,51.200 315.100,51.200 314.000 C 51.200 312.900,51.020 312.000,50.800 312.000 C 50.534 312.000,50.400 267.008,50.400 177.824 C 50.400 88.804,50.265 43.564,50.000 43.400 C 49.780 43.264,49.600 42.713,49.600 42.176 C 49.600 41.639,49.420 41.200,49.200 41.200 C 48.980 41.200,48.800 40.660,48.800 40.000 C 48.800 39.340,48.620 38.800,48.400 38.800 C 48.180 38.800,48.000 38.440,48.000 38.000 C 48.000 37.560,47.820 37.200,47.600 37.200 C 47.380 37.200,47.200 36.912,47.200 36.560 C 47.200 36.209,46.660 35.417,46.000 34.800 C 45.340 34.183,44.800 33.461,44.800 33.193 C 44.800 32.555,41.999 30.000,41.298 30.000 C 40.998 30.000,40.830 29.865,40.924 29.700 C 41.102 29.387,39.382 27.549,38.990 27.634 C 38.574 27.724,36.400 26.706,36.400 26.421 C 36.400 26.266,35.860 26.218,35.200 26.315 C 34.341 26.441,34.000 26.327,34.000 25.915 C 34.000 25.502,33.659 25.389,32.800 25.515 C 32.080 25.620,31.600 25.513,31.600 25.245 C 31.600 24.936,29.582 24.800,25.000 24.800 C 20.418 24.800,18.400 24.936,18.400 25.245 M348.800 74.400 C 348.800 74.631,347.541 74.800,345.824 74.800 C 344.100 74.800,342.733 74.984,342.577 75.238 C 342.428 75.478,341.877 75.593,341.353 75.493 C 340.699 75.368,340.400 75.495,340.400 75.898 C 340.400 76.268,340.167 76.396,339.770 76.244 C 339.424 76.111,338.871 76.272,338.542 76.601 C 338.213 76.930,337.462 77.318,336.872 77.463 C 336.282 77.609,335.509 78.059,335.153 78.464 C 334.797 78.869,334.212 79.200,333.853 79.200 C 333.494 79.200,333.200 79.359,333.200 79.553 C 333.200 79.898,330.067 83.200,329.740 83.200 C 329.648 83.200,328.943 83.830,328.173 84.600 C 327.403 85.370,326.914 86.001,327.087 86.003 C 327.259 86.004,326.860 86.363,326.200 86.800 C 325.540 87.237,325.146 87.596,325.325 87.597 C 325.504 87.599,324.355 88.860,322.772 90.400 C 321.189 91.940,319.737 93.200,319.547 93.200 C 319.356 93.200,319.200 93.470,319.200 93.800 C 319.200 94.130,319.047 94.400,318.861 94.400 C 318.675 94.400,316.896 96.020,314.908 98.000 C 312.921 99.980,311.408 101.601,311.547 101.603 C 311.686 101.604,311.304 101.933,310.697 102.333 C 310.090 102.733,309.651 103.137,309.721 103.230 C 309.790 103.324,308.352 104.878,306.524 106.684 C 304.696 108.490,303.199 109.840,303.197 109.684 C 303.196 109.528,302.837 109.940,302.400 110.600 C 301.963 111.260,301.604 111.686,301.603 111.547 C 301.601 111.408,299.980 112.921,298.000 114.908 C 296.020 116.896,294.400 118.675,294.400 118.861 C 294.400 119.047,294.130 119.200,293.800 119.200 C 293.470 119.200,293.200 119.356,293.200 119.547 C 293.200 119.737,291.940 121.189,290.400 122.772 C 288.860 124.355,287.599 125.504,287.597 125.325 C 287.596 125.146,287.237 125.540,286.800 126.200 C 286.363 126.860,286.004 127.280,286.003 127.133 C 286.001 126.987,285.370 127.479,284.600 128.226 C 283.830 128.974,283.200 129.658,283.200 129.746 C 283.200 129.959,279.953 133.200,279.740 133.200 C 279.648 133.200,278.943 133.830,278.173 134.600 C 277.403 135.370,276.914 136.001,277.087 136.003 C 277.259 136.004,276.860 136.363,276.200 136.800 C 275.540 137.237,275.146 137.596,275.325 137.597 C 275.504 137.599,274.355 138.860,272.772 140.400 C 271.189 141.940,269.737 143.200,269.547 143.200 C 269.356 143.200,269.200 143.470,269.200 143.800 C 269.200 144.130,269.047 144.400,268.861 144.400 C 268.675 144.400,266.896 146.020,264.908 148.000 C 262.921 149.980,261.408 151.601,261.547 151.603 C 261.686 151.604,261.304 151.933,260.697 152.333 C 260.090 152.733,259.651 153.137,259.721 153.230 C 259.790 153.324,258.352 154.878,256.524 156.684 C 254.696 158.490,253.199 159.840,253.197 159.684 C 253.196 159.528,252.837 159.940,252.400 160.600 C 251.963 161.260,251.604 161.637,251.603 161.439 C 251.601 161.240,251.240 161.493,250.800 162.000 L 250.000 162.922 249.200 162.000 C 248.760 161.493,248.399 161.240,248.397 161.439 C 248.396 161.637,248.037 161.260,247.600 160.600 C 247.163 159.940,246.804 159.528,246.803 159.684 C 246.801 159.840,245.304 158.490,243.476 156.684 C 241.648 154.878,240.210 153.324,240.279 153.230 C 240.349 153.137,239.910 152.733,239.303 152.333 C 238.696 151.933,238.314 151.604,238.453 151.603 C 238.592 151.601,237.079 149.980,235.092 148.000 C 233.104 146.020,231.325 144.400,231.139 144.400 C 230.953 144.400,230.800 144.130,230.800 143.800 C 230.800 143.470,230.644 143.200,230.453 143.200 C 230.263 143.200,228.811 141.940,227.228 140.400 C 225.645 138.860,224.496 137.599,224.675 137.597 C 224.854 137.596,224.460 137.237,223.800 136.800 C 223.140 136.363,222.720 136.004,222.867 136.003 C 223.013 136.001,222.521 135.370,221.774 134.600 C 221.026 133.830,220.342 133.200,220.254 133.200 C 220.045 133.200,216.800 129.955,216.800 129.746 C 216.800 129.658,216.170 128.974,215.400 128.226 C 214.630 127.479,213.999 126.987,213.997 127.133 C 213.996 127.280,213.637 126.860,213.200 126.200 C 212.763 125.540,212.404 125.146,212.403 125.325 C 212.401 125.504,211.140 124.355,209.600 122.772 C 208.060 121.189,206.800 119.737,206.800 119.547 C 206.800 119.356,206.542 119.200,206.227 119.200 C 205.912 119.200,205.540 118.840,205.400 118.400 C 205.260 117.960,204.870 117.600,204.534 117.600 C 204.197 117.600,203.417 117.060,202.800 116.400 C 202.183 115.740,201.391 115.200,201.040 115.200 C 200.688 115.200,200.400 115.020,200.400 114.800 C 200.400 114.580,200.135 114.400,199.812 114.400 C 199.489 114.400,198.583 114.040,197.800 113.600 C 197.017 113.160,195.852 112.800,195.211 112.800 C 194.571 112.800,193.936 112.620,193.800 112.400 C 193.664 112.180,192.494 112.000,191.200 112.000 C 189.906 112.000,188.736 111.820,188.600 111.600 C 188.286 111.092,186.511 111.075,186.333 111.578 C 186.260 111.787,184.805 111.993,183.100 112.037 C 181.395 112.081,180.000 112.271,180.000 112.458 C 180.000 112.646,179.561 112.800,179.024 112.800 C 178.487 112.800,177.936 112.980,177.800 113.200 C 177.664 113.420,177.193 113.600,176.753 113.600 C 176.313 113.600,176.064 113.780,176.200 114.000 C 176.336 114.220,176.077 114.400,175.624 114.400 C 175.171 114.400,174.800 114.580,174.800 114.800 C 174.800 115.020,174.480 115.200,174.088 115.200 C 173.697 115.200,173.117 115.560,172.800 116.000 C 172.483 116.440,171.982 116.800,171.686 116.800 C 171.391 116.800,169.065 118.915,166.518 121.500 C 163.971 124.085,161.733 126.155,161.544 126.100 C 161.355 126.045,161.245 126.225,161.300 126.500 C 161.355 126.775,161.220 126.976,161.000 126.948 C 160.780 126.919,160.189 127.324,159.686 127.848 C 159.183 128.371,158.880 128.800,159.013 128.800 C 159.145 128.800,156.175 131.860,152.412 135.600 C 148.649 139.340,145.481 142.400,145.372 142.400 C 145.113 142.400,142.400 145.113,142.400 145.372 C 142.400 145.481,139.340 148.649,135.600 152.412 C 131.860 156.175,128.800 159.145,128.800 159.013 C 128.800 158.880,128.371 159.183,127.848 159.686 C 127.324 160.189,126.919 160.780,126.948 161.000 C 126.976 161.220,126.775 161.355,126.500 161.300 C 126.225 161.245,126.045 161.342,126.100 161.516 C 126.231 161.930,111.930 176.231,111.516 176.100 C 111.342 176.045,111.245 176.225,111.300 176.500 C 111.355 176.775,111.175 176.955,110.900 176.900 C 110.625 176.845,110.400 177.081,110.400 177.424 C 110.400 177.767,110.265 177.965,110.100 177.866 C 109.935 177.766,109.568 177.935,109.284 178.242 C 109.001 178.549,108.878 178.800,109.011 178.800 C 109.144 178.800,106.175 181.860,102.412 185.600 C 98.649 189.340,95.481 192.400,95.372 192.400 C 95.110 192.400,92.400 195.114,92.400 195.376 C 92.400 195.487,89.430 198.561,85.800 202.206 C 82.170 205.851,79.200 208.940,79.200 209.070 C 79.200 209.200,78.828 209.629,78.374 210.023 C 77.919 210.417,77.578 210.851,77.615 210.987 C 77.735 211.424,76.714 213.600,76.389 213.600 C 76.216 213.600,76.169 213.960,76.284 214.400 C 76.422 214.927,76.296 215.200,75.916 215.200 C 75.502 215.200,75.388 215.540,75.515 216.400 C 75.620 217.120,75.513 217.600,75.245 217.600 C 74.961 217.600,74.800 218.610,74.800 220.400 C 74.800 222.000,74.629 223.200,74.400 223.200 C 74.180 223.200,74.000 224.010,74.000 225.000 C 74.000 225.990,74.180 226.800,74.400 226.800 C 74.622 226.800,74.800 227.867,74.800 229.200 C 74.800 230.685,74.968 231.600,75.242 231.600 C 75.516 231.600,75.626 232.207,75.531 233.200 C 75.419 234.374,75.527 234.800,75.936 234.800 C 76.296 234.800,76.419 235.083,76.284 235.600 C 76.169 236.040,76.216 236.400,76.389 236.400 C 76.672 236.400,77.619 238.300,77.726 239.083 C 77.800 239.626,79.384 241.104,79.700 240.924 C 79.865 240.830,80.000 240.998,80.000 241.298 C 80.000 241.999,82.555 244.800,83.193 244.800 C 83.461 244.800,84.183 245.340,84.800 246.000 C 85.417 246.660,86.209 247.200,86.560 247.200 C 86.912 247.200,87.200 247.380,87.200 247.600 C 87.200 247.820,87.560 248.000,88.000 248.000 C 88.440 248.000,88.800 248.180,88.800 248.400 C 88.800 248.620,89.340 248.800,90.000 248.800 C 90.660 248.800,91.200 248.980,91.200 249.200 C 91.200 249.420,91.639 249.600,92.176 249.600 C 92.713 249.600,93.264 249.780,93.400 250.000 C 93.548 250.239,96.196 250.400,100.000 250.400 C 103.804 250.400,106.452 250.239,106.600 250.000 C 106.736 249.780,107.287 249.600,107.824 249.600 C 108.361 249.600,108.800 249.420,108.800 249.200 C 108.800 248.980,109.340 248.800,110.000 248.800 C 110.660 248.800,111.200 248.620,111.200 248.400 C 111.200 248.180,111.560 248.000,112.000 248.000 C 112.440 248.000,112.800 247.820,112.800 247.600 C 112.800 247.380,113.084 247.200,113.431 247.200 C 113.779 247.200,114.754 246.480,115.600 245.600 C 116.446 244.720,117.339 244.000,117.585 244.000 C 117.831 244.000,118.745 243.251,119.616 242.335 C 120.487 241.419,121.200 240.796,121.200 240.951 C 121.200 241.105,121.451 240.999,121.758 240.716 C 122.065 240.432,122.234 240.065,122.134 239.900 C 122.035 239.735,122.233 239.600,122.576 239.600 C 122.919 239.600,123.155 239.375,123.100 239.100 C 123.045 238.825,123.225 238.645,123.500 238.700 C 123.775 238.755,123.955 238.658,123.900 238.484 C 123.769 238.070,138.070 223.769,138.484 223.900 C 138.658 223.955,138.755 223.775,138.700 223.500 C 138.645 223.225,138.780 223.024,139.000 223.052 C 139.220 223.081,139.811 222.676,140.314 222.152 C 140.817 221.629,141.120 221.200,140.987 221.200 C 140.855 221.200,143.825 218.140,147.588 214.400 C 151.351 210.660,154.519 207.600,154.628 207.600 C 154.887 207.600,157.600 204.887,157.600 204.628 C 157.600 204.519,160.660 201.351,164.400 197.588 C 168.140 193.825,171.200 190.856,171.200 190.989 C 171.200 191.122,171.451 190.999,171.758 190.716 C 172.065 190.432,172.234 190.065,172.134 189.900 C 172.035 189.735,172.233 189.600,172.576 189.600 C 172.919 189.600,173.155 189.375,173.100 189.100 C 173.045 188.825,173.225 188.645,173.500 188.700 C 173.775 188.755,173.955 188.656,173.900 188.480 C 173.845 188.303,176.908 185.055,180.707 181.262 L 187.615 174.364 190.407 177.236 C 191.943 178.815,193.200 180.263,193.200 180.453 C 193.200 180.644,193.470 180.800,193.800 180.800 C 194.130 180.800,194.400 180.953,194.400 181.139 C 194.400 181.325,196.020 183.104,198.000 185.092 C 199.980 187.079,201.601 188.592,201.603 188.453 C 201.604 188.314,201.933 188.696,202.333 189.303 C 202.733 189.910,203.137 190.349,203.230 190.279 C 203.324 190.210,204.878 191.648,206.684 193.476 C 208.490 195.304,209.840 196.801,209.684 196.803 C 209.528 196.804,209.940 197.163,210.600 197.600 C 211.260 198.037,211.686 198.396,211.547 198.397 C 211.408 198.399,212.921 200.020,214.908 202.000 C 216.896 203.980,218.675 205.600,218.861 205.600 C 219.047 205.600,219.200 205.870,219.200 206.200 C 219.200 206.530,219.356 206.800,219.547 206.800 C 219.737 206.800,221.189 208.060,222.772 209.600 C 224.355 211.140,225.504 212.401,225.325 212.403 C 225.146 212.404,225.540 212.763,226.200 213.200 C 226.860 213.637,227.259 213.996,227.087 213.997 C 226.914 213.999,227.403 214.630,228.173 215.400 C 228.943 216.170,229.648 216.800,229.740 216.800 C 229.890 216.800,230.617 217.446,234.629 221.145 C 235.306 221.768,236.328 222.396,236.901 222.540 C 237.475 222.683,238.213 223.070,238.542 223.399 C 238.871 223.728,239.424 223.889,239.770 223.756 C 240.156 223.608,240.400 223.729,240.400 224.068 C 240.400 224.472,240.831 224.580,242.000 224.469 C 242.993 224.374,243.600 224.484,243.600 224.758 C 243.600 225.035,244.569 225.200,246.200 225.200 C 247.667 225.200,248.800 225.374,248.800 225.600 C 248.800 225.820,249.340 226.000,250.000 226.000 C 250.660 226.000,251.200 225.820,251.200 225.600 C 251.200 225.374,252.333 225.200,253.800 225.200 C 255.431 225.200,256.400 225.035,256.400 224.758 C 256.400 224.484,257.007 224.374,258.000 224.469 C 259.169 224.580,259.600 224.472,259.600 224.068 C 259.600 223.729,259.844 223.608,260.230 223.756 C 260.576 223.889,261.129 223.728,261.458 223.399 C 261.787 223.070,262.538 222.682,263.128 222.537 C 263.718 222.391,264.491 221.941,264.847 221.536 C 265.203 221.131,265.788 220.800,266.147 220.800 C 266.506 220.800,266.800 220.641,266.800 220.447 C 266.800 220.102,269.933 216.800,270.260 216.800 C 270.352 216.800,271.057 216.170,271.827 215.400 C 272.597 214.630,273.086 213.999,272.913 213.997 C 272.741 213.996,273.140 213.637,273.800 213.200 C 274.460 212.763,274.854 212.404,274.675 212.403 C 274.496 212.401,275.645 211.140,277.228 209.600 C 278.811 208.060,280.263 206.800,280.453 206.800 C 280.644 206.800,280.800 206.530,280.800 206.200 C 280.800 205.870,280.953 205.600,281.139 205.600 C 281.325 205.600,283.104 203.980,285.092 202.000 C 287.079 200.020,288.592 198.399,288.453 198.397 C 288.314 198.396,288.740 198.037,289.400 197.600 C 290.060 197.163,290.472 196.804,290.316 196.803 C 290.160 196.801,291.510 195.304,293.316 193.476 C 295.122 191.648,296.676 190.210,296.770 190.279 C 296.863 190.349,297.267 189.910,297.667 189.303 C 298.067 188.696,298.396 188.314,298.397 188.453 C 298.399 188.592,300.020 187.079,302.000 185.092 C 303.980 183.104,305.600 181.325,305.600 181.139 C 305.600 180.953,305.870 180.800,306.200 180.800 C 306.530 180.800,306.800 180.644,306.800 180.453 C 306.800 180.263,308.060 178.811,309.600 177.228 C 311.140 175.645,312.401 174.496,312.403 174.675 C 312.404 174.854,312.763 174.460,313.200 173.800 C 313.637 173.140,313.996 172.741,313.997 172.913 C 313.999 173.086,314.630 172.597,315.400 171.827 C 316.170 171.057,316.800 170.352,316.800 170.260 C 316.800 170.043,320.043 166.800,320.260 166.800 C 320.352 166.800,321.057 166.170,321.827 165.400 C 322.597 164.630,323.086 163.999,322.913 163.997 C 322.741 163.996,323.140 163.637,323.800 163.200 C 324.460 162.763,324.854 162.404,324.675 162.403 C 324.496 162.401,325.645 161.140,327.228 159.600 C 328.811 158.060,330.263 156.800,330.453 156.800 C 330.644 156.800,330.800 156.530,330.800 156.200 C 330.800 155.870,330.953 155.600,331.139 155.600 C 331.325 155.600,333.104 153.980,335.092 152.000 C 337.079 150.020,338.592 148.399,338.453 148.397 C 338.314 148.396,338.740 148.037,339.400 147.600 C 340.060 147.163,340.472 146.804,340.316 146.803 C 340.160 146.801,341.510 145.304,343.316 143.476 C 345.122 141.648,346.676 140.210,346.770 140.279 C 346.863 140.349,347.267 139.910,347.667 139.303 C 348.067 138.696,348.396 138.314,348.397 138.453 C 348.399 138.592,350.020 137.079,352.000 135.092 C 353.980 133.104,355.600 131.325,355.600 131.139 C 355.600 130.953,355.870 130.800,356.200 130.800 C 356.530 130.800,356.800 130.644,356.800 130.453 C 356.800 130.263,358.060 128.811,359.600 127.228 C 361.140 125.645,362.401 124.496,362.403 124.675 C 362.404 124.854,362.763 124.460,363.200 123.800 C 363.637 123.140,363.996 122.741,363.997 122.913 C 363.999 123.086,364.630 122.597,365.400 121.827 C 366.170 121.057,366.800 120.319,366.800 120.188 C 366.800 120.056,367.340 119.494,368.000 118.939 C 368.660 118.383,369.200 117.739,369.200 117.508 C 369.200 117.276,369.740 116.571,370.400 115.940 C 371.060 115.309,371.600 114.525,371.600 114.197 C 371.600 113.868,371.758 113.600,371.951 113.600 C 372.145 113.600,372.527 113.060,372.800 112.400 C 373.073 111.740,373.451 111.200,373.639 111.200 C 373.826 111.200,373.872 110.660,373.740 110.000 C 373.561 109.107,373.649 108.800,374.081 108.800 C 374.498 108.800,374.612 108.463,374.485 107.600 C 374.380 106.880,374.487 106.400,374.755 106.400 C 375.063 106.400,375.200 104.435,375.200 100.000 C 375.200 95.565,375.063 93.600,374.755 93.600 C 374.487 93.600,374.380 93.120,374.485 92.400 C 374.612 91.540,374.498 91.200,374.084 91.200 C 373.674 91.200,373.566 90.890,373.711 90.129 C 373.832 89.498,373.688 88.830,373.359 88.501 C 373.052 88.195,372.683 87.475,372.540 86.901 C 372.276 85.853,371.457 84.846,368.306 81.694 C 365.154 78.543,364.147 77.724,363.099 77.460 C 362.525 77.317,361.787 76.930,361.458 76.601 C 361.129 76.272,360.576 76.111,360.230 76.244 C 359.844 76.392,359.600 76.271,359.600 75.932 C 359.600 75.528,359.169 75.420,358.000 75.531 C 357.007 75.626,356.400 75.516,356.400 75.242 C 356.400 74.965,355.431 74.800,353.800 74.800 C 352.333 74.800,351.200 74.626,351.200 74.400 C 351.200 74.180,350.660 74.000,350.000 74.000 C 349.340 74.000,348.800 74.180,348.800 74.400 " stroke="none" fill="#4c5c8c" fill-rule="evenodd"></path><path id="path1" d="M356.400 75.280 C 356.400 75.456,357.030 75.600,357.800 75.600 C 358.570 75.600,359.200 75.530,359.200 75.444 C 359.200 75.358,358.570 75.214,357.800 75.124 C 357.030 75.034,356.400 75.104,356.400 75.280 M374.400 92.600 C 374.400 93.150,374.555 93.600,374.745 93.600 C 374.934 93.600,375.003 93.150,374.898 92.600 C 374.793 92.050,374.638 91.600,374.553 91.600 C 374.469 91.600,374.400 92.050,374.400 92.600 M374.400 107.400 C 374.400 107.950,374.469 108.400,374.553 108.400 C 374.638 108.400,374.793 107.950,374.898 107.400 C 375.003 106.850,374.934 106.400,374.745 106.400 C 374.555 106.400,374.400 106.850,374.400 107.400 M240.800 224.556 C 240.800 224.642,241.430 224.786,242.200 224.876 C 242.970 224.966,243.600 224.896,243.600 224.720 C 243.600 224.544,242.970 224.400,242.200 224.400 C 241.430 224.400,240.800 224.470,240.800 224.556 M256.400 224.720 C 256.400 224.896,257.030 224.966,257.800 224.876 C 258.570 224.786,259.200 224.642,259.200 224.556 C 259.200 224.470,258.570 224.400,257.800 224.400 C 257.030 224.400,256.400 224.544,256.400 224.720 M75.301 233.000 C 75.305 233.880,75.387 234.193,75.483 233.695 C 75.579 233.198,75.575 232.478,75.475 232.095 C 75.375 231.713,75.296 232.120,75.301 233.000 M45.905 373.883 C 46.402 373.979,47.122 373.975,47.505 373.875 C 47.887 373.775,47.480 373.696,46.600 373.701 C 45.720 373.705,45.407 373.787,45.905 373.883 M49.305 374.687 C 49.914 374.779,50.814 374.777,51.305 374.682 C 51.797 374.587,51.300 374.511,50.200 374.514 C 49.100 374.517,48.697 374.595,49.305 374.687 " stroke="none" fill="#505c8c" fill-rule="evenodd"></path><path id="path2" d="M356.400 75.280 C 356.400 75.456,357.030 75.600,357.800 75.600 C 358.570 75.600,359.200 75.530,359.200 75.444 C 359.200 75.358,358.570 75.214,357.800 75.124 C 357.030 75.034,356.400 75.104,356.400 75.280 M374.400 92.600 C 374.400 93.150,374.555 93.600,374.745 93.600 C 374.934 93.600,375.003 93.150,374.898 92.600 C 374.793 92.050,374.638 91.600,374.553 91.600 C 374.469 91.600,374.400 92.050,374.400 92.600 M374.400 107.400 C 374.400 107.950,374.469 108.400,374.553 108.400 C 374.638 108.400,374.793 107.950,374.898 107.400 C 375.003 106.850,374.934 106.400,374.745 106.400 C 374.555 106.400,374.400 106.850,374.400 107.400 M240.800 224.556 C 240.800 224.642,241.430 224.786,242.200 224.876 C 242.970 224.966,243.600 224.896,243.600 224.720 C 243.600 224.544,242.970 224.400,242.200 224.400 C 241.430 224.400,240.800 224.470,240.800 224.556 M256.400 224.720 C 256.400 224.896,257.030 224.966,257.800 224.876 C 258.570 224.786,259.200 224.642,259.200 224.556 C 259.200 224.470,258.570 224.400,257.800 224.400 C 257.030 224.400,256.400 224.544,256.400 224.720 M75.301 233.000 C 75.305 233.880,75.387 234.193,75.483 233.695 C 75.579 233.198,75.575 232.478,75.475 232.095 C 75.375 231.713,75.296 232.120,75.301 233.000 M45.905 373.883 C 46.402 373.979,47.122 373.975,47.505 373.875 C 47.887 373.775,47.480 373.696,46.600 373.701 C 45.720 373.705,45.407 373.787,45.905 373.883 M49.305 374.687 C 49.914 374.779,50.814 374.777,51.305 374.682 C 51.797 374.587,51.300 374.511,50.200 374.514 C 49.100 374.517,48.697 374.595,49.305 374.687 " stroke="none" fill="#505c8c" fill-rule="evenodd"></path><path id="path3" d="M356.400 75.280 C 356.400 75.456,357.030 75.600,357.800 75.600 C 358.570 75.600,359.200 75.530,359.200 75.444 C 359.200 75.358,358.570 75.214,357.800 75.124 C 357.030 75.034,356.400 75.104,356.400 75.280 M374.400 92.600 C 374.400 93.150,374.555 93.600,374.745 93.600 C 374.934 93.600,375.003 93.150,374.898 92.600 C 374.793 92.050,374.638 91.600,374.553 91.600 C 374.469 91.600,374.400 92.050,374.400 92.600 M374.400 107.400 C 374.400 107.950,374.469 108.400,374.553 108.400 C 374.638 108.400,374.793 107.950,374.898 107.400 C 375.003 106.850,374.934 106.400,374.745 106.400 C 374.555 106.400,374.400 106.850,374.400 107.400 M240.800 224.556 C 240.800 224.642,241.430 224.786,242.200 224.876 C 242.970 224.966,243.600 224.896,243.600 224.720 C 243.600 224.544,242.970 224.400,242.200 224.400 C 241.430 224.400,240.800 224.470,240.800 224.556 M256.400 224.720 C 256.400 224.896,257.030 224.966,257.800 224.876 C 258.570 224.786,259.200 224.642,259.200 224.556 C 259.200 224.470,258.570 224.400,257.800 224.400 C 257.030 224.400,256.400 224.544,256.400 224.720 M75.301 233.000 C 75.305 233.880,75.387 234.193,75.483 233.695 C 75.579 233.198,75.575 232.478,75.475 232.095 C 75.375 231.713,75.296 232.120,75.301 233.000 M45.905 373.883 C 46.402 373.979,47.122 373.975,47.505 373.875 C 47.887 373.775,47.480 373.696,46.600 373.701 C 45.720 373.705,45.407 373.787,45.905 373.883 M49.305 374.687 C 49.914 374.779,50.814 374.777,51.305 374.682 C 51.797 374.587,51.300 374.511,50.200 374.514 C 49.100 374.517,48.697 374.595,49.305 374.687 " stroke="none" fill="#505c8c" fill-rule="evenodd"></path><path id="path4" d="M356.400 75.280 C 356.400 75.456,357.030 75.600,357.800 75.600 C 358.570 75.600,359.200 75.530,359.200 75.444 C 359.200 75.358,358.570 75.214,357.800 75.124 C 357.030 75.034,356.400 75.104,356.400 75.280 M374.400 92.600 C 374.400 93.150,374.555 93.600,374.745 93.600 C 374.934 93.600,375.003 93.150,374.898 92.600 C 374.793 92.050,374.638 91.600,374.553 91.600 C 374.469 91.600,374.400 92.050,374.400 92.600 M374.400 107.400 C 374.400 107.950,374.469 108.400,374.553 108.400 C 374.638 108.400,374.793 107.950,374.898 107.400 C 375.003 106.850,374.934 106.400,374.745 106.400 C 374.555 106.400,374.400 106.850,374.400 107.400 M240.800 224.556 C 240.800 224.642,241.430 224.786,242.200 224.876 C 242.970 224.966,243.600 224.896,243.600 224.720 C 243.600 224.544,242.970 224.400,242.200 224.400 C 241.430 224.400,240.800 224.470,240.800 224.556 M256.400 224.720 C 256.400 224.896,257.030 224.966,257.800 224.876 C 258.570 224.786,259.200 224.642,259.200 224.556 C 259.200 224.470,258.570 224.400,257.800 224.400 C 257.030 224.400,256.400 224.544,256.400 224.720 M75.301 233.000 C 75.305 233.880,75.387 234.193,75.483 233.695 C 75.579 233.198,75.575 232.478,75.475 232.095 C 75.375 231.713,75.296 232.120,75.301 233.000 M45.905 373.883 C 46.402 373.979,47.122 373.975,47.505 373.875 C 47.887 373.775,47.480 373.696,46.600 373.701 C 45.720 373.705,45.407 373.787,45.905 373.883 M49.305 374.687 C 49.914 374.779,50.814 374.777,51.305 374.682 C 51.797 374.587,51.300 374.511,50.200 374.514 C 49.100 374.517,48.697 374.595,49.305 374.687 " stroke="none" fill="#505c8c" fill-rule="evenodd"></path></g></svg>