 <svg  version="1.0" xmlns="http://www.w3.org/2000/svg"  width="300.000000pt" height="221.000000pt" viewBox="0 0 300.000000 221.000000"  preserveAspectRatio="xMidYMid meet">  <g transform="translate(0.000000,221.000000) scale(0.100000,-0.100000)" fill="#325096" stroke="none"> <path d="M1546 2129 c-21 -16 -26 -27 -22 -45 5 -20 -8 -30 -146 -105 -286 -154 -270 -144 -266 -170 2 -9 70 -71 151 -138 l148 -121 -95 0 -96 0 0 -50 0 -50 -148 0 c-102 0 -152 -4 -160 -12 -7 -7 -12 -29 -12 -50 l0 -38 -53 0 c-51 0 -54 2 -69 33 -20 42 -76 71 -118 62 -37 -8 -79 -41 -90 -70 -8 -21 -16 -22 -136 -28 -129 -5 -129 -5 -164 22 -49 39 -56 42 -74 35 -13 -5 -16 -22 -16 -78 0 -85 -16 -116 -60 -116 -39 0 -59 -33 -33 -55 17 -14 18 -37 15 -283 l-3 -268 -27 1 c-23 0 -27 -4 -30 -33 -4 -40 14 -65 39 -57 30 10 25 -61 -11 -140 -23 -51 -28 -71 -19 -81 8 -10 46 -14 132 -16 l122 -3 5 -58 c3 -36 11 -62 20 -67 8 -5 72 -10 142 -10 124 0 128 1 144 24 9 15 15 43 14 68 -1 24 -1 49 -1 56 1 10 37 12 164 10 138 -3 161 -5 158 -18 -2 -8 -8 -32 -13 -52 -23 -85 70 -180 159 -163 52 10 79 31 104 82 l22 46 21 -26 21 -26 223 -1 c122 -1 226 2 232 5 5 3 10 12 10 20 0 11 31 31 34 23 33 -86 79 -123 147 -122 108 1 160 91 123 212 l-6 23 153 -3 154 -3 11 -69 c6 -37 18 -72 25 -77 16 -10 18 -10 158 -10 125 0 133 5 139 91 l4 61 92 -3 c80 -3 91 -5 88 -21 -2 -9 11 -38 28 -63 24 -33 37 -44 53 -42 31 4 32 31 2 76 -21 33 -24 44 -15 59 9 14 5 33 -19 92 -17 41 -31 91 -31 111 0 36 1 38 33 36 29 -1 32 2 32 29 0 27 -3 30 -32 29 l-33 -2 0 272 0 273 25 11 c14 6 25 17 25 23 0 6 -20 30 -45 55 -44 42 -45 44 -45 108 0 81 -14 89 -84 44 l-51 -33 -125 4 c-73 2 -127 7 -129 13 -2 6 -15 24 -30 40 -51 58 -154 44 -182 -24 -11 -27 -14 -28 -80 -28 l-69 0 0 38 c0 21 -5 43 -12 50 -8 8 -56 12 -150 12 l-138 0 0 50 0 50 -131 0 -130 0 -152 121 c-84 67 -153 127 -155 133 -1 7 66 49 150 94 84 45 187 100 228 123 65 35 80 40 117 34 34 -5 46 -2 63 15 16 16 18 24 10 40 -12 23 -13 23 -106 20 -44 -1 -74 2 -78 9 -10 16 -20 14 -50 -10z m172 -661 c-4 -10 -59 -14 -221 -16 -189 -2 -217 0 -217 13 0 13 30 15 221 15 172 0 220 -3 217 -12z m292 -100 c0 -17 -31 -18 -519 -18 -442 0 -520 2 -524 14 -3 8 -2 16 4 18 5 2 241 3 524 3 484 0 515 -1 515 -17z m-1306 6 c29 -11 16 -24 -24 -24 -38 0 -49 8 -33 23 8 9 36 9 57 1z m1640 0 c29 -11 17 -24 -21 -24 -36 1 -37 2 -19 15 23 17 20 17 40 9z m381 -113 c22 -10 46 -25 54 -34 12 -16 -75 -17 -1264 -17 -1159 0 -1276 1 -1264 16 7 8 29 24 48 34 35 18 79 19 1211 19 1115 1 1177 0 1215 -18z m85 -146 c0 -23 -4 -25 -47 -25 -27 0 -54 -4 -61 -8 -9 -7 -12 -53 -10 -198 l3 -189 55 -5 55 -5 5 -135 c3 -80 10 -144 18 -157 23 -41 17 -44 -75 -41 l-88 3 -5 375 -5 375 -150 0 -150 0 -5 -370 -5 -370 -860 0 -860 0 -3 350 c-1 193 -4 356 -7 363 -7 18 -278 17 -294 -1 -7 -9 -12 -128 -13 -373 l-3 -359 -87 -3 c-49 -1 -88 1 -88 5 1 4 9 26 20 48 16 33 19 62 20 163 l0 122 54 0 c40 0 55 4 60 16 3 9 6 96 6 194 0 199 4 190 -76 190 -42 0 -44 1 -44 30 l0 30 1320 0 1320 0 0 -25z m-215 -440 l0 -370 -90 0 -90 0 -3 360 c-1 198 0 366 3 373 3 9 28 12 92 10 l88 -3 0 -370z m-2037 -23 l2 -373 -92 3 -93 3 -3 364 c-2 285 1 366 10 373 7 4 49 7 93 6 l80 -3 3 -373z m2250 236 l3 -138 -31 0 -30 0 0 133 c0 74 3 137 7 141 4 4 16 6 28 4 19 -3 20 -11 23 -140z m-2583 -8 l0 -135 -27 -3 -28 -3 0 141 0 141 28 -3 27 -3 0 -135z m1559 -589 c3 -5 0 -23 -8 -41 -8 -20 -16 -28 -20 -21 -12 20 -74 13 -86 -9 -10 -19 -21 -20 -180 -20 -159 0 -170 1 -180 20 -12 22 -59 27 -77 9 -9 -9 -15 -3 -26 22 -8 19 -12 37 -10 42 6 10 581 9 587 -2z m-657 -33 c48 -45 14 -128 -53 -128 -23 0 -38 8 -53 26 -28 35 -26 69 4 99 30 31 71 32 102 3z m823 12 c25 -13 41 -65 30 -95 -29 -76 -144 -52 -144 30 0 60 60 94 114 65z m650 -55 c0 -12 -17 -15 -95 -15 -78 0 -95 3 -95 15 0 12 17 15 95 15 78 0 95 -3 95 -15z m-2040 -5 c0 -6 -39 -10 -96 -10 -61 0 -93 4 -89 10 3 6 46 10 96 10 53 0 89 -4 89 -10z"/> <path d="M731 1032 c-67 -34 -76 -56 -79 -218 l-3 -144 161 0 161 0 -3 149 c-3 143 -4 151 -28 177 -50 54 -143 70 -209 36z m151 -69 c13 -12 17 -37 20 -119 l3 -104 -92 0 -93 0 0 104 c0 112 4 120 57 135 35 10 83 3 105 -16z"/> <path d="M1070 1032 c-19 -9 -45 -32 -57 -51 -21 -31 -23 -45 -23 -172 l0 -139 160 0 160 0 0 139 c0 127 -2 141 -23 172 -29 43 -80 69 -137 69 -25 0 -61 -8 -80 -18z m152 -69 c15 -14 18 -32 18 -120 l0 -103 -90 0 -90 0 0 104 c0 97 2 106 22 120 30 22 116 21 140 -1z"/> <path d="M1410 1033 c-19 -10 -45 -33 -57 -52 -21 -31 -23 -45 -23 -172 l0 -139 160 0 160 0 0 133 c0 145 -10 183 -62 221 -39 28 -132 33 -178 9z m156 -74 c10 -8 14 -38 14 -115 l0 -104 -90 0 -90 0 0 104 c0 114 4 123 63 136 34 7 80 -2 103 -21z"/> <path d="M1755 1036 c-16 -7 -41 -26 -55 -41 -24 -25 -25 -33 -28 -176 l-3 -149 160 0 161 0 0 133 c0 145 -10 183 -62 221 -35 25 -130 32 -173 12z m143 -72 c21 -14 22 -21 22 -119 l0 -105 -90 0 -90 0 0 103 c0 86 3 107 18 120 32 28 95 29 140 1z"/> <path d="M2095 1036 c-16 -7 -41 -26 -55 -41 -24 -25 -25 -33 -28 -176 l-3 -149 160 0 161 0 0 133 c0 145 -10 183 -62 221 -35 25 -130 32 -173 12z m145 -76 c17 -17 20 -33 20 -120 l0 -100 -92 0 -93 0 3 105 c3 94 5 106 25 120 32 22 112 20 137 -5z"/> <path d="M2440 870 l0 -140 30 0 30 0 0 140 0 140 -30 0 -30 0 0 -140z"/> <path d="M2520 870 l0 -140 30 0 30 0 0 140 0 140 -30 0 -30 0 0 -140z"/> <path d="M2440 520 l0 -160 30 0 30 0 0 160 0 160 -30 0 -30 0 0 -160z"/> <path d="M2520 520 l0 -160 30 0 30 0 0 160 0 160 -30 0 -30 0 0 -160z"/> <path d="M400 845 l0 -145 30 0 30 0 0 145 0 145 -30 0 -30 0 0 -145z"/> <path d="M480 845 l0 -145 30 0 30 0 0 145 0 145 -30 0 -30 0 0 -145z"/> <path d="M400 495 l0 -165 30 0 30 0 0 165 0 165 -30 0 -30 0 0 -165z"/> <path d="M480 495 l0 -165 30 0 30 0 0 165 0 165 -30 0 -30 0 0 -165z"/> <path d="M650 215 l0 -35 130 0 130 0 0 35 0 35 -130 0 -130 0 0 -35z"/> <path d="M2077 244 c-4 -4 -7 -20 -7 -36 l0 -28 126 0 125 0 -3 33 -3 32 -116 3 c-63 1 -118 -1 -122 -4z"/> </g> </svg> 