<?xml version="1.0" standalone="no"?>
<!DOCTYPE svg PUBLIC "-//W3C//DTD SVG 20010904//EN"
 "http://www.w3.org/TR/2001/REC-SVG-20010904/DTD/svg10.dtd">
<svg version="1.0" xmlns="http://www.w3.org/2000/svg"
 width="300.000000pt" height="267.000000pt" viewBox="0 0 300.000000 267.000000"
 preserveAspectRatio="xMidYMid meet">
<metadata>
Created by potrace 1.10, written by Peter Selinger 2001-2011
</metadata>
<g transform="translate(0.000000,267.000000) scale(0.100000,-0.100000)"
fill="#325096" stroke="none">
<path d="M1360 2654 c-145 -31 -293 -131 -374 -252 -74 -112 -98 -187 -104
-322 -4 -109 -3 -120 27 -210 53 -158 166 -357 344 -605 180 -251 212 -280
280 -252 39 17 79 64 214 252 178 248 291 447 344 605 30 90 31 101 27 210 -6
135 -30 210 -104 322 -136 204 -402 307 -654 252z m228 -383 c78 -40 112 -97
112 -187 0 -69 -17 -111 -63 -151 -79 -69 -195 -69 -274 0 -46 40 -63 82 -63
152 0 88 35 147 115 188 42 23 127 21 173 -2z"/>
<path d="M2824 1991 c-27 -9 -172 -66 -323 -126 l-273 -110 -29 -57 -29 -57 0
-796 c0 -437 2 -795 5 -795 3 0 176 68 383 151 275 110 385 159 407 180 l30
29 3 738 c2 498 0 748 -8 772 -20 67 -90 97 -166 71z"/>
<path d="M390 1818 c-179 -71 -331 -132 -337 -135 -7 -3 -22 -20 -33 -38 -20
-32 -20 -47 -20 -775 0 -824 -3 -782 66 -815 62 -29 49 -33 467 137 l297 121
0 662 0 662 -35 75 c-19 42 -45 111 -58 156 l-23 80 -324 -130z"/>
<path d="M1000 837 l0 -507 23 -10 c12 -5 191 -57 397 -115 206 -59 409 -117
450 -129 41 -13 87 -26 103 -30 l27 -6 0 652 0 651 -57 -84 c-66 -99 -240
-324 -274 -356 -40 -37 -109 -63 -169 -63 -60 0 -129 26 -169 63 -34 32 -208
257 -274 356 l-57 84 0 -506z"/>
</g>
</svg>
