<svg id="svg" version="1.1" xmlns="http://www.w3.org/2000/svg" xmlns:xlink="http://www.w3.org/1999/xlink" width="400" height="355.55555555555554" viewBox="0, 0, 400,355.55555555555554"><g id="svgg"><path id="path0" d="M186.578 0.244 C 185.453 0.325,184.533 0.543,184.533 0.729 C 184.533 0.915,183.733 1.067,182.756 1.067 C 181.778 1.067,180.978 1.227,180.978 1.422 C 180.978 1.618,180.338 1.778,179.556 1.778 C 178.773 1.778,178.133 1.938,178.133 2.133 C 178.133 2.329,177.493 2.489,176.711 2.489 C 175.929 2.489,175.289 2.649,175.289 2.844 C 175.289 3.040,174.898 3.200,174.421 3.200 C 173.944 3.200,173.454 3.360,173.333 3.556 C 173.212 3.751,172.723 3.911,172.246 3.911 C 171.768 3.911,171.378 4.071,171.378 4.267 C 171.378 4.462,170.898 4.622,170.311 4.622 C 169.724 4.622,169.244 4.782,169.244 4.978 C 169.244 5.173,168.924 5.333,168.533 5.333 C 168.142 5.333,167.822 5.493,167.822 5.689 C 167.822 5.884,167.502 6.044,167.111 6.044 C 166.720 6.044,166.400 6.204,166.400 6.400 C 166.400 6.596,165.920 6.756,165.333 6.756 C 164.747 6.756,164.267 6.901,164.267 7.080 C 164.267 7.258,163.627 7.512,162.844 7.644 C 162.062 7.777,161.422 8.031,161.422 8.209 C 161.422 8.387,161.102 8.533,160.711 8.533 C 160.320 8.533,160.000 8.693,160.000 8.889 C 160.000 9.084,159.819 9.244,159.597 9.244 C 159.376 9.244,158.909 9.573,158.561 9.975 C 158.212 10.377,157.604 10.731,157.210 10.760 C 156.816 10.790,156.572 10.941,156.668 11.096 C 156.764 11.251,156.551 11.378,156.195 11.378 C 155.840 11.378,155.349 11.698,155.105 12.089 C 154.860 12.480,154.377 12.800,154.031 12.800 C 153.685 12.800,153.171 13.120,152.889 13.511 C 152.607 13.902,152.132 14.224,151.833 14.225 C 151.534 14.227,150.911 14.707,150.449 15.292 C 149.987 15.877,149.399 16.356,149.143 16.356 C 148.887 16.356,148.050 16.996,147.283 17.778 C 146.516 18.560,145.716 19.200,145.504 19.200 C 144.984 19.200,135.822 28.338,135.822 28.856 C 135.822 29.082,135.182 29.894,134.400 30.661 C 133.618 31.427,132.978 32.225,132.978 32.433 C 132.978 32.642,132.498 33.271,131.911 33.831 C 131.324 34.392,130.844 35.007,130.844 35.199 C 130.844 35.570,130.107 36.542,128.800 37.895 C 128.360 38.351,128.000 38.971,128.000 39.273 C 128.000 39.575,127.842 39.822,127.649 39.822 C 127.455 39.822,127.335 40.182,127.382 40.622 C 127.429 41.070,127.286 41.388,127.057 41.345 C 126.611 41.261,125.511 43.315,125.511 44.232 C 125.511 44.544,125.351 44.800,125.156 44.800 C 124.960 44.800,124.800 45.120,124.800 45.511 C 124.800 45.902,124.640 46.222,124.444 46.222 C 124.249 46.222,124.089 46.542,124.089 46.933 C 124.089 47.324,123.929 47.644,123.733 47.644 C 123.538 47.644,123.378 48.124,123.378 48.711 C 123.378 49.298,123.218 49.778,123.022 49.778 C 122.827 49.778,122.667 50.098,122.667 50.489 C 122.667 50.880,122.547 51.201,122.400 51.203 C 121.998 51.207,121.244 53.005,121.244 53.959 C 121.244 54.427,121.088 54.701,120.889 54.578 C 120.682 54.450,120.533 54.804,120.533 55.425 C 120.533 56.011,120.373 56.590,120.178 56.711 C 119.982 56.832,119.822 57.321,119.822 57.799 C 119.822 58.276,119.662 58.667,119.467 58.667 C 119.271 58.667,119.111 59.307,119.111 60.089 C 119.111 60.871,118.951 61.511,118.756 61.511 C 118.560 61.511,118.400 62.151,118.400 62.933 C 118.400 63.716,118.240 64.356,118.044 64.356 C 117.849 64.356,117.689 65.156,117.689 66.133 C 117.689 67.111,117.529 67.911,117.333 67.911 C 117.138 67.911,116.978 68.791,116.978 69.867 C 116.978 70.942,116.818 71.822,116.622 71.822 C 116.394 71.822,116.267 75.437,116.267 81.956 C 116.267 88.474,116.394 92.089,116.622 92.089 C 116.818 92.089,116.978 92.959,116.978 94.023 C 116.978 95.087,117.138 96.057,117.333 96.178 C 117.529 96.299,117.689 96.948,117.689 97.621 C 117.689 98.294,117.849 98.844,118.044 98.844 C 118.240 98.844,118.400 99.324,118.400 99.911 C 118.400 100.498,118.560 100.978,118.756 100.978 C 118.951 100.978,119.111 101.618,119.111 102.400 C 119.111 103.182,119.271 103.822,119.467 103.822 C 119.662 103.822,119.822 104.302,119.822 104.889 C 119.822 105.476,119.982 105.956,120.178 105.956 C 120.373 105.956,120.533 106.346,120.533 106.823 C 120.533 107.301,120.693 107.790,120.889 107.911 C 121.084 108.032,121.244 108.512,121.244 108.978 C 121.244 109.444,121.404 109.924,121.600 110.044 C 121.796 110.165,121.956 110.655,121.956 111.132 C 121.956 111.609,122.116 112.000,122.311 112.000 C 122.507 112.000,122.667 112.320,122.667 112.711 C 122.667 113.102,122.827 113.422,123.022 113.422 C 123.218 113.422,123.378 113.742,123.378 114.133 C 123.378 114.524,123.538 114.844,123.733 114.844 C 123.929 114.844,124.089 115.324,124.089 115.911 C 124.089 116.498,124.249 116.978,124.444 116.978 C 124.640 116.978,124.800 117.298,124.800 117.689 C 124.800 118.080,124.960 118.400,125.156 118.400 C 125.351 118.400,125.512 118.840,125.513 119.378 C 125.515 119.916,125.755 120.814,126.047 121.374 C 126.339 121.934,126.578 122.614,126.578 122.885 C 126.578 123.156,126.778 123.338,127.022 123.289 C 127.294 123.235,127.432 123.519,127.378 124.021 C 127.327 124.494,127.440 124.748,127.645 124.622 C 127.840 124.501,128.000 124.732,128.000 125.135 C 128.000 125.537,128.160 125.867,128.356 125.867 C 128.551 125.867,128.711 126.118,128.711 126.425 C 128.711 126.733,128.959 127.232,129.262 127.535 C 129.565 127.838,129.905 128.546,130.017 129.110 C 130.130 129.673,130.362 130.133,130.533 130.133 C 130.704 130.133,130.844 130.440,130.844 130.815 C 130.844 131.190,130.964 131.550,131.111 131.615 C 131.495 131.786,132.978 134.730,132.978 135.322 C 132.978 135.597,133.138 135.822,133.333 135.822 C 133.529 135.822,133.689 136.107,133.689 136.455 C 133.689 136.803,134.009 137.318,134.400 137.600 C 134.791 137.882,135.111 138.397,135.111 138.745 C 135.111 139.093,135.241 139.378,135.400 139.378 C 135.559 139.378,135.909 139.938,136.178 140.622 C 136.446 141.307,136.796 141.867,136.955 141.867 C 137.114 141.867,137.244 142.151,137.244 142.499 C 137.244 142.847,137.564 143.363,137.956 143.644 C 138.347 143.926,138.667 144.442,138.667 144.790 C 138.667 145.138,138.827 145.422,139.022 145.422 C 139.218 145.422,139.378 145.742,139.378 146.133 C 139.378 146.524,139.538 146.844,139.733 146.844 C 139.929 146.844,140.089 147.107,140.089 147.427 C 140.089 147.748,140.336 148.191,140.638 148.412 C 140.940 148.633,141.214 149.171,141.247 149.607 C 141.280 150.043,141.433 150.400,141.587 150.400 C 141.741 150.400,141.867 150.709,141.867 151.087 C 141.867 151.465,142.187 151.876,142.578 152.000 C 143.038 152.146,143.289 152.538,143.289 153.112 C 143.289 153.612,143.444 153.902,143.644 153.778 C 143.840 153.657,144.000 153.777,144.000 154.045 C 144.000 154.313,144.320 154.876,144.711 155.296 C 145.102 155.716,145.422 156.247,145.422 156.477 C 145.422 156.706,145.703 157.153,146.047 157.469 C 146.390 157.786,146.897 158.484,147.174 159.022 C 147.450 159.560,147.809 160.000,147.971 160.000 C 148.134 160.000,148.267 160.320,148.267 160.711 C 148.267 161.102,148.427 161.422,148.622 161.422 C 148.818 161.422,148.978 161.632,148.978 161.889 C 148.978 162.145,149.258 162.665,149.600 163.044 C 149.942 163.423,150.449 164.173,150.727 164.711 C 151.004 165.249,151.364 165.689,151.527 165.689 C 151.689 165.689,151.822 165.974,151.822 166.322 C 151.822 166.669,152.142 167.185,152.533 167.467 C 152.924 167.749,153.244 168.225,153.244 168.526 C 153.244 168.827,153.564 169.273,153.956 169.517 C 154.347 169.762,154.667 170.141,154.667 170.361 C 154.667 170.581,155.003 171.052,155.413 171.408 C 155.823 171.764,156.091 172.260,156.008 172.510 C 155.925 172.759,156.142 173.207,156.491 173.504 C 156.840 173.801,157.172 174.281,157.229 174.569 C 157.365 175.255,158.065 176.000,158.573 176.000 C 158.794 176.000,158.876 176.160,158.756 176.356 C 158.635 176.551,158.705 176.711,158.912 176.711 C 159.119 176.711,159.289 176.993,159.289 177.337 C 159.289 177.681,159.609 178.162,160.000 178.406 C 160.391 178.651,160.711 179.134,160.711 179.480 C 160.711 179.826,161.031 180.340,161.422 180.622 C 161.813 180.904,162.133 181.339,162.133 181.590 C 162.133 181.840,162.293 182.044,162.489 182.044 C 162.684 182.044,162.844 182.284,162.844 182.578 C 162.844 182.871,163.004 183.111,163.200 183.111 C 163.396 183.111,163.556 183.294,163.556 183.517 C 163.556 183.740,164.036 184.382,164.622 184.942 C 165.209 185.503,165.689 186.136,165.689 186.349 C 165.689 186.563,166.169 187.185,166.756 187.733 C 167.342 188.281,167.822 188.950,167.822 189.220 C 167.822 189.489,168.142 189.940,168.533 190.222 C 168.924 190.504,169.244 190.946,169.244 191.205 C 169.244 191.464,169.644 192.107,170.133 192.634 C 170.622 193.161,171.022 193.874,171.022 194.219 C 171.022 194.563,171.237 194.844,171.500 194.844 C 172.144 194.844,173.156 196.002,173.156 196.739 C 173.156 197.066,173.289 197.333,173.451 197.333 C 173.614 197.333,173.958 197.728,174.216 198.210 C 174.474 198.692,174.821 199.003,174.987 198.900 C 175.153 198.798,175.289 198.979,175.289 199.303 C 175.289 199.627,175.769 200.341,176.356 200.889 C 176.942 201.437,177.422 202.077,177.422 202.311 C 177.422 202.545,177.902 203.185,178.489 203.733 C 179.076 204.281,179.556 204.918,179.556 205.148 C 179.556 205.379,180.196 206.182,180.978 206.933 C 181.760 207.685,182.400 208.449,182.400 208.631 C 182.400 208.812,182.880 209.463,183.467 210.077 C 184.053 210.691,184.533 211.377,184.533 211.601 C 184.533 211.826,185.093 212.487,185.778 213.072 C 186.462 213.657,187.022 214.343,187.022 214.597 C 187.022 215.239,192.253 220.444,192.897 220.444 C 193.186 220.444,193.422 220.604,193.422 220.800 C 193.422 220.996,193.742 221.156,194.133 221.156 C 194.524 221.156,194.844 221.316,194.844 221.511 C 194.844 221.707,195.484 221.867,196.267 221.867 C 197.049 221.867,197.689 222.027,197.689 222.222 C 197.689 222.423,198.696 222.578,200.000 222.578 C 201.304 222.578,202.311 222.423,202.311 222.222 C 202.311 222.027,202.951 221.867,203.733 221.867 C 204.516 221.867,205.156 221.707,205.156 221.511 C 205.156 221.316,205.476 221.156,205.867 221.156 C 206.258 221.156,206.578 220.996,206.578 220.800 C 206.578 220.604,206.814 220.444,207.103 220.444 C 207.747 220.444,212.978 215.239,212.978 214.597 C 212.978 214.343,213.538 213.657,214.222 213.072 C 214.907 212.487,215.467 211.826,215.467 211.601 C 215.467 211.377,215.947 210.691,216.533 210.077 C 217.120 209.463,217.600 208.812,217.600 208.631 C 217.600 208.449,218.240 207.685,219.022 206.933 C 219.804 206.182,220.444 205.379,220.444 205.148 C 220.444 204.918,220.924 204.281,221.511 203.733 C 222.098 203.185,222.578 202.545,222.578 202.311 C 222.578 202.077,223.058 201.437,223.644 200.889 C 224.231 200.341,224.711 199.627,224.711 199.303 C 224.711 198.979,224.847 198.798,225.013 198.900 C 225.179 199.003,225.526 198.692,225.784 198.210 C 226.042 197.728,226.386 197.333,226.549 197.333 C 226.711 197.333,226.844 197.038,226.844 196.677 C 226.844 195.964,227.893 194.844,228.561 194.844 C 228.790 194.844,228.978 194.563,228.978 194.219 C 228.978 193.874,229.378 193.161,229.867 192.634 C 230.356 192.107,230.756 191.464,230.756 191.205 C 230.756 190.946,231.076 190.504,231.467 190.222 C 231.858 189.940,232.178 189.489,232.178 189.220 C 232.178 188.950,232.658 188.281,233.244 187.733 C 233.831 187.185,234.311 186.520,234.311 186.254 C 234.311 185.988,234.631 185.571,235.022 185.327 C 235.413 185.083,235.733 184.680,235.733 184.431 C 235.733 184.183,236.053 183.749,236.444 183.467 C 236.836 183.185,237.156 182.749,237.156 182.499 C 237.156 182.249,237.316 182.044,237.511 182.044 C 237.707 182.044,237.867 181.840,237.867 181.590 C 237.867 181.339,238.187 180.904,238.578 180.622 C 238.969 180.340,239.289 179.826,239.289 179.480 C 239.289 179.134,239.609 178.651,240.000 178.406 C 240.391 178.162,240.711 177.681,240.711 177.337 C 240.711 176.993,240.881 176.711,241.088 176.711 C 241.295 176.711,241.365 176.551,241.244 176.356 C 241.124 176.160,241.206 176.000,241.427 176.000 C 241.935 176.000,242.635 175.255,242.771 174.569 C 242.828 174.281,243.160 173.801,243.509 173.504 C 243.858 173.207,244.075 172.759,243.992 172.510 C 243.909 172.260,244.177 171.764,244.587 171.408 C 244.997 171.052,245.333 170.581,245.333 170.361 C 245.333 170.141,245.653 169.762,246.044 169.517 C 246.436 169.273,246.756 168.827,246.756 168.526 C 246.756 168.225,247.076 167.749,247.467 167.467 C 247.858 167.185,248.178 166.669,248.178 166.322 C 248.178 165.974,248.311 165.689,248.473 165.689 C 248.636 165.689,248.996 165.249,249.273 164.711 C 249.551 164.173,250.058 163.423,250.400 163.044 C 250.742 162.665,251.022 162.145,251.022 161.889 C 251.022 161.632,251.182 161.422,251.378 161.422 C 251.573 161.422,251.733 161.102,251.733 160.711 C 251.733 160.320,251.866 160.000,252.029 160.000 C 252.191 160.000,252.550 159.560,252.826 159.022 C 253.103 158.484,253.610 157.786,253.953 157.469 C 254.297 157.153,254.578 156.706,254.578 156.477 C 254.578 156.247,254.898 155.716,255.289 155.296 C 255.680 154.876,256.000 154.313,256.000 154.045 C 256.000 153.777,256.160 153.657,256.356 153.778 C 256.556 153.902,256.711 153.612,256.711 153.112 C 256.711 152.538,256.962 152.146,257.422 152.000 C 257.813 151.876,258.133 151.465,258.133 151.087 C 258.133 150.709,258.259 150.400,258.413 150.400 C 258.567 150.400,258.720 150.043,258.753 149.607 C 258.786 149.171,259.060 148.633,259.362 148.412 C 259.664 148.191,259.911 147.748,259.911 147.427 C 259.911 147.107,260.071 146.844,260.267 146.844 C 260.462 146.844,260.622 146.524,260.622 146.133 C 260.622 145.742,260.782 145.422,260.978 145.422 C 261.173 145.422,261.333 145.138,261.333 144.790 C 261.333 144.442,261.653 143.926,262.044 143.644 C 262.436 143.363,262.756 142.847,262.756 142.499 C 262.756 142.151,262.886 141.867,263.045 141.867 C 263.204 141.867,263.554 141.307,263.822 140.622 C 264.091 139.938,264.441 139.378,264.600 139.378 C 264.759 139.378,264.889 139.093,264.889 138.745 C 264.889 138.397,265.209 137.882,265.600 137.600 C 265.991 137.318,266.311 136.803,266.311 136.455 C 266.311 136.107,266.471 135.822,266.667 135.822 C 266.862 135.822,267.022 135.597,267.022 135.322 C 267.022 134.730,268.505 131.786,268.889 131.615 C 269.036 131.550,269.156 131.190,269.156 130.815 C 269.156 130.440,269.296 130.133,269.467 130.133 C 269.638 130.133,269.870 129.673,269.983 129.110 C 270.095 128.546,270.435 127.838,270.738 127.535 C 271.041 127.232,271.289 126.733,271.289 126.425 C 271.289 126.118,271.449 125.867,271.644 125.867 C 271.840 125.867,272.000 125.537,272.000 125.135 C 272.000 124.732,272.160 124.501,272.355 124.622 C 272.560 124.748,272.673 124.494,272.622 124.021 C 272.568 123.519,272.706 123.235,272.978 123.289 C 273.222 123.338,273.422 123.156,273.422 122.885 C 273.422 122.614,273.661 121.934,273.953 121.374 C 274.245 120.814,274.485 119.916,274.487 119.378 C 274.488 118.840,274.649 118.400,274.844 118.400 C 275.040 118.400,275.200 118.080,275.200 117.689 C 275.200 117.298,275.360 116.978,275.556 116.978 C 275.751 116.978,275.911 116.658,275.911 116.267 C 275.911 115.876,276.071 115.556,276.267 115.556 C 276.462 115.556,276.622 115.076,276.622 114.489 C 276.622 113.902,276.782 113.422,276.978 113.422 C 277.173 113.422,277.333 112.942,277.333 112.356 C 277.333 111.769,277.453 111.288,277.600 111.286 C 277.956 111.282,278.756 109.528,278.756 108.750 C 278.756 108.410,278.916 108.032,279.111 107.911 C 279.307 107.790,279.467 107.301,279.467 106.823 C 279.467 106.346,279.627 105.956,279.822 105.956 C 280.018 105.956,280.178 105.476,280.178 104.889 C 280.178 104.302,280.338 103.822,280.533 103.822 C 280.729 103.822,280.889 103.182,280.889 102.400 C 280.889 101.618,281.049 100.978,281.244 100.978 C 281.440 100.978,281.600 100.498,281.600 99.911 C 281.600 99.324,281.760 98.844,281.956 98.844 C 282.151 98.844,282.311 98.124,282.311 97.244 C 282.311 96.364,282.471 95.644,282.667 95.644 C 282.862 95.644,283.022 94.844,283.022 93.867 C 283.022 92.889,283.182 92.089,283.378 92.089 C 283.606 92.089,283.733 88.474,283.733 81.956 C 283.733 75.437,283.606 71.822,283.378 71.822 C 283.182 71.822,283.022 70.942,283.022 69.867 C 283.022 68.791,282.862 67.911,282.667 67.911 C 282.471 67.911,282.311 67.111,282.311 66.133 C 282.311 65.156,282.151 64.356,281.956 64.356 C 281.760 64.356,281.600 63.716,281.600 62.933 C 281.600 62.151,281.440 61.511,281.244 61.511 C 281.049 61.511,280.889 60.871,280.889 60.089 C 280.889 59.307,280.729 58.667,280.533 58.667 C 280.338 58.667,280.178 58.276,280.178 57.799 C 280.178 57.321,280.018 56.832,279.822 56.711 C 279.627 56.590,279.467 56.011,279.467 55.425 C 279.467 54.804,279.318 54.450,279.111 54.578 C 278.909 54.703,278.756 54.397,278.756 53.867 C 278.756 53.337,278.602 53.030,278.400 53.156 C 278.193 53.284,278.044 52.922,278.044 52.288 C 278.044 51.689,277.884 51.200,277.689 51.200 C 277.493 51.200,277.333 50.880,277.333 50.489 C 277.333 50.098,277.173 49.778,276.978 49.778 C 276.782 49.778,276.622 49.298,276.622 48.711 C 276.622 48.124,276.462 47.644,276.267 47.644 C 276.071 47.644,275.911 47.324,275.911 46.933 C 275.911 46.542,275.751 46.222,275.556 46.222 C 275.360 46.222,275.200 45.902,275.200 45.511 C 275.200 45.120,275.040 44.800,274.844 44.800 C 274.649 44.800,274.489 44.544,274.489 44.232 C 274.489 43.315,273.389 41.261,272.943 41.345 C 272.714 41.388,272.571 41.070,272.618 40.622 C 272.665 40.182,272.545 39.822,272.351 39.822 C 272.158 39.822,272.000 39.575,272.000 39.273 C 272.000 38.971,271.640 38.351,271.200 37.895 C 269.893 36.542,269.156 35.570,269.156 35.199 C 269.156 35.007,268.676 34.392,268.089 33.831 C 267.502 33.271,267.022 32.642,267.022 32.433 C 267.022 32.225,266.382 31.427,265.600 30.661 C 264.818 29.894,264.178 29.082,264.178 28.856 C 264.178 28.338,255.016 19.200,254.496 19.200 C 254.284 19.200,253.484 18.560,252.717 17.778 C 251.950 16.996,251.113 16.356,250.857 16.356 C 250.601 16.356,250.013 15.877,249.551 15.292 C 249.089 14.707,248.466 14.227,248.167 14.225 C 247.868 14.224,247.393 13.902,247.111 13.511 C 246.829 13.120,246.315 12.800,245.969 12.800 C 245.623 12.800,245.140 12.480,244.895 12.089 C 244.651 11.698,244.160 11.378,243.805 11.378 C 243.449 11.378,243.236 11.251,243.332 11.096 C 243.428 10.941,243.184 10.790,242.790 10.760 C 242.396 10.731,241.788 10.377,241.439 9.975 C 241.091 9.573,240.624 9.244,240.403 9.244 C 240.181 9.244,240.000 9.084,240.000 8.889 C 240.000 8.693,239.680 8.533,239.289 8.533 C 238.898 8.533,238.578 8.387,238.578 8.209 C 238.578 8.031,237.938 7.777,237.156 7.644 C 236.373 7.512,235.733 7.258,235.733 7.080 C 235.733 6.901,235.253 6.756,234.667 6.756 C 234.080 6.756,233.600 6.596,233.600 6.400 C 233.600 6.204,233.280 6.044,232.889 6.044 C 232.498 6.044,232.178 5.884,232.178 5.689 C 232.178 5.493,231.698 5.333,231.111 5.333 C 230.524 5.333,230.044 5.173,230.044 4.978 C 230.044 4.782,229.724 4.622,229.333 4.622 C 228.942 4.622,228.622 4.462,228.622 4.267 C 228.622 4.071,228.232 3.911,227.754 3.911 C 227.277 3.911,226.788 3.751,226.667 3.556 C 226.546 3.360,226.056 3.200,225.579 3.200 C 225.102 3.200,224.711 3.040,224.711 2.844 C 224.711 2.649,224.071 2.489,223.289 2.489 C 222.507 2.489,221.867 2.329,221.867 2.133 C 221.867 1.938,221.227 1.778,220.444 1.778 C 219.662 1.778,219.022 1.618,219.022 1.422 C 219.022 1.227,218.236 1.067,217.274 1.067 C 216.192 1.067,215.470 0.897,215.378 0.622 C 215.231 0.182,191.734 -0.127,186.578 0.244 M205.307 51.514 C 205.414 51.686,206.543 51.939,207.817 52.075 C 209.091 52.212,210.133 52.471,210.133 52.651 C 210.133 52.831,210.453 52.978,210.844 52.978 C 211.236 52.978,211.556 53.138,211.556 53.333 C 211.556 53.529,211.876 53.689,212.267 53.689 C 212.658 53.689,212.978 53.849,212.978 54.044 C 212.978 54.240,213.259 54.400,213.603 54.400 C 213.947 54.400,214.429 54.720,214.673 55.111 C 214.917 55.502,215.356 55.822,215.647 55.822 C 215.939 55.822,216.178 55.982,216.178 56.178 C 216.178 56.373,216.418 56.533,216.711 56.533 C 217.004 56.533,217.244 56.677,217.244 56.852 C 217.244 57.027,218.284 58.226,219.556 59.516 C 220.827 60.806,221.867 62.067,221.867 62.319 C 221.867 62.570,222.187 63.007,222.578 63.289 C 222.969 63.571,223.289 64.086,223.289 64.434 C 223.289 64.782,223.449 65.067,223.644 65.067 C 223.840 65.067,224.000 65.396,224.000 65.799 C 224.000 66.201,224.160 66.432,224.356 66.311 C 224.551 66.190,224.711 66.421,224.711 66.823 C 224.711 67.226,224.871 67.556,225.067 67.556 C 225.262 67.556,225.422 68.036,225.422 68.622 C 225.422 69.209,225.582 69.689,225.778 69.689 C 225.973 69.689,226.133 70.329,226.133 71.111 C 226.133 71.893,226.293 72.533,226.489 72.533 C 226.710 72.533,226.844 74.489,226.844 77.689 C 226.844 80.889,226.710 82.844,226.489 82.844 C 226.293 82.844,226.133 83.484,226.133 84.267 C 226.133 85.049,225.973 85.689,225.778 85.689 C 225.582 85.689,225.422 86.169,225.422 86.756 C 225.422 87.342,225.262 87.822,225.067 87.822 C 224.871 87.822,224.711 88.142,224.711 88.533 C 224.711 88.924,224.551 89.244,224.356 89.244 C 224.160 89.244,224.000 89.564,224.000 89.956 C 224.000 90.347,223.840 90.667,223.644 90.667 C 223.449 90.667,223.289 90.922,223.289 91.235 C 223.289 91.548,222.809 92.252,222.222 92.800 C 221.636 93.348,221.156 93.972,221.156 94.186 C 221.156 94.401,220.596 95.170,219.911 95.895 C 219.227 96.621,218.667 97.096,218.667 96.951 C 218.667 96.806,218.098 97.257,217.402 97.952 C 216.706 98.648,216.020 99.144,215.877 99.056 C 215.733 98.967,215.303 99.363,214.919 99.935 C 214.536 100.508,213.942 100.976,213.600 100.977 C 213.258 100.977,212.978 101.138,212.978 101.333 C 212.978 101.529,212.658 101.689,212.267 101.689 C 211.876 101.689,211.556 101.849,211.556 102.044 C 211.556 102.240,211.236 102.400,210.844 102.400 C 210.453 102.400,210.133 102.560,210.133 102.756 C 210.133 102.951,209.653 103.111,209.067 103.111 C 208.480 103.111,208.000 103.271,208.000 103.467 C 208.000 103.662,207.360 103.822,206.578 103.822 C 205.796 103.822,205.156 103.982,205.156 104.178 C 205.156 104.398,203.200 104.533,200.000 104.533 C 196.800 104.533,194.844 104.398,194.844 104.178 C 194.844 103.982,194.204 103.822,193.422 103.822 C 192.640 103.822,192.000 103.662,192.000 103.467 C 192.000 103.271,191.520 103.111,190.933 103.111 C 190.347 103.111,189.867 102.951,189.867 102.756 C 189.867 102.560,189.547 102.400,189.156 102.400 C 188.764 102.400,188.444 102.240,188.444 102.044 C 188.444 101.849,188.124 101.689,187.733 101.689 C 187.342 101.689,187.022 101.529,187.022 101.333 C 187.022 101.138,186.742 100.977,186.400 100.977 C 186.058 100.976,185.464 100.508,185.081 99.935 C 184.697 99.363,184.267 98.967,184.123 99.056 C 183.980 99.144,183.294 98.648,182.598 97.952 C 181.902 97.257,181.333 96.806,181.333 96.951 C 181.333 97.096,180.773 96.621,180.089 95.895 C 179.404 95.170,178.844 94.401,178.844 94.186 C 178.844 93.972,178.364 93.348,177.778 92.800 C 177.191 92.252,176.711 91.548,176.711 91.235 C 176.711 90.922,176.551 90.667,176.356 90.667 C 176.160 90.667,176.000 90.347,176.000 89.956 C 176.000 89.564,175.840 89.244,175.644 89.244 C 175.449 89.244,175.289 88.924,175.289 88.533 C 175.289 88.142,175.129 87.822,174.933 87.822 C 174.738 87.822,174.578 87.342,174.578 86.756 C 174.578 86.169,174.418 85.689,174.222 85.689 C 174.027 85.689,173.867 85.049,173.867 84.267 C 173.867 83.484,173.707 82.844,173.511 82.844 C 173.290 82.844,173.156 80.889,173.156 77.689 C 173.156 74.489,173.290 72.533,173.511 72.533 C 173.707 72.533,173.867 71.893,173.867 71.111 C 173.867 70.329,174.027 69.689,174.222 69.689 C 174.418 69.689,174.578 69.209,174.578 68.622 C 174.578 68.036,174.738 67.556,174.933 67.556 C 175.129 67.556,175.289 67.226,175.289 66.823 C 175.289 66.421,175.449 66.190,175.644 66.311 C 175.840 66.432,176.000 66.201,176.000 65.799 C 176.000 65.396,176.160 65.067,176.356 65.067 C 176.551 65.067,176.711 64.782,176.711 64.434 C 176.711 64.086,177.031 63.571,177.422 63.289 C 177.813 63.007,178.133 62.570,178.133 62.319 C 178.133 62.067,179.173 60.806,180.444 59.516 C 181.716 58.226,182.756 57.027,182.756 56.852 C 182.756 56.677,182.996 56.533,183.289 56.533 C 183.582 56.533,183.822 56.373,183.822 56.178 C 183.822 55.982,184.061 55.822,184.353 55.822 C 184.644 55.822,185.083 55.502,185.327 55.111 C 185.571 54.720,186.053 54.400,186.397 54.400 C 186.741 54.400,187.022 54.240,187.022 54.044 C 187.022 53.849,187.342 53.689,187.733 53.689 C 188.124 53.689,188.444 53.529,188.444 53.333 C 188.444 53.138,188.764 52.978,189.156 52.978 C 189.547 52.978,189.867 52.831,189.867 52.651 C 189.867 52.471,190.909 52.212,192.183 52.075 C 193.457 51.939,194.586 51.686,194.693 51.514 C 194.799 51.341,197.188 51.200,200.000 51.200 C 202.812 51.200,205.201 51.341,205.307 51.514 M382.400 88.178 C 382.279 88.373,381.220 88.533,380.047 88.533 C 378.715 88.533,377.996 88.667,378.133 88.889 C 378.262 89.096,377.900 89.244,377.265 89.244 C 376.667 89.244,376.178 89.404,376.178 89.600 C 376.178 89.796,375.698 89.956,375.111 89.956 C 374.524 89.956,374.044 90.116,374.044 90.311 C 374.044 90.507,373.724 90.667,373.333 90.667 C 372.942 90.667,372.622 90.827,372.622 91.022 C 372.622 91.218,372.142 91.378,371.556 91.378 C 370.969 91.378,370.488 91.498,370.486 91.644 C 370.482 92.042,368.688 92.800,367.751 92.800 C 367.301 92.800,366.933 92.960,366.933 93.156 C 366.933 93.351,366.613 93.511,366.222 93.511 C 365.831 93.511,365.511 93.671,365.511 93.867 C 365.511 94.062,365.223 94.222,364.871 94.222 C 364.076 94.222,362.318 95.017,362.314 95.378 C 362.312 95.524,361.831 95.644,361.244 95.644 C 360.658 95.644,360.178 95.795,360.178 95.978 C 360.178 96.162,359.418 96.424,358.489 96.561 C 357.560 96.698,356.720 96.908,356.622 97.027 C 356.299 97.422,354.862 98.133,354.387 98.133 C 353.729 98.133,352.006 98.968,352.003 99.289 C 352.001 99.436,351.689 99.556,351.310 99.556 C 350.930 99.556,350.521 99.716,350.400 99.911 C 350.279 100.107,349.830 100.270,349.401 100.275 C 348.973 100.279,348.222 100.595,347.733 100.978 C 347.244 101.360,346.404 101.677,345.867 101.681 C 345.329 101.685,344.889 101.849,344.889 102.044 C 344.889 102.240,344.409 102.400,343.822 102.400 C 343.236 102.400,342.756 102.560,342.756 102.756 C 342.756 102.951,342.436 103.111,342.044 103.111 C 341.653 103.111,341.333 103.271,341.333 103.467 C 341.333 103.662,340.853 103.822,340.267 103.822 C 339.680 103.822,339.200 103.982,339.200 104.178 C 339.200 104.373,338.880 104.533,338.489 104.533 C 338.098 104.533,337.778 104.693,337.778 104.889 C 337.778 105.084,337.458 105.244,337.067 105.244 C 336.676 105.244,336.356 105.404,336.356 105.600 C 336.356 105.796,335.965 105.956,335.488 105.956 C 335.010 105.956,334.521 106.116,334.400 106.311 C 334.279 106.507,333.790 106.667,333.312 106.667 C 332.835 106.667,332.444 106.827,332.444 107.022 C 332.444 107.218,332.124 107.378,331.733 107.378 C 331.342 107.378,331.022 107.538,331.022 107.733 C 331.022 107.929,330.702 108.089,330.311 108.089 C 329.920 108.089,329.600 108.249,329.600 108.444 C 329.600 108.640,329.120 108.800,328.533 108.800 C 327.947 108.800,327.467 108.960,327.467 109.156 C 327.467 109.351,327.147 109.511,326.756 109.511 C 326.364 109.511,326.044 109.671,326.044 109.867 C 326.044 110.062,325.564 110.222,324.978 110.222 C 324.391 110.222,323.911 110.382,323.911 110.578 C 323.911 110.773,323.431 110.933,322.844 110.933 C 322.258 110.933,321.778 111.110,321.778 111.327 C 321.778 111.543,321.551 111.634,321.274 111.527 C 320.997 111.421,320.675 111.580,320.560 111.882 C 320.442 112.189,320.117 112.340,319.819 112.226 C 319.513 112.108,319.289 112.222,319.289 112.495 C 319.289 112.806,318.989 112.911,318.413 112.801 C 317.891 112.701,317.308 112.864,316.966 113.205 C 316.652 113.519,315.966 113.867,315.442 113.976 C 314.918 114.086,314.211 114.327,313.871 114.510 C 313.532 114.694,313.012 114.844,312.716 114.844 C 312.420 114.844,312.178 115.004,312.178 115.200 C 312.178 115.396,311.787 115.556,311.310 115.556 C 310.833 115.556,310.343 115.716,310.222 115.911 C 310.101 116.107,309.692 116.267,309.312 116.267 C 308.933 116.267,308.622 116.427,308.622 116.622 C 308.622 116.818,308.307 116.978,307.922 116.978 C 307.537 116.978,306.652 117.298,305.956 117.689 C 305.259 118.080,304.374 118.400,303.989 118.400 C 303.604 118.400,303.289 118.560,303.289 118.756 C 303.289 118.951,302.969 119.111,302.578 119.111 C 302.187 119.111,301.867 119.271,301.867 119.467 C 301.867 119.662,301.387 119.822,300.800 119.822 C 300.213 119.822,299.733 119.982,299.733 120.178 C 299.733 120.373,299.413 120.533,299.022 120.533 C 298.631 120.533,298.311 120.693,298.311 120.889 C 298.311 121.084,297.900 121.244,297.397 121.244 C 296.368 121.244,295.467 121.980,295.467 122.819 C 295.467 123.126,295.307 123.378,295.111 123.378 C 294.916 123.378,294.756 123.858,294.756 124.444 C 294.756 125.031,294.596 125.511,294.400 125.511 C 294.204 125.511,294.044 125.751,294.044 126.044 C 294.044 126.338,293.884 126.578,293.689 126.578 C 293.493 126.578,293.333 126.866,293.333 127.218 C 293.333 128.013,292.539 129.771,292.178 129.775 C 292.031 129.777,291.911 130.178,291.911 130.667 C 291.911 131.156,291.751 131.556,291.556 131.556 C 291.360 131.556,291.200 131.876,291.200 132.267 C 291.200 132.658,291.040 132.978,290.844 132.978 C 290.649 132.978,290.489 133.288,290.489 133.668 C 290.489 134.047,290.336 134.453,290.149 134.568 C 289.962 134.684,289.899 135.013,290.009 135.300 C 290.131 135.617,289.998 135.822,289.671 135.822 C 289.308 135.822,289.194 136.054,289.319 136.533 C 289.423 136.931,289.330 137.244,289.108 137.244 C 288.817 137.244,288.711 165.469,288.711 243.378 L 288.711 349.511 289.956 349.511 C 290.640 349.511,291.200 349.351,291.200 349.156 C 291.200 348.960,291.520 348.800,291.911 348.800 C 292.302 348.800,292.622 348.661,292.622 348.490 C 292.622 348.320,293.422 348.074,294.400 347.945 C 295.378 347.815,296.178 347.554,296.178 347.366 C 296.178 347.177,296.493 347.022,296.878 347.022 C 297.263 347.022,298.148 346.702,298.844 346.311 C 299.541 345.920,300.432 345.600,300.826 345.600 C 301.219 345.600,301.884 345.280,302.304 344.889 C 302.724 344.498,303.517 344.178,304.067 344.178 C 304.617 344.178,305.067 344.018,305.067 343.822 C 305.067 343.627,305.387 343.467,305.778 343.467 C 306.169 343.467,306.489 343.307,306.489 343.111 C 306.489 342.916,306.804 342.756,307.189 342.756 C 307.574 342.756,308.459 342.436,309.156 342.044 C 309.852 341.653,310.727 341.333,311.101 341.333 C 311.475 341.333,311.879 341.173,312.000 340.978 C 312.121 340.782,312.530 340.622,312.910 340.622 C 313.289 340.622,313.600 340.462,313.600 340.267 C 313.600 340.071,314.080 339.911,314.667 339.911 C 315.253 339.911,315.733 339.751,315.733 339.556 C 315.733 339.360,316.053 339.200,316.444 339.200 C 316.836 339.200,317.156 339.040,317.156 338.844 C 317.156 338.649,317.556 338.489,318.044 338.489 C 318.533 338.489,318.933 338.329,318.933 338.133 C 318.933 337.938,319.253 337.778,319.644 337.778 C 320.036 337.778,320.356 337.618,320.356 337.422 C 320.356 337.227,320.836 337.067,321.422 337.067 C 322.009 337.067,322.489 336.907,322.489 336.711 C 322.489 336.516,322.809 336.356,323.200 336.356 C 323.591 336.356,323.911 336.196,323.911 336.000 C 323.911 335.804,324.391 335.644,324.978 335.644 C 325.564 335.644,326.044 335.484,326.044 335.289 C 326.044 335.093,326.364 334.933,326.756 334.933 C 327.147 334.933,327.467 334.773,327.467 334.578 C 327.467 334.382,327.857 334.222,328.335 334.222 C 328.812 334.222,329.301 334.062,329.422 333.867 C 329.543 333.671,330.113 333.511,330.688 333.511 C 331.263 333.511,331.733 333.334,331.733 333.118 C 331.733 332.901,331.969 332.814,332.257 332.925 C 332.545 333.036,332.925 332.869,333.101 332.554 C 333.306 332.188,333.694 332.054,334.177 332.180 C 334.593 332.289,334.935 332.273,334.936 332.144 C 334.941 331.774,336.773 331.022,337.671 331.022 C 338.121 331.022,338.489 330.862,338.489 330.667 C 338.489 330.471,338.809 330.311,339.200 330.311 C 339.591 330.311,339.911 330.151,339.911 329.956 C 339.911 329.760,340.391 329.600,340.978 329.600 C 341.564 329.600,342.044 329.440,342.044 329.244 C 342.044 329.049,342.364 328.889,342.756 328.889 C 343.147 328.889,343.467 328.729,343.467 328.533 C 343.467 328.338,343.947 328.178,344.533 328.178 C 345.120 328.178,345.601 328.058,345.603 327.911 C 345.607 327.550,347.365 326.756,348.160 326.756 C 348.512 326.756,348.800 326.596,348.800 326.400 C 348.800 326.204,349.120 326.044,349.511 326.044 C 349.902 326.044,350.222 325.884,350.222 325.689 C 350.222 325.493,350.702 325.333,351.289 325.333 C 351.876 325.333,352.356 325.173,352.356 324.978 C 352.356 324.782,352.676 324.622,353.067 324.622 C 353.458 324.622,353.778 324.462,353.778 324.267 C 353.778 324.071,354.168 323.911,354.646 323.911 C 355.123 323.911,355.612 323.751,355.733 323.556 C 355.854 323.360,356.264 323.200,356.643 323.200 C 357.023 323.200,357.333 323.040,357.333 322.844 C 357.333 322.649,357.813 322.489,358.400 322.489 C 358.987 322.489,359.467 322.329,359.467 322.133 C 359.467 321.938,359.787 321.778,360.178 321.778 C 360.569 321.778,360.889 321.618,360.889 321.422 C 360.889 321.227,361.177 321.067,361.529 321.067 C 362.324 321.067,364.082 320.272,364.086 319.911 C 364.088 319.764,364.569 319.644,365.156 319.644 C 365.742 319.644,366.222 319.494,366.222 319.311 C 366.222 319.127,366.944 318.869,367.827 318.736 C 368.709 318.604,369.518 318.354,369.625 318.181 C 369.732 318.008,370.130 317.867,370.510 317.867 C 370.889 317.867,371.200 317.645,371.200 317.374 C 371.200 317.062,371.788 316.793,372.800 316.641 C 373.680 316.509,374.400 316.251,374.400 316.067 C 374.400 315.884,374.987 315.733,375.704 315.733 C 376.421 315.733,376.903 315.629,376.776 315.502 C 376.480 315.206,378.184 314.311,379.042 314.311 C 379.399 314.311,379.790 314.151,379.911 313.956 C 380.032 313.760,380.441 313.600,380.821 313.600 C 381.201 313.600,381.511 313.440,381.511 313.244 C 381.511 313.049,381.991 312.889,382.578 312.889 C 383.164 312.889,383.644 312.729,383.644 312.533 C 383.644 312.338,383.964 312.178,384.356 312.178 C 384.747 312.178,385.067 312.018,385.067 311.822 C 385.067 311.627,385.547 311.467,386.133 311.467 C 386.720 311.467,387.200 311.307,387.200 311.111 C 387.200 310.916,387.520 310.756,387.911 310.756 C 388.302 310.756,388.622 310.596,388.622 310.400 C 388.622 310.204,389.102 310.044,389.689 310.044 C 390.276 310.044,390.756 309.884,390.756 309.689 C 390.756 309.493,391.065 309.333,391.443 309.333 C 391.821 309.333,392.231 309.013,392.356 308.622 C 392.480 308.231,392.814 307.911,393.098 307.911 C 393.681 307.911,397.511 304.214,397.511 303.652 C 397.511 303.452,397.671 303.289,397.867 303.289 C 398.062 303.289,398.222 303.049,398.222 302.756 C 398.222 302.462,398.342 302.221,398.489 302.219 C 399.853 302.205,399.817 304.729,399.929 201.422 C 400.031 106.148,399.977 97.886,399.260 98.329 C 399.080 98.440,398.933 98.121,398.933 97.621 C 398.933 97.121,398.773 96.711,398.578 96.711 C 398.382 96.711,398.222 96.549,398.222 96.350 C 398.222 95.878,393.010 90.667,392.539 90.667 C 392.340 90.667,392.178 90.507,392.178 90.311 C 392.178 90.116,391.768 89.956,391.268 89.956 C 390.752 89.956,390.453 89.802,390.578 89.600 C 390.706 89.393,390.351 89.244,389.731 89.244 C 389.144 89.244,388.565 89.084,388.444 88.889 C 388.324 88.693,387.364 88.533,386.311 88.533 C 385.259 88.533,384.299 88.373,384.178 88.178 C 384.057 87.982,383.657 87.822,383.289 87.822 C 382.921 87.822,382.521 87.982,382.400 88.178 M94.222 95.931 C 94.222 96.114,93.422 96.370,92.444 96.500 C 91.467 96.629,90.667 96.890,90.667 97.079 C 90.667 97.268,90.352 97.422,89.966 97.422 C 89.581 97.422,88.696 97.742,88.000 98.133 C 87.304 98.524,86.419 98.844,86.034 98.844 C 85.648 98.844,85.333 99.004,85.333 99.200 C 85.333 99.396,85.023 99.556,84.643 99.556 C 84.264 99.556,83.854 99.716,83.733 99.911 C 83.612 100.107,83.163 100.270,82.735 100.275 C 82.306 100.279,81.556 100.595,81.067 100.978 C 80.578 101.360,79.738 101.677,79.200 101.681 C 78.662 101.685,78.222 101.849,78.222 102.044 C 78.222 102.240,77.902 102.400,77.511 102.400 C 77.120 102.400,76.800 102.560,76.800 102.756 C 76.800 102.951,76.320 103.111,75.733 103.111 C 75.147 103.111,74.667 103.271,74.667 103.467 C 74.667 103.662,74.347 103.822,73.956 103.822 C 73.564 103.822,73.244 103.982,73.244 104.178 C 73.244 104.373,72.764 104.533,72.178 104.533 C 71.591 104.533,71.111 104.693,71.111 104.889 C 71.111 105.084,70.791 105.244,70.400 105.244 C 70.009 105.244,69.689 105.404,69.689 105.600 C 69.689 105.796,69.401 105.956,69.049 105.956 C 68.254 105.956,66.495 106.750,66.492 107.111 C 66.490 107.258,66.009 107.378,65.422 107.378 C 64.836 107.378,64.356 107.538,64.356 107.733 C 64.356 107.929,64.036 108.089,63.644 108.089 C 63.253 108.089,62.933 108.249,62.933 108.444 C 62.933 108.640,62.453 108.800,61.867 108.800 C 61.280 108.800,60.800 108.960,60.800 109.156 C 60.800 109.351,60.480 109.511,60.089 109.511 C 59.698 109.511,59.378 109.671,59.378 109.867 C 59.378 110.062,58.898 110.222,58.311 110.222 C 57.724 110.222,57.244 110.382,57.244 110.578 C 57.244 110.773,56.924 110.933,56.533 110.933 C 56.142 110.933,55.822 111.112,55.822 111.330 C 55.822 111.560,55.455 111.657,54.951 111.561 C 54.396 111.455,54.008 111.582,53.881 111.912 C 53.772 112.196,53.444 112.338,53.153 112.226 C 52.846 112.108,52.622 112.222,52.622 112.495 C 52.622 112.806,52.322 112.911,51.747 112.801 C 51.224 112.701,50.641 112.864,50.300 113.205 C 49.985 113.519,49.299 113.867,48.775 113.976 C 48.251 114.086,47.544 114.327,47.205 114.510 C 46.865 114.694,46.345 114.844,46.049 114.844 C 45.753 114.844,45.511 115.004,45.511 115.200 C 45.511 115.396,45.121 115.556,44.643 115.556 C 44.166 115.556,43.676 115.716,43.556 115.911 C 43.435 116.107,43.025 116.267,42.646 116.267 C 42.266 116.267,41.956 116.427,41.956 116.622 C 41.956 116.818,41.640 116.978,41.255 116.978 C 40.870 116.978,39.985 117.298,39.289 117.689 C 38.593 118.080,37.708 118.400,37.323 118.400 C 36.937 118.400,36.622 118.560,36.622 118.756 C 36.622 118.951,36.302 119.111,35.911 119.111 C 35.520 119.111,35.200 119.271,35.200 119.467 C 35.200 119.662,34.720 119.822,34.133 119.822 C 33.547 119.822,33.067 119.982,33.067 120.178 C 33.067 120.373,32.747 120.533,32.356 120.533 C 31.964 120.533,31.644 120.693,31.644 120.889 C 31.644 121.084,31.164 121.244,30.578 121.244 C 29.991 121.244,29.511 121.404,29.511 121.600 C 29.511 121.796,29.031 121.956,28.444 121.956 C 27.858 121.956,27.378 122.086,27.378 122.245 C 27.378 122.404,26.818 122.754,26.133 123.022 C 25.449 123.291,24.889 123.641,24.889 123.800 C 24.889 123.959,24.319 124.089,23.623 124.089 C 22.870 124.089,22.447 124.233,22.578 124.444 C 22.706 124.652,22.344 124.800,21.710 124.800 C 21.112 124.800,20.622 124.960,20.622 125.156 C 20.622 125.351,20.342 125.512,20.000 125.513 C 19.658 125.515,18.919 125.755,18.359 126.047 C 17.799 126.339,17.131 126.578,16.874 126.578 C 16.617 126.578,16.163 126.821,15.867 127.117 C 15.570 127.414,15.198 127.629,15.041 127.594 C 14.695 127.518,13.828 127.825,11.813 128.735 C 10.976 129.113,9.978 129.422,9.595 129.422 C 8.958 129.422,8.182 129.912,6.919 131.111 C 6.662 131.356,6.274 131.556,6.058 131.556 C 5.507 131.556,3.200 133.922,3.200 134.487 C 3.200 134.744,2.880 135.185,2.489 135.467 C 2.098 135.749,1.778 136.264,1.778 136.612 C 1.778 136.960,1.618 137.244,1.422 137.244 C 1.227 137.244,1.067 137.551,1.067 137.926 C 1.067 138.301,0.867 138.674,0.622 138.756 C 0.032 138.952,-0.038 340.146,0.552 340.546 C 0.758 340.686,1.195 341.378,1.523 342.084 C 1.851 342.791,2.363 343.570,2.660 343.817 C 2.957 344.063,3.200 344.462,3.200 344.702 C 3.200 345.395,5.294 347.401,6.431 347.797 C 7.001 347.996,7.467 348.303,7.467 348.479 C 7.467 348.656,7.707 348.800,8.000 348.800 C 8.293 348.800,8.533 348.960,8.533 349.156 C 8.533 349.351,9.004 349.511,9.579 349.511 C 10.154 349.511,10.724 349.671,10.844 349.867 C 10.965 350.062,11.445 350.222,11.911 350.222 C 12.377 350.222,12.857 350.382,12.978 350.578 C 13.099 350.773,14.628 350.933,16.377 350.933 C 18.259 350.933,19.556 350.788,19.556 350.578 C 19.556 350.382,20.196 350.222,20.978 350.222 C 21.760 350.222,22.400 350.062,22.400 349.867 C 22.400 349.671,22.880 349.511,23.467 349.511 C 24.053 349.511,24.533 349.351,24.533 349.156 C 24.533 348.960,25.013 348.800,25.600 348.800 C 26.187 348.800,26.667 348.650,26.667 348.466 C 26.667 348.283,27.427 348.020,28.356 347.884 C 29.284 347.747,30.124 347.537,30.222 347.417 C 30.605 346.949,32.026 346.311,32.685 346.311 C 33.068 346.311,33.479 346.151,33.600 345.956 C 33.721 345.760,34.130 345.600,34.510 345.600 C 34.889 345.600,35.200 345.440,35.200 345.244 C 35.200 345.049,35.600 344.889,36.089 344.889 C 36.578 344.889,36.978 344.729,36.978 344.533 C 36.978 344.338,37.298 344.178,37.689 344.178 C 38.080 344.178,38.400 344.018,38.400 343.822 C 38.400 343.627,38.715 343.467,39.100 343.467 C 39.485 343.467,40.370 343.147,41.067 342.756 C 41.763 342.364,42.728 342.044,43.211 342.044 C 43.694 342.044,44.090 341.924,44.092 341.778 C 44.095 341.458,45.817 340.622,46.471 340.622 C 46.725 340.622,46.933 340.462,46.933 340.267 C 46.933 340.071,47.413 339.911,48.000 339.911 C 48.587 339.911,49.067 339.751,49.067 339.556 C 49.067 339.360,49.467 339.200,49.956 339.200 C 50.444 339.200,50.844 339.040,50.844 338.844 C 50.844 338.649,51.164 338.489,51.556 338.489 C 51.947 338.489,52.267 338.329,52.267 338.133 C 52.267 337.938,52.747 337.778,53.333 337.778 C 53.920 337.778,54.400 337.618,54.400 337.422 C 54.400 337.227,54.720 337.067,55.111 337.067 C 55.502 337.067,55.822 336.907,55.822 336.711 C 55.822 336.516,56.142 336.356,56.533 336.356 C 56.924 336.356,57.244 336.196,57.244 336.000 C 57.244 335.804,57.724 335.644,58.311 335.644 C 58.898 335.644,59.378 335.484,59.378 335.289 C 59.378 335.093,59.858 334.933,60.444 334.933 C 61.031 334.933,61.512 334.813,61.514 334.667 C 61.518 334.269,63.312 333.511,64.249 333.511 C 64.699 333.511,65.067 333.334,65.067 333.118 C 65.067 332.901,65.302 332.814,65.591 332.925 C 65.879 333.036,66.259 332.869,66.435 332.554 C 66.639 332.188,67.027 332.054,67.511 332.180 C 67.926 332.289,68.268 332.273,68.269 332.144 C 68.274 331.774,70.106 331.022,71.004 331.022 C 71.454 331.022,71.822 330.862,71.822 330.667 C 71.822 330.471,72.142 330.311,72.533 330.311 C 72.924 330.311,73.244 330.151,73.244 329.956 C 73.244 329.760,73.564 329.600,73.956 329.600 C 74.347 329.600,74.667 329.440,74.667 329.244 C 74.667 329.049,75.147 328.889,75.733 328.889 C 76.320 328.889,76.801 328.769,76.803 328.622 C 76.806 328.286,78.538 327.469,79.271 327.459 C 79.574 327.454,80.222 327.138,80.711 326.756 C 81.200 326.373,82.040 326.057,82.578 326.052 C 83.116 326.048,83.556 325.884,83.556 325.689 C 83.556 325.493,83.876 325.333,84.267 325.333 C 84.658 325.333,84.978 325.173,84.978 324.978 C 84.978 324.782,85.458 324.622,86.044 324.622 C 86.631 324.622,87.111 324.462,87.111 324.267 C 87.111 324.071,87.431 323.911,87.822 323.911 C 88.213 323.911,88.533 323.751,88.533 323.556 C 88.533 323.360,89.013 323.200,89.600 323.200 C 90.187 323.200,90.667 323.040,90.667 322.844 C 90.667 322.649,90.987 322.489,91.378 322.489 C 91.769 322.489,92.089 322.329,92.089 322.133 C 92.089 321.938,92.569 321.778,93.156 321.778 C 93.742 321.778,94.223 321.658,94.225 321.511 C 94.229 321.150,95.987 320.356,96.782 320.356 C 97.134 320.356,97.422 320.196,97.422 320.000 C 97.422 319.804,97.742 319.644,98.133 319.644 C 98.524 319.644,98.844 319.484,98.844 319.289 C 98.844 319.093,99.284 318.932,99.822 318.931 C 100.360 318.930,101.258 318.690,101.818 318.398 C 102.379 318.106,103.219 317.867,103.685 317.867 C 104.186 317.867,104.533 317.657,104.533 317.355 C 104.533 317.021,105.090 316.760,106.133 316.604 C 107.013 316.472,107.733 316.222,107.733 316.049 C 107.733 315.875,108.143 315.733,108.643 315.733 C 109.144 315.733,109.461 315.584,109.348 315.402 C 109.236 315.220,109.586 315.020,110.127 314.958 L 111.111 314.844 111.201 226.044 C 111.267 160.751,111.185 137.244,110.893 137.244 C 110.670 137.244,110.577 136.931,110.681 136.533 C 110.806 136.054,110.692 135.822,110.329 135.822 C 110.002 135.822,109.869 135.617,109.991 135.300 C 110.101 135.013,110.038 134.684,109.851 134.568 C 109.664 134.453,109.511 134.047,109.511 133.668 C 109.511 133.288,109.351 132.978,109.156 132.978 C 108.960 132.978,108.800 132.658,108.800 132.267 C 108.800 131.876,108.640 131.556,108.444 131.556 C 108.249 131.556,108.089 131.156,108.089 130.667 C 108.089 130.178,107.969 129.777,107.822 129.775 C 107.461 129.771,106.667 128.013,106.667 127.218 C 106.667 126.866,106.507 126.578,106.311 126.578 C 106.116 126.578,105.956 126.338,105.956 126.044 C 105.956 125.751,105.796 125.511,105.600 125.511 C 105.404 125.511,105.244 125.031,105.244 124.444 C 105.244 123.858,105.084 123.378,104.889 123.378 C 104.693 123.378,104.533 123.058,104.533 122.667 C 104.533 122.276,104.373 121.956,104.178 121.956 C 103.982 121.956,103.822 121.565,103.822 121.088 C 103.822 120.610,103.662 120.121,103.467 120.000 C 103.271 119.879,103.111 119.470,103.111 119.090 C 103.111 118.711,102.951 118.400,102.756 118.400 C 102.560 118.400,102.400 117.920,102.400 117.333 C 102.400 116.747,102.240 116.267,102.044 116.267 C 101.849 116.267,101.689 115.876,101.689 115.399 C 101.689 114.921,101.529 114.432,101.333 114.311 C 101.138 114.190,100.978 113.813,100.978 113.472 C 100.978 112.694,100.178 110.940,99.822 110.936 C 99.676 110.935,99.556 110.293,99.556 109.511 C 99.556 108.729,99.396 108.089,99.200 108.089 C 99.004 108.089,98.844 107.609,98.844 107.022 C 98.844 106.436,98.684 105.956,98.489 105.956 C 98.293 105.956,98.133 105.316,98.133 104.533 C 98.133 103.751,97.973 103.111,97.778 103.111 C 97.582 103.111,97.422 102.471,97.422 101.689 C 97.422 100.907,97.262 100.267,97.067 100.267 C 96.871 100.267,96.711 99.547,96.711 98.667 C 96.711 97.787,96.569 97.067,96.395 97.067 C 96.221 97.067,96.101 96.787,96.128 96.444 C 96.163 96.014,95.876 95.787,95.200 95.710 C 94.662 95.648,94.222 95.747,94.222 95.931 M132.978 244.800 C 132.978 311.962,132.987 312.889,133.668 312.889 C 134.047 312.889,134.457 313.049,134.578 313.244 C 134.699 313.440,135.188 313.600,135.665 313.600 C 136.143 313.600,136.533 313.760,136.533 313.956 C 136.533 314.151,137.173 314.311,137.956 314.311 C 138.738 314.311,139.378 314.471,139.378 314.667 C 139.378 314.862,139.867 315.022,140.465 315.022 C 141.100 315.022,141.462 315.170,141.333 315.378 C 141.201 315.591,141.661 315.733,142.486 315.733 C 143.240 315.733,144.012 315.887,144.200 316.076 C 144.389 316.264,145.499 316.531,146.667 316.668 C 147.835 316.805,149.004 317.131,149.265 317.392 C 149.526 317.653,150.039 317.867,150.404 317.867 C 150.770 317.867,151.156 318.008,151.263 318.180 C 151.370 318.353,152.500 318.606,153.776 318.742 C 155.052 318.879,156.005 319.138,155.893 319.318 C 155.782 319.497,156.331 319.644,157.114 319.644 C 157.896 319.644,158.635 319.804,158.756 320.000 C 158.876 320.196,159.356 320.356,159.822 320.356 C 160.288 320.356,160.768 320.516,160.889 320.711 C 161.010 320.907,161.659 321.067,162.332 321.067 C 163.005 321.067,163.556 321.227,163.556 321.422 C 163.556 321.618,164.036 321.778,164.622 321.778 C 165.209 321.778,165.689 321.938,165.689 322.133 C 165.689 322.329,166.329 322.489,167.111 322.489 C 167.893 322.489,168.533 322.649,168.533 322.844 C 168.533 323.040,168.924 323.200,169.401 323.200 C 169.879 323.200,170.368 323.360,170.489 323.556 C 170.610 323.751,171.259 323.911,171.932 323.911 C 172.605 323.911,173.156 324.071,173.156 324.267 C 173.156 324.462,173.626 324.622,174.201 324.622 C 174.776 324.622,175.346 324.782,175.467 324.978 C 175.588 325.173,176.237 325.333,176.910 325.333 C 177.583 325.333,178.133 325.493,178.133 325.689 C 178.133 325.884,178.604 326.044,179.179 326.044 C 179.754 326.044,180.324 326.204,180.444 326.400 C 180.565 326.596,181.215 326.756,181.888 326.756 C 182.561 326.756,183.111 326.916,183.111 327.111 C 183.111 327.307,183.591 327.467,184.178 327.467 C 184.764 327.467,185.244 327.627,185.244 327.822 C 185.244 328.018,185.894 328.178,186.688 328.178 C 187.559 328.178,188.044 328.319,187.911 328.533 C 187.783 328.740,188.137 328.889,188.758 328.889 C 189.345 328.889,189.924 329.049,190.044 329.244 C 190.165 329.440,190.815 329.600,191.488 329.600 C 192.161 329.600,192.711 329.760,192.711 329.956 C 192.711 330.151,193.191 330.311,193.778 330.311 C 194.364 330.311,194.844 330.471,194.844 330.667 C 194.844 330.862,195.475 331.022,196.246 331.022 C 197.016 331.022,197.746 331.182,197.867 331.378 C 197.988 331.573,198.477 331.733,198.954 331.733 C 199.432 331.733,199.822 331.861,199.822 332.017 C 199.822 332.174,200.382 332.236,201.067 332.156 C 201.828 332.067,202.311 332.164,202.311 332.406 C 202.311 332.622,202.782 332.800,203.357 332.800 C 203.932 332.800,204.501 332.960,204.622 333.156 C 204.743 333.351,205.393 333.511,206.065 333.511 C 206.738 333.511,207.289 333.671,207.289 333.867 C 207.289 334.062,207.769 334.222,208.356 334.222 C 208.942 334.222,209.422 334.382,209.422 334.578 C 209.422 334.773,210.062 334.933,210.844 334.933 C 211.627 334.933,212.267 335.093,212.267 335.289 C 212.267 335.484,212.747 335.644,213.333 335.644 C 213.920 335.644,214.400 335.804,214.400 336.000 C 214.400 336.196,214.960 336.356,215.644 336.356 C 216.329 336.356,216.889 336.516,216.889 336.711 C 216.889 336.907,217.359 337.067,217.935 337.067 C 218.510 337.067,219.079 337.227,219.200 337.422 C 219.321 337.618,219.961 337.778,220.622 337.778 C 221.284 337.778,221.924 337.938,222.044 338.133 C 222.165 338.329,222.655 338.489,223.132 338.489 C 223.609 338.489,224.000 338.649,224.000 338.844 C 224.000 339.040,224.640 339.200,225.422 339.200 C 226.204 339.200,226.844 339.360,226.844 339.556 C 226.844 339.751,227.324 339.911,227.911 339.911 C 228.498 339.911,228.978 340.071,228.978 340.267 C 228.978 340.462,229.627 340.622,230.421 340.622 C 231.293 340.622,231.777 340.763,231.644 340.978 C 231.516 341.185,231.878 341.333,232.512 341.333 C 233.111 341.333,233.600 341.493,233.600 341.689 C 233.600 341.884,234.240 342.044,235.022 342.044 C 235.804 342.044,236.444 342.204,236.444 342.400 C 236.444 342.596,236.915 342.756,237.490 342.756 C 238.065 342.756,238.635 342.916,238.756 343.111 C 238.876 343.307,239.526 343.467,240.199 343.467 C 240.872 343.467,241.422 343.627,241.422 343.822 C 241.422 344.018,241.902 344.178,242.489 344.178 C 243.076 344.178,243.556 344.338,243.556 344.533 C 243.556 344.729,244.205 344.889,244.999 344.889 C 245.870 344.889,246.355 345.030,246.222 345.244 C 246.091 345.456,246.515 345.600,247.268 345.600 C 247.964 345.600,248.533 345.760,248.533 345.956 C 248.533 346.151,249.084 346.311,249.757 346.311 C 250.430 346.311,251.079 346.471,251.200 346.667 C 251.321 346.862,251.810 347.022,252.288 347.022 C 252.765 347.022,253.156 347.162,253.156 347.332 C 253.156 347.502,254.276 347.752,255.644 347.887 C 257.013 348.022,258.133 348.282,258.133 348.466 C 258.133 348.650,258.773 348.800,259.556 348.800 C 260.338 348.800,260.978 348.960,260.978 349.156 C 260.978 349.351,261.378 349.511,261.867 349.511 C 262.356 349.511,262.756 349.671,262.756 349.867 C 262.756 350.062,263.396 350.222,264.178 350.222 C 264.960 350.222,265.600 350.382,265.600 350.578 C 265.600 350.773,265.920 350.933,266.311 350.933 C 267.020 350.933,267.022 350.696,267.022 263.822 C 267.022 194.364,266.932 176.713,266.578 176.722 C 265.865 176.741,264.889 177.628,264.889 178.258 C 264.889 178.577,264.569 179.038,264.178 179.283 C 263.787 179.527,263.467 179.973,263.467 180.274 C 263.467 180.575,263.147 181.051,262.756 181.333 C 262.364 181.615,262.044 182.062,262.044 182.326 C 262.044 182.590,261.804 183.046,261.511 183.340 C 261.218 183.633,260.978 184.182,260.978 184.559 C 260.978 184.936,260.797 185.244,260.575 185.244 C 260.047 185.244,258.844 186.642,258.844 187.254 C 258.844 187.518,258.711 187.733,258.549 187.733 C 258.386 187.733,258.028 188.173,257.751 188.711 C 257.475 189.249,256.968 189.948,256.625 190.264 C 256.281 190.580,256.000 191.065,256.000 191.341 C 256.000 191.617,255.680 192.074,255.289 192.356 C 254.898 192.637,254.578 193.089,254.578 193.358 C 254.578 193.628,254.098 194.296,253.511 194.844 C 252.924 195.392,252.444 196.061,252.444 196.331 C 252.444 196.600,252.124 197.051,251.733 197.333 C 251.342 197.615,251.022 198.066,251.022 198.336 C 251.022 198.605,250.542 199.274,249.956 199.822 C 249.369 200.370,248.889 200.993,248.889 201.207 C 248.889 201.420,248.409 202.022,247.822 202.545 C 247.236 203.068,246.756 203.708,246.756 203.967 C 246.756 204.226,246.457 204.625,246.092 204.853 C 245.693 205.102,245.497 205.528,245.600 205.922 C 245.720 206.378,245.579 206.578,245.138 206.578 C 244.789 206.578,244.605 206.679,244.728 206.802 C 244.852 206.926,244.478 207.470,243.899 208.012 C 243.319 208.553,242.844 209.188,242.844 209.422 C 242.844 209.656,242.364 210.296,241.778 210.844 C 241.191 211.392,240.711 212.032,240.711 212.267 C 240.711 212.501,240.231 213.141,239.644 213.689 C 239.058 214.237,238.577 214.901,238.577 215.165 C 238.576 215.429,238.097 215.964,237.511 216.356 C 236.926 216.747,236.446 217.282,236.445 217.546 C 236.445 217.810,235.964 218.474,235.378 219.022 C 234.791 219.570,234.311 220.207,234.311 220.437 C 234.311 220.667,233.671 221.489,232.889 222.264 C 232.107 223.038,231.467 223.906,231.467 224.192 C 231.467 224.477,231.280 224.711,231.052 224.711 C 230.824 224.711,230.729 224.803,230.842 224.916 C 230.955 225.029,230.582 225.566,230.013 226.110 C 229.443 226.654,228.978 227.298,228.978 227.540 C 228.978 227.783,228.498 228.430,227.911 228.978 C 227.324 229.526,226.844 230.150,226.844 230.365 C 226.844 230.580,226.711 230.756,226.549 230.756 C 226.386 230.756,226.040 231.155,225.778 231.644 C 225.517 232.133,225.239 232.469,225.162 232.392 C 225.085 232.314,224.404 232.875,223.650 233.637 C 222.895 234.399,222.090 235.022,221.859 235.022 C 221.629 235.022,220.992 235.502,220.444 236.089 C 219.896 236.676,219.228 237.156,218.958 237.156 C 218.689 237.156,218.237 237.476,217.956 237.867 C 217.674 238.258,217.158 238.578,216.810 238.578 C 216.462 238.578,216.178 238.708,216.178 238.867 C 216.178 239.026,215.618 239.376,214.933 239.644 C 214.249 239.913,213.689 240.263,213.689 240.422 C 213.689 240.581,213.209 240.711,212.622 240.711 C 212.036 240.711,211.556 240.871,211.556 241.067 C 211.556 241.262,211.076 241.422,210.489 241.422 C 209.902 241.422,209.422 241.582,209.422 241.778 C 209.422 241.973,208.942 242.133,208.356 242.133 C 207.769 242.133,207.289 242.293,207.289 242.489 C 207.289 242.689,206.281 242.844,204.978 242.844 C 203.674 242.844,202.667 242.999,202.667 243.200 C 202.667 243.403,201.600 243.556,200.178 243.556 C 198.756 243.556,197.689 243.403,197.689 243.200 C 197.689 242.997,196.622 242.844,195.200 242.844 C 193.778 242.844,192.711 242.692,192.711 242.489 C 192.711 242.293,192.231 242.133,191.644 242.133 C 191.058 242.133,190.578 241.973,190.578 241.778 C 190.578 241.582,190.098 241.422,189.511 241.422 C 188.924 241.422,188.444 241.262,188.444 241.067 C 188.444 240.871,187.964 240.711,187.378 240.711 C 186.791 240.711,186.311 240.581,186.311 240.422 C 186.311 240.263,185.751 239.913,185.067 239.644 C 184.382 239.376,183.822 239.026,183.822 238.867 C 183.822 238.708,183.538 238.578,183.190 238.578 C 182.842 238.578,182.326 238.258,182.044 237.867 C 181.763 237.476,181.311 237.156,181.042 237.156 C 180.772 237.156,180.104 236.676,179.556 236.089 C 179.008 235.502,178.371 235.022,178.141 235.022 C 177.910 235.022,177.105 234.399,176.350 233.637 C 175.596 232.875,174.915 232.314,174.838 232.392 C 174.761 232.469,174.483 232.133,174.222 231.644 C 173.960 231.155,173.614 230.756,173.451 230.756 C 173.289 230.756,173.156 230.580,173.156 230.365 C 173.156 230.150,172.676 229.526,172.089 228.978 C 171.502 228.430,171.022 227.783,171.022 227.540 C 171.022 227.298,170.557 226.654,169.987 226.110 C 169.418 225.566,169.045 225.029,169.158 224.916 C 169.271 224.803,169.176 224.711,168.948 224.711 C 168.720 224.711,168.533 224.477,168.533 224.192 C 168.533 223.906,167.893 223.038,167.111 222.264 C 166.329 221.489,165.689 220.667,165.689 220.437 C 165.689 220.207,165.209 219.570,164.622 219.022 C 164.036 218.474,163.555 217.810,163.555 217.546 C 163.554 217.282,163.074 216.747,162.489 216.356 C 161.903 215.964,161.424 215.429,161.423 215.165 C 161.423 214.901,160.942 214.237,160.356 213.689 C 159.769 213.141,159.289 212.501,159.289 212.267 C 159.289 212.032,158.809 211.392,158.222 210.844 C 157.636 210.296,157.156 209.656,157.156 209.422 C 157.156 209.188,156.658 208.532,156.051 207.965 C 155.385 207.343,155.028 206.721,155.151 206.400 C 155.281 206.060,155.145 205.867,154.774 205.867 C 154.454 205.867,154.298 205.761,154.427 205.632 C 154.556 205.503,154.343 205.174,153.953 204.901 C 153.563 204.628,153.244 204.200,153.244 203.950 C 153.244 203.700,152.764 203.068,152.178 202.545 C 151.591 202.022,151.111 201.420,151.111 201.207 C 151.111 200.993,150.631 200.370,150.044 199.822 C 149.458 199.274,148.978 198.605,148.978 198.336 C 148.978 198.066,148.658 197.615,148.267 197.333 C 147.876 197.051,147.556 196.571,147.556 196.267 C 147.556 195.962,147.236 195.482,146.844 195.200 C 146.453 194.918,146.133 194.467,146.133 194.197 C 146.133 193.928,145.653 193.259,145.067 192.711 C 144.480 192.163,144.000 191.518,144.000 191.277 C 144.000 191.036,143.719 190.580,143.375 190.264 C 143.032 189.948,142.525 189.249,142.249 188.711 C 141.972 188.173,141.614 187.733,141.451 187.733 C 141.289 187.733,141.156 187.518,141.156 187.254 C 141.156 186.642,139.953 185.244,139.425 185.244 C 139.203 185.244,139.022 184.936,139.022 184.559 C 139.022 184.182,138.782 183.633,138.489 183.340 C 138.196 183.046,137.956 182.590,137.956 182.326 C 137.956 182.062,137.636 181.615,137.244 181.333 C 136.853 181.051,136.533 180.575,136.533 180.274 C 136.533 179.973,136.213 179.527,135.822 179.283 C 135.431 179.038,135.111 178.577,135.111 178.258 C 135.111 177.628,134.135 176.741,133.422 176.722 C 133.068 176.713,132.978 190.560,132.978 244.800 " stroke="none" fill="#4c5c8c" fill-rule="evenodd"></path><path id="path1" d="M171.733 194.993 C 171.733 195.367,172.804 196.381,172.997 196.188 C 173.087 196.099,172.839 195.735,172.447 195.380 C 172.054 195.025,171.733 194.850,171.733 194.993 M227.380 195.553 C 227.025 195.946,226.850 196.267,226.993 196.267 C 227.367 196.267,228.381 195.196,228.188 195.003 C 228.099 194.913,227.735 195.161,227.380 195.553 M372.089 316.800 L 371.022 317.071 372.178 317.113 C 372.813 317.137,373.333 316.996,373.333 316.800 C 373.333 316.604,373.293 316.463,373.244 316.487 C 373.196 316.510,372.676 316.651,372.089 316.800 M146.756 317.051 C 147.196 317.136,147.916 317.136,148.356 317.051 C 148.796 316.966,148.436 316.897,147.556 316.897 C 146.676 316.897,146.316 316.966,146.756 317.051 M200.622 332.334 C 200.964 332.423,201.524 332.423,201.867 332.334 C 202.209 332.245,201.929 332.171,201.244 332.171 C 200.560 332.171,200.280 332.245,200.622 332.334 M202.667 332.937 C 202.667 333.013,203.138 333.144,203.715 333.229 C 204.291 333.313,204.681 333.251,204.582 333.091 C 204.406 332.806,202.667 332.666,202.667 332.937 " stroke="none" fill="#505c8c" fill-rule="evenodd"></path><path id="path2" d="M171.733 194.993 C 171.733 195.367,172.804 196.381,172.997 196.188 C 173.087 196.099,172.839 195.735,172.447 195.380 C 172.054 195.025,171.733 194.850,171.733 194.993 M227.380 195.553 C 227.025 195.946,226.850 196.267,226.993 196.267 C 227.367 196.267,228.381 195.196,228.188 195.003 C 228.099 194.913,227.735 195.161,227.380 195.553 M372.089 316.800 L 371.022 317.071 372.178 317.113 C 372.813 317.137,373.333 316.996,373.333 316.800 C 373.333 316.604,373.293 316.463,373.244 316.487 C 373.196 316.510,372.676 316.651,372.089 316.800 M146.756 317.051 C 147.196 317.136,147.916 317.136,148.356 317.051 C 148.796 316.966,148.436 316.897,147.556 316.897 C 146.676 316.897,146.316 316.966,146.756 317.051 M200.622 332.334 C 200.964 332.423,201.524 332.423,201.867 332.334 C 202.209 332.245,201.929 332.171,201.244 332.171 C 200.560 332.171,200.280 332.245,200.622 332.334 M202.667 332.937 C 202.667 333.013,203.138 333.144,203.715 333.229 C 204.291 333.313,204.681 333.251,204.582 333.091 C 204.406 332.806,202.667 332.666,202.667 332.937 " stroke="none" fill="#505c8c" fill-rule="evenodd"></path><path id="path3" d="M171.733 194.993 C 171.733 195.367,172.804 196.381,172.997 196.188 C 173.087 196.099,172.839 195.735,172.447 195.380 C 172.054 195.025,171.733 194.850,171.733 194.993 M227.380 195.553 C 227.025 195.946,226.850 196.267,226.993 196.267 C 227.367 196.267,228.381 195.196,228.188 195.003 C 228.099 194.913,227.735 195.161,227.380 195.553 M372.089 316.800 L 371.022 317.071 372.178 317.113 C 372.813 317.137,373.333 316.996,373.333 316.800 C 373.333 316.604,373.293 316.463,373.244 316.487 C 373.196 316.510,372.676 316.651,372.089 316.800 M146.756 317.051 C 147.196 317.136,147.916 317.136,148.356 317.051 C 148.796 316.966,148.436 316.897,147.556 316.897 C 146.676 316.897,146.316 316.966,146.756 317.051 M200.622 332.334 C 200.964 332.423,201.524 332.423,201.867 332.334 C 202.209 332.245,201.929 332.171,201.244 332.171 C 200.560 332.171,200.280 332.245,200.622 332.334 M202.667 332.937 C 202.667 333.013,203.138 333.144,203.715 333.229 C 204.291 333.313,204.681 333.251,204.582 333.091 C 204.406 332.806,202.667 332.666,202.667 332.937 " stroke="none" fill="#505c8c" fill-rule="evenodd"></path><path id="path4" d="M171.733 194.993 C 171.733 195.367,172.804 196.381,172.997 196.188 C 173.087 196.099,172.839 195.735,172.447 195.380 C 172.054 195.025,171.733 194.850,171.733 194.993 M227.380 195.553 C 227.025 195.946,226.850 196.267,226.993 196.267 C 227.367 196.267,228.381 195.196,228.188 195.003 C 228.099 194.913,227.735 195.161,227.380 195.553 M372.089 316.800 L 371.022 317.071 372.178 317.113 C 372.813 317.137,373.333 316.996,373.333 316.800 C 373.333 316.604,373.293 316.463,373.244 316.487 C 373.196 316.510,372.676 316.651,372.089 316.800 M146.756 317.051 C 147.196 317.136,147.916 317.136,148.356 317.051 C 148.796 316.966,148.436 316.897,147.556 316.897 C 146.676 316.897,146.316 316.966,146.756 317.051 M200.622 332.334 C 200.964 332.423,201.524 332.423,201.867 332.334 C 202.209 332.245,201.929 332.171,201.244 332.171 C 200.560 332.171,200.280 332.245,200.622 332.334 M202.667 332.937 C 202.667 333.013,203.138 333.144,203.715 333.229 C 204.291 333.313,204.681 333.251,204.582 333.091 C 204.406 332.806,202.667 332.666,202.667 332.937 " stroke="none" fill="#505c8c" fill-rule="evenodd"></path></g></svg>