<svg width="400" height="400" xmlns="http://www.w3.org/2000/svg" xmlns:xlink="http://www.w3.org/1999/xlink" xml:space="preserve" overflow="hidden"><g><path d="M116.5 68.935C107.796 71.054 103.226 76.151 99.858 87.5 98.715 91.35 97.112 96.525 96.295 99 87.865 124.548 86.708 130.973 89.387 137.383 91.971 143.568 92.435 143.76 129.75 154.099 131.537 154.595 134.463 155.429 136.25 155.953 138.037 156.477 143.55 158.036 148.5 159.418 153.45 160.799 166.275 164.458 177 167.548 200.647 174.36 200.655 174.362 210 176.928 218.979 179.393 223.973 180.839 238.5 185.176 258.372 191.11 267.862 190.229 289.5 180.44 293.48 178.64 344.278 156.725 354.667 152.327 369.837 145.904 369.905 136.605 354.813 132.357 347.739 130.366 347.753 130.37 315 120.983 299.325 116.49 285.15 112.435 283.5 111.972 281.85 111.508 276.675 110.044 272 108.719 124.685 66.964 124.642 66.953 116.5 68.935M97.706 158.54C95.216 166.627 95.484 173.281 98.524 178.865 102.959 187.007 105.591 188.205 140.5 197.974 152.6 201.36 163.175 204.321 164 204.553 165.263 204.909 165.5 207.857 165.5 223.217L165.5 241.457 161.75 244.845C159.687 246.708 158 248.855 158 249.616 158 250.774 150.577 251 112.5 251L67 251 67 234.516 67 218.032 64.152 214.845C60.847 211.145 47.893 209.56 40.608 211.964 33.919 214.172 34 213.526 34 264.935L34 310.968 36.834 314.14C39.478 317.1 40.205 317.343 47.702 317.777 64.877 318.771 67 316.22 67 294.596L67 279 113.559 279 160.117 279 163.809 281.96C188.569 301.817 220.233 264.972 196.395 244.042L193 241.061 193 226.963C193 213.823 193.123 212.904 194.807 213.439 199.738 215.004 235.14 225.342 239.5 226.491 242.25 227.215 247.65 228.788 251.5 229.986 255.35 231.184 259.85 232.541 261.5 233 263.15 233.459 268.55 235.058 273.5 236.554 295.697 243.261 303.673 239.384 310.012 218.808 311.759 213.139 313.768 206.7 314.477 204.5 318.388 192.363 323.126 174.793 322.623 174.29 322.303 173.97 319.22 174.953 315.771 176.475 268.249 197.439 263.195 198.763 247.299 194.413 244.109 193.541 240.15 192.463 238.5 192.019 233.562 190.688 218.605 186.459 199.5 180.991 189.6 178.158 176.55 174.492 170.5 172.845 157.785 169.383 161.106 170.313 126.72 160.58 111.991 156.411 99.821 153 99.676 153 99.531 153 98.644 155.493 97.706 158.54M327.047 187.75C324.122 197.512 321.156 207.3 320.457 209.5 312.792 233.594 312.819 232.084 320.044 232.778 327.734 233.517 331.191 230.839 333.309 222.5 333.589 221.4 334.949 216.9 336.332 212.5 346.158 181.236 346.493 179.266 342.745 174.862 340.868 172.656 335.563 170 333.034 170 332.666 170 329.972 177.988 327.047 187.75" fill="#455689" fill-rule="evenodd"/></g></svg>