<?xml version="1.0" standalone="no"?>
<!DOCTYPE svg PUBLIC "-//W3C//DTD SVG 20010904//EN"
 "http://www.w3.org/TR/2001/REC-SVG-20010904/DTD/svg10.dtd">
<svg version="1.0" xmlns="http://www.w3.org/2000/svg"
 width="300.000000pt" height="226.000000pt" viewBox="0 0 300.000000 226.000000"
 preserveAspectRatio="xMidYMid meet">
<metadata>
Created by potrace 1.10, written by Peter Selinger 2001-2011
</metadata>
<g transform="translate(0.000000,226.000000) scale(0.100000,-0.100000)"
fill="#325096" stroke="none">
<path d="M703 2232 c-17 -9 -41 -29 -52 -43 -25 -32 -64 -120 -56 -127 3 -3 1
-10 -3 -16 -5 -6 -13 -29 -20 -51 -38 -135 -46 -161 -53 -170 -26 -36 -33
-195 -9 -195 5 0 11 -9 15 -19 9 -28 94 -58 360 -127 33 -9 67 -19 75 -24 9
-4 31 -11 50 -14 19 -4 46 -11 60 -16 14 -4 63 -18 110 -30 47 -12 92 -25 100
-30 8 -4 60 -19 115 -35 55 -15 145 -40 200 -57 55 -16 111 -31 125 -34 14 -3
34 -9 45 -14 11 -4 68 -20 127 -35 166 -42 238 -31 458 72 41 19 102 45 136
58 34 13 70 28 80 34 21 12 84 39 277 121 70 30 127 60 127 67 0 7 4 13 9 13
13 0 19 33 10 58 -10 28 -67 54 -169 77 -41 10 -84 21 -95 26 -11 4 -33 11
-50 15 -34 8 -34 8 -55 17 -27 10 -114 35 -140 40 -14 2 -81 21 -150 42 -69
20 -172 50 -230 65 -159 42 -430 120 -573 165 -26 8 -54 15 -63 15 -8 0 -55
13 -104 30 -49 16 -107 32 -127 36 -21 4 -42 10 -48 14 -5 4 -28 11 -50 14
-22 4 -53 11 -70 16 -220 67 -299 76 -362 42z"/>
<path d="M593 1472 c-14 -23 -26 -78 -28 -122 -2 -66 40 -136 103 -169 28 -15
125 -46 172 -55 19 -4 85 -23 145 -41 61 -19 133 -40 160 -48 l50 -14 3 -166
2 -166 -34 -26 c-20 -15 -38 -35 -41 -46 -6 -18 -22 -19 -421 -19 l-414 0 0
154 c0 190 -3 195 -102 203 -90 8 -155 -3 -168 -28 -7 -12 -11 -170 -11 -445
0 -513 -11 -474 136 -474 87 0 93 1 118 28 26 27 26 31 29 172 l3 145 424 3
424 2 45 -37 c38 -31 54 -38 103 -41 99 -7 179 37 219 121 39 81 16 214 -45
263 l-35 28 0 126 c0 70 3 129 6 133 3 3 14 2 23 -3 9 -5 63 -21 121 -36 58
-15 110 -30 115 -34 6 -4 21 -10 35 -13 69 -16 187 -49 290 -82 220 -70 292
-82 350 -59 62 26 93 74 125 194 1 3 6 16 12 30 6 14 14 41 18 60 8 42 28 108
61 209 25 74 25 92 2 74 -7 -5 -44 -22 -83 -38 -78 -31 -136 -56 -210 -90
-204 -93 -273 -91 -630 20 -60 18 -153 45 -205 59 -125 32 -306 82 -350 96
-19 6 -44 13 -56 15 -11 3 -56 16 -100 30 -43 14 -97 30 -119 35 -72 16 -130
32 -150 41 -11 5 -29 10 -40 12 -11 1 -25 6 -30 9 -6 4 -16 -1 -22 -10z"/>
<path d="M2665 1216 c-21 -61 -39 -117 -40 -125 -1 -9 -4 -23 -7 -31 -11 -30
-57 -186 -64 -215 -4 -16 -11 -36 -17 -43 -14 -18 -4 -24 50 -29 42 -4 52 -2
75 21 24 25 49 84 62 146 3 14 9 39 15 55 74 229 78 249 52 291 -14 24 -28 33
-54 36 l-34 4 -38 -110z"/>
</g>
</svg>
