 <svg  version="1.0" xmlns="http://www.w3.org/2000/svg"  width="300.000000pt" height="253.000000pt" viewBox="0 0 300.000000 253.000000"  preserveAspectRatio="xMidYMid meet">  <g transform="translate(0.000000,253.000000) scale(0.100000,-0.100000)" fill="#325096" stroke="none"> <path d="M2146 2281 c-6 -10 54 -22 68 -14 12 8 -15 23 -41 23 -12 0 -24 -4 -27 -9z"/> <path d="M2000 2271 c0 -5 9 -7 20 -4 11 3 20 7 20 9 0 2 -9 4 -20 4 -11 0 -20 -4 -20 -9z"/> <path d="M1808 2238 c-21 -6 -38 -13 -38 -16 1 -14 69 -39 74 -28 3 8 7 8 13 -1 6 -8 27 -9 76 -3 75 9 87 14 69 32 -8 8 -18 7 -37 -6 -23 -15 -30 -15 -56 -4 -16 7 -27 19 -24 25 5 15 -23 15 -77 1z m27 -18 c3 -5 -1 -10 -9 -10 -9 0 -16 5 -16 10 0 6 4 10 9 10 6 0 13 -4 16 -10z"/> <path d="M2230 2231 c0 -6 7 -8 15 -5 21 9 38 -5 25 -20 -8 -10 2 -14 44 -19 68 -7 176 3 176 16 0 6 -26 7 -71 3 -55 -6 -74 -4 -87 7 -21 19 -102 33 -102 18z"/> <path d="M2074 2219 c-2 -4 6 -10 19 -14 32 -11 137 -15 137 -6 0 5 -12 6 -27 3 -21 -4 -25 -2 -20 11 5 14 -2 16 -49 14 -31 -1 -57 -5 -60 -8z"/> <path d="M1601 2160 c-59 -28 -63 -32 -49 -47 14 -13 22 -13 53 -3 44 14 49 11 40 -29 -5 -25 -12 -31 -31 -31 -14 0 -34 5 -45 10 -10 6 -43 12 -72 13 -28 1 -55 6 -59 11 -4 7 -45 2 -110 -13 -125 -28 -137 -28 -263 -5 -136 25 -253 24 -330 -3 -33 -12 -79 -25 -102 -28 -45 -7 -49 -11 -34 -34 15 -23 1 -43 -25 -37 -32 8 -121 -12 -128 -30 -4 -11 5 -14 46 -14 42 0 48 -2 39 -14 -6 -7 -30 -16 -54 -20 -31 -5 -136 -39 -153 -50 -1 -1 -5 -11 -8 -23 -6 -19 -4 -23 15 -23 17 0 19 -3 10 -14 -10 -11 -5 -16 26 -23 l38 -10 -38 -23 c-56 -34 -37 -36 38 -5 36 16 72 28 80 28 8 0 15 4 15 8 0 5 14 16 31 25 25 12 33 13 39 3 7 -10 18 -9 57 1 26 7 56 20 65 28 15 13 19 12 33 -2 9 -9 29 -16 45 -16 34 0 79 -19 82 -34 1 -6 2 -33 2 -61 1 -41 4 -49 18 -47 20 3 34 -16 21 -29 -6 -6 -8 -32 -5 -59 4 -42 2 -50 -12 -50 -21 0 -20 -5 5 -39 l21 -28 -22 -45 c-12 -25 -36 -63 -54 -84 -63 -76 -80 -120 -78 -209 2 -70 5 -82 24 -97 13 -10 29 -23 36 -28 6 -6 12 -30 12 -53 0 -23 9 -59 20 -79 17 -33 18 -38 5 -46 -13 -7 -11 -13 14 -34 20 -18 28 -33 24 -46 -3 -12 5 -29 21 -45 14 -14 26 -21 26 -15 0 12 -16 67 -32 108 -6 14 -12 36 -15 50 -2 14 -8 26 -14 28 -5 2 -9 17 -9 33 0 22 5 29 20 29 16 0 20 -7 20 -33 0 -22 11 -49 30 -75 16 -22 32 -51 35 -64 3 -13 22 -44 41 -68 32 -40 35 -49 29 -85 -7 -51 8 -66 119 -125 67 -35 85 -40 118 -35 34 6 43 3 89 -34 32 -25 67 -44 91 -47 34 -6 42 -13 63 -54 13 -26 39 -59 57 -74 18 -15 43 -36 56 -48 27 -25 46 -19 59 19 10 28 10 28 -26 25 -61 -6 -78 38 -58 144 11 57 -7 74 -79 74 -30 0 -54 4 -54 9 0 5 15 40 34 77 37 76 34 93 -14 86 -23 -3 -38 -15 -56 -43 -15 -24 -34 -41 -52 -45 -15 -3 -35 -8 -45 -11 -52 -14 -98 81 -78 162 5 22 14 57 19 78 12 47 25 62 79 94 36 21 50 24 81 17 45 -10 84 -13 77 -6 -3 3 0 11 6 19 13 15 95 18 104 3 3 -5 17 -10 30 -10 26 0 38 -21 29 -55 -6 -24 20 -85 37 -85 19 0 28 48 20 102 -13 81 9 112 133 186 53 31 56 35 56 73 0 21 4 38 8 36 5 -1 29 19 53 45 33 34 58 50 91 58 35 9 45 16 41 29 -6 24 24 47 97 76 76 30 94 31 60 5 -32 -24 -21 -35 16 -16 16 8 51 22 77 31 27 10 51 24 54 32 9 24 -4 26 -26 4 -25 -25 -49 -27 -58 -5 -3 8 -12 13 -19 10 -23 -9 -16 16 13 46 34 36 17 43 -57 24 -47 -12 -52 -12 -36 0 11 8 25 14 32 14 6 0 17 7 24 15 9 11 34 15 92 15 65 0 88 4 121 23 30 16 41 19 45 9 3 -10 7 -10 18 -1 8 6 11 15 8 21 -3 5 0 16 7 24 16 20 -5 61 -43 80 -15 8 -28 18 -28 22 -3 49 -11 126 -13 128 -2 2 -23 -10 -46 -28 -49 -36 -77 -30 -74 16 1 16 -8 36 -22 52 -20 21 -31 25 -71 22 -47 -3 -49 -4 -59 -42 -6 -21 -21 -47 -33 -56 -14 -11 -20 -24 -16 -34 12 -30 -5 -62 -41 -79 -20 -9 -42 -17 -49 -17 -8 0 -17 -16 -21 -37 -7 -41 -30 -73 -51 -73 -15 0 -30 40 -18 49 5 3 10 18 11 32 1 22 -4 28 -25 32 -15 4 -40 18 -56 32 -17 14 -41 25 -58 25 -23 0 -28 4 -28 24 0 13 -6 26 -12 29 -19 7 43 68 94 93 24 12 66 32 93 43 28 12 67 31 88 42 l38 20 -10 -20 c-6 -11 -18 -24 -27 -29 -15 -8 -15 -10 1 -15 9 -4 24 -3 34 3 10 5 36 7 57 3 l39 -6 -34 32 c-19 17 -33 31 -30 32 62 10 109 34 109 53 0 8 7 16 15 20 8 3 15 13 15 22 0 12 6 15 23 10 12 -3 26 -6 30 -6 5 0 5 -6 2 -12 -4 -7 3 -2 14 11 19 21 21 22 28 5 3 -11 11 -22 17 -26 6 -5 2 -8 -10 -8 -12 0 -28 -8 -35 -17 -13 -15 -11 -16 11 -9 59 18 68 18 88 -2 11 -11 18 -23 14 -26 -10 -11 -22 -6 -22 9 0 12 -5 11 -32 -3 -18 -9 -39 -23 -47 -30 -7 -8 -23 -11 -34 -8 -23 6 -57 -9 -57 -25 0 -7 12 -8 30 -4 41 9 67 -1 74 -29 5 -19 15 -26 48 -31 24 -4 52 -12 63 -18 20 -10 20 -10 0 14 -11 13 -24 28 -30 32 -5 5 1 5 15 1 14 -3 31 -11 37 -16 18 -14 41 38 25 54 -14 14 -16 48 -3 48 5 0 14 -7 21 -15 16 -19 33 -19 71 1 l31 15 -27 25 c-14 13 -32 24 -39 24 -8 0 -19 7 -26 15 -10 12 -10 15 4 15 9 0 16 5 16 10 0 6 -5 10 -12 10 -6 0 -8 3 -5 7 7 7 -46 43 -64 43 -5 0 -22 9 -37 20 -20 14 -50 21 -112 25 -76 5 -90 3 -129 -17 -48 -25 -62 -57 -30 -65 30 -8 23 -29 -18 -54 -52 -32 -53 -33 -53 -16 0 9 6 17 13 20 8 3 4 11 -11 22 -17 13 -22 25 -20 48 3 26 9 32 50 46 63 22 69 31 19 31 -31 0 -48 -6 -67 -25 -13 -13 -34 -30 -47 -36 l-22 -12 23 25 c32 35 29 49 -10 41 -18 -3 -40 -11 -48 -18 -8 -7 -21 -10 -27 -8 -7 3 -13 1 -13 -4 0 -15 23 -33 42 -33 39 0 5 -43 -35 -44 -13 -1 -32 -11 -45 -24 -28 -28 -86 -29 -127 -2 l-30 20 57 -6 c48 -6 59 -4 64 10 3 9 10 14 14 11 5 -3 11 -1 15 4 3 5 -2 14 -12 19 -15 9 -14 13 11 46 29 39 24 44 -27 22 -34 -14 -137 -11 -137 4 0 12 -58 30 -94 30 -17 0 -60 -14 -95 -30z m724 -20 c-3 -5 -11 -10 -16 -10 -6 0 -7 5 -4 10 3 6 11 10 16 10 6 0 7 -4 4 -10z m112 -7 c-4 -3 -10 -3 -14 0 -3 4 0 7 7 7 7 0 10 -3 7 -7z m-377 -87 c0 -8 -17 -24 -37 -36 l-38 -22 25 28 c23 27 41 43 48 44 1 0 2 -6 2 -14z m-361 -23 c2 -2 -5 -3 -17 -3 -14 0 -22 6 -22 16 0 14 3 15 18 3 9 -7 19 -15 21 -16z m61 7 c0 -5 -4 -10 -10 -10 -5 0 -10 5 -10 10 0 6 5 10 10 10 6 0 10 -4 10 -10z m-113 -7 c-4 -3 -10 -3 -14 0 -3 4 0 7 7 7 7 0 10 -3 7 -7z m530 -60 c-4 -3 -10 -3 -14 0 -3 4 0 7 7 7 7 0 10 -3 7 -7z m-1237 -494 c0 -5 -4 -9 -10 -9 -5 0 -10 7 -10 16 0 8 5 12 10 9 6 -3 10 -10 10 -16z"/> <path d="M450 1718 c-14 -6 -20 -12 -13 -15 6 -2 24 3 40 11 32 17 11 20 -27 4z"/> <path d="M2507 1472 c-20 -21 -37 -41 -37 -45 0 -4 24 -7 53 -7 29 0 58 -5 64 -11 8 -8 13 -7 19 2 4 7 3 14 -4 17 -7 2 -9 15 -5 33 4 24 2 29 -14 29 -10 0 -23 4 -29 10 -7 7 -22 -3 -47 -28z"/> <path d="M1620 635 c-28 -16 -19 -20 10 -5 27 14 118 -15 146 -46 14 -16 32 -24 53 -24 41 0 39 10 -7 40 -75 49 -153 63 -202 35z"/> <path d="M1910 525 c0 -9 -10 -16 -27 -16 -21 -1 -18 -3 12 -8 22 -4 53 -3 68 1 16 4 36 5 45 2 12 -4 10 1 -7 15 -28 25 -91 29 -91 6z"/> </g> </svg> 