 <svg  version="1.0" xmlns="http://www.w3.org/2000/svg"  width="300.000000pt" height="400.000000pt" viewBox="0 0 300.000000 400.000000"  preserveAspectRatio="xMidYMid meet">  <g transform="translate(0.000000,400.000000) scale(0.100000,-0.100000)" fill="#325096" stroke="none"> <path d="M349 3977 c-77 -26 -168 -79 -209 -122 -44 -45 -98 -142 -120 -214 -20 -62 -20 -101 -20 -1641 0 -1540 0 -1579 20 -1641 54 -175 181 -298 355 -344 89 -23 2161 -23 2250 0 174 46 301 169 355 344 19 61 20 99 20 1226 l0 1164 -532 3 c-530 3 -533 3 -575 25 -53 29 -87 63 -116 116 -22 42 -22 45 -25 575 l-3 532 -667 0 c-664 -1 -667 -1 -733 -23z m1805 -1987 c58 -13 86 -51 86 -116 0 -65 -26 -101 -85 -114 -52 -12 -1258 -12 -1310 0 -59 13 -85 49 -85 114 0 63 28 103 81 116 47 11 1265 12 1313 0z m0 -500 c58 -13 86 -51 86 -116 0 -64 -28 -101 -87 -115 -50 -11 -1256 -11 -1306 0 -59 14 -87 51 -87 115 0 63 28 103 81 116 47 11 1265 12 1313 0z m0 -500 c58 -13 86 -51 86 -116 0 -65 -26 -101 -85 -114 -52 -12 -1258 -12 -1310 0 -59 13 -85 49 -85 114 0 63 28 103 81 116 47 11 1265 12 1313 0z"/> <path d="M2000 3500 l0 -500 502 0 503 0 -500 500 c-275 275 -501 500 -502 500 -2 0 -3 -225 -3 -500z"/> </g> </svg> 