<svg id="svg" version="1.1" xmlns="http://www.w3.org/2000/svg" xmlns:xlink="http://www.w3.org/1999/xlink" width="400" height="533.3333333333334" viewBox="0, 0, 400,533.3333333333334"><g id="svgg"><path id="path0" d="M51.824 0.380 C 50.738 0.531,49.778 0.867,49.691 1.127 C 49.596 1.413,48.679 1.600,47.367 1.600 C 45.847 1.600,45.230 1.749,45.300 2.100 C 45.365 2.423,44.796 2.644,43.691 2.723 C 42.751 2.791,42.086 3.016,42.214 3.223 C 42.342 3.431,41.886 3.600,41.200 3.600 C 40.465 3.600,40.055 3.765,40.202 4.003 C 40.339 4.224,40.124 4.508,39.725 4.632 C 39.326 4.757,38.687 5.025,38.305 5.229 C 37.923 5.433,37.248 5.600,36.805 5.600 C 36.362 5.600,36.045 5.825,36.100 6.100 C 36.156 6.381,35.719 6.655,35.100 6.727 C 34.470 6.799,34.000 7.098,34.000 7.427 C 34.000 7.772,33.602 8.000,33.000 8.000 C 32.450 8.000,32.000 8.180,32.000 8.400 C 32.000 8.620,31.460 8.800,30.800 8.800 C 30.000 8.800,29.600 9.000,29.600 9.400 C 29.600 9.730,29.420 10.000,29.200 10.000 C 28.980 10.000,28.800 10.293,28.800 10.650 C 28.800 11.159,28.539 11.248,27.600 11.060 C 26.701 10.880,26.400 10.968,26.400 11.410 C 26.400 11.735,26.220 12.000,26.000 12.000 C 25.780 12.000,25.600 12.270,25.600 12.600 C 25.600 12.930,25.319 13.200,24.976 13.200 C 24.633 13.200,24.464 13.380,24.600 13.600 C 24.810 13.940,23.691 14.204,22.700 14.047 C 22.535 14.021,22.400 14.180,22.400 14.400 C 22.400 14.958,20.918 16.385,20.633 16.100 C 20.505 15.972,20.400 16.167,20.400 16.533 C 20.400 16.900,20.130 17.200,19.800 17.200 C 19.470 17.200,19.200 17.378,19.200 17.595 C 19.200 18.210,17.896 19.583,17.529 19.356 C 17.348 19.244,17.200 19.433,17.200 19.776 C 17.200 20.119,16.930 20.400,16.600 20.400 C 16.270 20.400,16.000 20.681,16.000 21.024 C 16.000 21.367,15.820 21.536,15.600 21.400 C 15.380 21.264,15.200 21.433,15.200 21.776 C 15.200 22.119,14.968 22.400,14.685 22.400 C 14.402 22.400,14.140 22.802,14.103 23.294 C 14.066 23.786,13.848 24.251,13.618 24.327 C 13.388 24.404,13.200 24.722,13.200 25.033 C 13.200 25.345,12.930 25.600,12.600 25.600 C 12.270 25.600,12.000 25.864,12.000 26.187 C 12.000 26.511,11.775 26.689,11.500 26.583 C 11.191 26.465,10.978 26.769,10.943 27.381 C 10.884 28.413,9.967 29.600,9.229 29.600 C 8.993 29.600,8.800 30.039,8.800 30.576 C 8.800 31.113,8.620 31.664,8.400 31.800 C 8.180 31.936,8.000 32.487,8.000 33.024 C 8.000 33.625,7.769 34.000,7.400 34.000 C 7.027 34.000,6.800 34.378,6.800 35.000 C 6.800 35.622,6.573 36.000,6.200 36.000 C 5.827 36.000,5.600 36.378,5.600 37.000 C 5.600 37.550,5.420 38.000,5.200 38.000 C 4.980 38.000,4.800 38.450,4.800 39.000 C 4.800 39.622,4.573 40.000,4.200 40.000 C 3.831 40.000,3.600 40.375,3.600 40.976 C 3.600 41.513,3.420 42.064,3.200 42.200 C 2.980 42.336,2.800 43.047,2.800 43.781 C 2.800 44.597,2.567 45.204,2.200 45.345 C 1.779 45.506,1.600 46.164,1.600 47.554 C 1.600 48.694,1.404 49.599,1.138 49.687 C 0.118 50.027,0.058 61.896,0.058 266.600 C 0.058 471.304,0.118 483.173,1.138 483.513 C 1.404 483.601,1.600 484.506,1.600 485.646 C 1.600 487.036,1.779 487.694,2.200 487.855 C 2.567 487.996,2.800 488.603,2.800 489.419 C 2.800 490.153,2.980 490.864,3.200 491.000 C 3.420 491.136,3.600 491.687,3.600 492.224 C 3.600 492.825,3.831 493.200,4.200 493.200 C 4.573 493.200,4.800 493.578,4.800 494.200 C 4.800 494.750,4.980 495.200,5.200 495.200 C 5.420 495.200,5.600 495.650,5.600 496.200 C 5.600 496.822,5.827 497.200,6.200 497.200 C 6.573 497.200,6.800 497.578,6.800 498.200 C 6.800 498.822,7.027 499.200,7.400 499.200 C 7.769 499.200,8.000 499.575,8.000 500.176 C 8.000 500.713,8.180 501.264,8.400 501.400 C 8.620 501.536,8.800 502.087,8.800 502.624 C 8.800 503.161,8.993 503.600,9.229 503.600 C 9.967 503.600,10.884 504.787,10.943 505.819 C 10.978 506.431,11.191 506.735,11.500 506.617 C 11.775 506.511,12.000 506.689,12.000 507.013 C 12.000 507.336,12.270 507.600,12.600 507.600 C 12.930 507.600,13.200 507.855,13.200 508.167 C 13.200 508.478,13.388 508.796,13.618 508.873 C 13.848 508.949,14.066 509.414,14.103 509.906 C 14.140 510.398,14.402 510.800,14.685 510.800 C 14.968 510.800,15.200 511.081,15.200 511.424 C 15.200 511.767,15.380 511.936,15.600 511.800 C 15.820 511.664,16.000 511.833,16.000 512.176 C 16.000 512.519,16.270 512.800,16.600 512.800 C 16.930 512.800,17.200 513.081,17.200 513.424 C 17.200 513.767,17.348 513.956,17.529 513.844 C 17.896 513.617,19.200 514.990,19.200 515.605 C 19.200 515.822,19.470 516.000,19.800 516.000 C 20.130 516.000,20.400 516.300,20.400 516.667 C 20.400 517.033,20.505 517.228,20.633 517.100 C 20.918 516.815,22.400 518.242,22.400 518.800 C 22.400 519.020,22.535 519.179,22.700 519.153 C 23.691 518.996,24.810 519.260,24.600 519.600 C 24.464 519.820,24.633 520.000,24.976 520.000 C 25.319 520.000,25.600 520.270,25.600 520.600 C 25.600 520.930,25.780 521.200,26.000 521.200 C 26.220 521.200,26.400 521.466,26.400 521.790 C 26.400 522.232,26.701 522.320,27.600 522.140 C 28.539 521.952,28.800 522.041,28.800 522.550 C 28.800 522.908,28.980 523.200,29.200 523.200 C 29.420 523.200,29.600 523.470,29.600 523.800 C 29.600 524.200,30.000 524.400,30.800 524.400 C 31.460 524.400,32.000 524.580,32.000 524.800 C 32.000 525.020,32.450 525.200,33.000 525.200 C 33.602 525.200,34.000 525.428,34.000 525.773 C 34.000 526.102,34.470 526.401,35.100 526.473 C 35.719 526.545,36.156 526.819,36.100 527.100 C 36.045 527.375,36.362 527.600,36.805 527.600 C 37.248 527.600,37.923 527.767,38.305 527.971 C 38.687 528.175,39.326 528.443,39.725 528.568 C 40.124 528.692,40.339 528.976,40.202 529.197 C 40.055 529.435,40.465 529.600,41.200 529.600 C 41.886 529.600,42.342 529.769,42.214 529.977 C 42.086 530.184,42.751 530.409,43.691 530.477 C 44.796 530.556,45.365 530.777,45.300 531.100 C 45.230 531.451,45.847 531.600,47.367 531.600 C 48.691 531.600,49.595 531.786,49.693 532.078 C 50.027 533.082,59.653 533.151,200.000 533.151 C 340.347 533.151,349.973 533.082,350.307 532.078 C 350.405 531.786,351.309 531.600,352.633 531.600 C 354.153 531.600,354.770 531.451,354.700 531.100 C 354.635 530.777,355.204 530.556,356.309 530.477 C 357.249 530.409,357.914 530.184,357.786 529.977 C 357.658 529.769,358.114 529.600,358.800 529.600 C 359.535 529.600,359.945 529.435,359.798 529.197 C 359.661 528.976,359.876 528.692,360.275 528.568 C 360.674 528.443,361.313 528.175,361.695 527.971 C 362.077 527.767,362.752 527.600,363.195 527.600 C 363.638 527.600,363.955 527.375,363.900 527.100 C 363.844 526.819,364.281 526.545,364.900 526.473 C 365.530 526.401,366.000 526.102,366.000 525.773 C 366.000 525.428,366.398 525.200,367.000 525.200 C 367.550 525.200,368.000 525.020,368.000 524.800 C 368.000 524.580,368.540 524.400,369.200 524.400 C 370.000 524.400,370.400 524.200,370.400 523.800 C 370.400 523.470,370.580 523.200,370.800 523.200 C 371.020 523.200,371.200 522.908,371.200 522.550 C 371.200 522.041,371.461 521.952,372.400 522.140 C 373.299 522.320,373.600 522.232,373.600 521.790 C 373.600 521.466,373.780 521.200,374.000 521.200 C 374.220 521.200,374.400 520.930,374.400 520.600 C 374.400 520.270,374.681 520.000,375.024 520.000 C 375.367 520.000,375.536 519.820,375.400 519.600 C 375.190 519.260,376.309 518.996,377.300 519.153 C 377.465 519.179,377.600 519.020,377.600 518.800 C 377.600 518.242,379.082 516.815,379.367 517.100 C 379.495 517.228,379.600 517.033,379.600 516.667 C 379.600 516.300,379.870 516.000,380.200 516.000 C 380.530 516.000,380.800 515.822,380.800 515.605 C 380.800 514.990,382.104 513.617,382.471 513.844 C 382.652 513.956,382.800 513.767,382.800 513.424 C 382.800 513.081,383.070 512.800,383.400 512.800 C 383.730 512.800,384.000 512.519,384.000 512.176 C 384.000 511.833,384.180 511.664,384.400 511.800 C 384.620 511.936,384.800 511.767,384.800 511.424 C 384.800 511.081,385.032 510.800,385.315 510.800 C 385.598 510.800,385.860 510.398,385.897 509.906 C 385.934 509.414,386.152 508.949,386.382 508.873 C 386.612 508.796,386.800 508.478,386.800 508.167 C 386.800 507.855,387.070 507.600,387.400 507.600 C 387.730 507.600,388.000 507.336,388.000 507.013 C 388.000 506.689,388.225 506.511,388.500 506.617 C 388.809 506.735,389.022 506.431,389.057 505.819 C 389.116 504.787,390.033 503.600,390.771 503.600 C 391.007 503.600,391.200 503.161,391.200 502.624 C 391.200 502.087,391.380 501.536,391.600 501.400 C 391.820 501.264,392.000 500.713,392.000 500.176 C 392.000 499.575,392.231 499.200,392.600 499.200 C 392.973 499.200,393.200 498.822,393.200 498.200 C 393.200 497.578,393.427 497.200,393.800 497.200 C 394.173 497.200,394.400 496.822,394.400 496.200 C 394.400 495.650,394.580 495.200,394.800 495.200 C 395.020 495.200,395.200 494.750,395.200 494.200 C 395.200 493.578,395.427 493.200,395.800 493.200 C 396.169 493.200,396.400 492.825,396.400 492.224 C 396.400 491.687,396.580 491.136,396.800 491.000 C 397.020 490.864,397.200 490.153,397.200 489.419 C 397.200 488.603,397.433 487.996,397.800 487.855 C 398.221 487.694,398.400 487.036,398.400 485.646 C 398.400 484.506,398.596 483.601,398.862 483.513 C 399.876 483.175,399.943 473.466,399.971 322.500 L 400.000 166.000 333.600 166.000 C 289.600 166.000,267.200 165.865,267.200 165.600 C 267.200 165.361,265.652 165.200,263.357 165.200 C 260.106 165.200,259.550 165.108,259.745 164.600 C 259.932 164.112,259.568 164.000,257.787 164.000 C 256.270 164.000,255.600 163.842,255.600 163.485 C 255.600 163.202,255.211 162.941,254.736 162.905 C 254.261 162.869,253.766 162.669,253.636 162.460 C 253.506 162.252,252.950 162.013,252.400 161.931 C 251.842 161.847,251.449 161.551,251.510 161.261 C 251.570 160.975,251.473 160.831,251.294 160.942 C 250.787 161.255,248.400 159.964,248.400 159.377 C 248.400 159.089,247.905 158.796,247.300 158.727 C 246.620 158.648,246.244 158.390,246.316 158.051 C 246.387 157.720,246.208 157.588,245.867 157.719 C 245.532 157.848,245.090 157.541,244.783 156.968 C 244.498 156.436,244.025 156.000,243.732 156.000 C 243.440 156.000,243.200 155.730,243.200 155.400 C 243.200 155.070,242.930 154.800,242.600 154.800 C 242.270 154.800,242.000 154.530,242.000 154.200 C 242.000 153.870,241.820 153.600,241.600 153.600 C 241.380 153.600,241.200 153.150,241.200 152.600 C 241.200 151.978,240.973 151.600,240.600 151.600 C 240.270 151.600,240.000 151.319,240.000 150.976 C 240.000 150.633,239.820 150.464,239.600 150.600 C 239.373 150.741,239.200 150.400,239.200 149.811 C 239.200 149.241,238.930 148.671,238.600 148.545 C 238.270 148.418,238.000 147.884,238.000 147.357 C 238.000 146.773,237.766 146.400,237.400 146.400 C 237.027 146.400,236.800 146.022,236.800 145.400 C 236.800 144.850,236.620 144.400,236.400 144.400 C 236.180 144.400,236.000 143.410,236.000 142.200 C 236.000 140.653,235.852 140.030,235.500 140.100 C 235.135 140.173,234.969 139.199,234.885 136.500 C 234.794 133.572,234.648 132.800,234.185 132.800 C 233.674 132.800,233.600 124.398,233.600 66.400 L 233.600 0.000 143.700 0.053 C 94.255 0.083,52.911 0.230,51.824 0.380 M266.302 66.620 C 266.238 108.307,266.342 133.382,266.580 133.620 C 266.817 133.857,292.003 134.000,333.480 134.000 L 400.000 134.000 400.000 132.888 C 400.000 132.235,399.670 131.539,399.200 131.200 C 398.760 130.883,398.400 130.393,398.400 130.112 C 398.400 129.830,398.207 129.600,397.971 129.600 C 397.736 129.600,397.286 129.343,396.971 129.029 C 396.657 128.714,396.400 128.264,396.400 128.029 C 396.400 127.793,396.130 127.600,395.800 127.600 C 395.470 127.600,395.200 127.407,395.200 127.171 C 395.200 126.936,394.943 126.486,394.629 126.171 C 394.314 125.857,393.864 125.600,393.629 125.600 C 393.393 125.600,393.200 125.330,393.200 125.000 C 393.200 124.670,393.007 124.400,392.771 124.400 C 392.218 124.400,391.200 123.382,391.200 122.829 C 391.200 122.593,391.007 122.400,390.771 122.400 C 390.218 122.400,389.200 121.382,389.200 120.829 C 389.200 120.593,388.930 120.400,388.600 120.400 C 388.270 120.400,388.000 120.130,388.000 119.800 C 388.000 119.470,387.807 119.200,387.571 119.200 C 387.336 119.200,386.886 118.943,386.571 118.629 C 386.257 118.314,386.000 117.864,386.000 117.629 C 386.000 117.393,385.822 117.200,385.605 117.200 C 384.990 117.200,383.617 115.896,383.844 115.529 C 383.956 115.348,383.767 115.200,383.424 115.200 C 383.081 115.200,382.800 114.930,382.800 114.600 C 382.800 114.270,382.530 114.000,382.200 114.000 C 381.870 114.000,381.600 113.730,381.600 113.400 C 381.600 113.070,381.319 112.800,380.976 112.800 C 380.633 112.800,380.464 112.620,380.600 112.400 C 380.736 112.180,380.597 112.000,380.291 112.000 C 379.985 112.000,379.494 111.550,379.200 111.000 C 378.906 110.450,378.425 110.000,378.132 110.000 C 377.840 110.000,377.600 109.730,377.600 109.400 C 377.600 109.070,377.330 108.800,377.000 108.800 C 376.670 108.800,376.400 108.519,376.400 108.176 C 376.400 107.833,376.220 107.664,376.000 107.800 C 375.780 107.936,375.600 107.767,375.600 107.424 C 375.600 107.081,375.406 106.800,375.169 106.800 C 374.932 106.800,374.212 106.274,373.569 105.631 C 372.926 104.988,372.400 104.268,372.400 104.031 C 372.400 103.794,372.130 103.600,371.800 103.600 C 371.470 103.600,371.200 103.407,371.200 103.171 C 371.200 102.936,370.943 102.486,370.629 102.171 C 370.314 101.857,369.864 101.600,369.629 101.600 C 369.393 101.600,369.200 101.360,369.200 101.068 C 369.200 100.775,368.750 100.294,368.200 100.000 C 367.650 99.706,367.200 99.225,367.200 98.932 C 367.200 98.640,366.960 98.400,366.668 98.400 C 366.375 98.400,365.894 97.950,365.600 97.400 C 365.306 96.850,364.825 96.400,364.532 96.400 C 364.240 96.400,364.000 96.207,364.000 95.971 C 364.000 95.418,362.982 94.400,362.429 94.400 C 362.193 94.400,362.000 94.130,362.000 93.800 C 362.000 93.470,361.814 93.200,361.587 93.200 C 361.069 93.200,358.800 90.909,358.800 90.386 C 358.800 90.174,358.519 90.000,358.176 90.000 C 357.833 90.000,357.664 89.820,357.800 89.600 C 357.936 89.380,357.767 89.200,357.424 89.200 C 357.081 89.200,356.800 88.930,356.800 88.600 C 356.800 88.270,356.634 88.000,356.431 88.000 C 355.914 88.000,353.600 85.632,353.600 85.103 C 353.600 84.863,353.495 84.772,353.367 84.900 C 353.082 85.185,351.600 83.758,351.600 83.200 C 351.600 82.980,351.330 82.800,351.000 82.800 C 350.670 82.800,350.400 82.530,350.400 82.200 C 350.400 81.870,350.207 81.600,349.971 81.600 C 349.407 81.600,348.400 80.578,348.400 80.005 C 348.400 79.756,348.252 79.644,348.071 79.756 C 347.704 79.983,346.400 78.610,346.400 77.995 C 346.400 77.778,346.130 77.600,345.800 77.600 C 345.470 77.600,345.200 77.407,345.200 77.171 C 345.200 76.618,344.182 75.600,343.629 75.600 C 343.393 75.600,343.200 75.319,343.200 74.976 C 343.200 74.633,343.052 74.444,342.871 74.556 C 342.504 74.783,341.200 73.410,341.200 72.795 C 341.200 72.578,340.930 72.400,340.600 72.400 C 340.270 72.400,340.000 72.207,340.000 71.971 C 340.000 71.418,338.982 70.400,338.429 70.400 C 338.193 70.400,338.000 70.130,338.000 69.800 C 338.000 69.470,337.822 69.200,337.605 69.200 C 336.990 69.200,335.617 67.896,335.844 67.529 C 335.956 67.348,335.767 67.200,335.424 67.200 C 335.081 67.200,334.800 66.930,334.800 66.600 C 334.800 66.270,334.519 66.000,334.176 66.000 C 333.833 66.000,333.664 65.820,333.800 65.600 C 333.936 65.380,333.767 65.200,333.424 65.200 C 333.081 65.200,332.800 64.930,332.800 64.600 C 332.800 64.270,332.622 64.000,332.405 64.000 C 331.781 64.000,330.418 62.694,330.650 62.319 C 330.765 62.133,330.705 62.030,330.517 62.090 C 330.092 62.226,327.600 59.725,327.600 59.163 C 327.600 58.937,327.452 58.844,327.271 58.956 C 326.904 59.183,325.600 57.810,325.600 57.195 C 325.600 56.978,325.426 56.800,325.214 56.800 C 324.691 56.800,322.400 54.531,322.400 54.013 C 322.400 53.786,322.130 53.600,321.800 53.600 C 321.470 53.600,321.200 53.407,321.200 53.171 C 321.200 52.740,320.227 51.600,319.859 51.600 C 319.504 51.600,317.200 49.148,317.200 48.769 C 317.200 48.566,316.930 48.400,316.600 48.400 C 316.270 48.400,316.000 48.136,316.000 47.813 C 316.000 47.455,315.765 47.315,315.400 47.455 C 315.020 47.601,314.800 47.450,314.800 47.043 C 314.800 46.689,314.650 46.400,314.468 46.400 C 314.285 46.400,313.894 45.950,313.600 45.400 C 313.306 44.850,312.825 44.400,312.532 44.400 C 312.240 44.400,312.000 44.130,312.000 43.800 C 312.000 43.470,311.749 43.200,311.443 43.200 C 311.136 43.200,310.778 42.919,310.646 42.575 C 310.511 42.225,310.201 42.076,309.941 42.236 C 309.674 42.402,309.584 42.350,309.729 42.115 C 309.868 41.890,309.450 41.298,308.800 40.800 C 308.150 40.302,307.715 39.738,307.833 39.547 C 307.951 39.356,307.767 39.200,307.424 39.200 C 307.081 39.200,306.800 38.930,306.800 38.600 C 306.800 38.270,306.626 38.000,306.414 38.000 C 305.937 38.000,303.369 35.523,303.481 35.171 C 303.525 35.030,303.120 34.678,302.581 34.390 C 302.041 34.101,301.600 33.625,301.600 33.332 C 301.600 33.040,301.422 32.800,301.205 32.800 C 300.590 32.800,299.217 31.496,299.444 31.129 C 299.556 30.948,299.367 30.800,299.024 30.800 C 298.681 30.800,298.400 30.530,298.400 30.200 C 298.400 29.870,298.207 29.600,297.971 29.600 C 297.418 29.600,296.400 28.582,296.400 28.029 C 296.400 27.793,296.160 27.600,295.868 27.600 C 295.575 27.600,295.094 27.150,294.800 26.600 C 294.506 26.050,294.025 25.600,293.732 25.600 C 293.440 25.600,293.200 25.330,293.200 25.000 C 293.200 24.670,293.007 24.400,292.771 24.400 C 292.218 24.400,291.200 23.382,291.200 22.829 C 291.200 22.593,290.930 22.400,290.600 22.400 C 290.270 22.400,290.000 22.119,290.000 21.776 C 290.000 21.433,289.820 21.264,289.600 21.400 C 289.380 21.536,289.200 21.367,289.200 21.024 C 289.200 20.681,288.930 20.400,288.600 20.400 C 288.270 20.400,288.000 20.130,288.000 19.800 C 288.000 19.470,287.865 19.242,287.700 19.293 C 287.234 19.437,285.616 17.898,285.844 17.529 C 285.956 17.348,285.767 17.200,285.424 17.200 C 285.081 17.200,284.800 16.930,284.800 16.600 C 284.800 16.270,284.575 16.045,284.300 16.100 C 284.025 16.155,283.845 15.975,283.900 15.700 C 283.955 15.425,283.730 15.200,283.400 15.200 C 283.070 15.200,282.800 14.930,282.800 14.600 C 282.800 14.270,282.622 14.000,282.405 14.000 C 281.790 14.000,280.417 12.696,280.644 12.329 C 280.756 12.148,280.567 12.000,280.224 12.000 C 279.881 12.000,279.600 11.760,279.600 11.468 C 279.600 11.175,279.150 10.694,278.600 10.400 C 278.050 10.106,277.600 9.625,277.600 9.332 C 277.600 9.040,277.407 8.800,277.171 8.800 C 276.618 8.800,275.600 7.782,275.600 7.229 C 275.600 6.993,275.330 6.800,275.000 6.800 C 274.670 6.800,274.400 6.530,274.400 6.200 C 274.400 5.870,274.207 5.600,273.971 5.600 C 273.418 5.600,272.400 4.582,272.400 4.029 C 272.400 3.793,272.214 3.600,271.987 3.600 C 271.456 3.600,269.200 1.303,269.200 0.763 C 269.200 0.537,269.020 0.464,268.800 0.600 C 268.580 0.736,268.400 0.657,268.400 0.424 C 268.400 0.191,267.951 -0.000,267.402 -0.000 L 266.405 -0.000 266.302 66.620 M283.000 267.600 C 283.136 267.820,284.317 268.000,285.624 268.000 C 287.469 268.000,288.000 268.134,288.000 268.600 C 288.000 268.999,288.399 269.200,289.187 269.200 C 290.041 269.200,290.314 269.357,290.160 269.760 C 290.041 270.070,290.181 270.310,290.473 270.297 C 291.772 270.240,292.428 270.431,292.200 270.800 C 292.064 271.020,292.233 271.200,292.576 271.200 C 292.919 271.200,293.200 271.470,293.200 271.800 C 293.200 272.130,293.378 272.400,293.595 272.400 C 294.210 272.400,295.583 273.704,295.356 274.071 C 295.244 274.252,295.433 274.400,295.776 274.400 C 296.175 274.400,296.400 274.761,296.400 275.400 C 296.400 275.950,296.580 276.400,296.800 276.400 C 297.020 276.400,297.200 276.766,297.200 277.213 C 297.200 277.659,297.470 278.129,297.800 278.255 C 298.286 278.442,298.400 279.378,298.400 283.200 C 298.400 287.022,298.286 287.958,297.800 288.145 C 297.470 288.271,297.200 288.741,297.200 289.187 C 297.200 289.634,297.020 290.000,296.800 290.000 C 296.580 290.000,296.400 290.356,296.400 290.791 C 296.400 291.226,295.431 292.567,294.246 293.771 C 293.062 294.974,292.192 296.058,292.313 296.180 C 292.434 296.301,291.963 296.400,291.267 296.400 C 290.570 296.400,290.000 296.580,290.000 296.800 C 290.000 297.020,289.659 297.200,289.243 297.200 C 288.826 297.200,288.382 297.470,288.255 297.800 C 288.083 298.249,287.366 298.400,285.413 298.400 C 283.357 298.400,282.800 298.528,282.800 299.000 C 282.800 299.531,273.333 299.600,200.000 299.600 C 126.667 299.600,117.200 299.531,117.200 299.000 C 117.200 298.528,116.643 298.400,114.587 298.400 C 112.634 298.400,111.917 298.249,111.745 297.800 C 111.618 297.470,111.174 297.200,110.757 297.200 C 110.341 297.200,110.000 297.020,110.000 296.800 C 110.000 296.580,109.430 296.400,108.733 296.400 C 108.037 296.400,107.566 296.301,107.687 296.180 C 107.808 296.058,106.938 294.974,105.754 293.771 C 104.569 292.567,103.600 291.226,103.600 290.791 C 103.600 290.356,103.420 290.000,103.200 290.000 C 102.980 290.000,102.800 289.634,102.800 289.187 C 102.800 288.741,102.530 288.271,102.200 288.145 C 101.714 287.958,101.600 287.022,101.600 283.200 C 101.600 279.378,101.714 278.442,102.200 278.255 C 102.530 278.129,102.800 277.659,102.800 277.213 C 102.800 276.766,102.980 276.400,103.200 276.400 C 103.420 276.400,103.600 275.950,103.600 275.400 C 103.600 274.761,103.825 274.400,104.224 274.400 C 104.567 274.400,104.756 274.252,104.644 274.071 C 104.417 273.704,105.790 272.400,106.405 272.400 C 106.622 272.400,106.800 272.130,106.800 271.800 C 106.800 271.470,107.081 271.200,107.424 271.200 C 107.767 271.200,107.936 271.020,107.800 270.800 C 107.572 270.431,108.228 270.240,109.527 270.297 C 109.819 270.310,109.959 270.070,109.840 269.760 C 109.686 269.357,109.959 269.200,110.813 269.200 C 111.601 269.200,112.000 268.999,112.000 268.600 C 112.000 268.134,112.531 268.000,114.376 268.000 C 115.683 268.000,116.864 267.820,117.000 267.600 C 117.164 267.335,145.263 267.200,200.000 267.200 C 254.737 267.200,282.836 267.335,283.000 267.600 M282.945 334.200 C 283.114 334.641,283.810 334.800,285.568 334.800 C 287.044 334.800,288.083 334.991,288.280 335.300 C 288.456 335.575,288.960 335.800,289.400 335.800 C 289.840 335.800,290.155 336.025,290.100 336.300 C 290.037 336.616,290.467 336.800,291.267 336.800 C 291.963 336.800,292.428 336.905,292.300 337.033 C 292.015 337.318,293.442 338.800,294.000 338.800 C 294.220 338.800,294.400 339.070,294.400 339.400 C 294.400 339.730,294.580 340.000,294.800 340.000 C 295.020 340.000,295.200 340.289,295.200 340.643 C 295.200 341.050,295.420 341.201,295.800 341.055 C 296.250 340.883,296.400 341.121,296.400 342.013 C 296.400 342.666,296.580 343.200,296.800 343.200 C 297.020 343.200,297.200 343.566,297.200 344.013 C 297.200 344.459,297.470 344.929,297.800 345.055 C 298.286 345.242,298.400 346.178,298.400 350.000 C 298.400 353.822,298.286 354.758,297.800 354.945 C 297.470 355.071,297.200 355.541,297.200 355.987 C 297.200 356.434,297.020 356.800,296.800 356.800 C 296.580 356.800,296.400 357.250,296.400 357.800 C 296.400 358.422,296.173 358.800,295.800 358.800 C 295.470 358.800,295.245 358.941,295.300 359.113 C 295.424 359.501,292.912 362.000,292.399 362.000 C 292.193 362.000,292.117 362.240,292.230 362.533 C 292.382 362.931,292.108 363.019,291.153 362.878 C 290.091 362.723,289.915 362.802,290.124 363.345 C 290.322 363.861,290.123 364.000,289.187 364.000 C 288.399 364.000,288.000 364.201,288.000 364.600 C 288.000 365.072,287.444 365.200,285.400 365.200 C 283.933 365.200,282.800 365.374,282.800 365.600 C 282.800 365.865,254.933 366.000,200.000 366.000 C 145.067 366.000,117.200 365.865,117.200 365.600 C 117.200 365.374,116.067 365.200,114.600 365.200 C 112.556 365.200,112.000 365.072,112.000 364.600 C 112.000 364.201,111.601 364.000,110.813 364.000 C 109.877 364.000,109.678 363.861,109.876 363.345 C 110.085 362.802,109.909 362.723,108.847 362.878 C 107.892 363.019,107.618 362.931,107.770 362.533 C 107.883 362.240,107.807 362.000,107.601 362.000 C 107.088 362.000,104.576 359.501,104.700 359.113 C 104.755 358.941,104.530 358.800,104.200 358.800 C 103.827 358.800,103.600 358.422,103.600 357.800 C 103.600 357.250,103.420 356.800,103.200 356.800 C 102.980 356.800,102.800 356.434,102.800 355.987 C 102.800 355.541,102.530 355.071,102.200 354.945 C 101.714 354.758,101.600 353.822,101.600 350.000 C 101.600 346.178,101.714 345.242,102.200 345.055 C 102.530 344.929,102.800 344.459,102.800 344.013 C 102.800 343.566,102.980 343.200,103.200 343.200 C 103.420 343.200,103.600 342.666,103.600 342.013 C 103.600 341.121,103.750 340.883,104.200 341.055 C 104.580 341.201,104.800 341.050,104.800 340.643 C 104.800 340.289,104.980 340.000,105.200 340.000 C 105.420 340.000,105.600 339.730,105.600 339.400 C 105.600 339.070,105.780 338.800,106.000 338.800 C 106.558 338.800,107.985 337.318,107.700 337.033 C 107.572 336.905,108.037 336.800,108.733 336.800 C 109.533 336.800,109.963 336.616,109.900 336.300 C 109.845 336.025,110.160 335.800,110.600 335.800 C 111.040 335.800,111.544 335.575,111.720 335.300 C 111.917 334.991,112.956 334.800,114.432 334.800 C 116.190 334.800,116.886 334.641,117.055 334.200 C 117.406 333.287,282.594 333.287,282.945 334.200 M283.055 401.000 C 283.224 401.438,283.914 401.600,285.619 401.600 C 286.903 401.600,288.064 401.780,288.200 402.000 C 288.336 402.220,288.802 402.400,289.236 402.400 C 289.670 402.400,290.129 402.670,290.255 403.000 C 290.382 403.330,290.927 403.600,291.466 403.600 C 292.018 403.600,292.339 403.775,292.200 404.000 C 292.064 404.220,292.135 404.400,292.358 404.400 C 293.070 404.400,296.400 408.061,296.400 408.845 C 296.400 409.260,296.580 409.600,296.800 409.600 C 297.020 409.600,297.200 409.947,297.200 410.371 C 297.200 410.796,297.470 411.413,297.800 411.743 C 298.260 412.203,298.400 413.363,298.400 416.729 C 298.400 420.258,298.283 421.159,297.800 421.345 C 297.470 421.471,297.200 421.941,297.200 422.387 C 297.200 422.834,297.020 423.200,296.800 423.200 C 296.580 423.200,296.400 423.740,296.400 424.400 C 296.400 425.220,296.203 425.600,295.776 425.600 C 295.433 425.600,295.264 425.780,295.400 426.000 C 295.536 426.220,295.367 426.400,295.024 426.400 C 294.681 426.400,294.399 426.625,294.399 426.900 C 294.398 427.175,293.871 427.753,293.227 428.184 C 292.584 428.615,292.145 429.110,292.252 429.284 C 292.359 429.458,291.897 429.600,291.224 429.600 C 290.403 429.600,290.000 429.797,290.000 430.200 C 290.000 430.530,289.651 430.800,289.224 430.800 C 288.797 430.800,288.336 430.980,288.200 431.200 C 288.064 431.420,286.986 431.600,285.805 431.600 C 284.429 431.600,283.441 431.816,283.057 432.200 C 282.528 432.729,272.762 432.800,200.000 432.800 C 127.238 432.800,117.472 432.729,116.943 432.200 C 116.559 431.816,115.571 431.600,114.195 431.600 C 113.014 431.600,111.936 431.420,111.800 431.200 C 111.664 430.980,111.203 430.800,110.776 430.800 C 110.349 430.800,110.000 430.530,110.000 430.200 C 110.000 429.797,109.597 429.600,108.776 429.600 C 108.103 429.600,107.641 429.458,107.748 429.284 C 107.855 429.110,107.416 428.615,106.773 428.184 C 106.129 427.753,105.602 427.252,105.601 427.071 C 105.599 426.598,104.533 425.600,104.029 425.600 C 103.793 425.600,103.600 425.060,103.600 424.400 C 103.600 423.740,103.420 423.200,103.200 423.200 C 102.980 423.200,102.800 422.834,102.800 422.387 C 102.800 421.941,102.530 421.471,102.200 421.345 C 101.717 421.159,101.600 420.258,101.600 416.729 C 101.600 413.363,101.740 412.203,102.200 411.743 C 102.530 411.413,102.800 410.796,102.800 410.371 C 102.800 409.947,102.980 409.600,103.200 409.600 C 103.420 409.600,103.600 409.150,103.600 408.600 C 103.600 407.978,103.827 407.600,104.200 407.600 C 104.530 407.600,104.800 407.460,104.800 407.289 C 104.800 406.787,107.114 404.400,107.601 404.400 C 107.846 404.400,107.936 404.220,107.800 404.000 C 107.661 403.775,107.982 403.600,108.534 403.600 C 109.073 403.600,109.618 403.330,109.745 403.000 C 109.871 402.670,110.330 402.400,110.764 402.400 C 111.198 402.400,111.664 402.220,111.800 402.000 C 111.936 401.780,113.097 401.600,114.381 401.600 C 116.086 401.600,116.776 401.438,116.945 401.000 C 117.148 400.469,126.747 400.400,200.000 400.400 C 273.253 400.400,282.852 400.469,283.055 401.000 " stroke="none" fill="#4c5c8c" fill-rule="evenodd"></path><path id="path1" d="M233.795 66.400 C 233.795 103.030,233.842 118.015,233.900 99.700 C 233.958 81.385,233.958 51.415,233.900 33.100 C 233.842 14.785,233.795 29.770,233.795 66.400 M266.195 66.400 C 266.195 103.030,266.242 118.015,266.300 99.700 C 266.358 81.385,266.358 51.415,266.300 33.100 C 266.242 14.785,266.195 29.770,266.195 66.400 " stroke="none" fill="#505c8c" fill-rule="evenodd"></path><path id="path2" d="M233.795 66.400 C 233.795 103.030,233.842 118.015,233.900 99.700 C 233.958 81.385,233.958 51.415,233.900 33.100 C 233.842 14.785,233.795 29.770,233.795 66.400 M266.195 66.400 C 266.195 103.030,266.242 118.015,266.300 99.700 C 266.358 81.385,266.358 51.415,266.300 33.100 C 266.242 14.785,266.195 29.770,266.195 66.400 " stroke="none" fill="#505c8c" fill-rule="evenodd"></path><path id="path3" d="M233.795 66.400 C 233.795 103.030,233.842 118.015,233.900 99.700 C 233.958 81.385,233.958 51.415,233.900 33.100 C 233.842 14.785,233.795 29.770,233.795 66.400 M266.195 66.400 C 266.195 103.030,266.242 118.015,266.300 99.700 C 266.358 81.385,266.358 51.415,266.300 33.100 C 266.242 14.785,266.195 29.770,266.195 66.400 " stroke="none" fill="#505c8c" fill-rule="evenodd"></path><path id="path4" d="M233.795 66.400 C 233.795 103.030,233.842 118.015,233.900 99.700 C 233.958 81.385,233.958 51.415,233.900 33.100 C 233.842 14.785,233.795 29.770,233.795 66.400 M266.195 66.400 C 266.195 103.030,266.242 118.015,266.300 99.700 C 266.358 81.385,266.358 51.415,266.300 33.100 C 266.242 14.785,266.195 29.770,266.195 66.400 " stroke="none" fill="#505c8c" fill-rule="evenodd"></path></g></svg>