 <svg  version="1.0" xmlns="http://www.w3.org/2000/svg"  width="300.000000pt" height="300.000000pt" viewBox="0 0 300.000000 300.000000"  preserveAspectRatio="xMidYMid meet">  <g transform="translate(0.000000,300.000000) scale(0.100000,-0.100000)" fill="#ffd700" stroke="none"> <path d="M1330 2994 c-73 -10 -230 -45 -306 -70 -143 -46 -354 -161 -471 -256 -36 -29 -192 -185 -221 -221 -97 -120 -208 -323 -256 -471 -57 -177 -70 -266 -70 -476 0 -210 13 -298 70 -476 46 -143 161 -354 256 -471 29 -36 185 -192 221 -221 117 -95 326 -209 471 -256 176 -57 266 -70 476 -70 210 0 299 13 476 70 148 48 351 159 471 256 36 29 192 185 221 221 97 120 208 323 256 471 57 177 70 266 70 476 0 210 -13 300 -70 476 -47 145 -161 354 -256 471 -29 36 -185 192 -221 221 -118 96 -329 210 -472 256 -161 52 -259 68 -440 71 -93 2 -186 1 -205 -1z m-102 -967 c23 -15 48 -44 61 -69 20 -43 21 -57 21 -458 0 -401 -1 -415 -21 -458 -32 -64 -86 -97 -164 -97 -78 0 -132 33 -164 98 -21 44 -22 52 -19 469 l3 424 27 41 c55 84 171 107 256 50z m750 0 c23 -15 48 -44 61 -69 20 -43 21 -57 21 -458 0 -401 -1 -415 -21 -458 -32 -64 -86 -97 -164 -97 -78 0 -132 33 -164 98 -21 44 -22 52 -19 469 l3 424 27 41 c55 84 171 107 256 50z"/> </g> </svg> 