 <svg  version="1.0" xmlns="http://www.w3.org/2000/svg"  width="300.000000pt" height="300.000000pt" viewBox="0 0 300.000000 300.000000"  preserveAspectRatio="xMidYMid meet">  <g transform="translate(0.000000,300.000000) scale(0.100000,-0.100000)" fill="#325096" stroke="none"> <path d="M1355 2994 c-429 -65 -763 -302 -949 -671 -40 -81 -77 -189 -102 -298 -26 -112 -26 -377 0 -490 117 -514 503 -878 1018 -960 385 -61 798 83 1068 372 153 163 254 358 306 588 26 112 26 379 1 485 -56 235 -128 384 -267 550 -113 136 -314 283 -465 339 -33 13 -70 27 -83 32 -73 29 -216 51 -352 54 -80 2 -158 1 -175 -1z m203 -554 c34 -21 62 -72 62 -114 0 -21 6 -25 47 -31 111 -16 153 -52 153 -129 0 -36 -6 -52 -29 -78 -26 -29 -35 -33 -78 -32 -26 0 -72 5 -102 12 -83 19 -190 15 -231 -7 -41 -21 -52 -62 -24 -92 9 -10 87 -41 175 -70 274 -88 359 -168 359 -337 0 -147 -72 -245 -213 -293 -49 -16 -53 -20 -64 -64 -14 -57 -34 -81 -79 -95 -70 -24 -137 23 -149 104 l-7 43 -105 33 c-57 18 -115 42 -128 52 -54 42 -53 135 2 178 36 28 93 25 199 -10 111 -38 224 -43 276 -13 28 16 34 26 36 60 4 53 -5 58 -204 125 -180 60 -256 104 -306 176 -29 42 -32 56 -36 132 -4 77 -2 91 21 136 14 27 43 66 64 86 38 37 133 88 164 88 12 0 18 12 22 42 13 98 98 145 175 98z"/> <path d="M187 923 c-67 -20 -148 -101 -171 -170 -15 -45 -17 -87 -14 -305 3 -237 4 -255 25 -293 25 -47 84 -105 133 -131 34 -18 87 -19 1340 -19 l1305 0 40 22 c47 25 105 84 131 133 17 31 19 64 22 288 4 304 -1 327 -84 409 -62 60 -125 83 -226 83 l-63 0 -66 -78 c-72 -84 -199 -196 -293 -258 l-59 -39 212 -3 212 -2 -3 -93 -3 -92 -1125 0 -1125 0 -3 92 -3 93 212 2 212 3 -59 39 c-94 62 -221 174 -293 258 l-66 78 -70 -1 c-38 -1 -91 -8 -118 -16z"/> </g> </svg> 
