 <svg  version="1.0" xmlns="http://www.w3.org/2000/svg"  width="300.000000pt" height="300.000000pt" viewBox="0 0 300.000000 300.000000"  preserveAspectRatio="xMidYMid meet">  <g transform="translate(0.000000,300.000000) scale(0.100000,-0.100000)" fill="#00b000" stroke="none"> <path d="M1330 2994 c-73 -10 -230 -45 -306 -70 -143 -46 -354 -161 -471 -256 -36 -29 -192 -185 -221 -221 -97 -120 -208 -323 -256 -471 -57 -177 -70 -266 -70 -476 0 -210 13 -298 70 -476 46 -143 161 -354 256 -471 29 -36 185 -192 221 -221 117 -95 326 -209 471 -256 176 -57 266 -70 476 -70 210 0 299 13 476 70 148 48 351 159 471 256 36 29 192 185 221 221 97 120 208 323 256 471 57 177 70 266 70 476 0 210 -13 300 -70 476 -47 145 -161 354 -256 471 -29 36 -185 192 -221 221 -118 96 -329 210 -472 256 -161 52 -259 68 -440 71 -93 2 -186 1 -205 -1z m-55 -879 c28 -17 57 -34 65 -38 8 -4 47 -27 85 -52 39 -25 86 -54 105 -65 19 -11 42 -25 50 -30 8 -5 130 -80 270 -166 140 -85 263 -165 272 -177 27 -34 38 -82 27 -121 -9 -32 -89 -116 -110 -116 -5 0 -51 -26 -101 -59 -129 -81 -633 -389 -685 -417 -63 -36 -124 -33 -169 9 -22 20 -38 47 -44 72 -12 51 -12 1038 -1 1089 17 71 87 120 156 108 17 -3 53 -19 80 -37z"/> </g> </svg> 