<svg id="svg" version="1.1" xmlns="http://www.w3.org/2000/svg" xmlns:xlink="http://www.w3.org/1999/xlink" width="400" height="400" viewBox="0, 0, 400,400"><g id="svgg"><path id="path0" d="M178.300 0.275 C 176.375 0.361,174.800 0.604,174.800 0.816 C 174.800 1.029,173.380 1.200,171.600 1.200 C 169.733 1.200,168.400 1.367,168.400 1.600 C 168.400 1.820,167.500 2.000,166.400 2.000 C 165.300 2.000,164.400 2.180,164.400 2.400 C 164.400 2.623,163.325 2.800,161.976 2.800 C 160.463 2.800,159.646 2.950,159.800 3.200 C 159.952 3.447,159.271 3.600,158.024 3.600 C 156.911 3.600,156.000 3.780,156.000 4.000 C 156.000 4.220,155.280 4.400,154.400 4.400 C 153.520 4.400,152.800 4.580,152.800 4.800 C 152.800 5.020,152.080 5.200,151.200 5.200 C 150.320 5.200,149.600 5.380,149.600 5.600 C 149.600 5.820,148.880 6.000,148.000 6.000 C 147.120 6.000,146.400 6.180,146.400 6.400 C 146.400 6.620,145.961 6.800,145.424 6.800 C 144.887 6.800,144.336 6.980,144.200 7.200 C 144.064 7.420,143.333 7.600,142.576 7.600 C 141.819 7.600,141.200 7.757,141.200 7.948 C 141.200 8.140,140.284 8.418,139.165 8.567 C 138.046 8.715,136.831 9.000,136.465 9.200 C 135.397 9.782,131.008 11.200,130.273 11.200 C 129.903 11.200,129.600 11.380,129.600 11.600 C 129.600 11.820,129.251 12.000,128.824 12.000 C 128.397 12.000,127.936 12.180,127.800 12.400 C 127.664 12.620,127.113 12.800,126.576 12.800 C 126.039 12.800,125.599 12.935,125.597 13.100 C 125.593 13.456,123.659 14.400,122.932 14.400 C 122.653 14.400,121.783 14.760,121.000 15.200 C 120.217 15.640,119.311 16.000,118.988 16.000 C 118.665 16.000,118.400 16.180,118.400 16.400 C 118.400 16.620,117.961 16.800,117.424 16.800 C 116.887 16.800,116.336 16.980,116.200 17.200 C 116.064 17.420,115.603 17.600,115.176 17.600 C 114.749 17.600,114.400 17.780,114.400 18.000 C 114.400 18.220,114.029 18.400,113.576 18.400 C 113.123 18.400,112.864 18.580,113.000 18.800 C 113.141 19.028,112.796 19.200,112.200 19.200 C 111.604 19.200,111.259 19.372,111.400 19.600 C 111.541 19.828,111.196 20.000,110.600 20.000 C 110.004 20.000,109.659 20.172,109.800 20.400 C 109.936 20.620,109.677 20.800,109.224 20.800 C 108.771 20.800,108.400 20.980,108.400 21.200 C 108.400 21.420,108.040 21.600,107.600 21.600 C 107.160 21.600,106.800 21.780,106.800 22.000 C 106.800 22.220,106.440 22.400,106.000 22.400 C 105.560 22.400,105.200 22.580,105.200 22.800 C 105.200 23.020,104.880 23.200,104.488 23.200 C 104.097 23.200,103.517 23.560,103.200 24.000 C 102.883 24.440,102.303 24.800,101.912 24.800 C 101.520 24.800,101.200 25.001,101.200 25.247 C 101.200 25.496,100.847 25.601,100.400 25.484 C 99.880 25.348,99.600 25.472,99.600 25.837 C 99.600 26.147,99.262 26.400,98.849 26.400 C 98.436 26.400,97.874 26.670,97.600 27.000 C 97.326 27.330,96.854 27.600,96.551 27.600 C 96.248 27.600,96.000 27.760,96.000 27.957 C 96.000 28.153,95.550 28.426,95.000 28.564 C 94.450 28.702,94.000 29.002,94.000 29.231 C 94.000 29.460,93.820 29.536,93.600 29.400 C 93.380 29.264,93.200 29.343,93.200 29.576 C 93.200 29.809,92.932 30.000,92.603 30.000 C 92.275 30.000,91.782 30.360,91.507 30.800 C 91.232 31.240,90.731 31.600,90.392 31.600 C 90.054 31.600,89.517 31.960,89.200 32.400 C 88.883 32.840,88.343 33.200,88.000 33.200 C 87.657 33.200,87.117 33.560,86.800 34.000 C 86.483 34.440,85.943 34.800,85.600 34.800 C 85.257 34.800,84.717 35.160,84.400 35.600 C 84.083 36.040,83.638 36.401,83.412 36.402 C 83.185 36.403,82.425 36.943,81.722 37.602 C 81.019 38.261,80.255 38.800,80.025 38.800 C 79.795 38.800,79.091 39.340,78.460 40.000 C 77.829 40.660,77.010 41.200,76.638 41.200 C 76.267 41.200,75.656 41.745,75.281 42.411 C 74.907 43.077,74.171 43.733,73.647 43.868 C 73.122 44.003,71.850 44.988,70.820 46.057 C 69.790 47.126,68.730 48.000,68.465 48.000 C 67.885 48.000,60.438 55.505,60.730 55.796 C 60.842 55.908,60.678 56.001,60.367 56.001 C 60.055 56.002,59.457 56.514,59.038 57.139 C 58.619 57.765,57.765 58.619,57.139 59.038 C 56.514 59.457,56.002 60.055,56.001 60.367 C 56.001 60.678,55.908 60.842,55.796 60.730 C 55.505 60.438,48.000 67.885,48.000 68.465 C 48.000 68.730,47.126 69.790,46.057 70.820 C 44.988 71.850,44.003 73.122,43.868 73.647 C 43.733 74.171,43.077 74.907,42.411 75.281 C 41.745 75.656,41.200 76.267,41.200 76.638 C 41.200 77.010,40.660 77.829,40.000 78.460 C 39.340 79.091,38.800 79.795,38.800 80.025 C 38.800 80.255,38.261 81.019,37.602 81.722 C 36.943 82.425,36.403 83.185,36.402 83.412 C 36.401 83.638,36.040 84.083,35.600 84.400 C 35.160 84.717,34.800 85.257,34.800 85.600 C 34.800 85.943,34.440 86.483,34.000 86.800 C 33.560 87.117,33.200 87.657,33.200 88.000 C 33.200 88.343,32.840 88.883,32.400 89.200 C 31.960 89.517,31.600 90.054,31.600 90.392 C 31.600 90.731,31.240 91.232,30.800 91.507 C 30.360 91.782,30.000 92.275,30.000 92.603 C 30.000 92.932,29.809 93.200,29.576 93.200 C 29.343 93.200,29.264 93.380,29.400 93.600 C 29.536 93.820,29.460 94.000,29.231 94.000 C 29.002 94.000,28.702 94.450,28.564 95.000 C 28.426 95.550,28.153 96.000,27.957 96.000 C 27.760 96.000,27.600 96.248,27.600 96.551 C 27.600 96.854,27.330 97.326,27.000 97.600 C 26.670 97.874,26.400 98.436,26.400 98.849 C 26.400 99.262,26.147 99.600,25.837 99.600 C 25.472 99.600,25.348 99.880,25.484 100.400 C 25.601 100.847,25.496 101.200,25.247 101.200 C 25.001 101.200,24.800 101.520,24.800 101.912 C 24.800 102.303,24.440 102.883,24.000 103.200 C 23.560 103.517,23.200 104.097,23.200 104.488 C 23.200 104.880,23.020 105.200,22.800 105.200 C 22.580 105.200,22.400 105.560,22.400 106.000 C 22.400 106.440,22.220 106.800,22.000 106.800 C 21.780 106.800,21.600 107.160,21.600 107.600 C 21.600 108.040,21.420 108.400,21.200 108.400 C 20.980 108.400,20.800 108.771,20.800 109.224 C 20.800 109.677,20.620 109.936,20.400 109.800 C 20.172 109.659,20.000 110.004,20.000 110.600 C 20.000 111.196,19.828 111.541,19.600 111.400 C 19.372 111.259,19.200 111.604,19.200 112.200 C 19.200 112.796,19.028 113.141,18.800 113.000 C 18.580 112.864,18.400 113.123,18.400 113.576 C 18.400 114.029,18.220 114.400,18.000 114.400 C 17.780 114.400,17.600 114.749,17.600 115.176 C 17.600 115.603,17.420 116.064,17.200 116.200 C 16.980 116.336,16.800 116.887,16.800 117.424 C 16.800 117.961,16.620 118.400,16.400 118.400 C 16.180 118.400,16.000 118.665,16.000 118.988 C 16.000 119.311,15.640 120.217,15.200 121.000 C 14.760 121.783,14.400 122.653,14.400 122.932 C 14.400 123.659,13.456 125.593,13.100 125.597 C 12.935 125.599,12.800 126.039,12.800 126.576 C 12.800 127.113,12.620 127.664,12.400 127.800 C 12.180 127.936,12.000 128.397,12.000 128.824 C 12.000 129.251,11.820 129.600,11.600 129.600 C 11.380 129.600,11.200 129.903,11.200 130.273 C 11.200 131.008,9.782 135.397,9.200 136.465 C 9.000 136.831,8.715 138.046,8.567 139.165 C 8.418 140.284,8.140 141.200,7.948 141.200 C 7.757 141.200,7.600 141.819,7.600 142.576 C 7.600 143.333,7.420 144.064,7.200 144.200 C 6.980 144.336,6.800 144.887,6.800 145.424 C 6.800 145.961,6.620 146.400,6.400 146.400 C 6.180 146.400,6.000 147.120,6.000 148.000 C 6.000 148.880,5.820 149.600,5.600 149.600 C 5.380 149.600,5.200 150.320,5.200 151.200 C 5.200 152.080,5.020 152.800,4.800 152.800 C 4.580 152.800,4.400 153.520,4.400 154.400 C 4.400 155.280,4.220 156.000,4.000 156.000 C 3.780 156.000,3.600 156.911,3.600 158.024 C 3.600 159.271,3.447 159.952,3.200 159.800 C 2.954 159.648,2.800 160.321,2.800 161.553 C 2.800 162.653,2.620 163.664,2.400 163.800 C 2.180 163.936,2.000 165.027,2.000 166.224 C 2.000 167.421,1.820 168.400,1.600 168.400 C 1.372 168.400,1.200 169.589,1.200 171.167 C 1.200 173.024,1.036 173.988,0.700 174.100 C 0.307 174.231,0.200 179.689,0.200 199.600 C 0.200 219.511,0.307 224.969,0.700 225.100 C 1.044 225.215,1.200 226.256,1.200 228.433 C 1.200 230.278,1.367 231.600,1.600 231.600 C 1.820 231.600,2.000 232.579,2.000 233.776 C 2.000 234.973,2.180 236.064,2.400 236.200 C 2.620 236.336,2.800 237.347,2.800 238.447 C 2.800 239.679,2.954 240.352,3.200 240.200 C 3.447 240.048,3.600 240.729,3.600 241.976 C 3.600 243.089,3.780 244.000,4.000 244.000 C 4.220 244.000,4.400 244.720,4.400 245.600 C 4.400 246.480,4.580 247.200,4.800 247.200 C 5.020 247.200,5.200 247.920,5.200 248.800 C 5.200 249.680,5.380 250.400,5.600 250.400 C 5.820 250.400,6.000 251.120,6.000 252.000 C 6.000 252.880,6.180 253.600,6.400 253.600 C 6.620 253.600,6.800 254.039,6.800 254.576 C 6.800 255.113,6.980 255.664,7.200 255.800 C 7.420 255.936,7.600 256.667,7.600 257.424 C 7.600 258.181,7.757 258.800,7.948 258.800 C 8.140 258.800,8.418 259.716,8.567 260.835 C 8.715 261.954,9.000 263.169,9.200 263.535 C 9.782 264.603,11.200 268.992,11.200 269.727 C 11.200 270.097,11.380 270.400,11.600 270.400 C 11.820 270.400,12.000 270.749,12.000 271.176 C 12.000 271.603,12.180 272.064,12.400 272.200 C 12.620 272.336,12.800 272.887,12.800 273.424 C 12.800 273.961,12.935 274.401,13.100 274.403 C 13.456 274.407,14.400 276.341,14.400 277.068 C 14.400 277.347,14.760 278.217,15.200 279.000 C 15.640 279.783,16.000 280.689,16.000 281.012 C 16.000 281.335,16.180 281.600,16.400 281.600 C 16.620 281.600,16.800 282.039,16.800 282.576 C 16.800 283.113,16.980 283.664,17.200 283.800 C 17.420 283.936,17.600 284.397,17.600 284.824 C 17.600 285.251,17.780 285.600,18.000 285.600 C 18.220 285.600,18.400 285.971,18.400 286.424 C 18.400 286.877,18.580 287.136,18.800 287.000 C 19.028 286.859,19.200 287.204,19.200 287.800 C 19.200 288.396,19.372 288.741,19.600 288.600 C 19.828 288.459,20.000 288.804,20.000 289.400 C 20.000 289.996,20.172 290.341,20.400 290.200 C 20.620 290.064,20.800 290.323,20.800 290.776 C 20.800 291.229,20.980 291.600,21.200 291.600 C 21.420 291.600,21.600 291.960,21.600 292.400 C 21.600 292.840,21.780 293.200,22.000 293.200 C 22.220 293.200,22.400 293.560,22.400 294.000 C 22.400 294.440,22.580 294.800,22.800 294.800 C 23.020 294.800,23.200 295.120,23.200 295.512 C 23.200 295.903,23.560 296.483,24.000 296.800 C 24.440 297.117,24.800 297.697,24.800 298.088 C 24.800 298.480,25.001 298.800,25.247 298.800 C 25.496 298.800,25.601 299.153,25.484 299.600 C 25.348 300.120,25.472 300.400,25.837 300.400 C 26.147 300.400,26.400 300.738,26.400 301.151 C 26.400 301.564,26.670 302.126,27.000 302.400 C 27.330 302.674,27.600 303.146,27.600 303.449 C 27.600 303.752,27.760 304.000,27.957 304.000 C 28.153 304.000,28.426 304.450,28.564 305.000 C 28.702 305.550,29.002 306.000,29.231 306.000 C 29.460 306.000,29.536 306.180,29.400 306.400 C 29.264 306.620,29.343 306.800,29.576 306.800 C 29.809 306.800,30.000 307.068,30.000 307.397 C 30.000 307.725,30.360 308.218,30.800 308.493 C 31.240 308.768,31.600 309.269,31.600 309.608 C 31.600 309.946,31.960 310.483,32.400 310.800 C 32.840 311.117,33.200 311.657,33.200 312.000 C 33.200 312.343,33.560 312.883,34.000 313.200 C 34.440 313.517,34.800 314.057,34.800 314.400 C 34.800 314.743,35.160 315.283,35.600 315.600 C 36.040 315.917,36.401 316.362,36.402 316.588 C 36.403 316.815,36.943 317.575,37.602 318.278 C 38.261 318.981,38.800 319.745,38.800 319.975 C 38.800 320.205,39.340 320.909,40.000 321.540 C 40.660 322.171,41.200 322.990,41.200 323.362 C 41.200 323.733,41.745 324.344,42.411 324.719 C 43.077 325.093,43.733 325.829,43.868 326.353 C 44.003 326.878,44.988 328.150,46.057 329.180 C 47.126 330.210,48.000 331.270,48.000 331.535 C 48.000 332.115,55.505 339.562,55.796 339.270 C 55.908 339.158,56.001 339.322,56.001 339.633 C 56.002 339.945,56.514 340.543,57.139 340.962 C 57.765 341.381,58.619 342.235,59.038 342.861 C 59.457 343.486,60.055 343.998,60.367 343.999 C 60.678 343.999,60.842 344.092,60.730 344.204 C 60.438 344.495,67.885 352.000,68.465 352.000 C 68.730 352.000,69.790 352.874,70.820 353.943 C 71.850 355.012,73.122 355.997,73.647 356.132 C 74.171 356.267,74.907 356.923,75.281 357.589 C 75.656 358.255,76.267 358.800,76.638 358.800 C 77.010 358.800,77.829 359.340,78.460 360.000 C 79.091 360.660,79.795 361.200,80.025 361.200 C 80.255 361.200,81.019 361.739,81.722 362.398 C 82.425 363.057,83.185 363.597,83.412 363.598 C 83.638 363.599,84.083 363.960,84.400 364.400 C 84.717 364.840,85.257 365.200,85.600 365.200 C 85.943 365.200,86.483 365.560,86.800 366.000 C 87.117 366.440,87.657 366.800,88.000 366.800 C 88.343 366.800,88.883 367.160,89.200 367.600 C 89.517 368.040,90.054 368.400,90.392 368.400 C 90.731 368.400,91.232 368.760,91.507 369.200 C 91.782 369.640,92.275 370.000,92.603 370.000 C 92.932 370.000,93.200 370.191,93.200 370.424 C 93.200 370.657,93.380 370.736,93.600 370.600 C 93.820 370.464,94.000 370.540,94.000 370.769 C 94.000 370.998,94.450 371.298,95.000 371.436 C 95.550 371.574,96.000 371.847,96.000 372.043 C 96.000 372.240,96.248 372.400,96.551 372.400 C 96.854 372.400,97.326 372.670,97.600 373.000 C 97.874 373.330,98.436 373.600,98.849 373.600 C 99.262 373.600,99.600 373.853,99.600 374.163 C 99.600 374.528,99.880 374.652,100.400 374.516 C 100.847 374.399,101.200 374.504,101.200 374.753 C 101.200 374.999,101.520 375.200,101.912 375.200 C 102.303 375.200,102.883 375.560,103.200 376.000 C 103.517 376.440,104.097 376.800,104.488 376.800 C 104.880 376.800,105.200 376.980,105.200 377.200 C 105.200 377.420,105.560 377.600,106.000 377.600 C 106.440 377.600,106.800 377.780,106.800 378.000 C 106.800 378.220,107.160 378.400,107.600 378.400 C 108.040 378.400,108.400 378.580,108.400 378.800 C 108.400 379.020,108.771 379.200,109.224 379.200 C 109.677 379.200,109.936 379.380,109.800 379.600 C 109.659 379.828,110.004 380.000,110.600 380.000 C 111.196 380.000,111.541 380.172,111.400 380.400 C 111.259 380.628,111.604 380.800,112.200 380.800 C 112.796 380.800,113.141 380.972,113.000 381.200 C 112.864 381.420,113.123 381.600,113.576 381.600 C 114.029 381.600,114.400 381.780,114.400 382.000 C 114.400 382.220,114.940 382.400,115.600 382.400 C 116.260 382.400,116.800 382.580,116.800 382.800 C 116.800 383.020,117.160 383.200,117.600 383.200 C 118.040 383.200,118.400 383.380,118.400 383.600 C 118.400 383.820,118.665 384.000,118.988 384.000 C 119.311 384.000,120.217 384.360,121.000 384.800 C 121.783 385.240,122.653 385.600,122.932 385.600 C 123.659 385.600,125.593 386.544,125.597 386.900 C 125.599 387.065,126.140 387.200,126.800 387.200 C 127.460 387.200,128.000 387.380,128.000 387.600 C 128.000 387.820,128.360 388.000,128.800 388.000 C 129.240 388.000,129.600 388.180,129.600 388.400 C 129.600 388.620,129.903 388.800,130.273 388.800 C 131.008 388.800,135.397 390.218,136.465 390.800 C 136.831 391.000,138.046 391.285,139.165 391.433 C 140.284 391.582,141.200 391.860,141.200 392.052 C 141.200 392.243,141.819 392.400,142.576 392.400 C 143.333 392.400,144.064 392.580,144.200 392.800 C 144.336 393.020,144.887 393.200,145.424 393.200 C 145.961 393.200,146.400 393.380,146.400 393.600 C 146.400 393.820,147.120 394.000,148.000 394.000 C 148.880 394.000,149.600 394.180,149.600 394.400 C 149.600 394.620,150.320 394.800,151.200 394.800 C 152.080 394.800,152.800 394.980,152.800 395.200 C 152.800 395.420,153.520 395.600,154.400 395.600 C 155.280 395.600,156.000 395.780,156.000 396.000 C 156.000 396.220,156.911 396.400,158.024 396.400 C 159.271 396.400,159.952 396.553,159.800 396.800 C 159.646 397.050,160.463 397.200,161.976 397.200 C 163.325 397.200,164.400 397.377,164.400 397.600 C 164.400 397.820,165.300 398.000,166.400 398.000 C 167.500 398.000,168.400 398.180,168.400 398.400 C 168.400 398.633,169.722 398.800,171.567 398.800 C 173.744 398.800,174.785 398.956,174.900 399.300 C 175.144 400.032,224.856 400.032,225.100 399.300 C 225.215 398.956,226.256 398.800,228.433 398.800 C 230.278 398.800,231.600 398.633,231.600 398.400 C 231.600 398.180,232.579 398.000,233.776 398.000 C 234.973 398.000,236.064 397.820,236.200 397.600 C 236.336 397.380,237.347 397.200,238.447 397.200 C 239.679 397.200,240.352 397.046,240.200 396.800 C 240.048 396.553,240.729 396.400,241.976 396.400 C 243.089 396.400,244.000 396.220,244.000 396.000 C 244.000 395.780,244.720 395.600,245.600 395.600 C 246.480 395.600,247.200 395.420,247.200 395.200 C 247.200 394.980,247.920 394.800,248.800 394.800 C 249.680 394.800,250.400 394.620,250.400 394.400 C 250.400 394.180,251.120 394.000,252.000 394.000 C 252.880 394.000,253.600 393.820,253.600 393.600 C 253.600 393.380,254.039 393.200,254.576 393.200 C 255.113 393.200,255.664 393.020,255.800 392.800 C 255.936 392.580,256.667 392.400,257.424 392.400 C 258.181 392.400,258.800 392.243,258.800 392.052 C 258.800 391.860,259.716 391.582,260.835 391.433 C 261.954 391.285,263.169 391.000,263.535 390.800 C 264.603 390.218,268.992 388.800,269.727 388.800 C 270.097 388.800,270.400 388.620,270.400 388.400 C 270.400 388.180,270.749 388.000,271.176 388.000 C 271.603 388.000,272.064 387.820,272.200 387.600 C 272.336 387.380,272.887 387.200,273.424 387.200 C 273.961 387.200,274.401 387.065,274.403 386.900 C 274.407 386.544,276.341 385.600,277.068 385.600 C 277.347 385.600,278.217 385.240,279.000 384.800 C 279.783 384.360,280.689 384.000,281.012 384.000 C 281.335 384.000,281.600 383.820,281.600 383.600 C 281.600 383.380,282.039 383.200,282.576 383.200 C 283.113 383.200,283.664 383.020,283.800 382.800 C 283.936 382.580,284.397 382.400,284.824 382.400 C 285.251 382.400,285.600 382.220,285.600 382.000 C 285.600 381.780,285.971 381.600,286.424 381.600 C 286.877 381.600,287.136 381.420,287.000 381.200 C 286.859 380.972,287.204 380.800,287.800 380.800 C 288.396 380.800,288.741 380.628,288.600 380.400 C 288.459 380.172,288.804 380.000,289.400 380.000 C 289.996 380.000,290.341 379.828,290.200 379.600 C 290.064 379.380,290.323 379.200,290.776 379.200 C 291.229 379.200,291.600 379.020,291.600 378.800 C 291.600 378.580,291.960 378.400,292.400 378.400 C 292.840 378.400,293.200 378.220,293.200 378.000 C 293.200 377.780,293.560 377.600,294.000 377.600 C 294.440 377.600,294.800 377.420,294.800 377.200 C 294.800 376.980,295.120 376.800,295.512 376.800 C 295.903 376.800,296.483 376.440,296.800 376.000 C 297.117 375.560,297.697 375.200,298.088 375.200 C 298.480 375.200,298.800 374.999,298.800 374.753 C 298.800 374.504,299.153 374.399,299.600 374.516 C 300.120 374.652,300.400 374.528,300.400 374.163 C 300.400 373.853,300.738 373.600,301.151 373.600 C 301.564 373.600,302.126 373.330,302.400 373.000 C 302.674 372.670,303.146 372.400,303.449 372.400 C 303.752 372.400,304.000 372.240,304.000 372.043 C 304.000 371.847,304.450 371.574,305.000 371.436 C 305.550 371.298,306.000 370.998,306.000 370.769 C 306.000 370.540,306.180 370.464,306.400 370.600 C 306.620 370.736,306.800 370.657,306.800 370.424 C 306.800 370.191,307.068 370.000,307.397 370.000 C 307.725 370.000,308.218 369.640,308.493 369.200 C 308.768 368.760,309.269 368.400,309.608 368.400 C 309.946 368.400,310.483 368.040,310.800 367.600 C 311.117 367.160,311.657 366.800,312.000 366.800 C 312.343 366.800,312.883 366.440,313.200 366.000 C 313.517 365.560,314.057 365.200,314.400 365.200 C 314.743 365.200,315.283 364.840,315.600 364.400 C 315.917 363.960,316.362 363.599,316.588 363.598 C 316.815 363.597,317.575 363.057,318.278 362.398 C 318.981 361.739,319.745 361.200,319.975 361.200 C 320.205 361.200,320.909 360.660,321.540 360.000 C 322.171 359.340,322.990 358.800,323.362 358.800 C 323.733 358.800,324.344 358.255,324.719 357.589 C 325.093 356.923,325.829 356.267,326.353 356.132 C 326.878 355.997,328.150 355.012,329.180 353.943 C 330.210 352.874,331.270 352.000,331.535 352.000 C 332.115 352.000,339.562 344.495,339.270 344.204 C 339.158 344.092,339.322 343.999,339.633 343.999 C 339.945 343.998,340.543 343.486,340.962 342.861 C 341.381 342.235,342.235 341.381,342.861 340.962 C 343.486 340.543,343.998 339.945,343.999 339.633 C 343.999 339.322,344.092 339.158,344.204 339.270 C 344.495 339.562,352.000 332.115,352.000 331.535 C 352.000 331.270,352.874 330.210,353.943 329.180 C 355.012 328.150,355.997 326.878,356.132 326.353 C 356.267 325.829,356.923 325.093,357.589 324.719 C 358.255 324.344,358.800 323.733,358.800 323.362 C 358.800 322.990,359.340 322.171,360.000 321.540 C 360.660 320.909,361.200 320.205,361.200 319.975 C 361.200 319.745,361.739 318.981,362.398 318.278 C 363.057 317.575,363.597 316.815,363.598 316.588 C 363.599 316.362,363.960 315.917,364.400 315.600 C 364.840 315.283,365.200 314.743,365.200 314.400 C 365.200 314.057,365.560 313.517,366.000 313.200 C 366.440 312.883,366.800 312.343,366.800 312.000 C 366.800 311.657,367.160 311.117,367.600 310.800 C 368.040 310.483,368.400 309.946,368.400 309.608 C 368.400 309.269,368.760 308.768,369.200 308.493 C 369.640 308.218,370.000 307.725,370.000 307.397 C 370.000 307.068,370.191 306.800,370.424 306.800 C 370.657 306.800,370.736 306.620,370.600 306.400 C 370.464 306.180,370.540 306.000,370.769 306.000 C 370.998 306.000,371.298 305.550,371.436 305.000 C 371.574 304.450,371.847 304.000,372.043 304.000 C 372.240 304.000,372.400 303.752,372.400 303.449 C 372.400 303.146,372.670 302.674,373.000 302.400 C 373.330 302.126,373.600 301.564,373.600 301.151 C 373.600 300.738,373.853 300.400,374.163 300.400 C 374.528 300.400,374.652 300.120,374.516 299.600 C 374.399 299.153,374.504 298.800,374.753 298.800 C 374.999 298.800,375.200 298.480,375.200 298.088 C 375.200 297.697,375.560 297.117,376.000 296.800 C 376.440 296.483,376.800 295.903,376.800 295.512 C 376.800 295.120,376.980 294.800,377.200 294.800 C 377.420 294.800,377.600 294.440,377.600 294.000 C 377.600 293.560,377.780 293.200,378.000 293.200 C 378.220 293.200,378.400 292.840,378.400 292.400 C 378.400 291.960,378.580 291.600,378.800 291.600 C 379.020 291.600,379.200 291.229,379.200 290.776 C 379.200 290.323,379.380 290.064,379.600 290.200 C 379.828 290.341,380.000 289.996,380.000 289.400 C 380.000 288.804,380.172 288.459,380.400 288.600 C 380.628 288.741,380.800 288.396,380.800 287.800 C 380.800 287.204,380.972 286.859,381.200 287.000 C 381.420 287.136,381.600 286.877,381.600 286.424 C 381.600 285.971,381.780 285.600,382.000 285.600 C 382.220 285.600,382.400 285.251,382.400 284.824 C 382.400 284.397,382.580 283.936,382.800 283.800 C 383.020 283.664,383.200 283.113,383.200 282.576 C 383.200 282.039,383.380 281.600,383.600 281.600 C 383.820 281.600,384.000 281.335,384.000 281.012 C 384.000 280.689,384.360 279.783,384.800 279.000 C 385.240 278.217,385.600 277.347,385.600 277.068 C 385.600 276.341,386.544 274.407,386.900 274.403 C 387.065 274.401,387.200 273.961,387.200 273.424 C 387.200 272.887,387.380 272.336,387.600 272.200 C 387.820 272.064,388.000 271.603,388.000 271.176 C 388.000 270.749,388.180 270.400,388.400 270.400 C 388.620 270.400,388.800 270.097,388.800 269.727 C 388.800 268.992,390.218 264.603,390.800 263.535 C 391.000 263.169,391.285 261.954,391.433 260.835 C 391.582 259.716,391.860 258.800,392.052 258.800 C 392.243 258.800,392.400 258.181,392.400 257.424 C 392.400 256.667,392.580 255.936,392.800 255.800 C 393.020 255.664,393.200 255.113,393.200 254.576 C 393.200 254.039,393.380 253.600,393.600 253.600 C 393.820 253.600,394.000 252.880,394.000 252.000 C 394.000 251.120,394.180 250.400,394.400 250.400 C 394.620 250.400,394.800 249.680,394.800 248.800 C 394.800 247.920,394.980 247.200,395.200 247.200 C 395.420 247.200,395.600 246.480,395.600 245.600 C 395.600 244.720,395.780 244.000,396.000 244.000 C 396.220 244.000,396.400 243.089,396.400 241.976 C 396.400 240.729,396.553 240.048,396.800 240.200 C 397.046 240.352,397.200 239.679,397.200 238.447 C 397.200 237.347,397.380 236.336,397.600 236.200 C 397.820 236.064,398.000 234.973,398.000 233.776 C 398.000 232.579,398.180 231.600,398.400 231.600 C 398.633 231.600,398.800 230.278,398.800 228.433 C 398.800 226.256,398.956 225.215,399.300 225.100 C 399.693 224.969,399.800 219.591,399.800 200.000 C 399.800 180.409,399.693 175.031,399.300 174.900 C 398.956 174.785,398.800 173.744,398.800 171.567 C 398.800 169.722,398.633 168.400,398.400 168.400 C 398.180 168.400,398.000 167.421,398.000 166.224 C 398.000 165.027,397.820 163.936,397.600 163.800 C 397.380 163.664,397.200 162.653,397.200 161.553 C 397.200 160.321,397.046 159.648,396.800 159.800 C 396.553 159.952,396.400 159.271,396.400 158.024 C 396.400 156.911,396.220 156.000,396.000 156.000 C 395.780 156.000,395.600 155.280,395.600 154.400 C 395.600 153.520,395.420 152.800,395.200 152.800 C 394.980 152.800,394.800 152.080,394.800 151.200 C 394.800 150.320,394.620 149.600,394.400 149.600 C 394.180 149.600,394.000 148.880,394.000 148.000 C 394.000 147.120,393.820 146.400,393.600 146.400 C 393.380 146.400,393.200 145.961,393.200 145.424 C 393.200 144.887,393.020 144.336,392.800 144.200 C 392.580 144.064,392.400 143.333,392.400 142.576 C 392.400 141.819,392.243 141.200,392.052 141.200 C 391.860 141.200,391.582 140.284,391.433 139.165 C 391.285 138.046,391.000 136.831,390.800 136.465 C 390.218 135.397,388.800 131.008,388.800 130.273 C 388.800 129.903,388.620 129.600,388.400 129.600 C 388.180 129.600,388.000 129.240,388.000 128.800 C 388.000 128.360,387.820 128.000,387.600 128.000 C 387.380 128.000,387.200 127.460,387.200 126.800 C 387.200 126.140,387.065 125.599,386.900 125.597 C 386.544 125.593,385.600 123.659,385.600 122.932 C 385.600 122.653,385.240 121.783,384.800 121.000 C 384.360 120.217,384.000 119.311,384.000 118.988 C 384.000 118.665,383.820 118.400,383.600 118.400 C 383.380 118.400,383.200 118.040,383.200 117.600 C 383.200 117.160,383.020 116.800,382.800 116.800 C 382.580 116.800,382.400 116.260,382.400 115.600 C 382.400 114.940,382.220 114.400,382.000 114.400 C 381.780 114.400,381.600 114.029,381.600 113.576 C 381.600 113.123,381.420 112.864,381.200 113.000 C 380.972 113.141,380.800 112.796,380.800 112.200 C 380.800 111.604,380.628 111.259,380.400 111.400 C 380.172 111.541,380.000 111.196,380.000 110.600 C 380.000 110.004,379.828 109.659,379.600 109.800 C 379.380 109.936,379.200 109.677,379.200 109.224 C 379.200 108.771,379.020 108.400,378.800 108.400 C 378.580 108.400,378.400 108.040,378.400 107.600 C 378.400 107.160,378.220 106.800,378.000 106.800 C 377.780 106.800,377.600 106.440,377.600 106.000 C 377.600 105.560,377.420 105.200,377.200 105.200 C 376.980 105.200,376.800 104.880,376.800 104.488 C 376.800 104.097,376.440 103.517,376.000 103.200 C 375.560 102.883,375.200 102.303,375.200 101.912 C 375.200 101.520,374.999 101.200,374.753 101.200 C 374.504 101.200,374.399 100.847,374.516 100.400 C 374.652 99.880,374.528 99.600,374.163 99.600 C 373.853 99.600,373.600 99.262,373.600 98.849 C 373.600 98.436,373.330 97.874,373.000 97.600 C 372.670 97.326,372.400 96.854,372.400 96.551 C 372.400 96.248,372.240 96.000,372.043 96.000 C 371.847 96.000,371.574 95.550,371.436 95.000 C 371.298 94.450,370.998 94.000,370.769 94.000 C 370.540 94.000,370.464 93.820,370.600 93.600 C 370.736 93.380,370.657 93.200,370.424 93.200 C 370.191 93.200,370.000 92.932,370.000 92.603 C 370.000 92.275,369.640 91.782,369.200 91.507 C 368.760 91.232,368.400 90.731,368.400 90.392 C 368.400 90.054,368.040 89.517,367.600 89.200 C 367.160 88.883,366.800 88.343,366.800 88.000 C 366.800 87.657,366.440 87.117,366.000 86.800 C 365.560 86.483,365.200 85.943,365.200 85.600 C 365.200 85.257,364.840 84.717,364.400 84.400 C 363.960 84.083,363.599 83.638,363.598 83.412 C 363.597 83.185,363.057 82.425,362.398 81.722 C 361.739 81.019,361.200 80.255,361.200 80.025 C 361.200 79.795,360.660 79.091,360.000 78.460 C 359.340 77.829,358.800 77.010,358.800 76.638 C 358.800 76.267,358.255 75.656,357.589 75.281 C 356.923 74.907,356.267 74.171,356.132 73.647 C 355.997 73.122,355.012 71.850,353.943 70.820 C 352.874 69.790,352.000 68.730,352.000 68.465 C 352.000 67.885,344.495 60.438,344.204 60.730 C 344.092 60.842,343.999 60.678,343.999 60.367 C 343.998 60.055,343.486 59.457,342.861 59.038 C 342.235 58.619,341.381 57.765,340.962 57.139 C 340.543 56.514,339.945 56.002,339.633 56.001 C 339.322 56.001,339.158 55.908,339.270 55.796 C 339.562 55.505,332.115 48.000,331.535 48.000 C 331.270 48.000,330.210 47.126,329.180 46.057 C 328.150 44.988,326.878 44.003,326.353 43.868 C 325.829 43.733,325.093 43.077,324.719 42.411 C 324.344 41.745,323.733 41.200,323.362 41.200 C 322.990 41.200,322.171 40.660,321.540 40.000 C 320.909 39.340,320.205 38.800,319.975 38.800 C 319.745 38.800,318.981 38.261,318.278 37.602 C 317.575 36.943,316.815 36.403,316.588 36.402 C 316.362 36.401,315.917 36.040,315.600 35.600 C 315.283 35.160,314.743 34.800,314.400 34.800 C 314.057 34.800,313.517 34.440,313.200 34.000 C 312.883 33.560,312.343 33.200,312.000 33.200 C 311.657 33.200,311.117 32.840,310.800 32.400 C 310.483 31.960,309.946 31.600,309.608 31.600 C 309.269 31.600,308.768 31.240,308.493 30.800 C 308.218 30.360,307.725 30.000,307.397 30.000 C 307.068 30.000,306.800 29.809,306.800 29.576 C 306.800 29.343,306.620 29.264,306.400 29.400 C 306.180 29.536,306.000 29.460,306.000 29.231 C 306.000 29.002,305.550 28.702,305.000 28.564 C 304.450 28.426,304.000 28.153,304.000 27.957 C 304.000 27.760,303.752 27.600,303.449 27.600 C 303.146 27.600,302.674 27.330,302.400 27.000 C 302.126 26.670,301.564 26.400,301.151 26.400 C 300.738 26.400,300.400 26.147,300.400 25.837 C 300.400 25.472,300.120 25.348,299.600 25.484 C 299.153 25.601,298.800 25.496,298.800 25.247 C 298.800 25.001,298.480 24.800,298.088 24.800 C 297.697 24.800,297.117 24.440,296.800 24.000 C 296.483 23.560,295.903 23.200,295.512 23.200 C 295.120 23.200,294.800 23.020,294.800 22.800 C 294.800 22.580,294.440 22.400,294.000 22.400 C 293.560 22.400,293.200 22.220,293.200 22.000 C 293.200 21.780,292.840 21.600,292.400 21.600 C 291.960 21.600,291.600 21.420,291.600 21.200 C 291.600 20.980,291.229 20.800,290.776 20.800 C 290.323 20.800,290.064 20.620,290.200 20.400 C 290.341 20.172,289.996 20.000,289.400 20.000 C 288.804 20.000,288.459 19.828,288.600 19.600 C 288.741 19.372,288.396 19.200,287.800 19.200 C 287.204 19.200,286.859 19.028,287.000 18.800 C 287.136 18.580,286.877 18.400,286.424 18.400 C 285.971 18.400,285.600 18.220,285.600 18.000 C 285.600 17.780,285.251 17.600,284.824 17.600 C 284.397 17.600,283.936 17.420,283.800 17.200 C 283.664 16.980,283.113 16.800,282.576 16.800 C 282.039 16.800,281.600 16.620,281.600 16.400 C 281.600 16.180,281.335 16.000,281.012 16.000 C 280.689 16.000,279.783 15.640,279.000 15.200 C 278.217 14.760,277.347 14.400,277.068 14.400 C 276.341 14.400,274.407 13.456,274.403 13.100 C 274.401 12.935,273.961 12.800,273.424 12.800 C 272.887 12.800,272.336 12.620,272.200 12.400 C 272.064 12.180,271.603 12.000,271.176 12.000 C 270.749 12.000,270.400 11.820,270.400 11.600 C 270.400 11.380,270.097 11.200,269.727 11.200 C 268.992 11.200,264.603 9.782,263.535 9.200 C 263.169 9.000,261.954 8.715,260.835 8.567 C 259.716 8.418,258.800 8.140,258.800 7.948 C 258.800 7.757,258.181 7.600,257.424 7.600 C 256.667 7.600,255.936 7.420,255.800 7.200 C 255.664 6.980,255.113 6.800,254.576 6.800 C 254.039 6.800,253.600 6.620,253.600 6.400 C 253.600 6.180,252.880 6.000,252.000 6.000 C 251.120 6.000,250.400 5.820,250.400 5.600 C 250.400 5.380,249.680 5.200,248.800 5.200 C 247.920 5.200,247.200 5.020,247.200 4.800 C 247.200 4.580,246.480 4.400,245.600 4.400 C 244.720 4.400,244.000 4.220,244.000 4.000 C 244.000 3.780,243.089 3.600,241.976 3.600 C 240.729 3.600,240.048 3.447,240.200 3.200 C 240.352 2.954,239.679 2.800,238.447 2.800 C 237.347 2.800,236.336 2.620,236.200 2.400 C 236.064 2.180,234.973 2.000,233.776 2.000 C 232.579 2.000,231.600 1.820,231.600 1.600 C 231.600 1.367,230.278 1.200,228.433 1.200 C 226.282 1.200,225.214 1.042,225.103 0.708 C 224.941 0.222,187.291 -0.126,178.300 0.275 M157.600 113.200 C 157.600 113.420,158.511 113.600,159.624 113.600 C 160.871 113.600,161.552 113.753,161.400 114.000 C 161.257 114.232,161.642 114.400,162.314 114.400 C 162.968 114.400,163.793 114.750,164.200 115.200 C 164.598 115.640,165.166 116.000,165.462 116.000 C 165.758 116.000,166.000 116.180,166.000 116.400 C 166.000 116.620,166.338 116.800,166.751 116.800 C 167.164 116.800,167.734 117.079,168.016 117.420 C 168.299 117.761,169.320 118.399,170.285 118.839 C 171.250 119.278,172.140 119.900,172.263 120.219 C 172.385 120.539,172.700 120.800,172.963 120.800 C 173.900 120.800,175.605 121.812,175.828 122.500 C 175.952 122.885,176.402 123.200,176.827 123.200 C 177.252 123.200,177.600 123.374,177.600 123.587 C 177.600 123.801,177.861 123.875,178.179 123.753 C 178.498 123.630,179.162 123.906,179.655 124.365 C 180.148 124.824,180.747 125.200,180.987 125.200 C 181.227 125.200,181.683 125.560,182.000 126.000 C 182.317 126.440,182.897 126.800,183.288 126.800 C 183.680 126.800,184.000 126.980,184.000 127.200 C 184.000 127.420,184.320 127.600,184.712 127.600 C 185.103 127.600,185.683 127.960,186.000 128.400 C 186.317 128.840,186.897 129.200,187.288 129.200 C 187.680 129.200,188.000 129.380,188.000 129.600 C 188.000 129.820,188.294 130.000,188.653 130.000 C 189.012 130.000,189.597 130.324,189.953 130.720 C 190.309 131.117,191.286 131.760,192.124 132.151 C 192.962 132.541,193.747 133.117,193.867 133.430 C 193.987 133.744,194.387 134.000,194.754 134.000 C 195.122 134.000,195.683 134.360,196.000 134.800 C 196.317 135.240,196.897 135.600,197.288 135.600 C 197.680 135.600,198.000 135.780,198.000 136.000 C 198.000 136.220,198.358 136.400,198.797 136.400 C 199.235 136.400,199.818 136.760,200.093 137.200 C 200.368 137.640,200.909 138.000,201.296 138.000 C 201.683 138.000,202.000 138.191,202.000 138.424 C 202.000 138.657,202.178 138.737,202.397 138.602 C 202.615 138.467,203.253 138.817,203.815 139.378 C 204.377 139.940,204.948 140.400,205.084 140.400 C 205.666 140.400,208.400 141.782,208.400 142.077 C 208.400 142.255,208.670 142.400,209.000 142.400 C 209.330 142.400,209.600 142.580,209.600 142.800 C 209.600 143.020,209.881 143.200,210.224 143.200 C 210.567 143.200,210.736 143.380,210.600 143.600 C 210.464 143.820,210.606 144.000,210.915 144.000 C 211.798 144.000,214.036 145.229,214.272 145.844 C 214.390 146.150,214.739 146.400,215.048 146.400 C 215.782 146.400,217.222 147.217,218.043 148.100 C 218.401 148.485,218.988 148.800,219.347 148.800 C 219.706 148.800,220.000 148.980,220.000 149.200 C 220.000 149.420,220.320 149.600,220.712 149.600 C 221.103 149.600,221.683 149.960,222.000 150.400 C 222.317 150.840,222.857 151.200,223.200 151.200 C 223.543 151.200,224.083 151.560,224.400 152.000 C 224.717 152.440,225.307 152.800,225.712 152.800 C 226.116 152.800,226.336 152.980,226.200 153.200 C 226.064 153.420,226.296 153.600,226.715 153.600 C 227.135 153.600,227.857 153.929,228.320 154.331 C 228.784 154.733,229.891 155.390,230.782 155.792 C 231.672 156.193,232.400 156.764,232.400 157.061 C 232.400 157.357,232.610 157.600,232.866 157.600 C 233.612 157.600,236.400 158.923,236.400 159.277 C 236.400 159.455,236.720 159.600,237.112 159.600 C 237.503 159.600,238.083 159.960,238.400 160.400 C 238.717 160.840,239.297 161.200,239.688 161.200 C 240.080 161.200,240.400 161.380,240.400 161.600 C 240.400 161.820,240.636 162.000,240.925 162.000 C 241.213 162.000,241.836 162.360,242.308 162.800 C 242.780 163.240,243.444 163.600,243.783 163.600 C 244.122 163.600,244.400 163.780,244.400 164.000 C 244.400 164.220,244.630 164.400,244.912 164.400 C 245.193 164.400,245.683 164.760,246.000 165.200 C 246.317 165.640,246.809 166.000,247.094 166.000 C 247.787 166.000,249.241 166.838,250.043 167.700 C 250.401 168.085,250.948 168.400,251.259 168.400 C 251.569 168.400,252.083 168.760,252.400 169.200 C 252.717 169.640,253.179 170.000,253.427 170.000 C 254.219 170.000,256.451 171.268,256.672 171.844 C 256.790 172.150,257.226 172.400,257.643 172.400 C 258.059 172.400,258.400 172.580,258.400 172.800 C 258.400 173.020,258.720 173.200,259.112 173.200 C 259.503 173.200,260.071 173.544,260.374 173.964 C 260.676 174.384,261.166 174.634,261.462 174.521 C 261.758 174.407,262.000 174.514,262.000 174.757 C 262.000 175.001,262.358 175.200,262.797 175.200 C 263.235 175.200,263.818 175.560,264.093 176.000 C 264.368 176.440,264.869 176.800,265.208 176.800 C 265.546 176.800,266.083 177.160,266.400 177.600 C 266.717 178.040,267.297 178.400,267.688 178.400 C 268.080 178.400,268.400 178.580,268.400 178.800 C 268.400 179.020,268.720 179.200,269.112 179.200 C 269.503 179.200,270.083 179.560,270.400 180.000 C 270.717 180.440,271.297 180.800,271.688 180.800 C 272.080 180.800,272.400 180.980,272.400 181.200 C 272.400 181.420,272.694 181.600,273.053 181.600 C 273.412 181.600,273.999 181.915,274.357 182.300 C 275.205 183.211,276.625 184.000,277.418 184.000 C 277.764 184.000,277.936 184.180,277.800 184.400 C 277.664 184.620,277.790 184.800,278.080 184.800 C 278.370 184.800,278.832 185.160,279.107 185.600 C 279.382 186.040,279.819 186.400,280.078 186.400 C 280.840 186.400,282.400 188.075,282.400 188.893 C 282.400 189.308,282.564 189.546,282.765 189.421 C 282.966 189.297,283.370 189.736,283.663 190.398 C 283.956 191.059,284.331 191.600,284.498 191.600 C 284.664 191.600,284.800 191.960,284.800 192.400 C 284.800 192.840,284.980 193.200,285.200 193.200 C 285.420 193.200,285.600 193.560,285.600 194.000 C 285.600 194.440,285.780 194.800,286.000 194.800 C 286.222 194.800,286.400 195.856,286.400 197.167 C 286.400 198.669,286.583 199.619,286.900 199.767 C 287.300 199.953,287.300 200.047,286.900 200.233 C 286.583 200.381,286.400 201.331,286.400 202.833 C 286.400 204.144,286.222 205.200,286.000 205.200 C 285.780 205.200,285.600 205.560,285.600 206.000 C 285.600 206.440,285.420 206.800,285.200 206.800 C 284.980 206.800,284.800 207.160,284.800 207.600 C 284.800 208.040,284.664 208.400,284.498 208.400 C 284.331 208.400,283.952 208.950,283.654 209.623 C 283.356 210.296,283.024 210.757,282.916 210.649 C 282.695 210.429,278.830 214.432,278.812 214.900 C 278.805 215.065,278.468 215.200,278.062 215.200 C 277.656 215.200,276.998 215.560,276.600 216.000 C 276.202 216.440,275.634 216.800,275.338 216.800 C 275.042 216.800,274.800 216.980,274.800 217.200 C 274.800 217.420,274.480 217.600,274.088 217.600 C 273.697 217.600,273.117 217.960,272.800 218.400 C 272.483 218.840,271.903 219.200,271.512 219.200 C 271.120 219.200,270.800 219.380,270.800 219.600 C 270.800 219.820,270.480 220.000,270.088 220.000 C 269.697 220.000,269.117 220.360,268.800 220.800 C 268.483 221.240,267.903 221.600,267.512 221.600 C 267.120 221.600,266.800 221.780,266.800 222.000 C 266.800 222.220,266.480 222.400,266.088 222.400 C 265.697 222.400,265.117 222.760,264.800 223.200 C 264.483 223.640,263.969 224.000,263.659 224.000 C 263.348 224.000,262.767 224.377,262.368 224.837 C 261.969 225.297,261.472 225.568,261.263 225.439 C 261.055 225.310,260.773 225.492,260.639 225.844 C 260.499 226.208,260.137 226.385,259.797 226.254 C 259.418 226.109,259.200 226.264,259.200 226.679 C 259.200 227.039,259.089 227.222,258.952 227.086 C 258.816 226.950,258.442 227.101,258.120 227.423 C 257.799 227.744,257.370 227.905,257.168 227.780 C 256.965 227.655,256.800 227.743,256.800 227.976 C 256.800 228.209,256.483 228.400,256.096 228.400 C 255.709 228.400,255.168 228.760,254.893 229.200 C 254.618 229.640,254.035 230.000,253.597 230.000 C 253.158 230.000,252.800 230.180,252.800 230.400 C 252.800 230.620,252.564 230.800,252.275 230.800 C 251.987 230.800,251.364 231.160,250.892 231.600 C 250.420 232.040,249.874 232.400,249.679 232.400 C 249.484 232.400,248.998 232.760,248.600 233.200 C 248.202 233.640,247.544 234.000,247.138 234.000 C 246.732 234.000,246.400 234.180,246.400 234.400 C 246.400 234.620,246.052 234.800,245.627 234.800 C 245.202 234.800,244.740 235.160,244.600 235.600 C 244.460 236.040,243.998 236.400,243.573 236.400 C 243.148 236.400,242.800 236.580,242.800 236.800 C 242.800 237.020,242.480 237.200,242.088 237.200 C 241.697 237.200,241.117 237.560,240.800 238.000 C 240.483 238.440,239.903 238.800,239.512 238.800 C 239.120 238.800,238.800 238.980,238.800 239.200 C 238.800 239.420,238.480 239.600,238.088 239.600 C 237.697 239.600,237.117 239.960,236.800 240.400 C 236.483 240.840,235.925 241.200,235.561 241.200 C 235.196 241.200,234.674 241.470,234.400 241.800 C 234.126 242.130,233.564 242.400,233.151 242.400 C 232.738 242.400,232.400 242.670,232.400 243.000 C 232.400 243.333,232.044 243.600,231.600 243.600 C 231.160 243.600,230.800 243.748,230.800 243.930 C 230.800 244.111,229.720 244.758,228.400 245.368 C 227.080 245.977,226.100 246.639,226.223 246.838 C 226.346 247.037,226.077 247.200,225.624 247.200 C 225.171 247.200,224.800 247.380,224.800 247.600 C 224.800 247.820,224.480 248.000,224.088 248.000 C 223.697 248.000,223.117 248.360,222.800 248.800 C 222.483 249.240,221.943 249.600,221.600 249.600 C 221.257 249.600,220.717 249.960,220.400 250.400 C 220.083 250.840,219.503 251.200,219.112 251.200 C 218.720 251.200,218.400 251.380,218.400 251.600 C 218.400 251.820,218.083 252.000,217.696 252.000 C 217.309 252.000,216.768 252.360,216.493 252.800 C 216.218 253.240,215.635 253.600,215.197 253.600 C 214.758 253.600,214.400 253.780,214.400 254.000 C 214.400 254.220,214.083 254.400,213.696 254.400 C 213.309 254.400,212.768 254.760,212.493 255.200 C 212.218 255.640,211.624 256.000,211.173 256.000 C 210.722 256.000,210.464 256.180,210.600 256.400 C 210.736 256.620,210.478 256.800,210.027 256.800 C 209.576 256.800,208.982 257.160,208.707 257.600 C 208.432 258.040,207.913 258.400,207.553 258.400 C 207.193 258.400,206.674 258.670,206.400 259.000 C 206.126 259.330,205.564 259.600,205.151 259.600 C 204.738 259.600,204.400 259.780,204.400 260.000 C 204.400 260.220,204.124 260.400,203.787 260.400 C 203.451 260.400,203.072 260.669,202.946 260.998 C 202.819 261.326,202.555 261.496,202.358 261.374 C 202.161 261.252,202.000 261.343,202.000 261.576 C 202.000 261.809,201.640 262.000,201.200 262.000 C 200.760 262.000,200.400 262.180,200.400 262.400 C 200.400 262.620,200.080 262.800,199.688 262.800 C 199.297 262.800,198.717 263.160,198.400 263.600 C 198.083 264.040,197.503 264.400,197.112 264.400 C 196.720 264.400,196.400 264.580,196.400 264.800 C 196.400 265.020,196.164 265.200,195.875 265.200 C 195.587 265.200,194.964 265.560,194.492 266.000 C 194.020 266.440,193.528 266.800,193.400 266.800 C 193.272 266.800,192.780 267.160,192.308 267.600 C 191.836 268.040,191.213 268.400,190.925 268.400 C 190.636 268.400,190.400 268.580,190.400 268.800 C 190.400 269.020,190.080 269.200,189.688 269.200 C 189.297 269.200,188.717 269.560,188.400 270.000 C 188.083 270.440,187.503 270.800,187.112 270.800 C 186.720 270.800,186.400 270.980,186.400 271.200 C 186.400 271.420,186.080 271.600,185.688 271.600 C 185.297 271.600,184.717 271.960,184.400 272.400 C 184.083 272.840,183.503 273.200,183.112 273.200 C 182.720 273.200,182.400 273.380,182.400 273.600 C 182.400 273.820,182.083 274.000,181.696 274.000 C 181.309 274.000,180.768 274.360,180.493 274.800 C 180.218 275.240,179.635 275.600,179.197 275.600 C 178.758 275.600,178.400 275.791,178.400 276.024 C 178.400 276.257,178.220 276.336,178.000 276.200 C 177.780 276.064,177.600 276.143,177.600 276.376 C 177.600 276.609,177.240 276.800,176.800 276.800 C 176.360 276.800,176.000 276.980,176.000 277.200 C 176.000 277.420,175.773 277.600,175.496 277.600 C 175.219 277.600,174.768 277.960,174.493 278.400 C 174.218 278.840,173.635 279.200,173.197 279.200 C 172.758 279.200,172.400 279.380,172.400 279.600 C 172.400 279.820,172.059 280.000,171.643 280.000 C 171.226 280.000,170.790 280.250,170.672 280.556 C 170.460 281.110,168.230 282.400,167.485 282.400 C 167.270 282.400,166.801 282.715,166.443 283.100 C 165.604 284.001,164.177 284.800,163.405 284.800 C 163.072 284.800,162.800 284.980,162.800 285.200 C 162.800 285.420,162.361 285.600,161.824 285.600 C 161.287 285.600,160.736 285.780,160.600 286.000 C 160.461 286.225,158.537 286.400,156.200 286.400 C 153.863 286.400,151.939 286.225,151.800 286.000 C 151.664 285.780,151.113 285.600,150.576 285.600 C 150.039 285.600,149.600 285.420,149.600 285.200 C 149.600 284.980,149.240 284.800,148.800 284.800 C 148.360 284.800,148.000 284.620,148.000 284.400 C 148.000 284.180,147.721 284.000,147.381 284.000 C 146.419 284.000,141.468 278.798,140.635 276.911 C 140.224 275.982,139.773 275.293,139.632 275.380 C 139.491 275.467,139.400 275.057,139.429 274.469 C 139.458 273.881,139.339 273.306,139.165 273.191 C 138.991 273.077,138.807 271.952,138.756 270.691 C 138.705 269.431,138.514 268.400,138.332 268.400 C 138.149 268.400,138.000 237.620,138.000 200.000 C 138.000 162.380,138.149 131.600,138.332 131.600 C 138.514 131.600,138.705 130.569,138.756 129.309 C 138.807 128.048,138.991 126.923,139.165 126.809 C 139.339 126.694,139.458 126.119,139.429 125.531 C 139.400 124.943,139.491 124.533,139.632 124.620 C 139.773 124.707,140.224 124.018,140.635 123.089 C 141.468 121.202,146.419 116.000,147.381 116.000 C 147.721 116.000,148.000 115.820,148.000 115.600 C 148.000 115.380,148.360 115.200,148.800 115.200 C 149.240 115.200,149.600 115.020,149.600 114.800 C 149.600 114.580,149.960 114.400,150.400 114.400 C 150.840 114.400,151.200 114.220,151.200 114.000 C 151.200 113.780,151.999 113.600,152.976 113.600 C 153.953 113.600,154.864 113.420,155.000 113.200 C 155.136 112.980,155.777 112.800,156.424 112.800 C 157.071 112.800,157.600 112.980,157.600 113.200 " stroke="none" fill="#4c5c8c" fill-rule="evenodd"></path><path id="path1" d="" stroke="none" fill="#505c8c" fill-rule="evenodd"></path><path id="path2" d="" stroke="none" fill="#505c8c" fill-rule="evenodd"></path><path id="path3" d="" stroke="none" fill="#505c8c" fill-rule="evenodd"></path><path id="path4" d="" stroke="none" fill="#505c8c" fill-rule="evenodd"></path></g></svg>