<?xml version="1.0" standalone="no"?>
<!DOCTYPE svg PUBLIC "-//W3C//DTD SVG 20010904//EN"
 "http://www.w3.org/TR/2001/REC-SVG-20010904/DTD/svg10.dtd">
<svg version="1.0" xmlns="http://www.w3.org/2000/svg"
 width="300.000000pt" height="300.000000pt" viewBox="0 0 300.000000 300.000000"
 preserveAspectRatio="xMidYMid meet">
<metadata>
Created by potrace 1.10, written by Peter Selinger 2001-2011
</metadata>
<g transform="translate(0.000000,300.000000) scale(0.100000,-0.100000)"
fill="#325096" stroke="none">
<path d="M1440 2328 c-25 -13 -53 -37 -63 -56 -37 -64 -16 -154 43 -189 23
-13 28 -22 24 -38 -7 -20 -261 -535 -268 -542 -4 -4 -294 173 -358 219 -24 17
-26 22 -17 40 16 30 20 88 8 124 -13 43 -46 71 -100 85 -43 11 -50 10 -95 -12
-40 -20 -52 -32 -68 -70 -24 -60 -16 -107 28 -153 23 -25 45 -37 74 -42 26 -4
43 -13 46 -23 3 -9 35 -149 71 -311 36 -162 69 -305 72 -317 l5 -23 659 0
c362 0 659 2 659 4 0 3 14 65 31 138 17 73 32 144 35 158 2 14 19 93 39 175
19 83 37 160 40 171 3 16 15 23 44 28 108 17 155 142 86 232 -49 64 -153 68
-212 9 -38 -38 -52 -95 -34 -139 7 -17 13 -38 14 -46 2 -12 -212 -155 -344
-229 l-36 -21 -137 276 c-75 152 -136 279 -136 283 0 4 14 15 30 24 61 36 84
140 44 194 -51 68 -115 86 -184 51z"/>
<path d="M840 812 c0 -71 4 -112 12 -120 17 -17 1279 -17 1296 0 8 8 12 49 12
120 l0 108 -660 0 -660 0 0 -108z"/>
</g>
</svg>
