<svg width="96" height="96" xmlns="http://www.w3.org/2000/svg" xmlns:xlink="http://www.w3.org/1999/xlink" xml:space="preserve" overflow="hidden"><g transform="translate(-592 -372)"><path d="M673.4 391.4C672.6 386.7 668.4 383.1 663.5 383.1 663 383.1 662.4 383.2 661.9 383.2 659.5 380.2 655.8 378.3 651.6 378.3 645.5 378.3 640.4 382.4 638.8 388 633.2 389.1 629 394 629 399.9 629 406.6 634.4 412 641 412L641 412C641 412 670.6 412 671 412 676.8 412 681.1 407.3 681.1 401.5 681.1 396.7 677.8 392.7 673.4 391.4ZM670.4 406 640.8 406C638.5 405.8 636.5 404.5 635.5 402.5 634.6 400.4 634.8 398 636.2 396.1 637.4 394.5 639.2 393.6 641.1 393.6 641.4 393.6 641.8 393.6 642.1 393.7L643.9 394 643.9 392C643.9 388.4 646.3 385.3 649.8 384.5 650.4 384.4 651 384.3 651.6 384.3 651.6 384.3 651.6 384.3 651.6 384.3L651.6 384.3C651.6 384.3 651.6 384.3 651.6 384.3 654.5 384.3 657.1 385.9 658.4 388.5L659 389.7 660.3 389.2C660.9 389 661.6 388.9 662.3 388.9 663.6 388.9 664.8 389.3 665.9 390 667.5 391.2 668.5 393.1 668.5 395.1L668.5 396.7 670.5 396.7C673.1 396.7 675.2 398.8 675.2 401.4 675.1 403.9 673 406 670.4 406Z"/><path d="M643.8 416 602.2 416C600.4 416 599 417.4 599 419.2L599 447.8C599 449.6 600.4 451 602.2 451 602.2 451 602.2 451 602.2 451L618 451 618 455 611 455 611 461 635 461 635 455 628 455 628 451 643.8 451C645.6 451 647 449.6 647 447.8L647 447.8 647 419.2C647 417.4 645.6 416 643.8 416ZM641 445 605 445 605 422 641 422 641 445Z"/><path d="M661.8 416C662.8 417.3 663.3 419 663.3 420.6 663.3 423.6 661.6 426.3 659 427.7L659 423.6 651.7 431 659 438.2 659 434.1C666.5 432.1 670.9 424.4 668.8 416.9 668.7 416.6 668.6 416.3 668.5 416L661.8 416Z"/><path d="M614.9 412C614.1 411 613.4 409 613.4 407.4 613.4 404.4 615.1 401.7 617.7 400.3L617.7 404.4 625 397 617.7 389.8 617.7 393.9C610.2 395.9 605.8 403.6 607.9 411.1 608 411.4 608.1 411.7 608.2 412L614.9 412Z"/></g></svg>