 <svg  version="1.0" xmlns="http://www.w3.org/2000/svg"  width="300.000000pt" height="267.000000pt" viewBox="0 0 300.000000 267.000000"  preserveAspectRatio="xMidYMid meet">  <g transform="translate(0.000000,267.000000) scale(0.100000,-0.100000)" fill="#325096" stroke="none"> <path d="M1434 2651 c-41 -25 -46 -34 -59 -105 -10 -58 -12 -60 -53 -75 -70 -25 -134 -80 -166 -144 -24 -46 -29 -69 -29 -124 0 -78 17 -124 63 -177 46 -52 96 -78 250 -131 150 -51 180 -67 180 -94 0 -50 -128 -56 -269 -13 -71 22 -103 27 -129 21 -69 -15 -114 -89 -93 -151 19 -53 48 -75 147 -109 85 -30 94 -36 94 -59 0 -91 52 -150 131 -150 40 0 55 5 81 29 28 25 33 38 38 86 l5 56 60 24 c73 29 154 111 173 172 19 65 15 170 -8 219 -44 91 -142 153 -325 209 -151 46 -180 72 -110 101 45 18 109 18 196 -2 90 -20 129 -13 168 32 23 26 31 44 31 74 0 81 -36 119 -137 141 l-53 12 0 51 c0 58 -17 89 -60 111 -40 20 -89 19 -126 -4z"/> <path d="M900 993 c-138 -23 -227 -70 -397 -208 l-143 -115 -113 0 c-140 0 -187 -19 -224 -91 -23 -43 -24 -50 -21 -261 3 -238 4 -242 72 -292 27 -21 37 -21 914 -24 944 -3 978 -2 1102 44 84 32 123 58 375 244 116 86 262 194 325 239 63 46 128 95 144 110 84 77 87 220 6 301 -56 56 -153 76 -225 46 -37 -16 -33 -13 -412 -293 l-261 -193 -327 0 -326 0 -24 25 c-26 26 -33 72 -15 105 18 34 66 40 305 40 224 0 233 1 265 23 58 39 75 71 75 142 0 69 -15 99 -69 139 -27 21 -39 21 -514 22 -268 1 -498 0 -512 -3z"/> </g> </svg> 