<svg id="svg" version="1.1" xmlns="http://www.w3.org/2000/svg" xmlns:xlink="http://www.w3.org/1999/xlink" width="400" height="355.55555555555554" viewBox="0, 0, 400,355.55555555555554"><g id="svgg"><path id="path0" d="M193.957 0.244 C 193.371 0.340,192.811 0.534,192.712 0.673 C 192.614 0.812,191.973 1.190,191.289 1.513 C 189.888 2.175,186.972 4.809,187.289 5.126 C 187.403 5.240,187.268 5.333,186.989 5.333 C 186.302 5.333,184.533 8.066,184.533 9.128 C 184.533 9.411,184.373 9.543,184.178 9.422 C 183.971 9.294,183.822 9.649,183.822 10.269 C 183.822 10.856,183.662 11.435,183.467 11.556 C 183.271 11.676,183.111 12.806,183.111 14.065 C 183.111 15.355,182.956 16.356,182.756 16.356 C 182.541 16.356,182.400 17.837,182.400 20.089 C 182.400 24.026,182.339 24.149,180.533 23.864 C 180.387 23.841,180.267 23.982,180.267 24.178 C 180.267 24.373,179.876 24.533,179.399 24.533 C 178.921 24.533,178.452 24.662,178.355 24.818 C 178.258 24.975,177.368 25.324,176.378 25.594 C 175.388 25.863,174.578 26.215,174.578 26.375 C 174.578 26.536,174.258 26.667,173.867 26.667 C 173.476 26.667,173.156 26.827,173.156 27.022 C 173.156 27.218,172.714 27.378,172.174 27.378 C 171.578 27.378,171.019 27.657,170.749 28.089 C 170.505 28.480,170.066 28.800,169.775 28.800 C 169.483 28.800,169.244 28.960,169.244 29.156 C 169.244 29.351,168.924 29.511,168.533 29.511 C 168.142 29.511,167.822 29.671,167.822 29.867 C 167.822 30.062,167.566 30.222,167.254 30.222 C 166.941 30.222,166.237 30.702,165.689 31.289 C 165.141 31.876,164.515 32.356,164.297 32.356 C 164.080 32.356,162.894 33.356,161.663 34.578 C 160.432 35.800,158.773 37.354,157.975 38.032 C 157.178 38.710,156.606 39.475,156.705 39.732 C 156.804 39.989,156.545 40.493,156.131 40.852 C 155.717 41.212,155.378 41.732,155.378 42.008 C 155.378 42.284,155.058 42.740,154.667 43.022 C 154.276 43.304,153.956 43.819,153.956 44.167 C 153.956 44.515,153.796 44.800,153.600 44.800 C 153.404 44.800,153.244 45.120,153.244 45.511 C 153.244 45.902,153.084 46.222,152.889 46.222 C 152.693 46.222,152.533 46.542,152.533 46.933 C 152.533 47.324,152.373 47.644,152.178 47.644 C 151.982 47.644,151.822 48.124,151.822 48.711 C 151.822 49.298,151.662 49.778,151.467 49.778 C 151.271 49.778,151.111 50.258,151.111 50.844 C 151.111 51.431,150.951 51.911,150.756 51.911 C 150.560 51.911,150.400 52.561,150.400 53.354 C 150.400 54.226,150.259 54.710,150.044 54.578 C 149.819 54.438,149.689 55.404,149.689 57.223 C 149.689 58.897,149.541 60.089,149.333 60.089 C 149.130 60.089,148.978 61.156,148.978 62.578 C 148.978 64.000,149.130 65.067,149.333 65.067 C 149.539 65.067,149.689 66.193,149.689 67.733 C 149.689 69.274,149.839 70.400,150.044 70.400 C 150.240 70.400,150.400 71.040,150.400 71.822 C 150.400 72.604,150.560 73.244,150.756 73.244 C 150.951 73.244,151.111 73.635,151.111 74.112 C 151.111 74.590,151.271 75.079,151.467 75.200 C 151.662 75.321,151.822 75.890,151.822 76.465 C 151.822 77.041,151.982 77.511,152.178 77.511 C 152.373 77.511,152.533 77.831,152.533 78.222 C 152.533 78.613,152.693 78.933,152.889 78.933 C 153.084 78.933,153.244 79.253,153.244 79.644 C 153.244 80.036,153.404 80.356,153.600 80.356 C 153.796 80.356,153.956 80.560,153.956 80.810 C 153.956 81.061,154.276 81.496,154.667 81.778 C 155.058 82.060,155.378 82.575,155.378 82.923 C 155.378 83.271,155.547 83.556,155.754 83.556 C 155.961 83.556,156.047 83.691,155.944 83.858 C 155.842 84.024,156.152 84.371,156.634 84.629 C 157.117 84.887,157.511 85.213,157.511 85.353 C 157.511 85.873,163.890 92.089,164.424 92.089 C 164.728 92.089,164.978 92.222,164.978 92.384 C 164.978 92.547,165.418 92.907,165.956 93.184 C 166.493 93.462,167.145 93.889,167.403 94.133 C 167.662 94.378,168.093 94.578,168.363 94.578 C 168.632 94.578,169.284 94.978,169.811 95.467 C 170.339 95.956,170.986 96.356,171.249 96.356 C 171.951 96.356,174.578 97.544,174.578 97.862 C 174.578 98.011,175.058 98.133,175.644 98.133 C 176.231 98.133,176.711 98.293,176.711 98.489 C 176.711 98.684,177.031 98.844,177.422 98.844 C 177.813 98.844,178.133 99.004,178.133 99.200 C 178.133 99.396,178.613 99.556,179.200 99.556 C 179.787 99.556,180.267 99.716,180.267 99.911 C 180.267 100.107,180.587 100.267,180.978 100.267 C 181.369 100.267,181.689 100.427,181.689 100.622 C 181.689 100.818,182.169 100.978,182.756 100.978 C 183.342 100.978,183.822 101.138,183.822 101.333 C 183.822 101.529,184.222 101.689,184.711 101.689 C 185.200 101.689,185.600 101.849,185.600 102.044 C 185.600 102.240,186.080 102.400,186.667 102.400 C 187.253 102.400,187.733 102.560,187.733 102.756 C 187.733 102.951,188.364 103.111,189.135 103.111 C 189.905 103.111,190.635 103.271,190.756 103.467 C 190.876 103.662,191.366 103.822,191.843 103.822 C 192.321 103.822,192.711 103.982,192.711 104.178 C 192.711 104.373,193.191 104.533,193.778 104.533 C 194.364 104.533,194.844 104.693,194.844 104.889 C 194.844 105.084,195.324 105.244,195.911 105.244 C 196.498 105.244,196.978 105.404,196.978 105.600 C 196.978 105.796,197.608 105.956,198.379 105.956 C 199.150 105.956,199.860 106.084,199.956 106.241 C 200.053 106.398,200.943 106.746,201.933 107.016 C 202.923 107.286,203.733 107.637,203.733 107.798 C 203.733 107.958,204.053 108.089,204.444 108.089 C 204.836 108.089,205.156 108.249,205.156 108.444 C 205.156 108.640,205.636 108.800,206.222 108.800 C 206.809 108.800,207.289 108.960,207.289 109.156 C 207.289 109.351,207.599 109.511,207.979 109.511 C 208.359 109.511,208.755 109.650,208.859 109.819 C 208.964 109.988,209.454 110.050,209.947 109.955 C 210.601 109.830,210.844 109.936,210.844 110.347 C 210.844 110.707,211.041 110.836,211.388 110.702 C 211.702 110.582,212.209 110.812,212.586 111.247 C 212.945 111.661,213.435 112.000,213.674 112.000 C 213.913 112.000,214.409 112.360,214.776 112.800 C 216.145 114.441,215.273 118.400,213.543 118.400 C 213.232 118.400,212.978 118.560,212.978 118.756 C 212.978 118.951,212.658 119.111,212.267 119.111 C 211.876 119.111,211.556 119.271,211.556 119.467 C 211.556 119.662,211.236 119.822,210.844 119.822 C 210.453 119.822,210.133 119.982,210.133 120.178 C 210.133 120.373,209.493 120.533,208.711 120.533 C 207.929 120.533,207.289 120.693,207.289 120.889 C 207.289 121.092,206.222 121.244,204.800 121.244 C 203.378 121.244,202.311 121.397,202.311 121.600 C 202.311 121.796,201.991 121.956,201.600 121.956 C 201.209 121.956,200.889 121.796,200.889 121.600 C 200.889 121.391,199.644 121.244,197.867 121.244 C 196.089 121.244,194.844 121.098,194.844 120.889 C 194.844 120.693,194.204 120.533,193.422 120.533 C 192.640 120.533,192.000 120.373,192.000 120.178 C 192.000 119.982,191.360 119.822,190.578 119.822 C 189.796 119.822,189.156 119.662,189.156 119.467 C 189.156 119.271,188.516 119.111,187.733 119.111 C 186.951 119.111,186.311 118.951,186.311 118.756 C 186.311 118.560,185.911 118.400,185.422 118.400 C 184.933 118.400,184.533 118.240,184.533 118.044 C 184.533 117.849,184.063 117.689,183.488 117.689 C 182.913 117.689,182.343 117.529,182.222 117.333 C 182.101 117.138,181.612 116.978,181.135 116.978 C 180.657 116.978,180.267 116.818,180.267 116.622 C 180.267 116.427,179.787 116.267,179.200 116.267 C 178.613 116.267,178.133 116.107,178.133 115.911 C 178.133 115.716,177.653 115.556,177.067 115.556 C 176.480 115.556,176.000 115.396,176.000 115.200 C 176.000 115.004,175.520 114.844,174.933 114.844 C 174.347 114.844,173.867 114.684,173.867 114.489 C 173.867 114.293,173.387 114.133,172.800 114.133 C 172.213 114.133,171.733 113.973,171.733 113.778 C 171.733 113.582,170.853 113.422,169.778 113.422 C 168.702 113.422,167.822 113.266,167.822 113.075 C 167.822 112.856,167.507 112.848,166.962 113.056 C 166.489 113.236,165.049 113.417,163.762 113.459 C 162.475 113.500,161.422 113.669,161.422 113.834 C 161.422 113.999,161.011 114.133,160.508 114.133 C 160.005 114.133,159.346 114.381,159.043 114.684 C 158.740 114.987,158.034 115.327,157.474 115.439 C 156.914 115.551,156.543 115.783,156.649 115.954 C 156.755 116.126,156.566 116.267,156.228 116.267 C 155.891 116.267,155.714 116.366,155.835 116.487 C 156.151 116.802,155.177 117.689,154.514 117.689 C 154.207 117.689,153.956 117.945,153.956 118.257 C 153.956 118.570,153.476 119.274,152.889 119.822 C 152.302 120.370,151.822 121.074,151.822 121.387 C 151.822 121.700,151.662 121.956,151.467 121.956 C 151.271 121.956,151.111 122.276,151.111 122.667 C 151.111 123.058,150.951 123.378,150.756 123.378 C 150.560 123.378,150.400 123.698,150.400 124.089 C 150.400 124.480,150.240 124.800,150.044 124.800 C 149.849 124.800,149.689 125.511,149.689 126.379 C 149.689 127.247,149.529 128.057,149.333 128.178 C 149.138 128.299,148.978 129.339,148.978 130.489 C 148.978 131.639,149.138 132.679,149.333 132.800 C 149.529 132.921,149.689 133.810,149.689 134.777 C 149.689 135.743,149.849 136.533,150.044 136.533 C 150.240 136.533,150.400 136.853,150.400 137.244 C 150.400 137.636,150.560 137.956,150.756 137.956 C 150.951 137.956,151.111 138.276,151.111 138.667 C 151.111 139.058,151.271 139.378,151.467 139.378 C 151.662 139.378,151.822 139.566,151.822 139.796 C 151.822 140.026,152.777 141.125,153.943 142.238 C 155.109 143.351,155.980 144.346,155.878 144.448 C 155.776 144.550,156.182 144.850,156.780 145.115 C 157.377 145.379,157.867 145.717,157.867 145.865 C 157.867 146.012,158.187 146.133,158.578 146.133 C 158.969 146.133,159.289 146.293,159.289 146.489 C 159.289 146.684,159.769 146.844,160.356 146.844 C 160.942 146.844,161.422 147.004,161.422 147.200 C 161.422 147.396,161.902 147.556,162.489 147.556 C 163.076 147.556,163.556 147.716,163.556 147.911 C 163.556 148.107,164.026 148.267,164.601 148.267 C 165.176 148.267,165.746 148.427,165.867 148.622 C 165.988 148.818,166.477 148.978,166.954 148.978 C 167.432 148.978,167.822 149.138,167.822 149.333 C 167.822 149.529,168.302 149.689,168.889 149.689 C 169.476 149.689,169.956 149.849,169.956 150.044 C 169.956 150.240,170.426 150.400,171.001 150.400 C 171.576 150.400,172.146 150.560,172.267 150.756 C 172.388 150.951,172.797 151.111,173.177 151.111 C 173.556 151.111,173.867 151.271,173.867 151.467 C 173.867 151.662,174.227 151.825,174.667 151.828 C 175.534 151.833,177.969 152.606,178.364 153.001 C 178.498 153.135,179.053 153.244,179.598 153.244 C 182.207 153.244,182.400 153.604,182.400 158.457 C 182.400 161.145,182.538 162.844,182.756 162.844 C 182.951 162.844,183.111 163.715,183.111 164.779 C 183.111 165.843,183.271 166.812,183.467 166.933 C 183.662 167.054,183.822 167.473,183.822 167.864 C 183.822 168.255,183.982 168.476,184.178 168.356 C 184.373 168.235,184.533 168.367,184.533 168.649 C 184.533 169.712,186.302 172.444,186.989 172.444 C 187.268 172.444,187.403 172.538,187.289 172.651 C 186.950 172.990,189.939 175.648,191.378 176.287 C 192.111 176.612,192.711 177.001,192.711 177.151 C 192.711 177.300,193.182 177.422,193.757 177.422 C 194.332 177.422,194.901 177.582,195.022 177.778 C 195.315 178.251,204.685 178.251,204.978 177.778 C 205.099 177.582,205.668 177.422,206.243 177.422 C 206.818 177.422,207.289 177.300,207.289 177.151 C 207.289 177.001,207.889 176.612,208.622 176.287 C 210.061 175.648,213.050 172.990,212.711 172.651 C 212.597 172.538,212.732 172.444,213.011 172.444 C 213.698 172.444,215.467 169.712,215.467 168.649 C 215.467 168.367,215.627 168.235,215.822 168.356 C 216.029 168.483,216.178 168.129,216.178 167.509 C 216.178 166.922,216.338 166.343,216.533 166.222 C 216.747 166.090,216.889 163.658,216.889 160.119 C 216.889 155.266,216.975 154.268,217.379 154.423 C 217.648 154.526,218.015 154.465,218.195 154.285 C 218.374 154.106,218.953 153.924,219.482 153.880 C 220.012 153.836,220.444 153.675,220.444 153.522 C 220.444 153.370,220.812 153.244,221.262 153.244 C 221.712 153.244,222.239 153.085,222.433 152.891 C 222.628 152.697,223.220 152.502,223.749 152.458 C 224.278 152.414,224.711 152.253,224.711 152.100 C 224.711 151.947,225.031 151.822,225.422 151.822 C 225.813 151.822,226.133 151.662,226.133 151.467 C 226.133 151.271,226.373 151.111,226.667 151.111 C 226.960 151.111,227.200 150.951,227.200 150.756 C 227.200 150.560,227.600 150.400,228.089 150.400 C 228.578 150.400,228.978 150.240,228.978 150.044 C 228.978 149.849,229.218 149.689,229.511 149.689 C 229.804 149.689,230.044 149.529,230.044 149.333 C 230.044 149.138,230.364 148.978,230.756 148.978 C 231.147 148.978,231.467 148.818,231.467 148.622 C 231.467 148.427,231.722 148.267,232.035 148.267 C 232.348 148.267,233.052 147.787,233.600 147.200 C 234.148 146.613,234.775 146.133,234.994 146.133 C 235.213 146.133,236.558 144.973,237.983 143.556 C 239.408 142.138,241.227 140.423,242.024 139.746 C 242.822 139.068,243.394 138.303,243.295 138.046 C 243.196 137.789,243.455 137.285,243.869 136.925 C 244.283 136.566,244.622 136.011,244.622 135.692 C 244.622 135.372,244.782 135.111,244.978 135.111 C 245.173 135.111,245.333 134.826,245.333 134.478 C 245.333 134.131,245.653 133.615,246.044 133.333 C 246.436 133.051,246.756 132.536,246.756 132.188 C 246.756 131.840,246.916 131.556,247.111 131.556 C 247.307 131.556,247.467 131.076,247.467 130.489 C 247.467 129.902,247.627 129.422,247.822 129.422 C 248.018 129.422,248.178 128.942,248.178 128.356 C 248.178 127.769,248.338 127.289,248.533 127.289 C 248.729 127.289,248.889 126.889,248.889 126.400 C 248.889 125.911,249.049 125.511,249.244 125.511 C 249.440 125.511,249.600 124.881,249.600 124.110 C 249.600 123.339,249.760 122.610,249.956 122.489 C 250.174 122.354,250.311 119.404,250.311 114.823 C 250.311 110.097,250.181 107.378,249.956 107.378 C 249.760 107.378,249.600 106.578,249.600 105.600 C 249.600 104.622,249.440 103.822,249.244 103.822 C 249.049 103.822,248.889 103.342,248.889 102.756 C 248.889 102.169,248.729 101.689,248.533 101.689 C 248.338 101.689,248.178 101.209,248.178 100.622 C 248.178 100.036,248.018 99.556,247.822 99.556 C 247.627 99.556,247.467 99.236,247.467 98.844 C 247.467 98.453,247.346 98.133,247.198 98.133 C 247.050 98.133,246.702 97.613,246.425 96.978 C 246.147 96.342,245.628 95.563,245.271 95.247 C 244.914 94.931,244.622 94.411,244.622 94.092 C 244.622 93.772,244.453 93.511,244.246 93.511 C 244.039 93.511,243.968 93.351,244.089 93.156 C 244.210 92.960,244.042 92.800,243.716 92.800 C 243.341 92.800,243.197 92.608,243.325 92.276 C 243.436 91.987,243.254 91.593,242.919 91.398 C 242.584 91.203,242.415 91.039,242.542 91.033 C 243.004 91.011,236.715 84.978,236.231 84.978 C 235.957 84.978,235.733 84.829,235.733 84.646 C 235.733 84.464,235.413 84.213,235.022 84.089 C 234.631 83.965,234.311 83.623,234.311 83.330 C 234.311 82.982,234.093 82.866,233.683 82.996 C 233.275 83.125,232.826 82.892,232.404 82.330 C 232.046 81.853,231.291 81.362,230.725 81.238 C 230.160 81.114,229.606 80.864,229.494 80.684 C 229.383 80.503,228.981 80.356,228.601 80.356 C 228.222 80.356,227.911 80.196,227.911 80.000 C 227.911 79.804,227.671 79.644,227.378 79.644 C 227.084 79.644,226.844 79.484,226.844 79.289 C 226.844 79.093,226.524 78.933,226.133 78.933 C 225.742 78.933,225.422 78.773,225.422 78.578 C 225.422 78.382,225.102 78.222,224.711 78.222 C 224.320 78.222,224.000 78.062,224.000 77.867 C 224.000 77.671,223.680 77.511,223.289 77.511 C 222.898 77.511,222.578 77.351,222.578 77.156 C 222.578 76.960,222.098 76.800,221.511 76.800 C 220.924 76.800,220.444 76.640,220.444 76.444 C 220.444 76.249,220.124 76.089,219.733 76.089 C 219.342 76.089,219.022 75.929,219.022 75.733 C 219.022 75.538,218.542 75.378,217.956 75.378 C 217.369 75.378,216.889 75.218,216.889 75.022 C 216.889 74.827,216.409 74.667,215.822 74.667 C 215.236 74.667,214.756 74.507,214.756 74.311 C 214.756 74.116,214.266 73.956,213.668 73.956 C 213.033 73.956,212.672 73.807,212.800 73.600 C 212.928 73.393,212.567 73.244,211.932 73.244 C 211.334 73.244,210.844 73.084,210.844 72.889 C 210.844 72.693,210.364 72.533,209.778 72.533 C 209.191 72.533,208.711 72.373,208.711 72.178 C 208.711 71.982,208.081 71.822,207.310 71.822 C 206.539 71.822,205.810 71.662,205.689 71.467 C 205.568 71.271,205.088 71.111,204.622 71.111 C 204.156 71.111,203.676 70.951,203.556 70.756 C 203.435 70.560,202.955 70.400,202.489 70.400 C 202.023 70.400,201.543 70.240,201.422 70.044 C 201.301 69.849,200.812 69.689,200.335 69.689 C 199.857 69.689,199.467 69.529,199.467 69.333 C 199.467 69.138,199.067 68.978,198.578 68.978 C 198.089 68.978,197.689 68.850,197.689 68.695 C 197.689 68.539,197.089 68.372,196.356 68.324 C 195.622 68.275,194.975 68.100,194.916 67.933 C 194.858 67.767,194.498 67.713,194.116 67.813 C 193.665 67.931,193.422 67.815,193.422 67.481 C 193.422 67.113,193.120 67.012,192.356 67.124 C 191.715 67.218,191.289 67.122,191.289 66.885 C 191.289 66.667,190.969 66.489,190.578 66.489 C 190.187 66.489,189.867 66.329,189.867 66.133 C 189.867 65.938,189.422 65.778,188.878 65.778 C 188.298 65.778,187.679 65.484,187.378 65.067 C 187.096 64.676,186.646 64.356,186.379 64.356 C 185.772 64.356,184.559 62.939,184.551 62.222 C 184.542 61.474,186.464 59.378,187.158 59.378 C 187.474 59.378,187.733 59.218,187.733 59.022 C 187.733 58.827,188.053 58.667,188.444 58.667 C 188.836 58.667,189.156 58.507,189.156 58.311 C 189.156 58.116,189.636 57.956,190.222 57.956 C 190.809 57.956,191.289 57.796,191.289 57.600 C 191.289 57.404,191.769 57.244,192.356 57.244 C 192.942 57.244,193.422 57.084,193.422 56.889 C 193.422 56.665,195.852 56.533,200.000 56.533 C 204.148 56.533,206.578 56.665,206.578 56.889 C 206.578 57.086,207.526 57.244,208.711 57.244 C 209.896 57.244,210.844 57.402,210.844 57.600 C 210.844 57.796,211.644 57.956,212.622 57.956 C 213.600 57.956,214.400 58.116,214.400 58.311 C 214.400 58.507,214.960 58.667,215.644 58.667 C 216.329 58.667,216.889 58.827,216.889 59.022 C 216.889 59.218,217.529 59.378,218.311 59.378 C 219.093 59.378,219.733 59.538,219.733 59.733 C 219.733 59.954,221.689 60.089,224.889 60.089 C 228.089 60.089,230.044 59.954,230.044 59.733 C 230.044 59.538,230.524 59.378,231.111 59.378 C 231.698 59.378,232.178 59.218,232.178 59.022 C 232.178 58.827,232.462 58.667,232.810 58.667 C 233.158 58.667,233.674 58.347,233.956 57.956 C 234.237 57.564,234.680 57.244,234.939 57.244 C 235.605 57.244,239.844 52.839,240.412 51.557 C 240.672 50.970,240.972 50.489,241.078 50.489 C 241.184 50.489,241.310 49.969,241.358 49.333 C 241.406 48.698,241.600 48.124,241.789 48.059 C 242.259 47.897,242.248 37.689,241.778 37.689 C 241.582 37.689,241.422 37.378,241.422 36.999 C 241.422 36.619,241.262 36.210,241.067 36.089 C 240.871 35.968,240.711 35.559,240.711 35.179 C 240.711 34.799,240.551 34.489,240.356 34.489 C 240.160 34.489,240.000 34.261,240.000 33.983 C 240.000 33.293,234.834 28.089,234.149 28.089 C 233.847 28.089,233.600 27.929,233.600 27.733 C 233.600 27.538,233.280 27.378,232.889 27.378 C 232.498 27.378,232.178 27.218,232.178 27.022 C 232.178 26.827,231.867 26.667,231.488 26.667 C 231.108 26.667,230.699 26.507,230.578 26.311 C 230.457 26.116,229.887 25.956,229.312 25.956 C 228.737 25.956,228.267 25.828,228.267 25.673 C 228.267 25.517,227.667 25.349,226.934 25.300 C 226.201 25.251,225.449 25.058,225.263 24.872 C 225.077 24.686,224.236 24.533,223.396 24.533 C 222.555 24.533,221.867 24.373,221.867 24.178 C 221.867 23.982,221.236 23.822,220.465 23.822 C 219.695 23.822,218.979 23.684,218.874 23.514 C 218.769 23.345,218.280 23.284,217.786 23.378 L 216.889 23.550 216.889 17.662 C 216.889 14.121,216.747 11.688,216.533 11.556 C 216.338 11.435,216.178 10.856,216.178 10.269 C 216.178 9.649,216.029 9.294,215.822 9.422 C 215.627 9.543,215.467 9.411,215.467 9.128 C 215.467 8.066,213.698 5.333,213.011 5.333 C 212.732 5.333,212.597 5.240,212.711 5.126 C 213.028 4.809,210.112 2.175,208.711 1.513 C 208.027 1.190,207.355 0.762,207.219 0.561 C 206.961 0.182,195.929 -0.082,193.957 0.244 M122.667 222.222 C 122.667 222.420,121.719 222.578,120.533 222.578 C 119.348 222.578,118.400 222.736,118.400 222.933 C 118.400 223.129,117.600 223.289,116.622 223.289 C 115.644 223.289,114.844 223.449,114.844 223.644 C 114.844 223.840,114.035 224.000,113.046 224.000 C 111.937 224.000,111.331 224.136,111.467 224.356 C 111.595 224.563,111.233 224.711,110.599 224.711 C 110.001 224.711,109.511 224.871,109.511 225.067 C 109.511 225.262,109.031 225.422,108.444 225.422 C 107.858 225.422,107.378 225.582,107.378 225.778 C 107.378 225.973,106.898 226.133,106.311 226.133 C 105.724 226.133,105.244 226.293,105.244 226.489 C 105.244 226.684,104.764 226.844,104.178 226.844 C 103.591 226.844,103.111 227.004,103.111 227.200 C 103.111 227.396,102.631 227.556,102.044 227.556 C 101.458 227.556,100.978 227.716,100.978 227.911 C 100.978 228.107,100.658 228.267,100.267 228.267 C 99.876 228.267,99.556 228.427,99.556 228.622 C 99.556 228.818,99.233 228.978,98.840 228.978 C 98.446 228.978,97.846 229.127,97.506 229.310 C 96.074 230.083,94.436 230.756,93.990 230.756 C 93.727 230.756,93.511 230.876,93.511 231.024 C 93.511 231.334,91.333 232.376,90.933 232.257 C 90.787 232.213,90.667 232.338,90.667 232.533 C 90.667 232.729,90.385 232.889,90.041 232.889 C 89.697 232.889,89.216 233.209,88.971 233.600 C 88.727 233.991,88.209 234.311,87.819 234.311 C 87.430 234.311,87.111 234.471,87.111 234.667 C 87.111 234.862,86.826 235.022,86.478 235.022 C 86.131 235.022,85.615 235.342,85.333 235.733 C 85.051 236.124,84.576 236.445,84.277 236.445 C 83.978 236.446,83.413 236.926,83.022 237.511 C 82.631 238.097,82.095 238.576,81.832 238.577 C 81.568 238.577,80.904 239.058,80.356 239.644 C 79.808 240.231,79.171 240.711,78.941 240.711 C 78.710 240.711,77.907 241.351,77.156 242.133 C 76.404 242.916,75.572 243.556,75.306 243.556 C 75.041 243.556,74.599 243.867,74.325 244.248 C 74.050 244.628,73.695 244.859,73.535 244.760 C 73.375 244.661,73.244 244.827,73.244 245.128 C 73.244 245.429,72.854 245.773,72.378 245.893 C 71.901 246.013,70.981 246.735,70.333 247.498 C 69.595 248.368,68.849 248.886,68.335 248.887 C 67.878 248.888,67.611 249.047,67.733 249.244 C 67.854 249.440,67.677 249.600,67.340 249.600 C 67.002 249.600,66.823 249.697,66.941 249.815 C 67.228 250.102,65.581 251.731,64.994 251.741 C 64.741 251.746,63.983 252.386,63.310 253.164 C 62.637 253.941,61.865 254.578,61.593 254.578 C 61.322 254.578,60.485 255.218,59.733 256.000 C 58.982 256.782,58.214 257.422,58.028 257.422 C 57.842 257.422,57.078 257.982,56.331 258.667 C 55.584 259.351,54.763 259.911,54.508 259.911 C 54.253 259.911,54.044 260.071,54.044 260.267 C 54.044 260.462,53.778 260.622,53.452 260.622 C 53.126 260.622,52.953 260.716,53.067 260.830 C 53.387 261.150,51.857 262.754,51.225 262.764 C 50.918 262.768,50.116 263.408,49.443 264.186 C 48.771 264.964,47.931 265.600,47.577 265.600 C 47.223 265.600,46.933 265.760,46.933 265.956 C 46.933 266.187,41.666 266.311,31.843 266.311 C 22.167 266.311,16.674 266.439,16.533 266.667 C 16.412 266.862,15.932 267.022,15.467 267.022 C 15.001 267.022,14.521 267.182,14.400 267.378 C 14.279 267.573,13.886 267.733,13.526 267.733 C 12.590 267.733,8.845 269.770,8.269 270.594 C 8.001 270.976,7.626 271.289,7.435 271.289 C 6.983 271.289,4.622 273.649,4.622 274.101 C 4.622 274.292,4.309 274.668,3.927 274.935 C 3.126 275.496,1.067 279.246,1.067 280.143 C 1.067 280.475,0.867 280.947,0.622 281.191 C -0.028 281.841,-0.028 340.381,0.622 341.031 C 0.867 341.276,1.067 341.747,1.067 342.079 C 1.067 342.976,3.126 346.726,3.927 347.287 C 4.309 347.555,4.622 347.930,4.622 348.121 C 4.622 348.573,6.983 350.933,7.435 350.933 C 7.626 350.933,8.001 351.246,8.269 351.628 C 8.830 352.429,12.579 354.489,13.476 354.489 C 13.808 354.489,14.280 354.689,14.524 354.933 C 15.178 355.587,261.027 355.587,261.244 354.933 C 261.336 354.658,262.058 354.489,263.141 354.489 C 264.102 354.489,264.889 354.329,264.889 354.133 C 264.889 353.938,265.529 353.778,266.311 353.778 C 267.093 353.778,267.733 353.618,267.733 353.422 C 267.733 353.227,268.373 353.067,269.156 353.067 C 269.938 353.067,270.578 352.907,270.578 352.711 C 270.578 352.516,271.138 352.356,271.822 352.356 C 272.507 352.356,273.067 352.196,273.067 352.000 C 273.067 351.804,273.547 351.644,274.133 351.644 C 274.720 351.644,275.200 351.484,275.200 351.289 C 275.200 351.093,275.680 350.933,276.267 350.933 C 276.853 350.933,277.333 350.773,277.333 350.578 C 277.333 350.382,277.653 350.222,278.044 350.222 C 278.436 350.222,278.756 350.062,278.756 349.867 C 278.756 349.671,279.236 349.511,279.822 349.511 C 280.409 349.511,280.889 349.351,280.889 349.156 C 280.889 348.960,281.209 348.800,281.600 348.800 C 281.991 348.800,282.311 348.660,282.311 348.490 C 282.311 348.232,284.260 347.746,285.257 347.756 C 285.411 347.758,285.784 347.512,286.086 347.209 C 286.388 346.907,286.782 346.751,286.962 346.862 C 287.142 346.973,287.289 346.905,287.289 346.711 C 287.289 346.516,287.849 346.155,288.533 345.907 C 289.218 345.660,289.778 345.329,289.778 345.173 C 289.778 345.017,289.988 344.889,290.244 344.889 C 290.501 344.889,291.054 344.569,291.474 344.178 C 291.893 343.787,292.484 343.467,292.785 343.467 C 293.087 343.467,293.333 343.307,293.333 343.111 C 293.333 342.916,293.618 342.756,293.966 342.756 C 294.314 342.756,294.829 342.436,295.111 342.044 C 295.393 341.653,295.873 341.333,296.178 341.333 C 296.483 341.333,296.963 341.013,297.244 340.622 C 297.526 340.231,297.973 339.911,298.237 339.911 C 298.839 339.911,299.775 339.005,299.479 338.709 C 299.358 338.588,299.695 338.489,300.228 338.489 C 300.761 338.489,301.109 338.346,301.002 338.172 C 300.894 337.998,301.339 337.603,301.990 337.294 C 302.641 336.985,303.477 336.328,303.849 335.833 C 304.220 335.338,304.742 334.933,305.008 334.933 C 305.275 334.933,305.954 334.439,306.518 333.835 C 307.083 333.231,307.735 332.800,307.968 332.878 C 308.200 332.956,308.820 332.570,309.345 332.021 C 309.870 331.472,310.446 331.022,310.626 331.022 C 310.806 331.022,311.217 330.742,311.540 330.400 C 312.429 329.458,313.179 328.889,313.530 328.889 C 313.703 328.889,314.135 328.569,314.489 328.178 C 314.843 327.787,315.388 327.466,315.700 327.466 C 316.011 327.465,316.587 326.986,316.978 326.400 C 317.369 325.814,317.905 325.335,318.168 325.334 C 318.432 325.334,319.096 324.853,319.644 324.267 C 320.192 323.680,320.832 323.200,321.067 323.200 C 321.301 323.200,321.941 322.720,322.489 322.133 C 323.037 321.547,323.677 321.067,323.911 321.067 C 324.145 321.067,324.785 320.587,325.333 320.000 C 325.881 319.413,326.566 318.933,326.855 318.933 C 327.143 318.933,327.579 318.693,327.822 318.400 C 328.066 318.107,328.497 317.867,328.780 317.867 C 329.409 317.867,330.362 316.969,330.057 316.665 C 329.936 316.543,330.113 316.444,330.451 316.444 C 330.788 316.444,330.965 316.284,330.844 316.089 C 330.718 315.885,331.038 315.733,331.594 315.733 C 332.127 315.733,332.466 315.636,332.347 315.518 C 332.093 315.263,333.679 313.600,334.176 313.600 C 334.364 313.600,334.971 313.120,335.524 312.533 C 336.078 311.947,336.747 311.467,337.012 311.467 C 337.276 311.467,337.941 310.987,338.489 310.400 C 339.037 309.813,339.703 309.333,339.968 309.333 C 340.234 309.333,340.651 309.013,340.895 308.622 C 341.140 308.231,341.577 307.911,341.867 307.911 C 342.157 307.911,342.853 307.431,343.413 306.844 C 343.974 306.258,344.627 305.778,344.864 305.778 C 345.378 305.778,346.352 304.870,346.104 304.622 C 346.008 304.527,346.456 304.198,347.098 303.892 C 347.741 303.586,348.616 303.009,349.044 302.609 C 349.471 302.209,350.015 301.839,350.254 301.785 C 350.492 301.732,351.119 301.249,351.648 300.711 C 352.177 300.173,352.835 299.733,353.109 299.733 C 353.383 299.733,353.807 299.413,354.051 299.022 C 354.295 298.631,354.749 298.311,355.060 298.311 C 355.371 298.311,356.074 297.831,356.622 297.244 C 357.170 296.658,357.793 296.178,358.006 296.178 C 358.219 296.178,358.853 295.698,359.413 295.111 C 359.974 294.524,360.684 294.044,360.992 294.044 C 361.300 294.044,361.646 293.750,361.760 293.390 C 361.874 293.030,362.405 292.510,362.939 292.235 C 363.474 291.959,364.335 291.293,364.854 290.756 C 365.372 290.218,365.993 289.778,366.234 289.778 C 366.475 289.778,366.963 289.442,367.319 289.031 C 367.675 288.621,368.155 288.348,368.384 288.424 C 368.614 288.501,369.349 288.032,370.018 287.383 C 370.687 286.733,371.387 286.296,371.573 286.411 C 371.759 286.526,371.911 286.344,371.911 286.006 C 371.911 285.669,372.017 285.498,372.146 285.627 C 372.275 285.756,372.604 285.543,372.877 285.153 C 373.150 284.763,373.645 284.443,373.976 284.441 C 374.307 284.439,374.956 283.959,375.418 283.375 C 375.880 282.790,376.586 282.311,376.988 282.311 C 377.390 282.311,377.622 282.214,377.503 282.096 C 377.211 281.804,378.871 280.178,379.461 280.178 C 379.720 280.178,380.163 279.858,380.444 279.467 C 380.726 279.076,381.177 278.756,381.447 278.756 C 381.716 278.756,382.385 278.276,382.933 277.689 C 383.481 277.102,384.121 276.622,384.356 276.622 C 384.590 276.622,385.230 276.142,385.778 275.556 C 386.326 274.969,386.965 274.489,387.198 274.489 C 387.716 274.489,389.537 273.093,389.443 272.768 C 389.406 272.639,389.631 272.560,389.943 272.592 C 390.589 272.659,391.546 271.843,391.213 271.509 C 391.092 271.388,391.269 271.289,391.606 271.289 C 391.944 271.289,392.137 271.156,392.037 270.993 C 391.936 270.830,392.487 270.115,393.260 269.404 C 394.034 268.693,394.667 267.901,394.667 267.645 C 394.667 267.389,394.987 266.949,395.378 266.667 C 395.769 266.385,396.089 265.894,396.089 265.577 C 396.089 265.259,396.409 264.710,396.800 264.356 C 397.191 264.002,397.511 263.497,397.511 263.234 C 397.511 262.971,397.671 262.756,397.867 262.756 C 398.062 262.756,398.222 262.276,398.222 261.689 C 398.222 261.102,398.382 260.622,398.578 260.622 C 398.773 260.622,398.933 260.316,398.933 259.941 C 398.933 259.566,399.133 259.193,399.378 259.111 C 399.718 258.998,399.822 256.845,399.822 249.955 C 399.822 243.066,399.718 240.913,399.378 240.800 C 399.133 240.718,398.933 240.345,398.933 239.970 C 398.933 239.596,398.773 239.289,398.578 239.289 C 398.382 239.289,398.222 238.809,398.222 238.222 C 398.222 237.636,398.062 237.156,397.867 237.156 C 397.671 237.156,397.511 236.871,397.511 236.523 C 397.511 236.175,397.191 235.660,396.800 235.378 C 396.409 235.096,396.089 234.619,396.089 234.318 C 396.089 234.017,395.769 233.571,395.378 233.327 C 394.987 233.083,394.667 232.555,394.667 232.154 C 394.667 231.753,394.507 231.524,394.311 231.644 C 394.116 231.765,393.956 231.714,393.956 231.529 C 393.956 231.094,391.129 228.267,390.693 228.267 C 390.509 228.267,390.457 228.107,390.578 227.911 C 390.699 227.716,390.469 227.556,390.068 227.556 C 389.667 227.556,389.140 227.236,388.895 226.844 C 388.651 226.453,388.205 226.133,387.904 226.133 C 387.603 226.133,387.126 225.813,386.844 225.422 C 386.563 225.031,386.047 224.711,385.699 224.711 C 385.351 224.711,385.067 224.551,385.067 224.356 C 385.067 224.160,384.587 224.000,384.000 224.000 C 383.413 224.000,382.933 223.840,382.933 223.644 C 382.933 223.449,382.613 223.289,382.222 223.289 C 381.831 223.289,381.511 223.129,381.511 222.933 C 381.511 222.738,380.881 222.578,380.110 222.578 C 379.339 222.578,378.610 222.418,378.489 222.222 C 378.193 221.744,365.984 221.744,365.689 222.222 C 365.568 222.418,364.919 222.578,364.246 222.578 C 363.573 222.578,363.022 222.738,363.022 222.933 C 363.022 223.129,362.702 223.289,362.311 223.289 C 361.920 223.289,361.600 223.449,361.600 223.644 C 361.600 223.840,361.120 224.000,360.533 224.000 C 359.947 224.000,359.467 224.160,359.467 224.356 C 359.467 224.551,359.251 224.711,358.988 224.711 C 358.725 224.711,358.221 225.031,357.867 225.422 C 357.513 225.813,356.963 226.133,356.646 226.133 C 356.328 226.133,355.837 226.453,355.556 226.844 C 355.274 227.236,354.840 227.556,354.591 227.556 C 354.343 227.556,353.698 227.997,353.159 228.536 C 352.619 229.075,351.458 229.903,350.578 230.375 C 349.698 230.848,348.625 231.607,348.195 232.062 C 347.764 232.517,347.258 232.889,347.069 232.889 C 346.881 232.889,346.274 233.369,345.720 233.956 C 345.166 234.542,344.497 235.022,344.233 235.022 C 343.968 235.022,343.304 235.502,342.756 236.089 C 342.208 236.676,341.566 237.156,341.331 237.156 C 341.095 237.156,340.590 237.552,340.209 238.037 C 339.827 238.522,338.966 239.180,338.294 239.499 C 337.622 239.817,337.161 240.220,337.269 240.395 C 337.376 240.569,337.045 240.711,336.533 240.711 C 336.021 240.711,335.686 240.847,335.789 241.013 C 335.892 241.179,335.581 241.526,335.099 241.784 C 334.617 242.042,334.222 242.386,334.222 242.549 C 334.222 242.711,334.046 242.844,333.832 242.844 C 333.617 242.844,332.977 243.342,332.409 243.949 C 331.842 244.557,331.158 244.969,330.889 244.866 C 330.608 244.758,330.203 245.048,329.935 245.549 C 329.679 246.028,329.059 246.519,328.557 246.642 C 328.055 246.764,327.261 247.320,326.793 247.876 C 326.325 248.433,325.680 248.889,325.360 248.889 C 325.041 248.889,324.549 249.209,324.267 249.600 C 323.985 249.991,323.509 250.313,323.210 250.314 C 322.911 250.316,322.289 250.796,321.827 251.381 C 321.365 251.966,320.765 252.444,320.493 252.444 C 320.222 252.444,320.000 252.604,320.000 252.800 C 320.000 252.996,319.771 253.156,319.491 253.156 C 319.210 253.156,318.880 253.476,318.756 253.867 C 318.631 254.258,318.285 254.578,317.985 254.578 C 317.686 254.578,316.992 255.058,316.444 255.644 C 315.896 256.231,315.256 256.711,315.022 256.711 C 314.788 256.711,314.148 257.191,313.600 257.778 C 313.052 258.364,312.367 258.844,312.079 258.844 C 311.790 258.844,311.355 259.084,311.111 259.378 C 310.868 259.671,310.368 259.911,310.001 259.911 C 309.634 259.911,309.333 260.116,309.333 260.366 C 309.333 260.616,308.989 261.056,308.569 261.344 C 308.149 261.631,307.107 262.387,306.255 263.022 C 305.402 263.658,304.564 264.178,304.393 264.178 C 304.221 264.178,303.702 264.656,303.240 265.241 C 302.778 265.826,302.184 266.306,301.920 266.308 C 301.657 266.310,300.992 266.791,300.444 267.378 C 299.896 267.964,299.228 268.444,298.958 268.444 C 298.689 268.444,298.237 268.764,297.956 269.156 C 297.674 269.547,297.223 269.867,296.953 269.867 C 296.684 269.867,296.015 270.347,295.467 270.933 C 294.919 271.520,294.296 272.000,294.083 272.000 C 293.869 272.000,293.236 272.480,292.676 273.067 C 292.115 273.653,291.384 274.133,291.052 274.133 C 290.719 274.133,290.546 274.293,290.667 274.489 C 290.788 274.684,290.628 274.844,290.311 274.844 C 289.995 274.844,289.835 275.004,289.956 275.200 C 290.076 275.396,289.916 275.556,289.600 275.556 C 289.284 275.556,289.122 275.714,289.242 275.907 C 289.368 276.111,289.220 276.167,288.888 276.039 C 288.513 275.895,288.002 276.201,287.396 276.932 C 286.889 277.544,286.213 278.044,285.894 278.044 C 285.574 278.044,285.082 278.364,284.800 278.756 C 284.518 279.147,284.043 279.468,283.744 279.470 C 283.445 279.472,282.822 279.952,282.360 280.537 C 281.898 281.121,281.258 281.601,280.938 281.603 C 280.618 281.605,279.978 282.085,279.516 282.670 C 279.054 283.255,278.414 283.735,278.093 283.737 C 277.773 283.738,277.133 284.218,276.671 284.803 C 276.209 285.388,275.627 285.867,275.378 285.867 C 275.128 285.867,274.546 286.345,274.084 286.930 C 273.622 287.515,272.964 287.995,272.622 287.997 C 272.280 287.999,272.000 288.160,272.000 288.356 C 272.000 288.591,257.956 288.711,230.578 288.711 C 203.200 288.711,189.156 288.591,189.156 288.356 C 189.156 288.160,188.356 288.000,187.378 288.000 C 186.400 288.000,185.600 287.879,185.600 287.731 C 185.600 287.583,185.095 287.239,184.478 286.966 C 182.417 286.054,179.556 282.807,179.556 281.382 C 179.556 281.111,179.396 280.889,179.200 280.889 C 178.989 280.889,178.844 279.585,178.844 277.689 C 178.844 275.793,178.989 274.489,179.200 274.489 C 179.396 274.489,179.556 274.249,179.556 273.956 C 179.556 273.662,179.716 273.422,179.911 273.422 C 180.107 273.422,180.267 273.083,180.267 272.669 C 180.267 272.255,180.888 271.295,181.647 270.536 C 182.406 269.777,183.366 269.156,183.780 269.156 C 184.195 269.156,184.533 268.996,184.533 268.800 C 184.533 268.604,184.773 268.444,185.067 268.444 C 185.360 268.444,185.600 268.284,185.600 268.089 C 185.600 267.893,186.400 267.733,187.378 267.733 C 188.356 267.733,189.156 267.573,189.156 267.378 C 189.156 267.144,199.519 267.022,219.535 267.022 C 239.404 267.022,249.990 266.899,250.133 266.667 C 250.254 266.471,250.734 266.311,251.200 266.311 C 251.666 266.311,252.146 266.151,252.267 265.956 C 252.388 265.760,252.781 265.600,253.140 265.600 C 254.077 265.600,257.821 263.563,258.398 262.739 C 258.666 262.357,259.041 262.044,259.232 262.044 C 259.684 262.044,262.044 259.684,262.044 259.232 C 262.044 259.041,262.357 258.666,262.739 258.398 C 263.563 257.821,265.600 254.077,265.600 253.140 C 265.600 252.781,265.760 252.388,265.956 252.267 C 266.151 252.146,266.311 251.666,266.311 251.200 C 266.311 250.734,266.471 250.254,266.667 250.133 C 266.879 250.002,267.022 247.707,267.022 244.444 C 267.022 241.182,266.879 238.887,266.667 238.756 C 266.471 238.635,266.311 238.155,266.311 237.689 C 266.311 237.223,266.151 236.743,265.956 236.622 C 265.760 236.501,265.600 236.108,265.600 235.748 C 265.600 234.812,263.563 231.068,262.739 230.491 C 262.357 230.223,262.044 229.848,262.044 229.657 C 262.044 229.205,259.684 226.844,259.232 226.844 C 259.041 226.844,258.666 226.532,258.398 226.149 C 257.821 225.326,254.077 223.289,253.140 223.289 C 252.781 223.289,252.388 223.129,252.267 222.933 C 252.146 222.738,251.666 222.578,251.200 222.578 C 250.734 222.578,250.254 222.418,250.133 222.222 C 249.988 221.987,228.322 221.867,186.290 221.867 C 144.112 221.867,122.667 221.987,122.667 222.222 " stroke="none" fill="#4c5c8c" fill-rule="evenodd"></path><path id="path1" d="M181.513 270.576 C 181.158 270.968,180.984 271.289,181.126 271.289 C 181.501 271.289,182.514 270.218,182.322 270.025 C 182.232 269.936,181.868 270.183,181.513 270.576 " stroke="none" fill="#505c8c" fill-rule="evenodd"></path><path id="path2" d="M181.513 270.576 C 181.158 270.968,180.984 271.289,181.126 271.289 C 181.501 271.289,182.514 270.218,182.322 270.025 C 182.232 269.936,181.868 270.183,181.513 270.576 " stroke="none" fill="#505c8c" fill-rule="evenodd"></path><path id="path3" d="M181.513 270.576 C 181.158 270.968,180.984 271.289,181.126 271.289 C 181.501 271.289,182.514 270.218,182.322 270.025 C 182.232 269.936,181.868 270.183,181.513 270.576 " stroke="none" fill="#505c8c" fill-rule="evenodd"></path><path id="path4" d="M181.513 270.576 C 181.158 270.968,180.984 271.289,181.126 271.289 C 181.501 271.289,182.514 270.218,182.322 270.025 C 182.232 269.936,181.868 270.183,181.513 270.576 " stroke="none" fill="#505c8c" fill-rule="evenodd"></path></g></svg>