<svg id="svg" version="1.1" xmlns="http://www.w3.org/2000/svg" xmlns:xlink="http://www.w3.org/1999/xlink" width="400" height="533.3333333333334" viewBox="0, 0, 400,533.3333333333334"><g id="svgg"><path id="path0" d="M182.081 0.275 C 180.007 0.389,179.096 0.604,178.938 1.018 C 178.780 1.428,178.076 1.600,176.557 1.600 C 174.906 1.600,174.400 1.741,174.400 2.200 C 174.400 2.653,173.911 2.800,172.400 2.800 C 171.300 2.800,170.400 2.980,170.400 3.200 C 170.400 3.420,169.680 3.600,168.800 3.600 C 167.644 3.600,167.200 3.767,167.200 4.200 C 167.200 4.633,166.756 4.800,165.600 4.800 C 164.720 4.800,164.000 4.980,164.000 5.200 C 164.000 5.420,163.550 5.600,163.000 5.600 C 162.378 5.600,162.000 5.827,162.000 6.200 C 162.000 6.633,161.556 6.800,160.400 6.800 C 159.244 6.800,158.800 6.967,158.800 7.400 C 158.800 7.773,158.422 8.000,157.800 8.000 C 157.250 8.000,156.800 8.180,156.800 8.400 C 156.800 8.620,156.350 8.800,155.800 8.800 C 155.178 8.800,154.800 9.027,154.800 9.400 C 154.800 9.773,154.422 10.000,153.800 10.000 C 153.144 10.000,152.800 10.223,152.800 10.650 C 152.800 11.164,152.540 11.248,151.558 11.052 C 150.559 10.852,150.361 10.920,150.545 11.402 C 150.717 11.850,150.477 12.000,149.587 12.000 C 148.825 12.000,148.400 12.205,148.400 12.571 C 148.400 12.885,147.688 13.456,146.819 13.840 C 145.949 14.223,145.330 14.686,145.442 14.869 C 145.555 15.051,145.367 15.200,145.024 15.200 C 144.681 15.200,144.400 15.357,144.400 15.550 C 144.400 15.742,143.831 16.014,143.136 16.153 C 142.441 16.292,141.976 16.509,142.103 16.636 C 142.468 17.001,140.875 18.400,140.095 18.400 C 139.707 18.400,139.052 18.850,138.639 19.400 C 138.226 19.950,137.643 20.400,137.344 20.400 C 137.045 20.400,136.845 20.625,136.900 20.900 C 136.962 21.211,136.584 21.384,135.900 21.357 C 135.219 21.330,134.800 21.520,134.800 21.857 C 134.800 22.156,134.620 22.400,134.400 22.400 C 134.180 22.400,134.000 22.627,134.000 22.904 C 134.000 23.462,132.400 24.628,131.851 24.468 C 131.659 24.413,131.608 24.645,131.738 24.984 C 131.880 25.353,131.756 25.600,131.430 25.600 C 131.131 25.600,130.778 25.881,130.646 26.225 C 130.514 26.569,130.224 26.739,130.003 26.602 C 129.781 26.465,129.600 26.633,129.600 26.976 C 129.600 27.319,129.420 27.600,129.200 27.600 C 128.980 27.600,128.800 27.870,128.800 28.200 C 128.800 28.530,128.549 28.800,128.243 28.800 C 127.936 28.800,127.578 29.081,127.446 29.425 C 127.314 29.769,127.024 29.939,126.803 29.802 C 126.581 29.665,126.400 29.756,126.400 30.005 C 126.400 30.589,125.389 31.600,124.805 31.600 C 124.556 31.600,124.465 31.781,124.602 32.003 C 124.739 32.224,124.569 32.514,124.225 32.646 C 123.881 32.778,123.600 33.136,123.600 33.443 C 123.600 33.749,123.330 34.000,123.000 34.000 C 122.670 34.000,122.400 34.180,122.400 34.400 C 122.400 34.620,122.130 34.800,121.800 34.800 C 121.470 34.800,121.221 34.935,121.247 35.100 C 121.404 36.089,121.045 36.837,119.800 38.119 C 119.030 38.912,118.400 39.851,118.400 40.206 C 118.400 40.561,117.877 41.292,117.238 41.829 C 116.438 42.503,116.141 43.054,116.285 43.603 C 116.408 44.074,116.296 44.400,116.011 44.400 C 115.337 44.400,114.029 46.052,114.013 46.924 C 114.006 47.322,113.820 47.536,113.600 47.400 C 113.380 47.264,113.200 47.414,113.200 47.734 C 113.200 48.053,112.930 48.418,112.600 48.545 C 112.270 48.671,112.000 49.225,112.000 49.775 C 112.000 50.546,111.846 50.716,111.331 50.518 C 110.827 50.325,110.724 50.424,110.914 50.919 C 111.052 51.281,110.897 51.846,110.569 52.174 C 110.240 52.503,109.978 52.868,109.986 52.986 C 110.072 54.280,109.904 54.800,109.400 54.800 C 109.027 54.800,108.800 55.178,108.800 55.800 C 108.800 56.350,108.620 56.800,108.400 56.800 C 108.180 56.800,108.000 57.250,108.000 57.800 C 108.000 58.422,107.773 58.800,107.400 58.800 C 106.967 58.800,106.800 59.244,106.800 60.400 C 106.800 61.556,106.633 62.000,106.200 62.000 C 105.827 62.000,105.600 62.378,105.600 63.000 C 105.600 63.550,105.420 64.000,105.200 64.000 C 104.980 64.000,104.800 64.446,104.800 64.991 L 104.800 65.983 79.333 66.091 C 59.393 66.176,53.830 66.309,53.700 66.700 C 53.597 67.010,52.784 67.200,51.567 67.200 C 50.085 67.200,49.600 67.348,49.600 67.800 C 49.600 68.261,49.089 68.400,47.400 68.400 C 46.190 68.400,45.200 68.569,45.200 68.776 C 45.200 68.983,44.525 69.208,43.700 69.276 C 42.762 69.353,42.237 69.587,42.300 69.900 C 42.362 70.211,41.947 70.400,41.200 70.400 C 40.453 70.400,40.038 70.589,40.100 70.900 C 40.155 71.175,39.892 71.402,39.515 71.405 C 39.139 71.407,38.608 71.632,38.335 71.905 C 38.063 72.177,37.426 72.400,36.920 72.400 C 36.369 72.400,36.000 72.641,36.000 73.000 C 36.000 73.373,35.622 73.600,35.000 73.600 C 34.450 73.600,34.000 73.780,34.000 74.000 C 34.000 74.220,33.441 74.400,32.757 74.400 C 31.817 74.400,31.570 74.546,31.745 75.000 C 31.912 75.436,31.698 75.600,30.959 75.600 C 29.915 75.600,28.800 76.411,28.800 77.171 C 28.800 77.407,28.350 77.600,27.800 77.600 C 27.178 77.600,26.800 77.827,26.800 78.200 C 26.800 78.530,26.549 78.800,26.243 78.800 C 25.936 78.800,25.578 79.081,25.446 79.425 C 25.314 79.769,25.024 79.939,24.803 79.802 C 24.581 79.665,24.400 79.833,24.400 80.176 C 24.400 80.575,24.039 80.800,23.400 80.800 C 22.850 80.800,22.400 80.980,22.400 81.200 C 22.400 81.420,22.111 81.600,21.757 81.600 C 21.350 81.600,21.199 81.820,21.345 82.200 C 21.485 82.565,21.345 82.800,20.987 82.800 C 20.664 82.800,20.400 83.070,20.400 83.400 C 20.400 83.730,20.207 84.000,19.971 84.000 C 19.418 84.000,18.400 85.018,18.400 85.571 C 18.400 85.807,18.130 86.000,17.800 86.000 C 17.470 86.000,17.200 86.180,17.200 86.400 C 17.200 86.620,16.919 86.800,16.576 86.800 C 16.233 86.800,16.065 86.981,16.202 87.203 C 16.339 87.424,16.169 87.714,15.825 87.846 C 15.481 87.978,15.200 88.336,15.200 88.643 C 15.200 88.949,14.930 89.200,14.600 89.200 C 14.227 89.200,14.000 89.578,14.000 90.200 C 14.000 90.750,13.820 91.200,13.600 91.200 C 13.380 91.200,13.200 91.431,13.200 91.714 C 13.200 91.996,12.660 92.546,12.000 92.936 C 11.321 93.337,10.800 93.983,10.800 94.423 C 10.800 94.850,10.620 95.200,10.400 95.200 C 10.180 95.200,10.000 95.451,10.000 95.757 C 10.000 96.064,9.730 96.418,9.400 96.545 C 9.070 96.671,8.800 97.141,8.800 97.587 C 8.800 98.034,8.620 98.400,8.400 98.400 C 8.180 98.400,8.000 98.856,8.000 99.413 C 8.000 99.969,7.730 100.529,7.400 100.655 C 7.070 100.782,6.800 101.232,6.800 101.655 C 6.800 102.079,6.568 102.514,6.284 102.623 C 6.001 102.732,5.739 103.219,5.702 103.705 C 5.665 104.191,5.448 104.651,5.218 104.727 C 4.988 104.804,4.800 105.282,4.800 105.791 C 4.800 106.299,4.530 106.818,4.200 106.945 C 3.870 107.071,3.600 107.530,3.600 107.964 C 3.600 108.398,3.420 108.864,3.200 109.000 C 2.980 109.136,2.800 109.867,2.800 110.624 C 2.800 111.558,2.614 112.000,2.221 112.000 C 1.804 112.000,1.608 112.589,1.521 114.100 C 1.454 115.266,1.216 116.168,0.986 116.129 C 0.282 116.007,0.297 112.903,0.125 296.800 C -0.043 476.464,-0.014 482.329,1.037 483.379 C 1.358 483.701,1.600 484.734,1.600 485.784 C 1.600 487.052,1.787 487.697,2.200 487.855 C 2.567 487.996,2.800 488.603,2.800 489.419 C 2.800 490.153,2.980 490.864,3.200 491.000 C 3.420 491.136,3.600 491.687,3.600 492.224 C 3.600 492.825,3.831 493.200,4.200 493.200 C 4.573 493.200,4.800 493.578,4.800 494.200 C 4.800 494.750,4.980 495.200,5.200 495.200 C 5.420 495.200,5.600 495.650,5.600 496.200 C 5.600 496.822,5.827 497.200,6.200 497.200 C 6.573 497.200,6.800 497.578,6.800 498.200 C 6.800 498.822,7.027 499.200,7.400 499.200 C 7.769 499.200,8.000 499.575,8.000 500.176 C 8.000 500.713,8.180 501.264,8.400 501.400 C 8.620 501.536,8.800 502.087,8.800 502.624 C 8.800 503.161,8.993 503.600,9.229 503.600 C 9.967 503.600,10.884 504.787,10.943 505.819 C 10.978 506.431,11.191 506.735,11.500 506.617 C 11.775 506.511,12.000 506.689,12.000 507.013 C 12.000 507.336,12.270 507.600,12.600 507.600 C 12.930 507.600,13.200 507.855,13.200 508.167 C 13.200 508.478,13.388 508.796,13.618 508.873 C 13.848 508.949,14.066 509.414,14.103 509.906 C 14.140 510.398,14.402 510.800,14.685 510.800 C 14.968 510.800,15.200 511.081,15.200 511.424 C 15.200 511.767,15.380 511.936,15.600 511.800 C 15.820 511.664,16.000 511.833,16.000 512.176 C 16.000 512.519,16.270 512.800,16.600 512.800 C 16.930 512.800,17.200 513.081,17.200 513.424 C 17.200 513.767,17.348 513.956,17.529 513.844 C 17.896 513.617,19.200 514.990,19.200 515.605 C 19.200 515.822,19.470 516.000,19.800 516.000 C 20.130 516.000,20.400 516.300,20.400 516.667 C 20.400 517.033,20.505 517.228,20.633 517.100 C 20.918 516.815,22.400 518.242,22.400 518.800 C 22.400 519.020,22.535 519.179,22.700 519.153 C 23.691 518.996,24.810 519.260,24.600 519.600 C 24.464 519.820,24.633 520.000,24.976 520.000 C 25.319 520.000,25.600 520.270,25.600 520.600 C 25.600 520.930,25.780 521.200,26.000 521.200 C 26.220 521.200,26.400 521.466,26.400 521.790 C 26.400 522.232,26.701 522.320,27.600 522.140 C 28.539 521.952,28.800 522.041,28.800 522.550 C 28.800 522.908,28.980 523.200,29.200 523.200 C 29.420 523.200,29.600 523.470,29.600 523.800 C 29.600 524.200,30.000 524.400,30.800 524.400 C 31.460 524.400,32.000 524.580,32.000 524.800 C 32.000 525.020,32.450 525.200,33.000 525.200 C 33.602 525.200,34.000 525.428,34.000 525.773 C 34.000 526.102,34.470 526.401,35.100 526.473 C 35.719 526.545,36.156 526.819,36.100 527.100 C 36.045 527.375,36.362 527.600,36.805 527.600 C 37.248 527.600,37.923 527.767,38.305 527.971 C 38.687 528.175,39.326 528.443,39.725 528.568 C 40.124 528.692,40.339 528.976,40.202 529.197 C 40.055 529.435,40.465 529.600,41.200 529.600 C 41.886 529.600,42.342 529.769,42.214 529.977 C 42.086 530.184,42.751 530.409,43.691 530.477 C 44.796 530.556,45.365 530.777,45.300 531.100 C 45.230 531.451,45.847 531.600,47.367 531.600 C 48.691 531.600,49.595 531.786,49.693 532.078 C 50.027 533.082,59.653 533.151,200.000 533.151 C 340.347 533.151,349.973 533.082,350.307 532.078 C 350.405 531.786,351.309 531.600,352.633 531.600 C 354.153 531.600,354.770 531.451,354.700 531.100 C 354.635 530.777,355.204 530.556,356.309 530.477 C 357.249 530.409,357.914 530.184,357.786 529.977 C 357.658 529.769,358.114 529.600,358.800 529.600 C 359.535 529.600,359.945 529.435,359.798 529.197 C 359.661 528.976,359.876 528.692,360.275 528.568 C 360.674 528.443,361.313 528.175,361.695 527.971 C 362.077 527.767,362.752 527.600,363.195 527.600 C 363.638 527.600,363.955 527.375,363.900 527.100 C 363.844 526.819,364.281 526.545,364.900 526.473 C 365.530 526.401,366.000 526.102,366.000 525.773 C 366.000 525.428,366.398 525.200,367.000 525.200 C 367.550 525.200,368.000 525.020,368.000 524.800 C 368.000 524.580,368.540 524.400,369.200 524.400 C 370.000 524.400,370.400 524.200,370.400 523.800 C 370.400 523.470,370.580 523.200,370.800 523.200 C 371.020 523.200,371.200 522.908,371.200 522.550 C 371.200 522.041,371.461 521.952,372.400 522.140 C 373.299 522.320,373.600 522.232,373.600 521.790 C 373.600 521.466,373.780 521.200,374.000 521.200 C 374.220 521.200,374.400 520.930,374.400 520.600 C 374.400 520.270,374.681 520.000,375.024 520.000 C 375.367 520.000,375.536 519.820,375.400 519.600 C 375.190 519.260,376.309 518.996,377.300 519.153 C 377.465 519.179,377.600 519.020,377.600 518.800 C 377.600 518.242,379.082 516.815,379.367 517.100 C 379.495 517.228,379.600 517.033,379.600 516.667 C 379.600 516.300,379.870 516.000,380.200 516.000 C 380.530 516.000,380.800 515.822,380.800 515.605 C 380.800 514.990,382.104 513.617,382.471 513.844 C 382.652 513.956,382.800 513.767,382.800 513.424 C 382.800 513.081,383.070 512.800,383.400 512.800 C 383.730 512.800,384.000 512.519,384.000 512.176 C 384.000 511.833,384.180 511.664,384.400 511.800 C 384.620 511.936,384.800 511.767,384.800 511.424 C 384.800 511.081,385.032 510.800,385.315 510.800 C 385.598 510.800,385.860 510.398,385.897 509.906 C 385.934 509.414,386.152 508.949,386.382 508.873 C 386.612 508.796,386.800 508.478,386.800 508.167 C 386.800 507.855,387.070 507.600,387.400 507.600 C 387.730 507.600,388.000 507.336,388.000 507.013 C 388.000 506.689,388.225 506.511,388.500 506.617 C 388.809 506.735,389.022 506.431,389.057 505.819 C 389.116 504.787,390.033 503.600,390.771 503.600 C 391.007 503.600,391.200 503.161,391.200 502.624 C 391.200 502.087,391.380 501.536,391.600 501.400 C 391.820 501.264,392.000 500.713,392.000 500.176 C 392.000 499.575,392.231 499.200,392.600 499.200 C 392.973 499.200,393.200 498.822,393.200 498.200 C 393.200 497.578,393.427 497.200,393.800 497.200 C 394.173 497.200,394.400 496.822,394.400 496.200 C 394.400 495.650,394.580 495.200,394.800 495.200 C 395.020 495.200,395.200 494.750,395.200 494.200 C 395.200 493.578,395.427 493.200,395.800 493.200 C 396.169 493.200,396.400 492.825,396.400 492.224 C 396.400 491.687,396.580 491.136,396.800 491.000 C 397.020 490.864,397.200 490.153,397.200 489.419 C 397.200 488.603,397.433 487.996,397.800 487.855 C 398.213 487.697,398.400 487.052,398.400 485.784 C 398.400 484.734,398.642 483.701,398.963 483.379 C 400.014 482.329,400.043 476.464,399.875 296.800 C 399.703 112.903,399.718 116.007,399.014 116.129 C 398.784 116.168,398.546 115.266,398.479 114.100 C 398.392 112.589,398.196 112.000,397.779 112.000 C 397.386 112.000,397.200 111.558,397.200 110.624 C 397.200 109.867,397.020 109.136,396.800 109.000 C 396.580 108.864,396.400 108.398,396.400 107.964 C 396.400 107.530,396.130 107.071,395.800 106.945 C 395.470 106.818,395.200 106.299,395.200 105.791 C 395.200 105.282,395.012 104.804,394.782 104.727 C 394.552 104.651,394.335 104.191,394.298 103.705 C 394.261 103.219,393.999 102.732,393.716 102.623 C 393.432 102.514,393.200 102.079,393.200 101.655 C 393.200 101.232,392.930 100.782,392.600 100.655 C 392.270 100.529,392.000 99.969,392.000 99.413 C 392.000 98.856,391.820 98.400,391.600 98.400 C 391.380 98.400,391.200 98.034,391.200 97.587 C 391.200 97.141,390.930 96.671,390.600 96.545 C 390.270 96.418,390.000 96.064,390.000 95.757 C 390.000 95.451,389.820 95.200,389.600 95.200 C 389.380 95.200,389.200 94.850,389.200 94.423 C 389.200 93.983,388.679 93.337,388.000 92.936 C 387.340 92.546,386.800 91.996,386.800 91.714 C 386.800 91.431,386.620 91.200,386.400 91.200 C 386.180 91.200,386.000 90.750,386.000 90.200 C 386.000 89.578,385.773 89.200,385.400 89.200 C 385.070 89.200,384.800 88.949,384.800 88.643 C 384.800 88.336,384.519 87.978,384.175 87.846 C 383.831 87.714,383.661 87.424,383.798 87.203 C 383.935 86.981,383.767 86.800,383.424 86.800 C 383.081 86.800,382.800 86.620,382.800 86.400 C 382.800 86.180,382.530 86.000,382.200 86.000 C 381.870 86.000,381.600 85.807,381.600 85.571 C 381.600 85.018,380.582 84.000,380.029 84.000 C 379.793 84.000,379.600 83.730,379.600 83.400 C 379.600 83.070,379.336 82.800,379.013 82.800 C 378.655 82.800,378.515 82.565,378.655 82.200 C 378.801 81.820,378.650 81.600,378.243 81.600 C 377.889 81.600,377.600 81.420,377.600 81.200 C 377.600 80.980,377.150 80.800,376.600 80.800 C 375.961 80.800,375.600 80.575,375.600 80.176 C 375.600 79.833,375.419 79.665,375.197 79.802 C 374.976 79.939,374.686 79.769,374.554 79.425 C 374.422 79.081,374.064 78.800,373.757 78.800 C 373.451 78.800,373.200 78.530,373.200 78.200 C 373.200 77.827,372.822 77.600,372.200 77.600 C 371.650 77.600,371.200 77.407,371.200 77.171 C 371.200 76.411,370.085 75.600,369.041 75.600 C 368.302 75.600,368.088 75.436,368.255 75.000 C 368.430 74.546,368.183 74.400,367.243 74.400 C 366.559 74.400,366.000 74.220,366.000 74.000 C 366.000 73.780,365.550 73.600,365.000 73.600 C 364.378 73.600,364.000 73.373,364.000 73.000 C 364.000 72.641,363.631 72.400,363.080 72.400 C 362.574 72.400,361.937 72.177,361.665 71.905 C 361.392 71.632,360.861 71.407,360.485 71.405 C 360.108 71.402,359.845 71.175,359.900 70.900 C 359.962 70.589,359.547 70.400,358.800 70.400 C 358.053 70.400,357.638 70.211,357.700 69.900 C 357.765 69.577,357.196 69.356,356.091 69.277 C 355.151 69.209,354.486 68.984,354.614 68.777 C 354.749 68.558,353.912 68.400,352.624 68.400 C 350.914 68.400,350.400 68.261,350.400 67.800 C 350.400 67.354,349.930 67.200,348.571 67.200 C 347.479 67.200,346.501 66.958,346.143 66.600 C 345.622 66.079,342.213 66.000,320.371 66.000 L 295.200 66.000 295.200 65.000 C 295.200 64.450,295.020 64.000,294.800 64.000 C 294.580 64.000,294.400 63.550,294.400 63.000 C 294.400 62.378,294.173 62.000,293.800 62.000 C 293.367 62.000,293.200 61.556,293.200 60.400 C 293.200 59.244,293.033 58.800,292.600 58.800 C 292.227 58.800,292.000 58.422,292.000 57.800 C 292.000 57.250,291.820 56.800,291.600 56.800 C 291.380 56.800,291.200 56.350,291.200 55.800 C 291.200 55.178,290.973 54.800,290.600 54.800 C 290.267 54.800,290.000 54.444,290.000 54.000 C 290.000 52.883,289.927 52.670,289.346 52.088 C 289.064 51.807,288.948 51.281,289.086 50.919 C 289.276 50.424,289.173 50.325,288.669 50.518 C 288.154 50.716,288.000 50.546,288.000 49.775 C 288.000 49.225,287.730 48.671,287.400 48.545 C 287.070 48.418,286.800 48.053,286.800 47.734 C 286.800 47.414,286.620 47.264,286.400 47.400 C 286.180 47.536,285.994 47.322,285.987 46.924 C 285.971 46.052,284.663 44.400,283.989 44.400 C 283.704 44.400,283.592 44.074,283.715 43.603 C 283.859 43.054,283.562 42.503,282.762 41.829 C 282.123 41.292,281.600 40.561,281.600 40.206 C 281.600 39.851,280.970 38.912,280.200 38.119 C 278.955 36.837,278.596 36.089,278.753 35.100 C 278.779 34.935,278.530 34.800,278.200 34.800 C 277.870 34.800,277.600 34.620,277.600 34.400 C 277.600 34.180,277.330 34.000,277.000 34.000 C 276.670 34.000,276.400 33.749,276.400 33.443 C 276.400 33.136,276.119 32.778,275.775 32.646 C 275.431 32.514,275.261 32.224,275.398 32.003 C 275.535 31.781,275.444 31.600,275.195 31.600 C 274.611 31.600,273.600 30.589,273.600 30.005 C 273.600 29.756,273.419 29.665,273.197 29.802 C 272.976 29.939,272.686 29.769,272.554 29.425 C 272.422 29.081,272.064 28.800,271.757 28.800 C 271.451 28.800,271.200 28.530,271.200 28.200 C 271.200 27.870,271.020 27.600,270.800 27.600 C 270.580 27.600,270.400 27.319,270.400 26.976 C 270.400 26.633,270.219 26.465,269.997 26.602 C 269.776 26.739,269.486 26.569,269.354 26.225 C 269.222 25.881,268.869 25.600,268.570 25.600 C 268.244 25.600,268.120 25.353,268.262 24.984 C 268.392 24.645,268.341 24.413,268.149 24.468 C 267.600 24.628,266.000 23.462,266.000 22.904 C 266.000 22.627,265.820 22.400,265.600 22.400 C 265.380 22.400,265.200 22.156,265.200 21.857 C 265.200 21.520,264.781 21.330,264.100 21.357 C 263.416 21.384,263.038 21.211,263.100 20.900 C 263.155 20.625,262.955 20.400,262.656 20.400 C 262.357 20.400,261.774 19.950,261.361 19.400 C 260.948 18.850,260.293 18.400,259.905 18.400 C 259.145 18.400,257.528 17.005,257.881 16.653 C 257.998 16.535,257.578 16.311,256.947 16.156 C 256.316 16.000,255.530 15.569,255.200 15.198 C 254.870 14.827,253.925 14.206,253.100 13.816 C 252.275 13.427,251.600 12.859,251.600 12.554 C 251.600 12.206,251.158 12.000,250.413 12.000 C 249.523 12.000,249.283 11.850,249.455 11.402 C 249.639 10.920,249.441 10.852,248.442 11.052 C 247.460 11.248,247.200 11.164,247.200 10.650 C 247.200 10.223,246.856 10.000,246.200 10.000 C 245.578 10.000,245.200 9.773,245.200 9.400 C 245.200 9.027,244.822 8.800,244.200 8.800 C 243.650 8.800,243.200 8.620,243.200 8.400 C 243.200 8.180,242.750 8.000,242.200 8.000 C 241.578 8.000,241.200 7.773,241.200 7.400 C 241.200 6.967,240.756 6.800,239.600 6.800 C 238.444 6.800,238.000 6.633,238.000 6.200 C 238.000 5.827,237.622 5.600,237.000 5.600 C 236.450 5.600,236.000 5.420,236.000 5.200 C 236.000 4.980,235.280 4.800,234.400 4.800 C 233.244 4.800,232.800 4.633,232.800 4.200 C 232.800 3.767,232.356 3.600,231.200 3.600 C 230.320 3.600,229.600 3.420,229.600 3.200 C 229.600 2.980,228.700 2.800,227.600 2.800 C 226.089 2.800,225.600 2.653,225.600 2.200 C 225.600 1.744,225.105 1.600,223.544 1.600 C 222.055 1.600,221.348 1.409,220.981 0.907 C 220.481 0.222,191.552 -0.247,182.081 0.275 M206.800 68.600 C 206.800 69.060,207.310 69.200,208.987 69.200 C 210.679 69.200,211.127 69.325,210.964 69.750 C 210.816 70.135,211.085 70.300,211.860 70.300 C 212.469 70.300,213.034 70.502,213.117 70.750 C 213.199 70.998,213.682 71.200,214.191 71.200 C 214.699 71.200,215.218 71.470,215.345 71.800 C 215.471 72.130,215.941 72.400,216.387 72.400 C 216.857 72.400,217.200 72.663,217.200 73.024 C 217.200 73.367,217.381 73.535,217.603 73.398 C 217.824 73.261,218.114 73.431,218.246 73.775 C 218.378 74.119,218.916 74.400,219.443 74.400 C 220.043 74.400,220.400 74.633,220.400 75.024 C 220.400 75.367,220.580 75.536,220.800 75.400 C 221.020 75.264,221.200 75.433,221.200 75.776 C 221.200 76.119,221.374 76.400,221.587 76.400 C 222.131 76.400,224.769 79.098,224.493 79.373 C 224.369 79.498,224.567 79.600,224.933 79.600 C 225.378 79.600,225.600 79.933,225.600 80.600 C 225.600 81.150,225.780 81.600,226.000 81.600 C 226.220 81.600,226.400 81.870,226.400 82.200 C 226.400 82.530,226.621 82.755,226.891 82.700 C 227.160 82.645,227.444 83.016,227.522 83.524 C 227.599 84.033,227.918 84.547,228.231 84.667 C 228.544 84.787,228.800 85.316,228.800 85.843 C 228.800 86.369,228.980 86.800,229.200 86.800 C 229.420 86.800,229.600 87.359,229.600 88.043 C 229.600 88.983,229.746 89.230,230.200 89.055 C 230.683 88.870,230.800 89.208,230.800 90.789 C 230.800 91.869,230.980 92.864,231.200 93.000 C 231.441 93.149,231.600 95.930,231.600 100.000 C 231.600 104.070,231.441 106.851,231.200 107.000 C 230.980 107.136,230.800 108.147,230.800 109.247 C 230.800 110.438,230.643 111.150,230.412 111.007 C 230.198 110.875,229.909 111.225,229.768 111.784 C 229.628 112.343,229.353 112.800,229.157 112.800 C 228.960 112.800,228.800 113.340,228.800 114.000 C 228.800 114.800,228.600 115.200,228.200 115.200 C 227.827 115.200,227.600 115.578,227.600 116.200 C 227.600 116.750,227.420 117.200,227.200 117.200 C 226.980 117.200,226.800 117.470,226.800 117.800 C 226.800 118.130,226.549 118.400,226.243 118.400 C 225.936 118.400,225.578 118.681,225.446 119.025 C 225.314 119.369,225.062 119.562,224.886 119.453 C 224.710 119.344,224.537 119.645,224.501 120.122 C 224.465 120.598,224.248 121.051,224.018 121.127 C 223.788 121.204,223.600 121.522,223.600 121.833 C 223.600 122.145,223.330 122.400,223.000 122.400 C 222.670 122.400,222.400 122.670,222.400 123.000 C 222.400 123.330,222.130 123.600,221.800 123.600 C 221.470 123.600,221.200 123.780,221.200 124.000 C 221.200 124.220,220.750 124.400,220.200 124.400 C 219.578 124.400,219.200 124.627,219.200 125.000 C 219.200 125.330,219.020 125.600,218.800 125.600 C 218.580 125.600,218.400 125.881,218.400 126.224 C 218.400 126.567,218.219 126.735,217.997 126.598 C 217.776 126.461,217.486 126.631,217.354 126.975 C 217.222 127.319,216.768 127.600,216.345 127.600 C 215.921 127.600,215.471 127.870,215.345 128.200 C 215.218 128.530,214.684 128.800,214.157 128.800 C 213.631 128.800,213.200 128.980,213.200 129.200 C 213.200 129.420,212.853 129.600,212.429 129.600 C 212.004 129.600,211.387 129.870,211.057 130.200 C 210.723 130.534,209.745 130.800,208.852 130.800 C 207.969 130.800,207.136 130.980,207.000 131.200 C 206.851 131.441,204.070 131.600,200.000 131.600 C 195.930 131.600,193.149 131.441,193.000 131.200 C 192.864 130.980,192.031 130.800,191.148 130.800 C 190.255 130.800,189.277 130.534,188.943 130.200 C 188.613 129.870,187.996 129.600,187.571 129.600 C 187.147 129.600,186.800 129.420,186.800 129.200 C 186.800 128.980,186.369 128.800,185.843 128.800 C 185.316 128.800,184.782 128.530,184.655 128.200 C 184.529 127.870,184.079 127.600,183.655 127.600 C 183.232 127.600,182.778 127.319,182.646 126.975 C 182.514 126.631,182.224 126.461,182.003 126.598 C 181.781 126.735,181.600 126.567,181.600 126.224 C 181.600 125.825,181.239 125.600,180.600 125.600 C 180.050 125.600,179.600 125.407,179.600 125.171 C 179.600 124.618,178.582 123.600,178.029 123.600 C 177.793 123.600,177.600 123.330,177.600 123.000 C 177.600 122.670,177.330 122.400,177.000 122.400 C 176.670 122.400,176.400 122.160,176.400 121.868 C 176.400 121.575,175.950 121.094,175.400 120.800 C 174.772 120.464,174.400 119.918,174.400 119.332 C 174.400 118.770,174.162 118.400,173.800 118.400 C 173.470 118.400,173.200 118.130,173.200 117.800 C 173.200 117.470,173.020 117.200,172.800 117.200 C 172.580 117.200,172.400 116.750,172.400 116.200 C 172.400 115.578,172.173 115.200,171.800 115.200 C 171.400 115.200,171.200 114.800,171.200 114.000 C 171.200 113.340,171.040 112.800,170.843 112.800 C 170.647 112.800,170.372 112.343,170.232 111.784 C 170.091 111.225,169.802 110.875,169.588 111.007 C 169.357 111.150,169.200 110.438,169.200 109.247 C 169.200 108.147,169.020 107.136,168.800 107.000 C 168.559 106.851,168.400 104.070,168.400 100.000 C 168.400 95.930,168.559 93.149,168.800 93.000 C 169.020 92.864,169.200 91.869,169.200 90.789 C 169.200 89.208,169.317 88.870,169.800 89.055 C 170.254 89.230,170.400 88.983,170.400 88.043 C 170.400 87.359,170.580 86.800,170.800 86.800 C 171.020 86.800,171.200 86.369,171.200 85.843 C 171.200 85.316,171.456 84.787,171.769 84.667 C 172.082 84.547,172.401 84.033,172.478 83.524 C 172.556 83.016,172.840 82.645,173.109 82.700 C 173.379 82.755,173.600 82.530,173.600 82.200 C 173.600 81.870,173.780 81.600,174.000 81.600 C 174.220 81.600,174.400 81.150,174.400 80.600 C 174.400 79.933,174.622 79.600,175.067 79.600 C 175.433 79.600,175.631 79.498,175.507 79.373 C 175.231 79.098,177.869 76.400,178.413 76.400 C 178.626 76.400,178.800 76.119,178.800 75.776 C 178.800 75.433,178.980 75.264,179.200 75.400 C 179.420 75.536,179.600 75.367,179.600 75.024 C 179.600 74.633,179.957 74.400,180.557 74.400 C 181.084 74.400,181.622 74.119,181.754 73.775 C 181.886 73.431,182.176 73.261,182.397 73.398 C 182.619 73.535,182.800 73.367,182.800 73.024 C 182.800 72.663,183.143 72.400,183.613 72.400 C 184.059 72.400,184.529 72.130,184.655 71.800 C 184.782 71.470,185.301 71.200,185.809 71.200 C 186.318 71.200,186.801 70.998,186.883 70.750 C 186.966 70.502,187.531 70.300,188.140 70.300 C 188.915 70.300,189.184 70.135,189.036 69.750 C 188.873 69.325,189.321 69.200,191.013 69.200 C 192.690 69.200,193.200 69.060,193.200 68.600 C 193.200 68.090,194.222 68.000,200.000 68.000 C 205.778 68.000,206.800 68.090,206.800 68.600 M106.800 260.400 C 106.800 260.620,107.250 260.800,107.800 260.800 C 108.422 260.800,108.800 261.027,108.800 261.400 C 108.800 261.773,109.178 262.000,109.800 262.000 C 110.350 262.000,110.800 262.180,110.800 262.400 C 110.800 262.620,111.340 262.800,112.000 262.800 C 112.800 262.800,113.200 263.000,113.200 263.400 C 113.200 263.730,113.380 264.000,113.600 264.000 C 113.820 264.000,114.001 264.225,114.003 264.500 C 114.006 265.016,115.761 266.000,116.680 266.000 C 116.968 266.000,117.200 266.446,117.200 267.000 C 117.200 267.622,117.427 268.000,117.800 268.000 C 118.130 268.000,118.400 268.270,118.400 268.600 C 118.400 268.930,118.580 269.200,118.800 269.200 C 119.020 269.200,119.200 269.470,119.200 269.800 C 119.200 270.130,119.425 270.355,119.700 270.300 C 119.982 270.244,120.256 270.683,120.327 271.307 C 120.397 271.916,120.622 272.310,120.827 272.183 C 121.032 272.056,121.200 272.311,121.200 272.748 C 121.200 273.185,121.470 273.813,121.800 274.143 C 122.130 274.473,122.400 275.276,122.400 275.929 C 122.400 276.614,122.653 277.212,123.000 277.345 C 123.495 277.535,123.600 278.592,123.600 283.411 C 123.600 287.082,123.456 289.158,123.212 289.007 C 122.853 288.786,122.659 289.291,122.292 291.400 C 122.215 291.840,121.916 292.148,121.627 292.084 C 121.313 292.014,121.191 292.199,121.323 292.545 C 121.445 292.862,121.293 293.455,120.985 293.861 C 120.677 294.268,120.420 295.005,120.413 295.500 C 120.406 295.995,120.207 296.400,119.971 296.400 C 119.418 296.400,118.400 297.418,118.400 297.971 C 118.400 298.207,118.130 298.400,117.800 298.400 C 117.470 298.400,117.200 298.670,117.200 299.000 C 117.200 299.330,117.007 299.600,116.771 299.600 C 116.218 299.600,115.200 300.618,115.200 301.171 C 115.200 301.407,114.930 301.600,114.600 301.600 C 114.270 301.600,114.000 301.881,114.000 302.224 C 114.000 302.567,113.820 302.736,113.600 302.600 C 113.380 302.464,113.200 302.633,113.200 302.976 C 113.200 303.367,112.843 303.600,112.243 303.600 C 111.716 303.600,111.182 303.870,111.055 304.200 C 110.929 304.530,110.470 304.800,110.036 304.800 C 109.602 304.800,109.136 304.980,109.000 305.200 C 108.864 305.420,108.245 305.600,107.625 305.600 C 107.005 305.600,106.274 305.870,106.000 306.200 C 105.602 306.680,104.403 306.800,100.000 306.800 C 95.597 306.800,94.398 306.680,94.000 306.200 C 93.726 305.870,92.995 305.600,92.375 305.600 C 91.755 305.600,91.136 305.420,91.000 305.200 C 90.864 304.980,90.398 304.800,89.964 304.800 C 89.530 304.800,89.071 304.530,88.945 304.200 C 88.818 303.870,88.284 303.600,87.757 303.600 C 87.157 303.600,86.800 303.367,86.800 302.976 C 86.800 302.633,86.620 302.464,86.400 302.600 C 86.180 302.736,86.000 302.567,86.000 302.224 C 86.000 301.881,85.730 301.600,85.400 301.600 C 85.070 301.600,84.800 301.330,84.800 301.000 C 84.800 300.627,84.422 300.400,83.800 300.400 C 83.000 300.400,82.800 300.200,82.800 299.400 C 82.800 298.778,82.573 298.400,82.200 298.400 C 81.870 298.400,81.600 298.207,81.600 297.971 C 81.600 297.418,80.582 296.400,80.029 296.400 C 79.793 296.400,79.594 295.995,79.587 295.500 C 79.580 295.005,79.323 294.268,79.015 293.861 C 78.707 293.455,78.555 292.862,78.677 292.545 C 78.809 292.199,78.687 292.014,78.373 292.084 C 78.084 292.148,77.785 291.840,77.708 291.400 C 77.341 289.291,77.147 288.786,76.788 289.007 C 76.544 289.158,76.400 287.082,76.400 283.411 C 76.400 278.592,76.505 277.535,77.000 277.345 C 77.347 277.212,77.600 276.614,77.600 275.929 C 77.600 275.276,77.870 274.473,78.200 274.143 C 78.530 273.813,78.800 273.185,78.800 272.748 C 78.800 272.311,78.968 272.056,79.173 272.183 C 79.378 272.310,79.603 271.916,79.673 271.307 C 79.744 270.683,80.018 270.244,80.300 270.300 C 80.575 270.355,80.800 270.130,80.800 269.800 C 80.800 269.470,80.980 269.200,81.200 269.200 C 81.420 269.200,81.600 268.930,81.600 268.600 C 81.600 268.270,81.870 268.000,82.200 268.000 C 82.573 268.000,82.800 267.622,82.800 267.000 C 82.800 266.446,83.032 266.000,83.320 266.000 C 84.239 266.000,85.994 265.016,85.997 264.500 C 85.999 264.225,86.180 264.000,86.400 264.000 C 86.620 264.000,86.800 263.730,86.800 263.400 C 86.800 263.000,87.200 262.800,88.000 262.800 C 88.660 262.800,89.200 262.620,89.200 262.400 C 89.200 262.180,89.650 262.000,90.200 262.000 C 90.822 262.000,91.200 261.773,91.200 261.400 C 91.200 261.027,91.578 260.800,92.200 260.800 C 92.750 260.800,93.200 260.620,93.200 260.400 C 93.200 260.149,95.733 260.000,100.000 260.000 C 104.267 260.000,106.800 260.149,106.800 260.400 M316.200 267.600 C 316.045 267.851,316.933 268.000,318.589 268.000 C 320.563 268.000,321.283 268.151,321.455 268.600 C 321.582 268.930,322.116 269.200,322.643 269.200 C 323.227 269.200,323.600 269.434,323.600 269.800 C 323.600 270.140,323.959 270.400,324.429 270.400 C 325.327 270.400,326.400 271.268,326.400 271.995 C 326.400 272.244,326.581 272.335,326.803 272.198 C 327.024 272.061,327.314 272.231,327.446 272.575 C 327.578 272.919,327.936 273.200,328.243 273.200 C 328.549 273.200,328.800 273.470,328.800 273.800 C 328.800 274.130,328.980 274.400,329.200 274.400 C 329.420 274.400,329.600 274.850,329.600 275.400 C 329.600 276.022,329.827 276.400,330.200 276.400 C 330.573 276.400,330.800 276.778,330.800 277.400 C 330.800 277.950,330.980 278.400,331.200 278.400 C 331.712 278.400,331.739 287.351,331.229 288.305 C 331.025 288.687,330.757 289.326,330.632 289.725 C 330.508 290.124,330.224 290.339,330.003 290.202 C 329.772 290.059,329.600 290.391,329.600 290.976 C 329.600 291.539,329.420 292.000,329.200 292.000 C 328.980 292.000,328.800 292.270,328.800 292.600 C 328.800 292.930,328.519 293.200,328.176 293.200 C 327.833 293.200,327.641 293.342,327.748 293.516 C 327.855 293.690,327.416 294.185,326.773 294.616 C 326.129 295.047,325.602 295.625,325.601 295.900 C 325.601 296.175,325.150 296.400,324.600 296.400 C 324.050 296.400,323.600 296.580,323.600 296.800 C 323.600 297.020,323.041 297.200,322.357 297.200 C 321.434 297.200,321.172 297.350,321.338 297.782 C 321.517 298.250,321.033 298.388,318.881 298.482 C 316.997 298.565,316.230 298.749,316.300 299.100 C 316.380 299.498,302.907 299.600,250.000 299.600 C 197.093 299.600,183.620 299.498,183.700 299.100 C 183.770 298.749,183.003 298.565,181.119 298.482 C 178.967 298.388,178.483 298.250,178.662 297.782 C 178.828 297.350,178.566 297.200,177.643 297.200 C 176.959 297.200,176.400 297.020,176.400 296.800 C 176.400 296.580,175.950 296.400,175.400 296.400 C 174.850 296.400,174.399 296.175,174.399 295.900 C 174.398 295.625,173.871 295.047,173.227 294.616 C 172.584 294.185,172.145 293.690,172.252 293.516 C 172.359 293.342,172.167 293.200,171.824 293.200 C 171.481 293.200,171.200 292.930,171.200 292.600 C 171.200 292.270,171.020 292.000,170.800 292.000 C 170.580 292.000,170.400 291.539,170.400 290.976 C 170.400 290.391,170.228 290.059,169.997 290.202 C 169.776 290.339,169.492 290.124,169.368 289.725 C 169.243 289.326,168.975 288.687,168.771 288.305 C 168.261 287.351,168.288 278.400,168.800 278.400 C 169.020 278.400,169.200 277.950,169.200 277.400 C 169.200 276.778,169.427 276.400,169.800 276.400 C 170.173 276.400,170.400 276.022,170.400 275.400 C 170.400 274.850,170.580 274.400,170.800 274.400 C 171.020 274.400,171.200 274.130,171.200 273.800 C 171.200 273.470,171.451 273.200,171.757 273.200 C 172.064 273.200,172.422 272.919,172.554 272.575 C 172.686 272.231,172.976 272.061,173.197 272.198 C 173.419 272.335,173.600 272.244,173.600 271.995 C 173.600 271.268,174.673 270.400,175.571 270.400 C 176.041 270.400,176.400 270.140,176.400 269.800 C 176.400 269.434,176.773 269.200,177.357 269.200 C 177.884 269.200,178.418 268.930,178.545 268.600 C 178.717 268.151,179.437 268.000,181.411 268.000 C 183.067 268.000,183.955 267.851,183.800 267.600 C 183.636 267.334,205.804 267.200,250.000 267.200 C 294.196 267.200,316.364 267.334,316.200 267.600 M107.000 360.400 C 107.136 360.620,107.577 360.800,107.981 360.800 C 108.384 360.800,108.822 361.081,108.954 361.425 C 109.086 361.769,109.361 361.948,109.565 361.822 C 109.769 361.696,110.207 361.864,110.539 362.196 C 110.871 362.528,111.606 362.800,112.171 362.800 C 112.737 362.800,113.200 362.980,113.200 363.200 C 113.200 363.758,114.682 365.185,114.967 364.900 C 115.095 364.772,115.200 364.967,115.200 365.333 C 115.200 365.778,115.533 366.000,116.200 366.000 C 117.000 366.000,117.200 366.200,117.200 367.000 C 117.200 367.550,117.427 368.000,117.704 368.000 C 118.235 368.000,119.430 369.587,119.285 370.100 C 119.238 370.265,119.425 370.355,119.700 370.300 C 119.982 370.244,120.256 370.683,120.327 371.307 C 120.397 371.916,120.622 372.310,120.827 372.183 C 121.032 372.056,121.200 372.301,121.200 372.727 C 121.200 373.153,121.470 373.726,121.800 374.000 C 122.130 374.274,122.400 375.087,122.400 375.806 C 122.400 376.600,122.636 377.205,123.000 377.345 C 123.495 377.535,123.600 378.590,123.600 383.387 C 123.600 388.287,123.506 389.200,123.000 389.200 C 122.581 389.200,122.400 389.622,122.400 390.600 C 122.400 391.601,122.222 392.000,121.776 392.000 C 121.433 392.000,121.244 392.148,121.356 392.329 C 121.468 392.509,121.298 393.160,120.980 393.774 C 120.661 394.389,120.400 395.231,120.400 395.646 C 120.400 396.061,120.130 396.400,119.800 396.400 C 119.470 396.400,119.200 396.544,119.200 396.721 C 119.200 397.123,114.818 401.600,114.425 401.600 C 114.265 401.600,113.894 402.050,113.600 402.600 C 113.223 403.305,112.731 403.600,111.932 403.600 C 111.240 403.600,110.839 403.794,110.900 404.100 C 110.958 404.388,110.589 404.604,110.030 404.609 C 109.497 404.613,108.987 404.838,108.897 405.109 C 108.807 405.379,108.118 405.600,107.367 405.600 C 106.419 405.600,106.000 405.784,106.000 406.200 C 106.000 406.707,105.067 406.800,100.000 406.800 C 94.933 406.800,94.000 406.707,94.000 406.200 C 94.000 405.784,93.581 405.600,92.633 405.600 C 91.882 405.600,91.193 405.379,91.103 405.109 C 91.013 404.838,90.503 404.613,89.970 404.609 C 89.411 404.604,89.042 404.388,89.100 404.100 C 89.161 403.794,88.760 403.600,88.068 403.600 C 87.269 403.600,86.777 403.305,86.400 402.600 C 86.106 402.050,85.644 401.600,85.375 401.600 C 85.106 401.600,84.782 401.330,84.655 401.000 C 84.529 400.670,84.059 400.400,83.613 400.400 C 83.108 400.400,82.797 400.135,82.793 399.700 C 82.789 399.315,82.339 398.576,81.793 398.058 C 81.247 397.540,80.800 396.955,80.800 396.758 C 80.800 396.561,80.530 396.400,80.200 396.400 C 79.870 396.400,79.600 396.061,79.600 395.646 C 79.600 395.231,79.339 394.389,79.020 393.774 C 78.702 393.160,78.532 392.509,78.644 392.329 C 78.756 392.148,78.567 392.000,78.224 392.000 C 77.778 392.000,77.600 391.601,77.600 390.600 C 77.600 389.622,77.419 389.200,77.000 389.200 C 76.494 389.200,76.400 388.287,76.400 383.387 C 76.400 378.590,76.505 377.535,77.000 377.345 C 77.364 377.205,77.600 376.600,77.600 375.806 C 77.600 375.087,77.870 374.274,78.200 374.000 C 78.530 373.726,78.800 373.153,78.800 372.727 C 78.800 372.301,78.968 372.056,79.173 372.183 C 79.378 372.310,79.603 371.916,79.673 371.307 C 79.744 370.683,80.018 370.244,80.300 370.300 C 80.575 370.355,80.762 370.265,80.715 370.100 C 80.570 369.587,81.765 368.000,82.296 368.000 C 82.573 368.000,82.800 367.550,82.800 367.000 C 82.800 366.200,83.000 366.000,83.800 366.000 C 84.467 366.000,84.800 365.778,84.800 365.333 C 84.800 364.967,84.905 364.772,85.033 364.900 C 85.318 365.185,86.800 363.758,86.800 363.200 C 86.800 362.980,87.263 362.800,87.829 362.800 C 88.394 362.800,89.129 362.528,89.461 362.196 C 89.793 361.864,90.231 361.696,90.435 361.822 C 90.639 361.948,90.914 361.769,91.046 361.425 C 91.178 361.081,91.616 360.800,92.019 360.800 C 92.423 360.800,92.864 360.620,93.000 360.400 C 93.149 360.159,95.930 360.000,100.000 360.000 C 104.070 360.000,106.851 360.159,107.000 360.400 M316.200 367.600 C 316.045 367.851,316.933 368.000,318.589 368.000 C 320.563 368.000,321.283 368.151,321.455 368.600 C 321.582 368.930,322.097 369.200,322.600 369.200 C 323.103 369.200,323.618 369.470,323.745 369.800 C 323.871 370.130,324.263 370.400,324.616 370.400 C 325.361 370.400,326.400 371.334,326.400 372.005 C 326.400 372.259,326.619 372.394,326.887 372.304 C 327.596 372.068,329.600 374.421,329.600 375.489 C 329.600 376.032,329.842 376.400,330.200 376.400 C 330.530 376.400,330.800 376.749,330.800 377.176 C 330.800 377.603,330.980 378.064,331.200 378.200 C 331.431 378.342,331.600 380.471,331.600 383.224 C 331.600 386.141,331.444 388.000,331.200 388.000 C 330.980 388.000,330.800 388.450,330.800 389.000 C 330.800 389.550,330.623 390.000,330.408 390.000 C 330.192 390.000,329.894 390.483,329.746 391.074 C 329.484 392.116,327.498 394.400,326.854 394.400 C 326.679 394.400,326.294 394.850,326.000 395.400 C 325.706 395.950,325.246 396.400,324.978 396.400 C 324.710 396.400,323.998 396.656,323.396 396.968 C 322.793 397.281,322.051 397.441,321.746 397.324 C 321.365 397.178,321.268 397.313,321.438 397.755 C 321.650 398.308,321.311 398.400,319.066 398.400 C 317.626 398.400,316.336 398.580,316.200 398.800 C 316.037 399.064,293.537 399.200,250.000 399.200 C 206.463 399.200,183.963 399.064,183.800 398.800 C 183.664 398.580,182.374 398.400,180.934 398.400 C 178.689 398.400,178.350 398.308,178.562 397.755 C 178.732 397.313,178.635 397.178,178.254 397.324 C 177.949 397.441,177.207 397.281,176.604 396.968 C 176.002 396.656,175.290 396.400,175.022 396.400 C 174.754 396.400,174.294 395.950,174.000 395.400 C 173.706 394.850,173.321 394.400,173.146 394.400 C 172.502 394.400,170.516 392.116,170.254 391.074 C 170.106 390.483,169.808 390.000,169.592 390.000 C 169.377 390.000,169.200 389.550,169.200 389.000 C 169.200 388.450,169.020 388.000,168.800 388.000 C 168.556 388.000,168.400 386.141,168.400 383.224 C 168.400 380.471,168.569 378.342,168.800 378.200 C 169.020 378.064,169.200 377.603,169.200 377.176 C 169.200 376.749,169.470 376.400,169.800 376.400 C 170.158 376.400,170.400 376.032,170.400 375.489 C 170.400 374.421,172.404 372.068,173.113 372.304 C 173.381 372.394,173.600 372.259,173.600 372.005 C 173.600 371.334,174.639 370.400,175.384 370.400 C 175.737 370.400,176.129 370.130,176.255 369.800 C 176.382 369.470,176.897 369.200,177.400 369.200 C 177.903 369.200,178.418 368.930,178.545 368.600 C 178.717 368.151,179.437 368.000,181.411 368.000 C 183.067 368.000,183.955 367.851,183.800 367.600 C 183.636 367.334,205.804 367.200,250.000 367.200 C 294.196 367.200,316.364 367.334,316.200 367.600 " stroke="none" fill="#4c5c8c" fill-rule="evenodd"></path><path id="path1" d="M196.500 68.298 C 198.425 68.371,201.575 68.371,203.500 68.298 C 205.425 68.225,203.850 68.165,200.000 68.165 C 196.150 68.165,194.575 68.225,196.500 68.298 " stroke="none" fill="#505c8c" fill-rule="evenodd"></path><path id="path2" d="M196.500 68.298 C 198.425 68.371,201.575 68.371,203.500 68.298 C 205.425 68.225,203.850 68.165,200.000 68.165 C 196.150 68.165,194.575 68.225,196.500 68.298 " stroke="none" fill="#505c8c" fill-rule="evenodd"></path><path id="path3" d="M196.500 68.298 C 198.425 68.371,201.575 68.371,203.500 68.298 C 205.425 68.225,203.850 68.165,200.000 68.165 C 196.150 68.165,194.575 68.225,196.500 68.298 " stroke="none" fill="#505c8c" fill-rule="evenodd"></path><path id="path4" d="M196.500 68.298 C 198.425 68.371,201.575 68.371,203.500 68.298 C 205.425 68.225,203.850 68.165,200.000 68.165 C 196.150 68.165,194.575 68.225,196.500 68.298 " stroke="none" fill="#505c8c" fill-rule="evenodd"></path></g></svg>