 <svg  version="1.0" xmlns="http://www.w3.org/2000/svg"  width="300.000000pt" height="400.000000pt" viewBox="0 0 300.000000 400.000000"  preserveAspectRatio="xMidYMid meet">  <g transform="translate(0.000000,400.000000) scale(0.100000,-0.100000)" fill="#325096" stroke="none"> <path d="M1320 3980 c-41 -11 -84 -23 -95 -29 -218 -100 -323 -205 -428 -428 -10 -23 -13 -23 -193 -23 -153 0 -192 -3 -245 -20 -74 -23 -170 -77 -216 -123 -46 -46 -100 -142 -123 -216 -19 -61 -20 -100 -20 -1391 0 -1291 1 -1330 20 -1391 54 -175 181 -298 355 -344 89 -23 2161 -23 2250 0 174 46 301 169 355 344 19 61 20 100 20 1391 0 1291 -1 1330 -20 1391 -23 74 -77 170 -123 216 -46 46 -142 100 -216 123 -53 17 -92 20 -245 20 -180 0 -183 0 -193 23 -92 193 -202 317 -351 390 -31 16 -64 33 -74 37 -9 5 -54 18 -101 29 -109 27 -253 27 -357 1z m290 -510 c89 -45 130 -115 130 -220 0 -79 -14 -115 -64 -168 -50 -54 -95 -72 -176 -72 -149 0 -240 91 -240 240 0 105 39 173 126 219 54 28 169 29 224 1z m-781 -1430 c77 -39 109 -103 98 -197 -5 -51 -29 -88 -77 -120 -109 -74 -263 -7 -277 120 -8 64 3 111 34 147 56 67 148 88 222 50z m1576 -50 c59 -13 85 -49 85 -115 0 -65 -28 -102 -87 -116 -50 -11 -1007 -11 -1057 1 -58 13 -86 51 -86 115 0 62 29 103 81 115 48 11 1015 12 1064 0z m-1576 -700 c77 -39 113 -115 97 -208 -19 -120 -172 -180 -276 -109 -66 44 -92 114 -76 201 20 105 156 167 255 116z m1574 -49 c59 -14 87 -51 87 -116 0 -66 -26 -102 -85 -115 -52 -12 -1008 -12 -1059 0 -58 13 -86 51 -86 115 0 62 29 103 81 115 47 11 1015 12 1062 1z"/> </g> </svg> 