 <svg  version="1.0" xmlns="http://www.w3.org/2000/svg"  width="300.000000pt" height="300.000000pt" viewBox="0 0 300.000000 300.000000"  preserveAspectRatio="xMidYMid meet">  <g transform="translate(0.000000,300.000000) scale(0.100000,-0.100000)" fill="#325096" stroke="none"> <path d="M1317 2990 c-356 -45 -624 -175 -872 -424 -137 -137 -223 -256 -295 -409 -141 -298 -178 -590 -120 -932 49 -286 196 -562 420 -785 219 -220 463 -350 773 -412 144 -29 390 -31 542 -4 611 107 1106 606 1211 1221 24 138 24 396 0 530 -36 198 -117 399 -234 575 -74 112 -280 318 -392 392 -171 113 -356 191 -547 228 -121 24 -372 35 -486 20z m383 -131 c90 -13 193 -42 302 -85 128 -50 128 -50 66 -89 -33 -21 -76 -63 -114 -112 -67 -86 -59 -83 -174 -63 -116 20 -125 15 -247 -128 -66 -76 -59 -126 18 -138 33 -6 38 -2 78 45 24 28 51 51 61 51 25 0 31 -36 13 -81 -21 -53 -56 -79 -107 -79 -43 0 -68 -13 -175 -93 -28 -22 -51 -44 -52 -50 0 -7 -2 -25 -2 -41 -2 -24 -10 -34 -42 -50 -50 -26 -65 -64 -41 -100 31 -48 99 -24 158 54 46 61 84 66 133 17 19 -19 35 -44 35 -56 0 -16 6 -21 25 -21 32 0 33 25 4 81 -41 82 9 53 67 -39 35 -55 63 -72 117 -72 59 0 77 -10 77 -41 0 -38 -22 -43 -153 -37 -110 6 -148 18 -172 55 -13 19 -24 23 -66 23 -27 0 -82 -7 -122 -16 -64 -15 -76 -22 -127 -73 -76 -76 -100 -128 -100 -219 0 -82 11 -116 48 -155 49 -52 77 -61 188 -59 67 1 106 -2 117 -11 9 -6 30 -57 47 -112 25 -83 30 -114 29 -190 -2 -94 10 -152 58 -273 29 -72 49 -82 109 -57 59 24 103 72 140 151 18 39 49 94 68 123 34 49 36 58 36 131 0 84 2 89 82 177 45 50 83 125 75 146 -3 9 -20 15 -47 15 -54 1 -76 21 -136 124 -52 89 -57 134 -8 80 16 -18 43 -56 60 -85 26 -45 35 -52 65 -55 43 -3 135 48 152 85 10 23 8 28 -18 49 -17 13 -34 24 -39 24 -17 0 -56 43 -56 62 0 25 26 23 88 -7 29 -14 57 -25 62 -25 26 0 138 -60 157 -84 12 -14 31 -58 42 -96 26 -83 61 -131 84 -112 8 7 17 31 21 53 9 58 27 89 81 138 56 51 85 52 99 3 6 -22 24 -43 52 -63 23 -16 45 -38 49 -48 3 -10 1 -50 -5 -87 -96 -629 -534 -1088 -1140 -1195 -108 -19 -345 -16 -455 4 -186 36 -406 126 -540 222 -90 64 -89 63 -70 136 13 51 25 73 69 118 32 35 59 75 71 106 12 34 34 65 67 95 42 38 51 54 63 105 7 33 23 82 34 108 39 91 23 118 -89 152 -53 16 -77 32 -147 97 -92 86 -117 101 -185 118 -40 10 -52 9 -93 -9 -26 -12 -65 -21 -86 -21 -47 0 -66 24 -75 92 -9 64 -21 73 -73 52 -61 -24 -71 -16 -71 58 0 87 16 108 81 108 44 0 54 -4 77 -30 30 -34 62 -40 62 -11 0 11 21 61 47 111 47 94 78 127 144 154 50 21 66 42 51 67 -27 43 -10 59 64 59 50 0 84 25 84 64 0 13 -18 50 -40 82 -22 33 -40 64 -40 70 0 26 -42 64 -71 64 -48 0 -67 -17 -98 -84 -16 -35 -33 -66 -38 -69 -14 -9 -72 33 -88 63 -14 27 -13 31 31 89 25 33 57 69 70 80 24 19 25 19 82 -1 47 -17 63 -18 94 -9 65 20 60 78 -11 139 l-26 22 40 35 c51 44 92 62 113 48 36 -22 54 -62 64 -139 11 -87 38 -146 73 -162 27 -12 47 6 85 74 12 23 69 85 126 138 97 91 104 100 104 136 0 27 -10 52 -35 88 -19 28 -31 53 -27 56 20 12 145 39 217 46 88 8 223 4 325 -11z m248 -919 c53 -32 37 -45 -61 -48 -73 -2 -87 0 -87 13 0 51 87 72 148 35z m-1713 -560 c28 -21 65 -45 83 -54 43 -22 47 -36 28 -93 -31 -92 -18 -136 75 -237 84 -91 89 -108 89 -283 l0 -147 -30 29 c-49 47 -149 194 -197 289 -78 154 -143 386 -143 508 0 36 2 39 23 33 12 -4 45 -24 72 -45z"/> <path d="M1318 2233 c-26 -30 -41 -89 -28 -113 17 -32 66 -27 85 10 38 74 -8 159 -57 103z"/> <path d="M2092 981 c-41 -42 -67 -153 -43 -190 25 -40 74 30 101 146 18 79 -5 97 -58 44z"/> </g> </svg> 