 <svg  version="1.0" xmlns="http://www.w3.org/2000/svg"  width="300.000000pt" height="240.000000pt" viewBox="0 0 300.000000 240.000000"  preserveAspectRatio="xMidYMid meet">  <g transform="translate(0.000000,240.000000) scale(0.100000,-0.100000)" fill="#325096" stroke="none"> <path d="M530 2241 c-120 -39 -190 -133 -190 -253 0 -152 107 -258 260 -258 153 0 260 106 260 258 0 101 -53 188 -144 234 -44 22 -145 33 -186 19z"/> <path d="M1420 2241 c-86 -28 -150 -82 -191 -161 -20 -37 -24 -60 -24 -130 0 -73 4 -92 27 -135 31 -60 77 -105 138 -136 65 -33 195 -33 260 0 61 31 107 76 138 136 23 43 27 62 27 135 0 70 -4 93 -24 130 -54 104 -142 161 -256 166 -38 2 -81 0 -95 -5z"/> <path d="M2330 2241 c-120 -39 -190 -133 -190 -253 1 -151 109 -258 260 -258 153 1 260 106 260 258 0 101 -53 188 -144 234 -44 22 -145 33 -186 19z"/> <path d="M370 1551 c-165 -53 -287 -171 -342 -329 -32 -95 -32 -249 0 -344 41 -117 148 -245 244 -288 25 -12 26 -16 30 -105 3 -105 18 -137 79 -167 51 -26 387 -26 438 0 58 29 75 63 79 151 4 76 3 78 -37 140 -166 257 -140 582 67 820 23 28 42 52 42 55 0 10 -93 53 -149 70 -80 24 -375 22 -451 -3z m-70 -502 c0 -104 -4 -188 -8 -185 -4 2 -19 26 -32 53 -29 57 -38 162 -20 219 13 37 48 104 56 104 2 0 4 -86 4 -191z"/> <path d="M2180 1556 c-48 -14 -150 -63 -150 -72 0 -3 19 -27 43 -55 206 -238 232 -563 66 -820 -40 -62 -41 -64 -37 -140 4 -88 21 -122 79 -151 51 -26 387 -26 438 0 61 30 76 62 79 166 l4 92 43 23 c91 48 185 163 226 276 33 89 33 254 1 348 -49 141 -165 261 -309 318 -53 21 -76 24 -248 26 -132 1 -204 -2 -235 -11z m560 -373 c45 -90 36 -231 -20 -303 l-20 -25 0 193 c0 106 4 191 8 188 4 -2 19 -26 32 -53z"/> <path d="M1296 1484 c-182 -44 -337 -201 -381 -385 -51 -218 42 -452 225 -565 l58 -36 4 -128 c3 -144 13 -169 79 -202 51 -26 387 -26 438 0 66 33 76 58 79 202 l4 128 58 36 c144 89 240 267 240 442 -1 239 -170 454 -401 509 -83 19 -321 19 -403 -1z m-98 -612 l-3 -97 -32 64 c-28 55 -33 75 -33 136 0 61 5 81 33 136 l32 64 3 -103 c1 -57 1 -147 0 -200z m652 216 c38 -83 23 -209 -35 -291 -14 -20 -15 -4 -15 178 0 217 1 220 50 113z"/> </g> </svg> 