<svg id="svg" version="1.1" xmlns="http://www.w3.org/2000/svg" xmlns:xlink="http://www.w3.org/1999/xlink" width="400" height="320" viewBox="0, 0, 400,320"><g id="svgg"><path id="path0" d="M72.960 20.194 C 72.960 20.413,72.475 20.501,71.680 20.425 C 70.741 20.336,70.400 20.422,70.400 20.749 C 70.400 21.053,70.143 21.146,69.592 21.040 C 69.148 20.955,68.708 21.011,68.613 21.163 C 68.519 21.315,68.080 21.440,67.638 21.440 C 67.196 21.440,66.617 21.657,66.351 21.923 C 66.086 22.189,65.736 22.324,65.574 22.224 C 65.412 22.124,65.280 22.195,65.280 22.381 C 65.280 22.568,64.860 22.720,64.347 22.720 C 63.833 22.720,63.365 22.828,63.307 22.960 C 63.101 23.423,61.140 24.640,60.600 24.640 C 60.299 24.640,60.142 24.729,60.251 24.838 C 60.501 25.088,59.690 25.920,59.198 25.920 C 58.995 25.920,58.276 26.496,57.600 27.200 C 56.924 27.904,56.210 28.480,56.014 28.480 C 55.526 28.480,53.442 30.602,53.433 31.109 C 53.429 31.335,52.853 32.015,52.153 32.621 C 51.453 33.226,50.880 33.912,50.880 34.144 C 50.880 34.376,50.592 34.813,50.240 35.114 C 49.888 35.416,49.600 35.903,49.600 36.197 C 49.600 36.491,49.400 36.808,49.155 36.902 C 48.619 37.108,47.680 38.907,47.680 39.729 C 47.680 40.054,47.541 40.320,47.371 40.320 C 47.201 40.320,46.967 41.040,46.850 41.920 C 46.733 42.800,46.512 43.520,46.359 43.520 C 46.205 43.520,46.080 43.952,46.080 44.480 C 46.080 45.008,45.936 45.440,45.760 45.440 C 45.584 45.440,45.440 45.944,45.440 46.560 C 45.440 47.176,45.296 47.680,45.120 47.680 C 44.916 47.680,44.800 50.293,44.800 54.880 C 44.800 59.467,44.916 62.080,45.120 62.080 C 45.296 62.080,45.440 62.656,45.440 63.360 C 45.440 64.064,45.584 64.640,45.760 64.640 C 45.936 64.640,46.080 65.072,46.080 65.600 C 46.080 66.128,46.224 66.560,46.400 66.560 C 46.576 66.560,46.720 66.960,46.720 67.449 C 46.720 67.938,46.932 68.641,47.192 69.012 C 47.452 69.382,47.698 70.124,47.738 70.661 C 47.779 71.197,47.927 71.565,48.066 71.479 C 48.206 71.393,48.320 71.524,48.320 71.772 C 48.320 72.019,48.608 72.481,48.960 72.800 C 49.312 73.119,49.600 73.610,49.600 73.893 C 49.600 74.175,49.888 74.586,50.240 74.806 C 50.592 75.026,50.880 75.412,50.880 75.665 C 50.880 75.918,51.600 76.833,52.480 77.700 C 53.360 78.566,54.080 79.448,54.080 79.660 C 54.080 80.148,54.878 80.960,55.358 80.960 C 55.558 80.960,56.423 81.680,57.280 82.560 C 58.137 83.440,59.059 84.160,59.328 84.160 C 59.597 84.160,59.969 84.443,60.154 84.788 C 60.351 85.157,60.686 85.341,60.965 85.234 C 61.226 85.134,61.440 85.200,61.440 85.382 C 61.440 85.782,62.989 86.588,64.317 86.879 C 64.847 86.996,65.280 87.223,65.280 87.385 C 65.280 87.547,65.568 87.680,65.920 87.680 C 66.272 87.680,66.560 87.824,66.560 88.000 C 66.560 88.176,66.992 88.320,67.520 88.320 C 68.048 88.320,68.480 88.464,68.480 88.640 C 68.480 88.816,68.912 88.960,69.440 88.960 C 69.968 88.960,70.400 89.104,70.400 89.280 C 70.400 89.456,70.976 89.600,71.680 89.600 C 72.384 89.600,72.960 89.744,72.960 89.920 C 72.960 90.124,75.520 90.240,80.000 90.240 C 84.480 90.240,87.040 90.124,87.040 89.920 C 87.040 89.744,87.616 89.600,88.320 89.600 C 89.024 89.600,89.600 89.456,89.600 89.280 C 89.600 89.104,90.032 88.960,90.560 88.960 C 91.088 88.960,91.520 88.816,91.520 88.640 C 91.520 88.464,91.952 88.320,92.480 88.320 C 93.008 88.320,93.440 88.176,93.440 88.000 C 93.440 87.824,93.728 87.680,94.080 87.680 C 94.432 87.680,94.720 87.536,94.720 87.360 C 94.720 87.184,95.134 87.040,95.641 87.040 C 96.147 87.040,96.741 86.824,96.960 86.560 C 97.179 86.296,97.561 86.080,97.809 86.080 C 98.057 86.080,98.346 85.856,98.451 85.582 C 98.557 85.307,98.838 85.158,99.076 85.250 C 99.315 85.341,99.662 85.134,99.846 84.788 C 100.031 84.443,100.403 84.160,100.672 84.160 C 100.941 84.160,101.863 83.440,102.720 82.560 C 103.577 81.680,104.442 80.960,104.642 80.960 C 105.122 80.960,105.920 80.148,105.920 79.660 C 105.920 79.448,106.640 78.566,107.520 77.700 C 108.400 76.833,109.120 75.918,109.120 75.665 C 109.120 75.412,109.408 75.026,109.760 74.806 C 110.112 74.586,110.400 74.175,110.400 73.893 C 110.400 73.610,110.688 73.119,111.040 72.800 C 111.392 72.481,111.680 72.019,111.680 71.772 C 111.680 71.524,111.794 71.393,111.934 71.479 C 112.073 71.565,112.221 71.197,112.262 70.661 C 112.302 70.124,112.548 69.382,112.808 69.012 C 113.068 68.641,113.280 67.938,113.280 67.449 C 113.280 66.960,113.424 66.560,113.600 66.560 C 113.776 66.560,113.920 66.128,113.920 65.600 C 113.920 65.072,114.064 64.640,114.240 64.640 C 114.416 64.640,114.560 64.064,114.560 63.360 C 114.560 62.656,114.704 62.080,114.880 62.080 C 115.084 62.080,115.200 59.467,115.200 54.880 C 115.200 50.293,115.084 47.680,114.880 47.680 C 114.704 47.680,114.560 47.176,114.560 46.560 C 114.560 45.944,114.416 45.440,114.240 45.440 C 114.064 45.440,113.920 45.008,113.920 44.480 C 113.920 43.952,113.795 43.520,113.641 43.520 C 113.488 43.520,113.267 42.800,113.150 41.920 C 113.033 41.040,112.799 40.320,112.629 40.320 C 112.459 40.320,112.320 40.054,112.320 39.729 C 112.320 38.907,111.381 37.108,110.845 36.902 C 110.600 36.808,110.400 36.454,110.400 36.116 C 110.400 35.777,110.189 35.419,109.932 35.320 C 109.675 35.222,109.370 34.830,109.255 34.450 C 109.140 34.071,108.343 33.091,107.483 32.274 C 106.623 31.457,105.920 30.619,105.920 30.411 C 105.920 29.912,105.110 29.120,104.599 29.120 C 104.376 29.120,103.517 28.400,102.690 27.520 C 101.864 26.640,101.019 25.920,100.811 25.920 C 100.312 25.920,99.497 25.090,99.749 24.838 C 99.858 24.729,99.693 24.640,99.383 24.640 C 98.819 24.640,96.895 23.446,96.693 22.972 C 96.635 22.833,96.167 22.720,95.653 22.720 C 95.140 22.720,94.720 22.568,94.720 22.381 C 94.720 22.195,94.588 22.124,94.426 22.224 C 94.264 22.324,93.914 22.189,93.649 21.923 C 93.383 21.657,92.804 21.440,92.362 21.440 C 91.920 21.440,91.481 21.315,91.387 21.163 C 91.292 21.011,90.852 20.955,90.408 21.040 C 89.857 21.146,89.600 21.053,89.600 20.749 C 89.600 20.422,89.259 20.336,88.320 20.425 C 87.525 20.501,87.040 20.413,87.040 20.194 C 87.040 19.946,84.926 19.840,80.000 19.840 C 75.074 19.840,72.960 19.946,72.960 20.194 M192.320 20.194 C 192.320 20.413,191.835 20.501,191.040 20.425 C 190.117 20.337,189.760 20.424,189.760 20.736 C 189.760 21.035,189.418 21.140,188.657 21.074 C 188.051 21.022,187.451 21.083,187.324 21.210 C 187.197 21.336,186.844 21.440,186.539 21.440 C 186.234 21.440,185.164 21.872,184.160 22.400 C 183.156 22.928,181.966 23.360,181.514 23.360 C 181.063 23.360,180.782 23.449,180.891 23.558 C 181.175 23.842,180.299 24.640,179.703 24.640 C 179.426 24.640,179.200 24.784,179.200 24.960 C 179.200 25.136,178.944 25.280,178.631 25.280 C 178.317 25.280,177.854 25.568,177.600 25.920 C 177.346 26.272,176.940 26.560,176.698 26.560 C 176.455 26.560,175.853 26.992,175.360 27.520 C 174.867 28.048,174.313 28.480,174.128 28.480 C 173.944 28.480,172.598 29.696,171.137 31.183 C 168.191 34.179,167.566 34.880,167.840 34.880 C 167.942 34.880,167.731 35.195,167.372 35.580 C 167.014 35.966,166.720 36.404,166.720 36.554 C 166.720 36.704,166.432 37.136,166.080 37.514 C 165.728 37.892,165.440 38.390,165.440 38.620 C 165.440 38.851,165.296 39.040,165.120 39.040 C 164.944 39.040,164.800 39.296,164.800 39.609 C 164.800 39.923,164.512 40.386,164.160 40.640 C 163.784 40.911,163.520 41.468,163.520 41.991 C 163.520 42.480,163.376 42.880,163.200 42.880 C 163.024 42.880,162.880 43.168,162.880 43.520 C 162.880 43.872,162.736 44.160,162.560 44.160 C 162.384 44.160,162.240 44.448,162.240 44.800 C 162.240 45.152,162.096 45.440,161.920 45.440 C 161.744 45.440,161.600 45.800,161.600 46.240 C 161.600 46.680,161.456 47.040,161.280 47.040 C 161.104 47.040,160.960 47.616,160.960 48.320 C 160.960 49.024,160.816 49.600,160.640 49.600 C 160.464 49.600,160.320 50.168,160.320 50.861 C 160.320 51.555,160.176 52.211,160.000 52.320 C 159.801 52.443,159.680 55.357,159.680 60.000 C 159.680 64.643,159.801 67.557,160.000 67.680 C 160.176 67.789,160.320 68.445,160.320 69.139 C 160.320 69.832,160.464 70.400,160.640 70.400 C 160.816 70.400,160.960 70.976,160.960 71.680 C 160.960 72.384,161.104 72.960,161.280 72.960 C 161.456 72.960,161.600 73.320,161.600 73.760 C 161.600 74.200,161.744 74.560,161.920 74.560 C 162.096 74.560,162.240 74.848,162.240 75.200 C 162.240 75.552,162.384 75.840,162.560 75.840 C 162.736 75.840,162.880 76.128,162.880 76.480 C 162.880 76.832,163.024 77.120,163.200 77.120 C 163.376 77.120,163.520 77.408,163.520 77.760 C 163.520 78.112,163.664 78.400,163.840 78.400 C 164.016 78.400,164.160 78.688,164.160 79.040 C 164.160 79.392,164.304 79.680,164.480 79.680 C 164.656 79.680,164.800 79.968,164.800 80.320 C 164.800 80.672,164.944 80.960,165.120 80.960 C 165.296 80.960,165.440 81.149,165.440 81.380 C 165.440 81.610,165.728 82.108,166.080 82.486 C 166.432 82.864,166.720 83.296,166.720 83.446 C 166.720 83.596,167.014 84.034,167.372 84.420 C 167.731 84.805,167.942 85.120,167.840 85.120 C 167.566 85.120,168.191 85.821,171.137 88.817 C 172.598 90.304,173.944 91.520,174.128 91.520 C 174.313 91.520,174.867 91.952,175.360 92.480 C 175.853 93.008,176.455 93.440,176.698 93.440 C 176.940 93.440,177.346 93.728,177.600 94.080 C 177.854 94.432,178.317 94.720,178.631 94.720 C 178.944 94.720,179.200 94.864,179.200 95.040 C 179.200 95.216,179.476 95.360,179.813 95.360 C 180.151 95.360,180.475 95.468,180.533 95.600 C 180.697 95.968,186.012 98.571,186.587 98.565 C 186.865 98.562,187.197 98.664,187.324 98.790 C 187.451 98.917,188.051 98.978,188.657 98.926 C 189.408 98.861,189.760 98.967,189.760 99.255 C 189.760 99.566,190.188 99.650,191.360 99.569 C 192.375 99.499,192.960 99.587,192.960 99.809 C 192.960 100.053,195.107 100.160,200.000 100.160 C 204.893 100.160,207.040 100.053,207.040 99.809 C 207.040 99.587,207.625 99.499,208.640 99.569 C 209.812 99.650,210.240 99.566,210.240 99.255 C 210.240 98.967,210.592 98.861,211.343 98.926 C 211.949 98.978,212.549 98.917,212.676 98.790 C 212.803 98.664,213.135 98.562,213.413 98.565 C 213.988 98.571,219.303 95.968,219.467 95.600 C 219.525 95.468,219.849 95.360,220.187 95.360 C 220.524 95.360,220.800 95.216,220.800 95.040 C 220.800 94.864,221.056 94.720,221.369 94.720 C 221.683 94.720,222.146 94.432,222.400 94.080 C 222.654 93.728,223.060 93.440,223.302 93.440 C 223.545 93.440,224.147 93.008,224.640 92.480 C 225.133 91.952,225.687 91.520,225.872 91.520 C 226.056 91.520,227.402 90.304,228.863 88.817 C 231.809 85.821,232.434 85.120,232.160 85.120 C 232.058 85.120,232.269 84.805,232.628 84.420 C 232.986 84.034,233.280 83.596,233.280 83.446 C 233.280 83.296,233.568 82.864,233.920 82.486 C 234.272 82.108,234.560 81.610,234.560 81.380 C 234.560 81.149,234.704 80.960,234.880 80.960 C 235.056 80.960,235.200 80.704,235.200 80.391 C 235.200 80.077,235.488 79.614,235.840 79.360 C 236.216 79.089,236.480 78.532,236.480 78.009 C 236.480 77.520,236.624 77.120,236.800 77.120 C 236.976 77.120,237.120 76.832,237.120 76.480 C 237.120 76.128,237.264 75.840,237.440 75.840 C 237.616 75.840,237.760 75.552,237.760 75.200 C 237.760 74.848,237.904 74.560,238.080 74.560 C 238.256 74.560,238.400 74.200,238.400 73.760 C 238.400 73.320,238.544 72.960,238.720 72.960 C 238.896 72.960,239.040 72.384,239.040 71.680 C 239.040 70.976,239.184 70.400,239.360 70.400 C 239.536 70.400,239.680 69.832,239.680 69.139 C 239.680 68.445,239.824 67.789,240.000 67.680 C 240.199 67.557,240.320 64.643,240.320 60.000 C 240.320 55.357,240.199 52.443,240.000 52.320 C 239.824 52.211,239.680 51.555,239.680 50.861 C 239.680 50.168,239.536 49.600,239.360 49.600 C 239.184 49.600,239.040 49.024,239.040 48.320 C 239.040 47.616,238.896 47.040,238.720 47.040 C 238.544 47.040,238.400 46.680,238.400 46.240 C 238.400 45.800,238.256 45.440,238.080 45.440 C 237.904 45.440,237.760 45.152,237.760 44.800 C 237.760 44.448,237.616 44.160,237.440 44.160 C 237.264 44.160,237.120 43.872,237.120 43.520 C 237.120 43.168,236.976 42.880,236.800 42.880 C 236.624 42.880,236.480 42.592,236.480 42.240 C 236.480 41.888,236.336 41.600,236.160 41.600 C 235.984 41.600,235.840 41.312,235.840 40.960 C 235.840 40.608,235.696 40.320,235.520 40.320 C 235.344 40.320,235.200 40.032,235.200 39.680 C 235.200 39.328,235.056 39.040,234.880 39.040 C 234.704 39.040,234.560 38.851,234.560 38.620 C 234.560 38.390,234.272 37.892,233.920 37.514 C 233.568 37.136,233.280 36.704,233.280 36.554 C 233.280 36.404,232.986 35.966,232.628 35.580 C 232.269 35.195,232.058 34.880,232.160 34.880 C 232.434 34.880,231.809 34.179,228.863 31.183 C 227.402 29.696,226.056 28.480,225.872 28.480 C 225.687 28.480,225.133 28.048,224.640 27.520 C 224.147 26.992,223.545 26.560,223.302 26.560 C 223.060 26.560,222.654 26.272,222.400 25.920 C 222.146 25.568,221.683 25.280,221.369 25.280 C 221.056 25.280,220.800 25.136,220.800 24.960 C 220.800 24.784,220.574 24.640,220.297 24.640 C 219.701 24.640,218.825 23.842,219.109 23.558 C 219.218 23.449,218.923 23.360,218.453 23.360 C 217.984 23.360,217.600 23.216,217.600 23.040 C 217.600 22.864,217.316 22.720,216.970 22.720 C 216.623 22.720,215.827 22.432,215.200 22.080 C 214.573 21.728,213.801 21.440,213.484 21.440 C 213.166 21.440,212.803 21.336,212.676 21.210 C 212.549 21.083,211.949 21.022,211.343 21.074 C 210.582 21.140,210.240 21.035,210.240 20.736 C 210.240 20.424,209.883 20.337,208.960 20.425 C 208.165 20.501,207.680 20.413,207.680 20.194 C 207.680 19.945,205.393 19.840,200.000 19.840 C 194.607 19.840,192.320 19.945,192.320 20.194 M312.960 20.194 C 312.960 20.413,312.475 20.501,311.680 20.425 C 310.741 20.336,310.400 20.422,310.400 20.749 C 310.400 21.053,310.143 21.146,309.592 21.040 C 309.148 20.955,308.708 21.011,308.613 21.163 C 308.519 21.315,308.080 21.440,307.638 21.440 C 307.196 21.440,306.617 21.657,306.351 21.923 C 306.086 22.189,305.736 22.324,305.574 22.224 C 305.412 22.124,305.280 22.195,305.280 22.381 C 305.280 22.568,304.860 22.720,304.347 22.720 C 303.833 22.720,303.365 22.828,303.307 22.960 C 303.101 23.423,301.140 24.640,300.600 24.640 C 300.299 24.640,300.142 24.729,300.251 24.838 C 300.501 25.088,299.690 25.920,299.198 25.920 C 298.995 25.920,298.276 26.496,297.600 27.200 C 296.924 27.904,296.210 28.480,296.014 28.480 C 295.526 28.480,293.442 30.602,293.433 31.109 C 293.429 31.335,292.853 32.015,292.153 32.621 C 291.453 33.226,290.880 33.912,290.880 34.144 C 290.880 34.376,290.592 34.813,290.240 35.114 C 289.888 35.416,289.600 35.903,289.600 36.197 C 289.600 36.491,289.400 36.808,289.155 36.902 C 288.619 37.108,287.680 38.907,287.680 39.729 C 287.680 40.054,287.541 40.320,287.371 40.320 C 287.201 40.320,286.967 41.040,286.850 41.920 C 286.733 42.800,286.512 43.520,286.359 43.520 C 286.205 43.520,286.080 43.952,286.080 44.480 C 286.080 45.008,285.936 45.440,285.760 45.440 C 285.584 45.440,285.440 45.944,285.440 46.560 C 285.440 47.176,285.296 47.680,285.120 47.680 C 284.916 47.680,284.800 50.293,284.800 54.880 C 284.800 59.467,284.916 62.080,285.120 62.080 C 285.296 62.080,285.440 62.656,285.440 63.360 C 285.440 64.064,285.584 64.640,285.760 64.640 C 285.936 64.640,286.080 65.072,286.080 65.600 C 286.080 66.128,286.224 66.560,286.400 66.560 C 286.576 66.560,286.720 66.960,286.720 67.449 C 286.720 67.938,286.932 68.641,287.192 69.012 C 287.452 69.382,287.698 70.124,287.738 70.661 C 287.779 71.197,287.927 71.565,288.066 71.479 C 288.206 71.393,288.320 71.524,288.320 71.772 C 288.320 72.019,288.608 72.481,288.960 72.800 C 289.312 73.119,289.600 73.610,289.600 73.893 C 289.600 74.175,289.888 74.586,290.240 74.806 C 290.592 75.026,290.880 75.412,290.880 75.665 C 290.880 75.918,291.600 76.833,292.480 77.700 C 293.360 78.566,294.080 79.448,294.080 79.660 C 294.080 80.148,294.878 80.960,295.358 80.960 C 295.558 80.960,296.423 81.680,297.280 82.560 C 298.137 83.440,299.059 84.160,299.328 84.160 C 299.597 84.160,299.969 84.443,300.154 84.788 C 300.351 85.157,300.686 85.341,300.965 85.234 C 301.226 85.134,301.440 85.200,301.440 85.382 C 301.440 85.782,302.989 86.588,304.317 86.879 C 304.847 86.996,305.280 87.223,305.280 87.385 C 305.280 87.547,305.568 87.680,305.920 87.680 C 306.272 87.680,306.560 87.824,306.560 88.000 C 306.560 88.176,306.992 88.320,307.520 88.320 C 308.048 88.320,308.480 88.464,308.480 88.640 C 308.480 88.816,308.912 88.960,309.440 88.960 C 309.968 88.960,310.400 89.104,310.400 89.280 C 310.400 89.456,310.976 89.600,311.680 89.600 C 312.384 89.600,312.960 89.744,312.960 89.920 C 312.960 90.124,315.520 90.240,320.000 90.240 C 324.480 90.240,327.040 90.124,327.040 89.920 C 327.040 89.744,327.616 89.600,328.320 89.600 C 329.024 89.600,329.600 89.456,329.600 89.280 C 329.600 89.104,330.032 88.960,330.560 88.960 C 331.088 88.960,331.520 88.816,331.520 88.640 C 331.520 88.464,331.952 88.320,332.480 88.320 C 333.008 88.320,333.440 88.176,333.440 88.000 C 333.440 87.824,333.728 87.680,334.080 87.680 C 334.432 87.680,334.720 87.536,334.720 87.360 C 334.720 87.184,335.134 87.040,335.641 87.040 C 336.147 87.040,336.741 86.824,336.960 86.560 C 337.179 86.296,337.561 86.080,337.809 86.080 C 338.057 86.080,338.346 85.856,338.451 85.582 C 338.557 85.307,338.838 85.158,339.076 85.250 C 339.315 85.341,339.662 85.134,339.846 84.788 C 340.031 84.443,340.403 84.160,340.672 84.160 C 340.941 84.160,341.863 83.440,342.720 82.560 C 343.577 81.680,344.442 80.960,344.642 80.960 C 345.122 80.960,345.920 80.148,345.920 79.660 C 345.920 79.448,346.640 78.566,347.520 77.700 C 348.400 76.833,349.120 75.918,349.120 75.665 C 349.120 75.412,349.408 75.026,349.760 74.806 C 350.112 74.586,350.400 74.175,350.400 73.893 C 350.400 73.610,350.688 73.119,351.040 72.800 C 351.392 72.481,351.680 72.019,351.680 71.772 C 351.680 71.524,351.794 71.393,351.934 71.479 C 352.073 71.565,352.221 71.197,352.262 70.661 C 352.302 70.124,352.548 69.382,352.808 69.012 C 353.068 68.641,353.280 67.938,353.280 67.449 C 353.280 66.960,353.424 66.560,353.600 66.560 C 353.776 66.560,353.920 66.128,353.920 65.600 C 353.920 65.072,354.064 64.640,354.240 64.640 C 354.416 64.640,354.560 64.064,354.560 63.360 C 354.560 62.656,354.704 62.080,354.880 62.080 C 355.084 62.080,355.200 59.467,355.200 54.880 C 355.200 50.293,355.084 47.680,354.880 47.680 C 354.704 47.680,354.560 47.176,354.560 46.560 C 354.560 45.944,354.416 45.440,354.240 45.440 C 354.064 45.440,353.920 45.008,353.920 44.480 C 353.920 43.952,353.795 43.520,353.641 43.520 C 353.488 43.520,353.267 42.800,353.150 41.920 C 353.033 41.040,352.799 40.320,352.629 40.320 C 352.459 40.320,352.320 40.054,352.320 39.729 C 352.320 38.907,351.381 37.108,350.845 36.902 C 350.600 36.808,350.400 36.454,350.400 36.116 C 350.400 35.777,350.189 35.419,349.932 35.320 C 349.675 35.222,349.370 34.830,349.255 34.450 C 349.140 34.071,348.343 33.091,347.483 32.274 C 346.623 31.457,345.920 30.619,345.920 30.411 C 345.920 29.912,345.110 29.120,344.599 29.120 C 344.376 29.120,343.517 28.400,342.690 27.520 C 341.864 26.640,341.019 25.920,340.811 25.920 C 340.312 25.920,339.497 25.090,339.749 24.838 C 339.858 24.729,339.693 24.640,339.383 24.640 C 338.819 24.640,336.895 23.446,336.693 22.972 C 336.635 22.833,336.167 22.720,335.653 22.720 C 335.140 22.720,334.720 22.568,334.720 22.381 C 334.720 22.195,334.588 22.124,334.426 22.224 C 334.264 22.324,333.914 22.189,333.649 21.923 C 333.383 21.657,332.804 21.440,332.362 21.440 C 331.920 21.440,331.481 21.315,331.387 21.163 C 331.292 21.011,330.852 20.955,330.408 21.040 C 329.857 21.146,329.600 21.053,329.600 20.749 C 329.600 20.422,329.259 20.336,328.320 20.425 C 327.525 20.501,327.040 20.413,327.040 20.194 C 327.040 19.946,324.926 19.840,320.000 19.840 C 315.074 19.840,312.960 19.946,312.960 20.194 M60.320 110.080 C 60.444 110.280,59.790 110.400,58.579 110.400 C 57.500 110.400,56.640 110.542,56.640 110.720 C 56.640 110.896,55.920 111.040,55.040 111.040 C 54.160 111.040,53.440 111.184,53.440 111.360 C 53.440 111.536,52.864 111.680,52.160 111.680 C 51.456 111.680,50.880 111.824,50.880 112.000 C 50.880 112.176,50.304 112.320,49.600 112.320 C 48.896 112.320,48.320 112.464,48.320 112.640 C 48.320 112.816,47.996 112.961,47.600 112.962 C 47.204 112.963,46.510 113.157,46.059 113.393 C 45.607 113.628,44.851 113.918,44.379 114.037 C 43.906 114.155,43.520 114.403,43.520 114.588 C 43.520 114.778,43.242 114.835,42.880 114.720 C 42.513 114.603,42.240 114.662,42.240 114.858 C 42.240 115.046,41.820 115.200,41.307 115.200 C 40.793 115.200,40.325 115.308,40.267 115.440 C 40.113 115.786,37.463 117.120,36.930 117.120 C 36.682 117.120,36.480 117.264,36.480 117.440 C 36.480 117.616,36.296 117.760,36.071 117.760 C 35.845 117.760,35.454 118.048,35.200 118.400 C 34.946 118.752,34.553 119.040,34.325 119.040 C 33.809 119.040,32.643 119.684,32.003 120.322 C 31.738 120.587,31.124 121.008,30.640 121.256 C 30.156 121.505,29.760 121.828,29.760 121.974 C 29.760 122.120,29.530 122.240,29.248 122.240 C 28.967 122.240,28.333 122.672,27.840 123.200 C 27.347 123.728,26.749 124.163,26.512 124.167 C 26.274 124.171,25.585 124.747,24.979 125.447 C 24.374 126.147,23.649 126.720,23.370 126.720 C 23.090 126.720,22.659 127.000,22.412 127.343 C 22.165 127.685,21.846 127.893,21.702 127.804 C 21.558 127.715,21.440 127.822,21.440 128.042 C 21.440 128.262,20.360 129.481,19.040 130.750 C 17.720 132.020,16.640 133.228,16.640 133.434 C 16.640 133.641,16.064 134.364,15.360 135.040 C 14.656 135.716,14.080 136.439,14.080 136.647 C 14.080 136.854,13.648 137.427,13.120 137.920 C 12.592 138.413,12.160 139.015,12.160 139.258 C 12.160 139.500,11.872 139.906,11.520 140.160 C 11.168 140.414,10.880 140.807,10.880 141.034 C 10.880 141.261,10.592 141.693,10.240 141.994 C 9.888 142.296,9.600 142.798,9.600 143.111 C 9.600 143.424,9.456 143.680,9.280 143.680 C 9.104 143.680,8.960 143.874,8.960 144.110 C 8.960 144.347,8.672 144.801,8.320 145.120 C 7.968 145.439,7.680 145.893,7.680 146.130 C 7.680 146.366,7.549 146.560,7.388 146.560 C 7.228 146.560,6.999 147.136,6.880 147.840 C 6.761 148.544,6.532 149.120,6.372 149.120 C 6.211 149.120,6.080 149.408,6.080 149.760 C 6.080 150.112,5.936 150.400,5.760 150.400 C 5.584 150.400,5.440 150.832,5.440 151.360 C 5.440 151.888,5.332 152.321,5.200 152.322 C 4.875 152.326,4.160 153.909,4.160 154.624 C 4.160 154.941,4.016 155.200,3.840 155.200 C 3.664 155.200,3.520 155.488,3.520 155.840 C 3.520 156.192,3.376 156.480,3.200 156.480 C 3.024 156.480,2.880 156.912,2.880 157.440 C 2.880 157.968,2.736 158.400,2.560 158.400 C 2.384 158.400,2.240 158.976,2.240 159.680 C 2.240 160.384,2.096 160.960,1.920 160.960 C 1.744 160.960,1.600 161.536,1.600 162.240 C 1.600 162.944,1.456 163.520,1.280 163.520 C 1.104 163.520,0.960 164.228,0.960 165.093 C 0.960 166.068,0.808 166.717,0.560 166.800 C 0.249 166.904,0.160 169.831,0.160 180.000 C 0.160 190.169,0.249 193.096,0.560 193.200 C 0.808 193.283,0.960 193.932,0.960 194.907 C 0.960 195.772,1.104 196.480,1.280 196.480 C 1.456 196.480,1.600 197.056,1.600 197.760 C 1.600 198.464,1.744 199.040,1.920 199.040 C 2.096 199.040,2.240 199.472,2.240 200.000 C 2.240 200.528,2.384 200.960,2.560 200.960 C 2.736 200.960,2.880 201.392,2.880 201.920 C 2.880 202.448,3.024 202.880,3.200 202.880 C 3.376 202.880,3.520 203.312,3.520 203.840 C 3.520 204.368,3.664 204.800,3.840 204.800 C 4.016 204.800,4.160 205.059,4.160 205.376 C 4.160 206.091,4.875 207.674,5.200 207.678 C 5.332 207.679,5.440 208.112,5.440 208.640 C 5.440 209.168,5.584 209.600,5.760 209.600 C 5.936 209.600,6.080 209.888,6.080 210.240 C 6.080 210.592,6.211 210.880,6.372 210.880 C 6.532 210.880,6.761 211.456,6.880 212.160 C 6.999 212.864,7.228 213.440,7.388 213.440 C 7.549 213.440,7.680 213.634,7.680 213.870 C 7.680 214.107,7.968 214.561,8.320 214.880 C 8.672 215.199,8.960 215.653,8.960 215.890 C 8.960 216.126,9.104 216.320,9.280 216.320 C 9.456 216.320,9.600 216.576,9.600 216.889 C 9.600 217.202,9.888 217.704,10.240 218.006 C 10.592 218.307,10.880 218.739,10.880 218.966 C 10.880 219.193,11.168 219.586,11.520 219.840 C 11.872 220.094,12.160 220.500,12.160 220.742 C 12.160 220.985,12.592 221.587,13.120 222.080 C 13.648 222.573,14.080 223.144,14.080 223.349 C 14.080 223.554,14.800 224.423,15.680 225.280 C 16.560 226.137,17.280 227.006,17.280 227.212 C 17.280 227.417,18.216 228.476,19.360 229.565 C 20.504 230.654,21.440 231.728,21.440 231.952 C 21.440 232.175,21.584 232.269,21.760 232.160 C 21.936 232.051,22.080 232.105,22.080 232.280 C 22.080 232.454,22.400 232.699,22.792 232.823 C 23.183 232.947,24.114 233.677,24.860 234.444 C 25.606 235.212,26.380 235.840,26.580 235.840 C 26.780 235.840,27.347 236.272,27.840 236.800 C 28.333 237.328,28.967 237.760,29.248 237.760 C 29.530 237.760,29.760 237.880,29.760 238.026 C 29.760 238.172,30.156 238.495,30.640 238.744 C 31.124 238.992,31.738 239.413,32.003 239.678 C 32.643 240.316,33.809 240.960,34.325 240.960 C 34.553 240.960,34.946 241.248,35.200 241.600 C 35.454 241.952,35.845 242.240,36.071 242.240 C 36.296 242.240,36.480 242.384,36.480 242.560 C 36.480 242.736,36.732 242.891,37.040 242.903 C 37.348 242.916,38.032 243.180,38.560 243.489 L 39.520 244.052 39.605 254.414 C 39.656 260.678,39.814 264.902,40.005 265.093 C 40.178 265.266,40.320 265.731,40.320 266.125 C 40.320 266.520,40.464 266.931,40.640 267.040 C 40.816 267.149,40.960 267.503,40.960 267.826 C 40.960 268.669,42.793 272.039,43.534 272.558 C 43.879 272.799,44.160 273.137,44.160 273.309 C 44.160 273.716,46.284 275.840,46.691 275.840 C 46.863 275.840,47.201 276.121,47.442 276.466 C 47.961 277.207,51.331 279.040,52.174 279.040 C 52.497 279.040,52.851 279.184,52.960 279.360 C 53.069 279.536,53.501 279.680,53.920 279.680 C 54.339 279.680,54.771 279.824,54.880 280.000 C 55.009 280.209,63.730 280.320,80.000 280.320 C 96.270 280.320,104.991 280.209,105.120 280.000 C 105.229 279.824,105.661 279.680,106.080 279.680 C 106.499 279.680,106.931 279.536,107.040 279.360 C 107.149 279.184,107.503 279.040,107.826 279.040 C 108.669 279.040,112.039 277.207,112.558 276.466 C 112.799 276.121,113.137 275.840,113.309 275.840 C 113.716 275.840,115.840 273.716,115.840 273.309 C 115.840 273.137,116.121 272.799,116.466 272.558 C 117.207 272.039,119.040 268.669,119.040 267.826 C 119.040 267.503,119.184 267.149,119.360 267.040 C 119.536 266.931,119.680 266.499,119.680 266.080 C 119.680 265.661,119.824 265.229,120.000 265.120 C 120.202 264.995,120.320 261.330,120.320 255.181 C 120.320 248.900,120.206 245.440,120.000 245.440 C 119.824 245.440,119.679 245.188,119.677 244.880 C 119.675 244.572,119.243 243.980,118.717 243.564 C 118.191 243.148,117.760 242.594,117.760 242.332 C 117.760 242.071,117.328 241.453,116.800 240.960 C 116.272 240.467,115.840 239.865,115.840 239.622 C 115.840 239.380,115.552 238.974,115.200 238.720 C 114.848 238.466,114.560 238.003,114.560 237.689 C 114.560 237.376,114.416 237.120,114.240 237.120 C 114.064 237.120,113.920 236.990,113.920 236.831 C 113.920 236.672,113.405 235.630,112.775 234.516 C 112.145 233.402,111.605 232.344,111.575 232.165 C 111.545 231.986,111.268 231.607,110.960 231.322 C 110.652 231.038,110.400 230.570,110.400 230.282 C 110.400 229.995,110.256 229.760,110.080 229.760 C 109.904 229.760,109.760 229.328,109.760 228.800 C 109.760 228.272,109.616 227.840,109.440 227.840 C 109.264 227.840,109.120 227.552,109.120 227.200 C 109.120 226.848,108.976 226.560,108.800 226.560 C 108.624 226.560,108.480 226.272,108.480 225.920 C 108.480 225.568,108.336 225.280,108.160 225.280 C 107.984 225.280,107.840 224.992,107.840 224.640 C 107.840 224.288,107.696 224.000,107.520 224.000 C 107.344 224.000,107.200 223.560,107.200 223.021 C 107.200 222.450,107.067 222.125,106.880 222.240 C 106.704 222.349,106.560 222.150,106.560 221.798 C 106.560 221.446,106.416 221.069,106.240 220.960 C 106.064 220.851,105.920 220.411,105.920 219.981 C 105.920 219.552,105.776 219.200,105.600 219.200 C 105.424 219.200,105.280 218.768,105.280 218.240 C 105.280 217.712,105.136 217.280,104.960 217.280 C 104.784 217.280,104.640 216.848,104.640 216.320 C 104.640 215.792,104.496 215.360,104.320 215.360 C 104.144 215.360,104.000 214.784,104.000 214.080 C 104.000 213.376,103.856 212.800,103.680 212.800 C 103.504 212.800,103.360 212.224,103.360 211.520 C 103.360 210.816,103.216 210.240,103.040 210.240 C 102.864 210.240,102.720 209.664,102.720 208.960 C 102.720 208.256,102.576 207.680,102.400 207.680 C 102.224 207.680,102.080 207.032,102.080 206.240 C 102.080 205.448,101.936 204.800,101.760 204.800 C 101.573 204.800,101.440 203.733,101.440 202.240 C 101.440 200.747,101.307 199.680,101.120 199.680 C 100.913 199.680,100.800 196.100,100.800 189.581 C 100.800 182.930,100.909 179.550,101.120 179.680 C 101.322 179.805,101.440 179.050,101.440 177.638 C 101.440 176.406,101.584 175.309,101.760 175.200 C 101.936 175.091,102.080 174.363,102.080 173.581 C 102.080 172.800,102.224 172.160,102.400 172.160 C 102.576 172.160,102.720 171.584,102.720 170.880 C 102.720 170.176,102.864 169.600,103.040 169.600 C 103.216 169.600,103.360 169.024,103.360 168.320 C 103.360 167.616,103.504 167.040,103.680 167.040 C 103.856 167.040,104.000 166.464,104.000 165.760 C 104.000 165.056,104.144 164.480,104.320 164.480 C 104.496 164.480,104.640 164.120,104.640 163.680 C 104.640 163.240,104.784 162.880,104.960 162.880 C 105.136 162.880,105.280 162.456,105.280 161.939 C 105.280 161.421,105.424 160.909,105.600 160.800 C 105.776 160.691,105.920 160.327,105.920 159.991 C 105.920 159.655,106.208 158.867,106.560 158.240 C 106.912 157.613,107.200 156.817,107.200 156.470 C 107.200 156.124,107.344 155.840,107.520 155.840 C 107.696 155.840,107.840 155.552,107.840 155.200 C 107.840 154.848,107.984 154.560,108.160 154.560 C 108.336 154.560,108.480 154.272,108.480 153.920 C 108.480 153.568,108.624 153.280,108.800 153.280 C 108.976 153.280,109.120 153.064,109.120 152.800 C 109.120 152.536,109.233 152.320,109.372 152.320 C 109.510 152.320,109.646 152.024,109.673 151.661 C 109.739 150.785,110.489 149.120,110.817 149.120 C 110.960 149.120,110.989 148.976,110.880 148.800 C 110.771 148.624,110.828 148.480,111.006 148.480 C 111.184 148.480,111.581 147.940,111.888 147.280 C 112.195 146.620,112.540 146.008,112.654 145.920 C 112.768 145.832,112.958 145.364,113.077 144.880 C 113.195 144.396,113.433 144.000,113.606 144.000 C 113.779 144.000,113.920 143.712,113.920 143.360 C 113.920 143.008,114.064 142.720,114.240 142.720 C 114.416 142.720,114.560 142.464,114.560 142.151 C 114.560 141.837,114.848 141.374,115.200 141.120 C 115.552 140.866,115.840 140.394,115.840 140.070 C 115.840 139.747,115.962 139.558,116.112 139.650 C 116.261 139.743,116.571 139.468,116.800 139.040 C 117.029 138.612,117.339 138.337,117.488 138.430 C 117.638 138.522,117.760 138.317,117.760 137.975 C 117.760 137.632,118.191 137.012,118.717 136.596 C 119.243 136.180,119.675 135.617,119.677 135.345 C 119.679 135.073,120.256 134.287,120.960 133.600 C 121.664 132.913,122.240 132.211,122.240 132.040 C 122.240 131.870,122.852 131.122,123.600 130.378 C 124.348 129.635,125.859 128.111,126.958 126.993 C 128.058 125.875,129.385 124.600,129.909 124.160 C 131.198 123.077,130.459 120.962,128.791 120.960 C 128.609 120.960,128.254 120.672,128.000 120.320 C 127.746 119.968,127.356 119.680,127.132 119.680 C 126.908 119.680,126.546 119.392,126.326 119.040 C 126.106 118.688,125.601 118.400,125.203 118.400 C 124.805 118.400,124.480 118.256,124.480 118.080 C 124.480 117.904,124.264 117.760,124.000 117.760 C 123.736 117.760,123.520 117.616,123.520 117.440 C 123.520 117.264,123.318 117.120,123.070 117.120 C 122.537 117.120,119.887 115.786,119.733 115.440 C 119.675 115.308,119.207 115.200,118.693 115.200 C 118.180 115.200,117.760 115.046,117.760 114.858 C 117.760 114.662,117.487 114.603,117.120 114.720 C 116.758 114.835,116.480 114.778,116.480 114.588 C 116.480 114.403,116.094 114.155,115.621 114.037 C 115.149 113.918,114.393 113.628,113.941 113.393 C 113.490 113.157,112.796 112.963,112.400 112.962 C 112.004 112.961,111.680 112.816,111.680 112.640 C 111.680 112.464,111.104 112.320,110.400 112.320 C 109.696 112.320,109.120 112.176,109.120 112.000 C 109.120 111.824,108.544 111.680,107.840 111.680 C 107.136 111.680,106.560 111.536,106.560 111.360 C 106.560 111.184,105.840 111.040,104.960 111.040 C 104.080 111.040,103.360 110.896,103.360 110.720 C 103.360 110.542,102.500 110.400,101.421 110.400 C 100.210 110.400,99.556 110.280,99.680 110.080 C 99.811 109.868,93.170 109.760,80.000 109.760 C 66.830 109.760,60.189 109.868,60.320 110.080 M300.320 110.080 C 300.445 110.282,299.683 110.400,298.259 110.400 C 296.966 110.400,296.000 110.537,296.000 110.720 C 296.000 110.896,295.424 111.040,294.720 111.040 C 294.016 111.040,293.440 111.184,293.440 111.360 C 293.440 111.536,292.864 111.680,292.160 111.680 C 291.456 111.680,290.880 111.824,290.880 112.000 C 290.880 112.176,290.304 112.320,289.600 112.320 C 288.896 112.320,288.320 112.448,288.320 112.604 C 288.320 112.760,287.648 112.988,286.827 113.111 C 285.426 113.321,283.943 114.014,283.474 114.676 C 283.361 114.836,282.893 114.872,282.434 114.757 C 281.944 114.634,281.600 114.682,281.600 114.874 C 281.600 115.053,281.324 115.200,280.987 115.200 C 280.649 115.200,280.325 115.308,280.267 115.440 C 280.113 115.786,277.463 117.120,276.930 117.120 C 276.682 117.120,276.480 117.264,276.480 117.440 C 276.480 117.616,276.296 117.760,276.071 117.760 C 275.845 117.760,275.454 118.048,275.200 118.400 C 274.946 118.752,274.553 119.040,274.325 119.040 C 273.771 119.040,272.607 119.711,271.966 120.400 C 271.679 120.708,271.318 120.960,271.162 120.960 C 269.534 120.963,268.821 123.093,270.091 124.160 C 270.615 124.600,271.942 125.875,273.042 126.993 C 274.141 128.111,275.652 129.635,276.400 130.378 C 277.148 131.122,277.760 131.870,277.760 132.040 C 277.760 132.211,278.336 132.913,279.040 133.600 C 279.744 134.287,280.321 135.073,280.323 135.345 C 280.325 135.617,280.757 136.180,281.283 136.596 C 281.809 137.012,282.240 137.632,282.240 137.975 C 282.240 138.317,282.362 138.522,282.512 138.430 C 282.661 138.337,282.971 138.612,283.200 139.040 C 283.429 139.468,283.739 139.743,283.888 139.650 C 284.038 139.558,284.160 139.747,284.160 140.070 C 284.160 140.394,284.448 140.866,284.800 141.120 C 285.152 141.374,285.440 141.837,285.440 142.151 C 285.440 142.464,285.584 142.720,285.760 142.720 C 285.936 142.720,286.080 143.008,286.080 143.360 C 286.080 143.712,286.221 144.000,286.394 144.000 C 286.567 144.000,286.805 144.396,286.923 144.880 C 287.042 145.364,287.232 145.832,287.346 145.920 C 287.460 146.008,287.805 146.620,288.112 147.280 C 288.419 147.940,288.816 148.480,288.994 148.480 C 289.172 148.480,289.236 148.612,289.137 148.773 C 289.037 148.934,289.065 149.114,289.198 149.173 C 289.598 149.350,290.880 152.015,290.880 152.670 C 290.880 153.006,291.024 153.280,291.200 153.280 C 291.376 153.280,291.520 153.568,291.520 153.920 C 291.520 154.272,291.664 154.560,291.840 154.560 C 292.016 154.560,292.160 154.848,292.160 155.200 C 292.160 155.552,292.304 155.840,292.480 155.840 C 292.656 155.840,292.800 156.124,292.800 156.470 C 292.800 156.817,293.088 157.613,293.440 158.240 C 293.792 158.867,294.080 159.655,294.080 159.991 C 294.080 160.327,294.224 160.691,294.400 160.800 C 294.576 160.909,294.720 161.421,294.720 161.939 C 294.720 162.456,294.864 162.880,295.040 162.880 C 295.216 162.880,295.360 163.240,295.360 163.680 C 295.360 164.120,295.504 164.480,295.680 164.480 C 295.856 164.480,296.000 165.056,296.000 165.760 C 296.000 166.464,296.144 167.040,296.320 167.040 C 296.496 167.040,296.640 167.616,296.640 168.320 C 296.640 169.024,296.784 169.600,296.960 169.600 C 297.136 169.600,297.280 170.176,297.280 170.880 C 297.280 171.584,297.424 172.160,297.600 172.160 C 297.776 172.160,297.920 172.800,297.920 173.581 C 297.920 174.363,298.064 175.091,298.240 175.200 C 298.416 175.309,298.560 176.406,298.560 177.638 C 298.560 179.050,298.678 179.805,298.880 179.680 C 299.091 179.550,299.200 182.930,299.200 189.581 C 299.200 196.100,299.087 199.680,298.880 199.680 C 298.693 199.680,298.560 200.747,298.560 202.240 C 298.560 203.733,298.427 204.800,298.240 204.800 C 298.064 204.800,297.920 205.448,297.920 206.240 C 297.920 207.032,297.776 207.680,297.600 207.680 C 297.424 207.680,297.280 208.256,297.280 208.960 C 297.280 209.664,297.136 210.240,296.960 210.240 C 296.784 210.240,296.640 210.816,296.640 211.520 C 296.640 212.224,296.496 212.800,296.320 212.800 C 296.144 212.800,296.000 213.376,296.000 214.080 C 296.000 214.784,295.856 215.360,295.680 215.360 C 295.504 215.360,295.360 215.792,295.360 216.320 C 295.360 216.848,295.216 217.280,295.040 217.280 C 294.864 217.280,294.720 217.712,294.720 218.240 C 294.720 218.768,294.576 219.200,294.400 219.200 C 294.224 219.200,294.080 219.552,294.080 219.981 C 294.080 220.411,293.936 220.851,293.760 220.960 C 293.584 221.069,293.440 221.446,293.440 221.798 C 293.440 222.150,293.296 222.349,293.120 222.240 C 292.933 222.125,292.800 222.450,292.800 223.021 C 292.800 223.560,292.656 224.000,292.480 224.000 C 292.304 224.000,292.160 224.288,292.160 224.640 C 292.160 224.992,292.016 225.280,291.840 225.280 C 291.664 225.280,291.520 225.568,291.520 225.920 C 291.520 226.272,291.376 226.560,291.200 226.560 C 291.024 226.560,290.880 226.992,290.880 227.520 C 290.880 228.048,290.736 228.480,290.560 228.480 C 290.384 228.480,290.240 228.768,290.240 229.120 C 290.240 229.472,290.096 229.760,289.920 229.760 C 289.744 229.760,289.600 229.995,289.600 230.282 C 289.600 230.570,289.348 231.038,289.040 231.322 C 288.732 231.607,288.455 231.986,288.425 232.165 C 288.395 232.344,287.855 233.402,287.225 234.516 C 286.595 235.630,286.080 236.672,286.080 236.831 C 286.080 236.990,285.936 237.120,285.760 237.120 C 285.584 237.120,285.440 237.376,285.440 237.689 C 285.440 238.003,285.152 238.466,284.800 238.720 C 284.448 238.974,284.160 239.380,284.160 239.622 C 284.160 239.865,283.728 240.467,283.200 240.960 C 282.672 241.453,282.240 242.071,282.240 242.332 C 282.240 242.594,281.809 243.148,281.283 243.564 C 280.757 243.980,280.325 244.572,280.323 244.880 C 280.321 245.188,280.176 245.440,280.000 245.440 C 279.794 245.440,279.680 248.900,279.680 255.181 C 279.680 261.330,279.798 264.995,280.000 265.120 C 280.176 265.229,280.320 265.661,280.320 266.080 C 280.320 266.499,280.464 266.931,280.640 267.040 C 280.816 267.149,280.960 267.503,280.960 267.826 C 280.960 268.669,282.793 272.039,283.534 272.558 C 283.879 272.799,284.160 273.137,284.160 273.309 C 284.160 273.716,286.284 275.840,286.691 275.840 C 286.863 275.840,287.201 276.121,287.442 276.466 C 287.961 277.207,291.331 279.040,292.174 279.040 C 292.497 279.040,292.851 279.184,292.960 279.360 C 293.069 279.536,293.501 279.680,293.920 279.680 C 294.339 279.680,294.771 279.824,294.880 280.000 C 295.009 280.209,303.730 280.320,320.000 280.320 C 336.270 280.320,344.991 280.209,345.120 280.000 C 345.229 279.824,345.661 279.680,346.080 279.680 C 346.499 279.680,346.931 279.536,347.040 279.360 C 347.149 279.184,347.503 279.040,347.826 279.040 C 348.669 279.040,352.039 277.207,352.558 276.466 C 352.799 276.121,353.137 275.840,353.309 275.840 C 353.716 275.840,355.840 273.716,355.840 273.309 C 355.840 273.137,356.121 272.799,356.466 272.558 C 357.207 272.039,359.040 268.669,359.040 267.826 C 359.040 267.503,359.184 267.149,359.360 267.040 C 359.536 266.931,359.680 266.520,359.680 266.125 C 359.680 265.731,359.822 265.266,359.995 265.093 C 360.186 264.902,360.344 260.678,360.395 254.414 L 360.480 244.052 361.440 243.489 C 361.968 243.180,362.652 242.916,362.960 242.903 C 363.268 242.891,363.520 242.736,363.520 242.560 C 363.520 242.384,363.704 242.240,363.929 242.240 C 364.155 242.240,364.546 241.952,364.800 241.600 C 365.054 241.248,365.447 240.960,365.675 240.960 C 366.191 240.960,367.357 240.316,367.997 239.678 C 368.262 239.413,368.876 238.992,369.360 238.744 C 369.844 238.495,370.240 238.172,370.240 238.026 C 370.240 237.880,370.470 237.760,370.752 237.760 C 371.033 237.760,371.667 237.328,372.160 236.800 C 372.653 236.272,373.220 235.840,373.420 235.840 C 373.620 235.840,374.394 235.212,375.140 234.444 C 375.886 233.677,376.817 232.947,377.208 232.823 C 377.600 232.699,377.920 232.454,377.920 232.280 C 377.920 232.105,378.064 232.051,378.240 232.160 C 378.416 232.269,378.560 232.172,378.560 231.944 C 378.560 231.717,379.352 230.788,380.320 229.880 C 381.288 228.971,382.080 228.061,382.080 227.857 C 382.080 227.652,382.944 226.637,384.000 225.600 C 385.056 224.563,385.920 223.549,385.920 223.346 C 385.920 223.143,386.352 222.573,386.880 222.080 C 387.408 221.587,387.840 220.985,387.840 220.742 C 387.840 220.500,388.128 220.094,388.480 219.840 C 388.832 219.586,389.120 219.193,389.120 218.966 C 389.120 218.739,389.408 218.307,389.760 218.006 C 390.112 217.704,390.400 217.202,390.400 216.889 C 390.400 216.576,390.544 216.320,390.720 216.320 C 390.896 216.320,391.040 216.126,391.040 215.890 C 391.040 215.653,391.328 215.199,391.680 214.880 C 392.032 214.561,392.320 214.107,392.320 213.870 C 392.320 213.634,392.451 213.440,392.612 213.440 C 392.772 213.440,393.001 212.864,393.120 212.160 C 393.239 211.456,393.468 210.880,393.628 210.880 C 393.789 210.880,393.920 210.592,393.920 210.240 C 393.920 209.888,394.064 209.600,394.240 209.600 C 394.416 209.600,394.560 209.168,394.560 208.640 C 394.560 208.112,394.668 207.679,394.800 207.678 C 395.125 207.674,395.840 206.091,395.840 205.376 C 395.840 205.059,395.984 204.800,396.160 204.800 C 396.336 204.800,396.480 204.368,396.480 203.840 C 396.480 203.312,396.624 202.880,396.800 202.880 C 396.976 202.880,397.120 202.448,397.120 201.920 C 397.120 201.392,397.264 200.960,397.440 200.960 C 397.616 200.960,397.760 200.528,397.760 200.000 C 397.760 199.472,397.904 199.040,398.080 199.040 C 398.256 199.040,398.400 198.464,398.400 197.760 C 398.400 197.056,398.544 196.480,398.720 196.480 C 398.896 196.480,399.040 195.772,399.040 194.907 C 399.040 193.932,399.192 193.283,399.440 193.200 C 399.751 193.096,399.840 190.169,399.840 180.000 C 399.840 169.831,399.751 166.904,399.440 166.800 C 399.192 166.717,399.040 166.068,399.040 165.093 C 399.040 164.228,398.896 163.520,398.720 163.520 C 398.544 163.520,398.400 162.944,398.400 162.240 C 398.400 161.536,398.256 160.960,398.080 160.960 C 397.904 160.960,397.760 160.384,397.760 159.680 C 397.760 158.976,397.616 158.400,397.440 158.400 C 397.264 158.400,397.120 157.968,397.120 157.440 C 397.120 156.912,396.976 156.480,396.800 156.480 C 396.624 156.480,396.480 156.192,396.480 155.840 C 396.480 155.488,396.336 155.200,396.160 155.200 C 395.984 155.200,395.840 154.941,395.840 154.624 C 395.840 153.909,395.125 152.326,394.800 152.322 C 394.668 152.321,394.560 151.888,394.560 151.360 C 394.560 150.832,394.416 150.400,394.240 150.400 C 394.064 150.400,393.920 150.112,393.920 149.760 C 393.920 149.408,393.789 149.120,393.628 149.120 C 393.468 149.120,393.239 148.544,393.120 147.840 C 393.001 147.136,392.772 146.560,392.612 146.560 C 392.451 146.560,392.320 146.366,392.320 146.130 C 392.320 145.893,392.032 145.439,391.680 145.120 C 391.328 144.801,391.040 144.347,391.040 144.110 C 391.040 143.874,390.896 143.680,390.720 143.680 C 390.544 143.680,390.400 143.392,390.400 143.040 C 390.400 142.688,390.253 142.400,390.073 142.400 C 389.893 142.400,389.573 142.004,389.361 141.520 C 389.148 141.036,388.719 140.407,388.407 140.122 C 388.095 139.838,387.840 139.428,387.840 139.211 C 387.840 138.994,387.408 138.413,386.880 137.920 C 386.352 137.427,385.920 136.854,385.920 136.647 C 385.920 136.439,385.344 135.716,384.640 135.040 C 383.936 134.364,383.360 133.641,383.360 133.434 C 383.360 133.228,382.280 132.020,380.960 130.750 C 379.640 129.481,378.560 128.262,378.560 128.042 C 378.560 127.822,378.442 127.715,378.298 127.804 C 378.154 127.893,377.835 127.685,377.588 127.343 C 377.341 127.000,376.910 126.720,376.630 126.720 C 376.351 126.720,375.626 126.147,375.021 125.447 C 374.415 124.747,373.726 124.171,373.488 124.167 C 373.251 124.163,372.653 123.728,372.160 123.200 C 371.667 122.672,371.033 122.240,370.752 122.240 C 370.470 122.240,370.240 122.120,370.240 121.974 C 370.240 121.828,369.844 121.505,369.360 121.256 C 368.876 121.008,368.262 120.587,367.997 120.322 C 367.357 119.684,366.191 119.040,365.675 119.040 C 365.447 119.040,365.054 118.752,364.800 118.400 C 364.546 118.048,364.155 117.760,363.929 117.760 C 363.704 117.760,363.520 117.616,363.520 117.440 C 363.520 117.264,363.318 117.120,363.070 117.120 C 362.537 117.120,359.887 115.786,359.733 115.440 C 359.675 115.308,359.207 115.200,358.693 115.200 C 358.180 115.200,357.760 115.046,357.760 114.858 C 357.760 114.662,357.487 114.603,357.120 114.720 C 356.758 114.835,356.480 114.778,356.480 114.588 C 356.480 114.403,356.094 114.155,355.621 114.037 C 355.149 113.918,354.393 113.628,353.941 113.393 C 353.490 113.157,352.796 112.963,352.400 112.962 C 352.004 112.961,351.680 112.816,351.680 112.640 C 351.680 112.464,351.104 112.320,350.400 112.320 C 349.696 112.320,349.120 112.176,349.120 112.000 C 349.120 111.824,348.544 111.680,347.840 111.680 C 347.136 111.680,346.560 111.536,346.560 111.360 C 346.560 111.184,345.840 111.040,344.960 111.040 C 344.080 111.040,343.360 110.896,343.360 110.720 C 343.360 110.542,342.500 110.400,341.421 110.400 C 340.210 110.400,339.556 110.280,339.680 110.080 C 339.811 109.868,333.170 109.760,320.000 109.760 C 306.830 109.760,300.189 109.868,300.320 110.080 M180.320 120.000 C 180.444 120.200,179.790 120.320,178.579 120.320 C 177.500 120.320,176.640 120.462,176.640 120.640 C 176.640 120.816,176.000 120.960,175.219 120.960 C 174.437 120.960,173.709 121.104,173.600 121.280 C 173.491 121.456,172.915 121.600,172.320 121.600 C 171.725 121.600,171.149 121.744,171.040 121.920 C 170.931 122.096,170.355 122.240,169.760 122.240 C 169.165 122.240,168.589 122.384,168.480 122.560 C 168.371 122.736,167.931 122.880,167.501 122.880 C 167.072 122.880,166.720 123.024,166.720 123.200 C 166.720 123.376,166.432 123.520,166.080 123.520 C 165.728 123.520,165.440 123.664,165.440 123.840 C 165.440 124.016,165.008 124.160,164.480 124.160 C 163.952 124.160,163.520 124.304,163.520 124.480 C 163.520 124.656,163.232 124.800,162.880 124.800 C 162.528 124.800,162.240 124.944,162.240 125.120 C 162.240 125.296,161.808 125.440,161.280 125.440 C 160.752 125.440,160.320 125.584,160.320 125.760 C 160.320 125.936,160.032 126.080,159.680 126.080 C 159.328 126.080,159.040 126.206,159.040 126.360 C 159.040 126.600,157.515 127.063,156.914 127.005 C 156.803 126.994,156.622 127.130,156.513 127.307 C 156.403 127.484,156.106 127.676,155.852 127.734 C 155.597 127.792,155.053 128.163,154.643 128.557 C 154.233 128.951,153.553 129.360,153.132 129.466 C 152.711 129.571,152.293 129.850,152.202 130.085 C 152.112 130.320,151.526 130.755,150.899 131.052 C 150.273 131.350,149.760 131.721,149.760 131.876 C 149.760 132.032,149.530 132.160,149.248 132.160 C 148.967 132.160,148.333 132.592,147.840 133.120 C 147.347 133.648,146.820 134.080,146.670 134.080 C 146.520 134.080,145.785 134.656,145.038 135.360 C 144.290 136.064,143.525 136.640,143.336 136.640 C 143.148 136.640,142.778 136.856,142.514 137.120 C 142.250 137.384,142.153 137.601,142.297 137.602 C 142.442 137.603,142.163 137.866,141.677 138.186 C 141.192 138.506,140.892 138.865,141.011 138.984 C 141.130 139.103,140.978 139.200,140.674 139.200 C 140.371 139.200,140.188 139.308,140.268 139.440 C 140.457 139.753,139.648 140.501,139.394 140.247 C 139.287 140.141,139.200 140.302,139.200 140.606 C 139.200 140.909,139.078 141.082,138.928 140.990 C 138.779 140.897,138.468 141.175,138.237 141.606 C 138.006 142.037,137.553 142.473,137.229 142.576 C 136.905 142.679,136.640 142.969,136.640 143.221 C 136.640 143.473,136.064 144.290,135.360 145.038 C 134.656 145.785,134.080 146.520,134.080 146.670 C 134.080 146.820,133.648 147.347,133.120 147.840 C 132.592 148.333,132.160 148.967,132.160 149.248 C 132.160 149.530,132.032 149.760,131.876 149.760 C 131.721 149.760,131.350 150.273,131.052 150.899 C 130.755 151.526,130.320 152.112,130.085 152.202 C 129.850 152.293,129.571 152.711,129.466 153.132 C 129.360 153.553,128.951 154.233,128.557 154.643 C 128.163 155.053,127.792 155.597,127.734 155.852 C 127.676 156.106,127.484 156.403,127.307 156.513 C 127.130 156.622,126.994 156.803,127.005 156.914 C 127.063 157.515,126.600 159.040,126.360 159.040 C 126.206 159.040,126.080 159.328,126.080 159.680 C 126.080 160.032,125.936 160.320,125.760 160.320 C 125.584 160.320,125.440 160.752,125.440 161.280 C 125.440 161.808,125.296 162.240,125.120 162.240 C 124.944 162.240,124.800 162.528,124.800 162.880 C 124.800 163.232,124.656 163.520,124.480 163.520 C 124.304 163.520,124.160 163.952,124.160 164.480 C 124.160 165.008,124.016 165.440,123.840 165.440 C 123.664 165.440,123.520 165.728,123.520 166.080 C 123.520 166.432,123.376 166.720,123.200 166.720 C 123.024 166.720,122.880 167.072,122.880 167.501 C 122.880 167.931,122.736 168.371,122.560 168.480 C 122.384 168.589,122.240 169.165,122.240 169.760 C 122.240 170.355,122.096 170.931,121.920 171.040 C 121.744 171.149,121.600 171.725,121.600 172.320 C 121.600 172.915,121.456 173.491,121.280 173.600 C 121.104 173.709,120.960 174.437,120.960 175.219 C 120.960 176.000,120.816 176.640,120.640 176.640 C 120.462 176.640,120.320 177.500,120.320 178.579 C 120.320 179.790,120.200 180.444,120.000 180.320 C 119.789 180.190,119.680 183.463,119.680 189.901 C 119.680 196.207,119.794 199.680,120.000 199.680 C 120.178 199.680,120.320 200.533,120.320 201.600 C 120.320 202.667,120.462 203.520,120.640 203.520 C 120.816 203.520,120.960 204.160,120.960 204.941 C 120.960 205.723,121.104 206.451,121.280 206.560 C 121.456 206.669,121.600 207.253,121.600 207.859 C 121.600 208.464,121.744 208.960,121.920 208.960 C 122.096 208.960,122.240 209.392,122.240 209.920 C 122.240 210.448,122.384 210.880,122.560 210.880 C 122.736 210.880,122.880 211.312,122.880 211.840 C 122.880 212.368,123.024 212.800,123.200 212.800 C 123.376 212.800,123.520 213.152,123.520 213.581 C 123.520 214.011,123.664 214.451,123.840 214.560 C 124.016 214.669,124.160 215.181,124.160 215.699 C 124.160 216.216,124.268 216.641,124.400 216.642 C 124.761 216.646,125.440 218.264,125.440 219.123 C 125.440 219.545,125.581 219.791,125.760 219.680 C 125.936 219.571,126.080 219.779,126.080 220.141 C 126.080 220.504,126.224 220.800,126.400 220.800 C 126.576 220.800,126.720 221.054,126.720 221.365 C 126.720 221.675,127.008 222.467,127.361 223.125 C 127.713 223.782,127.893 224.324,127.761 224.330 C 127.628 224.335,127.762 224.481,128.058 224.653 C 128.354 224.826,128.983 225.758,129.456 226.724 C 129.928 227.690,130.442 228.480,130.598 228.480 C 130.753 228.480,130.880 228.674,130.880 228.910 C 130.880 229.147,131.168 229.601,131.520 229.920 C 131.872 230.239,132.160 230.773,132.160 231.108 C 132.160 231.444,132.282 231.642,132.432 231.550 C 132.581 231.457,132.894 231.737,133.126 232.171 C 133.358 232.605,133.668 232.960,133.814 232.960 C 133.960 232.960,134.080 233.113,134.080 233.301 C 134.080 233.488,134.800 234.343,135.680 235.200 C 136.560 236.057,137.280 236.921,137.280 237.120 C 137.280 237.319,137.993 238.176,138.864 239.024 C 139.734 239.872,140.358 240.655,140.250 240.763 C 140.142 240.871,140.231 240.960,140.447 240.960 C 140.664 240.960,141.205 241.392,141.649 241.920 C 142.093 242.448,142.595 242.880,142.763 242.880 C 142.931 242.880,143.403 243.204,143.810 243.600 C 144.218 243.996,144.860 244.532,145.236 244.791 C 145.612 245.049,145.920 245.445,145.920 245.671 C 145.920 245.896,146.173 246.080,146.483 246.080 C 146.793 246.080,147.435 246.440,147.909 246.880 C 148.384 247.320,148.963 247.680,149.195 247.680 C 149.428 247.680,149.826 247.968,150.080 248.320 C 150.334 248.672,150.745 248.960,150.993 248.960 C 151.242 248.960,151.678 249.213,151.962 249.522 C 152.247 249.831,152.912 250.299,153.440 250.562 C 153.968 250.825,154.599 251.229,154.842 251.459 C 155.085 251.690,155.841 252.120,156.522 252.415 C 157.203 252.710,157.760 253.061,157.760 253.195 C 157.760 253.330,158.019 253.440,158.336 253.440 C 159.670 253.440,159.680 253.563,159.680 269.645 C 159.680 279.591,159.794 285.153,160.000 285.280 C 160.176 285.389,160.320 285.829,160.320 286.259 C 160.320 286.688,160.464 287.040,160.640 287.040 C 160.816 287.040,160.960 287.472,160.960 288.000 C 160.960 288.528,161.104 288.960,161.280 288.960 C 161.456 288.960,161.600 289.248,161.600 289.600 C 161.600 289.952,161.744 290.240,161.920 290.240 C 162.096 290.240,162.240 290.470,162.240 290.752 C 162.240 291.033,162.672 291.667,163.200 292.160 C 163.728 292.653,164.160 293.232,164.160 293.445 C 164.160 293.956,166.401 296.000,166.961 296.000 C 167.201 296.000,167.336 296.108,167.261 296.240 C 167.117 296.493,168.299 297.760,168.734 297.819 C 169.326 297.900,170.880 298.656,170.880 298.863 C 170.880 298.988,171.312 299.026,171.840 298.948 C 172.528 298.847,172.800 298.938,172.800 299.268 C 172.800 299.598,173.072 299.689,173.760 299.588 C 174.336 299.504,174.720 299.590,174.720 299.804 C 174.720 300.062,181.642 300.160,200.000 300.160 C 218.358 300.160,225.280 300.062,225.280 299.804 C 225.280 299.590,225.664 299.504,226.240 299.588 C 226.928 299.689,227.200 299.598,227.200 299.268 C 227.200 298.938,227.472 298.847,228.160 298.948 C 228.688 299.026,229.120 298.988,229.120 298.863 C 229.120 298.612,230.953 297.789,231.117 297.967 C 231.302 298.168,232.880 296.488,232.739 296.240 C 232.664 296.108,232.799 296.000,233.039 296.000 C 233.599 296.000,235.840 293.956,235.840 293.445 C 235.840 293.232,236.272 292.653,236.800 292.160 C 237.328 291.667,237.760 291.033,237.760 290.752 C 237.760 290.470,237.904 290.240,238.080 290.240 C 238.256 290.240,238.400 289.952,238.400 289.600 C 238.400 289.248,238.544 288.960,238.720 288.960 C 238.896 288.960,239.040 288.528,239.040 288.000 C 239.040 287.472,239.184 287.040,239.360 287.040 C 239.536 287.040,239.680 286.688,239.680 286.259 C 239.680 285.829,239.824 285.389,240.000 285.280 C 240.206 285.153,240.320 279.591,240.320 269.645 C 240.320 253.563,240.330 253.440,241.664 253.440 C 241.981 253.440,242.240 253.330,242.240 253.195 C 242.240 253.061,242.797 252.710,243.478 252.415 C 244.159 252.120,244.915 251.690,245.158 251.459 C 245.401 251.229,246.032 250.825,246.560 250.562 C 247.088 250.299,247.753 249.831,248.038 249.522 C 248.322 249.213,248.758 248.960,249.007 248.960 C 249.255 248.960,249.666 248.672,249.920 248.320 C 250.174 247.968,250.572 247.680,250.805 247.680 C 251.037 247.680,251.616 247.320,252.091 246.880 C 252.565 246.440,253.207 246.080,253.517 246.080 C 253.827 246.080,254.080 245.896,254.080 245.671 C 254.080 245.445,254.388 245.049,254.764 244.791 C 255.140 244.532,255.782 243.996,256.190 243.600 C 256.597 243.204,257.069 242.880,257.237 242.880 C 257.405 242.880,257.907 242.448,258.351 241.920 C 258.795 241.392,259.336 240.960,259.553 240.960 C 259.769 240.960,259.857 240.870,259.748 240.761 C 259.638 240.652,260.118 240.015,260.814 239.346 C 261.510 238.677,262.080 237.967,262.080 237.767 C 262.080 237.568,262.944 236.557,264.000 235.520 C 265.056 234.483,265.920 233.483,265.920 233.298 C 265.920 233.112,266.040 232.960,266.186 232.960 C 266.332 232.960,266.642 232.605,266.874 232.171 C 267.106 231.737,267.419 231.457,267.568 231.550 C 267.718 231.642,267.840 231.444,267.840 231.108 C 267.840 230.773,268.128 230.239,268.480 229.920 C 268.832 229.601,269.120 229.147,269.120 228.910 C 269.120 228.674,269.247 228.480,269.402 228.480 C 269.558 228.480,270.072 227.690,270.544 226.724 C 271.017 225.758,271.646 224.826,271.942 224.653 C 272.238 224.481,272.372 224.335,272.239 224.330 C 272.107 224.324,272.287 223.782,272.639 223.125 C 272.992 222.467,273.280 221.675,273.280 221.365 C 273.280 221.054,273.424 220.800,273.600 220.800 C 273.776 220.800,273.920 220.504,273.920 220.141 C 273.920 219.779,274.064 219.571,274.240 219.680 C 274.427 219.795,274.560 219.470,274.560 218.899 C 274.560 218.360,274.704 217.920,274.880 217.920 C 275.056 217.920,275.200 217.632,275.200 217.280 C 275.200 216.928,275.344 216.640,275.520 216.640 C 275.696 216.640,275.840 216.216,275.840 215.699 C 275.840 215.181,275.984 214.669,276.160 214.560 C 276.336 214.451,276.480 214.011,276.480 213.581 C 276.480 213.152,276.624 212.800,276.800 212.800 C 276.976 212.800,277.120 212.368,277.120 211.840 C 277.120 211.312,277.264 210.880,277.440 210.880 C 277.616 210.880,277.760 210.448,277.760 209.920 C 277.760 209.392,277.904 208.960,278.080 208.960 C 278.256 208.960,278.400 208.464,278.400 207.859 C 278.400 207.253,278.544 206.669,278.720 206.560 C 278.896 206.451,279.040 205.723,279.040 204.941 C 279.040 204.160,279.184 203.520,279.360 203.520 C 279.538 203.520,279.680 202.667,279.680 201.600 C 279.680 200.533,279.822 199.680,280.000 199.680 C 280.206 199.680,280.320 196.207,280.320 189.901 C 280.320 183.463,280.211 180.190,280.000 180.320 C 279.800 180.444,279.680 179.790,279.680 178.579 C 279.680 177.500,279.538 176.640,279.360 176.640 C 279.184 176.640,279.040 176.000,279.040 175.219 C 279.040 174.437,278.896 173.709,278.720 173.600 C 278.544 173.491,278.400 172.915,278.400 172.320 C 278.400 171.725,278.256 171.149,278.080 171.040 C 277.904 170.931,277.760 170.355,277.760 169.760 C 277.760 169.165,277.616 168.589,277.440 168.480 C 277.264 168.371,277.120 167.931,277.120 167.501 C 277.120 167.072,276.976 166.720,276.800 166.720 C 276.624 166.720,276.480 166.432,276.480 166.080 C 276.480 165.728,276.336 165.440,276.160 165.440 C 275.984 165.440,275.840 165.008,275.840 164.480 C 275.840 163.952,275.696 163.520,275.520 163.520 C 275.344 163.520,275.200 163.232,275.200 162.880 C 275.200 162.528,275.056 162.240,274.880 162.240 C 274.704 162.240,274.560 161.808,274.560 161.280 C 274.560 160.752,274.416 160.320,274.240 160.320 C 274.064 160.320,273.920 160.032,273.920 159.680 C 273.920 159.328,273.794 159.040,273.640 159.040 C 273.400 159.040,272.937 157.515,272.995 156.914 C 273.006 156.803,272.870 156.622,272.693 156.513 C 272.516 156.403,272.324 156.106,272.266 155.852 C 272.208 155.597,271.837 155.053,271.443 154.643 C 271.049 154.233,270.640 153.553,270.534 153.132 C 270.429 152.711,270.150 152.293,269.915 152.202 C 269.680 152.112,269.245 151.526,268.948 150.899 C 268.650 150.273,268.279 149.760,268.124 149.760 C 267.968 149.760,267.840 149.530,267.840 149.248 C 267.840 148.967,267.408 148.333,266.880 147.840 C 266.352 147.347,265.920 146.820,265.920 146.670 C 265.920 146.520,265.344 145.785,264.640 145.038 C 263.936 144.290,263.360 143.525,263.360 143.336 C 263.360 143.148,263.144 142.778,262.880 142.514 C 262.616 142.250,262.399 142.153,262.398 142.297 C 262.397 142.442,262.134 142.163,261.814 141.677 C 261.494 141.192,261.135 140.892,261.016 141.011 C 260.897 141.130,260.800 140.963,260.800 140.640 C 260.800 140.317,260.713 140.141,260.606 140.247 C 260.352 140.501,259.543 139.753,259.732 139.440 C 259.812 139.308,259.629 139.200,259.326 139.200 C 259.022 139.200,258.870 139.103,258.989 138.984 C 259.108 138.865,258.808 138.506,258.323 138.186 C 257.837 137.866,257.558 137.603,257.703 137.602 C 257.847 137.601,257.750 137.384,257.486 137.120 C 257.222 136.856,256.852 136.640,256.664 136.640 C 256.475 136.640,255.710 136.064,254.962 135.360 C 254.215 134.656,253.480 134.080,253.330 134.080 C 253.180 134.080,252.653 133.648,252.160 133.120 C 251.667 132.592,251.033 132.160,250.752 132.160 C 250.470 132.160,250.240 132.032,250.240 131.876 C 250.240 131.721,249.727 131.350,249.101 131.052 C 248.474 130.755,247.888 130.320,247.798 130.085 C 247.707 129.850,247.289 129.571,246.868 129.466 C 246.447 129.360,245.767 128.951,245.357 128.557 C 244.947 128.163,244.403 127.792,244.148 127.734 C 243.894 127.676,243.597 127.484,243.487 127.307 C 243.378 127.130,243.197 126.994,243.086 127.005 C 242.485 127.063,240.960 126.600,240.960 126.360 C 240.960 126.206,240.672 126.080,240.320 126.080 C 239.968 126.080,239.680 125.936,239.680 125.760 C 239.680 125.584,239.248 125.440,238.720 125.440 C 238.192 125.440,237.760 125.296,237.760 125.120 C 237.760 124.944,237.472 124.800,237.120 124.800 C 236.768 124.800,236.480 124.656,236.480 124.480 C 236.480 124.304,236.048 124.160,235.520 124.160 C 234.992 124.160,234.560 124.016,234.560 123.840 C 234.560 123.664,234.272 123.520,233.920 123.520 C 233.568 123.520,233.280 123.376,233.280 123.200 C 233.280 123.024,232.928 122.880,232.499 122.880 C 232.069 122.880,231.629 122.736,231.520 122.560 C 231.411 122.384,230.835 122.240,230.240 122.240 C 229.645 122.240,229.069 122.096,228.960 121.920 C 228.851 121.744,228.275 121.600,227.680 121.600 C 227.085 121.600,226.509 121.456,226.400 121.280 C 226.291 121.104,225.563 120.960,224.781 120.960 C 224.000 120.960,223.360 120.816,223.360 120.640 C 223.360 120.462,222.500 120.320,221.421 120.320 C 220.210 120.320,219.556 120.200,219.680 120.000 C 219.811 119.788,213.170 119.680,200.000 119.680 C 186.830 119.680,180.189 119.788,180.320 120.000 M39.680 180.000 C 39.680 193.288,39.609 204.160,39.522 204.160 C 39.106 204.160,37.760 202.704,37.760 202.253 C 37.760 201.972,37.472 201.534,37.120 201.280 C 36.768 201.026,36.480 200.563,36.480 200.249 C 36.480 199.936,36.336 199.680,36.160 199.680 C 35.984 199.680,35.840 199.486,35.840 199.250 C 35.840 199.013,35.552 198.559,35.200 198.240 C 34.848 197.921,34.560 197.395,34.560 197.070 C 34.560 196.746,34.416 196.480,34.240 196.480 C 34.064 196.480,33.920 196.120,33.920 195.680 C 33.920 195.240,33.776 194.880,33.600 194.880 C 33.424 194.880,33.280 194.512,33.280 194.061 C 33.280 193.611,33.149 193.323,32.990 193.422 C 32.830 193.520,32.775 193.312,32.868 192.959 C 32.960 192.606,32.888 192.137,32.708 191.918 C 32.528 191.699,32.334 191.016,32.277 190.400 C 32.220 189.784,32.069 189.204,31.942 189.110 C 31.814 189.017,31.673 188.405,31.629 187.750 C 31.585 187.096,31.435 186.560,31.295 186.560 C 31.155 186.560,31.040 183.608,31.040 180.000 C 31.040 176.392,31.155 173.440,31.295 173.440 C 31.435 173.440,31.585 172.904,31.629 172.250 C 31.673 171.595,31.814 170.983,31.942 170.890 C 32.069 170.796,32.220 170.216,32.277 169.600 C 32.334 168.984,32.528 168.301,32.708 168.082 C 32.888 167.863,32.960 167.394,32.868 167.041 C 32.775 166.688,32.830 166.480,32.990 166.578 C 33.149 166.677,33.280 166.389,33.280 165.939 C 33.280 165.488,33.424 165.120,33.600 165.120 C 33.776 165.120,33.920 164.760,33.920 164.320 C 33.920 163.880,34.064 163.520,34.240 163.520 C 34.416 163.520,34.560 163.254,34.560 162.930 C 34.560 162.605,34.848 162.079,35.200 161.760 C 35.552 161.441,35.840 160.987,35.840 160.750 C 35.840 160.514,35.984 160.320,36.160 160.320 C 36.336 160.320,36.480 160.064,36.480 159.751 C 36.480 159.437,36.768 158.974,37.120 158.720 C 37.472 158.466,37.760 158.044,37.760 157.781 C 37.760 157.301,38.989 155.896,39.440 155.859 C 39.572 155.849,39.680 166.712,39.680 180.000 M361.438 156.538 C 361.879 156.921,362.240 157.466,362.240 157.747 C 362.240 158.028,362.528 158.466,362.880 158.720 C 363.232 158.974,363.520 159.437,363.520 159.751 C 363.520 160.064,363.664 160.320,363.840 160.320 C 364.016 160.320,364.160 160.514,364.160 160.750 C 364.160 160.987,364.448 161.441,364.800 161.760 C 365.152 162.079,365.440 162.605,365.440 162.930 C 365.440 163.254,365.584 163.520,365.760 163.520 C 365.936 163.520,366.080 163.880,366.080 164.320 C 366.080 164.760,366.224 165.120,366.400 165.120 C 366.576 165.120,366.720 165.488,366.720 165.939 C 366.720 166.389,366.851 166.677,367.010 166.578 C 367.170 166.480,367.225 166.688,367.132 167.041 C 367.040 167.394,367.112 167.863,367.292 168.082 C 367.472 168.301,367.666 168.984,367.723 169.600 C 367.780 170.216,367.931 170.796,368.058 170.890 C 368.186 170.983,368.327 171.595,368.371 172.250 C 368.415 172.904,368.565 173.440,368.705 173.440 C 368.845 173.440,368.960 176.392,368.960 180.000 C 368.960 183.608,368.845 186.560,368.705 186.560 C 368.565 186.560,368.415 187.096,368.371 187.750 C 368.327 188.405,368.186 189.017,368.058 189.110 C 367.931 189.204,367.780 189.784,367.723 190.400 C 367.666 191.016,367.472 191.699,367.292 191.918 C 367.112 192.137,367.040 192.606,367.132 192.959 C 367.225 193.312,367.170 193.520,367.010 193.422 C 366.851 193.323,366.720 193.611,366.720 194.061 C 366.720 194.512,366.576 194.880,366.400 194.880 C 366.224 194.880,366.080 195.240,366.080 195.680 C 366.080 196.120,365.936 196.480,365.760 196.480 C 365.584 196.480,365.440 196.698,365.440 196.964 C 365.440 197.582,364.801 198.723,364.080 199.394 C 363.772 199.681,363.520 200.118,363.520 200.367 C 363.520 200.615,363.232 201.026,362.880 201.280 C 362.528 201.534,362.240 201.972,362.240 202.253 C 362.240 202.704,360.894 204.160,360.478 204.160 C 360.391 204.160,360.320 193.288,360.320 180.000 C 360.320 166.712,360.391 155.840,360.478 155.840 C 360.564 155.840,360.996 156.154,361.438 156.538 M159.679 190.160 L 159.677 214.560 158.799 213.600 C 158.315 213.072,157.716 212.244,157.466 211.760 C 157.216 211.276,156.892 210.880,156.746 210.880 C 156.600 210.880,156.480 210.592,156.480 210.240 C 156.480 209.888,156.336 209.600,156.160 209.600 C 155.984 209.600,155.840 209.304,155.840 208.941 C 155.840 208.579,155.696 208.371,155.520 208.480 C 155.344 208.589,155.200 208.453,155.200 208.179 C 155.200 207.904,155.056 207.680,154.880 207.680 C 154.704 207.680,154.560 207.464,154.560 207.200 C 154.560 206.936,154.416 206.720,154.240 206.720 C 154.064 206.720,153.920 206.288,153.920 205.760 C 153.920 205.232,153.781 204.800,153.611 204.800 C 153.441 204.800,153.207 204.080,153.090 203.200 C 152.973 202.320,152.752 201.600,152.599 201.600 C 152.445 201.600,152.320 201.104,152.320 200.499 C 152.320 199.893,152.176 199.309,152.000 199.200 C 151.824 199.091,151.680 198.515,151.680 197.920 C 151.680 197.325,151.536 196.749,151.360 196.640 C 151.164 196.519,151.040 193.923,151.040 189.920 C 151.040 185.917,151.164 183.321,151.360 183.200 C 151.536 183.091,151.680 182.515,151.680 181.920 C 151.680 181.325,151.808 180.759,151.965 180.662 C 152.121 180.565,152.326 180.017,152.420 179.443 C 152.736 177.509,153.386 175.360,153.654 175.360 C 153.800 175.360,153.920 175.029,153.920 174.624 C 153.920 173.781,154.602 172.166,154.960 172.162 C 155.092 172.161,155.200 171.904,155.200 171.591 C 155.200 171.277,155.488 170.814,155.840 170.560 C 156.192 170.306,156.480 169.874,156.480 169.600 C 156.480 169.326,156.768 168.894,157.120 168.640 C 157.472 168.386,157.760 168.000,157.760 167.781 C 157.760 167.358,159.035 165.851,159.440 165.794 C 159.572 165.775,159.679 176.740,159.679 190.160 M241.425 166.575 C 241.873 167.023,242.240 167.567,242.240 167.784 C 242.240 168.001,242.528 168.386,242.880 168.640 C 243.232 168.894,243.520 169.357,243.520 169.671 C 243.520 169.984,243.664 170.240,243.840 170.240 C 244.016 170.240,244.160 170.496,244.160 170.809 C 244.160 171.123,244.448 171.586,244.800 171.840 C 245.152 172.094,245.440 172.557,245.440 172.871 C 245.440 173.184,245.584 173.440,245.760 173.440 C 245.936 173.440,246.080 173.872,246.080 174.400 C 246.080 174.928,246.200 175.360,246.346 175.360 C 246.614 175.360,247.264 177.509,247.580 179.443 C 247.674 180.017,247.879 180.565,248.035 180.662 C 248.192 180.759,248.320 181.325,248.320 181.920 C 248.320 182.515,248.464 183.091,248.640 183.200 C 248.836 183.321,248.960 185.917,248.960 189.920 C 248.960 193.923,248.836 196.519,248.640 196.640 C 248.464 196.749,248.320 197.325,248.320 197.920 C 248.320 198.515,248.176 199.091,248.000 199.200 C 247.824 199.309,247.680 199.893,247.680 200.499 C 247.680 201.104,247.555 201.600,247.401 201.600 C 247.248 201.600,247.027 202.320,246.910 203.200 C 246.793 204.080,246.559 204.800,246.389 204.800 C 246.219 204.800,246.080 205.232,246.080 205.760 C 246.080 206.288,245.936 206.720,245.760 206.720 C 245.584 206.720,245.440 206.936,245.440 207.200 C 245.440 207.464,245.296 207.680,245.120 207.680 C 244.944 207.680,244.800 207.936,244.800 208.249 C 244.800 208.563,244.512 209.026,244.160 209.280 C 243.808 209.534,243.520 209.997,243.520 210.311 C 243.520 210.624,243.400 210.880,243.254 210.880 C 243.108 210.880,242.784 211.276,242.534 211.760 C 242.284 212.244,241.685 213.072,241.201 213.600 L 240.323 214.560 240.321 190.160 C 240.321 176.740,240.385 165.760,240.465 165.760 C 240.545 165.760,240.977 166.127,241.425 166.575 " stroke="none" fill="#4c5c8c" fill-rule="evenodd"></path><path id="path1" d="M71.284 20.386 C 71.682 20.463,72.258 20.460,72.564 20.380 C 72.870 20.300,72.544 20.237,71.840 20.241 C 71.136 20.244,70.886 20.310,71.284 20.386 M87.604 20.386 C 88.002 20.463,88.578 20.460,88.884 20.380 C 89.190 20.300,88.864 20.237,88.160 20.241 C 87.456 20.244,87.206 20.310,87.604 20.386 M190.644 20.386 C 191.042 20.463,191.618 20.460,191.924 20.380 C 192.230 20.300,191.904 20.237,191.200 20.241 C 190.496 20.244,190.246 20.310,190.644 20.386 M208.244 20.386 C 208.642 20.463,209.218 20.460,209.524 20.380 C 209.830 20.300,209.504 20.237,208.800 20.241 C 208.096 20.244,207.846 20.310,208.244 20.386 M311.284 20.386 C 311.682 20.463,312.258 20.460,312.564 20.380 C 312.870 20.300,312.544 20.237,311.840 20.241 C 311.136 20.244,310.886 20.310,311.284 20.386 M327.604 20.386 C 328.002 20.463,328.578 20.460,328.884 20.380 C 329.190 20.300,328.864 20.237,328.160 20.241 C 327.456 20.244,327.206 20.310,327.604 20.386 M188.240 21.021 C 188.548 21.101,189.052 21.101,189.360 21.021 C 189.668 20.940,189.416 20.874,188.800 20.874 C 188.184 20.874,187.932 20.940,188.240 21.021 M210.640 21.021 C 210.948 21.101,211.452 21.101,211.760 21.021 C 212.068 20.940,211.816 20.874,211.200 20.874 C 210.584 20.874,210.332 20.940,210.640 21.021 M188.240 99.101 C 188.548 99.181,189.052 99.181,189.360 99.101 C 189.668 99.020,189.416 98.954,188.800 98.954 C 188.184 98.954,187.932 99.020,188.240 99.101 M210.640 99.101 C 210.948 99.181,211.452 99.181,211.760 99.101 C 212.068 99.020,211.816 98.954,211.200 98.954 C 210.584 98.954,210.332 99.020,210.640 99.101 M190.804 99.750 C 191.291 99.823,192.011 99.821,192.404 99.745 C 192.798 99.669,192.400 99.609,191.520 99.612 C 190.640 99.614,190.318 99.676,190.804 99.750 M207.764 99.750 C 208.251 99.823,208.971 99.821,209.364 99.745 C 209.758 99.669,209.360 99.609,208.480 99.612 C 207.600 99.614,207.278 99.676,207.764 99.750 " stroke="none" fill="#505c8c" fill-rule="evenodd"></path><path id="path2" d="M71.284 20.386 C 71.682 20.463,72.258 20.460,72.564 20.380 C 72.870 20.300,72.544 20.237,71.840 20.241 C 71.136 20.244,70.886 20.310,71.284 20.386 M87.604 20.386 C 88.002 20.463,88.578 20.460,88.884 20.380 C 89.190 20.300,88.864 20.237,88.160 20.241 C 87.456 20.244,87.206 20.310,87.604 20.386 M190.644 20.386 C 191.042 20.463,191.618 20.460,191.924 20.380 C 192.230 20.300,191.904 20.237,191.200 20.241 C 190.496 20.244,190.246 20.310,190.644 20.386 M208.244 20.386 C 208.642 20.463,209.218 20.460,209.524 20.380 C 209.830 20.300,209.504 20.237,208.800 20.241 C 208.096 20.244,207.846 20.310,208.244 20.386 M311.284 20.386 C 311.682 20.463,312.258 20.460,312.564 20.380 C 312.870 20.300,312.544 20.237,311.840 20.241 C 311.136 20.244,310.886 20.310,311.284 20.386 M327.604 20.386 C 328.002 20.463,328.578 20.460,328.884 20.380 C 329.190 20.300,328.864 20.237,328.160 20.241 C 327.456 20.244,327.206 20.310,327.604 20.386 M188.240 21.021 C 188.548 21.101,189.052 21.101,189.360 21.021 C 189.668 20.940,189.416 20.874,188.800 20.874 C 188.184 20.874,187.932 20.940,188.240 21.021 M210.640 21.021 C 210.948 21.101,211.452 21.101,211.760 21.021 C 212.068 20.940,211.816 20.874,211.200 20.874 C 210.584 20.874,210.332 20.940,210.640 21.021 M188.240 99.101 C 188.548 99.181,189.052 99.181,189.360 99.101 C 189.668 99.020,189.416 98.954,188.800 98.954 C 188.184 98.954,187.932 99.020,188.240 99.101 M210.640 99.101 C 210.948 99.181,211.452 99.181,211.760 99.101 C 212.068 99.020,211.816 98.954,211.200 98.954 C 210.584 98.954,210.332 99.020,210.640 99.101 M190.804 99.750 C 191.291 99.823,192.011 99.821,192.404 99.745 C 192.798 99.669,192.400 99.609,191.520 99.612 C 190.640 99.614,190.318 99.676,190.804 99.750 M207.764 99.750 C 208.251 99.823,208.971 99.821,209.364 99.745 C 209.758 99.669,209.360 99.609,208.480 99.612 C 207.600 99.614,207.278 99.676,207.764 99.750 " stroke="none" fill="#505c8c" fill-rule="evenodd"></path><path id="path3" d="M71.284 20.386 C 71.682 20.463,72.258 20.460,72.564 20.380 C 72.870 20.300,72.544 20.237,71.840 20.241 C 71.136 20.244,70.886 20.310,71.284 20.386 M87.604 20.386 C 88.002 20.463,88.578 20.460,88.884 20.380 C 89.190 20.300,88.864 20.237,88.160 20.241 C 87.456 20.244,87.206 20.310,87.604 20.386 M190.644 20.386 C 191.042 20.463,191.618 20.460,191.924 20.380 C 192.230 20.300,191.904 20.237,191.200 20.241 C 190.496 20.244,190.246 20.310,190.644 20.386 M208.244 20.386 C 208.642 20.463,209.218 20.460,209.524 20.380 C 209.830 20.300,209.504 20.237,208.800 20.241 C 208.096 20.244,207.846 20.310,208.244 20.386 M311.284 20.386 C 311.682 20.463,312.258 20.460,312.564 20.380 C 312.870 20.300,312.544 20.237,311.840 20.241 C 311.136 20.244,310.886 20.310,311.284 20.386 M327.604 20.386 C 328.002 20.463,328.578 20.460,328.884 20.380 C 329.190 20.300,328.864 20.237,328.160 20.241 C 327.456 20.244,327.206 20.310,327.604 20.386 M188.240 21.021 C 188.548 21.101,189.052 21.101,189.360 21.021 C 189.668 20.940,189.416 20.874,188.800 20.874 C 188.184 20.874,187.932 20.940,188.240 21.021 M210.640 21.021 C 210.948 21.101,211.452 21.101,211.760 21.021 C 212.068 20.940,211.816 20.874,211.200 20.874 C 210.584 20.874,210.332 20.940,210.640 21.021 M188.240 99.101 C 188.548 99.181,189.052 99.181,189.360 99.101 C 189.668 99.020,189.416 98.954,188.800 98.954 C 188.184 98.954,187.932 99.020,188.240 99.101 M210.640 99.101 C 210.948 99.181,211.452 99.181,211.760 99.101 C 212.068 99.020,211.816 98.954,211.200 98.954 C 210.584 98.954,210.332 99.020,210.640 99.101 M190.804 99.750 C 191.291 99.823,192.011 99.821,192.404 99.745 C 192.798 99.669,192.400 99.609,191.520 99.612 C 190.640 99.614,190.318 99.676,190.804 99.750 M207.764 99.750 C 208.251 99.823,208.971 99.821,209.364 99.745 C 209.758 99.669,209.360 99.609,208.480 99.612 C 207.600 99.614,207.278 99.676,207.764 99.750 " stroke="none" fill="#505c8c" fill-rule="evenodd"></path><path id="path4" d="M71.284 20.386 C 71.682 20.463,72.258 20.460,72.564 20.380 C 72.870 20.300,72.544 20.237,71.840 20.241 C 71.136 20.244,70.886 20.310,71.284 20.386 M87.604 20.386 C 88.002 20.463,88.578 20.460,88.884 20.380 C 89.190 20.300,88.864 20.237,88.160 20.241 C 87.456 20.244,87.206 20.310,87.604 20.386 M190.644 20.386 C 191.042 20.463,191.618 20.460,191.924 20.380 C 192.230 20.300,191.904 20.237,191.200 20.241 C 190.496 20.244,190.246 20.310,190.644 20.386 M208.244 20.386 C 208.642 20.463,209.218 20.460,209.524 20.380 C 209.830 20.300,209.504 20.237,208.800 20.241 C 208.096 20.244,207.846 20.310,208.244 20.386 M311.284 20.386 C 311.682 20.463,312.258 20.460,312.564 20.380 C 312.870 20.300,312.544 20.237,311.840 20.241 C 311.136 20.244,310.886 20.310,311.284 20.386 M327.604 20.386 C 328.002 20.463,328.578 20.460,328.884 20.380 C 329.190 20.300,328.864 20.237,328.160 20.241 C 327.456 20.244,327.206 20.310,327.604 20.386 M188.240 21.021 C 188.548 21.101,189.052 21.101,189.360 21.021 C 189.668 20.940,189.416 20.874,188.800 20.874 C 188.184 20.874,187.932 20.940,188.240 21.021 M210.640 21.021 C 210.948 21.101,211.452 21.101,211.760 21.021 C 212.068 20.940,211.816 20.874,211.200 20.874 C 210.584 20.874,210.332 20.940,210.640 21.021 M188.240 99.101 C 188.548 99.181,189.052 99.181,189.360 99.101 C 189.668 99.020,189.416 98.954,188.800 98.954 C 188.184 98.954,187.932 99.020,188.240 99.101 M210.640 99.101 C 210.948 99.181,211.452 99.181,211.760 99.101 C 212.068 99.020,211.816 98.954,211.200 98.954 C 210.584 98.954,210.332 99.020,210.640 99.101 M190.804 99.750 C 191.291 99.823,192.011 99.821,192.404 99.745 C 192.798 99.669,192.400 99.609,191.520 99.612 C 190.640 99.614,190.318 99.676,190.804 99.750 M207.764 99.750 C 208.251 99.823,208.971 99.821,209.364 99.745 C 209.758 99.669,209.360 99.609,208.480 99.612 C 207.600 99.614,207.278 99.676,207.764 99.750 " stroke="none" fill="#505c8c" fill-rule="evenodd"></path></g></svg>