<?xml version="1.0" standalone="no"?>
<!DOCTYPE svg PUBLIC "-//W3C//DTD SVG 20010904//EN"
 "http://www.w3.org/TR/2001/REC-SVG-20010904/DTD/svg10.dtd">
<svg version="1.0" xmlns="http://www.w3.org/2000/svg"
 width="300.000000pt" height="267.000000pt" viewBox="0 0 300.000000 267.000000"
 preserveAspectRatio="xMidYMid meet">
<metadata>
Created by potrace 1.10, written by Peter Selinger 2001-2011
</metadata>
<g transform="translate(0.000000,267.000000) scale(0.100000,-0.100000)"
fill="#325096" stroke="none">
<path d="M1463 2656 c-142 -36 -261 -134 -327 -268 -32 -63 -39 -91 -45 -163
l-7 -87 36 7 c106 21 170 24 549 24 l414 1 -6 63 c-15 178 -142 338 -324 407
-72 28 -214 36 -290 16z"/>
<path d="M2370 2152 c-75 -20 -146 -59 -205 -113 l-41 -38 -480 -4 -479 -3
-78 -27 c-272 -94 -456 -276 -544 -537 l-32 -95 -89 0 c-100 0 -135 13 -158
57 -40 77 7 141 113 155 62 8 80 17 103 56 35 56 20 135 -32 171 -33 24 -153
21 -222 -4 -146 -55 -236 -201 -223 -362 11 -130 83 -233 200 -289 58 -27 70
-29 179 -29 114 0 118 -1 122 -22 32 -156 43 -190 87 -276 50 -100 133 -206
206 -264 l42 -33 -1 -188 c0 -219 7 -245 83 -285 41 -22 53 -23 176 -20 114 3
135 6 159 24 60 45 69 66 74 192 l5 117 332 3 331 2 4 -119 c3 -129 11 -150
72 -195 25 -19 42 -21 176 -21 134 0 151 2 176 21 67 49 69 57 72 269 l3 195
90 90 91 90 102 0 c113 0 145 12 190 73 20 27 21 40 21 342 0 301 -1 315 -21
341 -39 52 -70 68 -143 72 l-68 4 -27 58 c-15 31 -58 95 -95 142 l-69 85 34
134 c41 163 42 192 9 224 -22 22 -32 25 -102 24 -43 0 -107 -8 -143 -17z m-80
-771 c52 -51 52 -126 1 -175 -79 -75 -201 -19 -201 94 0 34 6 48 34 76 30 30
40 34 86 34 43 0 56 -4 80 -29z"/>
</g>
</svg>
