<svg id="svg" version="1.1" xmlns="http://www.w3.org/2000/svg" xmlns:xlink="http://www.w3.org/1999/xlink" width="400" height="355.55555555555554" viewBox="0, 0, 400,355.55555555555554"><g id="svgg"><path id="path0" d="M199.200 0.242 C 197.978 0.323,196.978 0.542,196.978 0.728 C 196.978 0.914,196.338 1.067,195.556 1.067 C 194.773 1.067,194.133 1.227,194.133 1.422 C 194.133 1.618,193.493 1.778,192.711 1.778 C 191.929 1.778,191.289 1.938,191.289 2.133 C 191.289 2.329,190.898 2.489,190.421 2.489 C 189.944 2.489,189.454 2.649,189.333 2.844 C 189.212 3.040,188.808 3.200,188.434 3.200 C 188.061 3.200,187.185 3.520,186.489 3.911 C 185.793 4.302,184.908 4.622,184.523 4.622 C 184.137 4.622,183.822 4.782,183.822 4.978 C 183.822 5.173,183.502 5.333,183.111 5.333 C 182.720 5.333,182.400 5.493,182.400 5.689 C 182.400 5.884,182.080 6.044,181.689 6.044 C 181.298 6.044,180.978 6.204,180.978 6.400 C 180.978 6.596,180.658 6.756,180.267 6.756 C 179.876 6.756,179.556 6.898,179.556 7.072 C 179.556 7.245,178.961 7.499,178.234 7.635 C 177.508 7.772,176.699 8.190,176.436 8.564 C 176.174 8.938,175.730 9.244,175.450 9.244 C 175.169 9.244,174.740 9.564,174.495 9.956 C 174.251 10.347,173.805 10.667,173.505 10.667 C 173.204 10.667,172.684 10.987,172.349 11.378 C 172.014 11.769,171.517 12.089,171.244 12.089 C 170.970 12.089,170.369 12.567,169.907 13.152 C 169.445 13.737,168.859 14.217,168.605 14.219 C 168.351 14.221,166.091 16.296,163.583 18.830 C 161.075 21.364,158.923 23.338,158.800 23.215 C 158.678 23.093,158.578 23.400,158.578 23.897 C 158.578 24.873,157.807 25.760,157.333 25.330 C 157.172 25.185,157.157 25.267,157.297 25.511 C 157.453 25.781,157.348 25.956,157.032 25.956 C 156.686 25.956,156.573 26.194,156.697 26.667 C 156.828 27.169,156.708 27.378,156.287 27.378 C 155.959 27.378,155.790 27.538,155.911 27.733 C 156.032 27.929,155.961 28.089,155.754 28.089 C 155.547 28.089,155.378 28.374,155.378 28.722 C 155.378 29.069,155.058 29.585,154.667 29.867 C 154.276 30.149,153.956 30.629,153.956 30.933 C 153.956 31.238,153.636 31.718,153.244 32.000 C 152.853 32.282,152.533 32.797,152.533 33.145 C 152.533 33.493,152.373 33.778,152.178 33.778 C 151.982 33.778,151.822 34.098,151.822 34.489 C 151.822 34.880,151.662 35.200,151.467 35.200 C 151.271 35.200,151.111 35.520,151.111 35.911 C 151.111 36.302,150.951 36.622,150.756 36.622 C 150.560 36.622,150.400 36.942,150.400 37.333 C 150.400 37.724,150.280 38.046,150.133 38.047 C 149.773 38.051,148.978 39.810,148.978 40.604 C 148.978 40.956,148.818 41.244,148.622 41.244 C 148.427 41.244,148.267 41.564,148.267 41.956 C 148.267 42.347,148.107 42.667,147.911 42.667 C 147.716 42.667,147.556 43.147,147.556 43.733 C 147.556 44.320,147.396 44.800,147.200 44.800 C 147.004 44.800,146.844 45.271,146.844 45.846 C 146.844 46.421,146.684 46.990,146.489 47.111 C 146.293 47.232,146.133 47.881,146.133 48.554 C 146.133 49.227,145.973 49.778,145.778 49.778 C 145.582 49.778,145.422 50.427,145.422 51.221 C 145.422 52.015,145.289 52.582,145.127 52.482 C 144.964 52.381,144.795 53.212,144.751 54.327 C 144.707 55.443,144.532 56.405,144.362 56.465 C 144.192 56.526,144.036 59.846,144.014 63.843 L 143.976 71.111 146.121 71.111 C 147.315 71.111,148.267 70.953,148.267 70.756 C 148.267 70.560,148.907 70.400,149.689 70.400 C 150.471 70.400,151.111 70.240,151.111 70.044 C 151.111 69.849,151.911 69.689,152.889 69.689 C 153.867 69.689,154.667 69.529,154.667 69.333 C 154.667 69.133,155.674 68.978,156.978 68.978 C 158.281 68.978,159.289 68.823,159.289 68.622 C 159.289 68.415,160.474 68.267,162.133 68.267 C 163.793 68.267,164.978 68.119,164.978 67.911 C 164.978 67.688,167.170 67.556,170.844 67.556 C 174.519 67.556,176.711 67.423,176.711 67.200 C 176.711 66.965,192.000 66.844,221.867 66.844 C 251.733 66.844,267.022 66.965,267.022 67.200 C 267.022 67.422,269.096 67.556,272.533 67.556 L 278.044 67.556 278.044 62.243 C 278.044 59.085,277.900 56.842,277.689 56.711 C 277.493 56.590,277.333 55.630,277.333 54.578 C 277.333 53.525,277.173 52.565,276.978 52.444 C 276.782 52.324,276.622 51.674,276.622 51.001 C 276.622 50.328,276.462 49.778,276.267 49.778 C 276.071 49.778,275.911 49.138,275.911 48.356 C 275.911 47.573,275.751 46.933,275.556 46.933 C 275.360 46.933,275.200 46.453,275.200 45.867 C 275.200 45.280,275.061 44.800,274.891 44.800 C 274.721 44.800,274.492 44.123,274.381 43.297 C 274.270 42.470,274.009 41.736,273.801 41.667 C 273.593 41.598,273.422 40.994,273.422 40.326 C 273.422 39.447,273.264 39.111,272.851 39.111 C 272.525 39.111,272.357 38.910,272.458 38.645 C 272.557 38.388,272.338 37.788,271.971 37.311 C 271.605 36.835,271.301 36.178,271.297 35.852 C 271.292 35.526,271.169 35.206,271.022 35.141 C 270.876 35.076,270.370 34.262,269.900 33.333 C 269.429 32.404,268.909 31.644,268.744 31.644 C 268.579 31.644,268.444 31.360,268.444 31.012 C 268.444 30.664,268.124 30.149,267.733 29.867 C 267.342 29.585,267.022 29.174,267.022 28.954 C 267.022 28.735,266.702 28.265,266.311 27.911 C 265.920 27.557,265.600 27.054,265.600 26.792 C 265.600 26.531,265.157 25.876,264.615 25.336 C 264.074 24.797,263.410 23.921,263.140 23.390 C 262.869 22.859,262.552 22.477,262.435 22.541 C 262.318 22.605,261.236 21.639,260.030 20.395 C 258.825 19.151,257.945 18.132,258.075 18.131 C 258.205 18.130,257.831 17.811,257.244 17.422 C 256.658 17.034,256.301 16.715,256.451 16.713 C 256.601 16.712,256.147 16.151,255.443 15.467 C 254.738 14.782,253.999 14.222,253.801 14.222 C 253.603 14.222,252.992 13.742,252.444 13.156 C 251.896 12.569,251.192 12.089,250.880 12.089 C 250.567 12.089,250.311 11.919,250.311 11.712 C 250.311 11.505,250.151 11.435,249.956 11.556 C 249.760 11.676,249.600 11.526,249.600 11.221 C 249.600 10.904,249.296 10.667,248.892 10.667 C 248.502 10.667,247.984 10.347,247.740 9.956 C 247.495 9.564,247.087 9.244,246.833 9.244 C 246.578 9.244,246.017 8.913,245.585 8.509 C 245.153 8.104,244.360 7.684,243.822 7.576 C 243.284 7.467,242.844 7.238,242.844 7.067 C 242.844 6.896,242.636 6.756,242.382 6.756 C 241.728 6.756,240.006 5.919,240.003 5.600 C 240.001 5.453,239.680 5.333,239.289 5.333 C 238.898 5.333,238.578 5.173,238.578 4.978 C 238.578 4.782,238.098 4.622,237.511 4.622 C 236.924 4.622,236.444 4.462,236.444 4.267 C 236.444 4.071,236.124 3.911,235.733 3.911 C 235.342 3.911,235.022 3.751,235.022 3.556 C 235.022 3.360,234.542 3.200,233.956 3.200 C 233.369 3.200,232.889 3.040,232.889 2.844 C 232.889 2.649,232.409 2.489,231.822 2.489 C 231.236 2.489,230.756 2.329,230.756 2.133 C 230.756 1.938,230.196 1.778,229.511 1.778 C 228.827 1.778,228.267 1.618,228.267 1.422 C 228.267 1.227,227.640 1.067,226.874 1.067 C 226.104 1.067,225.418 0.875,225.339 0.638 C 225.195 0.209,204.441 -0.106,199.200 0.242 M323.200 66.877 C 323.200 67.126,322.497 67.222,321.248 67.144 C 319.830 67.056,319.244 67.156,319.108 67.512 C 318.977 67.854,318.553 67.943,317.704 67.805 C 317.034 67.696,316.437 67.748,316.377 67.921 C 316.316 68.094,315.667 68.275,314.933 68.324 C 314.200 68.372,313.600 68.539,313.600 68.695 C 313.600 68.850,313.209 68.978,312.732 68.978 C 312.255 68.978,311.785 69.106,311.688 69.263 C 311.591 69.420,310.702 69.769,309.711 70.038 C 308.721 70.308,307.911 70.660,307.911 70.820 C 307.911 70.980,307.511 71.111,307.022 71.111 C 306.533 71.111,306.133 71.271,306.133 71.467 C 306.133 71.662,305.733 71.822,305.244 71.822 C 304.756 71.822,304.356 71.982,304.356 72.178 C 304.356 72.373,304.116 72.533,303.822 72.533 C 303.529 72.533,303.289 72.693,303.289 72.889 C 303.289 73.084,302.969 73.244,302.578 73.244 C 302.187 73.244,301.867 73.404,301.867 73.600 C 301.867 73.796,301.547 73.956,301.156 73.956 C 300.764 73.956,300.444 74.116,300.444 74.311 C 300.444 74.507,300.160 74.667,299.812 74.667 C 299.464 74.667,298.949 74.987,298.667 75.378 C 298.385 75.769,297.928 76.089,297.652 76.089 C 297.376 76.089,296.891 76.370,296.575 76.714 C 296.259 77.057,295.560 77.564,295.022 77.840 C 294.484 78.116,294.044 78.475,294.044 78.638 C 294.044 78.800,293.806 78.933,293.514 78.933 C 293.223 78.933,292.525 79.413,291.965 80.000 C 291.404 80.587,290.675 81.067,290.345 81.067 C 290.015 81.067,289.472 81.546,289.139 82.131 C 288.806 82.717,288.428 83.197,288.299 83.198 C 288.170 83.199,286.698 84.560,285.029 86.222 C 281.991 89.246,280.063 90.142,279.289 88.889 C 279.144 88.654,259.737 88.533,222.222 88.533 C 184.708 88.533,165.301 88.654,165.156 88.889 C 165.035 89.084,163.755 89.244,162.311 89.244 C 160.868 89.244,159.588 89.404,159.467 89.600 C 159.346 89.796,158.447 89.956,157.469 89.956 C 156.374 89.956,155.776 90.092,155.911 90.311 C 156.047 90.530,155.441 90.667,154.332 90.667 C 153.343 90.667,152.533 90.827,152.533 91.022 C 152.533 91.218,151.893 91.378,151.111 91.378 C 150.329 91.378,149.689 91.538,149.689 91.733 C 149.689 91.929,149.138 92.089,148.465 92.089 C 147.793 92.089,147.143 92.249,147.022 92.444 C 146.901 92.640,146.332 92.800,145.757 92.800 C 145.182 92.800,144.711 92.960,144.711 93.156 C 144.711 93.351,144.222 93.511,143.623 93.511 C 142.989 93.511,142.627 93.659,142.756 93.867 C 142.884 94.074,142.522 94.222,141.888 94.222 C 141.289 94.222,140.800 94.382,140.800 94.578 C 140.800 94.773,140.320 94.933,139.733 94.933 C 139.147 94.933,138.667 95.093,138.667 95.289 C 138.667 95.484,138.187 95.644,137.600 95.644 C 137.013 95.644,136.533 95.799,136.533 95.988 C 136.533 96.177,135.733 96.437,134.756 96.567 C 133.778 96.697,132.977 96.902,132.977 97.024 C 132.976 97.145,132.096 97.644,131.022 98.133 C 129.948 98.622,129.069 99.142,129.068 99.289 C 129.067 99.436,128.667 99.556,128.178 99.556 C 127.689 99.556,127.288 99.676,127.286 99.822 C 127.285 99.969,126.925 100.265,126.486 100.481 C 124.550 101.434,121.418 103.182,121.250 103.403 C 120.945 103.805,119.507 104.533,119.017 104.533 C 118.764 104.533,118.326 104.853,118.044 105.244 C 117.763 105.636,117.283 105.956,116.978 105.956 C 116.673 105.956,116.193 106.276,115.911 106.667 C 115.629 107.058,115.182 107.378,114.918 107.378 C 114.316 107.378,113.380 108.284,113.676 108.580 C 113.797 108.701,113.538 108.800,113.101 108.800 C 112.663 108.800,112.065 109.040,111.771 109.333 C 111.478 109.627,111.341 109.867,111.467 109.867 C 111.592 109.867,111.455 110.107,111.162 110.400 C 110.869 110.693,110.377 110.933,110.070 110.933 C 109.763 110.933,109.511 111.120,109.511 111.348 C 109.511 111.576,109.412 111.664,109.291 111.543 C 109.023 111.275,108.089 112.158,108.089 112.679 C 108.089 112.885,107.655 113.162,107.124 113.295 C 106.593 113.429,105.242 114.472,104.121 115.613 C 103.001 116.755,101.955 117.693,101.797 117.697 C 101.402 117.709,98.692 120.177,99.072 120.180 C 99.240 120.181,98.898 120.500,98.311 120.889 C 97.724 121.277,97.363 121.596,97.508 121.598 C 97.653 121.599,97.293 122.057,96.708 122.616 C 96.123 123.175,95.644 123.822,95.644 124.053 C 95.644 124.519,92.856 127.289,92.387 127.289 C 92.223 127.289,92.089 127.518,92.089 127.798 C 92.089 128.078,91.769 128.409,91.378 128.533 C 90.987 128.657,90.667 129.004,90.667 129.304 C 90.667 129.603,90.187 130.296,89.600 130.844 C 89.013 131.392,88.533 132.025,88.533 132.251 C 88.533 132.476,88.054 133.172,87.468 133.797 C 86.883 134.422,86.403 135.132,86.402 135.375 C 86.401 135.618,86.080 136.016,85.689 136.260 C 85.298 136.505,84.978 136.927,84.978 137.199 C 84.978 137.472,84.683 137.953,84.324 138.269 C 83.964 138.586,83.561 139.284,83.428 139.822 C 83.295 140.360,82.950 140.800,82.660 140.800 C 82.370 140.800,82.133 141.120,82.133 141.511 C 82.133 141.902,81.991 142.222,81.816 142.222 C 81.642 142.222,81.399 142.622,81.276 143.111 C 81.154 143.600,80.896 144.000,80.704 144.000 C 80.513 144.000,80.356 144.320,80.356 144.711 C 80.356 145.102,80.196 145.422,80.000 145.422 C 79.804 145.422,79.644 145.742,79.644 146.133 C 79.644 146.524,79.484 146.844,79.289 146.844 C 79.093 146.844,78.933 147.164,78.933 147.556 C 78.933 147.947,78.773 148.267,78.578 148.267 C 78.382 148.267,78.222 148.587,78.222 148.978 C 78.222 149.369,78.062 149.689,77.867 149.689 C 77.671 149.689,77.511 150.009,77.511 150.400 C 77.511 150.791,77.351 151.111,77.156 151.111 C 76.960 151.111,76.800 151.431,76.800 151.822 C 76.800 152.213,76.640 152.533,76.444 152.533 C 76.249 152.533,76.089 152.853,76.089 153.244 C 76.089 153.636,75.929 153.956,75.733 153.956 C 75.538 153.956,75.378 154.276,75.378 154.667 C 75.378 155.058,75.218 155.378,75.022 155.378 C 74.827 155.378,74.667 155.778,74.667 156.267 C 74.667 156.756,74.507 157.156,74.311 157.156 C 74.116 157.156,73.956 157.466,73.956 157.846 C 73.956 158.225,73.796 158.635,73.600 158.756 C 73.404 158.876,73.244 159.356,73.244 159.822 C 73.244 160.288,73.084 160.768,72.889 160.889 C 72.693 161.010,72.533 161.499,72.533 161.977 C 72.533 162.454,72.373 162.844,72.178 162.844 C 71.982 162.844,71.822 163.315,71.822 163.890 C 71.822 164.465,71.662 165.035,71.467 165.156 C 71.271 165.276,71.111 165.756,71.111 166.222 C 71.111 166.688,70.951 167.168,70.756 167.289 C 70.560 167.410,70.400 167.890,70.400 168.356 C 70.400 168.821,70.240 169.301,70.044 169.422 C 69.849 169.543,69.689 170.113,69.689 170.688 C 69.689 171.263,69.529 171.733,69.333 171.733 C 69.138 171.733,68.978 172.364,68.978 173.135 C 68.978 173.905,68.818 174.635,68.622 174.756 C 68.427 174.876,68.267 175.526,68.267 176.199 L 68.267 177.422 57.956 177.422 C 51.319 177.422,47.644 177.296,47.644 177.067 C 47.644 176.869,46.696 176.711,45.511 176.711 C 44.326 176.711,43.378 176.553,43.378 176.356 C 43.378 176.160,43.058 176.000,42.667 176.000 C 42.276 176.000,41.956 175.840,41.956 175.644 C 41.956 175.449,41.636 175.289,41.244 175.289 C 40.853 175.289,40.533 175.155,40.533 174.990 C 40.533 174.826,40.144 174.515,39.669 174.298 C 38.309 173.678,36.978 172.378,36.978 171.669 C 36.978 171.313,36.829 171.022,36.646 171.022 C 36.464 171.022,36.203 170.670,36.066 170.239 C 35.929 169.808,35.597 169.235,35.328 168.966 C 35.058 168.696,34.929 168.329,35.040 168.149 C 35.151 167.969,35.073 167.822,34.865 167.822 C 34.318 167.822,34.376 160.741,34.933 159.540 C 35.178 159.014,35.498 158.582,35.644 158.581 C 35.791 158.579,35.911 158.366,35.911 158.108 C 35.911 157.339,37.173 154.981,37.441 155.249 C 37.577 155.385,37.689 155.220,37.689 154.883 C 37.689 154.545,37.820 154.350,37.980 154.449 C 38.140 154.548,38.495 154.317,38.769 153.937 C 39.044 153.556,39.553 153.244,39.901 153.244 C 40.249 153.244,40.535 153.124,40.536 152.978 C 40.539 152.658,42.261 151.822,42.915 151.822 C 43.170 151.822,43.378 151.662,43.378 151.467 C 43.378 151.271,44.248 151.111,45.312 151.111 C 46.376 151.111,47.346 150.951,47.467 150.756 C 47.590 150.555,49.307 150.400,51.399 150.400 C 53.637 150.400,55.111 150.259,55.111 150.044 C 55.111 149.849,55.591 149.689,56.178 149.689 C 56.764 149.689,57.246 149.569,57.247 149.422 C 57.250 149.148,58.935 148.267,59.458 148.267 C 59.707 148.267,60.623 147.363,64.530 143.259 C 64.825 142.949,65.067 142.509,65.067 142.281 C 65.067 142.053,65.222 141.867,65.411 141.867 C 65.600 141.867,65.671 141.647,65.568 141.379 C 65.466 141.111,65.611 140.804,65.891 140.696 C 66.214 140.572,66.340 140.180,66.234 139.625 C 66.142 139.144,66.241 138.642,66.455 138.510 C 66.989 138.180,66.989 128.487,66.455 128.157 C 66.241 128.025,66.142 127.523,66.234 127.041 C 66.340 126.487,66.214 126.095,65.891 125.971 C 65.611 125.863,65.466 125.556,65.568 125.287 C 65.671 125.019,65.600 124.800,65.411 124.800 C 65.222 124.800,65.067 124.613,65.067 124.385 C 65.067 124.157,64.825 123.717,64.530 123.408 C 60.623 119.304,59.707 118.400,59.458 118.400 C 58.935 118.400,57.250 117.519,57.247 117.244 C 57.246 117.098,56.764 116.978,56.178 116.978 C 55.591 116.978,55.111 116.818,55.111 116.622 C 55.111 116.395,52.148 116.267,46.933 116.267 C 41.719 116.267,38.756 116.395,38.756 116.622 C 38.756 116.818,37.956 116.978,36.978 116.978 C 36.000 116.978,35.200 117.138,35.200 117.333 C 35.200 117.529,34.720 117.689,34.133 117.689 C 33.547 117.689,33.067 117.849,33.067 118.044 C 33.067 118.240,32.676 118.400,32.199 118.400 C 31.721 118.400,31.232 118.560,31.111 118.756 C 30.990 118.951,30.510 119.111,30.044 119.111 C 29.579 119.111,29.099 119.271,28.978 119.467 C 28.857 119.662,28.447 119.822,28.068 119.822 C 27.688 119.822,27.378 119.982,27.378 120.178 C 27.378 120.373,27.008 120.533,26.556 120.533 C 26.104 120.533,25.424 120.822,25.045 121.175 C 24.666 121.528,23.836 122.048,23.200 122.329 C 22.564 122.610,22.044 122.961,22.044 123.109 C 22.044 123.257,21.789 123.378,21.476 123.378 C 21.163 123.378,20.459 123.858,19.911 124.444 C 19.363 125.031,18.688 125.511,18.410 125.511 C 18.133 125.511,17.568 125.871,17.155 126.311 C 16.081 127.456,15.373 128.000,14.956 128.000 C 14.557 128.000,11.641 131.033,11.414 131.683 C 11.336 131.906,10.818 132.529,10.262 133.067 C 9.706 133.604,9.341 134.044,9.451 134.044 C 9.561 134.044,9.439 134.265,9.181 134.534 C 8.923 134.804,8.471 135.383,8.178 135.822 C 7.884 136.261,7.444 136.829,7.200 137.085 C 6.956 137.340,6.756 137.801,6.756 138.108 C 6.756 138.415,6.596 138.667,6.400 138.667 C 6.204 138.667,6.044 138.987,6.044 139.378 C 6.044 139.769,5.884 140.089,5.689 140.089 C 5.493 140.089,5.333 140.328,5.333 140.619 C 5.333 140.911,5.013 141.349,4.622 141.594 C 4.190 141.863,3.911 142.423,3.911 143.019 C 3.911 143.558,3.751 144.000,3.556 144.000 C 3.360 144.000,3.200 144.320,3.200 144.711 C 3.200 145.102,3.040 145.422,2.844 145.422 C 2.649 145.422,2.489 145.902,2.489 146.489 C 2.489 147.076,2.329 147.556,2.133 147.556 C 1.938 147.556,1.778 148.036,1.778 148.622 C 1.778 149.209,1.618 149.689,1.422 149.689 C 1.227 149.689,1.067 150.156,1.067 150.726 C 1.067 151.296,0.867 151.830,0.622 151.911 C -0.025 152.127,-0.025 175.695,0.622 175.911 C 0.867 175.993,1.067 176.526,1.067 177.096 C 1.067 177.667,1.227 178.133,1.422 178.133 C 1.618 178.133,1.778 178.613,1.778 179.200 C 1.778 179.787,1.938 180.267,2.133 180.267 C 2.329 180.267,2.489 180.657,2.489 181.135 C 2.489 181.612,2.649 182.101,2.844 182.222 C 3.040 182.343,3.200 182.753,3.200 183.132 C 3.200 183.512,3.360 183.822,3.556 183.822 C 3.751 183.822,3.911 184.187,3.911 184.633 C 3.911 185.078,4.231 185.674,4.622 185.956 C 5.013 186.237,5.333 186.753,5.333 187.101 C 5.333 187.449,5.493 187.733,5.689 187.733 C 5.884 187.733,6.044 188.053,6.044 188.444 C 6.044 188.836,6.204 189.156,6.400 189.156 C 6.596 189.156,6.756 189.407,6.756 189.714 C 6.756 190.022,6.956 190.496,7.200 190.769 C 8.106 191.779,8.397 192.193,8.629 192.800 C 8.760 193.142,9.021 193.422,9.209 193.422 C 9.398 193.422,9.654 193.742,9.778 194.133 C 9.902 194.524,10.242 194.844,10.534 194.844 C 10.826 194.844,10.965 195.004,10.844 195.200 C 10.724 195.396,10.794 195.556,11.001 195.556 C 11.208 195.556,11.378 195.807,11.378 196.114 C 11.378 196.755,11.858 197.291,13.244 198.198 C 13.782 198.550,14.222 199.054,14.222 199.319 C 14.222 199.598,14.444 199.715,14.749 199.598 C 15.074 199.473,15.814 199.956,16.677 200.853 C 17.447 201.655,18.295 202.311,18.560 202.311 C 18.826 202.311,19.274 202.631,19.556 203.022 C 19.837 203.413,20.294 203.733,20.570 203.733 C 20.846 203.733,21.331 204.017,21.647 204.364 C 21.963 204.710,23.342 205.550,24.711 206.229 C 26.080 206.908,27.253 207.584,27.319 207.732 C 27.384 207.879,27.734 208.000,28.098 208.000 C 28.461 208.000,28.857 208.160,28.978 208.356 C 29.099 208.551,29.588 208.711,30.065 208.711 C 30.543 208.711,30.933 208.871,30.933 209.067 C 30.933 209.262,31.404 209.422,31.979 209.422 C 32.554 209.422,33.124 209.582,33.244 209.778 C 33.365 209.973,33.845 210.133,34.311 210.133 C 34.777 210.133,35.257 210.293,35.378 210.489 C 35.499 210.684,36.228 210.844,36.999 210.844 C 37.769 210.844,38.400 211.004,38.400 211.200 C 38.400 211.431,43.319 211.556,52.444 211.556 C 66.386 211.556,66.489 211.561,66.489 212.288 C 66.489 212.721,66.645 212.923,66.873 212.783 C 67.139 212.618,67.221 213.429,67.139 215.429 C 67.049 217.646,67.131 218.313,67.494 218.312 C 67.829 218.311,67.937 218.768,67.867 219.900 C 67.813 220.773,67.881 221.600,68.018 221.737 C 68.155 221.873,68.267 222.669,68.267 223.505 C 68.267 224.341,68.427 225.124,68.622 225.244 C 68.818 225.365,68.978 226.095,68.978 226.865 C 68.978 227.636,69.138 228.267,69.333 228.267 C 69.529 228.267,69.689 228.737,69.689 229.312 C 69.689 229.887,69.849 230.457,70.044 230.578 C 70.240 230.699,70.400 231.179,70.400 231.644 C 70.400 232.110,70.560 232.590,70.756 232.711 C 70.951 232.832,71.111 233.312,71.111 233.778 C 71.111 234.244,71.271 234.724,71.467 234.844 C 71.662 234.965,71.822 235.535,71.822 236.110 C 71.822 236.685,71.982 237.156,72.178 237.156 C 72.373 237.156,72.533 237.546,72.533 238.023 C 72.533 238.501,72.693 238.990,72.889 239.111 C 73.084 239.232,73.244 239.712,73.244 240.178 C 73.244 240.644,73.404 241.124,73.600 241.244 C 73.796 241.365,73.956 241.775,73.956 242.154 C 73.956 242.534,74.116 242.844,74.311 242.844 C 74.507 242.844,74.667 243.244,74.667 243.733 C 74.667 244.222,74.827 244.622,75.022 244.622 C 75.218 244.622,75.378 244.942,75.378 245.333 C 75.378 245.724,75.538 246.044,75.733 246.044 C 75.929 246.044,76.089 246.364,76.089 246.756 C 76.089 247.147,76.249 247.467,76.444 247.467 C 76.640 247.467,76.800 247.787,76.800 248.178 C 76.800 248.569,76.960 248.889,77.156 248.889 C 77.351 248.889,77.511 249.209,77.511 249.600 C 77.511 249.991,77.671 250.311,77.867 250.311 C 78.062 250.311,78.222 250.631,78.222 251.022 C 78.222 251.413,78.382 251.733,78.578 251.733 C 78.773 251.733,78.933 252.053,78.933 252.444 C 78.933 252.836,79.093 253.156,79.289 253.156 C 79.484 253.156,79.644 253.476,79.644 253.867 C 79.644 254.258,79.804 254.578,80.000 254.578 C 80.196 254.578,80.356 254.898,80.356 255.289 C 80.356 255.680,80.513 256.000,80.704 256.000 C 80.896 256.000,81.154 256.400,81.276 256.889 C 81.399 257.378,81.642 257.778,81.816 257.778 C 81.991 257.778,82.133 258.098,82.133 258.489 C 82.133 258.880,82.370 259.200,82.660 259.200 C 82.950 259.200,83.295 259.640,83.428 260.178 C 83.561 260.716,83.964 261.414,84.324 261.731 C 84.683 262.047,84.978 262.528,84.978 262.801 C 84.978 263.073,85.298 263.495,85.689 263.740 C 86.080 263.984,86.401 264.382,86.402 264.625 C 86.403 264.868,86.883 265.578,87.468 266.203 C 88.054 266.828,88.533 267.520,88.533 267.742 C 88.533 267.963,89.173 268.760,89.956 269.511 C 90.738 270.263,91.378 271.050,91.378 271.261 C 91.378 271.472,91.538 271.644,91.733 271.644 C 91.929 271.644,92.089 271.884,92.089 272.178 C 92.089 272.471,92.224 272.711,92.389 272.711 C 92.926 272.711,96.356 276.211,96.356 276.760 C 96.356 277.053,96.711 277.542,97.146 277.847 C 97.580 278.151,97.780 278.401,97.590 278.402 C 97.400 278.404,97.724 278.723,98.311 279.111 C 98.898 279.500,99.240 279.819,99.072 279.820 C 98.692 279.823,101.402 282.291,101.797 282.303 C 101.955 282.307,103.001 283.245,104.121 284.387 C 105.242 285.528,106.593 286.571,107.124 286.705 C 107.655 286.838,108.089 287.115,108.089 287.321 C 108.089 287.842,109.023 288.725,109.291 288.457 C 109.412 288.336,109.511 288.424,109.511 288.652 C 109.511 288.880,109.831 289.067,110.222 289.067 C 110.927 289.067,110.933 289.304,110.933 314.133 C 110.933 332.311,111.042 339.200,111.329 339.200 C 111.567 339.200,111.663 339.626,111.569 340.267 C 111.456 341.031,111.557 341.333,111.924 341.333 C 112.291 341.333,112.392 341.636,112.280 342.400 C 112.194 342.987,112.236 343.467,112.374 343.467 C 112.604 343.467,113.445 345.194,113.534 345.851 C 113.600 346.335,115.008 347.648,115.289 347.488 C 115.436 347.404,115.556 347.554,115.556 347.821 C 115.556 348.443,117.826 350.933,118.394 350.933 C 118.632 350.933,119.274 351.413,119.822 352.000 C 120.370 352.587,121.074 353.067,121.387 353.067 C 121.700 353.067,121.956 353.227,121.956 353.422 C 121.956 353.618,122.276 353.778,122.667 353.778 C 123.058 353.778,123.378 353.938,123.378 354.133 C 123.378 354.329,123.844 354.489,124.415 354.489 C 124.985 354.489,125.519 354.689,125.600 354.933 C 125.816 355.582,162.605 355.582,163.253 354.933 C 163.498 354.689,163.970 354.489,164.302 354.489 C 165.199 354.489,168.948 352.429,169.509 351.628 C 169.777 351.246,170.152 350.933,170.343 350.933 C 170.795 350.933,173.156 348.573,173.156 348.121 C 173.156 347.930,173.468 347.555,173.851 347.287 C 174.674 346.710,176.711 342.966,176.711 342.029 C 176.711 341.670,176.871 341.276,177.067 341.156 C 177.262 341.035,177.422 340.555,177.422 340.089 C 177.422 339.623,177.582 339.143,177.778 339.022 C 178.005 338.882,178.133 333.863,178.133 325.135 L 178.133 311.467 222.222 311.467 L 266.311 311.467 266.311 325.135 C 266.311 333.863,266.440 338.882,266.667 339.022 C 266.862 339.143,267.022 339.623,267.022 340.089 C 267.022 340.555,267.182 341.035,267.378 341.156 C 267.573 341.276,267.733 341.670,267.733 342.029 C 267.733 342.966,269.770 346.710,270.594 347.287 C 270.976 347.555,271.289 347.930,271.289 348.121 C 271.289 348.573,273.649 350.933,274.101 350.933 C 274.292 350.933,274.668 351.246,274.935 351.628 C 275.496 352.429,279.246 354.489,280.143 354.489 C 280.475 354.489,280.947 354.689,281.191 354.933 C 281.535 355.278,285.816 355.378,300.166 355.378 C 314.674 355.378,318.729 355.281,318.844 354.933 C 318.926 354.689,319.459 354.489,320.030 354.489 C 320.600 354.489,321.067 354.329,321.067 354.133 C 321.067 353.938,321.387 353.778,321.778 353.778 C 322.169 353.778,322.489 353.618,322.489 353.422 C 322.489 353.227,322.745 353.067,323.057 353.067 C 323.370 353.067,324.074 352.587,324.622 352.000 C 325.170 351.413,325.813 350.933,326.050 350.933 C 326.618 350.933,328.889 348.443,328.889 347.821 C 328.889 347.554,329.009 347.404,329.156 347.488 C 329.436 347.648,330.844 346.335,330.910 345.851 C 331.000 345.194,331.840 343.467,332.070 343.467 C 332.208 343.467,332.251 342.987,332.165 342.400 C 332.053 341.636,332.154 341.333,332.520 341.333 C 332.887 341.333,332.988 341.031,332.876 340.267 C 332.782 339.626,332.878 339.200,333.115 339.200 C 333.402 339.200,333.511 332.311,333.511 314.133 C 333.511 289.304,333.518 289.067,334.222 289.067 C 334.613 289.067,334.933 288.880,334.933 288.652 C 334.933 288.424,335.030 288.334,335.149 288.453 C 335.267 288.571,335.755 288.278,336.232 287.801 C 336.709 287.324,337.249 286.933,337.432 286.933 C 337.615 286.933,338.805 285.893,340.076 284.622 C 341.347 283.351,342.510 282.307,342.660 282.303 C 343.047 282.291,345.744 279.823,345.373 279.820 C 345.204 279.819,345.547 279.500,346.133 279.111 C 346.720 278.723,347.081 278.404,346.937 278.402 C 346.792 278.401,347.152 277.943,347.737 277.384 C 348.321 276.825,348.800 276.178,348.800 275.947 C 348.800 275.481,351.588 272.711,352.058 272.711 C 352.222 272.711,352.356 272.482,352.356 272.202 C 352.356 271.922,352.676 271.591,353.067 271.467 C 353.458 271.343,353.778 270.996,353.778 270.696 C 353.778 270.397,354.258 269.704,354.844 269.156 C 355.431 268.608,355.911 267.903,355.911 267.591 C 355.911 267.080,357.291 267.022,369.579 267.022 C 378.307 267.022,383.326 266.894,383.467 266.667 C 383.588 266.471,384.068 266.311,384.533 266.311 C 384.999 266.311,385.479 266.151,385.600 265.956 C 385.721 265.760,386.114 265.600,386.474 265.600 C 387.410 265.600,391.155 263.563,391.731 262.739 C 391.999 262.357,392.374 262.044,392.565 262.044 C 393.017 262.044,395.378 259.684,395.378 259.232 C 395.378 259.041,395.691 258.666,396.073 258.398 C 396.874 257.837,398.933 254.088,398.933 253.191 C 398.933 252.858,399.133 252.387,399.378 252.142 C 399.728 251.792,399.822 243.073,399.822 210.945 C 399.822 178.659,399.730 170.162,399.378 170.044 C 399.133 169.963,398.933 169.430,398.933 168.859 C 398.933 168.289,398.773 167.822,398.578 167.822 C 398.382 167.822,398.222 167.502,398.222 167.111 C 398.222 166.720,398.062 166.400,397.867 166.400 C 397.671 166.400,397.511 166.144,397.511 165.832 C 397.511 165.519,397.031 164.815,396.444 164.267 C 395.858 163.719,395.378 163.076,395.378 162.839 C 395.378 162.271,392.888 160.000,392.265 160.000 C 391.998 160.000,391.849 159.880,391.932 159.733 C 392.092 159.453,390.779 158.044,390.296 157.979 C 389.638 157.889,387.911 157.049,387.911 156.818 C 387.911 156.680,387.431 156.638,386.844 156.724 C 386.081 156.836,385.778 156.735,385.778 156.369 C 385.778 156.002,385.475 155.901,384.711 156.013 C 384.071 156.107,383.644 156.011,383.644 155.774 C 383.644 155.496,381.473 155.378,376.356 155.378 C 369.304 155.378,369.067 155.355,369.067 154.667 C 369.067 154.276,368.907 153.956,368.711 153.956 C 368.516 153.956,368.356 153.636,368.356 153.244 C 368.356 152.853,368.196 152.533,368.000 152.533 C 367.804 152.533,367.644 152.213,367.644 151.822 C 367.644 151.431,367.484 151.111,367.289 151.111 C 367.093 151.111,366.933 150.791,366.933 150.400 C 366.933 150.009,366.773 149.689,366.578 149.689 C 366.382 149.689,366.222 149.369,366.222 148.978 C 366.222 148.587,366.062 148.267,365.867 148.267 C 365.671 148.267,365.511 147.947,365.511 147.556 C 365.511 147.164,365.351 146.844,365.156 146.844 C 364.960 146.844,364.800 146.524,364.800 146.133 C 364.800 145.742,364.640 145.422,364.444 145.422 C 364.249 145.422,364.089 145.102,364.089 144.711 C 364.089 144.320,363.932 144.000,363.740 144.000 C 363.548 144.000,363.291 143.600,363.168 143.111 C 363.046 142.622,362.802 142.222,362.628 142.222 C 362.454 142.222,362.311 141.902,362.311 141.511 C 362.311 141.120,362.074 140.800,361.785 140.800 C 361.495 140.800,361.149 140.360,361.017 139.822 C 360.884 139.284,360.481 138.586,360.121 138.269 C 359.761 137.953,359.467 137.472,359.467 137.199 C 359.467 136.927,359.147 136.505,358.756 136.260 C 358.364 136.016,358.044 135.618,358.043 135.375 C 358.042 135.132,357.562 134.422,356.976 133.797 C 356.390 133.172,355.911 132.480,355.911 132.258 C 355.911 132.037,355.271 131.240,354.489 130.489 C 353.707 129.737,353.067 128.950,353.067 128.739 C 353.067 128.528,352.907 128.356,352.711 128.356 C 352.516 128.356,352.356 128.116,352.356 127.822 C 352.356 127.529,352.221 127.289,352.055 127.289 C 351.518 127.289,348.089 123.789,348.089 123.240 C 348.089 122.947,347.733 122.458,347.299 122.153 C 346.864 121.849,346.664 121.599,346.854 121.598 C 347.044 121.596,346.720 121.277,346.133 120.889 C 345.547 120.500,345.218 120.181,345.402 120.180 C 345.586 120.179,345.226 119.755,344.602 119.237 C 343.575 118.387,343.044 116.978,343.750 116.978 C 343.905 116.978,344.072 116.378,344.121 115.644 C 344.169 114.911,344.362 114.258,344.549 114.193 C 344.736 114.127,344.889 113.447,344.889 112.681 C 344.889 111.916,345.049 111.289,345.244 111.289 C 345.440 111.289,345.600 110.639,345.600 109.846 C 345.600 108.974,345.741 108.490,345.956 108.622 C 346.170 108.755,346.311 108.277,346.311 107.420 C 346.311 106.638,346.471 105.899,346.667 105.778 C 346.862 105.657,347.022 105.007,347.022 104.335 C 347.022 103.662,347.166 103.111,347.341 103.111 C 347.516 103.111,347.773 101.831,347.911 100.267 C 348.050 98.702,348.306 97.422,348.481 97.422 C 348.657 97.422,348.800 96.782,348.800 96.000 C 348.800 95.218,348.960 94.578,349.156 94.578 C 349.351 94.578,349.511 94.018,349.511 93.333 C 349.511 92.649,349.671 92.089,349.867 92.089 C 350.062 92.089,350.222 91.449,350.222 90.667 C 350.222 89.884,350.382 89.244,350.578 89.244 C 350.773 89.244,350.933 88.604,350.933 87.822 C 350.933 87.040,351.093 86.400,351.289 86.400 C 351.484 86.400,351.644 85.760,351.644 84.978 C 351.644 84.196,351.804 83.556,352.000 83.556 C 352.196 83.556,352.356 82.996,352.356 82.311 C 352.356 81.627,352.516 81.067,352.711 81.067 C 352.922 81.067,353.067 79.763,353.067 77.867 C 353.067 75.970,352.922 74.667,352.711 74.667 C 352.516 74.667,352.356 74.187,352.356 73.600 C 352.356 73.013,352.196 72.533,352.000 72.533 C 351.804 72.533,351.644 72.249,351.644 71.901 C 351.644 71.553,351.324 71.037,350.933 70.756 C 350.542 70.474,350.222 69.958,350.222 69.610 C 350.222 69.262,349.966 68.978,349.654 68.978 C 349.341 68.978,348.661 68.536,348.143 67.996 C 347.536 67.363,346.915 67.056,346.400 67.132 C 345.960 67.196,345.600 67.078,345.600 66.869 C 345.600 66.607,342.115 66.489,334.400 66.489 C 326.538 66.489,323.200 66.605,323.200 66.877 M299.482 168.267 C 300.008 168.511,300.440 168.831,300.442 168.978 C 300.443 169.124,300.660 169.244,300.923 169.244 C 301.660 169.244,303.456 170.225,304.175 171.020 C 304.531 171.412,305.037 171.733,305.300 171.733 C 305.563 171.733,305.778 171.989,305.778 172.302 C 305.778 172.614,306.258 173.319,306.844 173.867 C 307.431 174.415,307.911 175.119,307.911 175.432 C 307.911 175.744,308.071 176.000,308.267 176.000 C 308.462 176.000,308.622 176.320,308.622 176.711 C 308.622 177.102,308.782 177.422,308.978 177.422 C 309.173 177.422,309.333 177.902,309.333 178.489 C 309.333 179.076,309.493 179.556,309.689 179.556 C 309.903 179.556,310.044 181.030,310.044 183.268 C 310.044 185.359,309.889 187.076,309.689 187.200 C 309.493 187.321,309.333 187.698,309.333 188.039 C 309.333 188.817,308.534 190.571,308.178 190.575 C 308.031 190.577,307.911 190.862,307.911 191.210 C 307.911 191.558,307.600 192.067,307.219 192.342 C 306.838 192.616,306.593 192.947,306.674 193.078 C 306.754 193.208,306.426 193.526,305.943 193.784 C 305.461 194.042,305.067 194.363,305.067 194.496 C 305.067 194.978,302.915 196.978,302.397 196.978 C 302.105 196.978,301.867 197.138,301.867 197.333 C 301.867 197.529,301.547 197.689,301.156 197.689 C 300.764 197.689,300.444 197.849,300.444 198.044 C 300.444 198.240,299.964 198.400,299.378 198.400 C 298.791 198.400,298.311 198.560,298.311 198.756 C 298.311 198.971,296.770 199.111,294.400 199.111 C 292.030 199.111,290.489 198.971,290.489 198.756 C 290.489 198.560,289.999 198.400,289.401 198.400 C 288.767 198.400,288.405 198.252,288.533 198.044 C 288.654 197.849,288.536 197.689,288.270 197.689 C 287.599 197.689,285.873 196.858,285.869 196.533 C 285.868 196.387,285.617 196.267,285.312 196.267 C 285.007 196.267,284.848 196.120,284.959 195.942 C 285.069 195.763,284.679 195.404,284.091 195.144 C 283.503 194.884,283.022 194.454,283.022 194.189 C 283.022 193.924,282.582 193.279,282.044 192.755 C 280.903 191.644,280.178 190.454,280.178 189.694 C 280.178 189.398,280.018 189.156,279.822 189.156 C 279.627 189.156,279.467 188.765,279.467 188.288 C 279.467 187.810,279.307 187.321,279.111 187.200 C 278.911 187.076,278.756 185.366,278.756 183.289 C 278.756 181.212,278.911 179.501,279.111 179.378 C 279.307 179.257,279.467 178.767,279.467 178.290 C 279.467 177.813,279.627 177.422,279.822 177.422 C 280.018 177.422,280.178 177.102,280.178 176.711 C 280.178 176.320,280.338 176.000,280.533 176.000 C 280.729 176.000,280.889 175.744,280.889 175.432 C 280.889 175.119,281.369 174.415,281.956 173.867 C 282.542 173.319,283.022 172.614,283.022 172.302 C 283.022 171.981,283.316 171.733,283.695 171.733 C 284.065 171.733,284.460 171.494,284.572 171.202 C 284.684 170.910,285.653 170.241,286.725 169.715 C 287.796 169.189,288.601 168.643,288.514 168.502 C 288.426 168.360,288.675 168.328,289.066 168.430 C 289.464 168.534,289.778 168.441,289.778 168.219 C 289.778 167.645,298.231 167.686,299.482 168.267 " stroke="none" fill="#4c5c8c" fill-rule="evenodd"></path><path id="path1" d="M320.444 67.099 C 320.982 67.181,321.862 67.181,322.400 67.099 C 322.938 67.018,322.498 66.951,321.422 66.951 C 320.347 66.951,319.907 67.018,320.444 67.099 M318.044 67.556 L 316.978 67.827 317.935 67.869 C 318.461 67.892,318.990 67.751,319.111 67.556 C 319.232 67.360,319.281 67.219,319.221 67.242 C 319.161 67.265,318.631 67.406,318.044 67.556 M66.966 215.289 C 66.968 216.853,67.030 217.449,67.105 216.613 C 67.180 215.777,67.179 214.497,67.103 213.768 C 67.026 213.040,66.965 213.724,66.966 215.289 M67.652 219.733 C 67.652 220.613,67.722 220.973,67.806 220.533 C 67.891 220.093,67.891 219.373,67.806 218.933 C 67.722 218.493,67.652 218.853,67.652 219.733 " stroke="none" fill="#505c8c" fill-rule="evenodd"></path><path id="path2" d="M320.444 67.099 C 320.982 67.181,321.862 67.181,322.400 67.099 C 322.938 67.018,322.498 66.951,321.422 66.951 C 320.347 66.951,319.907 67.018,320.444 67.099 M318.044 67.556 L 316.978 67.827 317.935 67.869 C 318.461 67.892,318.990 67.751,319.111 67.556 C 319.232 67.360,319.281 67.219,319.221 67.242 C 319.161 67.265,318.631 67.406,318.044 67.556 M66.966 215.289 C 66.968 216.853,67.030 217.449,67.105 216.613 C 67.180 215.777,67.179 214.497,67.103 213.768 C 67.026 213.040,66.965 213.724,66.966 215.289 M67.652 219.733 C 67.652 220.613,67.722 220.973,67.806 220.533 C 67.891 220.093,67.891 219.373,67.806 218.933 C 67.722 218.493,67.652 218.853,67.652 219.733 " stroke="none" fill="#505c8c" fill-rule="evenodd"></path><path id="path3" d="M320.444 67.099 C 320.982 67.181,321.862 67.181,322.400 67.099 C 322.938 67.018,322.498 66.951,321.422 66.951 C 320.347 66.951,319.907 67.018,320.444 67.099 M318.044 67.556 L 316.978 67.827 317.935 67.869 C 318.461 67.892,318.990 67.751,319.111 67.556 C 319.232 67.360,319.281 67.219,319.221 67.242 C 319.161 67.265,318.631 67.406,318.044 67.556 M66.966 215.289 C 66.968 216.853,67.030 217.449,67.105 216.613 C 67.180 215.777,67.179 214.497,67.103 213.768 C 67.026 213.040,66.965 213.724,66.966 215.289 M67.652 219.733 C 67.652 220.613,67.722 220.973,67.806 220.533 C 67.891 220.093,67.891 219.373,67.806 218.933 C 67.722 218.493,67.652 218.853,67.652 219.733 " stroke="none" fill="#505c8c" fill-rule="evenodd"></path><path id="path4" d="M320.444 67.099 C 320.982 67.181,321.862 67.181,322.400 67.099 C 322.938 67.018,322.498 66.951,321.422 66.951 C 320.347 66.951,319.907 67.018,320.444 67.099 M318.044 67.556 L 316.978 67.827 317.935 67.869 C 318.461 67.892,318.990 67.751,319.111 67.556 C 319.232 67.360,319.281 67.219,319.221 67.242 C 319.161 67.265,318.631 67.406,318.044 67.556 M66.966 215.289 C 66.968 216.853,67.030 217.449,67.105 216.613 C 67.180 215.777,67.179 214.497,67.103 213.768 C 67.026 213.040,66.965 213.724,66.966 215.289 M67.652 219.733 C 67.652 220.613,67.722 220.973,67.806 220.533 C 67.891 220.093,67.891 219.373,67.806 218.933 C 67.722 218.493,67.652 218.853,67.652 219.733 " stroke="none" fill="#505c8c" fill-rule="evenodd"></path></g></svg>