<svg id="svg" version="1.1" xmlns="http://www.w3.org/2000/svg" xmlns:xlink="http://www.w3.org/1999/xlink" width="400" height="400" viewBox="0, 0, 400,400"><g id="svgg"><path id="path0" d="M117.700 0.280 C 117.205 0.377,116.800 0.623,116.800 0.828 C 116.800 1.033,116.556 1.200,116.258 1.200 C 115.514 1.200,112.000 4.671,112.000 5.406 C 112.000 5.733,111.820 6.000,111.600 6.000 C 111.380 6.000,111.200 6.360,111.200 6.800 C 111.200 7.240,111.020 7.600,110.800 7.600 C 110.580 7.600,110.400 8.331,110.400 9.224 C 110.400 10.117,110.241 10.749,110.047 10.629 C 109.607 10.357,109.603 14.121,110.043 14.412 C 110.219 14.529,110.408 15.294,110.463 16.112 C 110.518 16.930,110.707 17.600,110.882 17.600 C 111.057 17.600,111.200 17.945,111.200 18.367 C 111.200 18.788,111.367 19.193,111.570 19.267 C 111.773 19.340,111.998 19.670,112.070 20.000 C 112.142 20.330,112.471 20.870,112.803 21.200 C 113.134 21.530,113.656 22.289,113.963 22.886 C 114.270 23.484,114.673 23.878,114.860 23.763 C 115.047 23.647,115.200 23.884,115.200 24.288 C 115.200 24.693,115.560 25.283,116.000 25.600 C 116.440 25.917,116.800 26.457,116.800 26.800 C 116.800 27.143,117.160 27.683,117.600 28.000 C 118.040 28.317,118.400 28.857,118.400 29.200 C 118.400 29.543,118.760 30.083,119.200 30.400 C 119.640 30.717,120.000 31.257,120.000 31.600 C 120.000 31.943,120.360 32.483,120.800 32.800 C 121.240 33.117,121.600 33.631,121.600 33.941 C 121.600 34.252,121.916 34.797,122.303 35.153 C 122.689 35.509,123.260 36.295,123.570 36.900 C 123.881 37.505,124.285 38.000,124.468 38.000 C 124.650 38.000,124.800 38.377,124.800 38.837 C 124.800 39.349,125.124 39.760,125.632 39.893 C 126.180 40.036,126.402 40.347,126.283 40.803 C 126.183 41.188,126.435 41.737,126.851 42.037 C 127.263 42.334,127.600 42.857,127.600 43.200 C 127.600 43.543,127.960 44.083,128.400 44.400 C 128.840 44.717,129.200 45.173,129.200 45.413 C 129.200 45.653,129.515 46.198,129.900 46.625 C 130.285 47.051,130.855 47.895,131.168 48.500 C 131.480 49.105,131.885 49.600,132.068 49.600 C 132.250 49.600,132.400 49.842,132.400 50.138 C 132.400 50.434,132.760 51.002,133.200 51.400 C 133.640 51.798,134.000 52.416,134.000 52.774 C 134.000 53.131,134.360 53.683,134.800 54.000 C 135.240 54.317,135.600 54.807,135.600 55.088 C 135.600 55.370,135.780 55.600,136.000 55.600 C 136.220 55.600,136.400 55.870,136.400 56.200 C 136.400 56.530,136.580 56.800,136.800 56.800 C 137.020 56.800,137.200 57.068,137.200 57.397 C 137.200 57.725,137.560 58.218,138.000 58.493 C 138.440 58.768,138.800 59.269,138.800 59.608 C 138.800 59.946,139.160 60.483,139.600 60.800 C 140.040 61.117,140.400 61.697,140.400 62.088 C 140.400 62.480,140.568 62.800,140.773 62.800 C 140.978 62.800,141.268 63.205,141.418 63.700 C 141.567 64.195,142.136 64.995,142.682 65.478 C 143.227 65.961,143.574 66.519,143.451 66.718 C 143.328 66.916,143.581 67.459,144.014 67.923 C 144.446 68.387,144.800 69.004,144.800 69.295 C 144.800 69.586,145.160 70.083,145.600 70.400 C 146.040 70.717,146.400 71.179,146.400 71.426 C 146.400 71.674,146.760 72.202,147.200 72.600 C 147.640 72.998,148.000 73.667,148.000 74.086 C 148.000 74.504,148.180 74.736,148.400 74.600 C 148.620 74.464,148.800 74.543,148.800 74.776 C 148.800 75.072,164.231 75.200,200.000 75.200 C 235.769 75.200,251.200 75.072,251.200 74.776 C 251.200 74.543,251.380 74.464,251.600 74.600 C 251.820 74.736,252.000 74.504,252.000 74.086 C 252.000 73.667,252.360 72.998,252.800 72.600 C 253.240 72.202,253.600 71.674,253.600 71.426 C 253.600 71.179,253.960 70.717,254.400 70.400 C 254.840 70.083,255.200 69.586,255.200 69.295 C 255.200 69.004,255.554 68.387,255.986 67.923 C 256.419 67.459,256.672 66.916,256.549 66.718 C 256.426 66.519,256.773 65.961,257.318 65.478 C 257.864 64.995,258.433 64.195,258.582 63.700 C 258.732 63.205,259.022 62.800,259.227 62.800 C 259.432 62.800,259.600 62.480,259.600 62.088 C 259.600 61.697,259.960 61.117,260.400 60.800 C 260.840 60.483,261.200 59.946,261.200 59.608 C 261.200 59.269,261.560 58.768,262.000 58.493 C 262.440 58.218,262.800 57.725,262.800 57.397 C 262.800 57.068,262.980 56.800,263.200 56.800 C 263.420 56.800,263.600 56.530,263.600 56.200 C 263.600 55.870,263.780 55.600,264.000 55.600 C 264.220 55.600,264.400 55.370,264.400 55.088 C 264.400 54.807,264.760 54.317,265.200 54.000 C 265.640 53.683,266.000 53.131,266.000 52.774 C 266.000 52.416,266.360 51.798,266.800 51.400 C 267.240 51.002,267.600 50.434,267.600 50.138 C 267.600 49.842,267.750 49.600,267.932 49.600 C 268.115 49.600,268.520 49.105,268.832 48.500 C 269.145 47.895,269.715 47.051,270.100 46.625 C 270.485 46.198,270.800 45.613,270.800 45.325 C 270.800 45.036,270.950 44.800,271.132 44.800 C 271.315 44.800,271.719 44.305,272.030 43.700 C 272.340 43.095,272.874 42.330,273.215 42.000 C 273.557 41.670,273.774 41.108,273.699 40.752 C 273.616 40.364,273.890 40.017,274.381 39.889 C 274.877 39.759,275.200 39.345,275.200 38.837 C 275.200 38.377,275.350 38.000,275.532 38.000 C 275.715 38.000,276.119 37.505,276.430 36.900 C 276.740 36.295,277.311 35.509,277.697 35.153 C 278.084 34.797,278.400 34.252,278.400 33.941 C 278.400 33.631,278.760 33.117,279.200 32.800 C 279.640 32.483,280.000 31.943,280.000 31.600 C 280.000 31.257,280.360 30.717,280.800 30.400 C 281.240 30.083,281.600 29.543,281.600 29.200 C 281.600 28.857,281.960 28.317,282.400 28.000 C 282.840 27.683,283.200 27.143,283.200 26.800 C 283.200 26.457,283.560 25.917,284.000 25.600 C 284.440 25.283,284.800 24.693,284.800 24.288 C 284.800 23.884,284.953 23.647,285.140 23.763 C 285.327 23.878,285.730 23.484,286.037 22.886 C 286.344 22.289,286.866 21.530,287.197 21.200 C 287.529 20.870,287.858 20.330,287.930 20.000 C 288.001 19.670,288.226 19.340,288.430 19.267 C 288.633 19.193,288.800 18.788,288.800 18.367 C 288.800 17.945,288.943 17.600,289.118 17.600 C 289.293 17.600,289.482 16.930,289.537 16.112 C 289.592 15.294,289.781 14.529,289.957 14.412 C 290.397 14.121,290.393 10.357,289.953 10.629 C 289.759 10.749,289.600 10.117,289.600 9.224 C 289.600 8.331,289.420 7.600,289.200 7.600 C 288.980 7.600,288.800 7.240,288.800 6.800 C 288.800 6.360,288.620 6.000,288.400 6.000 C 288.180 6.000,288.000 5.733,288.000 5.406 C 288.000 4.690,284.495 1.200,283.775 1.200 C 283.496 1.200,283.192 0.975,283.100 0.700 C 282.939 0.216,120.152 -0.197,117.700 0.280 M147.640 100.344 C 147.345 100.754,146.495 101.327,145.752 101.619 C 145.008 101.911,144.400 102.296,144.400 102.475 C 144.400 102.654,144.130 102.800,143.800 102.800 C 143.470 102.800,143.200 102.980,143.200 103.200 C 143.200 103.420,142.932 103.600,142.603 103.600 C 142.275 103.600,141.782 103.960,141.507 104.400 C 141.232 104.840,140.731 105.200,140.392 105.200 C 140.054 105.200,139.517 105.560,139.200 106.000 C 138.883 106.440,138.369 106.800,138.059 106.800 C 137.748 106.800,137.203 107.136,136.847 107.546 C 136.491 107.957,135.569 108.431,134.800 108.600 C 134.030 108.769,133.165 109.243,132.877 109.654 C 132.590 110.064,132.089 110.400,131.765 110.400 C 131.440 110.400,131.072 110.669,130.946 110.998 C 130.819 111.326,130.555 111.496,130.358 111.374 C 130.161 111.252,130.000 111.343,130.000 111.576 C 130.000 111.809,129.758 112.000,129.462 112.000 C 129.166 112.000,128.598 112.360,128.200 112.800 C 127.802 113.240,127.133 113.600,126.714 113.600 C 126.296 113.600,126.064 113.780,126.200 114.000 C 126.336 114.220,126.156 114.400,125.800 114.400 C 125.444 114.400,125.264 114.580,125.400 114.800 C 125.536 115.020,125.316 115.200,124.912 115.200 C 124.507 115.200,123.917 115.560,123.600 116.000 C 123.283 116.440,122.743 116.800,122.400 116.800 C 122.057 116.800,121.517 117.160,121.200 117.600 C 120.883 118.040,120.343 118.400,120.000 118.400 C 119.657 118.400,119.117 118.760,118.800 119.200 C 118.483 119.640,117.975 120.000,117.672 120.000 C 117.369 120.000,116.617 120.540,116.000 121.200 C 115.383 121.860,114.635 122.400,114.336 122.400 C 114.037 122.400,113.568 122.760,113.293 123.200 C 113.018 123.640,112.512 124.000,112.168 124.000 C 111.385 124.000,110.342 125.005,110.719 125.396 C 110.874 125.556,110.640 125.615,110.200 125.528 C 109.700 125.429,109.002 125.788,108.340 126.485 C 107.756 127.098,107.036 127.602,106.740 127.604 C 106.443 127.606,105.775 128.146,105.255 128.804 C 104.735 129.462,104.042 130.000,103.715 130.000 C 103.388 130.000,102.617 130.540,102.000 131.200 C 101.383 131.860,100.663 132.400,100.400 132.400 C 100.137 132.400,99.417 132.940,98.800 133.600 C 98.183 134.260,97.474 134.800,97.223 134.800 C 96.973 134.800,96.083 135.520,95.246 136.400 C 94.409 137.280,93.578 138.000,93.400 138.000 C 93.222 138.000,92.391 138.720,91.554 139.600 C 90.717 140.480,89.787 141.200,89.488 141.200 C 89.189 141.200,88.553 141.650,88.075 142.200 C 87.597 142.750,87.024 143.200,86.803 143.200 C 86.581 143.200,86.400 143.458,86.400 143.773 C 86.400 144.088,86.040 144.460,85.600 144.600 C 85.160 144.740,84.800 145.022,84.800 145.227 C 84.800 145.432,84.540 145.600,84.223 145.600 C 83.905 145.600,82.240 147.002,80.523 148.715 C 78.805 150.429,76.905 152.079,76.301 152.383 C 75.696 152.686,75.280 153.014,75.377 153.110 C 75.614 153.348,70.060 158.800,69.580 158.800 C 69.371 158.800,69.200 158.993,69.200 159.229 C 69.200 159.464,68.930 159.927,68.600 160.257 C 68.270 160.587,68.000 160.769,68.000 160.660 C 68.000 160.552,66.676 161.754,65.057 163.332 C 63.438 164.909,62.180 166.276,62.260 166.370 C 62.341 166.463,61.910 166.867,61.303 167.267 C 60.696 167.667,60.348 167.996,60.529 167.997 C 60.709 167.999,60.587 168.270,60.257 168.600 C 59.927 168.930,59.464 169.200,59.229 169.200 C 58.993 169.200,58.800 169.550,58.800 169.977 C 58.800 170.816,54.248 175.715,53.844 175.311 C 53.710 175.177,53.600 175.577,53.600 176.200 C 53.600 176.823,53.489 177.222,53.352 177.086 C 53.031 176.764,52.000 177.795,52.000 178.438 C 52.000 178.710,51.899 178.832,51.776 178.709 C 51.494 178.427,49.600 180.291,49.600 180.850 C 49.600 181.077,48.880 181.954,48.000 182.800 C 47.120 183.646,46.400 184.557,46.400 184.825 C 46.400 185.094,45.860 185.829,45.200 186.460 C 44.540 187.091,44.000 187.874,44.000 188.200 C 44.000 188.527,43.454 189.280,42.787 189.875 C 42.120 190.469,41.652 191.158,41.747 191.406 C 41.842 191.654,41.578 192.071,41.160 192.332 C 40.742 192.593,40.400 192.987,40.400 193.207 C 40.400 193.427,39.860 194.172,39.200 194.863 C 38.540 195.554,38.000 196.360,38.000 196.656 C 38.000 196.951,37.640 197.418,37.200 197.693 C 36.760 197.968,36.400 198.508,36.400 198.893 C 36.400 199.278,36.040 199.818,35.600 200.093 C 35.160 200.368,34.800 200.909,34.800 201.296 C 34.800 201.683,34.620 202.000,34.400 202.000 C 34.180 202.000,34.000 202.320,34.000 202.712 C 34.000 203.103,33.640 203.683,33.200 204.000 C 32.760 204.317,32.400 204.857,32.400 205.200 C 32.400 205.543,32.040 206.083,31.600 206.400 C 31.160 206.717,30.800 207.263,30.800 207.613 C 30.800 207.963,30.473 208.600,30.073 209.029 C 29.016 210.164,26.933 214.086,26.612 215.545 C 26.455 216.262,26.083 216.800,25.745 216.800 C 25.419 216.800,25.264 216.980,25.400 217.200 C 25.536 217.420,25.457 217.600,25.224 217.600 C 24.991 217.600,24.800 217.960,24.800 218.400 C 24.800 218.840,24.620 219.200,24.400 219.200 C 24.180 219.200,24.000 219.560,24.000 220.000 C 24.000 220.440,23.820 220.800,23.600 220.800 C 23.380 220.800,23.200 221.160,23.200 221.600 C 23.200 222.040,23.020 222.400,22.800 222.400 C 22.580 222.400,22.400 222.760,22.400 223.200 C 22.400 223.640,22.220 224.000,22.000 224.000 C 21.780 224.000,21.600 224.371,21.600 224.824 C 21.600 225.277,21.420 225.536,21.200 225.400 C 20.973 225.260,20.800 225.596,20.800 226.176 C 20.800 226.739,20.665 227.201,20.500 227.203 C 20.094 227.207,19.200 229.186,19.200 230.080 C 19.200 230.476,19.020 230.800,18.800 230.800 C 18.580 230.800,18.400 231.034,18.400 231.320 C 18.400 232.056,17.459 233.993,17.100 233.997 C 16.935 233.999,16.800 234.540,16.800 235.200 C 16.800 235.860,16.620 236.400,16.400 236.400 C 16.180 236.400,16.000 236.760,16.000 237.200 C 16.000 237.640,15.820 238.000,15.600 238.000 C 15.380 238.000,15.200 238.360,15.200 238.800 C 15.200 239.240,15.020 239.600,14.800 239.600 C 14.580 239.600,14.400 240.039,14.400 240.576 C 14.400 241.113,14.220 241.664,14.000 241.800 C 13.780 241.936,13.600 242.577,13.600 243.224 C 13.600 243.871,13.420 244.400,13.200 244.400 C 12.980 244.400,12.800 244.771,12.800 245.224 C 12.800 245.677,12.658 245.960,12.485 245.852 C 12.312 245.745,12.130 246.140,12.081 246.729 C 12.033 247.318,11.815 247.860,11.597 247.933 C 11.378 248.007,11.200 248.592,11.200 249.233 C 11.200 249.875,11.059 250.400,10.887 250.400 C 10.715 250.400,10.534 250.885,10.485 251.478 C 10.436 252.070,10.262 252.655,10.098 252.778 C 9.934 252.900,9.737 253.450,9.661 254.000 C 9.585 254.550,9.365 255.192,9.173 255.426 C 8.981 255.661,8.704 256.876,8.557 258.126 C 8.410 259.377,8.135 260.400,7.945 260.400 C 7.755 260.400,7.600 261.109,7.600 261.976 C 7.600 262.843,7.420 263.664,7.200 263.800 C 6.980 263.936,6.800 264.487,6.800 265.024 C 6.800 265.561,6.620 266.000,6.400 266.000 C 6.180 266.000,6.000 266.720,6.000 267.600 C 6.000 268.480,5.820 269.200,5.600 269.200 C 5.380 269.200,5.200 270.100,5.200 271.200 C 5.200 272.300,5.020 273.200,4.800 273.200 C 4.580 273.200,4.400 274.100,4.400 275.200 C 4.400 276.300,4.220 277.200,4.000 277.200 C 3.780 277.200,3.600 277.999,3.600 278.976 C 3.600 279.953,3.420 280.864,3.200 281.000 C 2.980 281.136,2.800 282.047,2.800 283.024 C 2.800 284.001,2.620 284.800,2.400 284.800 C 2.171 284.800,2.000 286.000,2.000 287.600 C 2.000 289.200,1.829 290.400,1.600 290.400 C 1.369 290.400,1.200 291.656,1.200 293.367 C 1.200 295.384,1.040 296.387,0.700 296.500 C -0.031 296.744,-0.031 340.856,0.700 341.100 C 0.975 341.192,1.200 341.882,1.200 342.633 C 1.200 343.385,1.380 344.000,1.600 344.000 C 1.820 344.000,2.000 344.720,2.000 345.600 C 2.000 346.480,2.180 347.200,2.400 347.200 C 2.620 347.200,2.800 347.740,2.800 348.400 C 2.800 349.060,2.980 349.600,3.200 349.600 C 3.420 349.600,3.600 350.140,3.600 350.800 C 3.600 351.460,3.780 352.000,4.000 352.000 C 4.220 352.000,4.400 352.360,4.400 352.800 C 4.400 353.240,4.580 353.600,4.800 353.600 C 5.020 353.600,5.200 354.140,5.200 354.800 C 5.200 355.460,5.346 356.000,5.525 356.000 C 5.704 356.000,6.098 356.630,6.400 357.400 C 6.702 358.170,7.096 358.800,7.275 358.800 C 7.454 358.800,7.600 359.160,7.600 359.600 C 7.600 360.040,7.760 360.400,7.955 360.400 C 8.151 360.400,8.428 361.025,8.572 361.789 C 8.715 362.553,9.140 363.358,9.516 363.577 C 9.892 363.796,10.020 363.984,9.800 363.994 C 9.580 364.004,9.611 364.146,9.868 364.310 C 10.125 364.474,10.395 364.876,10.468 365.204 C 10.541 365.532,10.915 366.035,11.300 366.323 C 11.685 366.610,12.000 367.077,12.000 367.361 C 12.000 367.644,12.360 368.202,12.800 368.600 C 13.240 368.998,13.600 369.565,13.600 369.859 C 13.600 370.153,13.960 370.618,14.400 370.893 C 14.840 371.168,15.200 371.630,15.200 371.920 C 15.200 372.210,15.380 372.336,15.600 372.200 C 15.820 372.064,16.006 372.278,16.013 372.676 C 16.024 373.339,17.200 375.315,17.200 374.672 C 17.200 374.518,19.061 376.238,21.336 378.496 C 23.611 380.753,25.413 382.672,25.342 382.760 C 25.104 383.055,26.590 383.974,27.324 383.987 C 27.722 383.994,27.936 384.180,27.800 384.400 C 27.664 384.620,27.790 384.800,28.080 384.800 C 28.370 384.800,28.832 385.160,29.107 385.600 C 29.382 386.040,29.847 386.400,30.141 386.400 C 30.435 386.400,31.002 386.760,31.400 387.200 C 31.798 387.640,32.356 388.000,32.639 388.000 C 32.923 388.000,33.390 388.315,33.677 388.700 C 33.965 389.085,34.468 389.459,34.796 389.532 C 35.124 389.605,35.526 389.875,35.690 390.132 C 35.854 390.389,35.996 390.420,36.006 390.200 C 36.016 389.980,36.204 390.108,36.423 390.484 C 36.642 390.860,37.447 391.285,38.211 391.428 C 38.975 391.572,39.600 391.849,39.600 392.045 C 39.600 392.240,39.960 392.400,40.400 392.400 C 40.840 392.400,41.200 392.546,41.200 392.725 C 41.200 392.904,41.830 393.298,42.600 393.600 C 43.370 393.902,44.000 394.296,44.000 394.475 C 44.000 394.654,44.540 394.800,45.200 394.800 C 45.860 394.800,46.400 394.980,46.400 395.200 C 46.400 395.420,46.760 395.600,47.200 395.600 C 47.640 395.600,48.000 395.780,48.000 396.000 C 48.000 396.220,48.540 396.400,49.200 396.400 C 49.860 396.400,50.400 396.580,50.400 396.800 C 50.400 397.020,50.940 397.200,51.600 397.200 C 52.260 397.200,52.800 397.380,52.800 397.600 C 52.800 397.820,53.520 398.000,54.400 398.000 C 55.280 398.000,56.000 398.180,56.000 398.400 C 56.000 398.620,56.615 398.800,57.367 398.800 C 58.118 398.800,58.808 399.025,58.900 399.300 C 59.033 399.699,87.609 399.800,200.000 399.800 C 312.391 399.800,340.967 399.699,341.100 399.300 C 341.192 399.025,341.882 398.800,342.633 398.800 C 343.385 398.800,344.000 398.620,344.000 398.400 C 344.000 398.180,344.720 398.000,345.600 398.000 C 346.480 398.000,347.200 397.820,347.200 397.600 C 347.200 397.380,347.740 397.200,348.400 397.200 C 349.060 397.200,349.600 397.020,349.600 396.800 C 349.600 396.580,350.140 396.400,350.800 396.400 C 351.460 396.400,352.000 396.220,352.000 396.000 C 352.000 395.780,352.360 395.600,352.800 395.600 C 353.240 395.600,353.600 395.420,353.600 395.200 C 353.600 394.980,354.140 394.800,354.800 394.800 C 355.460 394.800,356.000 394.654,356.000 394.475 C 356.000 394.296,356.630 393.902,357.400 393.600 C 358.170 393.298,358.800 392.904,358.800 392.725 C 358.800 392.546,359.160 392.400,359.600 392.400 C 360.040 392.400,360.400 392.240,360.400 392.045 C 360.400 391.849,361.025 391.572,361.789 391.428 C 362.553 391.285,363.358 390.860,363.577 390.484 C 363.796 390.108,363.984 389.980,363.994 390.200 C 364.004 390.420,364.146 390.389,364.310 390.132 C 364.474 389.875,364.876 389.605,365.204 389.532 C 365.532 389.459,366.035 389.085,366.323 388.700 C 366.610 388.315,367.077 388.000,367.361 388.000 C 367.644 388.000,368.202 387.640,368.600 387.200 C 368.998 386.760,369.565 386.400,369.859 386.400 C 370.153 386.400,370.618 386.040,370.893 385.600 C 371.168 385.160,371.630 384.800,371.920 384.800 C 372.210 384.800,372.336 384.620,372.200 384.400 C 372.064 384.180,372.278 383.994,372.676 383.987 C 373.410 383.974,374.896 383.055,374.658 382.760 C 374.587 382.672,376.389 380.753,378.664 378.496 C 380.939 376.238,382.800 374.518,382.800 374.672 C 382.800 375.315,383.976 373.339,383.987 372.676 C 383.994 372.278,384.180 372.064,384.400 372.200 C 384.620 372.336,384.800 372.210,384.800 371.920 C 384.800 371.630,385.160 371.168,385.600 370.893 C 386.040 370.618,386.400 370.153,386.400 369.859 C 386.400 369.565,386.760 368.998,387.200 368.600 C 387.640 368.202,388.000 367.644,388.000 367.361 C 388.000 367.077,388.315 366.610,388.700 366.323 C 389.085 366.035,389.459 365.532,389.532 365.204 C 389.605 364.876,389.875 364.474,390.132 364.310 C 390.389 364.146,390.420 364.004,390.200 363.994 C 389.980 363.984,390.108 363.796,390.484 363.577 C 390.860 363.358,391.285 362.553,391.428 361.789 C 391.572 361.025,391.849 360.400,392.045 360.400 C 392.240 360.400,392.400 360.040,392.400 359.600 C 392.400 359.160,392.546 358.800,392.725 358.800 C 392.904 358.800,393.298 358.170,393.600 357.400 C 393.902 356.630,394.296 356.000,394.475 356.000 C 394.654 356.000,394.800 355.460,394.800 354.800 C 394.800 354.140,394.980 353.600,395.200 353.600 C 395.420 353.600,395.600 353.240,395.600 352.800 C 395.600 352.360,395.780 352.000,396.000 352.000 C 396.220 352.000,396.400 351.460,396.400 350.800 C 396.400 350.140,396.580 349.600,396.800 349.600 C 397.020 349.600,397.200 349.060,397.200 348.400 C 397.200 347.740,397.380 347.200,397.600 347.200 C 397.820 347.200,398.000 346.480,398.000 345.600 C 398.000 344.720,398.180 344.000,398.400 344.000 C 398.620 344.000,398.800 343.385,398.800 342.633 C 398.800 341.882,399.025 341.192,399.300 341.100 C 399.692 340.969,399.800 336.150,399.800 318.800 C 399.800 301.449,399.692 296.631,399.300 296.500 C 398.960 296.387,398.800 295.384,398.800 293.367 C 398.800 291.656,398.631 290.400,398.400 290.400 C 398.178 290.400,398.000 289.333,398.000 288.000 C 398.000 286.667,397.822 285.600,397.600 285.600 C 397.380 285.600,397.200 284.621,397.200 283.424 C 397.200 282.227,397.020 281.136,396.800 281.000 C 396.580 280.864,396.400 279.953,396.400 278.976 C 396.400 277.999,396.220 277.200,396.000 277.200 C 395.780 277.200,395.600 276.300,395.600 275.200 C 395.600 274.100,395.420 273.200,395.200 273.200 C 394.980 273.200,394.800 272.480,394.800 271.600 C 394.800 270.720,394.620 270.000,394.400 270.000 C 394.180 270.000,394.000 269.100,394.000 268.000 C 394.000 266.900,393.820 266.000,393.600 266.000 C 393.380 266.000,393.200 265.561,393.200 265.024 C 393.200 264.487,393.020 263.936,392.800 263.800 C 392.580 263.664,392.400 262.843,392.400 261.976 C 392.400 261.109,392.233 260.400,392.029 260.400 C 391.825 260.400,391.532 259.365,391.379 258.100 C 391.226 256.835,390.961 255.620,390.790 255.400 C 390.618 255.180,390.415 254.550,390.339 254.000 C 390.263 253.450,390.066 252.900,389.902 252.778 C 389.738 252.655,389.564 252.070,389.515 251.478 C 389.466 250.885,389.285 250.400,389.113 250.400 C 388.941 250.400,388.800 249.875,388.800 249.233 C 388.800 248.592,388.622 248.007,388.403 247.933 C 388.185 247.860,387.967 247.318,387.919 246.729 C 387.870 246.140,387.688 245.745,387.515 245.852 C 387.342 245.960,387.200 245.677,387.200 245.224 C 387.200 244.771,387.020 244.400,386.800 244.400 C 386.580 244.400,386.400 243.871,386.400 243.224 C 386.400 242.577,386.220 241.936,386.000 241.800 C 385.780 241.664,385.600 241.113,385.600 240.576 C 385.600 240.039,385.420 239.600,385.200 239.600 C 384.980 239.600,384.800 239.240,384.800 238.800 C 384.800 238.360,384.620 238.000,384.400 238.000 C 384.180 238.000,384.000 237.640,384.000 237.200 C 384.000 236.760,383.820 236.400,383.600 236.400 C 383.380 236.400,383.200 235.860,383.200 235.200 C 383.200 234.540,383.065 233.999,382.900 233.997 C 382.541 233.993,381.600 232.056,381.600 231.320 C 381.600 231.034,381.420 230.800,381.200 230.800 C 380.980 230.800,380.800 230.476,380.800 230.080 C 380.800 229.186,379.906 227.207,379.500 227.203 C 379.335 227.201,379.200 226.739,379.200 226.176 C 379.200 225.596,379.027 225.260,378.800 225.400 C 378.580 225.536,378.400 225.277,378.400 224.824 C 378.400 224.371,378.220 224.000,378.000 224.000 C 377.780 224.000,377.600 223.640,377.600 223.200 C 377.600 222.760,377.420 222.400,377.200 222.400 C 376.980 222.400,376.800 222.040,376.800 221.600 C 376.800 221.160,376.620 220.800,376.400 220.800 C 376.180 220.800,376.000 220.440,376.000 220.000 C 376.000 219.560,375.820 219.200,375.600 219.200 C 375.380 219.200,375.200 218.840,375.200 218.400 C 375.200 217.960,375.009 217.600,374.776 217.600 C 374.543 217.600,374.464 217.420,374.600 217.200 C 374.736 216.980,374.581 216.800,374.255 216.800 C 373.917 216.800,373.545 216.262,373.388 215.545 C 373.067 214.086,370.984 210.164,369.927 209.029 C 369.527 208.600,369.200 207.963,369.200 207.613 C 369.200 207.263,368.840 206.717,368.400 206.400 C 367.960 206.083,367.600 205.543,367.600 205.200 C 367.600 204.857,367.240 204.317,366.800 204.000 C 366.360 203.683,366.000 203.103,366.000 202.712 C 366.000 202.320,365.820 202.000,365.600 202.000 C 365.380 202.000,365.200 201.683,365.200 201.296 C 365.200 200.909,364.840 200.368,364.400 200.093 C 363.960 199.818,363.600 199.278,363.600 198.893 C 363.600 198.508,363.240 197.968,362.800 197.693 C 362.360 197.418,362.000 196.951,362.000 196.656 C 362.000 196.360,361.460 195.554,360.800 194.863 C 360.140 194.172,359.600 193.427,359.600 193.207 C 359.600 192.987,359.258 192.593,358.840 192.332 C 358.422 192.071,358.158 191.654,358.253 191.406 C 358.348 191.158,357.880 190.469,357.213 189.875 C 356.546 189.280,356.000 188.527,356.000 188.200 C 356.000 187.874,355.460 187.091,354.800 186.460 C 354.140 185.829,353.600 185.094,353.600 184.825 C 353.600 184.557,352.880 183.646,352.000 182.800 C 351.120 181.954,350.400 181.077,350.400 180.850 C 350.400 180.291,348.506 178.427,348.224 178.709 C 348.101 178.832,348.000 178.710,348.000 178.438 C 348.000 177.795,346.969 176.764,346.648 177.086 C 346.511 177.222,346.400 176.823,346.400 176.200 C 346.400 175.577,346.287 175.180,346.149 175.317 C 345.825 175.641,340.494 170.126,340.183 169.145 C 340.052 168.735,339.768 168.400,339.549 168.400 C 339.331 168.400,339.222 168.265,339.306 168.100 C 339.390 167.935,337.781 166.142,335.730 164.115 C 333.678 162.088,332.000 160.525,332.000 160.643 C 332.000 160.761,331.730 160.587,331.400 160.257 C 331.070 159.927,330.800 159.464,330.800 159.229 C 330.800 158.993,330.629 158.800,330.420 158.800 C 329.940 158.800,324.386 153.348,324.623 153.110 C 324.720 153.014,324.304 152.686,323.699 152.383 C 323.095 152.079,321.195 150.429,319.477 148.715 C 317.760 147.002,316.095 145.600,315.777 145.600 C 315.460 145.600,315.200 145.432,315.200 145.227 C 315.200 145.022,314.840 144.740,314.400 144.600 C 313.960 144.460,313.600 144.088,313.600 143.773 C 313.600 143.458,313.419 143.200,313.197 143.200 C 312.976 143.200,312.403 142.750,311.925 142.200 C 311.447 141.650,310.811 141.200,310.512 141.200 C 310.213 141.200,309.283 140.480,308.446 139.600 C 307.609 138.720,306.778 138.000,306.600 138.000 C 306.422 138.000,305.591 137.280,304.754 136.400 C 303.917 135.520,303.027 134.800,302.777 134.800 C 302.526 134.800,301.817 134.260,301.200 133.600 C 300.583 132.940,299.863 132.400,299.600 132.400 C 299.337 132.400,298.617 131.860,298.000 131.200 C 297.383 130.540,296.601 130.000,296.262 130.000 C 295.923 130.000,295.410 129.669,295.123 129.263 C 294.835 128.858,294.150 128.288,293.600 127.997 C 293.050 127.705,292.150 126.995,291.600 126.418 C 290.986 125.774,290.291 125.431,289.800 125.528 C 289.360 125.615,289.126 125.556,289.281 125.396 C 289.635 125.030,288.636 124.000,287.927 124.000 C 287.636 124.000,286.888 123.460,286.265 122.800 C 285.642 122.140,284.917 121.600,284.654 121.600 C 284.392 121.600,283.917 121.240,283.600 120.800 C 283.283 120.360,282.743 120.000,282.400 120.000 C 282.057 120.000,281.517 119.640,281.200 119.200 C 280.883 118.760,280.343 118.400,280.000 118.400 C 279.657 118.400,279.117 118.040,278.800 117.600 C 278.483 117.160,277.943 116.800,277.600 116.800 C 277.257 116.800,276.717 116.440,276.400 116.000 C 276.083 115.560,275.493 115.200,275.088 115.200 C 274.684 115.200,274.464 115.020,274.600 114.800 C 274.736 114.580,274.556 114.400,274.200 114.400 C 273.844 114.400,273.664 114.220,273.800 114.000 C 273.936 113.780,273.704 113.600,273.286 113.600 C 272.867 113.600,272.198 113.240,271.800 112.800 C 271.402 112.360,270.834 112.000,270.538 112.000 C 270.242 112.000,270.000 111.809,270.000 111.576 C 270.000 111.343,269.839 111.252,269.642 111.374 C 269.445 111.496,269.181 111.326,269.054 110.998 C 268.928 110.669,268.560 110.400,268.235 110.400 C 267.911 110.400,267.410 110.064,267.123 109.654 C 266.835 109.243,265.970 108.769,265.200 108.600 C 264.431 108.431,263.509 107.957,263.153 107.546 C 262.797 107.136,262.252 106.800,261.941 106.800 C 261.631 106.800,261.117 106.440,260.800 106.000 C 260.483 105.560,259.946 105.200,259.608 105.200 C 259.269 105.200,258.768 104.840,258.493 104.400 C 258.218 103.960,257.725 103.600,257.397 103.600 C 257.068 103.600,256.800 103.420,256.800 103.200 C 256.800 102.980,256.530 102.800,256.200 102.800 C 255.870 102.800,255.600 102.620,255.600 102.400 C 255.600 102.180,255.332 102.000,255.003 102.000 C 254.675 102.000,254.182 101.640,253.907 101.200 C 253.632 100.760,253.091 100.400,252.704 100.400 C 252.317 100.400,252.000 100.220,252.000 100.000 C 252.000 99.142,148.260 99.484,147.640 100.344 M204.400 154.800 C 204.400 155.020,204.760 155.200,205.200 155.200 C 205.640 155.200,206.000 155.358,206.000 155.550 C 206.000 155.743,206.564 156.013,207.253 156.151 C 208.548 156.410,211.200 158.852,211.200 159.786 C 211.200 160.076,211.450 160.410,211.756 160.528 C 212.363 160.761,213.600 162.998,213.600 163.861 C 213.600 164.158,213.780 164.400,214.000 164.400 C 214.222 164.400,214.400 165.467,214.400 166.800 C 214.400 168.133,214.578 169.200,214.800 169.200 C 215.046 169.200,215.200 171.212,215.200 174.437 C 215.200 179.338,215.251 179.688,216.000 179.884 C 216.440 179.999,216.800 180.252,216.800 180.447 C 216.800 180.641,217.700 180.800,218.800 180.800 C 219.900 180.800,220.800 180.980,220.800 181.200 C 220.800 181.420,221.700 181.600,222.800 181.600 C 223.900 181.600,224.800 181.780,224.800 182.000 C 224.800 182.220,225.419 182.400,226.176 182.400 C 226.933 182.400,227.664 182.580,227.800 182.800 C 227.936 183.020,228.667 183.200,229.424 183.200 C 230.181 183.200,230.800 183.380,230.800 183.600 C 230.800 183.820,231.340 184.000,232.000 184.000 C 232.660 184.000,233.200 184.180,233.200 184.400 C 233.200 184.620,233.560 184.800,234.000 184.800 C 234.440 184.800,234.800 184.980,234.800 185.200 C 234.800 185.420,235.097 185.600,235.460 185.600 C 235.823 185.600,236.973 186.490,238.016 187.577 C 239.059 188.665,240.022 189.445,240.156 189.311 C 240.290 189.177,240.400 189.367,240.400 189.733 C 240.400 190.100,240.578 190.400,240.795 190.400 C 241.013 190.400,241.306 191.124,241.448 192.009 C 241.589 192.894,241.861 193.714,242.053 193.832 C 242.244 193.951,242.400 195.826,242.400 198.000 C 242.400 200.174,242.244 202.049,242.053 202.168 C 241.861 202.286,241.587 203.118,241.444 204.017 C 241.190 205.603,237.209 210.276,236.616 209.683 C 236.497 209.564,236.400 209.677,236.400 209.933 C 236.400 210.190,236.040 210.400,235.600 210.400 C 235.160 210.400,234.799 210.535,234.797 210.700 C 234.793 211.101,232.819 212.000,231.944 212.000 C 231.561 212.000,231.136 212.180,231.000 212.400 C 230.864 212.620,229.503 212.800,227.976 212.800 C 226.392 212.800,225.200 212.628,225.200 212.400 C 225.200 212.180,224.480 212.000,223.600 212.000 C 222.720 212.000,222.000 211.820,222.000 211.600 C 222.000 211.380,221.406 211.200,220.680 211.200 C 219.954 211.200,219.189 211.037,218.980 210.839 C 218.624 210.501,217.574 210.321,212.600 209.748 C 211.500 209.621,210.362 209.324,210.072 209.087 C 209.270 208.432,190.597 208.444,189.940 209.100 C 189.665 209.375,188.936 209.600,188.320 209.600 C 187.704 209.600,187.200 209.780,187.200 210.000 C 187.200 210.220,186.660 210.400,186.000 210.400 C 185.340 210.400,184.800 210.546,184.800 210.725 C 184.800 210.904,184.166 211.299,183.391 211.603 C 182.617 211.907,181.689 212.481,181.329 212.878 C 180.970 213.275,180.438 213.600,180.147 213.600 C 179.856 213.600,179.303 214.095,178.918 214.700 C 178.533 215.305,178.124 215.890,178.009 216.000 C 177.894 216.110,177.736 216.650,177.659 217.200 C 177.581 217.750,177.384 218.290,177.220 218.400 C 176.797 218.685,176.822 222.400,177.247 222.400 C 177.441 222.400,177.600 222.771,177.600 223.224 C 177.600 223.677,177.747 223.956,177.927 223.845 C 178.107 223.734,178.507 223.993,178.815 224.421 C 179.124 224.850,179.657 225.200,180.000 225.200 C 180.343 225.200,180.883 225.560,181.200 226.000 C 181.517 226.440,182.097 226.800,182.488 226.800 C 182.880 226.800,183.200 226.980,183.200 227.200 C 183.200 227.420,183.560 227.600,184.000 227.600 C 184.440 227.600,184.800 227.780,184.800 228.000 C 184.800 228.220,185.340 228.400,186.000 228.400 C 186.660 228.400,187.200 228.580,187.200 228.800 C 187.200 229.020,187.560 229.200,188.000 229.200 C 188.440 229.200,188.800 229.380,188.800 229.600 C 188.800 229.820,189.340 230.000,190.000 230.000 C 190.660 230.000,191.200 230.180,191.200 230.400 C 191.200 230.620,191.650 230.800,192.200 230.800 C 192.750 230.800,193.200 230.980,193.200 231.200 C 193.200 231.420,193.729 231.600,194.376 231.600 C 195.023 231.600,195.664 231.780,195.800 232.000 C 195.936 232.220,196.476 232.400,197.000 232.400 C 197.524 232.400,198.064 232.580,198.200 232.800 C 198.336 233.020,198.876 233.200,199.400 233.200 C 199.924 233.200,200.464 233.380,200.600 233.600 C 200.736 233.820,201.287 234.000,201.824 234.000 C 202.361 234.000,202.800 234.180,202.800 234.400 C 202.800 234.620,203.520 234.800,204.400 234.800 C 205.280 234.800,206.000 234.980,206.000 235.200 C 206.000 235.420,206.540 235.600,207.200 235.600 C 207.860 235.600,208.400 235.780,208.400 236.000 C 208.400 236.220,208.839 236.400,209.376 236.400 C 209.913 236.400,210.464 236.580,210.600 236.800 C 210.736 237.020,211.287 237.200,211.824 237.200 C 212.361 237.200,212.800 237.341,212.800 237.513 C 212.800 237.685,213.295 237.866,213.900 237.916 C 214.505 237.966,215.060 238.185,215.133 238.403 C 215.207 238.622,215.792 238.800,216.433 238.800 C 217.075 238.800,217.600 238.941,217.600 239.113 C 217.600 239.285,218.085 239.466,218.678 239.515 C 219.270 239.564,219.898 239.828,220.071 240.102 C 220.245 240.376,220.391 240.444,220.394 240.254 C 220.397 240.064,220.809 240.176,221.309 240.503 C 221.809 240.831,222.979 241.228,223.910 241.385 C 224.842 241.542,225.502 241.835,225.378 242.035 C 225.254 242.236,225.523 242.400,225.976 242.400 C 226.429 242.400,226.800 242.580,226.800 242.800 C 226.800 243.020,227.042 243.200,227.339 243.200 C 228.202 243.200,230.439 244.437,230.672 245.044 C 230.790 245.350,231.226 245.600,231.643 245.600 C 232.059 245.600,232.400 245.780,232.400 246.000 C 232.400 246.220,232.720 246.400,233.112 246.400 C 233.503 246.400,234.083 246.760,234.400 247.200 C 234.717 247.640,235.221 248.000,235.520 248.000 C 235.818 248.000,236.754 248.720,237.600 249.600 C 238.446 250.480,239.337 251.200,239.582 251.200 C 240.232 251.200,242.400 253.526,242.400 254.224 C 242.400 254.553,243.165 255.602,244.100 256.556 C 246.496 259.002,247.200 259.921,247.200 260.605 C 247.200 260.932,247.380 261.200,247.600 261.200 C 247.820 261.200,248.000 261.560,248.000 262.000 C 248.000 262.440,248.180 262.800,248.400 262.800 C 248.620 262.800,248.800 263.160,248.800 263.600 C 248.800 264.040,248.980 264.400,249.200 264.400 C 249.420 264.400,249.600 264.760,249.600 265.200 C 249.600 265.640,249.780 266.000,250.000 266.000 C 250.220 266.000,250.400 266.540,250.400 267.200 C 250.400 267.860,250.580 268.400,250.800 268.400 C 251.020 268.400,251.200 269.199,251.200 270.176 C 251.200 271.153,251.380 272.064,251.600 272.200 C 251.840 272.349,252.000 275.071,252.000 279.024 C 252.000 283.141,251.850 285.600,251.600 285.600 C 251.380 285.600,251.200 286.500,251.200 287.600 C 251.200 288.700,251.020 289.600,250.800 289.600 C 250.580 289.600,250.400 290.039,250.400 290.576 C 250.400 291.113,250.220 291.664,250.000 291.800 C 249.780 291.936,249.600 292.487,249.600 293.024 C 249.600 293.561,249.420 294.000,249.200 294.000 C 248.980 294.000,248.800 294.234,248.800 294.520 C 248.800 295.256,247.859 297.193,247.500 297.197 C 247.335 297.199,247.200 297.520,247.200 297.912 C 247.200 298.303,246.840 298.883,246.400 299.200 C 245.960 299.517,245.600 300.097,245.600 300.488 C 245.600 300.880,245.432 301.200,245.227 301.200 C 245.022 301.200,244.740 301.560,244.600 302.000 C 244.460 302.440,244.110 302.800,243.822 302.800 C 243.533 302.800,243.089 303.302,242.835 303.915 C 242.212 305.419,239.443 308.400,238.669 308.400 C 238.326 308.400,237.765 308.800,237.423 309.289 C 237.080 309.778,236.800 310.008,236.800 309.800 C 236.800 309.592,236.520 309.822,236.177 310.311 C 235.835 310.800,235.245 311.200,234.866 311.200 C 234.487 311.200,233.917 311.560,233.600 312.000 C 233.283 312.440,232.703 312.800,232.312 312.800 C 231.920 312.800,231.600 312.980,231.600 313.200 C 231.600 313.420,231.240 313.600,230.800 313.600 C 230.360 313.600,230.000 313.780,230.000 314.000 C 230.000 314.220,229.730 314.400,229.400 314.400 C 229.070 314.400,228.800 314.580,228.800 314.800 C 228.800 315.020,228.451 315.200,228.024 315.200 C 227.597 315.200,227.136 315.380,227.000 315.600 C 226.864 315.820,226.393 316.000,225.953 316.000 C 225.513 316.000,225.264 316.180,225.400 316.400 C 225.544 316.633,225.137 316.800,224.424 316.800 C 223.751 316.800,223.200 316.980,223.200 317.200 C 223.200 317.420,222.660 317.600,222.000 317.600 C 221.340 317.600,220.800 317.780,220.800 318.000 C 220.800 318.220,220.260 318.400,219.600 318.400 C 218.940 318.400,218.400 318.580,218.400 318.800 C 218.400 319.020,217.757 319.200,216.971 319.200 C 214.496 319.200,214.400 319.511,214.400 327.548 C 214.400 331.920,214.243 334.850,214.000 335.000 C 213.780 335.136,213.600 335.569,213.600 335.962 C 213.600 337.074,212.498 339.014,211.398 339.841 C 210.849 340.253,210.400 340.817,210.400 341.095 C 210.400 341.373,210.207 341.600,209.971 341.600 C 209.413 341.600,208.400 342.619,208.400 343.181 C 208.400 343.423,207.860 343.728,207.200 343.860 C 206.540 343.992,206.000 344.257,206.000 344.450 C 206.000 344.643,205.561 344.800,205.024 344.800 C 204.487 344.800,203.936 344.980,203.800 345.200 C 203.478 345.722,196.522 345.722,196.200 345.200 C 196.064 344.980,195.513 344.800,194.976 344.800 C 194.439 344.800,194.000 344.642,194.000 344.450 C 194.000 344.257,193.460 343.992,192.800 343.860 C 192.096 343.719,191.600 343.368,191.600 343.010 C 191.600 342.675,191.330 342.400,191.000 342.400 C 190.245 342.400,188.800 340.983,188.800 340.243 C 188.800 339.936,188.550 339.590,188.244 339.472 C 187.637 339.239,186.400 337.002,186.400 336.139 C 186.400 335.842,186.220 335.600,186.000 335.600 C 185.780 335.600,185.600 334.700,185.600 333.600 C 185.600 332.500,185.420 331.600,185.200 331.600 C 184.951 331.600,184.800 329.324,184.800 325.571 C 184.800 318.820,184.649 318.400,182.229 318.400 C 181.443 318.400,180.800 318.220,180.800 318.000 C 180.800 317.780,180.080 317.600,179.200 317.600 C 178.320 317.600,177.600 317.420,177.600 317.200 C 177.600 316.980,177.060 316.800,176.400 316.800 C 175.740 316.800,175.200 316.620,175.200 316.400 C 175.200 316.180,174.761 316.000,174.224 316.000 C 173.687 316.000,173.136 315.820,173.000 315.600 C 172.864 315.380,172.324 315.200,171.800 315.200 C 171.276 315.200,170.736 315.020,170.600 314.800 C 170.464 314.580,169.859 314.400,169.256 314.400 C 168.060 314.400,166.008 313.580,166.003 313.100 C 166.001 312.935,165.460 312.800,164.800 312.800 C 164.140 312.800,163.600 312.620,163.600 312.400 C 163.600 312.180,163.060 312.000,162.400 312.000 C 161.740 312.000,161.200 311.820,161.200 311.600 C 161.200 311.380,160.660 311.200,160.000 311.200 C 159.340 311.200,158.800 311.020,158.800 310.800 C 158.800 310.580,158.350 310.400,157.800 310.400 C 157.250 310.400,156.800 310.209,156.800 309.976 C 156.800 309.743,156.635 309.655,156.432 309.780 C 156.230 309.905,155.801 309.744,155.480 309.423 C 155.158 309.101,154.796 308.937,154.675 309.058 C 154.554 309.179,154.220 308.900,153.931 308.439 C 153.643 307.978,153.168 307.600,152.875 307.600 C 152.186 307.600,151.200 306.610,151.200 305.917 C 151.200 305.620,150.840 305.117,150.400 304.800 C 149.960 304.483,149.600 303.903,149.600 303.512 C 149.600 303.120,149.420 302.800,149.200 302.800 C 148.980 302.800,148.800 302.455,148.800 302.033 C 148.800 301.612,148.616 301.205,148.390 301.130 C 147.827 300.942,147.813 292.662,148.375 292.475 C 148.609 292.397,148.806 291.943,148.813 291.467 C 148.827 290.472,149.751 289.084,150.140 289.473 C 150.283 289.616,150.400 289.429,150.400 289.056 C 150.400 288.258,153.334 285.246,154.905 284.432 C 155.507 284.120,156.000 283.715,156.000 283.532 C 156.000 283.350,156.270 283.200,156.600 283.200 C 156.930 283.200,157.200 283.020,157.200 282.800 C 157.200 282.580,157.920 282.400,158.800 282.400 C 159.680 282.400,160.400 282.220,160.400 282.000 C 160.400 281.780,161.300 281.600,162.400 281.600 C 163.500 281.600,164.400 281.780,164.400 282.000 C 164.400 282.220,165.109 282.400,165.976 282.400 C 166.843 282.400,167.664 282.580,167.800 282.800 C 167.936 283.020,168.487 283.200,169.024 283.200 C 169.561 283.200,170.000 283.380,170.000 283.600 C 170.000 283.820,170.540 284.000,171.200 284.000 C 171.860 284.000,172.400 284.180,172.400 284.400 C 172.400 284.620,172.940 284.800,173.600 284.800 C 174.260 284.800,174.800 284.980,174.800 285.200 C 174.800 285.420,175.239 285.600,175.776 285.600 C 176.313 285.600,176.864 285.780,177.000 286.000 C 177.136 286.220,177.687 286.400,178.224 286.400 C 178.761 286.400,179.200 286.580,179.200 286.800 C 179.200 287.020,179.729 287.200,180.376 287.200 C 181.023 287.200,181.664 287.380,181.800 287.600 C 181.936 287.820,182.487 288.000,183.024 288.000 C 183.561 288.000,184.000 288.180,184.000 288.400 C 184.000 288.620,184.709 288.800,185.576 288.800 C 186.443 288.800,187.264 288.980,187.400 289.200 C 187.536 289.420,188.267 289.600,189.024 289.600 C 189.781 289.600,190.400 289.763,190.400 289.961 C 190.400 290.806,207.735 291.625,208.541 290.819 C 208.772 290.588,209.644 290.400,210.480 290.400 C 211.316 290.400,212.000 290.220,212.000 290.000 C 212.000 289.780,212.439 289.600,212.976 289.600 C 213.513 289.600,214.064 289.420,214.200 289.200 C 214.336 288.980,214.853 288.800,215.348 288.800 C 215.844 288.800,216.598 288.485,217.025 288.100 C 217.451 287.715,218.261 287.163,218.824 286.873 C 223.454 284.491,223.681 272.400,219.095 272.400 C 218.810 272.400,218.317 272.040,218.000 271.600 C 217.683 271.160,217.103 270.800,216.712 270.800 C 216.320 270.800,216.000 270.620,216.000 270.400 C 216.000 270.180,215.640 270.000,215.200 270.000 C 214.760 270.000,214.400 269.820,214.400 269.600 C 214.400 269.380,214.040 269.200,213.600 269.200 C 213.160 269.200,212.800 269.020,212.800 268.800 C 212.800 268.580,212.440 268.400,212.000 268.400 C 211.560 268.400,211.200 268.220,211.200 268.000 C 211.200 267.780,210.660 267.600,210.000 267.600 C 209.340 267.600,208.800 267.420,208.800 267.200 C 208.800 266.980,208.361 266.800,207.824 266.800 C 207.287 266.800,206.736 266.620,206.600 266.400 C 206.464 266.180,205.913 266.000,205.376 266.000 C 204.839 266.000,204.400 265.820,204.400 265.600 C 204.400 265.380,203.871 265.200,203.224 265.200 C 202.577 265.200,201.936 265.020,201.800 264.800 C 201.664 264.580,201.113 264.400,200.576 264.400 C 200.039 264.400,199.600 264.220,199.600 264.000 C 199.600 263.780,199.071 263.600,198.424 263.600 C 197.777 263.600,197.136 263.420,197.000 263.200 C 196.864 262.980,196.144 262.800,195.400 262.800 C 194.656 262.800,193.936 262.620,193.800 262.400 C 193.664 262.180,193.124 262.000,192.600 262.000 C 192.076 262.000,191.536 261.820,191.400 261.600 C 191.264 261.380,190.803 261.200,190.376 261.200 C 189.949 261.200,189.600 261.020,189.600 260.800 C 189.600 260.580,188.959 260.400,188.176 260.400 C 187.329 260.400,186.853 260.238,187.000 260.000 C 187.144 259.767,186.737 259.600,186.024 259.600 C 185.351 259.600,184.800 259.438,184.800 259.239 C 184.800 259.041,183.720 258.753,182.400 258.600 C 181.080 258.447,180.000 258.159,180.000 257.961 C 180.000 257.762,179.460 257.600,178.800 257.600 C 178.140 257.600,177.600 257.420,177.600 257.200 C 177.600 256.980,177.240 256.800,176.800 256.800 C 176.360 256.800,176.000 256.620,176.000 256.400 C 176.000 256.180,175.629 256.000,175.176 256.000 C 174.723 256.000,174.464 255.820,174.600 255.600 C 174.740 255.373,174.404 255.200,173.824 255.200 C 173.261 255.200,172.800 255.020,172.800 254.800 C 172.800 254.580,172.352 254.400,171.803 254.400 C 171.240 254.400,170.590 254.052,170.307 253.600 C 170.032 253.160,169.598 252.800,169.342 252.800 C 168.688 252.800,165.556 251.140,164.625 250.300 C 164.198 249.915,163.676 249.600,163.465 249.600 C 163.253 249.600,162.239 248.722,161.210 247.649 C 160.181 246.576,158.948 245.574,158.470 245.422 C 157.991 245.270,157.600 244.888,157.600 244.573 C 157.600 244.258,157.311 244.000,156.957 244.000 C 156.568 244.000,156.400 243.777,156.531 243.434 C 156.661 243.097,156.115 242.331,155.176 241.534 C 154.312 240.801,153.603 240.009,153.602 239.775 C 153.601 239.542,153.240 238.964,152.800 238.492 C 152.360 238.020,152.000 237.356,152.000 237.017 C 152.000 236.678,151.820 236.400,151.600 236.400 C 151.380 236.400,151.200 236.040,151.200 235.600 C 151.200 235.160,151.020 234.800,150.800 234.800 C 150.580 234.800,150.400 234.260,150.400 233.600 C 150.400 232.940,150.220 232.400,150.000 232.400 C 149.780 232.400,149.600 231.860,149.600 231.200 C 149.600 230.540,149.420 230.000,149.200 230.000 C 148.980 230.000,148.800 229.561,148.800 229.024 C 148.800 228.487,148.620 227.936,148.400 227.800 C 148.157 227.650,148.000 224.663,148.000 220.176 C 148.000 215.525,148.148 212.800,148.400 212.800 C 148.620 212.800,148.800 212.080,148.800 211.200 C 148.800 210.320,148.980 209.600,149.200 209.600 C 149.420 209.600,149.600 209.049,149.600 208.376 C 149.600 207.663,149.767 207.256,150.000 207.400 C 150.220 207.536,150.400 207.277,150.400 206.824 C 150.400 206.371,150.580 206.000,150.800 206.000 C 151.020 206.000,151.200 205.766,151.200 205.480 C 151.200 204.744,152.141 202.807,152.500 202.803 C 152.665 202.801,152.800 202.480,152.800 202.088 C 152.800 201.697,153.160 201.117,153.600 200.800 C 154.040 200.483,154.400 199.903,154.400 199.512 C 154.400 199.120,154.568 198.800,154.773 198.800 C 154.978 198.800,155.260 198.440,155.400 198.000 C 155.540 197.560,155.931 197.200,156.270 197.200 C 156.655 197.200,156.799 196.974,156.653 196.594 C 156.390 195.910,160.890 191.200,161.807 191.200 C 162.111 191.200,162.544 190.885,162.768 190.500 C 162.992 190.115,163.181 189.975,163.188 190.189 C 163.195 190.403,163.480 190.178,163.823 189.689 C 164.165 189.200,164.755 188.800,165.134 188.800 C 165.513 188.800,166.083 188.440,166.400 188.000 C 166.717 187.560,167.297 187.200,167.688 187.200 C 168.080 187.200,168.400 187.020,168.400 186.800 C 168.400 186.580,168.760 186.400,169.200 186.400 C 169.640 186.400,170.000 186.220,170.000 186.000 C 170.000 185.780,170.270 185.600,170.600 185.600 C 170.930 185.600,171.200 185.420,171.200 185.200 C 171.200 184.980,171.549 184.800,171.976 184.800 C 172.403 184.800,172.864 184.620,173.000 184.400 C 173.136 184.180,173.687 184.000,174.224 184.000 C 174.761 184.000,175.200 183.820,175.200 183.600 C 175.200 183.380,175.560 183.200,176.000 183.200 C 176.440 183.200,176.800 183.020,176.800 182.800 C 176.800 182.580,177.340 182.400,178.000 182.400 C 178.660 182.400,179.200 182.220,179.200 182.000 C 179.200 181.780,179.740 181.600,180.400 181.600 C 181.060 181.600,181.600 181.420,181.600 181.200 C 181.600 180.980,182.320 180.800,183.200 180.800 L 184.800 180.800 184.800 175.000 C 184.800 171.400,184.952 169.200,185.200 169.200 C 185.422 169.200,185.600 168.133,185.600 166.800 C 185.600 165.467,185.778 164.400,186.000 164.400 C 186.220 164.400,186.400 164.147,186.400 163.838 C 186.400 161.771,190.717 156.557,192.768 156.146 C 193.445 156.011,194.000 155.743,194.000 155.550 C 194.000 155.358,194.360 155.200,194.800 155.200 C 195.240 155.200,195.600 155.020,195.600 154.800 C 195.600 154.558,197.333 154.400,200.000 154.400 C 202.667 154.400,204.400 154.558,204.400 154.800 " stroke="none" fill="#4c5c8c" fill-rule="evenodd"></path><path id="path1" d="" stroke="none" fill="#505c8c" fill-rule="evenodd"></path><path id="path2" d="" stroke="none" fill="#505c8c" fill-rule="evenodd"></path><path id="path3" d="" stroke="none" fill="#505c8c" fill-rule="evenodd"></path><path id="path4" d="" stroke="none" fill="#505c8c" fill-rule="evenodd"></path></g></svg>