 <svg  version="1.0" xmlns="http://www.w3.org/2000/svg"  width="300.000000pt" height="300.000000pt" viewBox="0 0 300.000000 300.000000"  preserveAspectRatio="xMidYMid meet">  <g transform="translate(0.000000,300.000000) scale(0.100000,-0.100000)" fill="#325096" stroke="none"> <path d="M859 2971 c-51 -52 -45 -68 116 -312 l146 -219 379 0 379 0 146 219 c161 244 167 260 116 312 l-29 29 -612 0 -612 0 -29 -29z"/> <path d="M970 2152 c-223 -149 -303 -213 -460 -371 -109 -110 -164 -174 -221 -261 -133 -200 -215 -397 -261 -625 -17 -87 -22 -146 -22 -285 -1 -162 1 -180 23 -235 52 -132 125 -221 236 -290 141 -86 44 -80 1235 -80 l1055 0 65 24 c76 28 182 94 226 142 44 47 97 133 125 204 22 56 24 73 23 235 -1 138 -5 198 -23 285 -30 148 -73 279 -133 405 -46 95 -75 143 -178 295 -19 28 -97 113 -175 191 -145 146 -277 251 -488 388 l-117 76 -383 0 -382 -1 -145 -97z m606 -333 c27 -25 44 -76 44 -129 l0 -36 73 -17 c94 -22 127 -54 127 -126 0 -44 -4 -52 -37 -81 -39 -35 -60 -36 -173 -11 -153 34 -301 -12 -273 -85 8 -22 63 -46 208 -94 72 -23 151 -54 177 -67 60 -31 126 -96 149 -148 21 -45 25 -157 9 -216 -22 -80 -115 -164 -216 -196 l-54 -17 0 -63 c0 -55 -3 -67 -29 -95 -26 -29 -36 -33 -79 -33 -81 0 -122 54 -122 163 0 30 -4 42 -15 42 -19 0 -156 45 -199 65 -39 19 -60 59 -58 113 1 29 9 45 37 70 44 41 67 41 192 0 174 -58 313 -40 321 41 2 18 -2 38 -8 46 -13 16 -106 54 -220 90 -236 74 -320 158 -320 316 0 51 6 87 20 116 29 65 99 127 179 158 l68 27 6 61 c8 94 56 142 130 133 22 -2 50 -15 63 -27z"/> </g> </svg> 