 <svg  version="1.0" xmlns="http://www.w3.org/2000/svg"  width="300.000000pt" height="240.000000pt" viewBox="0 0 300.000000 240.000000"  preserveAspectRatio="xMidYMid meet">  <g transform="translate(0.000000,240.000000) scale(0.100000,-0.100000)" fill="#325096" stroke="none"> <path d="M905 2381 c-116 -29 -181 -67 -275 -161 -96 -96 -138 -168 -164 -287 -30 -135 -14 -275 48 -403 43 -90 176 -223 266 -266 172 -83 369 -83 540 -1 90 43 224 177 267 267 82 171 82 369 0 540 -43 90 -177 224 -267 267 -129 62 -280 78 -415 44z"/> <path d="M2156 1459 c-97 -14 -105 -23 -108 -130 l-3 -90 -55 -31 -55 -30 -62 36 c-89 52 -111 49 -172 -23 -89 -108 -144 -256 -111 -296 7 -9 42 -32 77 -51 l63 -36 0 -57 0 -57 -67 -38 c-79 -45 -83 -49 -83 -96 0 -76 133 -293 188 -307 25 -6 96 22 141 56 24 18 25 18 83 -16 l58 -35 0 -89 c0 -122 3 -124 200 -124 197 0 200 2 200 124 0 96 -1 93 67 131 l43 24 73 -39 c92 -48 108 -45 171 35 82 104 135 245 108 286 -4 6 -37 28 -74 50 l-68 38 0 57 0 57 63 36 c35 19 70 42 77 51 33 40 -21 182 -111 293 -61 75 -79 78 -171 26 l-63 -36 -55 30 -55 31 -3 90 c-3 108 -9 115 -117 131 -80 11 -97 11 -179 -1z m192 -498 c92 -47 143 -155 122 -255 -22 -107 -97 -177 -199 -184 -73 -5 -116 8 -168 53 -50 42 -76 102 -76 175 0 176 171 288 321 211z"/> <path d="M655 955 c-330 -69 -589 -346 -645 -687 -23 -142 -5 -214 61 -250 32 -17 82 -18 946 -18 l912 0 -15 35 c-7 19 -14 48 -14 66 0 26 -3 30 -17 24 -116 -47 -202 -21 -295 91 -55 65 -142 234 -157 304 -16 72 5 137 62 198 l31 32 -31 33 c-40 42 -61 84 -65 133 -2 28 -8 41 -23 46 -39 12 -686 7 -750 -7z"/> </g> </svg> 