<svg id="svg" version="1.1" xmlns="http://www.w3.org/2000/svg" xmlns:xlink="http://www.w3.org/1999/xlink" width="400" height="320" viewBox="0, 0, 400,320"><g id="svgg"><path id="path0" d="M127.600 0.219 C 126.412 0.290,125.440 0.487,125.440 0.655 C 125.440 0.823,124.720 0.960,123.840 0.960 C 122.960 0.960,122.240 1.104,122.240 1.280 C 122.240 1.456,121.744 1.600,121.139 1.600 C 120.533 1.600,119.949 1.744,119.840 1.920 C 119.731 2.096,119.155 2.240,118.560 2.240 C 117.965 2.240,117.389 2.384,117.280 2.560 C 117.171 2.736,116.659 2.880,116.141 2.880 C 115.624 2.880,115.200 3.024,115.200 3.200 C 115.200 3.376,114.848 3.520,114.419 3.520 C 113.989 3.520,113.549 3.664,113.440 3.840 C 113.331 4.016,112.891 4.160,112.461 4.160 C 112.032 4.160,111.680 4.304,111.680 4.480 C 111.680 4.656,111.392 4.800,111.040 4.800 C 110.688 4.800,110.400 4.944,110.400 5.120 C 110.400 5.296,109.968 5.440,109.440 5.440 C 108.912 5.440,108.480 5.584,108.480 5.760 C 108.480 5.936,108.192 6.080,107.840 6.080 C 107.488 6.080,107.200 6.222,107.200 6.396 C 107.200 6.686,104.800 7.261,104.240 7.106 C 104.108 7.070,104.000 7.184,104.000 7.360 C 104.000 7.536,103.712 7.680,103.360 7.680 C 103.008 7.680,102.720 7.824,102.720 8.000 C 102.720 8.176,102.408 8.320,102.027 8.320 C 101.645 8.320,101.428 8.415,101.544 8.531 C 101.873 8.859,101.109 9.600,100.441 9.600 C 100.110 9.600,99.839 9.708,99.838 9.840 C 99.835 10.109,98.300 10.880,97.767 10.880 C 97.577 10.880,97.214 11.168,96.960 11.520 C 96.706 11.872,96.274 12.160,96.000 12.160 C 95.726 12.160,95.294 12.448,95.040 12.800 C 94.786 13.152,94.380 13.440,94.138 13.440 C 93.895 13.440,93.293 13.872,92.800 14.400 C 92.307 14.928,91.746 15.360,91.554 15.360 C 91.363 15.360,90.793 15.792,90.288 16.320 C 89.784 16.848,89.170 17.281,88.925 17.283 C 88.680 17.285,88.168 17.681,87.787 18.163 C 86.503 19.789,85.760 20.579,85.760 20.319 C 85.760 20.177,85.400 20.479,84.960 20.990 C 84.521 21.502,84.161 22.052,84.160 22.213 C 84.160 22.375,84.076 22.423,83.974 22.321 C 83.755 22.102,77.120 28.763,77.120 29.202 C 77.120 29.368,76.712 29.885,76.214 30.352 C 75.715 30.818,75.215 31.571,75.101 32.025 C 74.988 32.479,74.532 33.016,74.088 33.218 C 73.637 33.424,73.280 33.855,73.280 34.194 C 73.280 34.528,73.064 34.981,72.800 35.200 C 72.536 35.419,72.320 35.797,72.320 36.039 C 72.320 36.282,72.199 36.480,72.050 36.480 C 71.902 36.480,71.434 37.164,71.010 38.000 C 70.587 38.836,70.132 39.568,70.000 39.627 C 69.868 39.685,69.760 39.978,69.760 40.276 C 69.760 40.575,69.472 41.026,69.120 41.280 C 68.768 41.534,68.480 41.997,68.480 42.311 C 68.480 42.624,68.336 42.880,68.160 42.880 C 67.984 42.880,67.840 43.168,67.840 43.520 C 67.840 43.872,67.696 44.160,67.520 44.160 C 67.344 44.160,67.200 44.448,67.200 44.800 C 67.200 45.152,67.056 45.440,66.880 45.440 C 66.704 45.440,66.560 45.800,66.560 46.240 C 66.560 46.680,66.416 47.040,66.240 47.040 C 66.064 47.040,65.920 47.400,65.920 47.840 C 65.920 48.280,65.812 48.641,65.680 48.642 C 65.355 48.646,64.640 50.229,64.640 50.944 C 64.640 51.261,64.496 51.520,64.320 51.520 C 64.144 51.520,64.000 51.944,64.000 52.461 C 64.000 52.979,63.856 53.491,63.680 53.600 C 63.504 53.709,63.360 54.079,63.360 54.423 C 63.360 54.767,63.234 55.299,63.079 55.604 C 62.608 56.538,62.080 58.406,62.080 59.143 C 62.080 59.526,61.936 59.840,61.760 59.840 C 61.584 59.840,61.440 60.344,61.440 60.960 C 61.440 61.576,61.332 62.080,61.200 62.080 C 61.068 62.080,61.010 62.800,61.071 63.680 C 61.153 64.863,61.069 65.280,60.751 65.279 C 60.421 65.279,60.345 65.802,60.426 67.519 C 60.495 68.979,60.412 69.760,60.186 69.760 C 59.945 69.760,59.840 72.869,59.840 80.000 C 59.840 87.131,59.945 90.240,60.186 90.240 C 60.412 90.240,60.495 91.021,60.426 92.481 C 60.345 94.198,60.421 94.721,60.751 94.721 C 61.069 94.720,61.153 95.137,61.071 96.320 C 61.010 97.200,61.068 97.920,61.200 97.920 C 61.332 97.920,61.440 98.424,61.440 99.040 C 61.440 99.656,61.584 100.160,61.760 100.160 C 61.936 100.160,62.080 100.474,62.080 100.857 C 62.080 101.594,62.608 103.462,63.079 104.396 C 63.234 104.701,63.360 105.233,63.360 105.577 C 63.360 105.921,63.504 106.291,63.680 106.400 C 63.856 106.509,64.000 107.021,64.000 107.539 C 64.000 108.056,64.144 108.480,64.320 108.480 C 64.496 108.480,64.640 108.739,64.640 109.056 C 64.640 109.771,65.355 111.354,65.680 111.358 C 65.812 111.359,65.920 111.720,65.920 112.160 C 65.920 112.600,66.064 112.960,66.240 112.960 C 66.416 112.960,66.560 113.176,66.560 113.440 C 66.560 113.704,66.704 113.920,66.880 113.920 C 67.056 113.920,67.200 114.352,67.200 114.880 C 67.200 115.408,67.344 115.840,67.520 115.840 C 67.696 115.840,67.840 116.128,67.840 116.480 C 67.840 116.832,67.984 117.120,68.160 117.120 C 68.336 117.120,68.480 117.376,68.480 117.689 C 68.480 118.003,68.768 118.466,69.120 118.720 C 69.472 118.974,69.760 119.425,69.760 119.724 C 69.760 120.022,69.868 120.315,70.000 120.373 C 70.132 120.432,70.587 121.164,71.010 122.000 C 71.434 122.836,71.902 123.520,72.050 123.520 C 72.199 123.520,72.320 123.718,72.320 123.961 C 72.320 124.203,72.536 124.581,72.800 124.800 C 73.064 125.019,73.280 125.472,73.280 125.806 C 73.280 126.145,73.637 126.576,74.088 126.782 C 74.532 126.984,74.988 127.521,75.101 127.975 C 75.215 128.429,75.715 129.182,76.214 129.648 C 76.712 130.115,77.120 130.635,77.120 130.803 C 77.120 130.972,79.064 133.071,81.440 135.467 C 83.816 137.864,85.760 139.734,85.760 139.624 C 85.760 139.415,86.589 140.320,87.787 141.837 C 88.168 142.319,88.680 142.715,88.925 142.717 C 89.170 142.719,89.784 143.152,90.288 143.680 C 90.793 144.208,91.363 144.640,91.554 144.640 C 91.746 144.640,92.307 145.072,92.800 145.600 C 93.293 146.128,93.895 146.560,94.138 146.560 C 94.380 146.560,94.786 146.848,95.040 147.200 C 95.294 147.552,95.726 147.840,96.000 147.840 C 96.274 147.840,96.706 148.128,96.960 148.480 C 97.214 148.832,97.577 149.120,97.767 149.120 C 98.300 149.120,99.835 149.891,99.838 150.160 C 99.839 150.292,100.040 150.400,100.283 150.400 C 100.527 150.400,101.139 150.615,101.643 150.878 C 102.148 151.141,102.442 151.357,102.297 151.358 C 102.153 151.359,102.250 151.576,102.514 151.840 C 102.778 152.104,103.221 152.320,103.497 152.320 C 103.774 152.320,104.000 152.464,104.000 152.640 C 104.000 152.816,104.108 152.930,104.240 152.894 C 104.800 152.739,107.200 153.314,107.200 153.604 C 107.200 153.778,107.488 153.920,107.840 153.920 C 108.192 153.920,108.480 154.064,108.480 154.240 C 108.480 154.416,108.768 154.560,109.120 154.560 C 109.472 154.560,109.760 154.704,109.760 154.880 C 109.760 155.056,110.192 155.200,110.720 155.200 C 111.248 155.200,111.680 155.344,111.680 155.520 C 111.680 155.696,112.032 155.840,112.461 155.840 C 112.891 155.840,113.331 155.984,113.440 156.160 C 113.549 156.336,113.989 156.480,114.419 156.480 C 114.848 156.480,115.200 156.624,115.200 156.800 C 115.200 156.976,115.624 157.120,116.141 157.120 C 116.659 157.120,117.171 157.264,117.280 157.440 C 117.389 157.616,117.965 157.760,118.560 157.760 C 119.155 157.760,119.731 157.904,119.840 158.080 C 119.949 158.256,120.533 158.400,121.139 158.400 C 121.744 158.400,122.240 158.544,122.240 158.720 C 122.240 158.896,122.960 159.040,123.840 159.040 C 124.720 159.040,125.440 159.184,125.440 159.360 C 125.440 159.541,126.347 159.680,127.520 159.680 C 128.693 159.680,129.600 159.819,129.600 160.000 C 129.600 160.207,133.280 160.320,140.000 160.320 C 146.720 160.320,150.400 160.207,150.400 160.000 C 150.400 159.819,151.307 159.680,152.480 159.680 C 153.653 159.680,154.560 159.541,154.560 159.360 C 154.560 159.184,155.280 159.040,156.160 159.040 C 157.040 159.040,157.760 158.896,157.760 158.720 C 157.760 158.544,158.256 158.400,158.861 158.400 C 159.467 158.400,160.051 158.256,160.160 158.080 C 160.269 157.904,160.845 157.760,161.440 157.760 C 162.035 157.760,162.611 157.616,162.720 157.440 C 162.829 157.264,163.341 157.120,163.859 157.120 C 164.376 157.120,164.800 156.976,164.800 156.800 C 164.800 156.624,165.152 156.480,165.581 156.480 C 166.011 156.480,166.451 156.336,166.560 156.160 C 166.669 155.984,167.109 155.840,167.539 155.840 C 167.968 155.840,168.320 155.696,168.320 155.520 C 168.320 155.344,168.752 155.200,169.280 155.200 C 169.808 155.200,170.240 155.056,170.240 154.880 C 170.240 154.704,170.528 154.560,170.880 154.560 C 171.232 154.560,171.520 154.416,171.520 154.240 C 171.520 154.064,171.808 153.920,172.160 153.920 C 172.512 153.920,172.800 153.792,172.800 153.635 C 172.800 153.394,173.679 153.165,175.600 152.907 C 175.820 152.878,176.000 152.733,176.000 152.587 C 176.000 152.440,176.288 152.320,176.640 152.320 C 176.992 152.320,177.280 152.176,177.280 152.000 C 177.280 151.824,177.592 151.680,177.973 151.680 C 178.355 151.680,178.572 151.585,178.456 151.469 C 178.127 151.141,178.891 150.400,179.559 150.400 C 179.890 150.400,180.160 150.256,180.160 150.080 C 180.160 149.904,180.349 149.760,180.580 149.760 C 180.810 149.760,181.308 149.472,181.686 149.120 C 182.064 148.768,182.595 148.480,182.867 148.480 C 183.138 148.480,183.360 148.336,183.360 148.160 C 183.360 147.984,183.616 147.840,183.929 147.840 C 184.243 147.840,184.706 147.552,184.960 147.200 C 185.214 146.848,185.620 146.560,185.862 146.560 C 186.105 146.560,186.707 146.128,187.200 145.600 C 187.693 145.072,188.254 144.640,188.446 144.640 C 188.637 144.640,189.207 144.208,189.712 143.680 C 190.216 143.152,190.874 142.720,191.174 142.720 C 191.473 142.720,191.629 142.576,191.520 142.400 C 191.411 142.224,191.547 142.080,191.821 142.080 C 192.096 142.080,192.322 141.972,192.325 141.840 C 192.332 141.514,194.240 139.368,194.240 139.686 C 194.240 139.826,194.600 139.521,195.040 139.010 C 195.479 138.498,195.839 137.948,195.840 137.787 C 195.840 137.625,195.924 137.577,196.026 137.679 C 196.245 137.898,202.880 131.237,202.880 130.798 C 202.880 130.632,203.288 130.115,203.786 129.648 C 204.285 129.182,204.785 128.429,204.899 127.975 C 205.012 127.521,205.468 126.984,205.912 126.782 C 206.363 126.576,206.720 126.145,206.720 125.806 C 206.720 125.472,206.936 125.019,207.200 124.800 C 207.464 124.581,207.680 124.203,207.680 123.961 C 207.680 123.718,207.801 123.520,207.950 123.520 C 208.098 123.520,208.566 122.836,208.990 122.000 C 209.413 121.164,209.868 120.432,210.000 120.373 C 210.132 120.315,210.240 120.022,210.240 119.724 C 210.240 119.425,210.528 118.974,210.880 118.720 C 211.232 118.466,211.520 118.003,211.520 117.689 C 211.520 117.376,211.664 117.120,211.840 117.120 C 212.016 117.120,212.160 116.832,212.160 116.480 C 212.160 116.128,212.304 115.840,212.480 115.840 C 212.656 115.840,212.800 115.560,212.800 115.219 C 212.800 114.877,212.944 114.509,213.120 114.400 C 213.296 114.291,213.440 113.923,213.440 113.581 C 213.440 113.240,213.584 112.960,213.760 112.960 C 213.936 112.960,214.080 112.600,214.080 112.160 C 214.080 111.720,214.188 111.359,214.320 111.358 C 214.645 111.354,215.360 109.771,215.360 109.056 C 215.360 108.739,215.504 108.480,215.680 108.480 C 215.856 108.480,216.000 108.056,216.000 107.539 C 216.000 107.021,216.144 106.509,216.320 106.400 C 216.496 106.291,216.640 105.859,216.640 105.440 C 216.640 105.021,216.784 104.589,216.960 104.480 C 217.136 104.371,217.280 103.931,217.280 103.501 C 217.280 103.072,217.395 102.720,217.535 102.720 C 217.675 102.720,217.825 102.180,217.869 101.520 C 217.912 100.860,218.086 100.272,218.254 100.213 C 218.422 100.155,218.560 99.615,218.560 99.013 C 218.560 98.412,218.668 97.920,218.800 97.920 C 218.932 97.920,218.990 97.200,218.929 96.320 C 218.847 95.137,218.931 94.720,219.249 94.721 C 219.579 94.721,219.655 94.198,219.574 92.481 C 219.505 91.021,219.588 90.240,219.814 90.240 C 220.055 90.240,220.160 87.131,220.160 80.000 C 220.160 72.869,220.055 69.760,219.814 69.760 C 219.588 69.760,219.505 68.979,219.574 67.519 C 219.655 65.802,219.579 65.279,219.249 65.279 C 218.931 65.280,218.847 64.863,218.929 63.680 C 218.990 62.800,218.932 62.080,218.800 62.080 C 218.668 62.080,218.560 61.588,218.560 60.987 C 218.560 60.385,218.422 59.845,218.254 59.787 C 218.086 59.728,217.912 59.140,217.869 58.480 C 217.825 57.820,217.675 57.280,217.535 57.280 C 217.395 57.280,217.280 56.928,217.280 56.499 C 217.280 56.069,217.136 55.629,216.960 55.520 C 216.784 55.411,216.640 54.979,216.640 54.560 C 216.640 54.141,216.496 53.709,216.320 53.600 C 216.144 53.491,216.000 52.979,216.000 52.461 C 216.000 51.944,215.856 51.520,215.680 51.520 C 215.504 51.520,215.360 51.261,215.360 50.944 C 215.360 50.229,214.645 48.646,214.320 48.642 C 214.188 48.641,214.080 48.280,214.080 47.840 C 214.080 47.400,213.936 47.040,213.760 47.040 C 213.584 47.040,213.440 46.760,213.440 46.419 C 213.440 46.077,213.296 45.709,213.120 45.600 C 212.944 45.491,212.800 45.123,212.800 44.781 C 212.800 44.440,212.656 44.160,212.480 44.160 C 212.304 44.160,212.160 43.872,212.160 43.520 C 212.160 43.168,212.016 42.880,211.840 42.880 C 211.664 42.880,211.520 42.624,211.520 42.311 C 211.520 41.997,211.232 41.534,210.880 41.280 C 210.528 41.026,210.240 40.575,210.240 40.276 C 210.240 39.978,210.132 39.685,210.000 39.627 C 209.868 39.568,209.413 38.836,208.990 38.000 C 208.566 37.164,208.098 36.480,207.950 36.480 C 207.801 36.480,207.680 36.282,207.680 36.039 C 207.680 35.797,207.464 35.419,207.200 35.200 C 206.936 34.981,206.720 34.528,206.720 34.194 C 206.720 33.855,206.363 33.424,205.912 33.218 C 205.468 33.016,205.012 32.479,204.899 32.025 C 204.785 31.571,204.285 30.818,203.786 30.352 C 203.288 29.885,202.880 29.368,202.880 29.202 C 202.880 28.763,196.245 22.102,196.026 22.321 C 195.924 22.423,195.840 22.375,195.840 22.213 C 195.839 22.052,195.479 21.502,195.040 20.990 C 194.600 20.479,194.240 20.177,194.240 20.319 C 194.240 20.579,193.497 19.789,192.213 18.163 C 191.832 17.681,191.320 17.285,191.075 17.283 C 190.830 17.281,190.216 16.848,189.712 16.320 C 189.207 15.792,188.637 15.360,188.446 15.360 C 188.254 15.360,187.693 14.928,187.200 14.400 C 186.707 13.872,186.105 13.440,185.862 13.440 C 185.620 13.440,185.214 13.152,184.960 12.800 C 184.706 12.448,184.274 12.160,184.000 12.160 C 183.726 12.160,183.294 11.872,183.040 11.520 C 182.786 11.168,182.423 10.880,182.233 10.880 C 181.700 10.880,180.165 10.109,180.162 9.840 C 180.161 9.708,179.890 9.600,179.559 9.600 C 178.891 9.600,178.127 8.859,178.456 8.531 C 178.572 8.415,178.355 8.320,177.973 8.320 C 177.592 8.320,177.280 8.176,177.280 8.000 C 177.280 7.824,176.992 7.680,176.640 7.680 C 176.288 7.680,176.000 7.560,176.000 7.413 C 176.000 7.267,175.820 7.122,175.600 7.093 C 173.679 6.835,172.800 6.606,172.800 6.365 C 172.800 6.208,172.512 6.080,172.160 6.080 C 171.808 6.080,171.520 5.936,171.520 5.760 C 171.520 5.584,171.232 5.440,170.880 5.440 C 170.528 5.440,170.240 5.296,170.240 5.120 C 170.240 4.944,169.808 4.800,169.280 4.800 C 168.752 4.800,168.320 4.656,168.320 4.480 C 168.320 4.304,167.968 4.160,167.539 4.160 C 167.109 4.160,166.669 4.016,166.560 3.840 C 166.451 3.664,166.011 3.520,165.581 3.520 C 165.152 3.520,164.800 3.376,164.800 3.200 C 164.800 3.024,164.376 2.880,163.859 2.880 C 163.341 2.880,162.829 2.736,162.720 2.560 C 162.611 2.384,162.035 2.240,161.440 2.240 C 160.845 2.240,160.269 2.096,160.160 1.920 C 160.051 1.744,159.467 1.600,158.861 1.600 C 158.256 1.600,157.760 1.456,157.760 1.280 C 157.760 1.104,157.052 0.960,156.187 0.960 C 155.235 0.960,154.562 0.806,154.483 0.570 C 154.354 0.182,132.859 -0.100,127.600 0.219 M294.080 124.480 C 294.080 124.672,292.800 124.800,290.880 124.800 C 288.960 124.800,287.680 124.928,287.680 125.120 C 287.680 125.301,286.773 125.440,285.600 125.440 C 284.427 125.440,283.520 125.579,283.520 125.760 C 283.520 125.936,282.800 126.080,281.920 126.080 C 281.040 126.080,280.320 126.210,280.320 126.368 C 280.320 126.526,279.708 126.717,278.960 126.791 C 277.372 126.949,276.703 127.117,276.477 127.414 C 276.387 127.532,276.103 127.676,275.845 127.734 C 275.223 127.874,274.560 128.505,274.560 128.956 C 274.560 129.155,274.432 129.239,274.275 129.142 C 273.958 128.946,272.960 130.848,272.960 131.648 C 272.960 131.930,272.816 132.160,272.640 132.160 C 272.433 132.160,272.320 136.163,272.320 143.528 L 272.320 154.896 271.360 155.088 C 270.832 155.194,270.400 155.406,270.400 155.560 C 270.400 155.714,269.968 155.840,269.440 155.840 C 268.912 155.840,268.480 155.984,268.480 156.160 C 268.480 156.336,268.291 156.480,268.060 156.480 C 267.830 156.480,267.354 156.732,267.004 157.040 C 266.104 157.832,265.051 158.400,264.484 158.400 C 264.218 158.400,264.000 158.544,264.000 158.720 C 264.000 158.896,263.784 159.040,263.520 159.040 C 263.256 159.040,263.040 159.161,263.040 159.310 C 263.040 159.458,262.396 159.911,261.609 160.315 C 260.822 160.720,260.255 161.175,260.348 161.326 C 260.441 161.476,260.221 161.600,259.859 161.600 C 259.496 161.600,259.200 161.744,259.200 161.920 C 259.200 162.529,257.302 162.267,256.886 161.600 C 256.666 161.248,256.333 160.960,256.147 160.960 C 255.618 160.960,254.085 160.188,254.082 159.920 C 254.081 159.788,253.824 159.680,253.511 159.680 C 253.197 159.680,252.734 159.392,252.480 159.040 C 252.226 158.688,251.763 158.400,251.449 158.400 C 251.136 158.400,250.880 158.256,250.880 158.080 C 250.880 157.904,250.592 157.760,250.240 157.760 C 249.888 157.760,249.600 157.616,249.600 157.440 C 249.600 157.264,249.378 157.120,249.107 157.120 C 248.835 157.120,248.329 156.855,247.981 156.531 C 247.634 156.207,246.956 155.740,246.475 155.493 C 245.994 155.246,245.367 154.791,245.082 154.482 C 244.798 154.173,244.270 153.920,243.909 153.920 C 243.548 153.920,243.193 153.740,243.120 153.520 C 242.817 152.610,233.656 152.993,232.831 153.951 C 232.437 154.408,231.729 154.879,231.258 154.997 C 230.786 155.115,230.400 155.437,230.400 155.712 C 230.400 155.986,229.536 157.075,228.480 158.131 C 227.424 159.187,226.560 160.206,226.560 160.396 C 226.560 160.585,225.984 161.304,225.280 161.995 C 224.576 162.685,224.000 163.454,224.000 163.705 C 224.000 163.955,223.880 164.160,223.734 164.160 C 223.588 164.160,223.265 164.556,223.016 165.040 C 222.768 165.524,222.314 166.151,222.008 166.432 C 221.702 166.714,221.545 167.038,221.659 167.152 C 221.773 167.267,221.631 167.360,221.343 167.360 C 221.011 167.360,220.887 167.534,221.003 167.837 C 221.108 168.109,220.967 168.399,220.675 168.511 C 220.394 168.619,220.248 168.844,220.351 169.011 C 220.454 169.177,220.238 169.575,219.869 169.895 C 219.501 170.214,219.200 170.710,219.200 170.998 C 219.200 171.285,219.056 171.520,218.880 171.520 C 218.704 171.520,218.560 171.776,218.560 172.089 C 218.560 172.403,218.272 172.866,217.920 173.120 C 217.568 173.374,217.280 173.837,217.280 174.151 C 217.280 174.464,217.136 174.720,216.960 174.720 C 216.784 174.720,216.640 175.008,216.640 175.360 C 216.640 175.712,216.496 176.000,216.320 176.000 C 216.144 176.000,216.000 176.288,216.000 176.640 C 216.000 176.992,215.856 177.280,215.680 177.280 C 215.504 177.280,215.360 177.568,215.360 177.920 C 215.360 178.272,215.216 178.560,215.040 178.560 C 214.864 178.560,214.720 178.848,214.720 179.200 C 214.720 179.552,214.612 179.841,214.480 179.842 C 214.155 179.846,213.440 181.429,213.440 182.144 C 213.440 182.461,213.296 182.720,213.120 182.720 C 212.944 182.720,212.800 183.008,212.800 183.360 C 212.800 183.712,212.656 184.000,212.480 184.000 C 212.304 184.000,212.160 184.432,212.160 184.960 C 212.160 185.488,212.016 185.920,211.840 185.920 C 211.664 185.920,211.520 186.208,211.520 186.560 C 211.520 186.912,211.376 187.200,211.200 187.200 C 211.024 187.200,210.880 187.624,210.880 188.141 C 210.880 188.659,210.736 189.171,210.560 189.280 C 210.384 189.389,210.240 189.821,210.240 190.240 C 210.240 190.659,210.096 191.091,209.920 191.200 C 209.425 191.506,209.516 198.166,210.029 199.154 C 210.748 200.539,214.247 204.052,215.128 204.273 C 215.583 204.387,216.180 204.706,216.455 204.981 C 216.730 205.256,217.106 205.388,217.290 205.274 C 217.475 205.160,217.914 205.433,218.267 205.881 C 218.632 206.346,219.390 206.787,220.029 206.907 C 220.645 207.022,221.078 207.189,220.990 207.277 C 220.736 207.531,221.664 208.320,222.217 208.320 C 222.494 208.320,222.720 208.464,222.720 208.640 C 222.720 208.816,222.914 208.960,223.151 208.960 C 223.762 208.960,225.460 209.845,225.926 210.407 C 226.142 210.667,226.517 210.880,226.759 210.880 C 227.002 210.880,227.200 211.024,227.200 211.200 C 227.200 211.376,227.488 211.520,227.840 211.520 C 228.192 211.520,228.480 211.664,228.480 211.840 C 228.480 212.016,228.768 212.160,229.120 212.160 C 229.742 212.160,229.760 212.373,229.760 219.543 C 229.760 227.249,229.659 227.840,228.343 227.840 C 228.066 227.840,227.840 227.984,227.840 228.160 C 227.840 228.336,227.587 228.480,227.277 228.480 C 226.967 228.480,226.534 228.768,226.314 229.120 C 226.094 229.472,225.628 229.760,225.277 229.760 C 224.927 229.760,224.640 229.877,224.640 230.020 C 224.640 230.163,224.136 230.478,223.520 230.720 C 222.904 230.962,222.400 231.277,222.400 231.420 C 222.400 231.563,222.184 231.680,221.920 231.680 C 221.656 231.680,221.440 231.824,221.440 232.000 C 221.440 232.176,221.144 232.320,220.781 232.320 C 220.419 232.320,220.211 232.464,220.320 232.640 C 220.429 232.816,220.287 232.960,220.006 232.960 C 219.523 232.960,217.657 234.106,217.254 234.651 C 217.152 234.789,216.828 234.809,216.534 234.697 C 216.240 234.584,216.000 234.633,216.000 234.807 C 216.000 234.980,215.568 235.301,215.040 235.520 C 214.512 235.739,214.080 236.044,214.080 236.199 C 214.080 236.353,213.859 236.480,213.589 236.480 C 213.047 236.480,210.880 238.511,210.880 239.020 C 210.880 239.196,210.592 239.853,210.240 240.480 C 209.534 241.736,209.283 247.766,209.920 248.160 C 210.096 248.269,210.240 248.701,210.240 249.120 C 210.240 249.539,210.384 249.971,210.560 250.080 C 210.736 250.189,210.880 250.621,210.880 251.040 C 210.880 251.459,211.024 251.891,211.200 252.000 C 211.376 252.109,211.520 252.621,211.520 253.139 C 211.520 253.656,211.664 254.080,211.840 254.080 C 212.016 254.080,212.160 254.368,212.160 254.720 C 212.160 255.072,212.304 255.360,212.480 255.360 C 212.656 255.360,212.800 255.792,212.800 256.320 C 212.800 256.848,212.944 257.280,213.120 257.280 C 213.296 257.280,213.440 257.568,213.440 257.920 C 213.440 258.272,213.584 258.560,213.760 258.560 C 213.936 258.560,214.080 258.856,214.080 259.219 C 214.080 259.581,214.224 259.789,214.400 259.680 C 214.576 259.571,214.720 259.779,214.720 260.141 C 214.720 260.504,214.864 260.800,215.040 260.800 C 215.216 260.800,215.360 261.088,215.360 261.440 C 215.360 261.792,215.504 262.080,215.680 262.080 C 215.856 262.080,216.000 262.368,216.000 262.720 C 216.000 263.072,216.144 263.360,216.320 263.360 C 216.496 263.360,216.640 263.648,216.640 264.000 C 216.640 264.352,216.784 264.640,216.960 264.640 C 217.136 264.640,217.280 264.928,217.280 265.280 C 217.280 265.632,217.424 265.920,217.600 265.920 C 217.776 265.920,217.920 266.155,217.920 266.442 C 217.920 266.730,218.172 267.199,218.480 267.486 C 219.166 268.124,219.840 269.290,219.840 269.839 C 219.840 270.063,220.140 270.433,220.507 270.662 C 220.874 270.891,221.103 271.264,221.016 271.490 C 220.929 271.716,221.133 272.099,221.469 272.341 C 221.805 272.583,222.080 273.003,222.080 273.274 C 222.080 273.544,222.368 273.946,222.720 274.166 C 223.072 274.386,223.360 274.794,223.360 275.074 C 223.360 275.354,223.792 275.987,224.320 276.480 C 224.848 276.973,225.280 277.520,225.280 277.696 C 225.280 277.872,226.000 278.750,226.880 279.649 C 227.760 280.548,228.480 281.420,228.480 281.586 C 228.480 281.905,230.866 284.326,232.690 285.859 C 233.443 286.492,234.021 286.721,234.640 286.634 C 235.124 286.566,235.520 286.649,235.520 286.817 C 235.520 287.272,242.336 286.913,242.490 286.450 C 242.558 286.246,242.930 286.080,243.316 286.080 C 243.703 286.080,244.226 285.792,244.480 285.440 C 244.734 285.088,245.132 284.800,245.364 284.800 C 245.597 284.800,246.096 284.512,246.474 284.160 C 246.852 283.808,247.406 283.520,247.706 283.520 C 248.006 283.520,248.327 283.323,248.420 283.082 C 248.589 282.642,251.669 280.960,252.306 280.960 C 252.493 280.960,252.826 280.672,253.046 280.320 C 253.266 279.968,253.732 279.680,254.083 279.680 C 254.433 279.680,254.720 279.536,254.720 279.360 C 254.720 279.184,254.976 279.040,255.289 279.040 C 255.603 279.040,256.066 278.752,256.320 278.400 C 256.574 278.048,257.037 277.760,257.351 277.760 C 257.664 277.760,257.920 277.616,257.920 277.440 C 257.920 277.264,258.143 277.120,258.415 277.120 C 258.997 277.120,260.530 278.564,260.247 278.846 C 260.141 278.953,260.365 279.040,260.747 279.040 C 261.128 279.040,261.440 279.184,261.440 279.360 C 261.440 279.536,261.664 279.680,261.939 279.680 C 262.213 279.680,262.349 279.824,262.240 280.000 C 262.131 280.176,262.339 280.320,262.701 280.320 C 263.064 280.320,263.360 280.464,263.360 280.640 C 263.360 280.816,263.578 280.960,263.844 280.960 C 264.411 280.960,265.464 281.528,266.364 282.320 C 266.714 282.628,267.190 282.880,267.420 282.880 C 267.651 282.880,267.840 283.024,267.840 283.200 C 267.840 283.376,268.120 283.520,268.461 283.520 C 268.803 283.520,269.171 283.664,269.280 283.840 C 269.389 284.016,269.829 284.160,270.259 284.160 C 270.688 284.160,271.040 284.304,271.040 284.480 C 271.040 284.656,271.328 284.800,271.680 284.800 C 272.308 284.800,272.320 285.013,272.320 296.000 C 272.320 303.253,272.433 307.200,272.640 307.200 C 272.816 307.200,272.960 307.573,272.960 308.030 C 272.960 308.905,274.012 310.521,274.358 310.176 C 274.469 310.064,274.560 310.222,274.560 310.526 C 274.560 310.829,274.704 310.989,274.880 310.880 C 275.056 310.771,275.200 310.845,275.200 311.044 C 275.200 311.595,276.043 312.319,276.697 312.330 C 277.018 312.336,277.560 312.552,277.901 312.810 C 278.247 313.072,279.204 313.280,280.061 313.280 C 280.908 313.280,281.600 313.424,281.600 313.600 C 281.600 313.778,282.453 313.920,283.520 313.920 C 284.587 313.920,285.440 314.062,285.440 314.240 C 285.440 314.420,286.340 314.560,287.501 314.560 C 288.635 314.560,289.651 314.704,289.760 314.880 C 289.885 315.082,293.650 315.200,300.000 315.200 C 306.350 315.200,310.115 315.082,310.240 314.880 C 310.349 314.704,311.365 314.560,312.499 314.560 C 313.660 314.560,314.560 314.420,314.560 314.240 C 314.560 314.062,315.413 313.920,316.480 313.920 C 317.547 313.920,318.400 313.778,318.400 313.600 C 318.400 313.424,319.092 313.280,319.939 313.280 C 320.796 313.280,321.753 313.072,322.099 312.810 C 322.440 312.552,322.982 312.336,323.303 312.330 C 323.957 312.319,324.800 311.595,324.800 311.044 C 324.800 310.845,324.944 310.771,325.120 310.880 C 325.296 310.989,325.440 310.829,325.440 310.526 C 325.440 310.222,325.531 310.064,325.642 310.176 C 325.988 310.521,327.040 308.905,327.040 308.030 C 327.040 307.573,327.184 307.200,327.360 307.200 C 327.567 307.200,327.680 303.253,327.680 296.000 C 327.680 285.013,327.692 284.800,328.320 284.800 C 328.672 284.800,328.960 284.656,328.960 284.480 C 328.960 284.304,329.248 284.160,329.600 284.160 C 329.952 284.160,330.240 284.016,330.240 283.840 C 330.240 283.664,330.528 283.520,330.880 283.520 C 331.232 283.520,331.520 283.376,331.520 283.200 C 331.520 283.024,331.808 282.880,332.160 282.880 C 332.512 282.880,332.800 282.736,332.800 282.560 C 332.800 282.384,333.088 282.240,333.440 282.240 C 333.792 282.240,334.081 282.132,334.082 282.000 C 334.085 281.731,335.620 280.960,336.153 280.960 C 336.343 280.960,336.706 280.672,336.960 280.320 C 337.214 279.968,337.643 279.680,337.914 279.680 C 338.184 279.680,338.586 279.392,338.806 279.040 C 339.026 278.688,339.388 278.400,339.612 278.400 C 339.836 278.400,340.226 278.112,340.480 277.760 C 340.734 277.408,341.132 277.120,341.364 277.120 C 341.597 277.120,342.096 277.408,342.474 277.760 C 342.852 278.112,343.350 278.400,343.580 278.400 C 343.811 278.400,344.000 278.544,344.000 278.720 C 344.000 278.896,344.288 279.040,344.640 279.040 C 344.992 279.040,345.280 279.184,345.280 279.360 C 345.280 279.536,345.567 279.680,345.917 279.680 C 346.268 279.680,346.734 279.968,346.954 280.320 C 347.174 280.672,347.507 280.960,347.694 280.960 C 348.331 280.960,351.411 282.642,351.580 283.082 C 351.673 283.323,351.994 283.520,352.294 283.520 C 352.594 283.520,353.148 283.808,353.526 284.160 C 353.904 284.512,354.403 284.800,354.636 284.800 C 354.868 284.800,355.266 285.088,355.520 285.440 C 355.774 285.792,356.297 286.080,356.684 286.080 C 357.070 286.080,357.442 286.246,357.510 286.450 C 357.664 286.913,364.480 287.272,364.480 286.817 C 364.480 286.649,364.876 286.566,365.360 286.634 C 365.979 286.721,366.557 286.492,367.310 285.859 C 369.134 284.326,371.520 281.905,371.520 281.586 C 371.520 281.420,372.240 280.548,373.120 279.649 C 374.000 278.750,374.720 277.872,374.720 277.696 C 374.720 277.520,375.152 276.973,375.680 276.480 C 376.208 275.987,376.640 275.354,376.640 275.074 C 376.640 274.794,376.928 274.386,377.280 274.166 C 377.632 273.946,377.920 273.544,377.920 273.274 C 377.920 273.003,378.195 272.583,378.531 272.341 C 378.867 272.099,379.071 271.716,378.984 271.490 C 378.897 271.264,379.126 270.891,379.493 270.662 C 379.860 270.433,380.160 270.063,380.160 269.839 C 380.160 269.290,380.834 268.124,381.520 267.486 C 381.828 267.199,382.080 266.730,382.080 266.442 C 382.080 266.155,382.224 265.920,382.400 265.920 C 382.576 265.920,382.720 265.632,382.720 265.280 C 382.720 264.928,382.864 264.640,383.040 264.640 C 383.216 264.640,383.360 264.352,383.360 264.000 C 383.360 263.648,383.504 263.360,383.680 263.360 C 383.856 263.360,384.000 263.072,384.000 262.720 C 384.000 262.368,384.144 262.080,384.320 262.080 C 384.496 262.080,384.640 261.792,384.640 261.440 C 384.640 261.088,384.784 260.800,384.960 260.800 C 385.136 260.800,385.280 260.504,385.280 260.141 C 385.280 259.779,385.424 259.571,385.600 259.680 C 385.776 259.789,385.920 259.581,385.920 259.219 C 385.920 258.856,386.064 258.560,386.240 258.560 C 386.416 258.560,386.560 258.128,386.560 257.600 C 386.560 257.072,386.704 256.640,386.880 256.640 C 387.056 256.640,387.200 256.352,387.200 256.000 C 387.200 255.648,387.344 255.360,387.520 255.360 C 387.696 255.360,387.840 255.004,387.840 254.570 C 387.840 254.135,388.128 253.267,388.480 252.640 C 388.832 252.013,389.120 251.225,389.120 250.889 C 389.120 250.553,389.264 250.189,389.440 250.080 C 389.616 249.971,389.760 249.539,389.760 249.120 C 389.760 248.701,389.904 248.269,390.080 248.160 C 391.152 247.497,390.248 240.429,388.953 239.354 C 388.693 239.138,388.480 238.757,388.480 238.506 C 388.480 237.897,387.035 236.480,386.415 236.480 C 386.143 236.480,385.920 236.353,385.920 236.199 C 385.920 236.044,385.488 235.739,384.960 235.520 C 384.432 235.301,384.000 234.980,384.000 234.807 C 384.000 234.633,383.760 234.584,383.466 234.697 C 383.172 234.809,382.848 234.789,382.746 234.651 C 382.343 234.106,380.477 232.960,379.994 232.960 C 379.713 232.960,379.571 232.816,379.680 232.640 C 379.789 232.464,379.581 232.320,379.219 232.320 C 378.856 232.320,378.560 232.176,378.560 232.000 C 378.560 231.824,378.338 231.680,378.067 231.680 C 377.795 231.680,377.264 231.392,376.886 231.040 C 376.508 230.688,376.010 230.400,375.780 230.400 C 375.549 230.400,375.360 230.256,375.360 230.080 C 375.360 229.904,375.073 229.760,374.723 229.760 C 374.372 229.760,373.906 229.472,373.686 229.120 C 373.466 228.768,373.033 228.480,372.723 228.480 C 372.413 228.480,372.160 228.336,372.160 228.160 C 372.160 227.984,371.934 227.840,371.657 227.840 C 370.341 227.840,370.240 227.249,370.240 219.543 C 370.240 212.373,370.258 212.160,370.880 212.160 C 371.232 212.160,371.520 212.016,371.520 211.840 C 371.520 211.664,371.808 211.520,372.160 211.520 C 372.512 211.520,372.800 211.376,372.800 211.200 C 372.800 211.024,372.998 210.880,373.241 210.880 C 373.483 210.880,373.858 210.667,374.074 210.407 C 374.540 209.845,376.238 208.960,376.849 208.960 C 377.086 208.960,377.280 208.816,377.280 208.640 C 377.280 208.464,377.506 208.320,377.783 208.320 C 378.379 208.320,379.255 207.522,378.971 207.238 C 378.862 207.129,379.050 207.040,379.389 207.040 C 380.069 207.040,382.920 205.606,383.608 204.918 C 383.848 204.678,384.413 204.389,384.863 204.276 C 385.969 203.998,389.740 200.036,389.751 199.139 C 389.756 198.753,389.904 198.349,390.080 198.240 C 390.257 198.131,390.400 196.696,390.400 195.040 C 390.400 193.384,390.257 191.949,390.080 191.840 C 389.904 191.731,389.760 191.299,389.760 190.880 C 389.760 190.461,389.616 190.029,389.440 189.920 C 389.264 189.811,389.120 189.379,389.120 188.960 C 389.120 188.541,388.976 188.109,388.800 188.000 C 388.624 187.891,388.480 187.379,388.480 186.861 C 388.480 186.344,388.336 185.920,388.160 185.920 C 387.984 185.920,387.840 185.488,387.840 184.960 C 387.840 184.432,387.696 184.000,387.520 184.000 C 387.344 184.000,387.200 183.712,387.200 183.360 C 387.200 183.008,387.056 182.720,386.880 182.720 C 386.704 182.720,386.560 182.432,386.560 182.080 C 386.560 181.728,386.416 181.440,386.240 181.440 C 386.064 181.440,385.920 181.080,385.920 180.640 C 385.920 180.200,385.776 179.840,385.600 179.840 C 385.424 179.840,385.280 179.552,385.280 179.200 C 385.280 178.848,385.136 178.560,384.960 178.560 C 384.784 178.560,384.640 178.272,384.640 177.920 C 384.640 177.568,384.496 177.280,384.320 177.280 C 384.144 177.280,384.000 177.024,384.000 176.711 C 384.000 176.397,383.712 175.934,383.360 175.680 C 383.008 175.426,382.720 174.963,382.720 174.649 C 382.720 174.336,382.576 174.080,382.400 174.080 C 382.224 174.080,382.080 173.792,382.080 173.440 C 382.080 173.088,381.936 172.800,381.760 172.800 C 381.584 172.800,381.440 172.547,381.440 172.237 C 381.440 171.927,381.152 171.494,380.800 171.274 C 380.448 171.054,380.160 170.588,380.160 170.237 C 380.160 169.887,380.001 169.600,379.806 169.600 C 379.611 169.600,379.526 169.406,379.617 169.170 C 379.707 168.933,379.507 168.541,379.171 168.299 C 378.835 168.057,378.560 167.634,378.560 167.360 C 378.560 167.086,378.272 166.654,377.920 166.400 C 377.568 166.146,377.280 165.776,377.280 165.577 C 377.280 165.378,376.848 164.763,376.320 164.210 C 375.792 163.658,375.360 163.096,375.360 162.961 C 375.360 162.827,374.784 162.105,374.080 161.358 C 373.376 160.610,372.800 159.854,372.800 159.677 C 372.800 159.500,371.756 158.347,370.480 157.114 C 369.204 155.881,367.764 154.478,367.281 153.996 C 366.279 152.998,357.193 152.581,356.880 153.520 C 356.807 153.740,356.543 153.920,356.293 153.920 C 356.044 153.920,355.840 154.146,355.840 154.422 C 355.840 154.778,355.654 154.864,355.200 154.720 C 354.848 154.608,354.560 154.635,354.560 154.780 C 354.560 154.925,354.155 155.223,353.660 155.442 C 353.165 155.661,352.451 156.128,352.073 156.480 C 351.696 156.832,351.165 157.120,350.893 157.120 C 350.622 157.120,350.400 157.264,350.400 157.440 C 350.400 157.616,350.112 157.760,349.760 157.760 C 349.408 157.760,349.120 157.904,349.120 158.080 C 349.120 158.256,348.864 158.400,348.551 158.400 C 348.237 158.400,347.774 158.688,347.520 159.040 C 347.266 159.392,346.803 159.680,346.489 159.680 C 346.176 159.680,345.919 159.788,345.918 159.920 C 345.915 160.188,344.382 160.960,343.853 160.960 C 343.667 160.960,343.334 161.248,343.114 161.600 C 342.627 162.380,340.673 162.479,339.954 161.760 C 339.690 161.496,339.584 161.280,339.718 161.280 C 340.245 161.280,338.684 160.340,338.141 160.330 C 337.823 160.325,337.651 160.176,337.760 160.000 C 337.869 159.824,337.693 159.680,337.370 159.680 C 337.046 159.680,336.574 159.392,336.320 159.040 C 336.066 158.688,335.688 158.400,335.480 158.400 C 334.999 158.400,332.356 157.040,332.213 156.720 C 332.155 156.588,331.901 156.480,331.649 156.480 C 331.196 156.480,329.909 155.858,329.600 155.489 C 329.512 155.384,329.044 155.202,328.560 155.083 L 327.680 154.868 327.680 143.514 C 327.680 136.158,327.567 132.160,327.360 132.160 C 327.184 132.160,327.040 131.930,327.040 131.648 C 327.040 130.848,326.042 128.946,325.725 129.142 C 325.568 129.239,325.440 129.155,325.440 128.956 C 325.440 128.505,324.777 127.874,324.155 127.734 C 323.897 127.676,323.613 127.532,323.523 127.414 C 323.297 127.117,322.628 126.949,321.040 126.791 C 320.292 126.717,319.680 126.526,319.680 126.368 C 319.680 126.210,318.960 126.080,318.080 126.080 C 317.200 126.080,316.480 125.936,316.480 125.760 C 316.480 125.579,315.573 125.440,314.400 125.440 C 313.227 125.440,312.320 125.301,312.320 125.120 C 312.320 124.928,311.040 124.800,309.120 124.800 C 307.200 124.800,305.920 124.672,305.920 124.480 C 305.920 124.278,303.733 124.160,300.000 124.160 C 296.267 124.160,294.080 124.278,294.080 124.480 M304.160 189.440 C 304.269 189.616,304.997 189.760,305.779 189.760 C 306.560 189.760,307.200 189.904,307.200 190.080 C 307.200 190.256,307.632 190.400,308.160 190.400 C 308.688 190.400,309.120 190.544,309.120 190.720 C 309.120 190.896,309.552 191.040,310.080 191.040 C 310.608 191.040,311.040 191.192,311.040 191.379 C 311.040 191.565,311.172 191.636,311.334 191.536 C 311.496 191.436,311.820 191.535,312.054 191.757 C 312.599 192.273,314.769 193.280,315.335 193.280 C 315.573 193.280,316.108 193.711,316.524 194.237 C 316.940 194.763,317.478 195.195,317.721 195.197 C 318.280 195.201,323.208 200.185,323.814 201.360 C 324.064 201.844,324.388 202.240,324.534 202.240 C 324.680 202.240,324.800 202.496,324.800 202.809 C 324.800 203.123,325.088 203.586,325.440 203.840 C 325.792 204.094,326.080 204.485,326.080 204.711 C 326.080 204.936,326.224 205.120,326.400 205.120 C 326.576 205.120,326.720 205.488,326.720 205.939 C 326.720 206.389,326.843 206.682,326.994 206.589 C 327.144 206.496,327.203 206.758,327.124 207.172 C 327.044 207.586,327.137 208.022,327.330 208.141 C 327.522 208.260,327.680 208.781,327.680 209.299 C 327.680 209.816,327.824 210.240,328.000 210.240 C 328.176 210.240,328.320 210.672,328.320 211.200 C 328.320 211.728,328.464 212.160,328.640 212.160 C 328.821 212.160,328.960 213.067,328.960 214.240 C 328.960 215.413,329.099 216.320,329.280 216.320 C 329.472 216.320,329.600 217.594,329.600 219.501 C 329.600 221.277,329.459 222.770,329.280 222.880 C 329.104 222.989,328.960 224.005,328.960 225.139 C 328.960 226.272,328.845 227.200,328.705 227.200 C 328.565 227.200,328.415 227.740,328.371 228.400 C 328.328 229.060,328.154 229.648,327.986 229.707 C 327.818 229.765,327.680 230.163,327.680 230.591 C 327.680 231.019,327.545 231.619,327.380 231.924 C 327.216 232.230,326.680 233.344,326.190 234.400 C 325.699 235.456,325.042 236.599,324.729 236.940 C 324.416 237.282,324.160 237.697,324.160 237.864 C 324.160 238.331,316.891 245.440,316.414 245.440 C 316.183 245.440,315.814 245.728,315.594 246.080 C 315.374 246.432,314.935 246.720,314.618 246.720 C 314.302 246.720,313.763 246.931,313.421 247.190 C 313.080 247.448,312.548 247.664,312.240 247.670 C 311.932 247.675,311.680 247.824,311.680 248.000 C 311.680 248.176,311.349 248.320,310.944 248.320 C 310.539 248.320,310.065 248.463,309.890 248.638 C 309.715 248.813,309.182 248.989,308.706 249.028 C 308.230 249.067,307.840 249.212,307.840 249.350 C 307.840 249.487,307.344 249.600,306.739 249.600 C 306.133 249.600,305.549 249.744,305.440 249.920 C 305.321 250.112,303.150 250.240,300.000 250.240 C 296.850 250.240,294.679 250.112,294.560 249.920 C 294.451 249.744,293.867 249.600,293.261 249.600 C 292.656 249.600,292.160 249.487,292.160 249.350 C 292.160 249.212,291.770 249.067,291.294 249.028 C 290.818 248.989,290.285 248.813,290.110 248.638 C 289.935 248.463,289.461 248.320,289.056 248.320 C 288.651 248.320,288.320 248.176,288.320 248.000 C 288.320 247.824,288.116 247.680,287.866 247.680 C 287.332 247.680,285.328 246.668,285.173 246.320 C 285.115 246.188,284.894 246.080,284.684 246.080 C 284.473 246.080,284.094 245.792,283.840 245.440 C 283.586 245.088,283.183 244.800,282.944 244.800 C 282.459 244.800,275.840 238.336,275.840 237.862 C 275.840 237.696,275.584 237.282,275.271 236.940 C 274.499 236.099,272.960 232.884,272.960 232.112 C 272.960 231.769,272.828 231.351,272.668 231.184 C 272.507 231.017,272.327 230.520,272.268 230.080 C 272.208 229.640,272.059 229.204,271.935 229.110 C 271.811 229.017,271.673 228.405,271.629 227.750 C 271.585 227.096,271.435 226.560,271.295 226.560 C 271.155 226.560,271.040 225.624,271.040 224.480 C 271.040 223.307,270.901 222.400,270.720 222.400 C 270.535 222.400,270.400 221.387,270.400 220.000 C 270.400 218.613,270.535 217.600,270.720 217.600 C 270.905 217.600,271.040 216.587,271.040 215.200 C 271.040 213.880,271.155 212.800,271.295 212.800 C 271.435 212.800,271.585 212.260,271.629 211.600 C 271.672 210.940,271.846 210.352,272.014 210.293 C 272.182 210.235,272.320 209.837,272.320 209.409 C 272.320 208.981,272.455 208.381,272.620 208.076 C 272.784 207.770,273.319 206.656,273.808 205.600 C 274.297 204.544,274.810 203.632,274.948 203.573 C 275.087 203.515,275.200 203.255,275.200 202.996 C 275.200 202.737,275.631 202.065,276.159 201.503 C 276.686 200.940,277.118 200.374,277.119 200.245 C 277.121 199.820,281.798 195.200,282.226 195.200 C 282.457 195.200,282.878 194.942,283.162 194.628 C 283.447 194.313,284.540 193.629,285.591 193.108 C 286.641 192.586,287.697 191.979,287.936 191.757 C 288.176 191.535,288.504 191.436,288.666 191.536 C 288.828 191.636,288.960 191.565,288.960 191.379 C 288.960 191.192,289.392 191.040,289.920 191.040 C 290.448 191.040,290.880 190.896,290.880 190.720 C 290.880 190.544,291.312 190.400,291.840 190.400 C 292.368 190.400,292.800 190.256,292.800 190.080 C 292.800 189.904,293.440 189.760,294.221 189.760 C 295.003 189.760,295.731 189.616,295.840 189.440 C 295.955 189.255,297.704 189.120,300.000 189.120 C 302.296 189.120,304.045 189.255,304.160 189.440 M99.200 190.080 C 99.200 190.267,98.133 190.400,96.640 190.400 C 95.147 190.400,94.080 190.533,94.080 190.720 C 94.080 190.896,93.360 191.040,92.480 191.040 C 91.600 191.040,90.880 191.184,90.880 191.360 C 90.880 191.536,90.096 191.680,89.139 191.680 C 88.181 191.680,87.309 191.824,87.200 192.000 C 87.091 192.176,86.507 192.320,85.901 192.320 C 85.296 192.320,84.800 192.447,84.800 192.602 C 84.800 192.758,83.721 192.986,82.402 193.110 C 81.083 193.233,79.923 193.466,79.823 193.627 C 79.724 193.788,79.219 193.920,78.701 193.920 C 78.046 193.920,77.760 194.078,77.760 194.440 C 77.760 194.847,77.552 194.918,76.800 194.768 C 76.258 194.660,75.840 194.712,75.840 194.888 C 75.840 195.060,75.408 195.200,74.880 195.200 C 74.352 195.200,73.920 195.344,73.920 195.520 C 73.920 195.696,73.708 195.840,73.450 195.840 C 73.191 195.840,72.467 196.128,71.840 196.480 C 71.213 196.832,70.493 197.120,70.240 197.120 C 69.987 197.120,69.267 197.408,68.640 197.760 C 68.013 198.112,67.145 198.400,66.710 198.400 C 66.276 198.400,65.920 198.544,65.920 198.720 C 65.920 198.896,65.632 199.040,65.280 199.040 C 64.928 199.040,64.640 199.184,64.640 199.360 C 64.640 199.536,64.352 199.680,64.000 199.680 C 63.648 199.680,63.359 199.788,63.359 199.920 C 63.358 200.052,62.567 200.520,61.600 200.960 C 60.633 201.400,59.842 201.868,59.841 202.000 C 59.841 202.132,59.552 202.240,59.200 202.240 C 58.848 202.240,58.560 202.384,58.560 202.560 C 58.560 202.736,58.272 202.880,57.920 202.880 C 57.568 202.880,57.280 203.024,57.280 203.200 C 57.280 203.376,57.024 203.520,56.711 203.520 C 56.397 203.520,55.934 203.808,55.680 204.160 C 55.426 204.512,54.963 204.800,54.649 204.800 C 54.336 204.800,54.080 204.944,54.080 205.120 C 54.080 205.296,53.845 205.440,53.558 205.440 C 53.270 205.440,52.802 205.705,52.518 206.029 C 52.032 206.582,50.402 207.219,49.816 207.085 C 49.671 207.051,49.644 207.172,49.755 207.352 C 49.867 207.532,49.725 207.680,49.440 207.680 C 49.155 207.680,49.011 207.824,49.120 208.000 C 49.295 208.284,48.623 208.476,47.896 208.350 C 47.751 208.325,47.710 208.430,47.805 208.584 C 48.013 208.920,46.565 210.240,45.988 210.240 C 45.764 210.240,45.374 210.528,45.120 210.880 C 44.866 211.232,44.486 211.520,44.274 211.520 C 44.062 211.520,43.325 212.096,42.635 212.800 C 41.944 213.504,41.245 214.080,41.080 214.080 C 40.915 214.080,40.025 214.800,39.102 215.680 C 38.180 216.560,37.306 217.280,37.160 217.280 C 37.014 217.280,36.478 217.706,35.967 218.226 C 35.457 218.746,34.851 219.358,34.620 219.586 C 28.771 225.356,27.200 226.982,27.200 227.265 C 27.200 227.452,26.480 228.314,25.600 229.180 C 24.720 230.047,24.000 230.931,24.000 231.145 C 24.000 231.359,23.424 232.032,22.720 232.640 C 22.016 233.248,21.440 233.911,21.440 234.114 C 21.440 234.316,21.224 234.661,20.960 234.880 C 20.696 235.099,20.480 235.513,20.480 235.800 C 20.480 236.087,20.048 236.730,19.520 237.228 C 18.992 237.727,18.560 238.306,18.560 238.516 C 18.560 238.727,18.272 239.106,17.920 239.360 C 17.568 239.614,17.280 240.077,17.280 240.391 C 17.280 240.704,17.136 240.960,16.960 240.960 C 16.784 240.960,16.640 241.216,16.640 241.529 C 16.640 241.843,16.352 242.306,16.000 242.560 C 15.648 242.814,15.360 243.277,15.360 243.591 C 15.360 243.904,15.216 244.160,15.040 244.160 C 14.864 244.160,14.720 244.416,14.720 244.729 C 14.720 245.043,14.432 245.506,14.080 245.760 C 13.728 246.014,13.440 246.405,13.440 246.631 C 13.440 246.856,13.296 247.040,13.120 247.040 C 12.944 247.040,12.800 247.408,12.800 247.859 C 12.800 248.323,12.661 248.592,12.480 248.480 C 12.304 248.371,12.160 248.478,12.160 248.717 C 12.160 249.321,11.412 250.874,11.120 250.878 C 10.988 250.879,10.880 251.168,10.880 251.520 C 10.880 251.872,10.736 252.160,10.560 252.160 C 10.384 252.160,10.240 252.448,10.240 252.800 C 10.240 253.152,10.096 253.440,9.920 253.440 C 9.744 253.440,9.600 253.728,9.600 254.080 C 9.600 254.432,9.456 254.720,9.280 254.720 C 9.104 254.720,8.992 254.828,9.031 254.960 C 9.138 255.319,8.201 257.280,7.922 257.280 C 7.789 257.280,7.680 257.704,7.680 258.221 C 7.680 258.739,7.549 259.243,7.388 259.343 C 7.227 259.442,6.999 260.099,6.880 260.802 C 6.761 261.505,6.532 262.080,6.372 262.080 C 6.211 262.080,6.080 262.512,6.080 263.040 C 6.080 263.568,5.936 264.000,5.760 264.000 C 5.584 264.000,5.440 264.432,5.440 264.960 C 5.440 265.488,5.296 265.920,5.120 265.920 C 4.944 265.920,4.800 266.352,4.800 266.880 C 4.800 267.408,4.656 267.840,4.480 267.840 C 4.304 267.840,4.160 268.272,4.160 268.800 C 4.160 269.328,4.016 269.760,3.840 269.760 C 3.664 269.760,3.520 270.336,3.520 271.040 C 3.520 271.744,3.376 272.320,3.200 272.320 C 3.024 272.320,2.880 272.824,2.880 273.440 C 2.880 274.056,2.736 274.560,2.560 274.560 C 2.384 274.560,2.240 275.136,2.240 275.840 C 2.240 276.544,2.096 277.120,1.920 277.120 C 1.744 277.120,1.600 277.832,1.600 278.701 C 1.600 279.571,1.456 280.371,1.280 280.480 C 1.104 280.589,0.960 281.449,0.960 282.392 C 0.960 283.461,0.812 284.156,0.568 284.237 C -0.007 284.429,-0.014 307.631,0.560 308.207 C 0.780 308.427,0.960 308.854,0.960 309.154 C 0.960 309.930,2.291 312.326,2.612 312.128 C 2.759 312.037,2.880 312.189,2.880 312.467 C 2.880 313.124,6.876 317.120,7.533 317.120 C 7.811 317.120,7.963 317.241,7.872 317.388 C 7.674 317.709,10.070 319.040,10.846 319.040 C 11.146 319.040,11.572 319.220,11.792 319.440 C 12.110 319.758,37.279 319.857,135.056 319.922 L 257.920 320.004 257.920 319.202 C 257.920 318.761,257.776 318.400,257.600 318.400 C 257.424 318.400,257.280 318.112,257.280 317.760 C 257.280 317.408,257.153 317.120,256.997 317.120 C 256.842 317.120,256.635 316.868,256.537 316.560 C 256.439 316.252,256.113 315.568,255.811 315.040 C 254.899 313.442,254.720 312.997,254.720 312.324 C 254.720 311.970,254.576 311.680,254.400 311.680 C 254.224 311.680,254.080 311.184,254.080 310.579 C 254.080 309.973,253.936 309.389,253.760 309.280 C 253.582 309.170,253.440 307.695,253.440 305.955 C 253.440 302.895,253.422 302.818,252.588 302.374 C 251.922 302.019,251.706 302.008,251.601 302.320 C 251.527 302.540,251.191 302.720,250.853 302.720 C 250.516 302.720,250.240 302.841,250.240 302.989 C 250.240 303.378,248.743 304.000,247.806 304.000 C 247.352 304.000,247.088 304.139,247.200 304.320 C 247.315 304.507,246.990 304.640,246.419 304.640 C 245.880 304.640,245.440 304.784,245.440 304.960 C 245.440 305.136,244.720 305.280,243.840 305.280 C 242.960 305.280,242.240 305.424,242.240 305.600 C 242.240 305.798,240.533 305.920,237.760 305.920 C 234.987 305.920,233.280 305.798,233.280 305.600 C 233.280 305.424,232.776 305.280,232.160 305.280 C 231.544 305.280,231.040 305.136,231.040 304.960 C 231.040 304.784,230.464 304.640,229.760 304.640 C 229.056 304.640,228.480 304.496,228.480 304.320 C 228.480 304.144,228.192 304.000,227.840 304.000 C 227.488 304.000,227.200 303.856,227.200 303.680 C 227.200 303.504,226.912 303.360,226.560 303.360 C 226.208 303.360,225.920 303.216,225.920 303.040 C 225.920 302.864,225.632 302.720,225.280 302.720 C 224.928 302.720,224.640 302.594,224.640 302.440 C 224.640 302.286,224.221 302.076,223.708 301.974 C 223.196 301.871,222.404 301.415,221.948 300.959 C 221.493 300.504,221.120 300.231,221.120 300.354 C 221.120 300.477,220.851 300.268,220.522 299.889 C 220.194 299.510,219.681 299.200,219.384 299.200 C 219.086 299.200,218.918 299.078,219.010 298.928 C 219.103 298.779,218.825 298.468,218.394 298.237 C 217.963 298.006,217.527 297.553,217.424 297.229 C 217.321 296.905,217.022 296.640,216.760 296.640 C 216.497 296.640,216.371 296.496,216.480 296.320 C 216.589 296.144,216.525 296.000,216.339 296.000 C 216.152 296.000,216.000 295.805,216.000 295.568 C 216.000 295.330,215.136 294.263,214.080 293.197 C 213.024 292.131,212.160 291.088,212.160 290.878 C 212.160 290.668,211.728 290.093,211.200 289.600 C 210.672 289.107,210.240 288.509,210.239 288.272 C 210.239 288.034,209.807 287.552,209.280 287.200 C 208.753 286.848,208.321 286.340,208.321 286.071 C 208.320 285.801,208.032 285.374,207.680 285.120 C 207.328 284.866,207.040 284.419,207.040 284.125 C 207.040 283.832,206.611 283.252,206.086 282.836 C 205.452 282.334,205.191 281.892,205.307 281.520 C 205.404 281.212,205.329 280.960,205.142 280.960 C 204.954 280.960,204.800 280.707,204.800 280.397 C 204.800 280.087,204.512 279.654,204.160 279.434 C 203.808 279.214,203.520 278.842,203.520 278.607 C 203.520 278.372,203.232 277.919,202.880 277.600 C 202.528 277.281,202.240 276.755,202.240 276.430 C 202.240 276.106,202.096 275.840,201.920 275.840 C 201.744 275.840,201.600 275.624,201.600 275.360 C 201.600 275.096,201.456 274.880,201.280 274.880 C 201.104 274.880,200.960 274.693,200.960 274.464 C 200.960 273.875,200.207 272.325,199.920 272.322 C 199.788 272.321,199.680 272.032,199.680 271.680 C 199.680 271.328,199.536 271.040,199.360 271.040 C 199.184 271.040,199.040 270.752,199.040 270.400 C 199.040 270.048,198.896 269.760,198.720 269.760 C 198.544 269.760,198.400 269.472,198.400 269.120 C 198.400 268.768,198.256 268.480,198.080 268.480 C 197.904 268.480,197.760 268.192,197.760 267.840 C 197.760 267.488,197.616 267.200,197.440 267.200 C 197.264 267.200,197.120 266.912,197.120 266.560 C 197.120 266.208,196.976 265.920,196.800 265.920 C 196.624 265.920,196.480 265.632,196.480 265.280 C 196.480 264.928,196.336 264.640,196.160 264.640 C 195.984 264.640,195.840 264.208,195.840 263.680 C 195.840 263.152,195.696 262.720,195.520 262.720 C 195.344 262.720,195.200 262.432,195.200 262.080 C 195.200 261.728,195.056 261.440,194.880 261.440 C 194.704 261.440,194.560 261.080,194.560 260.640 C 194.560 260.200,194.416 259.840,194.240 259.840 C 194.064 259.840,193.920 259.552,193.920 259.200 C 193.920 258.848,193.790 258.560,193.631 258.560 C 193.473 258.560,193.243 257.696,193.120 256.640 C 192.997 255.584,192.767 254.720,192.609 254.720 C 192.450 254.720,192.320 254.368,192.320 253.939 C 192.320 253.509,192.176 253.069,192.000 252.960 C 191.824 252.851,191.680 252.275,191.680 251.680 C 191.680 251.085,191.536 250.509,191.360 250.400 C 191.184 250.291,191.040 249.275,191.040 248.141 C 191.040 246.980,190.900 246.080,190.720 246.080 C 190.544 246.080,190.400 245.432,190.400 244.640 C 190.400 243.848,190.544 243.200,190.720 243.200 C 190.901 243.200,191.040 242.293,191.040 241.120 C 191.040 239.947,191.179 239.040,191.360 239.040 C 191.536 239.040,191.680 238.464,191.680 237.760 C 191.680 237.056,191.824 236.480,192.000 236.480 C 192.176 236.480,192.320 236.200,192.320 235.859 C 192.320 235.517,192.464 235.149,192.640 235.040 C 192.816 234.931,192.960 234.548,192.960 234.189 C 192.960 233.375,193.872 231.404,194.630 230.580 C 194.943 230.238,195.200 229.802,195.200 229.610 C 195.200 229.418,195.488 229.054,195.840 228.800 C 196.192 228.546,196.480 228.158,196.480 227.937 C 196.480 227.407,201.522 222.356,202.605 221.802 C 204.240 220.965,204.485 218.560,202.936 218.560 C 202.392 218.560,196.480 212.616,196.480 212.068 C 196.480 211.844,196.192 211.454,195.840 211.200 C 195.488 210.946,195.200 210.582,195.200 210.390 C 195.200 210.198,194.943 209.762,194.630 209.420 C 193.872 208.596,192.960 206.625,192.960 205.811 C 192.960 205.452,192.816 205.069,192.640 204.960 C 192.464 204.851,192.320 204.483,192.320 204.141 C 192.320 203.800,192.176 203.520,192.000 203.520 C 191.824 203.520,191.680 202.944,191.680 202.240 C 191.680 201.536,191.536 200.960,191.360 200.960 C 191.179 200.960,191.040 200.053,191.040 198.880 C 191.040 197.707,190.901 196.800,190.720 196.800 C 190.544 196.800,190.400 196.152,190.400 195.360 C 190.400 194.568,190.544 193.920,190.720 193.920 C 190.896 193.920,191.040 193.416,191.040 192.800 C 191.040 191.893,190.918 191.680,190.400 191.680 C 190.048 191.680,189.760 191.536,189.760 191.360 C 189.760 191.182,188.907 191.040,187.840 191.040 C 186.773 191.040,185.920 190.898,185.920 190.720 C 185.920 190.533,184.853 190.400,183.360 190.400 C 181.867 190.400,180.800 190.267,180.800 190.080 C 180.800 189.868,166.987 189.760,140.000 189.760 C 113.013 189.760,99.200 189.868,99.200 190.080 " stroke="none" fill="#4c5c8c" fill-rule="evenodd"></path><path id="path1" d="M60.892 63.840 C 60.894 64.720,60.956 65.042,61.030 64.556 C 61.103 64.069,61.101 63.349,61.025 62.956 C 60.949 62.562,60.889 62.960,60.892 63.840 M218.972 63.840 C 218.974 64.720,219.036 65.042,219.110 64.556 C 219.183 64.069,219.181 63.349,219.105 62.956 C 219.029 62.562,218.969 62.960,218.972 63.840 M60.265 67.680 C 60.266 68.912,60.324 69.377,60.394 68.713 C 60.463 68.049,60.462 67.041,60.391 66.473 C 60.320 65.905,60.264 66.448,60.265 67.680 M219.625 67.680 C 219.626 68.912,219.684 69.377,219.754 68.713 C 219.823 68.049,219.822 67.041,219.751 66.473 C 219.680 65.905,219.624 66.448,219.625 67.680 M60.265 92.320 C 60.266 93.552,60.324 94.017,60.394 93.353 C 60.463 92.689,60.462 91.681,60.391 91.113 C 60.320 90.545,60.264 91.088,60.265 92.320 M219.625 92.320 C 219.626 93.552,219.684 94.017,219.754 93.353 C 219.823 92.689,219.822 91.681,219.751 91.113 C 219.680 90.545,219.624 91.088,219.625 92.320 M60.892 96.160 C 60.894 97.040,60.956 97.362,61.030 96.876 C 61.103 96.389,61.101 95.669,61.025 95.276 C 60.949 94.882,60.889 95.280,60.892 96.160 M218.972 96.160 C 218.974 97.040,219.036 97.362,219.110 96.876 C 219.183 96.389,219.181 95.669,219.105 95.276 C 219.029 94.882,218.969 95.280,218.972 96.160 " stroke="none" fill="#505c8c" fill-rule="evenodd"></path><path id="path2" d="M60.892 63.840 C 60.894 64.720,60.956 65.042,61.030 64.556 C 61.103 64.069,61.101 63.349,61.025 62.956 C 60.949 62.562,60.889 62.960,60.892 63.840 M218.972 63.840 C 218.974 64.720,219.036 65.042,219.110 64.556 C 219.183 64.069,219.181 63.349,219.105 62.956 C 219.029 62.562,218.969 62.960,218.972 63.840 M60.265 67.680 C 60.266 68.912,60.324 69.377,60.394 68.713 C 60.463 68.049,60.462 67.041,60.391 66.473 C 60.320 65.905,60.264 66.448,60.265 67.680 M219.625 67.680 C 219.626 68.912,219.684 69.377,219.754 68.713 C 219.823 68.049,219.822 67.041,219.751 66.473 C 219.680 65.905,219.624 66.448,219.625 67.680 M60.265 92.320 C 60.266 93.552,60.324 94.017,60.394 93.353 C 60.463 92.689,60.462 91.681,60.391 91.113 C 60.320 90.545,60.264 91.088,60.265 92.320 M219.625 92.320 C 219.626 93.552,219.684 94.017,219.754 93.353 C 219.823 92.689,219.822 91.681,219.751 91.113 C 219.680 90.545,219.624 91.088,219.625 92.320 M60.892 96.160 C 60.894 97.040,60.956 97.362,61.030 96.876 C 61.103 96.389,61.101 95.669,61.025 95.276 C 60.949 94.882,60.889 95.280,60.892 96.160 M218.972 96.160 C 218.974 97.040,219.036 97.362,219.110 96.876 C 219.183 96.389,219.181 95.669,219.105 95.276 C 219.029 94.882,218.969 95.280,218.972 96.160 " stroke="none" fill="#505c8c" fill-rule="evenodd"></path><path id="path3" d="M60.892 63.840 C 60.894 64.720,60.956 65.042,61.030 64.556 C 61.103 64.069,61.101 63.349,61.025 62.956 C 60.949 62.562,60.889 62.960,60.892 63.840 M218.972 63.840 C 218.974 64.720,219.036 65.042,219.110 64.556 C 219.183 64.069,219.181 63.349,219.105 62.956 C 219.029 62.562,218.969 62.960,218.972 63.840 M60.265 67.680 C 60.266 68.912,60.324 69.377,60.394 68.713 C 60.463 68.049,60.462 67.041,60.391 66.473 C 60.320 65.905,60.264 66.448,60.265 67.680 M219.625 67.680 C 219.626 68.912,219.684 69.377,219.754 68.713 C 219.823 68.049,219.822 67.041,219.751 66.473 C 219.680 65.905,219.624 66.448,219.625 67.680 M60.265 92.320 C 60.266 93.552,60.324 94.017,60.394 93.353 C 60.463 92.689,60.462 91.681,60.391 91.113 C 60.320 90.545,60.264 91.088,60.265 92.320 M219.625 92.320 C 219.626 93.552,219.684 94.017,219.754 93.353 C 219.823 92.689,219.822 91.681,219.751 91.113 C 219.680 90.545,219.624 91.088,219.625 92.320 M60.892 96.160 C 60.894 97.040,60.956 97.362,61.030 96.876 C 61.103 96.389,61.101 95.669,61.025 95.276 C 60.949 94.882,60.889 95.280,60.892 96.160 M218.972 96.160 C 218.974 97.040,219.036 97.362,219.110 96.876 C 219.183 96.389,219.181 95.669,219.105 95.276 C 219.029 94.882,218.969 95.280,218.972 96.160 " stroke="none" fill="#505c8c" fill-rule="evenodd"></path><path id="path4" d="M60.892 63.840 C 60.894 64.720,60.956 65.042,61.030 64.556 C 61.103 64.069,61.101 63.349,61.025 62.956 C 60.949 62.562,60.889 62.960,60.892 63.840 M218.972 63.840 C 218.974 64.720,219.036 65.042,219.110 64.556 C 219.183 64.069,219.181 63.349,219.105 62.956 C 219.029 62.562,218.969 62.960,218.972 63.840 M60.265 67.680 C 60.266 68.912,60.324 69.377,60.394 68.713 C 60.463 68.049,60.462 67.041,60.391 66.473 C 60.320 65.905,60.264 66.448,60.265 67.680 M219.625 67.680 C 219.626 68.912,219.684 69.377,219.754 68.713 C 219.823 68.049,219.822 67.041,219.751 66.473 C 219.680 65.905,219.624 66.448,219.625 67.680 M60.265 92.320 C 60.266 93.552,60.324 94.017,60.394 93.353 C 60.463 92.689,60.462 91.681,60.391 91.113 C 60.320 90.545,60.264 91.088,60.265 92.320 M219.625 92.320 C 219.626 93.552,219.684 94.017,219.754 93.353 C 219.823 92.689,219.822 91.681,219.751 91.113 C 219.680 90.545,219.624 91.088,219.625 92.320 M60.892 96.160 C 60.894 97.040,60.956 97.362,61.030 96.876 C 61.103 96.389,61.101 95.669,61.025 95.276 C 60.949 94.882,60.889 95.280,60.892 96.160 M218.972 96.160 C 218.974 97.040,219.036 97.362,219.110 96.876 C 219.183 96.389,219.181 95.669,219.105 95.276 C 219.029 94.882,218.969 95.280,218.972 96.160 " stroke="none" fill="#505c8c" fill-rule="evenodd"></path></g></svg>