<svg id="svg" version="1.1" xmlns="http://www.w3.org/2000/svg" xmlns:xlink="http://www.w3.org/1999/xlink" width="400" height="320" viewBox="0, 0, 400,320"><g id="svgg"><path id="path0" d="M68.800 0.233 C 68.184 0.306,67.543 0.499,67.376 0.663 C 67.209 0.826,66.669 0.960,66.176 0.960 C 65.683 0.960,65.280 1.104,65.280 1.280 C 65.280 1.456,64.848 1.600,64.320 1.600 C 63.792 1.600,63.360 1.744,63.360 1.920 C 63.360 2.096,63.072 2.240,62.720 2.240 C 62.368 2.240,62.080 2.349,62.080 2.482 C 62.080 2.615,61.612 2.928,61.040 3.178 C 60.468 3.427,59.767 3.894,59.482 4.216 C 59.198 4.537,58.797 4.800,58.592 4.800 C 58.387 4.800,57.715 5.304,57.099 5.920 C 56.483 6.536,55.695 7.040,55.349 7.040 C 55.003 7.040,54.720 7.194,54.720 7.383 C 54.720 7.856,53.881 8.654,53.638 8.411 C 53.529 8.302,53.440 8.465,53.440 8.772 C 53.440 9.079,52.864 9.884,52.160 10.560 C 51.456 11.236,50.880 11.985,50.880 12.224 C 50.880 12.463,50.592 12.866,50.240 13.120 C 49.888 13.374,49.600 13.837,49.600 14.151 C 49.600 14.464,49.448 14.720,49.261 14.720 C 49.075 14.720,49.002 14.849,49.099 15.006 C 49.197 15.164,49.061 15.376,48.798 15.476 C 48.535 15.577,48.320 15.880,48.320 16.150 C 48.320 16.419,48.186 16.640,48.023 16.640 C 47.860 16.640,47.472 17.216,47.162 17.920 C 46.851 18.624,46.481 19.200,46.338 19.200 C 46.196 19.200,46.080 19.512,46.080 19.893 C 46.080 20.275,45.991 20.498,45.882 20.389 C 45.566 20.073,44.800 21.012,44.800 21.716 C 44.800 22.076,44.520 22.446,44.160 22.560 C 43.808 22.672,43.520 23.041,43.520 23.382 C 43.520 23.722,43.400 24.000,43.254 24.000 C 43.108 24.000,42.784 24.396,42.534 24.880 C 42.284 25.364,41.828 26.039,41.520 26.380 C 41.212 26.722,40.960 27.190,40.960 27.420 C 40.960 27.651,40.840 27.840,40.694 27.840 C 40.548 27.840,40.224 28.236,39.974 28.720 C 39.724 29.204,39.268 29.879,38.960 30.220 C 38.652 30.562,38.400 31.021,38.400 31.242 C 38.400 31.463,38.133 31.832,37.806 32.062 C 37.479 32.292,37.109 32.804,36.984 33.200 C 36.859 33.596,36.551 33.920,36.298 33.920 C 36.046 33.920,35.840 34.155,35.840 34.442 C 35.840 34.730,35.563 35.205,35.225 35.498 C 34.887 35.792,34.635 36.313,34.665 36.656 C 34.695 36.999,34.549 37.247,34.340 37.207 C 34.131 37.166,33.708 37.706,33.399 38.407 C 33.090 39.107,32.721 39.680,32.578 39.680 C 32.436 39.680,32.320 39.936,32.320 40.249 C 32.320 40.563,32.032 41.026,31.680 41.280 C 31.328 41.534,31.040 41.966,31.040 42.240 C 31.040 42.514,30.752 42.946,30.400 43.200 C 30.048 43.454,29.760 43.886,29.760 44.160 C 29.760 44.434,29.472 44.866,29.120 45.120 C 28.768 45.374,28.480 45.828,28.480 46.129 C 28.480 46.430,28.192 46.768,27.840 46.880 C 27.426 47.012,27.200 47.364,27.200 47.880 C 27.200 48.319,27.078 48.602,26.928 48.510 C 26.779 48.417,26.456 48.733,26.210 49.211 C 25.965 49.689,25.511 50.313,25.202 50.598 C 24.893 50.882,24.640 51.318,24.640 51.567 C 24.640 51.815,24.352 52.226,24.000 52.480 C 23.648 52.734,23.360 53.166,23.360 53.440 C 23.360 53.714,23.072 54.146,22.720 54.400 C 22.368 54.654,22.080 55.119,22.080 55.434 C 22.080 55.749,21.805 56.242,21.468 56.530 C 21.132 56.818,20.931 57.249,21.022 57.487 C 21.121 57.744,20.972 57.920,20.655 57.920 C 20.362 57.920,20.211 58.064,20.320 58.240 C 20.429 58.416,20.365 58.560,20.179 58.560 C 19.992 58.560,19.840 58.786,19.840 59.063 C 19.840 59.659,19.042 60.535,18.758 60.251 C 18.649 60.142,18.560 60.338,18.560 60.686 C 18.560 61.034,18.272 61.628,17.920 62.006 C 17.568 62.384,17.280 62.842,17.280 63.024 C 17.280 63.206,16.992 63.534,16.640 63.754 C 16.288 63.974,16.000 64.376,16.000 64.646 C 16.000 64.917,15.712 65.346,15.360 65.600 C 15.008 65.854,14.720 66.295,14.720 66.581 C 14.720 66.867,14.432 67.361,14.080 67.680 C 13.728 67.999,13.440 68.453,13.440 68.690 C 13.440 68.926,13.312 69.120,13.156 69.120 C 13.001 69.120,12.630 69.633,12.332 70.259 C 12.035 70.886,11.587 71.477,11.336 71.574 C 11.085 71.670,10.880 71.986,10.880 72.277 C 10.880 72.568,10.592 72.986,10.240 73.206 C 9.888 73.426,9.600 73.820,9.600 74.083 C 9.600 74.345,9.448 74.560,9.261 74.560 C 9.075 74.560,9.011 74.704,9.120 74.880 C 9.229 75.056,9.093 75.200,8.819 75.200 C 8.533 75.200,8.320 75.474,8.320 75.840 C 8.320 76.192,8.176 76.480,8.000 76.480 C 7.824 76.480,7.680 76.704,7.680 76.979 C 7.680 77.253,7.532 77.387,7.352 77.275 C 7.172 77.164,7.056 77.191,7.095 77.336 C 7.218 77.789,6.692 79.040,6.378 79.040 C 6.214 79.040,6.080 79.296,6.080 79.609 C 6.080 79.923,5.792 80.386,5.440 80.640 C 5.088 80.894,4.800 81.326,4.800 81.600 C 4.800 81.874,4.512 82.306,4.160 82.560 C 3.808 82.814,3.520 83.246,3.520 83.520 C 3.520 83.794,3.232 84.226,2.880 84.480 C 2.528 84.734,2.240 85.197,2.240 85.511 C 2.240 85.824,2.096 86.080,1.920 86.080 C 1.744 86.080,1.600 86.296,1.600 86.560 C 1.600 86.824,1.456 87.040,1.280 87.040 C 1.104 87.040,0.960 87.443,0.960 87.936 C 0.960 88.429,0.780 89.012,0.560 89.232 C 0.263 89.529,0.160 91.539,0.160 97.030 C 0.160 102.663,0.255 104.459,0.560 104.560 C 0.780 104.633,0.960 105.033,0.960 105.448 C 0.960 105.863,1.104 106.291,1.280 106.400 C 1.456 106.509,1.600 106.877,1.600 107.219 C 1.600 107.560,1.744 107.840,1.920 107.840 C 2.096 107.840,2.240 108.128,2.240 108.480 C 2.240 108.832,2.384 109.120,2.560 109.120 C 2.736 109.120,2.880 109.329,2.880 109.585 C 2.880 110.129,4.357 111.697,4.621 111.433 C 4.719 111.334,4.800 111.512,4.800 111.829 C 4.800 112.576,7.424 115.200,8.171 115.200 C 8.488 115.200,8.666 115.281,8.567 115.379 C 8.303 115.643,9.871 117.120,10.415 117.120 C 10.671 117.120,10.880 117.264,10.880 117.440 C 10.880 117.616,11.168 117.760,11.520 117.760 C 11.872 117.760,12.160 117.904,12.160 118.080 C 12.160 118.256,12.440 118.400,12.781 118.400 C 13.123 118.400,13.491 118.544,13.600 118.720 C 13.709 118.896,14.149 119.040,14.579 119.040 C 15.008 119.040,15.360 119.184,15.360 119.360 C 15.360 119.536,15.792 119.680,16.320 119.680 C 16.848 119.680,17.280 119.824,17.280 120.000 C 17.280 120.213,78.400 120.320,200.000 120.320 C 321.600 120.320,382.720 120.213,382.720 120.000 C 382.720 119.824,383.152 119.680,383.680 119.680 C 384.208 119.680,384.640 119.536,384.640 119.360 C 384.640 119.184,384.992 119.040,385.421 119.040 C 385.851 119.040,386.291 118.896,386.400 118.720 C 386.509 118.544,386.877 118.400,387.219 118.400 C 387.560 118.400,387.840 118.256,387.840 118.080 C 387.840 117.904,388.128 117.760,388.480 117.760 C 388.832 117.760,389.120 117.616,389.120 117.440 C 389.120 117.264,389.329 117.120,389.585 117.120 C 390.129 117.120,391.697 115.643,391.433 115.379 C 391.334 115.281,391.512 115.200,391.829 115.200 C 392.576 115.200,395.200 112.576,395.200 111.829 C 395.200 111.512,395.281 111.334,395.379 111.433 C 395.643 111.697,397.120 110.129,397.120 109.585 C 397.120 109.329,397.264 109.120,397.440 109.120 C 397.616 109.120,397.760 108.832,397.760 108.480 C 397.760 108.128,397.904 107.840,398.080 107.840 C 398.256 107.840,398.400 107.560,398.400 107.219 C 398.400 106.877,398.544 106.509,398.720 106.400 C 398.896 106.291,399.040 105.863,399.040 105.448 C 399.040 105.033,399.220 104.633,399.440 104.560 C 400.573 104.182,399.793 88.000,398.642 88.000 C 398.509 88.000,398.400 87.568,398.400 87.040 C 398.400 86.512,398.256 86.080,398.080 86.080 C 397.904 86.080,397.760 85.824,397.760 85.511 C 397.760 85.197,397.472 84.734,397.120 84.480 C 396.768 84.226,396.480 83.794,396.480 83.520 C 396.480 83.246,396.192 82.814,395.840 82.560 C 395.488 82.306,395.200 81.874,395.200 81.600 C 395.200 81.326,394.912 80.894,394.560 80.640 C 394.208 80.386,393.920 79.923,393.920 79.609 C 393.920 79.296,393.786 79.040,393.622 79.040 C 393.308 79.040,392.782 77.789,392.905 77.336 C 392.944 77.191,392.828 77.164,392.648 77.275 C 392.468 77.387,392.320 77.253,392.320 76.979 C 392.320 76.704,392.176 76.480,392.000 76.480 C 391.824 76.480,391.680 76.192,391.680 75.840 C 391.680 75.474,391.467 75.200,391.181 75.200 C 390.907 75.200,390.771 75.056,390.880 74.880 C 390.989 74.704,390.925 74.560,390.739 74.560 C 390.552 74.560,390.400 74.345,390.400 74.083 C 390.400 73.820,390.112 73.426,389.760 73.206 C 389.408 72.986,389.120 72.568,389.120 72.277 C 389.120 71.986,388.915 71.670,388.664 71.574 C 388.413 71.477,387.965 70.886,387.668 70.259 C 387.370 69.633,386.999 69.120,386.844 69.120 C 386.688 69.120,386.560 68.926,386.560 68.690 C 386.560 68.453,386.272 67.999,385.920 67.680 C 385.568 67.361,385.280 66.867,385.280 66.581 C 385.280 66.295,384.992 65.854,384.640 65.600 C 384.288 65.346,384.000 64.917,384.000 64.646 C 384.000 64.376,383.712 63.974,383.360 63.754 C 383.008 63.534,382.720 63.206,382.720 63.024 C 382.720 62.842,382.432 62.384,382.080 62.006 C 381.728 61.628,381.440 61.034,381.440 60.686 C 381.440 60.338,381.351 60.142,381.242 60.251 C 380.958 60.535,380.160 59.659,380.160 59.063 C 380.160 58.786,380.008 58.560,379.821 58.560 C 379.635 58.560,379.571 58.416,379.680 58.240 C 379.789 58.064,379.638 57.920,379.345 57.920 C 379.006 57.920,378.878 57.748,378.992 57.448 C 379.092 57.189,378.984 56.865,378.753 56.728 C 378.522 56.592,378.079 55.940,377.770 55.280 C 377.460 54.620,377.079 54.080,376.924 54.080 C 376.768 54.080,376.640 53.824,376.640 53.511 C 376.640 53.197,376.352 52.734,376.000 52.480 C 375.648 52.226,375.360 51.815,375.360 51.567 C 375.360 51.318,375.107 50.882,374.798 50.598 C 374.489 50.313,374.035 49.689,373.790 49.211 C 373.544 48.733,373.221 48.417,373.072 48.510 C 372.922 48.602,372.800 48.319,372.800 47.880 C 372.800 47.364,372.574 47.012,372.160 46.880 C 371.808 46.768,371.520 46.430,371.520 46.129 C 371.520 45.828,371.232 45.374,370.880 45.120 C 370.528 44.866,370.240 44.434,370.240 44.160 C 370.240 43.886,369.952 43.454,369.600 43.200 C 369.248 42.946,368.960 42.514,368.960 42.240 C 368.960 41.966,368.672 41.534,368.320 41.280 C 367.968 41.026,367.680 40.563,367.680 40.249 C 367.680 39.936,367.564 39.680,367.422 39.680 C 367.279 39.680,366.910 39.107,366.601 38.407 C 366.292 37.706,365.869 37.166,365.660 37.207 C 365.451 37.247,365.305 36.999,365.335 36.656 C 365.365 36.313,365.113 35.792,364.775 35.498 C 364.437 35.205,364.160 34.730,364.160 34.442 C 364.160 34.155,363.954 33.920,363.702 33.920 C 363.449 33.920,363.141 33.596,363.016 33.200 C 362.891 32.804,362.521 32.292,362.194 32.062 C 361.867 31.832,361.600 31.463,361.600 31.242 C 361.600 31.021,361.348 30.562,361.040 30.220 C 360.732 29.879,360.276 29.204,360.026 28.720 C 359.776 28.236,359.452 27.840,359.306 27.840 C 359.160 27.840,359.040 27.651,359.040 27.420 C 359.040 27.190,358.788 26.722,358.480 26.380 C 358.172 26.039,357.716 25.364,357.466 24.880 C 357.216 24.396,356.892 24.000,356.746 24.000 C 356.600 24.000,356.480 23.722,356.480 23.382 C 356.480 23.041,356.192 22.672,355.840 22.560 C 355.480 22.446,355.200 22.076,355.200 21.716 C 355.200 21.012,354.434 20.073,354.118 20.389 C 354.009 20.498,353.920 20.275,353.920 19.893 C 353.920 19.512,353.804 19.200,353.662 19.200 C 353.519 19.200,353.149 18.624,352.838 17.920 C 352.528 17.216,352.140 16.640,351.977 16.640 C 351.814 16.640,351.680 16.419,351.680 16.150 C 351.680 15.880,351.465 15.577,351.202 15.476 C 350.939 15.376,350.803 15.164,350.901 15.006 C 350.998 14.849,350.925 14.720,350.739 14.720 C 350.552 14.720,350.400 14.464,350.400 14.151 C 350.400 13.837,350.112 13.374,349.760 13.120 C 349.408 12.866,349.120 12.463,349.120 12.224 C 349.120 11.985,348.544 11.236,347.840 10.560 C 347.136 9.884,346.560 9.079,346.560 8.772 C 346.560 8.465,346.471 8.302,346.362 8.411 C 346.119 8.654,345.280 7.856,345.280 7.383 C 345.280 7.194,344.997 7.040,344.651 7.040 C 344.305 7.040,343.517 6.536,342.901 5.920 C 342.285 5.304,341.613 4.800,341.408 4.800 C 341.203 4.800,340.802 4.537,340.518 4.216 C 340.233 3.894,339.532 3.427,338.960 3.178 C 338.388 2.928,337.920 2.615,337.920 2.482 C 337.920 2.349,337.632 2.240,337.280 2.240 C 336.928 2.240,336.640 2.096,336.640 1.920 C 336.640 1.744,336.208 1.600,335.680 1.600 C 335.152 1.600,334.720 1.456,334.720 1.280 C 334.720 1.104,334.317 0.960,333.824 0.960 C 333.331 0.960,332.748 0.780,332.528 0.560 C 332.146 0.178,71.985 -0.145,68.800 0.233 M39.680 218.240 C 39.680 270.293,39.788 296.640,40.000 296.640 C 40.176 296.640,40.320 297.136,40.320 297.741 C 40.320 298.347,40.464 298.931,40.640 299.040 C 40.816 299.149,40.960 299.589,40.960 300.019 C 40.960 300.448,41.104 300.800,41.280 300.800 C 41.456 300.800,41.600 301.232,41.600 301.760 C 41.600 302.288,41.744 302.720,41.920 302.720 C 42.096 302.720,42.240 303.008,42.240 303.360 C 42.240 303.712,42.384 304.000,42.560 304.000 C 42.736 304.000,42.880 304.256,42.880 304.569 C 42.880 304.883,43.168 305.346,43.520 305.600 C 43.872 305.854,44.160 306.286,44.160 306.560 C 44.160 306.834,44.448 307.266,44.800 307.520 C 45.152 307.774,45.440 308.151,45.440 308.359 C 45.440 308.566,45.980 309.278,46.640 309.941 C 47.300 310.604,47.804 311.267,47.760 311.413 C 47.716 311.560,47.860 311.644,48.080 311.600 C 48.300 311.556,48.444 311.700,48.400 311.920 C 48.356 312.140,48.440 312.284,48.587 312.240 C 48.733 312.196,49.396 312.700,50.059 313.360 C 50.722 314.020,51.434 314.560,51.641 314.560 C 51.849 314.560,52.226 314.848,52.480 315.200 C 52.734 315.552,53.166 315.840,53.440 315.840 C 53.714 315.840,54.146 316.128,54.400 316.480 C 54.654 316.832,55.117 317.120,55.431 317.120 C 55.744 317.120,56.000 317.264,56.000 317.440 C 56.000 317.616,56.288 317.760,56.640 317.760 C 56.992 317.760,57.280 317.904,57.280 318.080 C 57.280 318.256,57.712 318.400,58.240 318.400 C 58.768 318.400,59.200 318.544,59.200 318.720 C 59.200 318.896,59.531 319.040,59.936 319.040 C 60.341 319.040,60.852 319.220,61.072 319.440 C 61.660 320.028,218.340 320.028,218.928 319.440 C 219.148 319.220,219.659 319.040,220.064 319.040 C 220.469 319.040,220.800 318.896,220.800 318.720 C 220.800 318.544,221.232 318.400,221.760 318.400 C 222.288 318.400,222.720 318.256,222.720 318.080 C 222.720 317.904,223.008 317.760,223.360 317.760 C 223.712 317.760,224.000 317.616,224.000 317.440 C 224.000 317.264,224.256 317.120,224.569 317.120 C 224.883 317.120,225.346 316.832,225.600 316.480 C 225.854 316.128,226.286 315.840,226.560 315.840 C 226.834 315.840,227.266 315.552,227.520 315.200 C 227.774 314.848,228.151 314.560,228.359 314.560 C 228.566 314.560,229.278 314.020,229.941 313.360 C 230.604 312.700,231.267 312.196,231.413 312.240 C 231.560 312.284,231.644 312.140,231.600 311.920 C 231.556 311.700,231.700 311.556,231.920 311.600 C 232.140 311.644,232.284 311.560,232.240 311.413 C 232.196 311.267,232.700 310.604,233.360 309.941 C 234.020 309.278,234.560 308.566,234.560 308.359 C 234.560 308.151,234.848 307.774,235.200 307.520 C 235.552 307.266,235.840 306.834,235.840 306.560 C 235.840 306.286,236.128 305.854,236.480 305.600 C 236.832 305.346,237.120 304.883,237.120 304.569 C 237.120 304.256,237.264 304.000,237.440 304.000 C 237.616 304.000,237.760 303.712,237.760 303.360 C 237.760 303.008,237.904 302.720,238.080 302.720 C 238.256 302.720,238.400 302.288,238.400 301.760 C 238.400 301.232,238.544 300.800,238.720 300.800 C 238.896 300.800,239.040 300.448,239.040 300.019 C 239.040 299.589,239.184 299.149,239.360 299.040 C 239.536 298.931,239.680 298.347,239.680 297.741 C 239.680 297.136,239.824 296.640,240.000 296.640 C 240.212 296.640,240.320 270.293,240.320 218.240 L 240.320 139.840 220.000 139.840 L 199.680 139.840 199.680 189.760 L 199.680 239.680 140.000 239.680 L 80.320 239.680 80.320 189.760 L 80.320 139.840 60.000 139.840 L 39.680 139.840 39.680 218.240 M319.680 222.381 C 319.680 277.063,319.788 304.989,320.000 305.120 C 320.176 305.229,320.320 305.661,320.320 306.080 C 320.320 306.499,320.464 306.931,320.640 307.040 C 320.816 307.149,320.960 307.503,320.960 307.826 C 320.960 308.669,322.793 312.039,323.534 312.558 C 323.879 312.799,324.160 313.137,324.160 313.309 C 324.160 313.716,326.284 315.840,326.691 315.840 C 326.863 315.840,327.201 316.121,327.442 316.466 C 327.947 317.186,331.321 319.040,332.128 319.040 C 332.427 319.040,332.852 319.220,333.072 319.440 C 333.366 319.734,335.204 319.840,340.000 319.840 C 344.796 319.840,346.634 319.734,346.928 319.440 C 347.148 319.220,347.573 319.040,347.872 319.040 C 348.679 319.040,352.053 317.186,352.558 316.466 C 352.799 316.121,353.137 315.840,353.309 315.840 C 353.716 315.840,355.840 313.716,355.840 313.309 C 355.840 313.137,356.121 312.799,356.466 312.558 C 357.207 312.039,359.040 308.669,359.040 307.826 C 359.040 307.503,359.184 307.149,359.360 307.040 C 359.536 306.931,359.680 306.499,359.680 306.080 C 359.680 305.661,359.824 305.229,360.000 305.120 C 360.212 304.989,360.320 277.063,360.320 222.381 L 360.320 139.840 340.000 139.840 L 319.680 139.840 319.680 222.381 " stroke="none" fill="#4c5c8c" fill-rule="evenodd"></path><path id="path1" d="M48.160 311.680 C 48.847 312.384,49.482 312.960,49.570 312.960 C 49.658 312.960,49.167 312.384,48.480 311.680 C 47.793 310.976,47.158 310.400,47.070 310.400 C 46.982 310.400,47.473 310.976,48.160 311.680 M231.505 311.760 L 230.240 313.120 231.600 311.855 C 232.865 310.679,233.107 310.400,232.865 310.400 C 232.813 310.400,232.201 311.012,231.505 311.760 " stroke="none" fill="#505c8c" fill-rule="evenodd"></path><path id="path2" d="M48.160 311.680 C 48.847 312.384,49.482 312.960,49.570 312.960 C 49.658 312.960,49.167 312.384,48.480 311.680 C 47.793 310.976,47.158 310.400,47.070 310.400 C 46.982 310.400,47.473 310.976,48.160 311.680 M231.505 311.760 L 230.240 313.120 231.600 311.855 C 232.865 310.679,233.107 310.400,232.865 310.400 C 232.813 310.400,232.201 311.012,231.505 311.760 " stroke="none" fill="#505c8c" fill-rule="evenodd"></path><path id="path3" d="M48.160 311.680 C 48.847 312.384,49.482 312.960,49.570 312.960 C 49.658 312.960,49.167 312.384,48.480 311.680 C 47.793 310.976,47.158 310.400,47.070 310.400 C 46.982 310.400,47.473 310.976,48.160 311.680 M231.505 311.760 L 230.240 313.120 231.600 311.855 C 232.865 310.679,233.107 310.400,232.865 310.400 C 232.813 310.400,232.201 311.012,231.505 311.760 " stroke="none" fill="#505c8c" fill-rule="evenodd"></path><path id="path4" d="M48.160 311.680 C 48.847 312.384,49.482 312.960,49.570 312.960 C 49.658 312.960,49.167 312.384,48.480 311.680 C 47.793 310.976,47.158 310.400,47.070 310.400 C 46.982 310.400,47.473 310.976,48.160 311.680 M231.505 311.760 L 230.240 313.120 231.600 311.855 C 232.865 310.679,233.107 310.400,232.865 310.400 C 232.813 310.400,232.201 311.012,231.505 311.760 " stroke="none" fill="#505c8c" fill-rule="evenodd"></path></g></svg>