<?xml version="1.0" standalone="no"?>
<!DOCTYPE svg PUBLIC "-//W3C//DTD SVG 20010904//EN"
 "http://www.w3.org/TR/2001/REC-SVG-20010904/DTD/svg10.dtd">
<svg version="1.0" xmlns="http://www.w3.org/2000/svg"
 width="300.000000pt" height="240.000000pt" viewBox="0 0 300.000000 240.000000"
 preserveAspectRatio="xMidYMid meet">
<metadata>
Created by potrace 1.10, written by Peter Selinger 2001-2011
</metadata>
<g transform="translate(0.000000,240.000000) scale(0.100000,-0.100000)"
fill="#325096" stroke="none">
<path d="M495 2388 c-16 -6 -44 -21 -61 -33 -17 -13 -120 -157 -229 -321 -182
-274 -199 -303 -203 -349 -5 -69 28 -130 88 -162 l43 -23 1367 0 1367 0 43 23
c76 40 109 132 76 212 -26 60 -389 596 -420 620 -17 12 -46 27 -65 34 -46 15
-1962 14 -2006 -1z"/>
<path d="M300 773 c0 -392 4 -591 11 -618 15 -53 91 -129 144 -144 56 -15
1134 -15 1190 0 53 15 129 91 144 144 7 27 11 226 11 618 l0 577 -150 0 -150
0 0 -375 0 -375 -450 0 -450 0 0 375 0 375 -150 0 -150 0 0 -577z"/>
<path d="M2400 733 c0 -682 -2 -659 63 -707 40 -29 134 -29 174 0 65 48 63 25
63 707 l0 617 -150 0 -150 0 0 -617z"/>
</g>
</svg>
