<svg id="svg" version="1.1" xmlns="http://www.w3.org/2000/svg" xmlns:xlink="http://www.w3.org/1999/xlink" width="400" height="355.55555555555554" viewBox="0, 0, 400,355.55555555555554"><g id="svgg"><path id="path0" d="M193.156 0.235 C 192.520 0.326,192.000 0.550,192.000 0.734 C 192.000 0.917,191.609 1.067,191.132 1.067 C 190.655 1.067,190.165 1.227,190.044 1.422 C 189.924 1.618,189.549 1.778,189.213 1.778 C 188.877 1.778,188.371 2.098,188.089 2.489 C 187.807 2.880,187.350 3.200,187.074 3.200 C 186.551 3.200,185.244 4.508,185.244 5.032 C 185.244 5.198,184.993 5.333,184.686 5.333 C 183.967 5.333,183.111 6.189,183.111 6.908 C 183.111 7.215,182.976 7.467,182.810 7.467 C 182.286 7.467,180.978 8.773,180.978 9.297 C 180.978 9.573,180.658 10.029,180.267 10.311 C 179.876 10.593,179.556 10.996,179.556 11.208 C 179.556 11.800,178.699 13.505,178.400 13.508 C 178.253 13.510,178.133 13.831,178.133 14.222 C 178.133 14.613,177.973 14.933,177.778 14.933 C 177.582 14.933,177.422 15.253,177.422 15.644 C 177.422 16.036,177.262 16.356,177.067 16.356 C 176.871 16.356,176.711 16.676,176.711 17.067 C 176.711 17.458,176.551 17.778,176.356 17.778 C 176.160 17.778,176.000 18.258,176.000 18.844 C 176.000 19.431,175.840 19.911,175.644 19.911 C 175.449 19.911,175.289 20.231,175.289 20.622 C 175.289 21.013,175.159 21.333,175.000 21.333 C 174.841 21.333,174.491 21.893,174.222 22.578 C 173.954 23.262,173.639 23.822,173.522 23.822 C 173.406 23.822,173.101 24.534,172.844 25.404 C 172.587 26.274,172.272 27.034,172.144 27.093 C 171.803 27.250,170.667 29.803,170.667 30.412 C 170.667 30.699,170.507 30.933,170.311 30.933 C 170.116 30.933,169.956 31.253,169.956 31.644 C 169.956 32.036,169.796 32.356,169.600 32.356 C 169.404 32.356,169.244 32.676,169.244 33.067 C 169.244 33.458,169.084 33.778,168.889 33.778 C 168.693 33.778,168.533 34.098,168.533 34.489 C 168.533 34.880,168.373 35.200,168.178 35.200 C 167.982 35.200,167.822 35.520,167.822 35.911 C 167.822 36.302,167.662 36.622,167.467 36.622 C 167.271 36.622,167.111 36.952,167.111 37.354 C 167.111 37.757,166.951 37.988,166.756 37.867 C 166.560 37.746,166.400 37.976,166.400 38.379 C 166.400 38.782,166.240 39.111,166.044 39.111 C 165.849 39.111,165.689 39.319,165.689 39.574 C 165.689 40.228,164.853 41.949,164.533 41.953 C 164.387 41.954,164.267 42.436,164.267 43.022 C 164.267 43.609,164.107 44.089,163.911 44.089 C 163.716 44.089,163.556 44.409,163.556 44.800 C 163.556 45.191,163.396 45.511,163.200 45.511 C 163.004 45.511,162.844 45.831,162.844 46.222 C 162.844 46.613,162.684 46.933,162.489 46.933 C 162.293 46.933,162.133 47.253,162.133 47.644 C 162.133 48.036,161.973 48.356,161.778 48.356 C 161.582 48.356,161.422 48.676,161.422 49.067 C 161.422 49.458,161.262 49.778,161.067 49.778 C 160.871 49.778,160.711 50.068,160.711 50.422 C 160.711 50.776,160.391 51.409,160.000 51.829 C 159.609 52.249,159.289 52.839,159.289 53.141 C 159.289 53.442,159.129 53.689,158.933 53.689 C 158.738 53.689,158.578 54.009,158.578 54.400 C 158.578 54.791,158.438 55.111,158.267 55.111 C 158.096 55.111,157.863 55.572,157.751 56.135 C 157.638 56.698,157.287 57.418,156.970 57.735 C 156.653 58.052,156.488 58.311,156.604 58.311 C 156.720 58.311,156.491 58.945,156.096 59.719 C 155.701 60.494,155.378 61.374,155.378 61.675 C 155.378 61.976,155.218 62.222,155.022 62.222 C 154.827 62.222,154.667 62.542,154.667 62.933 C 154.667 63.324,154.507 63.644,154.311 63.644 C 154.116 63.644,153.956 63.964,153.956 64.356 C 153.956 64.747,153.796 65.067,153.600 65.067 C 153.404 65.067,153.244 65.387,153.244 65.778 C 153.244 66.169,153.124 66.490,152.978 66.492 C 152.617 66.495,151.822 68.254,151.822 69.049 C 151.822 69.401,151.662 69.689,151.467 69.689 C 151.271 69.689,151.111 70.009,151.111 70.400 C 151.111 70.791,150.951 71.111,150.756 71.111 C 150.560 71.111,150.400 71.431,150.400 71.822 C 150.400 72.213,150.240 72.533,150.044 72.533 C 149.849 72.533,149.689 72.853,149.689 73.244 C 149.689 73.636,149.529 73.956,149.333 73.956 C 149.138 73.956,148.978 74.276,148.978 74.667 C 148.978 75.058,148.818 75.378,148.622 75.378 C 148.427 75.378,148.267 75.698,148.267 76.089 C 148.267 76.480,148.107 76.800,147.911 76.800 C 147.716 76.800,147.556 77.120,147.556 77.511 C 147.556 77.902,147.396 78.222,147.200 78.222 C 147.004 78.222,146.844 78.542,146.844 78.933 C 146.844 79.324,146.684 79.644,146.489 79.644 C 146.293 79.644,146.133 79.964,146.133 80.356 C 146.133 80.747,145.999 81.067,145.835 81.067 C 145.670 81.067,145.325 81.707,145.067 82.489 C 144.809 83.271,144.463 83.911,144.299 83.911 C 144.134 83.911,144.000 84.241,144.000 84.643 C 144.000 85.046,143.840 85.276,143.644 85.156 C 143.449 85.035,143.289 85.265,143.289 85.668 C 143.289 86.071,143.102 86.400,142.874 86.400 C 142.646 86.400,142.560 86.500,142.682 86.623 C 142.805 86.746,142.538 87.506,142.089 88.312 C 141.639 89.118,141.339 89.978,141.421 90.222 C 141.503 90.467,141.397 90.667,141.185 90.667 C 140.973 90.667,140.800 90.987,140.800 91.378 C 140.800 91.769,140.640 92.089,140.444 92.089 C 140.249 92.089,140.089 92.569,140.089 93.156 C 140.089 93.742,139.929 94.222,139.733 94.222 C 139.538 94.222,139.378 94.542,139.378 94.933 C 139.378 95.324,139.248 95.644,139.089 95.644 C 138.930 95.644,138.580 96.204,138.311 96.889 C 138.043 97.573,137.693 98.133,137.534 98.133 C 137.375 98.133,137.244 98.453,137.244 98.844 C 137.244 99.236,137.084 99.556,136.889 99.556 C 136.693 99.556,136.533 99.876,136.533 100.267 C 136.533 100.658,136.373 100.978,136.178 100.978 C 135.982 100.978,135.822 101.298,135.822 101.689 C 135.822 102.080,135.662 102.400,135.467 102.400 C 135.271 102.400,135.111 102.720,135.111 103.111 C 135.111 103.727,134.874 103.822,133.333 103.822 C 132.356 103.822,131.556 103.982,131.556 104.178 C 131.556 104.381,130.489 104.533,129.067 104.533 C 127.644 104.533,126.578 104.686,126.578 104.889 C 126.578 105.084,125.698 105.244,124.622 105.244 C 123.547 105.244,122.667 105.404,122.667 105.600 C 122.667 105.803,121.600 105.956,120.178 105.956 C 118.756 105.956,117.689 106.108,117.689 106.311 C 117.689 106.511,116.688 106.667,115.399 106.667 C 114.139 106.667,113.010 106.827,112.889 107.022 C 112.768 107.218,111.639 107.378,110.379 107.378 C 109.089 107.378,108.089 107.533,108.089 107.733 C 108.089 107.931,107.141 108.089,105.956 108.089 C 104.770 108.089,103.822 108.247,103.822 108.444 C 103.822 108.645,102.815 108.800,101.511 108.800 C 100.207 108.800,99.200 108.955,99.200 109.156 C 99.200 109.359,98.133 109.511,96.711 109.511 C 95.289 109.511,94.222 109.663,94.222 109.867 C 94.222 110.070,93.156 110.222,91.733 110.222 C 90.364 110.222,89.244 110.359,89.244 110.526 C 89.244 110.692,87.364 110.941,85.067 111.078 C 82.769 111.215,80.737 111.479,80.551 111.664 C 80.365 111.849,79.125 112.000,77.796 112.000 C 76.421 112.000,75.378 112.153,75.378 112.356 C 75.378 112.559,74.304 112.711,72.868 112.711 C 71.285 112.711,70.439 112.842,70.578 113.067 C 70.716 113.290,69.937 113.422,68.486 113.422 C 67.215 113.422,66.076 113.582,65.956 113.778 C 65.835 113.973,64.785 114.133,63.623 114.133 C 62.452 114.133,61.511 114.292,61.511 114.489 C 61.511 114.692,60.444 114.844,59.022 114.844 C 57.600 114.844,56.533 114.997,56.533 115.200 C 56.533 115.401,55.526 115.556,54.222 115.556 C 52.919 115.556,51.911 115.711,51.911 115.911 C 51.911 116.114,50.844 116.267,49.422 116.267 C 48.000 116.267,46.933 116.419,46.933 116.622 C 46.933 116.818,46.063 116.978,44.999 116.978 C 43.935 116.978,42.965 117.138,42.844 117.333 C 42.724 117.529,41.505 117.689,40.136 117.689 C 38.567 117.689,37.728 117.820,37.867 118.044 C 38.005 118.269,37.159 118.400,35.577 118.400 C 34.140 118.400,33.067 118.552,33.067 118.756 C 33.067 118.951,32.587 119.111,32.000 119.111 C 31.413 119.111,30.932 119.231,30.931 119.378 C 30.927 119.697,29.205 120.533,28.551 120.533 C 28.297 120.533,28.089 120.693,28.089 120.889 C 28.089 121.084,27.769 121.244,27.378 121.244 C 26.987 121.244,26.667 121.404,26.667 121.600 C 26.667 121.796,26.445 121.956,26.175 121.956 C 25.668 121.956,22.044 125.419,22.044 125.903 C 22.044 126.052,21.724 126.276,21.333 126.400 C 20.942 126.524,20.622 126.864,20.622 127.156 C 20.622 127.448,20.462 127.588,20.267 127.467 C 20.071 127.346,19.911 127.552,19.911 127.924 C 19.911 128.296,19.591 128.890,19.200 129.244 C 18.809 129.598,18.489 130.103,18.489 130.366 C 18.489 130.629,18.329 130.844,18.133 130.844 C 17.938 130.844,17.778 131.324,17.778 131.911 C 17.778 132.498,17.618 132.978,17.422 132.978 C 17.227 132.978,17.067 133.458,17.067 134.044 C 17.067 134.631,16.907 135.111,16.711 135.111 C 16.488 135.111,16.356 137.304,16.356 140.978 C 16.356 144.652,16.488 146.844,16.711 146.844 C 16.907 146.844,17.067 147.324,17.067 147.911 C 17.067 148.498,17.227 148.978,17.422 148.978 C 17.618 148.978,17.778 149.458,17.778 150.044 C 17.778 150.631,17.938 151.111,18.133 151.111 C 18.329 151.111,18.489 151.431,18.489 151.822 C 18.489 152.213,18.649 152.533,18.844 152.533 C 19.040 152.533,19.200 152.760,19.200 153.037 C 19.200 153.313,19.680 153.993,20.267 154.546 C 20.853 155.100,21.333 155.673,21.333 155.818 C 21.333 156.257,22.660 157.674,28.698 163.684 C 36.199 171.149,37.609 172.444,38.236 172.444 C 38.522 172.444,38.756 172.592,38.756 172.773 C 38.756 173.202,49.020 183.467,49.449 183.467 C 49.630 183.467,49.778 183.707,49.778 184.000 C 49.778 184.293,49.925 184.533,50.104 184.533 C 50.606 184.533,53.331 187.261,53.080 187.512 C 52.959 187.634,53.153 187.733,53.511 187.733 C 53.870 187.733,54.072 187.824,53.961 187.935 C 53.851 188.046,56.504 190.845,59.858 194.155 C 67.149 201.352,65.315 199.517,72.512 206.809 C 75.822 210.163,78.621 212.816,78.732 212.705 C 78.843 212.594,78.933 212.797,78.933 213.156 C 78.933 213.514,79.033 213.708,79.154 213.586 C 79.405 213.336,82.133 216.061,82.133 216.562 C 82.133 216.742,82.373 216.889,82.667 216.889 C 82.960 216.889,83.200 217.037,83.200 217.217 C 83.200 217.646,93.465 227.911,93.894 227.911 C 94.074 227.911,94.222 228.151,94.222 228.444 C 94.222 228.738,94.382 228.978,94.578 228.978 C 94.773 228.978,94.933 229.458,94.933 230.044 C 94.933 230.631,94.773 231.111,94.578 231.111 C 94.382 231.111,94.222 231.991,94.222 233.067 C 94.222 234.142,94.062 235.022,93.867 235.022 C 93.669 235.022,93.511 235.970,93.511 237.156 C 93.511 238.341,93.353 239.289,93.156 239.289 C 92.958 239.289,92.800 240.237,92.800 241.422 C 92.800 242.607,92.642 243.556,92.444 243.556 C 92.249 243.556,92.089 244.436,92.089 245.511 C 92.089 246.587,91.929 247.467,91.733 247.467 C 91.536 247.467,91.378 248.415,91.378 249.600 C 91.378 250.785,91.220 251.733,91.022 251.733 C 90.825 251.733,90.667 252.681,90.667 253.867 C 90.667 255.052,90.509 256.000,90.311 256.000 C 90.113 256.000,89.956 256.955,89.956 258.154 C 89.956 259.500,89.822 260.226,89.600 260.089 C 89.378 259.952,89.244 260.678,89.244 262.023 C 89.244 263.223,89.087 264.178,88.889 264.178 C 88.691 264.178,88.533 265.126,88.533 266.311 C 88.533 267.496,88.375 268.444,88.178 268.444 C 87.980 268.444,87.822 269.393,87.822 270.578 C 87.822 271.763,87.664 272.711,87.467 272.711 C 87.271 272.711,87.111 273.591,87.111 274.667 C 87.111 275.742,86.951 276.622,86.756 276.622 C 86.560 276.622,86.400 277.422,86.400 278.400 C 86.400 279.378,86.267 280.178,86.105 280.178 C 85.943 280.178,85.774 281.098,85.729 282.222 C 85.684 283.347,85.497 284.419,85.313 284.604 C 85.129 284.790,84.978 285.790,84.978 286.827 C 84.978 287.863,84.818 288.711,84.622 288.711 C 84.427 288.711,84.267 289.591,84.267 290.667 C 84.267 291.742,84.134 292.622,83.972 292.622 C 83.810 292.622,83.640 293.539,83.595 294.659 C 83.550 295.779,83.391 296.779,83.243 296.881 C 83.094 296.983,82.931 297.947,82.881 299.022 C 82.830 300.098,82.641 301.031,82.461 301.096 C 82.281 301.161,82.133 302.055,82.133 303.081 C 82.133 304.108,82.024 305.057,81.891 305.190 C 81.758 305.324,81.689 306.310,81.739 307.383 C 81.795 308.590,81.684 309.333,81.448 309.333 C 81.219 309.333,81.067 310.185,81.067 311.467 C 81.067 312.652,80.909 313.600,80.711 313.600 C 80.514 313.600,80.356 314.548,80.356 315.733 C 80.356 316.919,80.198 317.867,80.000 317.867 C 79.804 317.867,79.644 318.747,79.644 319.822 C 79.644 320.898,79.484 321.778,79.289 321.778 C 79.091 321.778,78.933 322.726,78.933 323.911 C 78.933 325.096,78.775 326.044,78.578 326.044 C 78.380 326.044,78.222 326.993,78.222 328.178 C 78.222 329.363,78.064 330.311,77.867 330.311 C 77.658 330.311,77.511 331.556,77.511 333.333 C 77.511 335.111,77.658 336.356,77.867 336.356 C 78.062 336.356,78.222 337.156,78.222 338.133 C 78.222 339.111,78.382 339.911,78.578 339.911 C 78.773 339.911,78.933 340.391,78.933 340.978 C 78.933 341.564,79.093 342.044,79.289 342.044 C 79.484 342.044,79.644 342.364,79.644 342.756 C 79.644 343.147,79.804 343.467,80.000 343.467 C 80.196 343.467,80.356 343.787,80.356 344.178 C 80.356 344.569,80.516 344.889,80.711 344.889 C 80.907 344.889,81.067 345.189,81.067 345.556 C 81.067 345.924,81.307 346.423,81.600 346.667 C 81.893 346.910,82.133 347.232,82.133 347.382 C 82.133 347.845,86.032 351.644,86.507 351.644 C 86.753 351.644,87.185 351.964,87.467 352.356 C 87.749 352.747,88.264 353.067,88.612 353.067 C 88.960 353.067,89.244 353.227,89.244 353.422 C 89.244 353.618,89.564 353.778,89.956 353.778 C 90.347 353.778,90.667 353.938,90.667 354.133 C 90.667 354.329,90.973 354.489,91.348 354.489 C 91.723 354.489,92.096 354.689,92.178 354.933 C 92.290 355.272,94.265 355.378,100.444 355.378 C 106.623 355.378,108.598 355.272,108.711 354.933 C 108.792 354.689,109.246 354.489,109.719 354.489 C 110.191 354.489,110.578 354.329,110.578 354.133 C 110.578 353.938,110.898 353.778,111.289 353.778 C 111.680 353.778,112.000 353.618,112.000 353.422 C 112.000 353.227,112.320 353.067,112.711 353.067 C 113.102 353.067,113.422 352.907,113.422 352.711 C 113.422 352.516,113.742 352.356,114.133 352.356 C 114.524 352.356,114.844 352.196,114.844 352.000 C 114.844 351.804,115.129 351.644,115.477 351.644 C 115.825 351.644,116.340 351.324,116.622 350.933 C 116.904 350.542,117.419 350.222,117.767 350.222 C 118.115 350.222,118.400 350.062,118.400 349.867 C 118.400 349.671,118.720 349.511,119.111 349.511 C 119.502 349.511,119.822 349.351,119.822 349.156 C 119.822 348.960,120.142 348.800,120.533 348.800 C 120.924 348.800,121.244 348.640,121.244 348.444 C 121.244 348.249,121.564 348.089,121.956 348.089 C 122.347 348.089,122.667 347.922,122.667 347.718 C 122.667 347.514,122.867 347.379,123.111 347.419 C 123.836 347.538,125.513 346.720,125.736 346.139 C 125.850 345.842,126.246 345.600,126.616 345.600 C 126.986 345.600,127.290 345.480,127.292 345.333 C 127.295 345.014,129.017 344.178,129.671 344.178 C 129.925 344.178,130.133 344.018,130.133 343.822 C 130.133 343.627,130.453 343.467,130.844 343.467 C 131.236 343.467,131.556 343.307,131.556 343.111 C 131.556 342.916,131.876 342.756,132.267 342.756 C 132.658 342.756,132.978 342.633,132.978 342.484 C 132.978 342.334,133.597 341.944,134.353 341.616 C 135.110 341.289,135.956 340.811,136.234 340.555 C 137.006 339.842,138.241 339.200,138.840 339.200 C 139.136 339.200,139.378 339.040,139.378 338.844 C 139.378 338.649,139.618 338.489,139.911 338.489 C 140.204 338.489,140.444 338.329,140.444 338.133 C 140.444 337.938,140.764 337.778,141.156 337.778 C 141.547 337.778,141.867 337.618,141.867 337.422 C 141.867 337.227,142.187 337.067,142.578 337.067 C 142.969 337.067,143.289 336.907,143.289 336.711 C 143.289 336.516,143.609 336.356,144.000 336.356 C 144.391 336.356,144.711 336.196,144.711 336.000 C 144.711 335.804,144.996 335.644,145.344 335.644 C 145.692 335.644,146.207 335.324,146.489 334.933 C 146.771 334.542,147.286 334.222,147.634 334.222 C 147.982 334.222,148.267 334.062,148.267 333.867 C 148.267 333.671,148.521 333.511,148.831 333.511 C 149.697 333.511,156.205 330.216,156.731 329.511 C 156.987 329.169,157.507 328.889,157.887 328.889 C 158.267 328.889,158.578 328.729,158.578 328.533 C 158.578 328.338,158.898 328.178,159.289 328.178 C 159.680 328.178,160.000 328.018,160.000 327.822 C 160.000 327.627,160.320 327.467,160.711 327.467 C 161.102 327.467,161.422 327.307,161.422 327.111 C 161.422 326.916,161.742 326.756,162.133 326.756 C 162.524 326.756,162.844 326.596,162.844 326.400 C 162.844 326.204,163.164 326.044,163.556 326.044 C 163.947 326.044,164.268 325.924,164.269 325.778 C 164.273 325.479,165.977 324.622,166.570 324.622 C 166.781 324.622,167.185 324.302,167.467 323.911 C 167.749 323.520,168.264 323.200,168.612 323.200 C 168.960 323.200,169.244 323.040,169.244 322.844 C 169.244 322.649,169.484 322.489,169.778 322.489 C 170.071 322.489,170.311 322.329,170.311 322.133 C 170.311 321.938,170.631 321.778,171.022 321.778 C 171.413 321.778,171.733 321.618,171.733 321.422 C 171.733 321.227,172.053 321.067,172.444 321.067 C 172.836 321.067,173.156 320.907,173.156 320.711 C 173.156 320.516,173.476 320.356,173.867 320.356 C 174.258 320.356,174.578 320.196,174.578 320.000 C 174.578 319.804,174.898 319.644,175.289 319.644 C 175.680 319.644,176.000 319.484,176.000 319.289 C 176.000 319.093,176.320 318.933,176.711 318.933 C 177.102 318.933,177.422 318.803,177.422 318.644 C 177.422 318.331,179.698 317.156,180.304 317.156 C 180.507 317.156,180.914 316.914,181.210 316.619 C 181.505 316.324,181.893 316.173,182.073 316.284 C 182.253 316.395,182.401 316.357,182.401 316.199 C 182.402 316.041,183.281 315.511,184.356 315.022 C 185.430 314.533,186.309 314.013,186.310 313.867 C 186.311 313.720,186.572 313.600,186.892 313.600 C 187.211 313.600,187.733 313.320,188.051 312.978 C 188.796 312.177,190.065 311.467,190.751 311.467 C 191.047 311.467,191.289 311.307,191.289 311.111 C 191.289 310.916,191.609 310.756,192.000 310.756 C 192.391 310.756,192.711 310.596,192.711 310.400 C 192.711 310.204,193.031 310.044,193.422 310.044 C 193.813 310.044,194.133 309.884,194.133 309.689 C 194.133 309.493,194.453 309.333,194.844 309.333 C 195.236 309.333,195.556 309.173,195.556 308.978 C 195.556 308.782,195.876 308.622,196.267 308.622 C 196.658 308.622,196.978 308.462,196.978 308.267 C 196.978 308.071,197.193 307.911,197.456 307.911 C 197.719 307.911,198.224 307.591,198.578 307.200 C 199.430 306.259,202.297 306.600,202.308 307.644 C 202.310 307.791,202.519 307.911,202.774 307.911 C 203.428 307.911,205.149 308.747,205.153 309.067 C 205.154 309.213,205.440 309.333,205.788 309.333 C 206.136 309.333,206.651 309.653,206.933 310.044 C 207.215 310.436,207.731 310.756,208.078 310.756 C 208.426 310.756,208.711 310.916,208.711 311.111 C 208.711 311.307,208.919 311.467,209.174 311.467 C 209.828 311.467,211.549 312.303,211.553 312.622 C 211.554 312.769,211.876 312.889,212.267 312.889 C 212.658 312.889,212.978 313.049,212.978 313.244 C 212.978 313.440,213.298 313.600,213.689 313.600 C 214.080 313.600,214.401 313.720,214.403 313.867 C 214.406 314.191,216.132 315.022,216.803 315.022 C 217.069 315.022,217.214 315.142,217.125 315.289 C 216.932 315.608,217.601 316.220,218.322 316.384 C 218.605 316.449,218.919 316.609,219.019 316.740 C 219.231 317.019,221.339 317.859,222.489 318.122 C 222.929 318.223,223.289 318.446,223.289 318.619 C 223.289 318.792,223.609 318.933,224.000 318.933 C 224.391 318.933,224.711 319.093,224.711 319.289 C 224.711 319.484,225.031 319.644,225.422 319.644 C 225.813 319.644,226.133 319.804,226.133 320.000 C 226.133 320.196,226.418 320.356,226.766 320.356 C 227.114 320.356,227.629 320.676,227.911 321.067 C 228.193 321.458,228.708 321.778,229.056 321.778 C 229.404 321.778,229.689 321.938,229.689 322.133 C 229.689 322.329,229.929 322.489,230.222 322.489 C 230.516 322.489,230.756 322.649,230.756 322.844 C 230.756 323.040,231.076 323.200,231.467 323.200 C 231.858 323.200,232.178 323.360,232.178 323.556 C 232.178 323.751,232.498 323.911,232.889 323.911 C 233.280 323.911,233.600 324.071,233.600 324.267 C 233.600 324.462,233.920 324.622,234.311 324.622 C 234.702 324.622,235.022 324.782,235.022 324.978 C 235.022 325.173,235.342 325.333,235.733 325.333 C 236.124 325.333,236.444 325.493,236.444 325.689 C 236.444 325.884,236.729 326.044,237.077 326.044 C 237.425 326.044,237.940 326.364,238.222 326.756 C 238.504 327.147,239.019 327.467,239.367 327.467 C 239.715 327.467,240.000 327.627,240.000 327.822 C 240.000 328.018,240.320 328.178,240.711 328.178 C 241.102 328.178,241.422 328.338,241.422 328.533 C 241.422 328.729,241.630 328.889,241.885 328.889 C 242.539 328.889,244.261 329.725,244.264 330.044 C 244.265 330.191,244.475 330.311,244.729 330.311 C 245.383 330.311,247.105 331.147,247.108 331.467 C 247.110 331.613,247.264 331.733,247.451 331.733 C 247.638 331.733,248.380 332.133,249.100 332.622 C 249.821 333.111,250.708 333.511,251.072 333.511 C 251.436 333.511,251.733 333.671,251.733 333.867 C 251.733 334.062,252.053 334.222,252.444 334.222 C 252.836 334.222,253.156 334.382,253.156 334.578 C 253.156 334.773,253.476 334.933,253.867 334.933 C 254.258 334.933,254.578 335.093,254.578 335.289 C 254.578 335.484,254.898 335.644,255.289 335.644 C 255.680 335.644,256.000 335.804,256.000 336.000 C 256.000 336.196,256.285 336.356,256.633 336.356 C 256.981 336.356,257.496 336.676,257.778 337.067 C 258.060 337.458,258.575 337.778,258.923 337.778 C 259.271 337.778,259.556 337.938,259.556 338.133 C 259.556 338.329,259.796 338.489,260.089 338.489 C 260.382 338.489,260.622 338.649,260.622 338.844 C 260.622 339.040,260.830 339.200,261.085 339.200 C 261.739 339.200,263.461 340.036,263.464 340.356 C 263.465 340.502,263.675 340.622,263.929 340.622 C 264.583 340.622,266.305 341.458,266.308 341.778 C 266.310 341.924,266.596 342.044,266.944 342.044 C 267.292 342.044,267.807 342.364,268.089 342.756 C 268.371 343.147,268.886 343.467,269.234 343.467 C 269.582 343.467,269.867 343.627,269.867 343.822 C 269.867 344.018,270.075 344.178,270.329 344.178 C 270.983 344.178,272.705 345.014,272.708 345.333 C 272.710 345.480,273.031 345.600,273.422 345.600 C 273.813 345.600,274.133 345.760,274.133 345.956 C 274.133 346.151,274.389 346.311,274.701 346.311 C 275.013 346.311,275.711 346.626,276.252 347.012 C 276.793 347.397,277.337 347.611,277.460 347.488 C 277.583 347.365,277.984 347.609,278.351 348.032 C 278.717 348.454,279.278 348.800,279.597 348.800 C 279.917 348.800,280.178 348.960,280.178 349.156 C 280.178 349.351,280.498 349.511,280.889 349.511 C 281.280 349.511,281.600 349.671,281.600 349.867 C 281.600 350.062,281.920 350.222,282.311 350.222 C 282.702 350.222,283.022 350.382,283.022 350.578 C 283.022 350.773,283.342 350.933,283.733 350.933 C 284.124 350.933,284.444 351.093,284.444 351.289 C 284.444 351.484,284.764 351.644,285.156 351.644 C 285.547 351.644,285.867 351.804,285.867 352.000 C 285.867 352.196,286.187 352.356,286.578 352.356 C 286.969 352.356,287.289 352.516,287.289 352.711 C 287.289 352.907,287.609 353.067,288.000 353.067 C 288.391 353.067,288.711 353.227,288.711 353.422 C 288.711 353.618,288.951 353.778,289.244 353.778 C 289.538 353.778,289.778 353.938,289.778 354.133 C 289.778 354.329,290.084 354.489,290.459 354.489 C 290.834 354.489,291.207 354.689,291.289 354.933 C 291.503 355.577,307.608 355.577,307.822 354.933 C 307.904 354.689,308.437 354.489,309.007 354.489 C 309.578 354.489,310.044 354.329,310.044 354.133 C 310.044 353.938,310.329 353.778,310.677 353.778 C 311.025 353.778,311.540 353.458,311.822 353.067 C 312.104 352.676,312.534 352.356,312.777 352.356 C 313.329 352.356,318.427 347.312,318.295 346.897 C 318.241 346.730,318.523 346.311,318.921 345.966 C 319.319 345.621,319.644 345.078,319.644 344.758 C 319.644 344.439,319.804 344.178,320.000 344.178 C 320.196 344.178,320.356 343.858,320.356 343.467 C 320.356 343.076,320.516 342.756,320.711 342.756 C 320.907 342.756,321.067 342.276,321.067 341.689 C 321.067 341.102,321.227 340.622,321.422 340.622 C 321.618 340.622,321.778 340.142,321.778 339.556 C 321.778 338.969,321.938 338.489,322.133 338.489 C 322.354 338.489,322.489 336.533,322.489 333.333 C 322.489 330.133,322.354 328.178,322.133 328.178 C 321.936 328.178,321.778 327.230,321.778 326.044 C 321.778 324.859,321.620 323.911,321.422 323.911 C 321.224 323.911,321.067 322.956,321.067 321.757 C 321.067 320.411,320.933 319.685,320.711 319.822 C 320.489 319.959,320.356 319.233,320.356 317.888 C 320.356 316.688,320.198 315.733,320.000 315.733 C 319.804 315.733,319.644 314.933,319.644 313.956 C 319.644 312.978,319.484 312.178,319.289 312.178 C 319.091 312.178,318.933 311.230,318.933 310.044 C 318.933 308.763,318.781 307.911,318.552 307.911 C 318.317 307.911,318.204 307.184,318.258 306.022 C 318.306 304.982,318.247 303.973,318.127 303.778 C 318.006 303.583,317.870 302.593,317.824 301.578 C 317.777 300.564,317.608 299.733,317.448 299.733 C 317.287 299.733,317.156 298.787,317.156 297.630 C 317.156 296.473,317.004 295.473,316.820 295.407 C 316.635 295.342,316.448 294.369,316.403 293.244 C 316.359 292.120,316.190 291.200,316.028 291.200 C 315.866 291.200,315.733 290.409,315.733 289.443 C 315.733 288.477,315.573 287.588,315.378 287.467 C 315.182 287.346,315.022 286.296,315.022 285.135 C 315.022 283.963,314.864 283.022,314.667 283.022 C 314.471 283.022,314.311 282.152,314.311 281.088 C 314.311 280.024,314.151 279.054,313.956 278.933 C 313.760 278.812,313.600 277.843,313.600 276.779 C 313.600 275.715,313.440 274.844,313.244 274.844 C 313.049 274.844,312.889 274.044,312.889 273.067 C 312.889 272.089,312.729 271.289,312.533 271.289 C 312.336 271.289,312.178 270.341,312.178 269.156 C 312.178 267.970,312.020 267.022,311.822 267.022 C 311.625 267.022,311.467 266.074,311.467 264.889 C 311.467 263.704,311.309 262.756,311.111 262.756 C 310.916 262.756,310.756 261.876,310.756 260.800 C 310.756 259.724,310.596 258.844,310.400 258.844 C 310.202 258.844,310.044 257.896,310.044 256.711 C 310.044 255.526,309.886 254.578,309.689 254.578 C 309.491 254.578,309.333 253.630,309.333 252.444 C 309.333 251.259,309.175 250.311,308.978 250.311 C 308.782 250.311,308.622 249.441,308.622 248.377 C 308.622 247.313,308.462 246.343,308.267 246.222 C 308.071 246.101,307.911 245.132,307.911 244.068 C 307.911 243.004,307.751 242.133,307.556 242.133 C 307.358 242.133,307.200 241.185,307.200 240.000 C 307.200 238.815,307.042 237.867,306.844 237.867 C 306.647 237.867,306.489 236.919,306.489 235.733 C 306.489 234.548,306.331 233.600,306.133 233.600 C 305.938 233.600,305.778 232.880,305.778 232.000 C 305.778 231.120,305.618 230.400,305.422 230.400 C 305.227 230.400,305.067 230.080,305.067 229.689 C 305.067 229.298,305.227 228.978,305.422 228.978 C 305.618 228.978,305.778 228.738,305.778 228.444 C 305.778 228.151,305.926 227.911,306.106 227.911 C 306.535 227.911,316.800 217.646,316.800 217.217 C 316.800 217.037,317.040 216.889,317.333 216.889 C 317.627 216.889,317.867 216.742,317.867 216.562 C 317.867 216.061,320.595 213.336,320.846 213.586 C 320.967 213.708,321.067 213.514,321.067 213.156 C 321.067 212.797,321.157 212.594,321.268 212.705 C 321.424 212.861,326.690 207.696,333.776 200.436 C 336.581 197.561,342.482 192.000,342.727 192.000 C 343.071 192.000,346.098 189.021,348.800 186.023 C 349.680 185.047,350.520 184.322,350.667 184.412 C 350.813 184.502,350.933 184.337,350.933 184.045 C 350.933 183.753,351.253 183.413,351.644 183.289 C 352.036 183.165,352.356 182.825,352.356 182.533 C 352.356 182.241,352.476 182.056,352.622 182.121 C 352.961 182.271,360.130 175.005,359.885 174.760 C 359.786 174.660,359.960 174.578,360.272 174.578 C 360.585 174.578,360.943 174.258,361.067 173.867 C 361.191 173.476,361.531 173.156,361.823 173.156 C 362.114 173.156,362.279 173.036,362.189 172.889 C 362.099 172.742,362.821 171.902,363.792 171.022 C 367.637 167.539,379.378 155.600,379.378 155.173 C 379.378 155.074,379.698 154.649,380.089 154.229 C 380.480 153.809,380.800 153.256,380.800 153.000 C 380.800 152.743,380.960 152.533,381.156 152.533 C 381.351 152.533,381.511 152.213,381.511 151.822 C 381.511 151.431,381.671 151.111,381.867 151.111 C 382.062 151.111,382.222 150.791,382.222 150.400 C 382.222 150.009,382.382 149.689,382.578 149.689 C 382.773 149.689,382.933 149.209,382.933 148.622 C 382.933 148.036,383.093 147.556,383.289 147.556 C 383.484 147.556,383.644 146.756,383.644 145.778 C 383.644 144.800,383.804 144.000,384.000 144.000 C 384.209 144.000,384.356 142.756,384.356 140.978 C 384.356 139.200,384.209 137.956,384.000 137.956 C 383.804 137.956,383.644 137.156,383.644 136.178 C 383.644 135.200,383.484 134.400,383.289 134.400 C 383.093 134.400,382.933 133.920,382.933 133.333 C 382.933 132.747,382.773 132.267,382.578 132.267 C 382.382 132.267,382.222 131.947,382.222 131.556 C 382.222 131.164,382.102 130.843,381.956 130.842 C 381.676 130.839,380.800 129.150,380.800 128.615 C 380.800 128.142,379.848 127.293,379.598 127.543 C 379.477 127.664,379.378 127.496,379.378 127.170 C 379.378 126.844,379.218 126.578,379.022 126.578 C 378.827 126.578,378.667 126.338,378.667 126.044 C 378.667 125.751,378.547 125.511,378.400 125.510 C 378.253 125.510,377.813 125.030,377.422 124.444 C 377.031 123.859,376.502 123.379,376.247 123.379 C 375.992 123.378,375.272 122.899,374.647 122.313 C 374.022 121.727,373.311 121.247,373.067 121.246 C 372.822 121.245,372.622 121.084,372.622 120.889 C 372.622 120.693,372.302 120.533,371.911 120.533 C 371.520 120.533,371.200 120.373,371.200 120.178 C 371.200 119.982,370.720 119.822,370.133 119.822 C 369.547 119.822,369.067 119.662,369.067 119.467 C 369.067 119.271,368.587 119.111,368.000 119.111 C 367.413 119.111,366.933 118.951,366.933 118.756 C 366.933 118.558,365.985 118.400,364.800 118.400 C 363.615 118.400,362.667 118.242,362.667 118.044 C 362.667 117.844,361.659 117.689,360.356 117.689 C 359.052 117.689,358.044 117.534,358.044 117.333 C 358.044 117.130,356.978 116.978,355.556 116.978 C 354.133 116.978,353.067 116.825,353.067 116.622 C 353.067 116.426,352.142 116.267,351.004 116.267 C 349.870 116.267,348.790 116.120,348.604 115.941 C 348.419 115.762,347.227 115.519,345.956 115.401 C 344.684 115.284,342.644 115.097,341.422 114.986 C 340.200 114.875,339.200 114.637,339.200 114.459 C 339.200 114.280,338.089 114.133,336.732 114.133 C 335.375 114.133,334.165 113.973,334.044 113.778 C 333.924 113.582,332.785 113.422,331.514 113.422 C 330.063 113.422,329.284 113.290,329.422 113.067 C 329.559 112.845,328.840 112.711,327.509 112.711 C 326.335 112.711,325.276 112.551,325.156 112.356 C 325.035 112.160,323.915 112.000,322.667 112.000 C 321.419 112.000,320.308 111.854,320.198 111.677 C 320.088 111.499,317.918 111.238,315.377 111.098 C 312.835 110.957,310.756 110.703,310.756 110.532 C 310.756 110.362,309.796 110.222,308.622 110.222 C 307.437 110.222,306.489 110.064,306.489 109.867 C 306.489 109.666,305.481 109.511,304.178 109.511 C 302.874 109.511,301.867 109.356,301.867 109.156 C 301.867 108.952,300.800 108.800,299.378 108.800 C 297.956 108.800,296.889 108.648,296.889 108.444 C 296.889 108.241,295.822 108.089,294.400 108.089 C 292.978 108.089,291.911 107.937,291.911 107.733 C 291.911 107.533,290.911 107.378,289.621 107.378 C 288.361 107.378,287.232 107.218,287.111 107.022 C 286.990 106.827,286.021 106.667,284.957 106.667 C 283.893 106.667,283.022 106.507,283.022 106.311 C 283.022 106.108,281.956 105.956,280.533 105.956 C 279.111 105.956,278.044 105.803,278.044 105.600 C 278.044 105.399,277.037 105.244,275.733 105.244 C 274.430 105.244,273.422 105.089,273.422 104.889 C 273.422 104.686,272.356 104.533,270.933 104.533 C 269.511 104.533,268.444 104.381,268.444 104.178 C 268.444 103.982,267.873 103.822,267.175 103.822 C 265.830 103.822,264.889 103.174,264.889 102.248 C 264.889 101.940,264.769 101.688,264.622 101.686 C 264.303 101.683,263.467 99.961,263.467 99.307 C 263.467 99.053,263.307 98.844,263.111 98.844 C 262.916 98.844,262.756 98.524,262.756 98.133 C 262.756 97.742,262.596 97.422,262.400 97.422 C 262.204 97.422,262.044 97.182,262.044 96.889 C 262.044 96.596,261.884 96.356,261.689 96.356 C 261.493 96.356,261.333 96.036,261.333 95.644 C 261.333 95.253,261.173 94.933,260.978 94.933 C 260.782 94.933,260.622 94.613,260.622 94.222 C 260.622 93.831,260.462 93.511,260.267 93.511 C 260.071 93.511,259.911 93.191,259.911 92.800 C 259.911 92.409,259.751 92.089,259.556 92.089 C 259.360 92.089,259.200 91.769,259.200 91.378 C 259.200 90.987,259.027 90.667,258.815 90.667 C 258.603 90.667,258.497 90.467,258.579 90.222 C 258.661 89.978,258.361 89.118,257.911 88.312 C 257.462 87.506,257.195 86.746,257.318 86.623 C 257.440 86.500,257.354 86.400,257.126 86.400 C 256.898 86.400,256.711 86.071,256.711 85.668 C 256.711 85.265,256.551 85.035,256.356 85.156 C 256.160 85.276,256.000 85.046,256.000 84.643 C 256.000 84.241,255.866 83.911,255.701 83.911 C 255.537 83.911,255.191 83.271,254.933 82.489 C 254.675 81.707,254.330 81.067,254.165 81.067 C 254.001 81.067,253.867 80.587,253.867 80.000 C 253.867 79.413,253.707 78.933,253.511 78.933 C 253.316 78.933,253.156 78.613,253.156 78.222 C 253.156 77.831,253.036 77.510,252.889 77.508 C 252.570 77.505,251.733 75.783,251.733 75.129 C 251.733 74.875,251.573 74.667,251.378 74.667 C 251.182 74.667,251.022 74.347,251.022 73.956 C 251.022 73.564,250.862 73.244,250.667 73.244 C 250.471 73.244,250.311 72.924,250.311 72.533 C 250.311 72.142,250.151 71.822,249.956 71.822 C 249.760 71.822,249.600 71.502,249.600 71.111 C 249.600 70.720,249.440 70.400,249.244 70.400 C 249.049 70.400,248.889 70.080,248.889 69.689 C 248.889 69.298,248.759 68.978,248.600 68.978 C 248.441 68.978,248.091 68.418,247.822 67.733 C 247.554 67.049,247.204 66.489,247.045 66.489 C 246.886 66.489,246.756 66.169,246.756 65.778 C 246.756 65.387,246.596 65.067,246.400 65.067 C 246.204 65.067,246.044 64.747,246.044 64.356 C 246.044 63.964,245.884 63.644,245.689 63.644 C 245.493 63.644,245.333 63.324,245.333 62.933 C 245.333 62.542,245.173 62.222,244.978 62.222 C 244.782 62.222,244.622 61.976,244.622 61.675 C 244.622 61.374,244.309 60.513,243.926 59.763 C 243.544 59.013,243.330 58.299,243.452 58.177 C 243.574 58.055,243.516 57.956,243.323 57.956 C 242.970 57.956,241.892 55.740,241.029 53.244 C 240.776 52.511,240.440 51.911,240.284 51.911 C 240.128 51.911,240.000 51.591,240.000 51.200 C 240.000 50.809,239.840 50.489,239.644 50.489 C 239.449 50.489,239.289 50.169,239.289 49.778 C 239.289 49.387,239.129 49.067,238.933 49.067 C 238.738 49.067,238.578 48.747,238.578 48.356 C 238.578 47.964,238.418 47.644,238.222 47.644 C 238.027 47.644,237.867 47.324,237.867 46.933 C 237.867 46.542,237.707 46.222,237.511 46.222 C 237.316 46.222,237.156 45.902,237.156 45.511 C 237.156 45.120,237.036 44.799,236.889 44.797 C 236.570 44.794,235.733 43.072,235.733 42.418 C 235.733 42.164,235.613 41.954,235.467 41.953 C 235.147 41.949,234.311 40.228,234.311 39.574 C 234.311 39.319,234.151 39.111,233.956 39.111 C 233.760 39.111,233.600 38.782,233.600 38.379 C 233.600 37.976,233.440 37.746,233.244 37.867 C 233.049 37.988,232.889 37.757,232.889 37.354 C 232.889 36.952,232.729 36.622,232.533 36.622 C 232.338 36.622,232.178 36.302,232.178 35.911 C 232.178 35.520,232.018 35.200,231.822 35.200 C 231.627 35.200,231.467 34.880,231.467 34.489 C 231.467 34.098,231.307 33.778,231.111 33.778 C 230.916 33.778,230.756 33.458,230.756 33.067 C 230.756 32.676,230.596 32.356,230.400 32.356 C 230.204 32.356,230.044 32.036,230.044 31.644 C 230.044 31.253,229.902 30.933,229.728 30.933 C 229.554 30.933,229.334 30.413,229.239 29.778 C 229.023 28.328,228.229 26.281,227.641 25.660 C 227.395 25.400,227.284 25.040,227.395 24.860 C 227.507 24.680,227.428 24.533,227.221 24.533 C 227.014 24.533,226.844 24.293,226.844 24.000 C 226.844 23.707,226.684 23.467,226.489 23.467 C 226.293 23.467,226.133 23.147,226.133 22.756 C 226.133 22.364,225.973 22.044,225.778 22.044 C 225.582 22.044,225.422 21.724,225.422 21.333 C 225.422 20.942,225.262 20.622,225.067 20.622 C 224.871 20.622,224.711 20.302,224.711 19.911 C 224.711 19.520,224.551 19.200,224.356 19.200 C 224.160 19.200,224.000 18.880,224.000 18.489 C 224.000 18.098,223.840 17.778,223.644 17.778 C 223.449 17.778,223.289 17.458,223.289 17.067 C 223.289 16.676,223.129 16.356,222.933 16.356 C 222.738 16.356,222.578 16.036,222.578 15.644 C 222.578 15.253,222.418 14.933,222.222 14.933 C 222.027 14.933,221.867 14.613,221.867 14.222 C 221.867 13.831,221.747 13.510,221.600 13.508 C 221.281 13.505,220.444 11.783,220.444 11.129 C 220.444 10.875,220.284 10.667,220.089 10.667 C 219.893 10.667,219.733 10.382,219.733 10.034 C 219.733 9.686,219.413 9.171,219.022 8.889 C 218.631 8.607,218.311 8.248,218.311 8.092 C 218.311 7.720,214.502 3.911,214.131 3.911 C 213.974 3.911,213.615 3.591,213.333 3.200 C 213.051 2.809,212.536 2.489,212.188 2.489 C 211.840 2.489,211.556 2.329,211.556 2.133 C 211.556 1.938,211.313 1.778,211.017 1.778 C 210.407 1.778,209.010 1.057,208.649 0.556 C 208.402 0.213,195.221 -0.060,193.156 0.235 " stroke="none" fill="#c4c4c4" fill-rule="evenodd"></path><path id="path1" d="M318.329 306.133 C 318.329 307.209,318.395 307.649,318.477 307.111 C 318.558 306.573,318.558 305.693,318.477 305.156 C 318.395 304.618,318.329 305.058,318.329 306.133 M81.529 307.556 C 81.529 308.631,81.595 309.071,81.677 308.533 C 81.758 307.996,81.758 307.116,81.677 306.578 C 81.595 306.040,81.529 306.480,81.529 307.556 " stroke="none" fill="#c8c4c4" fill-rule="evenodd"></path><path id="path2" d="M318.329 306.133 C 318.329 307.209,318.395 307.649,318.477 307.111 C 318.558 306.573,318.558 305.693,318.477 305.156 C 318.395 304.618,318.329 305.058,318.329 306.133 M81.529 307.556 C 81.529 308.631,81.595 309.071,81.677 308.533 C 81.758 307.996,81.758 307.116,81.677 306.578 C 81.595 306.040,81.529 306.480,81.529 307.556 " stroke="none" fill="#c8c4c4" fill-rule="evenodd"></path><path id="path3" d="M318.329 306.133 C 318.329 307.209,318.395 307.649,318.477 307.111 C 318.558 306.573,318.558 305.693,318.477 305.156 C 318.395 304.618,318.329 305.058,318.329 306.133 M81.529 307.556 C 81.529 308.631,81.595 309.071,81.677 308.533 C 81.758 307.996,81.758 307.116,81.677 306.578 C 81.595 306.040,81.529 306.480,81.529 307.556 " stroke="none" fill="#c8c4c4" fill-rule="evenodd"></path><path id="path4" d="M318.329 306.133 C 318.329 307.209,318.395 307.649,318.477 307.111 C 318.558 306.573,318.558 305.693,318.477 305.156 C 318.395 304.618,318.329 305.058,318.329 306.133 M81.529 307.556 C 81.529 308.631,81.595 309.071,81.677 308.533 C 81.758 307.996,81.758 307.116,81.677 306.578 C 81.595 306.040,81.529 306.480,81.529 307.556 " stroke="none" fill="#c8c4c4" fill-rule="evenodd"></path></g></svg>