 <svg  version="1.0" xmlns="http://www.w3.org/2000/svg"  width="300.000000pt" height="281.000000pt" viewBox="0 0 300.000000 281.000000"  preserveAspectRatio="xMidYMid meet">  <g transform="translate(0.000000,281.000000) scale(0.100000,-0.100000)" fill="#b0b0b0" stroke="none"> <path d="M1440 2791 c-25 -13 -44 -36 -67 -82 -18 -35 -30 -70 -28 -76 2 -7 1 -13 -4 -13 -10 0 -44 -74 -44 -95 0 -8 -3 -15 -7 -15 -9 0 -43 -76 -43 -95 0 -8 -4 -15 -8 -15 -7 0 -44 -88 -43 -100 0 -3 -6 -11 -13 -19 -8 -7 -12 -20 -9 -28 3 -8 2 -12 -3 -9 -8 5 -26 -42 -21 -53 1 -2 -3 -7 -8 -10 -16 -10 -72 -142 -65 -154 3 -5 2 -7 -3 -4 -6 3 -16 -8 -23 -24 -8 -18 -20 -29 -32 -29 -11 0 -18 -4 -14 -9 3 -6 -11 -9 -32 -8 -77 3 -134 -3 -128 -13 4 -7 -8 -8 -34 -4 -25 4 -41 3 -41 -3 0 -6 -11 -8 -25 -5 -13 2 -33 1 -42 -3 -10 -4 -33 -7 -50 -6 -18 2 -33 -1 -33 -6 0 -4 -35 -9 -77 -11 -43 -1 -80 -7 -84 -13 -4 -7 -11 -9 -17 -5 -12 7 -213 -15 -207 -23 1 -3 -29 -7 -68 -8 -39 -2 -73 -6 -76 -10 -3 -5 -13 -9 -21 -11 -27 -5 -61 -52 -54 -74 4 -14 2 -18 -5 -14 -7 4 -11 -1 -11 -13 0 -12 4 -21 10 -21 5 0 7 -7 3 -16 -7 -18 45 -70 436 -439 l243 -229 -7 -46 c-5 -25 -8 -57 -8 -73 0 -15 -2 -25 -6 -22 -7 8 -42 -166 -36 -182 2 -7 -1 -13 -6 -13 -6 0 -9 -9 -6 -20 3 -10 1 -20 -4 -22 -4 -2 -9 -23 -11 -48 -2 -25 -5 -47 -9 -50 -10 -9 -29 -112 -23 -122 4 -6 1 -14 -5 -18 -7 -4 -13 -28 -14 -53 -1 -25 -5 -43 -8 -41 -9 5 -21 -75 -14 -87 4 -5 1 -9 -6 -9 -6 0 -9 -8 -6 -20 3 -11 1 -20 -4 -20 -5 0 -9 -18 -9 -40 0 -22 4 -40 10 -40 5 0 7 -6 4 -14 -3 -7 11 -27 32 -45 28 -25 42 -31 61 -26 17 4 23 2 18 -6 -6 -8 2 -9 26 -4 37 8 182 89 174 97 -3 3 1 5 8 5 18 0 207 113 207 124 0 5 3 8 8 7 17 -5 52 14 46 25 -4 7 -4 9 1 5 9 -8 65 18 65 31 0 4 6 8 13 8 18 1 197 109 192 117 -3 3 -2 4 2 1 3 -3 30 9 58 25 29 17 58 30 64 30 7 0 93 -48 192 -107 100 -58 187 -106 195 -106 8 0 12 -3 9 -6 -9 -8 258 -160 269 -154 6 3 8 2 4 -2 -9 -9 63 -56 74 -49 5 3 8 1 8 -5 0 -19 44 -34 104 -37 56 -2 62 0 94 32 25 25 32 39 27 55 -5 15 -4 19 4 15 7 -4 11 1 11 13 0 11 -4 22 -9 25 -5 3 -7 15 -4 26 3 12 0 20 -6 20 -7 0 -10 4 -6 9 8 14 -6 92 -16 86 -4 -3 -7 5 -7 17 3 52 -2 89 -12 83 -7 -4 -9 2 -4 19 3 14 2 26 -2 26 -5 0 -10 21 -12 47 -1 26 -6 50 -10 53 -4 3 -8 23 -10 45 -2 22 -8 41 -13 43 -5 2 -6 15 -3 29 4 15 3 24 -2 20 -5 -3 -10 18 -11 46 -1 28 -6 53 -10 56 -4 3 -9 24 -11 46 -2 22 -7 42 -11 45 -3 3 -7 16 -8 30 0 14 -4 48 -8 76 l-7 50 173 164 c469 443 499 474 508 504 4 17 6 35 3 40 -3 6 -6 21 -7 34 -1 25 -50 76 -65 67 -5 -3 -10 -1 -12 5 -1 5 -30 11 -63 14 -33 2 -67 7 -75 10 -29 10 -201 27 -212 20 -5 -4 -13 -2 -17 4 -3 6 -40 12 -81 14 -41 2 -78 7 -81 11 -3 5 -40 9 -81 10 -42 1 -74 6 -70 11 3 5 -12 6 -36 3 -23 -4 -42 -3 -44 3 -2 5 -37 11 -80 12 -42 2 -74 6 -71 11 2 4 -5 7 -17 7 -17 0 -29 16 -56 77 -20 43 -40 81 -46 84 -5 3 -9 9 -8 13 4 11 -31 96 -39 96 -4 0 -8 7 -8 15 0 21 -35 95 -45 95 -4 0 -7 3 -6 8 5 13 -33 102 -43 102 -6 0 -8 4 -5 8 7 12 -59 153 -68 145 -4 -4 -4 1 0 11 5 13 4 17 -4 12 -8 -4 -10 -2 -6 7 3 8 -2 22 -11 31 -9 9 -14 16 -11 16 3 0 0 13 -5 30 -13 36 -66 83 -85 76 -8 -3 -14 -1 -14 4 0 16 -43 11 -80 -9z"/> </g> </svg> 