 <svg  version="1.0" xmlns="http://www.w3.org/2000/svg"  width="300.000000pt" height="300.000000pt" viewBox="0 0 300.000000 300.000000"  preserveAspectRatio="xMidYMid meet">  <g transform="translate(0.000000,300.000000) scale(0.100000,-0.100000)" fill="#3c5096" stroke="none"> <path d="M1330 2994 c-73 -10 -230 -45 -306 -70 -143 -46 -354 -161 -471 -256 -36 -29 -192 -185 -221 -221 -97 -120 -208 -323 -256 -471 -57 -177 -70 -266 -70 -476 0 -210 13 -298 70 -476 46 -143 161 -354 256 -471 29 -36 185 -192 221 -221 117 -95 326 -209 471 -256 176 -57 266 -70 476 -70 210 0 299 13 476 70 148 48 351 159 471 256 36 29 192 185 221 221 97 120 208 323 256 471 57 177 70 266 70 476 0 210 -13 300 -70 476 -47 145 -161 354 -256 471 -29 36 -185 192 -221 221 -118 96 -329 210 -472 256 -161 52 -259 68 -440 71 -93 2 -186 1 -205 -1z m-191 -1061 c62 -47 91 -127 72 -201 -22 -82 -94 -134 -184 -134 -95 1 -177 85 -177 182 0 59 15 92 62 138 56 53 165 60 227 15z m921 8 c19 -9 48 -35 64 -58 60 -86 30 -209 -63 -261 -45 -26 -128 -29 -169 -8 -31 16 -74 61 -91 93 -15 30 -14 119 3 151 51 97 155 131 256 83z m-1075 -876 c85 -85 180 -147 285 -186 59 -21 81 -24 230 -24 150 0 171 2 230 24 106 39 200 101 285 186 54 55 83 66 122 50 37 -16 63 -51 63 -84 0 -53 -101 -156 -241 -244 -234 -149 -551 -169 -823 -52 -96 41 -265 168 -310 233 -43 62 -28 119 37 147 39 16 68 5 122 -50z"/> </g> </svg> 