<svg id="svg" version="1.1" xmlns="http://www.w3.org/2000/svg" xmlns:xlink="http://www.w3.org/1999/xlink" width="400" height="400" viewBox="0, 0, 400,400"><g id="svgg"><path id="path0" d="M178.300 0.275 C 176.375 0.361,174.800 0.604,174.800 0.816 C 174.800 1.029,173.380 1.200,171.600 1.200 C 169.733 1.200,168.400 1.367,168.400 1.600 C 168.400 1.820,167.500 2.000,166.400 2.000 C 165.300 2.000,164.400 2.180,164.400 2.400 C 164.400 2.623,163.325 2.800,161.976 2.800 C 160.463 2.800,159.646 2.950,159.800 3.200 C 159.952 3.447,159.271 3.600,158.024 3.600 C 156.911 3.600,156.000 3.780,156.000 4.000 C 156.000 4.220,155.280 4.400,154.400 4.400 C 153.520 4.400,152.800 4.580,152.800 4.800 C 152.800 5.020,152.080 5.200,151.200 5.200 C 150.320 5.200,149.600 5.380,149.600 5.600 C 149.600 5.820,148.880 6.000,148.000 6.000 C 147.120 6.000,146.400 6.180,146.400 6.400 C 146.400 6.620,145.961 6.800,145.424 6.800 C 144.887 6.800,144.336 6.980,144.200 7.200 C 144.064 7.420,143.333 7.600,142.576 7.600 C 141.819 7.600,141.200 7.757,141.200 7.948 C 141.200 8.140,140.284 8.418,139.165 8.567 C 138.046 8.715,136.831 9.000,136.465 9.200 C 135.397 9.782,131.008 11.200,130.273 11.200 C 129.903 11.200,129.600 11.380,129.600 11.600 C 129.600 11.820,129.251 12.000,128.824 12.000 C 128.397 12.000,127.936 12.180,127.800 12.400 C 127.664 12.620,127.113 12.800,126.576 12.800 C 126.039 12.800,125.599 12.935,125.597 13.100 C 125.593 13.456,123.659 14.400,122.932 14.400 C 122.653 14.400,121.783 14.760,121.000 15.200 C 120.217 15.640,119.311 16.000,118.988 16.000 C 118.665 16.000,118.400 16.180,118.400 16.400 C 118.400 16.620,117.961 16.800,117.424 16.800 C 116.887 16.800,116.336 16.980,116.200 17.200 C 116.064 17.420,115.603 17.600,115.176 17.600 C 114.749 17.600,114.400 17.780,114.400 18.000 C 114.400 18.220,114.029 18.400,113.576 18.400 C 113.123 18.400,112.864 18.580,113.000 18.800 C 113.141 19.028,112.796 19.200,112.200 19.200 C 111.604 19.200,111.259 19.372,111.400 19.600 C 111.541 19.828,111.196 20.000,110.600 20.000 C 110.004 20.000,109.659 20.172,109.800 20.400 C 109.936 20.620,109.677 20.800,109.224 20.800 C 108.771 20.800,108.400 20.980,108.400 21.200 C 108.400 21.420,108.040 21.600,107.600 21.600 C 107.160 21.600,106.800 21.780,106.800 22.000 C 106.800 22.220,106.440 22.400,106.000 22.400 C 105.560 22.400,105.200 22.580,105.200 22.800 C 105.200 23.020,104.880 23.200,104.488 23.200 C 104.097 23.200,103.517 23.560,103.200 24.000 C 102.883 24.440,102.303 24.800,101.912 24.800 C 101.520 24.800,101.200 25.001,101.200 25.247 C 101.200 25.496,100.847 25.601,100.400 25.484 C 99.880 25.348,99.600 25.472,99.600 25.837 C 99.600 26.147,99.262 26.400,98.849 26.400 C 98.436 26.400,97.874 26.670,97.600 27.000 C 97.326 27.330,96.854 27.600,96.551 27.600 C 96.248 27.600,96.000 27.760,96.000 27.957 C 96.000 28.153,95.550 28.426,95.000 28.564 C 94.450 28.702,94.000 29.002,94.000 29.231 C 94.000 29.460,93.820 29.536,93.600 29.400 C 93.380 29.264,93.200 29.343,93.200 29.576 C 93.200 29.809,92.932 30.000,92.603 30.000 C 92.275 30.000,91.782 30.360,91.507 30.800 C 91.232 31.240,90.731 31.600,90.392 31.600 C 90.054 31.600,89.517 31.960,89.200 32.400 C 88.883 32.840,88.343 33.200,88.000 33.200 C 87.657 33.200,87.117 33.560,86.800 34.000 C 86.483 34.440,85.943 34.800,85.600 34.800 C 85.257 34.800,84.717 35.160,84.400 35.600 C 84.083 36.040,83.638 36.401,83.412 36.402 C 83.185 36.403,82.425 36.943,81.722 37.602 C 81.019 38.261,80.255 38.800,80.025 38.800 C 79.795 38.800,79.091 39.340,78.460 40.000 C 77.829 40.660,77.010 41.200,76.638 41.200 C 76.267 41.200,75.656 41.745,75.281 42.411 C 74.907 43.077,74.171 43.733,73.647 43.868 C 73.122 44.003,71.850 44.988,70.820 46.057 C 69.790 47.126,68.730 48.000,68.465 48.000 C 67.885 48.000,60.438 55.505,60.730 55.796 C 60.842 55.908,60.678 56.001,60.367 56.001 C 60.055 56.002,59.457 56.514,59.038 57.139 C 58.619 57.765,57.765 58.619,57.139 59.038 C 56.514 59.457,56.002 60.055,56.001 60.367 C 56.001 60.678,55.908 60.842,55.796 60.730 C 55.505 60.438,48.000 67.885,48.000 68.465 C 48.000 68.730,47.126 69.790,46.057 70.820 C 44.988 71.850,44.003 73.122,43.868 73.647 C 43.733 74.171,43.077 74.907,42.411 75.281 C 41.745 75.656,41.200 76.267,41.200 76.638 C 41.200 77.010,40.660 77.829,40.000 78.460 C 39.340 79.091,38.800 79.795,38.800 80.025 C 38.800 80.255,38.261 81.019,37.602 81.722 C 36.943 82.425,36.403 83.185,36.402 83.412 C 36.401 83.638,36.040 84.083,35.600 84.400 C 35.160 84.717,34.800 85.257,34.800 85.600 C 34.800 85.943,34.440 86.483,34.000 86.800 C 33.560 87.117,33.200 87.657,33.200 88.000 C 33.200 88.343,32.840 88.883,32.400 89.200 C 31.960 89.517,31.600 90.054,31.600 90.392 C 31.600 90.731,31.240 91.232,30.800 91.507 C 30.360 91.782,30.000 92.275,30.000 92.603 C 30.000 92.932,29.809 93.200,29.576 93.200 C 29.343 93.200,29.264 93.380,29.400 93.600 C 29.536 93.820,29.460 94.000,29.231 94.000 C 29.002 94.000,28.702 94.450,28.564 95.000 C 28.426 95.550,28.153 96.000,27.957 96.000 C 27.760 96.000,27.600 96.248,27.600 96.551 C 27.600 96.854,27.330 97.326,27.000 97.600 C 26.670 97.874,26.400 98.436,26.400 98.849 C 26.400 99.262,26.147 99.600,25.837 99.600 C 25.472 99.600,25.348 99.880,25.484 100.400 C 25.601 100.847,25.496 101.200,25.247 101.200 C 25.001 101.200,24.800 101.520,24.800 101.912 C 24.800 102.303,24.440 102.883,24.000 103.200 C 23.560 103.517,23.200 104.097,23.200 104.488 C 23.200 104.880,23.020 105.200,22.800 105.200 C 22.580 105.200,22.400 105.560,22.400 106.000 C 22.400 106.440,22.220 106.800,22.000 106.800 C 21.780 106.800,21.600 107.160,21.600 107.600 C 21.600 108.040,21.420 108.400,21.200 108.400 C 20.980 108.400,20.800 108.771,20.800 109.224 C 20.800 109.677,20.620 109.936,20.400 109.800 C 20.172 109.659,20.000 110.004,20.000 110.600 C 20.000 111.196,19.828 111.541,19.600 111.400 C 19.372 111.259,19.200 111.604,19.200 112.200 C 19.200 112.796,19.028 113.141,18.800 113.000 C 18.580 112.864,18.400 113.123,18.400 113.576 C 18.400 114.029,18.220 114.400,18.000 114.400 C 17.780 114.400,17.600 114.749,17.600 115.176 C 17.600 115.603,17.420 116.064,17.200 116.200 C 16.980 116.336,16.800 116.887,16.800 117.424 C 16.800 117.961,16.620 118.400,16.400 118.400 C 16.180 118.400,16.000 118.665,16.000 118.988 C 16.000 119.311,15.640 120.217,15.200 121.000 C 14.760 121.783,14.400 122.653,14.400 122.932 C 14.400 123.659,13.456 125.593,13.100 125.597 C 12.935 125.599,12.800 126.039,12.800 126.576 C 12.800 127.113,12.620 127.664,12.400 127.800 C 12.180 127.936,12.000 128.397,12.000 128.824 C 12.000 129.251,11.820 129.600,11.600 129.600 C 11.380 129.600,11.200 129.903,11.200 130.273 C 11.200 131.008,9.782 135.397,9.200 136.465 C 9.000 136.831,8.715 138.046,8.567 139.165 C 8.418 140.284,8.140 141.200,7.948 141.200 C 7.757 141.200,7.600 141.819,7.600 142.576 C 7.600 143.333,7.420 144.064,7.200 144.200 C 6.980 144.336,6.800 144.887,6.800 145.424 C 6.800 145.961,6.620 146.400,6.400 146.400 C 6.180 146.400,6.000 147.120,6.000 148.000 C 6.000 148.880,5.820 149.600,5.600 149.600 C 5.380 149.600,5.200 150.320,5.200 151.200 C 5.200 152.080,5.020 152.800,4.800 152.800 C 4.580 152.800,4.400 153.520,4.400 154.400 C 4.400 155.280,4.220 156.000,4.000 156.000 C 3.780 156.000,3.600 156.911,3.600 158.024 C 3.600 159.271,3.447 159.952,3.200 159.800 C 2.954 159.648,2.800 160.321,2.800 161.553 C 2.800 162.653,2.620 163.664,2.400 163.800 C 2.180 163.936,2.000 165.027,2.000 166.224 C 2.000 167.421,1.820 168.400,1.600 168.400 C 1.372 168.400,1.200 169.589,1.200 171.167 C 1.200 173.024,1.036 173.988,0.700 174.100 C 0.307 174.231,0.200 179.689,0.200 199.600 C 0.200 219.511,0.307 224.969,0.700 225.100 C 1.044 225.215,1.200 226.256,1.200 228.433 C 1.200 230.278,1.367 231.600,1.600 231.600 C 1.820 231.600,2.000 232.579,2.000 233.776 C 2.000 234.973,2.180 236.064,2.400 236.200 C 2.620 236.336,2.800 237.347,2.800 238.447 C 2.800 239.679,2.954 240.352,3.200 240.200 C 3.447 240.048,3.600 240.729,3.600 241.976 C 3.600 243.089,3.780 244.000,4.000 244.000 C 4.220 244.000,4.400 244.720,4.400 245.600 C 4.400 246.480,4.580 247.200,4.800 247.200 C 5.020 247.200,5.200 247.920,5.200 248.800 C 5.200 249.680,5.380 250.400,5.600 250.400 C 5.820 250.400,6.000 251.120,6.000 252.000 C 6.000 252.880,6.180 253.600,6.400 253.600 C 6.620 253.600,6.800 254.039,6.800 254.576 C 6.800 255.113,6.980 255.664,7.200 255.800 C 7.420 255.936,7.600 256.667,7.600 257.424 C 7.600 258.181,7.757 258.800,7.948 258.800 C 8.140 258.800,8.418 259.716,8.567 260.835 C 8.715 261.954,9.000 263.169,9.200 263.535 C 9.782 264.603,11.200 268.992,11.200 269.727 C 11.200 270.097,11.380 270.400,11.600 270.400 C 11.820 270.400,12.000 270.749,12.000 271.176 C 12.000 271.603,12.180 272.064,12.400 272.200 C 12.620 272.336,12.800 272.887,12.800 273.424 C 12.800 273.961,12.935 274.401,13.100 274.403 C 13.456 274.407,14.400 276.341,14.400 277.068 C 14.400 277.347,14.760 278.217,15.200 279.000 C 15.640 279.783,16.000 280.689,16.000 281.012 C 16.000 281.335,16.180 281.600,16.400 281.600 C 16.620 281.600,16.800 282.039,16.800 282.576 C 16.800 283.113,16.980 283.664,17.200 283.800 C 17.420 283.936,17.600 284.397,17.600 284.824 C 17.600 285.251,17.780 285.600,18.000 285.600 C 18.220 285.600,18.400 285.971,18.400 286.424 C 18.400 286.877,18.580 287.136,18.800 287.000 C 19.028 286.859,19.200 287.204,19.200 287.800 C 19.200 288.396,19.372 288.741,19.600 288.600 C 19.828 288.459,20.000 288.804,20.000 289.400 C 20.000 289.996,20.172 290.341,20.400 290.200 C 20.620 290.064,20.800 290.323,20.800 290.776 C 20.800 291.229,20.980 291.600,21.200 291.600 C 21.420 291.600,21.600 291.960,21.600 292.400 C 21.600 292.840,21.780 293.200,22.000 293.200 C 22.220 293.200,22.400 293.560,22.400 294.000 C 22.400 294.440,22.580 294.800,22.800 294.800 C 23.020 294.800,23.200 295.120,23.200 295.512 C 23.200 295.903,23.560 296.483,24.000 296.800 C 24.440 297.117,24.800 297.697,24.800 298.088 C 24.800 298.480,25.001 298.800,25.247 298.800 C 25.496 298.800,25.601 299.153,25.484 299.600 C 25.348 300.120,25.472 300.400,25.837 300.400 C 26.147 300.400,26.400 300.738,26.400 301.151 C 26.400 301.564,26.670 302.126,27.000 302.400 C 27.330 302.674,27.600 303.146,27.600 303.449 C 27.600 303.752,27.760 304.000,27.957 304.000 C 28.153 304.000,28.426 304.450,28.564 305.000 C 28.702 305.550,29.002 306.000,29.231 306.000 C 29.460 306.000,29.536 306.180,29.400 306.400 C 29.264 306.620,29.343 306.800,29.576 306.800 C 29.809 306.800,30.000 307.068,30.000 307.397 C 30.000 307.725,30.360 308.218,30.800 308.493 C 31.240 308.768,31.600 309.269,31.600 309.608 C 31.600 309.946,31.960 310.483,32.400 310.800 C 32.840 311.117,33.200 311.657,33.200 312.000 C 33.200 312.343,33.560 312.883,34.000 313.200 C 34.440 313.517,34.800 314.057,34.800 314.400 C 34.800 314.743,35.160 315.283,35.600 315.600 C 36.040 315.917,36.401 316.362,36.402 316.588 C 36.403 316.815,36.943 317.575,37.602 318.278 C 38.261 318.981,38.800 319.745,38.800 319.975 C 38.800 320.205,39.340 320.909,40.000 321.540 C 40.660 322.171,41.200 322.990,41.200 323.362 C 41.200 323.733,41.745 324.344,42.411 324.719 C 43.077 325.093,43.733 325.829,43.868 326.353 C 44.003 326.878,44.988 328.150,46.057 329.180 C 47.126 330.210,48.000 331.270,48.000 331.535 C 48.000 332.115,55.505 339.562,55.796 339.270 C 55.908 339.158,56.001 339.322,56.001 339.633 C 56.002 339.945,56.514 340.543,57.139 340.962 C 57.765 341.381,58.619 342.235,59.038 342.861 C 59.457 343.486,60.055 343.998,60.367 343.999 C 60.678 343.999,60.842 344.092,60.730 344.204 C 60.438 344.495,67.885 352.000,68.465 352.000 C 68.730 352.000,69.790 352.874,70.820 353.943 C 71.850 355.012,73.122 355.997,73.647 356.132 C 74.171 356.267,74.907 356.923,75.281 357.589 C 75.656 358.255,76.267 358.800,76.638 358.800 C 77.010 358.800,77.829 359.340,78.460 360.000 C 79.091 360.660,79.795 361.200,80.025 361.200 C 80.255 361.200,81.019 361.739,81.722 362.398 C 82.425 363.057,83.185 363.597,83.412 363.598 C 83.638 363.599,84.083 363.960,84.400 364.400 C 84.717 364.840,85.257 365.200,85.600 365.200 C 85.943 365.200,86.483 365.560,86.800 366.000 C 87.117 366.440,87.657 366.800,88.000 366.800 C 88.343 366.800,88.883 367.160,89.200 367.600 C 89.517 368.040,90.054 368.400,90.392 368.400 C 90.731 368.400,91.232 368.760,91.507 369.200 C 91.782 369.640,92.275 370.000,92.603 370.000 C 92.932 370.000,93.200 370.191,93.200 370.424 C 93.200 370.657,93.380 370.736,93.600 370.600 C 93.820 370.464,94.000 370.540,94.000 370.769 C 94.000 370.998,94.450 371.298,95.000 371.436 C 95.550 371.574,96.000 371.847,96.000 372.043 C 96.000 372.240,96.248 372.400,96.551 372.400 C 96.854 372.400,97.326 372.670,97.600 373.000 C 97.874 373.330,98.436 373.600,98.849 373.600 C 99.262 373.600,99.600 373.853,99.600 374.163 C 99.600 374.528,99.880 374.652,100.400 374.516 C 100.847 374.399,101.200 374.504,101.200 374.753 C 101.200 374.999,101.520 375.200,101.912 375.200 C 102.303 375.200,102.883 375.560,103.200 376.000 C 103.517 376.440,104.097 376.800,104.488 376.800 C 104.880 376.800,105.200 376.980,105.200 377.200 C 105.200 377.420,105.560 377.600,106.000 377.600 C 106.440 377.600,106.800 377.780,106.800 378.000 C 106.800 378.220,107.160 378.400,107.600 378.400 C 108.040 378.400,108.400 378.580,108.400 378.800 C 108.400 379.020,108.771 379.200,109.224 379.200 C 109.677 379.200,109.936 379.380,109.800 379.600 C 109.659 379.828,110.004 380.000,110.600 380.000 C 111.196 380.000,111.541 380.172,111.400 380.400 C 111.259 380.628,111.604 380.800,112.200 380.800 C 112.796 380.800,113.141 380.972,113.000 381.200 C 112.864 381.420,113.123 381.600,113.576 381.600 C 114.029 381.600,114.400 381.780,114.400 382.000 C 114.400 382.220,114.940 382.400,115.600 382.400 C 116.260 382.400,116.800 382.580,116.800 382.800 C 116.800 383.020,117.160 383.200,117.600 383.200 C 118.040 383.200,118.400 383.380,118.400 383.600 C 118.400 383.820,118.665 384.000,118.988 384.000 C 119.311 384.000,120.217 384.360,121.000 384.800 C 121.783 385.240,122.653 385.600,122.932 385.600 C 123.659 385.600,125.593 386.544,125.597 386.900 C 125.599 387.065,126.140 387.200,126.800 387.200 C 127.460 387.200,128.000 387.380,128.000 387.600 C 128.000 387.820,128.360 388.000,128.800 388.000 C 129.240 388.000,129.600 388.180,129.600 388.400 C 129.600 388.620,129.903 388.800,130.273 388.800 C 131.008 388.800,135.397 390.218,136.465 390.800 C 136.831 391.000,138.046 391.285,139.165 391.433 C 140.284 391.582,141.200 391.860,141.200 392.052 C 141.200 392.243,141.819 392.400,142.576 392.400 C 143.333 392.400,144.064 392.580,144.200 392.800 C 144.336 393.020,144.887 393.200,145.424 393.200 C 145.961 393.200,146.400 393.380,146.400 393.600 C 146.400 393.820,147.120 394.000,148.000 394.000 C 148.880 394.000,149.600 394.180,149.600 394.400 C 149.600 394.620,150.320 394.800,151.200 394.800 C 152.080 394.800,152.800 394.980,152.800 395.200 C 152.800 395.420,153.520 395.600,154.400 395.600 C 155.280 395.600,156.000 395.780,156.000 396.000 C 156.000 396.220,156.911 396.400,158.024 396.400 C 159.271 396.400,159.952 396.553,159.800 396.800 C 159.646 397.050,160.463 397.200,161.976 397.200 C 163.325 397.200,164.400 397.377,164.400 397.600 C 164.400 397.820,165.300 398.000,166.400 398.000 C 167.500 398.000,168.400 398.180,168.400 398.400 C 168.400 398.633,169.722 398.800,171.567 398.800 C 173.744 398.800,174.785 398.956,174.900 399.300 C 175.144 400.032,224.856 400.032,225.100 399.300 C 225.215 398.956,226.256 398.800,228.433 398.800 C 230.278 398.800,231.600 398.633,231.600 398.400 C 231.600 398.180,232.579 398.000,233.776 398.000 C 234.973 398.000,236.064 397.820,236.200 397.600 C 236.336 397.380,237.347 397.200,238.447 397.200 C 239.679 397.200,240.352 397.046,240.200 396.800 C 240.048 396.553,240.729 396.400,241.976 396.400 C 243.089 396.400,244.000 396.220,244.000 396.000 C 244.000 395.780,244.720 395.600,245.600 395.600 C 246.480 395.600,247.200 395.420,247.200 395.200 C 247.200 394.980,247.920 394.800,248.800 394.800 C 249.680 394.800,250.400 394.620,250.400 394.400 C 250.400 394.180,251.120 394.000,252.000 394.000 C 252.880 394.000,253.600 393.820,253.600 393.600 C 253.600 393.380,254.039 393.200,254.576 393.200 C 255.113 393.200,255.664 393.020,255.800 392.800 C 255.936 392.580,256.667 392.400,257.424 392.400 C 258.181 392.400,258.800 392.243,258.800 392.052 C 258.800 391.860,259.716 391.582,260.835 391.433 C 261.954 391.285,263.169 391.000,263.535 390.800 C 264.603 390.218,268.992 388.800,269.727 388.800 C 270.097 388.800,270.400 388.620,270.400 388.400 C 270.400 388.180,270.749 388.000,271.176 388.000 C 271.603 388.000,272.064 387.820,272.200 387.600 C 272.336 387.380,272.887 387.200,273.424 387.200 C 273.961 387.200,274.401 387.065,274.403 386.900 C 274.407 386.544,276.341 385.600,277.068 385.600 C 277.347 385.600,278.217 385.240,279.000 384.800 C 279.783 384.360,280.689 384.000,281.012 384.000 C 281.335 384.000,281.600 383.820,281.600 383.600 C 281.600 383.380,282.039 383.200,282.576 383.200 C 283.113 383.200,283.664 383.020,283.800 382.800 C 283.936 382.580,284.397 382.400,284.824 382.400 C 285.251 382.400,285.600 382.220,285.600 382.000 C 285.600 381.780,285.971 381.600,286.424 381.600 C 286.877 381.600,287.136 381.420,287.000 381.200 C 286.859 380.972,287.204 380.800,287.800 380.800 C 288.396 380.800,288.741 380.628,288.600 380.400 C 288.459 380.172,288.804 380.000,289.400 380.000 C 289.996 380.000,290.341 379.828,290.200 379.600 C 290.064 379.380,290.323 379.200,290.776 379.200 C 291.229 379.200,291.600 379.020,291.600 378.800 C 291.600 378.580,291.960 378.400,292.400 378.400 C 292.840 378.400,293.200 378.220,293.200 378.000 C 293.200 377.780,293.560 377.600,294.000 377.600 C 294.440 377.600,294.800 377.420,294.800 377.200 C 294.800 376.980,295.120 376.800,295.512 376.800 C 295.903 376.800,296.483 376.440,296.800 376.000 C 297.117 375.560,297.697 375.200,298.088 375.200 C 298.480 375.200,298.800 374.999,298.800 374.753 C 298.800 374.504,299.153 374.399,299.600 374.516 C 300.120 374.652,300.400 374.528,300.400 374.163 C 300.400 373.853,300.738 373.600,301.151 373.600 C 301.564 373.600,302.126 373.330,302.400 373.000 C 302.674 372.670,303.146 372.400,303.449 372.400 C 303.752 372.400,304.000 372.240,304.000 372.043 C 304.000 371.847,304.450 371.574,305.000 371.436 C 305.550 371.298,306.000 370.998,306.000 370.769 C 306.000 370.540,306.180 370.464,306.400 370.600 C 306.620 370.736,306.800 370.657,306.800 370.424 C 306.800 370.191,307.068 370.000,307.397 370.000 C 307.725 370.000,308.218 369.640,308.493 369.200 C 308.768 368.760,309.269 368.400,309.608 368.400 C 309.946 368.400,310.483 368.040,310.800 367.600 C 311.117 367.160,311.657 366.800,312.000 366.800 C 312.343 366.800,312.883 366.440,313.200 366.000 C 313.517 365.560,314.057 365.200,314.400 365.200 C 314.743 365.200,315.283 364.840,315.600 364.400 C 315.917 363.960,316.362 363.599,316.588 363.598 C 316.815 363.597,317.575 363.057,318.278 362.398 C 318.981 361.739,319.745 361.200,319.975 361.200 C 320.205 361.200,320.909 360.660,321.540 360.000 C 322.171 359.340,322.990 358.800,323.362 358.800 C 323.733 358.800,324.344 358.255,324.719 357.589 C 325.093 356.923,325.829 356.267,326.353 356.132 C 326.878 355.997,328.150 355.012,329.180 353.943 C 330.210 352.874,331.270 352.000,331.535 352.000 C 332.115 352.000,339.562 344.495,339.270 344.204 C 339.158 344.092,339.322 343.999,339.633 343.999 C 339.945 343.998,340.543 343.486,340.962 342.861 C 341.381 342.235,342.235 341.381,342.861 340.962 C 343.486 340.543,343.998 339.945,343.999 339.633 C 343.999 339.322,344.092 339.158,344.204 339.270 C 344.495 339.562,352.000 332.115,352.000 331.535 C 352.000 331.270,352.874 330.210,353.943 329.180 C 355.012 328.150,355.997 326.878,356.132 326.353 C 356.267 325.829,356.923 325.093,357.589 324.719 C 358.255 324.344,358.800 323.733,358.800 323.362 C 358.800 322.990,359.340 322.171,360.000 321.540 C 360.660 320.909,361.200 320.205,361.200 319.975 C 361.200 319.745,361.739 318.981,362.398 318.278 C 363.057 317.575,363.597 316.815,363.598 316.588 C 363.599 316.362,363.960 315.917,364.400 315.600 C 364.840 315.283,365.200 314.743,365.200 314.400 C 365.200 314.057,365.560 313.517,366.000 313.200 C 366.440 312.883,366.800 312.343,366.800 312.000 C 366.800 311.657,367.160 311.117,367.600 310.800 C 368.040 310.483,368.400 309.946,368.400 309.608 C 368.400 309.269,368.760 308.768,369.200 308.493 C 369.640 308.218,370.000 307.725,370.000 307.397 C 370.000 307.068,370.191 306.800,370.424 306.800 C 370.657 306.800,370.736 306.620,370.600 306.400 C 370.464 306.180,370.540 306.000,370.769 306.000 C 370.998 306.000,371.298 305.550,371.436 305.000 C 371.574 304.450,371.847 304.000,372.043 304.000 C 372.240 304.000,372.400 303.752,372.400 303.449 C 372.400 303.146,372.670 302.674,373.000 302.400 C 373.330 302.126,373.600 301.564,373.600 301.151 C 373.600 300.738,373.853 300.400,374.163 300.400 C 374.528 300.400,374.652 300.120,374.516 299.600 C 374.399 299.153,374.504 298.800,374.753 298.800 C 374.999 298.800,375.200 298.480,375.200 298.088 C 375.200 297.697,375.560 297.117,376.000 296.800 C 376.440 296.483,376.800 295.903,376.800 295.512 C 376.800 295.120,376.980 294.800,377.200 294.800 C 377.420 294.800,377.600 294.440,377.600 294.000 C 377.600 293.560,377.780 293.200,378.000 293.200 C 378.220 293.200,378.400 292.840,378.400 292.400 C 378.400 291.960,378.580 291.600,378.800 291.600 C 379.020 291.600,379.200 291.229,379.200 290.776 C 379.200 290.323,379.380 290.064,379.600 290.200 C 379.828 290.341,380.000 289.996,380.000 289.400 C 380.000 288.804,380.172 288.459,380.400 288.600 C 380.628 288.741,380.800 288.396,380.800 287.800 C 380.800 287.204,380.972 286.859,381.200 287.000 C 381.420 287.136,381.600 286.877,381.600 286.424 C 381.600 285.971,381.780 285.600,382.000 285.600 C 382.220 285.600,382.400 285.251,382.400 284.824 C 382.400 284.397,382.580 283.936,382.800 283.800 C 383.020 283.664,383.200 283.113,383.200 282.576 C 383.200 282.039,383.380 281.600,383.600 281.600 C 383.820 281.600,384.000 281.335,384.000 281.012 C 384.000 280.689,384.360 279.783,384.800 279.000 C 385.240 278.217,385.600 277.347,385.600 277.068 C 385.600 276.341,386.544 274.407,386.900 274.403 C 387.065 274.401,387.200 273.961,387.200 273.424 C 387.200 272.887,387.380 272.336,387.600 272.200 C 387.820 272.064,388.000 271.603,388.000 271.176 C 388.000 270.749,388.180 270.400,388.400 270.400 C 388.620 270.400,388.800 270.097,388.800 269.727 C 388.800 268.992,390.218 264.603,390.800 263.535 C 391.000 263.169,391.285 261.954,391.433 260.835 C 391.582 259.716,391.860 258.800,392.052 258.800 C 392.243 258.800,392.400 258.181,392.400 257.424 C 392.400 256.667,392.580 255.936,392.800 255.800 C 393.020 255.664,393.200 255.113,393.200 254.576 C 393.200 254.039,393.380 253.600,393.600 253.600 C 393.820 253.600,394.000 252.880,394.000 252.000 C 394.000 251.120,394.180 250.400,394.400 250.400 C 394.620 250.400,394.800 249.680,394.800 248.800 C 394.800 247.920,394.980 247.200,395.200 247.200 C 395.420 247.200,395.600 246.480,395.600 245.600 C 395.600 244.720,395.780 244.000,396.000 244.000 C 396.220 244.000,396.400 243.089,396.400 241.976 C 396.400 240.729,396.553 240.048,396.800 240.200 C 397.046 240.352,397.200 239.679,397.200 238.447 C 397.200 237.347,397.380 236.336,397.600 236.200 C 397.820 236.064,398.000 234.973,398.000 233.776 C 398.000 232.579,398.180 231.600,398.400 231.600 C 398.633 231.600,398.800 230.278,398.800 228.433 C 398.800 226.256,398.956 225.215,399.300 225.100 C 399.693 224.969,399.800 219.591,399.800 200.000 C 399.800 180.409,399.693 175.031,399.300 174.900 C 398.956 174.785,398.800 173.744,398.800 171.567 C 398.800 169.722,398.633 168.400,398.400 168.400 C 398.180 168.400,398.000 167.421,398.000 166.224 C 398.000 165.027,397.820 163.936,397.600 163.800 C 397.380 163.664,397.200 162.653,397.200 161.553 C 397.200 160.321,397.046 159.648,396.800 159.800 C 396.553 159.952,396.400 159.271,396.400 158.024 C 396.400 156.911,396.220 156.000,396.000 156.000 C 395.780 156.000,395.600 155.280,395.600 154.400 C 395.600 153.520,395.420 152.800,395.200 152.800 C 394.980 152.800,394.800 152.080,394.800 151.200 C 394.800 150.320,394.620 149.600,394.400 149.600 C 394.180 149.600,394.000 148.880,394.000 148.000 C 394.000 147.120,393.820 146.400,393.600 146.400 C 393.380 146.400,393.200 145.961,393.200 145.424 C 393.200 144.887,393.020 144.336,392.800 144.200 C 392.580 144.064,392.400 143.333,392.400 142.576 C 392.400 141.819,392.243 141.200,392.052 141.200 C 391.860 141.200,391.582 140.284,391.433 139.165 C 391.285 138.046,391.000 136.831,390.800 136.465 C 390.218 135.397,388.800 131.008,388.800 130.273 C 388.800 129.903,388.620 129.600,388.400 129.600 C 388.180 129.600,388.000 129.240,388.000 128.800 C 388.000 128.360,387.820 128.000,387.600 128.000 C 387.380 128.000,387.200 127.460,387.200 126.800 C 387.200 126.140,387.065 125.599,386.900 125.597 C 386.544 125.593,385.600 123.659,385.600 122.932 C 385.600 122.653,385.240 121.783,384.800 121.000 C 384.360 120.217,384.000 119.311,384.000 118.988 C 384.000 118.665,383.820 118.400,383.600 118.400 C 383.380 118.400,383.200 118.040,383.200 117.600 C 383.200 117.160,383.020 116.800,382.800 116.800 C 382.580 116.800,382.400 116.260,382.400 115.600 C 382.400 114.940,382.220 114.400,382.000 114.400 C 381.780 114.400,381.600 114.029,381.600 113.576 C 381.600 113.123,381.420 112.864,381.200 113.000 C 380.972 113.141,380.800 112.796,380.800 112.200 C 380.800 111.604,380.628 111.259,380.400 111.400 C 380.172 111.541,380.000 111.196,380.000 110.600 C 380.000 110.004,379.828 109.659,379.600 109.800 C 379.380 109.936,379.200 109.677,379.200 109.224 C 379.200 108.771,379.020 108.400,378.800 108.400 C 378.580 108.400,378.400 108.040,378.400 107.600 C 378.400 107.160,378.220 106.800,378.000 106.800 C 377.780 106.800,377.600 106.440,377.600 106.000 C 377.600 105.560,377.420 105.200,377.200 105.200 C 376.980 105.200,376.800 104.880,376.800 104.488 C 376.800 104.097,376.440 103.517,376.000 103.200 C 375.560 102.883,375.200 102.303,375.200 101.912 C 375.200 101.520,374.999 101.200,374.753 101.200 C 374.504 101.200,374.399 100.847,374.516 100.400 C 374.652 99.880,374.528 99.600,374.163 99.600 C 373.853 99.600,373.600 99.262,373.600 98.849 C 373.600 98.436,373.330 97.874,373.000 97.600 C 372.670 97.326,372.400 96.854,372.400 96.551 C 372.400 96.248,372.240 96.000,372.043 96.000 C 371.847 96.000,371.574 95.550,371.436 95.000 C 371.298 94.450,370.998 94.000,370.769 94.000 C 370.540 94.000,370.464 93.820,370.600 93.600 C 370.736 93.380,370.657 93.200,370.424 93.200 C 370.191 93.200,370.000 92.932,370.000 92.603 C 370.000 92.275,369.640 91.782,369.200 91.507 C 368.760 91.232,368.400 90.731,368.400 90.392 C 368.400 90.054,368.040 89.517,367.600 89.200 C 367.160 88.883,366.800 88.343,366.800 88.000 C 366.800 87.657,366.440 87.117,366.000 86.800 C 365.560 86.483,365.200 85.943,365.200 85.600 C 365.200 85.257,364.840 84.717,364.400 84.400 C 363.960 84.083,363.599 83.638,363.598 83.412 C 363.597 83.185,363.057 82.425,362.398 81.722 C 361.739 81.019,361.200 80.255,361.200 80.025 C 361.200 79.795,360.660 79.091,360.000 78.460 C 359.340 77.829,358.800 77.010,358.800 76.638 C 358.800 76.267,358.255 75.656,357.589 75.281 C 356.923 74.907,356.267 74.171,356.132 73.647 C 355.997 73.122,355.012 71.850,353.943 70.820 C 352.874 69.790,352.000 68.730,352.000 68.465 C 352.000 67.885,344.495 60.438,344.204 60.730 C 344.092 60.842,343.999 60.678,343.999 60.367 C 343.998 60.055,343.486 59.457,342.861 59.038 C 342.235 58.619,341.381 57.765,340.962 57.139 C 340.543 56.514,339.945 56.002,339.633 56.001 C 339.322 56.001,339.158 55.908,339.270 55.796 C 339.562 55.505,332.115 48.000,331.535 48.000 C 331.270 48.000,330.210 47.126,329.180 46.057 C 328.150 44.988,326.878 44.003,326.353 43.868 C 325.829 43.733,325.093 43.077,324.719 42.411 C 324.344 41.745,323.733 41.200,323.362 41.200 C 322.990 41.200,322.171 40.660,321.540 40.000 C 320.909 39.340,320.205 38.800,319.975 38.800 C 319.745 38.800,318.981 38.261,318.278 37.602 C 317.575 36.943,316.815 36.403,316.588 36.402 C 316.362 36.401,315.917 36.040,315.600 35.600 C 315.283 35.160,314.743 34.800,314.400 34.800 C 314.057 34.800,313.517 34.440,313.200 34.000 C 312.883 33.560,312.343 33.200,312.000 33.200 C 311.657 33.200,311.117 32.840,310.800 32.400 C 310.483 31.960,309.946 31.600,309.608 31.600 C 309.269 31.600,308.768 31.240,308.493 30.800 C 308.218 30.360,307.725 30.000,307.397 30.000 C 307.068 30.000,306.800 29.809,306.800 29.576 C 306.800 29.343,306.620 29.264,306.400 29.400 C 306.180 29.536,306.000 29.460,306.000 29.231 C 306.000 29.002,305.550 28.702,305.000 28.564 C 304.450 28.426,304.000 28.153,304.000 27.957 C 304.000 27.760,303.752 27.600,303.449 27.600 C 303.146 27.600,302.674 27.330,302.400 27.000 C 302.126 26.670,301.564 26.400,301.151 26.400 C 300.738 26.400,300.400 26.147,300.400 25.837 C 300.400 25.472,300.120 25.348,299.600 25.484 C 299.153 25.601,298.800 25.496,298.800 25.247 C 298.800 25.001,298.480 24.800,298.088 24.800 C 297.697 24.800,297.117 24.440,296.800 24.000 C 296.483 23.560,295.903 23.200,295.512 23.200 C 295.120 23.200,294.800 23.020,294.800 22.800 C 294.800 22.580,294.440 22.400,294.000 22.400 C 293.560 22.400,293.200 22.220,293.200 22.000 C 293.200 21.780,292.840 21.600,292.400 21.600 C 291.960 21.600,291.600 21.420,291.600 21.200 C 291.600 20.980,291.229 20.800,290.776 20.800 C 290.323 20.800,290.064 20.620,290.200 20.400 C 290.341 20.172,289.996 20.000,289.400 20.000 C 288.804 20.000,288.459 19.828,288.600 19.600 C 288.741 19.372,288.396 19.200,287.800 19.200 C 287.204 19.200,286.859 19.028,287.000 18.800 C 287.136 18.580,286.877 18.400,286.424 18.400 C 285.971 18.400,285.600 18.220,285.600 18.000 C 285.600 17.780,285.251 17.600,284.824 17.600 C 284.397 17.600,283.936 17.420,283.800 17.200 C 283.664 16.980,283.113 16.800,282.576 16.800 C 282.039 16.800,281.600 16.620,281.600 16.400 C 281.600 16.180,281.335 16.000,281.012 16.000 C 280.689 16.000,279.783 15.640,279.000 15.200 C 278.217 14.760,277.347 14.400,277.068 14.400 C 276.341 14.400,274.407 13.456,274.403 13.100 C 274.401 12.935,273.961 12.800,273.424 12.800 C 272.887 12.800,272.336 12.620,272.200 12.400 C 272.064 12.180,271.603 12.000,271.176 12.000 C 270.749 12.000,270.400 11.820,270.400 11.600 C 270.400 11.380,270.097 11.200,269.727 11.200 C 268.992 11.200,264.603 9.782,263.535 9.200 C 263.169 9.000,261.954 8.715,260.835 8.567 C 259.716 8.418,258.800 8.140,258.800 7.948 C 258.800 7.757,258.181 7.600,257.424 7.600 C 256.667 7.600,255.936 7.420,255.800 7.200 C 255.664 6.980,255.113 6.800,254.576 6.800 C 254.039 6.800,253.600 6.620,253.600 6.400 C 253.600 6.180,252.880 6.000,252.000 6.000 C 251.120 6.000,250.400 5.820,250.400 5.600 C 250.400 5.380,249.680 5.200,248.800 5.200 C 247.920 5.200,247.200 5.020,247.200 4.800 C 247.200 4.580,246.480 4.400,245.600 4.400 C 244.720 4.400,244.000 4.220,244.000 4.000 C 244.000 3.780,243.089 3.600,241.976 3.600 C 240.729 3.600,240.048 3.447,240.200 3.200 C 240.352 2.954,239.679 2.800,238.447 2.800 C 237.347 2.800,236.336 2.620,236.200 2.400 C 236.064 2.180,234.973 2.000,233.776 2.000 C 232.579 2.000,231.600 1.820,231.600 1.600 C 231.600 1.367,230.278 1.200,228.433 1.200 C 226.282 1.200,225.214 1.042,225.103 0.708 C 224.941 0.222,187.291 -0.126,178.300 0.275 M143.133 139.248 C 143.207 139.442,143.792 139.600,144.433 139.600 C 145.075 139.600,145.600 139.780,145.600 140.000 C 145.600 140.220,145.960 140.400,146.400 140.400 C 146.840 140.400,147.200 140.580,147.200 140.800 C 147.200 141.020,147.335 141.176,147.500 141.146 C 148.166 141.028,150.400 141.723,150.400 142.050 C 150.400 142.243,150.673 142.400,151.006 142.400 C 151.693 142.400,157.600 148.153,157.600 148.822 C 157.600 149.061,157.870 149.527,158.200 149.857 C 158.530 150.187,158.800 150.804,158.800 151.229 C 158.800 151.653,158.980 152.000,159.200 152.000 C 159.420 152.000,159.600 152.360,159.600 152.800 C 159.600 153.240,159.780 153.600,160.000 153.600 C 160.220 153.600,160.400 154.140,160.400 154.800 C 160.400 155.460,160.580 156.000,160.800 156.000 C 161.020 156.000,161.200 156.810,161.200 157.800 C 161.200 158.790,161.380 159.600,161.600 159.600 C 161.829 159.600,162.000 160.800,162.000 162.400 C 162.000 164.000,161.829 165.200,161.600 165.200 C 161.380 165.200,161.200 166.089,161.200 167.176 C 161.200 168.263,161.020 169.264,160.800 169.400 C 160.580 169.536,160.400 170.087,160.400 170.624 C 160.400 171.161,160.220 171.600,160.000 171.600 C 159.780 171.600,159.600 171.838,159.600 172.129 C 159.600 172.994,158.180 175.647,157.879 175.345 C 157.725 175.192,157.600 175.365,157.600 175.730 C 157.600 177.205,150.982 183.200,149.354 183.200 C 149.049 183.200,148.799 183.335,148.797 183.500 C 148.793 183.859,146.856 184.800,146.120 184.800 C 145.834 184.800,145.600 184.980,145.600 185.200 C 145.600 185.420,145.060 185.600,144.400 185.600 C 143.740 185.600,143.200 185.780,143.200 186.000 C 143.200 186.247,141.133 186.400,137.800 186.400 C 134.467 186.400,132.400 186.247,132.400 186.000 C 132.400 185.780,131.860 185.600,131.200 185.600 C 130.540 185.600,130.000 185.420,130.000 185.200 C 130.000 184.980,129.460 184.800,128.800 184.800 C 128.140 184.800,127.600 184.620,127.600 184.400 C 127.600 184.180,127.280 184.000,126.888 184.000 C 126.497 184.000,125.917 183.640,125.600 183.200 C 125.283 182.760,124.703 182.400,124.312 182.400 C 123.920 182.400,123.600 182.250,123.600 182.067 C 123.600 181.632,118.368 176.400,117.933 176.400 C 117.750 176.400,117.600 176.040,117.600 175.600 C 117.600 175.160,117.465 174.799,117.300 174.797 C 116.941 174.793,116.000 172.856,116.000 172.120 C 116.000 171.834,115.820 171.600,115.600 171.600 C 115.380 171.600,115.200 171.240,115.200 170.800 C 115.200 170.360,115.020 170.000,114.800 170.000 C 114.580 170.000,114.400 169.280,114.400 168.400 C 114.400 167.520,114.220 166.800,114.000 166.800 C 113.759 166.800,113.600 165.141,113.600 162.624 C 113.600 160.271,113.775 158.339,114.000 158.200 C 114.220 158.064,114.400 157.333,114.400 156.576 C 114.400 155.819,114.580 155.200,114.800 155.200 C 115.020 155.200,115.200 154.840,115.200 154.400 C 115.200 153.960,115.380 153.600,115.600 153.600 C 115.820 153.600,116.000 153.366,116.000 153.080 C 116.000 152.344,116.941 150.407,117.300 150.403 C 117.465 150.401,117.600 150.126,117.600 149.791 C 117.600 149.457,118.590 148.177,119.800 146.947 C 121.010 145.718,122.000 144.552,122.000 144.356 C 122.000 144.160,122.193 144.000,122.429 144.000 C 123.021 144.000,124.018 142.951,123.714 142.648 C 123.578 142.511,123.857 142.400,124.333 142.400 C 124.810 142.400,125.200 142.255,125.200 142.077 C 125.200 141.712,127.781 140.525,129.000 140.329 C 129.440 140.258,129.900 140.066,130.022 139.902 C 130.145 139.738,130.730 139.564,131.322 139.515 C 131.915 139.466,132.400 139.293,132.400 139.131 C 132.400 138.453,142.875 138.567,143.133 139.248 M268.580 139.247 C 268.789 139.441,269.374 139.600,269.880 139.600 C 270.386 139.600,270.800 139.780,270.800 140.000 C 270.800 140.220,271.049 140.400,271.354 140.400 C 271.659 140.400,272.424 140.669,273.054 140.998 C 273.684 141.326,274.526 141.596,274.924 141.598 C 275.322 141.599,275.536 141.780,275.400 142.000 C 275.264 142.220,275.429 142.400,275.766 142.400 C 276.474 142.400,282.400 147.968,282.400 148.633 C 282.400 148.877,282.760 149.402,283.200 149.800 C 283.640 150.198,284.000 150.856,284.000 151.262 C 284.000 151.668,284.180 152.000,284.400 152.000 C 284.620 152.000,284.800 152.360,284.800 152.800 C 284.800 153.240,284.980 153.600,285.200 153.600 C 285.420 153.600,285.600 154.050,285.600 154.600 C 285.600 155.150,285.780 155.600,286.000 155.600 C 286.220 155.600,286.400 156.500,286.400 157.600 C 286.400 158.700,286.580 159.600,286.800 159.600 C 287.029 159.600,287.200 160.800,287.200 162.400 C 287.200 164.000,287.029 165.200,286.800 165.200 C 286.580 165.200,286.400 166.100,286.400 167.200 C 286.400 168.300,286.220 169.200,286.000 169.200 C 285.780 169.200,285.600 169.740,285.600 170.400 C 285.600 171.060,285.420 171.600,285.200 171.600 C 284.980 171.600,284.800 171.960,284.800 172.400 C 284.800 172.840,284.620 173.200,284.400 173.200 C 284.180 173.200,284.000 173.483,284.000 173.829 C 284.000 174.574,283.003 175.669,282.648 175.314 C 282.511 175.178,282.400 175.381,282.400 175.766 C 282.400 176.651,276.688 182.400,275.809 182.400 C 275.448 182.400,275.264 182.580,275.400 182.800 C 275.536 183.020,275.277 183.200,274.824 183.200 C 274.371 183.200,274.000 183.380,274.000 183.600 C 274.000 183.820,273.640 184.000,273.200 184.000 C 272.760 184.000,272.400 184.180,272.400 184.400 C 272.400 184.620,272.040 184.800,271.600 184.800 C 271.160 184.800,270.800 184.980,270.800 185.200 C 270.800 185.420,270.275 185.600,269.633 185.600 C 268.992 185.600,268.404 185.787,268.328 186.015 C 268.141 186.577,257.458 186.574,257.271 186.012 C 257.195 185.786,256.698 185.600,256.167 185.600 C 255.635 185.600,255.200 185.420,255.200 185.200 C 255.200 184.980,254.748 184.800,254.195 184.800 C 253.061 184.800,251.724 184.139,250.757 183.100 C 250.399 182.715,249.890 182.400,249.626 182.400 C 249.362 182.400,248.092 181.336,246.804 180.036 C 245.516 178.736,244.358 177.776,244.231 177.903 C 244.104 178.029,244.000 177.910,244.000 177.638 C 244.000 176.995,242.969 175.964,242.648 176.286 C 242.511 176.422,242.400 176.143,242.400 175.667 C 242.400 175.190,242.220 174.800,242.000 174.800 C 241.780 174.800,241.600 174.482,241.600 174.094 C 241.600 173.706,241.240 172.716,240.799 171.894 C 240.359 171.072,240.134 170.397,240.299 170.394 C 240.465 170.391,240.383 170.250,240.118 170.082 C 239.854 169.913,239.592 169.106,239.537 168.288 C 239.482 167.470,239.282 166.800,239.093 166.800 C 238.716 166.800,238.953 159.088,239.404 156.700 C 239.560 155.875,239.848 155.200,240.044 155.200 C 240.240 155.200,240.406 154.795,240.413 154.300 C 240.420 153.805,240.690 153.051,241.013 152.624 C 241.336 152.196,241.600 151.521,241.600 151.124 C 241.600 150.726,241.780 150.400,242.000 150.400 C 242.220 150.400,242.400 150.127,242.400 149.794 C 242.400 149.005,249.005 142.400,249.794 142.400 C 250.127 142.400,250.400 142.232,250.400 142.027 C 250.400 141.647,251.954 140.977,252.500 141.121 C 252.665 141.164,252.800 141.020,252.800 140.800 C 252.800 140.580,253.340 140.400,254.000 140.400 C 254.660 140.400,255.200 140.241,255.200 140.047 C 255.200 138.860,267.379 138.132,268.580 139.247 M119.200 250.800 C 119.200 251.020,119.920 251.200,120.800 251.200 C 121.680 251.200,122.400 251.380,122.400 251.600 C 122.400 251.820,122.760 252.000,123.200 252.000 C 123.640 252.000,124.000 252.180,124.000 252.400 C 124.000 252.620,124.338 252.800,124.751 252.800 C 125.586 252.800,126.541 253.726,126.130 254.137 C 125.985 254.282,126.177 254.400,126.557 254.400 C 126.937 254.400,127.136 254.580,127.000 254.800 C 126.864 255.020,127.044 255.200,127.400 255.200 C 127.756 255.200,127.936 255.380,127.800 255.600 C 127.664 255.820,127.844 256.000,128.200 256.000 C 128.556 256.000,128.760 256.141,128.653 256.313 C 128.547 256.486,129.024 257.071,129.714 257.613 C 130.403 258.156,132.818 260.445,135.079 262.700 C 137.341 264.955,139.418 266.802,139.695 266.804 C 139.973 266.806,140.625 267.346,141.145 268.004 C 141.665 268.662,142.414 269.200,142.809 269.200 C 143.205 269.200,143.983 269.740,144.539 270.400 C 145.094 271.060,145.712 271.600,145.912 271.600 C 146.112 271.600,146.602 271.960,147.000 272.400 C 147.398 272.840,147.965 273.200,148.259 273.200 C 148.553 273.200,149.003 273.536,149.259 273.946 C 149.539 274.395,150.019 274.616,150.463 274.500 C 150.868 274.393,151.200 274.508,151.200 274.753 C 151.200 274.999,151.520 275.200,151.912 275.200 C 152.303 275.200,152.883 275.560,153.200 276.000 C 153.517 276.440,154.097 276.800,154.488 276.800 C 154.880 276.800,155.200 276.980,155.200 277.200 C 155.200 277.420,155.560 277.600,156.000 277.600 C 156.440 277.600,156.800 277.780,156.800 278.000 C 156.800 278.220,157.160 278.400,157.600 278.400 C 158.040 278.400,158.400 278.580,158.400 278.800 C 158.400 279.020,158.771 279.200,159.224 279.200 C 159.677 279.200,159.936 279.380,159.800 279.600 C 159.659 279.828,160.004 280.000,160.600 280.000 C 161.196 280.000,161.541 280.172,161.400 280.400 C 161.262 280.624,161.569 280.800,162.097 280.800 C 163.169 280.800,165.192 281.648,165.197 282.100 C 165.199 282.265,165.729 282.400,166.376 282.400 C 167.023 282.400,167.664 282.580,167.800 282.800 C 167.936 283.020,168.487 283.200,169.024 283.200 C 169.561 283.200,170.000 283.380,170.000 283.600 C 170.000 283.820,170.540 284.000,171.200 284.000 C 171.860 284.000,172.400 284.180,172.400 284.400 C 172.400 284.620,173.131 284.800,174.024 284.800 C 175.004 284.800,175.549 284.958,175.400 285.200 C 175.251 285.442,175.796 285.600,176.776 285.600 C 177.669 285.600,178.400 285.780,178.400 286.000 C 178.400 286.220,179.300 286.400,180.400 286.400 C 181.500 286.400,182.400 286.580,182.400 286.800 C 182.400 287.022,183.467 287.200,184.800 287.200 C 186.133 287.200,187.200 287.378,187.200 287.600 C 187.200 287.858,191.733 288.000,200.000 288.000 C 208.267 288.000,212.800 287.858,212.800 287.600 C 212.800 287.371,214.000 287.200,215.600 287.200 C 217.200 287.200,218.400 287.029,218.400 286.800 C 218.400 286.580,219.120 286.400,220.000 286.400 C 220.880 286.400,221.600 286.220,221.600 286.000 C 221.600 285.780,222.331 285.600,223.224 285.600 C 224.204 285.600,224.749 285.442,224.600 285.200 C 224.451 284.958,224.996 284.800,225.976 284.800 C 226.869 284.800,227.600 284.620,227.600 284.400 C 227.600 284.180,228.140 284.000,228.800 284.000 C 229.460 284.000,230.000 283.820,230.000 283.600 C 230.000 283.380,230.439 283.200,230.976 283.200 C 231.513 283.200,232.064 283.020,232.200 282.800 C 232.336 282.580,232.977 282.400,233.624 282.400 C 234.271 282.400,234.801 282.265,234.803 282.100 C 234.808 281.648,236.831 280.800,237.903 280.800 C 238.431 280.800,238.738 280.624,238.600 280.400 C 238.459 280.172,238.804 280.000,239.400 280.000 C 239.996 280.000,240.341 279.828,240.200 279.600 C 240.064 279.380,240.323 279.200,240.776 279.200 C 241.229 279.200,241.600 279.020,241.600 278.800 C 241.600 278.580,241.960 278.400,242.400 278.400 C 242.840 278.400,243.200 278.220,243.200 278.000 C 243.200 277.780,243.560 277.600,244.000 277.600 C 244.440 277.600,244.800 277.420,244.800 277.200 C 244.800 276.980,245.120 276.800,245.512 276.800 C 245.903 276.800,246.483 276.440,246.800 276.000 C 247.117 275.560,247.697 275.200,248.088 275.200 C 248.480 275.200,248.800 274.999,248.800 274.753 C 248.800 274.508,249.132 274.393,249.537 274.500 C 249.981 274.616,250.461 274.395,250.741 273.946 C 250.997 273.536,251.447 273.200,251.741 273.200 C 252.035 273.200,252.602 272.840,253.000 272.400 C 253.398 271.960,253.888 271.600,254.088 271.600 C 254.288 271.600,254.906 271.060,255.461 270.400 C 256.017 269.740,256.795 269.200,257.191 269.200 C 257.586 269.200,258.335 268.662,258.855 268.004 C 259.375 267.346,260.027 266.806,260.305 266.804 C 260.582 266.802,262.659 264.955,264.921 262.700 C 267.182 260.445,269.597 258.156,270.286 257.613 C 270.976 257.071,271.453 256.486,271.347 256.313 C 271.240 256.141,271.444 256.000,271.800 256.000 C 272.156 256.000,272.336 255.820,272.200 255.600 C 272.064 255.380,272.244 255.200,272.600 255.200 C 272.956 255.200,273.136 255.020,273.000 254.800 C 272.864 254.580,273.063 254.400,273.443 254.400 C 273.823 254.400,274.015 254.282,273.870 254.137 C 273.459 253.726,274.414 252.800,275.249 252.800 C 275.662 252.800,276.000 252.620,276.000 252.400 C 276.000 252.180,276.360 252.000,276.800 252.000 C 277.240 252.000,277.600 251.820,277.600 251.600 C 277.600 251.380,278.305 251.200,279.167 251.200 C 280.029 251.200,280.838 250.975,280.967 250.700 C 281.153 250.300,281.247 250.300,281.433 250.700 C 281.562 250.975,282.371 251.200,283.233 251.200 C 284.095 251.200,284.800 251.380,284.800 251.600 C 284.800 251.820,285.160 252.000,285.600 252.000 C 286.040 252.000,286.400 252.180,286.400 252.400 C 286.400 252.620,286.682 252.800,287.027 252.800 C 287.954 252.800,291.098 256.027,291.415 257.304 C 291.565 257.911,291.849 258.506,292.044 258.627 C 292.517 258.919,292.504 265.888,292.031 266.181 C 291.828 266.306,291.536 266.980,291.383 267.677 C 291.218 268.429,290.310 269.718,289.152 270.846 C 288.079 271.892,287.200 272.948,287.200 273.192 C 287.200 273.436,286.750 274.086,286.200 274.636 C 285.650 275.186,285.200 275.553,285.200 275.452 C 285.200 275.350,284.570 275.879,283.800 276.626 C 283.030 277.374,282.400 278.157,282.400 278.366 C 282.400 278.575,281.995 278.873,281.500 279.028 C 280.355 279.386,278.366 281.033,278.689 281.356 C 278.823 281.490,278.741 281.600,278.507 281.600 C 277.950 281.600,275.242 284.308,275.520 284.587 C 275.637 284.704,275.419 284.800,275.035 284.800 C 274.651 284.800,273.646 285.520,272.800 286.400 C 271.954 287.280,271.018 288.000,270.720 288.000 C 270.421 288.000,269.917 288.360,269.600 288.800 C 269.283 289.240,268.746 289.600,268.407 289.600 C 268.067 289.600,267.452 290.050,267.039 290.600 C 266.626 291.150,265.998 291.606,265.644 291.613 C 264.810 291.629,263.600 292.552,263.600 293.171 C 263.600 293.472,263.298 293.558,262.800 293.400 C 262.341 293.254,262.000 293.328,262.000 293.573 C 262.000 293.808,261.728 294.000,261.396 294.000 C 261.064 294.000,260.228 294.540,259.537 295.200 C 258.846 295.860,257.948 296.400,257.541 296.400 C 257.133 296.400,256.800 296.580,256.800 296.800 C 256.800 297.020,256.483 297.200,256.096 297.200 C 255.709 297.200,255.168 297.560,254.893 298.000 C 254.618 298.440,254.035 298.800,253.597 298.800 C 253.158 298.800,252.800 298.980,252.800 299.200 C 252.800 299.420,252.440 299.600,252.000 299.600 C 251.560 299.600,251.200 299.780,251.200 300.000 C 251.200 300.220,250.840 300.400,250.400 300.400 C 249.960 300.400,249.600 300.580,249.600 300.800 C 249.600 301.020,249.161 301.200,248.624 301.200 C 248.087 301.200,247.536 301.380,247.400 301.600 C 247.264 301.820,246.803 302.000,246.376 302.000 C 245.949 302.000,245.600 302.180,245.600 302.400 C 245.600 302.620,245.330 302.800,245.000 302.800 C 244.670 302.800,244.400 302.980,244.400 303.200 C 244.400 303.420,243.871 303.600,243.224 303.600 C 242.577 303.600,241.936 303.780,241.800 304.000 C 241.664 304.220,241.113 304.400,240.576 304.400 C 240.039 304.400,239.600 304.580,239.600 304.800 C 239.600 305.020,239.240 305.200,238.800 305.200 C 238.360 305.200,238.000 305.380,238.000 305.600 C 238.000 305.820,237.460 306.000,236.800 306.000 C 236.140 306.000,235.600 306.180,235.600 306.400 C 235.600 306.620,234.880 306.800,234.000 306.800 C 233.120 306.800,232.400 306.980,232.400 307.200 C 232.400 307.420,231.961 307.600,231.424 307.600 C 230.887 307.600,230.336 307.780,230.200 308.000 C 230.064 308.220,229.233 308.400,228.353 308.400 C 227.473 308.400,226.838 308.538,226.943 308.707 C 227.047 308.876,226.424 308.947,225.559 308.865 C 224.693 308.782,223.757 308.903,223.479 309.134 C 223.201 309.365,222.124 309.598,221.087 309.652 C 220.049 309.706,219.200 309.896,219.200 310.075 C 219.200 310.254,217.886 310.400,216.280 310.400 C 214.674 310.400,213.188 310.572,212.978 310.782 C 212.768 310.992,210.032 311.190,206.898 311.222 C 203.764 311.253,201.200 311.441,201.200 311.639 C 201.200 311.838,200.660 312.000,200.000 312.000 C 199.340 312.000,198.800 311.838,198.800 311.639 C 198.800 311.441,196.236 311.253,193.102 311.222 C 189.968 311.190,187.232 310.992,187.022 310.782 C 186.812 310.572,185.326 310.400,183.720 310.400 C 182.114 310.400,180.800 310.254,180.800 310.075 C 180.800 309.896,179.951 309.706,178.913 309.652 C 177.876 309.598,176.799 309.365,176.521 309.134 C 176.243 308.903,175.307 308.782,174.441 308.865 C 173.576 308.947,172.953 308.876,173.057 308.707 C 173.162 308.538,172.527 308.400,171.647 308.400 C 170.767 308.400,169.936 308.220,169.800 308.000 C 169.664 307.780,169.113 307.600,168.576 307.600 C 168.039 307.600,167.600 307.420,167.600 307.200 C 167.600 306.980,166.880 306.800,166.000 306.800 C 165.120 306.800,164.400 306.620,164.400 306.400 C 164.400 306.180,163.860 306.000,163.200 306.000 C 162.540 306.000,162.000 305.820,162.000 305.600 C 162.000 305.380,161.640 305.200,161.200 305.200 C 160.760 305.200,160.400 305.020,160.400 304.800 C 160.400 304.580,159.961 304.400,159.424 304.400 C 158.887 304.400,158.336 304.220,158.200 304.000 C 158.064 303.780,157.423 303.600,156.776 303.600 C 156.129 303.600,155.600 303.420,155.600 303.200 C 155.600 302.980,155.330 302.800,155.000 302.800 C 154.670 302.800,154.400 302.620,154.400 302.400 C 154.400 302.180,154.166 302.000,153.880 302.000 C 153.144 302.000,151.207 301.059,151.203 300.700 C 151.201 300.535,150.660 300.400,150.000 300.400 C 149.340 300.400,148.800 300.220,148.800 300.000 C 148.800 299.780,148.440 299.600,148.000 299.600 C 147.560 299.600,147.200 299.420,147.200 299.200 C 147.200 298.980,146.842 298.800,146.403 298.800 C 145.965 298.800,145.382 298.440,145.107 298.000 C 144.832 297.560,144.291 297.200,143.904 297.200 C 143.517 297.200,143.200 297.020,143.200 296.800 C 143.200 296.580,142.867 296.400,142.459 296.400 C 142.052 296.400,141.154 295.860,140.463 295.200 C 139.772 294.540,138.936 294.000,138.604 294.000 C 138.272 294.000,138.000 293.808,138.000 293.573 C 138.000 293.328,137.659 293.254,137.200 293.400 C 136.702 293.558,136.400 293.472,136.400 293.171 C 136.400 292.552,135.190 291.629,134.356 291.613 C 134.002 291.606,133.374 291.150,132.961 290.600 C 132.548 290.050,131.933 289.600,131.593 289.600 C 131.254 289.600,130.717 289.240,130.400 288.800 C 130.083 288.360,129.579 288.000,129.280 288.000 C 128.982 288.000,128.046 287.280,127.200 286.400 C 126.354 285.520,125.349 284.800,124.965 284.800 C 124.581 284.800,124.381 284.686,124.521 284.546 C 124.660 284.406,124.156 283.801,123.400 283.200 C 122.644 282.599,122.140 281.994,122.279 281.854 C 122.419 281.714,122.203 281.600,121.800 281.600 C 121.397 281.600,121.177 281.490,121.311 281.356 C 121.634 281.033,119.645 279.386,118.500 279.028 C 118.005 278.873,117.600 278.478,117.600 278.149 C 117.600 277.821,117.420 277.664,117.200 277.800 C 116.980 277.936,116.800 277.865,116.800 277.642 C 116.800 277.419,116.350 276.786,115.800 276.236 C 115.250 275.686,114.800 275.326,114.800 275.436 C 114.800 275.546,114.350 275.186,113.800 274.636 C 113.250 274.086,112.800 273.436,112.800 273.192 C 112.800 272.948,111.921 271.892,110.848 270.846 C 109.690 269.718,108.782 268.429,108.617 267.677 C 108.464 266.980,108.172 266.306,107.969 266.181 C 107.766 266.055,107.600 265.233,107.600 264.353 C 107.600 263.467,107.434 262.856,107.228 262.983 C 106.547 263.404,106.339 262.404,106.974 261.768 C 107.319 261.424,107.600 260.626,107.600 259.995 C 107.600 259.364,107.760 258.748,107.956 258.627 C 108.151 258.506,108.435 257.911,108.585 257.304 C 108.902 256.027,112.046 252.800,112.973 252.800 C 113.318 252.800,113.600 252.620,113.600 252.400 C 113.600 252.180,113.960 252.000,114.400 252.000 C 114.840 252.000,115.200 251.820,115.200 251.600 C 115.200 251.380,115.920 251.200,116.800 251.200 C 117.680 251.200,118.400 251.020,118.400 250.800 C 118.400 250.580,118.580 250.400,118.800 250.400 C 119.020 250.400,119.200 250.580,119.200 250.800 " stroke="none" fill="#4c5c8c" fill-rule="evenodd"></path><path id="path1" d="M143.200 269.348 C 143.200 269.507,143.650 270.086,144.200 270.636 C 144.750 271.186,145.200 271.480,145.200 271.288 C 145.200 271.096,144.750 270.517,144.200 270.000 C 143.650 269.483,143.200 269.190,143.200 269.348 M255.668 270.127 C 254.435 271.440,254.587 271.849,255.842 270.594 C 256.416 270.021,256.806 269.473,256.711 269.377 C 256.615 269.282,256.146 269.619,255.668 270.127 " stroke="none" fill="#505c8c" fill-rule="evenodd"></path><path id="path2" d="M143.200 269.348 C 143.200 269.507,143.650 270.086,144.200 270.636 C 144.750 271.186,145.200 271.480,145.200 271.288 C 145.200 271.096,144.750 270.517,144.200 270.000 C 143.650 269.483,143.200 269.190,143.200 269.348 M255.668 270.127 C 254.435 271.440,254.587 271.849,255.842 270.594 C 256.416 270.021,256.806 269.473,256.711 269.377 C 256.615 269.282,256.146 269.619,255.668 270.127 " stroke="none" fill="#505c8c" fill-rule="evenodd"></path><path id="path3" d="M143.200 269.348 C 143.200 269.507,143.650 270.086,144.200 270.636 C 144.750 271.186,145.200 271.480,145.200 271.288 C 145.200 271.096,144.750 270.517,144.200 270.000 C 143.650 269.483,143.200 269.190,143.200 269.348 M255.668 270.127 C 254.435 271.440,254.587 271.849,255.842 270.594 C 256.416 270.021,256.806 269.473,256.711 269.377 C 256.615 269.282,256.146 269.619,255.668 270.127 " stroke="none" fill="#505c8c" fill-rule="evenodd"></path><path id="path4" d="M143.200 269.348 C 143.200 269.507,143.650 270.086,144.200 270.636 C 144.750 271.186,145.200 271.480,145.200 271.288 C 145.200 271.096,144.750 270.517,144.200 270.000 C 143.650 269.483,143.200 269.190,143.200 269.348 M255.668 270.127 C 254.435 271.440,254.587 271.849,255.842 270.594 C 256.416 270.021,256.806 269.473,256.711 269.377 C 256.615 269.282,256.146 269.619,255.668 270.127 " stroke="none" fill="#505c8c" fill-rule="evenodd"></path></g></svg>