 <svg  version="1.0" xmlns="http://www.w3.org/2000/svg"  width="300.000000pt" height="300.000000pt" viewBox="0 0 300.000000 300.000000"  preserveAspectRatio="xMidYMid meet">  <g transform="translate(0.000000,300.000000) scale(0.100000,-0.100000)" fill="#4caf50" stroke="none"> <path d="M1354 2990 c-358 -41 -661 -186 -909 -435 -515 -516 -586 -1301 -172 -1909 79 -117 256 -294 373 -373 540 -367 1222 -357 1744 25 341 250 556 634 601 1070 31 296 -47 632 -206 897 -72 120 -109 168 -210 274 -219 230 -504 380 -830 437 -102 18 -299 25 -391 14z m987 -800 c77 -40 118 -147 89 -236 -10 -31 -120 -147 -554 -582 -310 -312 -557 -552 -579 -563 -43 -23 -116 -27 -162 -9 -43 16 -532 505 -556 555 -69 148 70 308 232 265 37 -10 70 -38 219 -186 l176 -173 444 445 c245 245 458 455 474 466 69 51 140 57 217 18z"/> </g> </svg> 