<svg id="svg" version="1.1" xmlns="http://www.w3.org/2000/svg" xmlns:xlink="http://www.w3.org/1999/xlink" width="400" height="457.14285714285717" viewBox="0, 0, 400,457.14285714285717"><g id="svgg"><path id="path0" d="M182.412 0.275 C 180.768 0.365,179.324 0.599,179.203 0.795 C 179.082 0.991,177.944 1.194,176.675 1.245 C 174.948 1.315,174.419 1.472,174.571 1.869 C 174.721 2.261,174.313 2.400,173.011 2.400 C 172.041 2.400,171.136 2.580,171.000 2.800 C 170.864 3.020,170.043 3.200,169.176 3.200 C 168.309 3.200,167.600 3.380,167.600 3.600 C 167.600 3.820,167.096 4.000,166.480 4.000 C 165.864 4.000,165.186 4.174,164.973 4.387 C 164.761 4.599,164.005 4.817,163.293 4.872 C 162.556 4.928,162.000 5.192,162.000 5.485 C 162.000 5.791,161.512 6.000,160.800 6.000 C 160.140 6.000,159.600 6.180,159.600 6.400 C 159.600 6.620,159.150 6.800,158.600 6.800 C 158.050 6.800,157.600 6.980,157.600 7.200 C 157.600 7.420,157.071 7.600,156.424 7.600 C 155.777 7.600,155.136 7.780,155.000 8.000 C 154.864 8.220,154.403 8.400,153.976 8.400 C 153.530 8.400,153.200 8.673,153.200 9.043 C 153.200 9.538,152.957 9.626,152.149 9.423 C 151.305 9.211,151.145 9.281,151.337 9.780 C 151.524 10.267,151.277 10.400,150.187 10.400 C 149.424 10.400,148.800 10.580,148.800 10.800 C 148.800 11.020,148.350 11.200,147.800 11.200 C 147.250 11.200,146.800 11.380,146.800 11.600 C 146.800 11.820,146.524 12.000,146.187 12.000 C 145.851 12.000,145.472 12.269,145.346 12.598 C 145.219 12.926,144.954 13.095,144.755 12.972 C 144.557 12.850,144.286 13.031,144.154 13.375 C 144.022 13.719,143.574 14.000,143.157 14.000 C 142.741 14.000,142.400 14.180,142.400 14.400 C 142.400 14.620,142.040 14.800,141.600 14.800 C 141.160 14.800,140.800 14.980,140.800 15.200 C 140.800 15.420,140.350 15.600,139.800 15.600 C 139.161 15.600,138.800 15.825,138.800 16.224 C 138.800 16.567,138.620 16.736,138.400 16.600 C 138.180 16.464,138.000 16.543,138.000 16.776 C 138.000 17.009,137.729 17.200,137.397 17.200 C 137.066 17.200,136.403 17.650,135.925 18.200 C 135.447 18.750,134.805 19.200,134.499 19.200 C 133.820 19.200,132.800 20.169,132.800 20.814 C 132.800 21.073,132.530 21.182,132.200 21.055 C 131.835 20.915,131.600 21.055,131.600 21.413 C 131.600 21.736,131.280 22.000,130.888 22.000 C 130.497 22.000,129.917 22.360,129.600 22.800 C 129.283 23.240,128.793 23.600,128.512 23.600 C 128.230 23.600,128.000 23.780,128.000 24.000 C 128.000 24.220,127.755 24.400,127.456 24.400 C 127.157 24.400,126.574 24.850,126.161 25.400 C 125.748 25.950,125.260 26.400,125.076 26.400 C 124.589 26.400,123.600 27.469,123.600 27.995 C 123.600 28.244,123.447 28.353,123.260 28.237 C 123.073 28.122,122.683 28.471,122.393 29.014 C 122.102 29.556,121.742 30.000,121.592 30.000 C 121.219 30.000,119.178 32.002,118.205 33.322 C 117.768 33.915,117.183 34.400,116.905 34.400 C 116.627 34.400,116.396 34.535,116.391 34.700 C 116.376 35.164,113.726 38.000,113.307 38.000 C 113.102 38.000,112.694 38.450,112.400 38.999 C 112.106 39.549,111.784 39.918,111.685 39.818 C 111.338 39.471,110.400 40.751,110.400 41.571 C 110.400 42.027,110.207 42.400,109.971 42.400 C 109.468 42.400,108.187 43.594,108.671 43.612 C 108.852 43.619,108.685 43.808,108.300 44.032 C 107.915 44.256,107.600 44.791,107.600 45.220 C 107.600 45.649,107.450 46.000,107.268 46.000 C 107.085 46.000,106.699 46.441,106.410 46.981 C 106.122 47.520,105.690 47.925,105.452 47.881 C 105.214 47.836,104.956 48.212,104.880 48.715 C 104.803 49.219,104.394 49.847,103.970 50.111 C 103.547 50.376,103.200 50.909,103.200 51.296 C 103.200 51.683,103.020 52.000,102.800 52.000 C 102.580 52.000,102.400 52.270,102.400 52.600 C 102.400 52.930,102.233 53.200,102.029 53.200 C 101.602 53.200,100.400 55.459,100.400 56.261 C 100.400 56.558,100.220 56.800,100.000 56.800 C 99.780 56.800,99.600 57.083,99.600 57.429 C 99.600 58.151,98.665 59.200,98.021 59.200 C 97.755 59.200,97.683 59.591,97.836 60.200 C 98.026 60.956,97.930 61.200,97.443 61.200 C 97.020 61.200,96.800 61.550,96.800 62.224 C 96.800 62.804,96.627 63.140,96.400 63.000 C 96.173 62.860,96.000 63.196,96.000 63.776 C 96.000 64.339,95.820 64.800,95.600 64.800 C 95.380 64.800,95.200 65.340,95.200 66.000 C 95.200 66.660,95.023 67.200,94.808 67.200 C 94.592 67.200,94.302 67.650,94.164 68.200 C 94.026 68.750,93.753 69.200,93.557 69.200 C 93.360 69.200,93.221 69.335,93.247 69.500 C 93.390 70.404,93.148 71.215,92.800 71.000 C 92.562 70.853,92.400 71.329,92.400 72.176 C 92.400 72.959,92.220 73.600,92.000 73.600 C 91.780 73.600,91.600 74.230,91.600 75.000 C 91.600 75.770,91.431 76.400,91.225 76.400 C 91.019 76.400,90.794 76.985,90.725 77.700 C 90.650 78.478,90.399 78.960,90.100 78.900 C 89.825 78.845,89.621 78.935,89.647 79.100 C 89.828 80.242,89.535 82.007,89.200 81.800 C 88.956 81.649,88.800 82.255,88.800 83.353 C 88.800 84.343,88.620 85.264,88.400 85.400 C 88.180 85.536,88.000 86.357,88.000 87.224 C 88.000 88.091,87.820 88.800,87.600 88.800 C 87.380 88.800,87.200 89.771,87.200 90.957 C 87.200 92.506,87.031 93.179,86.600 93.345 C 86.140 93.521,86.000 94.279,86.000 96.587 C 86.000 98.329,85.831 99.600,85.600 99.600 C 85.341 99.600,85.200 104.733,85.200 114.200 C 85.200 123.667,85.341 128.800,85.600 128.800 C 85.831 128.800,86.000 130.071,86.000 131.813 C 86.000 134.121,86.140 134.879,86.600 135.055 C 87.031 135.221,87.200 135.894,87.200 137.443 C 87.200 138.629,87.380 139.600,87.600 139.600 C 87.820 139.600,88.000 140.309,88.000 141.176 C 88.000 142.043,88.180 142.864,88.400 143.000 C 88.620 143.136,88.800 144.057,88.800 145.047 C 88.800 146.145,88.956 146.751,89.200 146.600 C 89.535 146.393,89.828 148.158,89.647 149.300 C 89.621 149.465,89.825 149.555,90.100 149.500 C 90.399 149.440,90.650 149.922,90.725 150.700 C 90.794 151.415,91.019 152.000,91.225 152.000 C 91.431 152.000,91.600 152.630,91.600 153.400 C 91.600 154.170,91.780 154.800,92.000 154.800 C 92.220 154.800,92.400 155.441,92.400 156.224 C 92.400 157.071,92.562 157.547,92.800 157.400 C 93.148 157.185,93.390 157.996,93.247 158.900 C 93.221 159.065,93.360 159.200,93.557 159.200 C 93.753 159.200,94.026 159.650,94.164 160.200 C 94.302 160.750,94.592 161.200,94.808 161.200 C 95.023 161.200,95.200 161.560,95.200 162.000 C 95.200 162.440,95.380 162.800,95.600 162.800 C 95.820 162.800,96.000 163.441,96.000 164.224 C 96.000 165.071,96.162 165.547,96.400 165.400 C 96.627 165.260,96.800 165.596,96.800 166.176 C 96.800 166.850,97.020 167.200,97.443 167.200 C 97.930 167.200,98.026 167.444,97.836 168.200 C 97.683 168.809,97.755 169.200,98.021 169.200 C 98.665 169.200,99.600 170.249,99.600 170.971 C 99.600 171.317,99.780 171.600,100.000 171.600 C 100.220 171.600,100.400 171.842,100.400 172.139 C 100.400 172.941,101.602 175.200,102.029 175.200 C 102.233 175.200,102.400 175.470,102.400 175.800 C 102.400 176.130,102.580 176.400,102.800 176.400 C 103.020 176.400,103.200 176.717,103.200 177.104 C 103.200 177.491,103.560 178.032,104.000 178.307 C 104.440 178.582,104.804 179.120,104.809 179.503 C 104.813 179.887,105.443 180.738,106.209 181.396 C 106.974 182.054,107.600 182.900,107.600 183.276 C 107.600 183.652,107.915 184.144,108.300 184.368 C 108.685 184.592,108.852 184.781,108.671 184.788 C 108.187 184.806,109.468 186.000,109.971 186.000 C 110.207 186.000,110.400 186.373,110.400 186.829 C 110.400 187.649,111.338 188.929,111.685 188.582 C 111.784 188.482,112.106 188.851,112.400 189.401 C 112.694 189.950,113.102 190.400,113.307 190.400 C 113.726 190.400,116.376 193.236,116.391 193.700 C 116.396 193.865,116.627 194.000,116.905 194.000 C 117.183 194.000,117.768 194.485,118.205 195.078 C 119.178 196.398,121.219 198.400,121.592 198.400 C 121.742 198.400,122.102 198.844,122.393 199.386 C 122.683 199.929,123.073 200.278,123.260 200.163 C 123.447 200.047,123.600 200.156,123.600 200.405 C 123.600 200.931,124.589 202.000,125.076 202.000 C 125.260 202.000,125.748 202.450,126.161 203.000 C 126.574 203.550,127.157 204.000,127.456 204.000 C 127.755 204.000,128.000 204.180,128.000 204.400 C 128.000 204.620,128.230 204.800,128.512 204.800 C 128.793 204.800,129.283 205.160,129.600 205.600 C 129.917 206.040,130.497 206.400,130.888 206.400 C 131.280 206.400,131.600 206.664,131.600 206.987 C 131.600 207.345,131.835 207.485,132.200 207.345 C 132.530 207.218,132.800 207.327,132.800 207.586 C 132.800 208.231,133.820 209.200,134.499 209.200 C 134.805 209.200,135.447 209.650,135.925 210.200 C 136.403 210.750,137.066 211.200,137.397 211.200 C 137.729 211.200,138.000 211.391,138.000 211.624 C 138.000 211.857,138.180 211.936,138.400 211.800 C 138.620 211.664,138.800 211.833,138.800 212.176 C 138.800 212.575,139.161 212.800,139.800 212.800 C 140.350 212.800,140.800 212.980,140.800 213.200 C 140.800 213.420,141.160 213.600,141.600 213.600 C 142.040 213.600,142.400 213.780,142.400 214.000 C 142.400 214.220,142.741 214.400,143.157 214.400 C 143.574 214.400,144.022 214.681,144.154 215.025 C 144.286 215.369,144.564 215.546,144.771 215.418 C 144.979 215.290,145.602 215.638,146.156 216.192 C 146.710 216.747,147.532 217.200,147.982 217.200 C 148.432 217.200,148.800 217.380,148.800 217.600 C 148.800 217.820,149.424 218.000,150.187 218.000 C 151.277 218.000,151.524 218.133,151.337 218.620 C 151.145 219.119,151.305 219.189,152.149 218.977 C 152.957 218.774,153.200 218.862,153.200 219.357 C 153.200 219.727,153.530 220.000,153.976 220.000 C 154.403 220.000,154.864 220.180,155.000 220.400 C 155.136 220.620,155.777 220.800,156.424 220.800 C 157.071 220.800,157.600 220.980,157.600 221.200 C 157.600 221.420,158.050 221.600,158.600 221.600 C 159.150 221.600,159.600 221.780,159.600 222.000 C 159.600 222.220,160.140 222.400,160.800 222.400 C 161.512 222.400,162.000 222.609,162.000 222.915 C 162.000 223.208,162.556 223.472,163.293 223.528 C 164.005 223.583,164.761 223.801,164.973 224.013 C 165.186 224.226,165.864 224.400,166.480 224.400 C 167.096 224.400,167.600 224.580,167.600 224.800 C 167.600 225.020,168.309 225.200,169.176 225.200 C 170.043 225.200,170.864 225.380,171.000 225.600 C 171.136 225.820,172.041 226.000,173.011 226.000 C 174.313 226.000,174.721 226.139,174.571 226.531 C 174.419 226.929,174.949 227.085,176.684 227.153 C 177.958 227.204,179.060 227.415,179.133 227.622 C 179.207 227.830,180.602 228.000,182.233 228.000 C 183.944 228.000,185.200 228.169,185.200 228.400 C 185.200 228.659,190.400 228.800,200.000 228.800 C 209.600 228.800,214.800 228.659,214.800 228.400 C 214.800 228.169,216.056 228.000,217.767 228.000 C 219.398 228.000,220.793 227.830,220.867 227.622 C 220.940 227.415,222.042 227.204,223.316 227.153 C 225.051 227.085,225.581 226.929,225.429 226.531 C 225.279 226.139,225.687 226.000,226.989 226.000 C 227.959 226.000,228.864 225.820,229.000 225.600 C 229.136 225.380,229.957 225.200,230.824 225.200 C 231.691 225.200,232.400 225.020,232.400 224.800 C 232.400 224.580,232.904 224.400,233.520 224.400 C 234.136 224.400,234.814 224.226,235.027 224.013 C 235.239 223.801,235.995 223.583,236.707 223.528 C 237.444 223.472,238.000 223.208,238.000 222.915 C 238.000 222.609,238.488 222.400,239.200 222.400 C 239.860 222.400,240.400 222.220,240.400 222.000 C 240.400 221.780,241.030 221.600,241.800 221.600 C 242.570 221.600,243.200 221.420,243.200 221.200 C 243.200 220.980,243.549 220.800,243.976 220.800 C 244.403 220.800,244.864 220.620,245.000 220.400 C 245.136 220.180,245.597 220.000,246.024 220.000 C 246.471 220.000,246.800 219.727,246.800 219.356 C 246.800 218.856,247.112 218.749,248.200 218.876 C 249.165 218.989,249.600 218.878,249.600 218.520 C 249.600 218.234,249.960 218.000,250.400 218.000 C 250.840 218.000,251.200 217.820,251.200 217.600 C 251.200 217.380,251.650 217.200,252.200 217.200 C 252.750 217.200,253.200 217.020,253.200 216.800 C 253.200 216.580,253.476 216.400,253.813 216.400 C 254.149 216.400,254.528 216.131,254.654 215.802 C 254.781 215.474,255.046 215.305,255.245 215.428 C 255.443 215.550,255.714 215.369,255.846 215.025 C 255.978 214.681,256.426 214.400,256.843 214.400 C 257.259 214.400,257.600 214.220,257.600 214.000 C 257.600 213.780,257.960 213.600,258.400 213.600 C 258.840 213.600,259.200 213.420,259.200 213.200 C 259.200 212.980,259.481 212.800,259.824 212.800 C 260.167 212.800,260.336 212.620,260.200 212.400 C 259.985 212.052,260.796 211.810,261.700 211.953 C 261.865 211.979,262.000 211.820,262.000 211.600 C 262.000 211.380,262.271 211.200,262.603 211.200 C 262.934 211.200,263.597 210.750,264.075 210.200 C 264.553 209.650,265.195 209.200,265.501 209.200 C 266.180 209.200,267.200 208.231,267.200 207.586 C 267.200 207.327,267.470 207.218,267.800 207.345 C 268.165 207.485,268.400 207.345,268.400 206.987 C 268.400 206.664,268.720 206.400,269.112 206.400 C 269.503 206.400,270.083 206.040,270.400 205.600 C 270.717 205.160,271.217 204.800,271.512 204.800 C 271.806 204.800,271.936 204.620,271.800 204.400 C 271.664 204.180,271.898 204.000,272.320 204.000 C 272.743 204.000,273.426 203.550,273.839 203.000 C 274.252 202.450,274.740 202.000,274.924 202.000 C 275.411 202.000,276.400 200.931,276.400 200.405 C 276.400 200.156,276.553 200.047,276.740 200.163 C 276.927 200.278,277.317 199.929,277.607 199.386 C 277.898 198.844,278.258 198.400,278.408 198.400 C 278.781 198.400,280.822 196.398,281.795 195.078 C 282.232 194.485,282.817 194.000,283.095 194.000 C 283.373 194.000,283.604 193.865,283.609 193.700 C 283.624 193.236,286.274 190.400,286.693 190.400 C 286.898 190.400,287.306 189.950,287.600 189.401 C 287.894 188.851,288.216 188.482,288.315 188.582 C 288.662 188.929,289.600 187.649,289.600 186.829 C 289.600 186.373,289.793 186.000,290.029 186.000 C 290.532 186.000,291.813 184.806,291.329 184.788 C 291.148 184.781,291.315 184.592,291.700 184.368 C 292.085 184.144,292.400 183.609,292.400 183.180 C 292.400 182.751,292.550 182.400,292.732 182.400 C 292.915 182.400,293.301 181.959,293.590 181.419 C 293.878 180.880,294.310 180.475,294.548 180.519 C 294.786 180.564,295.044 180.188,295.120 179.685 C 295.197 179.181,295.606 178.553,296.030 178.289 C 296.453 178.024,296.800 177.491,296.800 177.104 C 296.800 176.717,296.980 176.400,297.200 176.400 C 297.420 176.400,297.600 176.130,297.600 175.800 C 297.600 175.470,297.767 175.200,297.971 175.200 C 298.398 175.200,299.600 172.941,299.600 172.139 C 299.600 171.842,299.780 171.600,300.000 171.600 C 300.220 171.600,300.400 171.317,300.400 170.971 C 300.400 170.249,301.335 169.200,301.979 169.200 C 302.245 169.200,302.317 168.809,302.164 168.200 C 301.974 167.444,302.070 167.200,302.557 167.200 C 302.980 167.200,303.200 166.850,303.200 166.176 C 303.200 165.596,303.373 165.260,303.600 165.400 C 303.827 165.540,304.000 165.204,304.000 164.624 C 304.000 164.061,304.180 163.600,304.400 163.600 C 304.620 163.600,304.800 163.060,304.800 162.400 C 304.800 161.740,304.977 161.200,305.192 161.200 C 305.408 161.200,305.698 160.750,305.836 160.200 C 305.974 159.650,306.247 159.200,306.443 159.200 C 306.640 159.200,306.779 159.065,306.753 158.900 C 306.610 157.996,306.852 157.185,307.200 157.400 C 307.438 157.547,307.600 157.071,307.600 156.224 C 307.600 155.441,307.780 154.800,308.000 154.800 C 308.220 154.800,308.400 154.170,308.400 153.400 C 308.400 152.630,308.569 152.000,308.775 152.000 C 308.981 152.000,309.206 151.415,309.275 150.700 C 309.350 149.922,309.601 149.440,309.900 149.500 C 310.175 149.555,310.379 149.465,310.353 149.300 C 310.172 148.158,310.465 146.393,310.800 146.600 C 311.044 146.751,311.200 146.145,311.200 145.047 C 311.200 144.057,311.380 143.136,311.600 143.000 C 311.820 142.864,312.000 142.043,312.000 141.176 C 312.000 140.309,312.180 139.600,312.400 139.600 C 312.620 139.600,312.800 138.629,312.800 137.443 C 312.800 135.894,312.969 135.221,313.400 135.055 C 313.860 134.879,314.000 134.121,314.000 131.813 C 314.000 130.071,314.169 128.800,314.400 128.800 C 314.659 128.800,314.800 123.667,314.800 114.200 C 314.800 104.733,314.659 99.600,314.400 99.600 C 314.169 99.600,314.000 98.329,314.000 96.587 C 314.000 94.279,313.860 93.521,313.400 93.345 C 312.969 93.179,312.800 92.506,312.800 90.957 C 312.800 89.771,312.620 88.800,312.400 88.800 C 312.180 88.800,312.000 88.091,312.000 87.224 C 312.000 86.357,311.820 85.536,311.600 85.400 C 311.380 85.264,311.200 84.343,311.200 83.353 C 311.200 82.255,311.044 81.649,310.800 81.800 C 310.465 82.007,310.172 80.242,310.353 79.100 C 310.379 78.935,310.175 78.845,309.900 78.900 C 309.601 78.960,309.350 78.478,309.275 77.700 C 309.206 76.985,308.981 76.400,308.775 76.400 C 308.569 76.400,308.400 75.770,308.400 75.000 C 308.400 74.230,308.220 73.600,308.000 73.600 C 307.780 73.600,307.600 72.959,307.600 72.176 C 307.600 71.329,307.438 70.853,307.200 71.000 C 306.852 71.215,306.610 70.404,306.753 69.500 C 306.779 69.335,306.640 69.200,306.443 69.200 C 306.247 69.200,305.974 68.750,305.836 68.200 C 305.698 67.650,305.408 67.200,305.192 67.200 C 304.977 67.200,304.800 66.660,304.800 66.000 C 304.800 65.340,304.620 64.800,304.400 64.800 C 304.180 64.800,304.000 64.339,304.000 63.776 C 304.000 63.196,303.827 62.860,303.600 63.000 C 303.373 63.140,303.200 62.804,303.200 62.224 C 303.200 61.550,302.980 61.200,302.557 61.200 C 302.070 61.200,301.974 60.956,302.164 60.200 C 302.317 59.591,302.245 59.200,301.979 59.200 C 301.335 59.200,300.400 58.151,300.400 57.429 C 300.400 57.083,300.220 56.800,300.000 56.800 C 299.780 56.800,299.600 56.558,299.600 56.261 C 299.600 55.459,298.398 53.200,297.971 53.200 C 297.767 53.200,297.600 52.930,297.600 52.600 C 297.600 52.270,297.420 52.000,297.200 52.000 C 296.980 52.000,296.800 51.683,296.800 51.296 C 296.800 50.909,296.453 50.376,296.030 50.111 C 295.606 49.847,295.197 49.219,295.120 48.715 C 295.044 48.212,294.786 47.836,294.548 47.881 C 294.310 47.925,293.878 47.520,293.590 46.981 C 293.301 46.441,292.915 46.000,292.732 46.000 C 292.550 46.000,292.400 45.649,292.400 45.220 C 292.400 44.791,292.085 44.256,291.700 44.032 C 291.315 43.808,291.148 43.619,291.329 43.612 C 291.813 43.594,290.532 42.400,290.029 42.400 C 289.793 42.400,289.600 42.027,289.600 41.571 C 289.600 40.751,288.662 39.471,288.315 39.818 C 288.216 39.918,287.894 39.549,287.600 38.999 C 287.306 38.450,286.898 38.000,286.693 38.000 C 286.274 38.000,283.624 35.164,283.609 34.700 C 283.604 34.535,283.373 34.400,283.095 34.400 C 282.817 34.400,282.232 33.915,281.795 33.322 C 280.822 32.002,278.781 30.000,278.408 30.000 C 278.258 30.000,277.898 29.556,277.607 29.014 C 277.317 28.471,276.927 28.122,276.740 28.237 C 276.553 28.353,276.400 28.244,276.400 27.995 C 276.400 27.469,275.411 26.400,274.924 26.400 C 274.740 26.400,274.252 25.950,273.839 25.400 C 273.426 24.850,272.743 24.400,272.320 24.400 C 271.898 24.400,271.664 24.220,271.800 24.000 C 271.936 23.780,271.806 23.600,271.512 23.600 C 271.217 23.600,270.717 23.240,270.400 22.800 C 270.083 22.360,269.503 22.000,269.112 22.000 C 268.720 22.000,268.400 21.736,268.400 21.413 C 268.400 21.055,268.165 20.915,267.800 21.055 C 267.470 21.182,267.200 21.073,267.200 20.814 C 267.200 20.169,266.180 19.200,265.501 19.200 C 265.195 19.200,264.553 18.750,264.075 18.200 C 263.597 17.650,262.934 17.200,262.603 17.200 C 262.271 17.200,262.000 17.009,262.000 16.776 C 262.000 16.543,261.820 16.464,261.600 16.600 C 261.380 16.736,261.200 16.567,261.200 16.224 C 261.200 15.825,260.839 15.600,260.200 15.600 C 259.650 15.600,259.200 15.420,259.200 15.200 C 259.200 14.980,258.840 14.800,258.400 14.800 C 257.960 14.800,257.600 14.620,257.600 14.400 C 257.600 14.180,257.259 14.000,256.843 14.000 C 256.426 14.000,255.978 13.719,255.846 13.375 C 255.714 13.031,255.443 12.850,255.245 12.972 C 255.046 13.095,254.781 12.926,254.654 12.598 C 254.528 12.269,254.149 12.000,253.813 12.000 C 253.476 12.000,253.200 11.820,253.200 11.600 C 253.200 11.380,252.750 11.200,252.200 11.200 C 251.650 11.200,251.200 11.020,251.200 10.800 C 251.200 10.580,250.840 10.400,250.400 10.400 C 249.960 10.400,249.600 10.166,249.600 9.880 C 249.600 9.522,249.165 9.411,248.200 9.524 C 247.112 9.651,246.800 9.544,246.800 9.044 C 246.800 8.673,246.471 8.400,246.024 8.400 C 245.597 8.400,245.136 8.220,245.000 8.000 C 244.864 7.780,244.403 7.600,243.976 7.600 C 243.549 7.600,243.200 7.420,243.200 7.200 C 243.200 6.980,242.570 6.800,241.800 6.800 C 241.030 6.800,240.400 6.620,240.400 6.400 C 240.400 6.180,239.860 6.000,239.200 6.000 C 238.488 6.000,238.000 5.791,238.000 5.485 C 238.000 5.192,237.444 4.928,236.707 4.872 C 235.995 4.817,235.239 4.599,235.027 4.387 C 234.814 4.174,234.136 4.000,233.520 4.000 C 232.904 4.000,232.400 3.820,232.400 3.600 C 232.400 3.380,231.691 3.200,230.824 3.200 C 229.957 3.200,229.136 3.020,229.000 2.800 C 228.864 2.580,227.959 2.400,226.989 2.400 C 225.687 2.400,225.279 2.261,225.429 1.869 C 225.581 1.472,225.052 1.315,223.325 1.245 C 222.056 1.194,220.889 0.944,220.732 0.690 C 220.447 0.229,189.388 -0.107,182.412 0.275 M141.800 271.200 C 141.664 271.420,140.213 271.600,138.576 271.600 C 136.859 271.600,135.600 271.769,135.600 272.000 C 135.600 272.229,134.400 272.400,132.800 272.400 C 130.578 272.400,130.000 272.524,130.000 273.000 C 130.000 273.476,129.422 273.600,127.200 273.600 C 125.600 273.600,124.400 273.771,124.400 274.000 C 124.400 274.220,123.590 274.400,122.600 274.400 C 121.610 274.400,120.800 274.580,120.800 274.800 C 120.800 275.020,120.179 275.200,119.420 275.200 C 118.556 275.200,117.902 275.446,117.672 275.857 C 117.419 276.310,116.969 276.449,116.221 276.306 C 115.515 276.171,115.063 276.291,114.926 276.649 C 114.791 277.001,114.080 277.200,112.957 277.200 C 111.991 277.200,111.200 277.380,111.200 277.600 C 111.200 277.820,110.570 278.000,109.800 278.000 C 109.030 278.000,108.400 278.180,108.400 278.400 C 108.400 278.620,107.860 278.800,107.200 278.800 C 106.540 278.800,106.000 278.980,106.000 279.200 C 106.000 279.420,105.370 279.600,104.600 279.600 C 103.577 279.600,103.200 279.774,103.200 280.247 C 103.200 280.703,102.957 280.830,102.376 280.678 C 101.871 280.546,101.466 280.683,101.333 281.031 C 101.213 281.344,100.594 281.600,99.957 281.600 C 99.321 281.600,98.800 281.780,98.800 282.000 C 98.800 282.220,98.451 282.400,98.024 282.400 C 97.597 282.400,97.136 282.580,97.000 282.800 C 96.864 283.020,96.341 283.200,95.838 283.200 C 94.739 283.200,92.400 284.309,92.400 284.829 C 92.400 285.033,92.040 285.200,91.600 285.200 C 91.160 285.200,90.800 285.380,90.800 285.600 C 90.800 285.820,90.451 286.000,90.024 286.000 C 89.597 286.000,89.136 286.180,89.000 286.400 C 88.864 286.620,88.403 286.800,87.976 286.800 C 87.528 286.800,87.200 287.073,87.200 287.447 C 87.200 287.889,86.956 288.029,86.426 287.891 C 85.978 287.774,85.562 287.923,85.438 288.244 C 85.321 288.550,84.859 288.800,84.413 288.800 C 83.966 288.800,83.600 288.980,83.600 289.200 C 83.600 289.420,83.150 289.600,82.600 289.600 C 82.050 289.600,81.600 289.780,81.600 290.000 C 81.600 290.220,81.270 290.400,80.868 290.400 C 80.465 290.400,79.888 290.861,79.586 291.425 C 79.212 292.124,78.801 292.389,78.294 292.256 C 77.872 292.146,77.457 292.308,77.333 292.631 C 77.213 292.944,76.813 293.200,76.446 293.200 C 76.078 293.200,75.517 293.560,75.200 294.000 C 74.883 294.440,74.213 294.800,73.712 294.800 C 73.210 294.800,72.800 294.980,72.800 295.200 C 72.800 295.420,72.511 295.600,72.158 295.600 C 71.804 295.600,71.161 296.050,70.729 296.600 C 70.296 297.150,69.625 297.600,69.239 297.600 C 68.852 297.600,68.298 298.044,68.007 298.586 C 67.717 299.129,67.345 299.490,67.182 299.389 C 67.018 299.287,66.781 299.474,66.654 299.802 C 66.528 300.131,66.099 300.400,65.701 300.400 C 65.303 300.400,64.717 300.760,64.400 301.200 C 64.083 301.640,63.548 302.006,63.212 302.013 C 62.406 302.029,61.200 302.962,61.200 303.568 C 61.200 303.831,61.020 303.936,60.800 303.800 C 60.580 303.664,60.400 303.756,60.400 304.005 C 60.400 304.694,59.346 305.599,58.529 305.611 C 58.128 305.617,57.350 306.242,56.800 307.000 C 56.250 307.758,55.615 308.383,55.388 308.389 C 55.162 308.395,54.717 308.760,54.400 309.200 C 54.083 309.640,53.587 310.000,53.299 310.000 C 53.011 310.000,52.676 310.259,52.554 310.575 C 52.433 310.891,52.071 311.049,51.751 310.926 C 51.430 310.803,51.220 310.864,51.284 311.062 C 51.426 311.503,48.588 314.400,48.013 314.400 C 47.786 314.400,47.600 314.594,47.600 314.831 C 47.600 315.069,46.835 316.000,45.900 316.902 C 44.965 317.803,44.243 318.683,44.295 318.856 C 44.348 319.029,44.123 319.068,43.795 318.943 C 43.468 318.817,43.200 318.915,43.200 319.161 C 43.200 319.406,42.660 320.172,42.000 320.863 C 41.340 321.554,40.800 322.266,40.800 322.447 C 40.800 322.627,40.575 322.688,40.300 322.583 C 40.013 322.473,39.562 322.949,39.244 323.695 C 38.939 324.413,37.724 325.930,36.545 327.066 C 35.365 328.202,34.400 329.417,34.400 329.766 C 34.400 330.115,34.220 330.400,34.000 330.400 C 33.780 330.400,33.600 330.670,33.600 331.000 C 33.600 331.330,33.319 331.600,32.976 331.600 C 32.633 331.600,32.447 331.753,32.563 331.940 C 32.678 332.127,32.329 332.517,31.786 332.807 C 31.216 333.112,30.800 333.691,30.800 334.179 C 30.800 334.644,30.440 335.283,30.000 335.600 C 29.560 335.917,29.200 336.469,29.200 336.826 C 29.200 337.594,27.854 338.921,27.468 338.534 C 27.320 338.387,27.200 338.567,27.200 338.933 C 27.200 339.300,27.020 339.600,26.800 339.600 C 26.580 339.600,26.394 339.915,26.387 340.300 C 26.371 341.221,25.354 342.542,24.884 342.252 C 24.680 342.126,24.600 342.466,24.704 343.012 C 24.842 343.733,24.719 344.000,24.247 344.000 C 23.889 344.000,23.600 344.324,23.600 344.725 C 23.600 345.123,23.240 345.836,22.800 346.308 C 22.360 346.780,22.000 347.444,22.000 347.783 C 22.000 348.122,21.730 348.400,21.400 348.400 C 21.070 348.400,20.821 348.535,20.847 348.700 C 20.990 349.604,20.748 350.415,20.400 350.200 C 20.180 350.064,20.000 350.233,20.000 350.576 C 20.000 350.919,19.820 351.200,19.600 351.200 C 19.380 351.200,19.200 351.549,19.200 351.976 C 19.200 352.403,19.020 352.864,18.800 353.000 C 18.580 353.136,18.400 353.597,18.400 354.024 C 18.400 354.451,18.220 354.800,18.000 354.800 C 17.780 354.800,17.600 355.160,17.600 355.600 C 17.600 356.044,17.333 356.400,17.000 356.400 C 16.627 356.400,16.400 356.778,16.400 357.400 C 16.400 357.950,16.220 358.400,16.000 358.400 C 15.780 358.400,15.600 358.760,15.600 359.200 C 15.600 359.640,15.420 360.000,15.200 360.000 C 14.980 360.000,14.800 360.349,14.800 360.776 C 14.800 361.203,14.620 361.664,14.400 361.800 C 14.180 361.936,14.000 362.397,14.000 362.824 C 14.000 363.251,13.730 363.600,13.400 363.600 C 13.070 363.600,12.800 363.872,12.800 364.205 C 12.800 364.538,12.592 365.213,12.338 365.705 C 11.326 367.662,11.200 368.026,11.200 368.995 C 11.200 369.548,11.020 370.000,10.800 370.000 C 10.580 370.000,10.400 370.624,10.400 371.387 C 10.400 372.456,10.262 372.722,9.800 372.545 C 9.363 372.377,9.200 372.592,9.200 373.334 C 9.200 373.894,9.020 374.464,8.800 374.600 C 8.580 374.736,8.400 375.276,8.400 375.800 C 8.400 376.324,8.220 376.864,8.000 377.000 C 7.780 377.136,7.600 377.777,7.600 378.424 C 7.600 379.071,7.420 379.600,7.200 379.600 C 6.980 379.600,6.800 380.230,6.800 381.000 C 6.800 381.770,6.620 382.400,6.400 382.400 C 6.180 382.400,6.000 383.049,6.000 383.843 C 6.000 384.868,5.848 385.227,5.476 385.084 C 5.104 384.942,4.923 385.365,4.854 386.542 C 4.801 387.454,4.587 388.371,4.379 388.580 C 4.170 388.789,4.000 389.644,4.000 390.480 C 4.000 391.316,3.820 392.000,3.600 392.000 C 3.380 392.000,3.200 392.799,3.200 393.776 C 3.200 394.753,3.020 395.664,2.800 395.800 C 2.580 395.936,2.400 396.937,2.400 398.024 C 2.400 399.420,2.241 400.000,1.858 400.000 C 1.463 400.000,1.296 400.729,1.242 402.686 C 1.199 404.251,0.970 405.495,0.694 405.666 C -0.013 406.102,-0.006 440.063,0.700 440.299 C 0.975 440.391,1.200 440.992,1.200 441.633 C 1.200 442.404,1.404 442.800,1.800 442.800 C 2.158 442.800,2.400 443.168,2.400 443.712 C 2.400 444.213,2.760 444.883,3.200 445.200 C 3.640 445.517,4.000 446.097,4.000 446.488 C 4.000 446.880,4.180 447.200,4.400 447.200 C 4.620 447.200,4.800 447.470,4.800 447.800 C 4.800 448.130,4.940 448.355,5.111 448.300 C 5.528 448.166,8.400 451.057,8.400 451.610 C 8.400 451.851,8.580 451.936,8.800 451.800 C 9.020 451.664,9.200 451.833,9.200 452.176 C 9.200 452.559,9.553 452.800,10.112 452.800 C 10.613 452.800,11.283 453.160,11.600 453.600 C 11.917 454.040,12.587 454.400,13.088 454.400 C 13.632 454.400,14.000 454.642,14.000 455.000 C 14.000 455.396,14.396 455.600,15.167 455.600 C 15.808 455.600,16.408 455.825,16.500 456.100 C 16.633 456.499,53.689 456.600,200.000 456.600 C 346.311 456.600,383.367 456.499,383.500 456.100 C 383.592 455.825,384.192 455.600,384.833 455.600 C 385.604 455.600,386.000 455.396,386.000 455.000 C 386.000 454.642,386.368 454.400,386.912 454.400 C 387.413 454.400,388.083 454.040,388.400 453.600 C 388.717 453.160,389.387 452.800,389.888 452.800 C 390.447 452.800,390.800 452.559,390.800 452.176 C 390.800 451.833,390.980 451.664,391.200 451.800 C 391.420 451.936,391.600 451.851,391.600 451.610 C 391.600 451.057,394.472 448.166,394.889 448.300 C 395.060 448.355,395.200 448.130,395.200 447.800 C 395.200 447.470,395.380 447.200,395.600 447.200 C 395.820 447.200,396.000 446.880,396.000 446.488 C 396.000 446.097,396.360 445.517,396.800 445.200 C 397.240 444.883,397.600 444.213,397.600 443.712 C 397.600 443.168,397.842 442.800,398.200 442.800 C 398.596 442.800,398.800 442.404,398.800 441.633 C 398.800 440.992,399.025 440.391,399.300 440.299 C 400.006 440.063,400.013 406.102,399.306 405.666 C 399.030 405.495,398.801 404.251,398.758 402.686 C 398.704 400.729,398.537 400.000,398.142 400.000 C 397.759 400.000,397.600 399.420,397.600 398.024 C 397.600 396.937,397.420 395.936,397.200 395.800 C 396.980 395.664,396.800 394.753,396.800 393.776 C 396.800 392.799,396.620 392.000,396.400 392.000 C 396.180 392.000,396.000 391.316,396.000 390.480 C 396.000 389.644,395.830 388.789,395.621 388.580 C 395.413 388.371,395.199 387.454,395.146 386.542 C 395.077 385.365,394.896 384.942,394.524 385.084 C 394.152 385.227,394.000 384.868,394.000 383.843 C 394.000 383.049,393.820 382.400,393.600 382.400 C 393.380 382.400,393.200 381.770,393.200 381.000 C 393.200 380.230,393.020 379.600,392.800 379.600 C 392.580 379.600,392.400 379.071,392.400 378.424 C 392.400 377.777,392.220 377.136,392.000 377.000 C 391.780 376.864,391.600 376.324,391.600 375.800 C 391.600 375.276,391.420 374.736,391.200 374.600 C 390.980 374.464,390.800 373.894,390.800 373.334 C 390.800 372.592,390.637 372.377,390.200 372.545 C 389.738 372.722,389.600 372.456,389.600 371.387 C 389.600 370.624,389.420 370.000,389.200 370.000 C 388.980 370.000,388.800 369.651,388.800 369.224 C 388.800 368.797,388.620 368.336,388.400 368.200 C 388.180 368.064,388.000 367.434,388.000 366.800 C 388.000 366.166,387.820 365.536,387.600 365.400 C 387.380 365.264,387.200 364.803,387.200 364.376 C 387.200 363.949,386.930 363.600,386.600 363.600 C 386.270 363.600,386.000 363.251,386.000 362.824 C 386.000 362.397,385.820 361.936,385.600 361.800 C 385.380 361.664,385.200 361.203,385.200 360.776 C 385.200 360.349,385.020 360.000,384.800 360.000 C 384.580 360.000,384.400 359.640,384.400 359.200 C 384.400 358.760,384.220 358.400,384.000 358.400 C 383.780 358.400,383.600 357.950,383.600 357.400 C 383.600 356.778,383.373 356.400,383.000 356.400 C 382.667 356.400,382.400 356.044,382.400 355.600 C 382.400 355.160,382.220 354.800,382.000 354.800 C 381.780 354.800,381.600 354.451,381.600 354.024 C 381.600 353.597,381.420 353.136,381.200 353.000 C 380.980 352.864,380.800 352.403,380.800 351.976 C 380.800 351.549,380.620 351.200,380.400 351.200 C 380.180 351.200,380.000 350.919,380.000 350.576 C 380.000 350.233,379.820 350.064,379.600 350.200 C 379.252 350.415,379.010 349.604,379.153 348.700 C 379.179 348.535,378.930 348.400,378.600 348.400 C 378.270 348.400,378.000 348.122,378.000 347.783 C 378.000 347.444,377.640 346.780,377.200 346.308 C 376.760 345.836,376.400 345.123,376.400 344.725 C 376.400 344.324,376.111 344.000,375.753 344.000 C 375.281 344.000,375.158 343.733,375.296 343.012 C 375.400 342.466,375.320 342.126,375.116 342.252 C 374.646 342.542,373.629 341.221,373.613 340.300 C 373.606 339.915,373.420 339.600,373.200 339.600 C 372.980 339.600,372.800 339.300,372.800 338.933 C 372.800 338.567,372.695 338.372,372.566 338.500 C 372.208 338.859,370.800 337.503,370.800 336.799 C 370.800 336.457,370.440 335.917,370.000 335.600 C 369.560 335.283,369.200 334.644,369.200 334.179 C 369.200 333.691,368.784 333.112,368.214 332.807 C 367.671 332.517,367.322 332.127,367.437 331.940 C 367.553 331.753,367.367 331.600,367.024 331.600 C 366.681 331.600,366.400 331.330,366.400 331.000 C 366.400 330.670,366.220 330.400,366.000 330.400 C 365.780 330.400,365.600 330.115,365.600 329.766 C 365.600 329.417,364.635 328.202,363.455 327.066 C 362.276 325.930,361.061 324.413,360.756 323.695 C 360.438 322.949,359.987 322.473,359.700 322.583 C 359.425 322.688,359.200 322.627,359.200 322.447 C 359.200 322.266,358.660 321.554,358.000 320.863 C 357.340 320.172,356.800 319.406,356.800 319.161 C 356.800 318.915,356.532 318.817,356.205 318.943 C 355.877 319.068,355.652 319.029,355.705 318.856 C 355.757 318.683,355.035 317.803,354.100 316.902 C 353.165 316.000,352.400 315.069,352.400 314.831 C 352.400 314.594,352.214 314.400,351.987 314.400 C 351.412 314.400,348.574 311.503,348.716 311.062 C 348.780 310.864,348.570 310.803,348.249 310.926 C 347.929 311.049,347.567 310.891,347.446 310.575 C 347.324 310.259,346.989 310.000,346.701 310.000 C 346.413 310.000,345.917 309.640,345.600 309.200 C 345.283 308.760,344.838 308.395,344.612 308.389 C 344.385 308.383,343.750 307.758,343.200 307.000 C 342.650 306.242,341.872 305.617,341.471 305.611 C 340.654 305.599,339.600 304.694,339.600 304.005 C 339.600 303.756,339.420 303.664,339.200 303.800 C 338.980 303.936,338.800 303.831,338.800 303.568 C 338.800 302.962,337.594 302.029,336.788 302.013 C 336.452 302.006,335.917 301.640,335.600 301.200 C 335.283 300.760,334.697 300.400,334.299 300.400 C 333.901 300.400,333.472 300.131,333.346 299.802 C 333.219 299.474,332.982 299.287,332.818 299.389 C 332.655 299.490,332.283 299.129,331.993 298.586 C 331.702 298.044,331.148 297.600,330.761 297.600 C 330.375 297.600,329.704 297.150,329.271 296.600 C 328.839 296.050,328.196 295.600,327.842 295.600 C 327.489 295.600,327.200 295.420,327.200 295.200 C 327.200 294.980,326.790 294.800,326.288 294.800 C 325.787 294.800,325.117 294.440,324.800 294.000 C 324.483 293.560,323.922 293.200,323.554 293.200 C 323.187 293.200,322.787 292.944,322.667 292.631 C 322.543 292.308,322.128 292.146,321.706 292.256 C 321.199 292.389,320.788 292.124,320.414 291.425 C 320.112 290.861,319.535 290.400,319.132 290.400 C 318.730 290.400,318.400 290.220,318.400 290.000 C 318.400 289.780,317.950 289.600,317.400 289.600 C 316.850 289.600,316.400 289.420,316.400 289.200 C 316.400 288.980,316.034 288.800,315.587 288.800 C 315.141 288.800,314.679 288.550,314.562 288.244 C 314.438 287.923,314.022 287.774,313.574 287.891 C 313.044 288.029,312.800 287.889,312.800 287.447 C 312.800 287.073,312.472 286.800,312.024 286.800 C 311.597 286.800,311.136 286.620,311.000 286.400 C 310.864 286.180,310.403 286.000,309.976 286.000 C 309.549 286.000,309.200 285.820,309.200 285.600 C 309.200 285.380,308.840 285.200,308.400 285.200 C 307.960 285.200,307.600 285.033,307.600 284.829 C 307.600 284.402,305.341 283.200,304.539 283.200 C 304.242 283.200,304.000 283.020,304.000 282.800 C 304.000 282.580,303.370 282.400,302.600 282.400 C 301.830 282.400,301.200 282.220,301.200 282.000 C 301.200 281.780,300.679 281.600,300.043 281.600 C 299.406 281.600,298.787 281.344,298.667 281.031 C 298.534 280.683,298.129 280.546,297.624 280.678 C 297.043 280.830,296.800 280.703,296.800 280.247 C 296.800 279.774,296.423 279.600,295.400 279.600 C 294.630 279.600,294.000 279.420,294.000 279.200 C 294.000 278.980,293.460 278.800,292.800 278.800 C 292.140 278.800,291.600 278.620,291.600 278.400 C 291.600 278.180,290.970 278.000,290.200 278.000 C 289.430 278.000,288.800 277.820,288.800 277.600 C 288.800 277.380,288.170 277.200,287.400 277.200 C 286.515 277.200,286.000 277.008,286.000 276.678 C 286.000 276.347,285.380 276.120,284.300 276.057 C 283.365 276.002,282.429 275.787,282.220 275.579 C 282.011 275.370,281.246 275.200,280.520 275.200 C 279.794 275.200,279.200 275.020,279.200 274.800 C 279.200 274.580,278.390 274.400,277.400 274.400 C 276.410 274.400,275.600 274.220,275.600 274.000 C 275.600 273.771,274.400 273.600,272.800 273.600 C 270.578 273.600,270.000 273.476,270.000 273.000 C 270.000 272.540,269.492 272.400,267.824 272.400 C 266.627 272.400,265.536 272.220,265.400 272.000 C 265.264 271.780,263.644 271.600,261.800 271.600 C 259.956 271.600,258.336 271.420,258.200 271.200 C 257.858 270.647,142.142 270.647,141.800 271.200 " stroke="none" fill="#4c5c8c" fill-rule="evenodd"></path><path id="path1" d="M247.300 9.476 C 247.685 9.576,248.315 9.576,248.700 9.476 C 249.085 9.375,248.770 9.293,248.000 9.293 C 247.230 9.293,246.915 9.375,247.300 9.476 M247.300 219.076 C 247.685 219.176,248.315 219.176,248.700 219.076 C 249.085 218.975,248.770 218.893,248.000 218.893 C 247.230 218.893,246.915 218.975,247.300 219.076 M24.550 342.587 C 24.426 342.910,24.417 343.405,24.531 343.687 C 24.644 343.969,24.751 343.810,24.768 343.333 C 24.786 342.857,25.025 342.376,25.300 342.265 C 25.692 342.107,25.689 342.056,25.287 342.032 C 25.006 342.014,24.674 342.264,24.550 342.587 M374.654 342.270 C 374.903 342.451,375.207 342.960,375.328 343.400 C 375.501 344.031,375.532 343.995,375.474 343.231 C 375.433 342.699,375.130 342.190,374.800 342.101 C 374.404 341.994,374.354 342.051,374.654 342.270 " stroke="none" fill="#505c8c" fill-rule="evenodd"></path><path id="path2" d="M247.300 9.476 C 247.685 9.576,248.315 9.576,248.700 9.476 C 249.085 9.375,248.770 9.293,248.000 9.293 C 247.230 9.293,246.915 9.375,247.300 9.476 M247.300 219.076 C 247.685 219.176,248.315 219.176,248.700 219.076 C 249.085 218.975,248.770 218.893,248.000 218.893 C 247.230 218.893,246.915 218.975,247.300 219.076 M24.550 342.587 C 24.426 342.910,24.417 343.405,24.531 343.687 C 24.644 343.969,24.751 343.810,24.768 343.333 C 24.786 342.857,25.025 342.376,25.300 342.265 C 25.692 342.107,25.689 342.056,25.287 342.032 C 25.006 342.014,24.674 342.264,24.550 342.587 M374.654 342.270 C 374.903 342.451,375.207 342.960,375.328 343.400 C 375.501 344.031,375.532 343.995,375.474 343.231 C 375.433 342.699,375.130 342.190,374.800 342.101 C 374.404 341.994,374.354 342.051,374.654 342.270 " stroke="none" fill="#505c8c" fill-rule="evenodd"></path><path id="path3" d="M247.300 9.476 C 247.685 9.576,248.315 9.576,248.700 9.476 C 249.085 9.375,248.770 9.293,248.000 9.293 C 247.230 9.293,246.915 9.375,247.300 9.476 M247.300 219.076 C 247.685 219.176,248.315 219.176,248.700 219.076 C 249.085 218.975,248.770 218.893,248.000 218.893 C 247.230 218.893,246.915 218.975,247.300 219.076 M24.550 342.587 C 24.426 342.910,24.417 343.405,24.531 343.687 C 24.644 343.969,24.751 343.810,24.768 343.333 C 24.786 342.857,25.025 342.376,25.300 342.265 C 25.692 342.107,25.689 342.056,25.287 342.032 C 25.006 342.014,24.674 342.264,24.550 342.587 M374.654 342.270 C 374.903 342.451,375.207 342.960,375.328 343.400 C 375.501 344.031,375.532 343.995,375.474 343.231 C 375.433 342.699,375.130 342.190,374.800 342.101 C 374.404 341.994,374.354 342.051,374.654 342.270 " stroke="none" fill="#505c8c" fill-rule="evenodd"></path><path id="path4" d="M247.300 9.476 C 247.685 9.576,248.315 9.576,248.700 9.476 C 249.085 9.375,248.770 9.293,248.000 9.293 C 247.230 9.293,246.915 9.375,247.300 9.476 M247.300 219.076 C 247.685 219.176,248.315 219.176,248.700 219.076 C 249.085 218.975,248.770 218.893,248.000 218.893 C 247.230 218.893,246.915 218.975,247.300 219.076 M24.550 342.587 C 24.426 342.910,24.417 343.405,24.531 343.687 C 24.644 343.969,24.751 343.810,24.768 343.333 C 24.786 342.857,25.025 342.376,25.300 342.265 C 25.692 342.107,25.689 342.056,25.287 342.032 C 25.006 342.014,24.674 342.264,24.550 342.587 M374.654 342.270 C 374.903 342.451,375.207 342.960,375.328 343.400 C 375.501 344.031,375.532 343.995,375.474 343.231 C 375.433 342.699,375.130 342.190,374.800 342.101 C 374.404 341.994,374.354 342.051,374.654 342.270 " stroke="none" fill="#505c8c" fill-rule="evenodd"></path></g></svg>