<?xml version="1.0" standalone="no"?>
<!DOCTYPE svg PUBLIC "-//W3C//DTD SVG 20010904//EN"
 "http://www.w3.org/TR/2001/REC-SVG-20010904/DTD/svg10.dtd">
<svg version="1.0" xmlns="http://www.w3.org/2000/svg"
 width="300.000000pt" height="343.000000pt" viewBox="0 0 300.000000 343.000000"
 preserveAspectRatio="xMidYMid meet">
<metadata>
Created by potrace 1.10, written by Peter Selinger 2001-2011
</metadata>
<g transform="translate(0.000000,343.000000) scale(0.100000,-0.100000)"
fill="#325096" stroke="none">
<path d="M1314 3410 c-168 -38 -294 -108 -419 -234 -160 -161 -240 -338 -252
-560 -19 -333 157 -644 451 -800 138 -73 232 -95 406 -95 161 0 268 22 385 81
398 200 576 670 413 1088 -79 204 -265 390 -476 479 -143 60 -351 77 -508 41z"/>
<path d="M950 1370 c-236 -55 -417 -150 -579 -305 -144 -138 -245 -293 -306
-470 -56 -161 -81 -383 -54 -466 16 -47 73 -104 118 -118 54 -16 2693 -16
2742 0 47 16 104 73 118 118 26 90 2 305 -54 466 -61 177 -162 332 -306 470
-162 155 -350 254 -577 304 -79 18 -129 20 -557 19 -411 0 -479 -2 -545 -18z"/>
</g>
</svg>
