 <svg  version="1.0" xmlns="http://www.w3.org/2000/svg"  width="96.000000pt" height="96.000000pt" viewBox="0 0 96.000000 96.000000"  preserveAspectRatio="xMidYMid meet">  <g transform="translate(0.000000,96.000000) scale(0.100000,-0.100000)" fill="#325096" stroke="none"> <path d="M140 480 l0 -340 340 0 340 0 0 30 0 30 -310 0 -310 0 0 310 0 310 -30 0 -30 0 0 -340z"/> <path d="M410 540 l0 -280 55 0 55 0 0 280 0 280 -55 0 -55 0 0 -280z"/> <path d="M260 435 l0 -175 55 0 55 0 0 175 0 175 -55 0 -55 0 0 -175z"/> <path d="M560 435 l0 -175 55 0 55 0 0 175 0 175 -55 0 -55 0 0 -175z"/> <path d="M710 350 l0 -90 55 0 55 0 0 90 0 90 -55 0 -55 0 0 -90z"/> </g> </svg> 