 <svg  version="1.0" xmlns="http://www.w3.org/2000/svg"  width="300.000000pt" height="240.000000pt" viewBox="0 0 300.000000 240.000000"  preserveAspectRatio="xMidYMid meet">  <g transform="translate(0.000000,240.000000) scale(0.100000,-0.100000)" fill="#325096" stroke="none"> <path d="M1440 2377 c-19 -8 -320 -127 -667 -267 -693 -277 -690 -275 -740 -378 l-28 -57 0 -807 0 -808 28 -27 27 -28 165 0 165 0 27 28 28 27 5 668 c6 749 2 712 80 752 38 20 57 20 967 20 890 0 930 -1 970 -19 82 -38 77 1 83 -753 l5 -668 28 -27 27 -28 165 0 165 0 27 28 28 27 0 808 0 807 -28 57 c-51 103 -45 100 -764 388 -361 144 -672 264 -692 266 -20 2 -52 -2 -71 -9z"/> <path d="M600 1165 l0 -185 900 0 900 0 0 185 0 185 -900 0 -900 0 0 -185z"/> <path d="M600 675 l0 -145 900 0 900 0 0 145 0 145 -900 0 -900 0 0 -145z"/> <path d="M602 215 c3 -154 3 -155 31 -182 l27 -28 840 0 840 0 27 28 c28 27 28 28 31 182 l3 155 -901 0 -901 0 3 -155z"/> </g> </svg> 