<svg id="svg" version="1.1" xmlns="http://www.w3.org/2000/svg" xmlns:xlink="http://www.w3.org/1999/xlink" width="400" height="320" viewBox="0, 0, 400,320"><g id="svgg"><path id="path0" d="M195.840 1.280 C 195.840 1.456,195.344 1.600,194.739 1.600 C 194.133 1.600,193.549 1.744,193.440 1.920 C 193.331 2.096,192.891 2.240,192.461 2.240 C 192.032 2.240,191.680 2.384,191.680 2.560 C 191.680 2.736,191.392 2.880,191.040 2.880 C 190.688 2.880,190.400 3.024,190.400 3.200 C 190.400 3.376,189.968 3.520,189.440 3.520 C 188.912 3.520,188.480 3.664,188.480 3.840 C 188.480 4.016,188.192 4.160,187.840 4.160 C 187.488 4.160,187.200 4.304,187.200 4.480 C 187.200 4.656,186.768 4.800,186.240 4.800 C 185.712 4.800,185.280 4.944,185.280 5.120 C 185.280 5.296,184.992 5.440,184.640 5.440 C 184.288 5.440,184.000 5.584,184.000 5.760 C 184.000 5.936,183.568 6.080,183.040 6.080 C 182.512 6.080,182.080 6.211,182.080 6.372 C 182.080 6.532,181.505 6.761,180.802 6.880 C 180.099 6.999,179.442 7.227,179.343 7.388 C 179.243 7.549,178.883 7.680,178.541 7.680 C 178.200 7.680,177.920 7.824,177.920 8.000 C 177.920 8.176,177.627 8.320,177.269 8.320 C 176.911 8.320,176.263 8.553,175.829 8.837 C 175.395 9.121,175.038 9.229,175.035 9.077 C 175.032 8.925,174.916 8.979,174.777 9.198 C 174.638 9.418,174.136 9.629,173.662 9.668 C 173.188 9.707,172.800 9.852,172.800 9.990 C 172.800 10.127,172.512 10.240,172.160 10.240 C 171.808 10.240,171.520 10.384,171.520 10.560 C 171.520 10.736,171.080 10.880,170.541 10.880 C 169.970 10.880,169.645 11.013,169.760 11.200 C 169.869 11.376,169.670 11.520,169.318 11.520 C 168.966 11.520,168.589 11.664,168.480 11.840 C 168.371 12.016,167.931 12.160,167.501 12.160 C 167.072 12.160,166.720 12.304,166.720 12.480 C 166.720 12.656,166.432 12.800,166.080 12.800 C 165.728 12.800,165.440 12.944,165.440 13.120 C 165.440 13.296,165.008 13.440,164.480 13.440 C 163.952 13.440,163.520 13.584,163.520 13.760 C 163.520 13.936,163.232 14.080,162.880 14.080 C 162.528 14.080,162.240 14.224,162.240 14.400 C 162.240 14.576,161.808 14.720,161.280 14.720 C 160.752 14.720,160.320 14.864,160.320 15.040 C 160.320 15.216,160.032 15.360,159.680 15.360 C 159.328 15.360,159.040 15.504,159.040 15.680 C 159.040 15.856,158.688 16.000,158.259 16.000 C 157.829 16.000,157.389 16.144,157.280 16.320 C 157.171 16.496,156.803 16.640,156.461 16.640 C 156.120 16.640,155.840 16.784,155.840 16.960 C 155.840 17.136,155.480 17.280,155.040 17.280 C 154.600 17.280,154.240 17.424,154.240 17.600 C 154.240 17.776,153.952 17.920,153.600 17.920 C 153.248 17.920,152.960 18.064,152.960 18.240 C 152.960 18.416,152.528 18.560,152.000 18.560 C 151.472 18.560,151.040 18.704,151.040 18.880 C 151.040 19.056,150.752 19.200,150.400 19.200 C 150.048 19.200,149.760 19.344,149.760 19.520 C 149.760 19.696,149.328 19.840,148.800 19.840 C 148.272 19.840,147.840 20.001,147.840 20.197 C 147.840 20.397,147.558 20.481,147.200 20.387 C 146.767 20.274,146.560 20.377,146.560 20.706 C 146.560 21.065,146.307 21.156,145.600 21.052 C 145.072 20.974,144.640 21.030,144.640 21.175 C 144.640 21.321,144.436 21.440,144.187 21.440 C 143.937 21.440,143.685 21.579,143.627 21.750 C 143.568 21.920,143.062 22.094,142.502 22.136 C 141.942 22.178,141.555 22.327,141.641 22.466 C 141.727 22.606,141.501 22.720,141.139 22.720 C 140.776 22.720,140.480 22.864,140.480 23.040 C 140.480 23.216,140.048 23.360,139.520 23.360 C 138.992 23.360,138.559 23.468,138.558 23.600 C 138.554 23.958,136.939 24.640,136.096 24.640 C 135.691 24.640,135.360 24.784,135.360 24.960 C 135.360 25.136,135.072 25.280,134.720 25.280 C 134.368 25.280,134.080 25.424,134.080 25.600 C 134.080 25.776,133.728 25.920,133.299 25.920 C 132.869 25.920,132.429 26.064,132.320 26.240 C 132.211 26.416,131.843 26.560,131.501 26.560 C 131.160 26.560,130.880 26.704,130.880 26.880 C 130.880 27.056,130.448 27.200,129.920 27.200 C 129.392 27.200,128.960 27.344,128.960 27.520 C 128.960 27.696,128.744 27.840,128.480 27.840 C 128.216 27.840,128.000 27.984,128.000 28.160 C 128.000 28.336,127.568 28.480,127.040 28.480 C 126.512 28.480,126.080 28.624,126.080 28.800 C 126.080 28.976,125.792 29.120,125.440 29.120 C 125.088 29.120,124.800 29.264,124.800 29.440 C 124.800 29.616,124.368 29.760,123.840 29.760 C 123.312 29.760,122.880 29.904,122.880 30.080 C 122.880 30.256,122.592 30.400,122.240 30.400 C 121.888 30.400,121.600 30.544,121.600 30.720 C 121.600 30.896,121.168 31.040,120.640 31.040 C 120.112 31.040,119.680 31.184,119.680 31.360 C 119.680 31.536,119.392 31.680,119.040 31.680 C 118.688 31.680,118.400 31.824,118.400 32.000 C 118.400 32.176,117.968 32.320,117.440 32.320 C 116.912 32.320,116.480 32.464,116.480 32.640 C 116.480 32.816,116.264 32.960,116.000 32.960 C 115.736 32.960,115.520 33.079,115.520 33.225 C 115.520 33.370,115.121 33.431,114.634 33.359 C 114.000 33.266,113.488 33.470,112.832 34.079 C 112.183 34.680,111.702 34.874,111.184 34.745 C 110.782 34.644,110.405 34.694,110.346 34.857 C 110.288 35.019,110.024 35.199,109.760 35.256 C 109.496 35.313,109.200 35.467,109.102 35.598 C 109.004 35.730,108.536 35.869,108.062 35.908 C 107.588 35.947,107.200 36.092,107.200 36.230 C 107.200 36.367,106.912 36.480,106.560 36.480 C 106.208 36.480,105.920 36.624,105.920 36.800 C 105.920 36.976,105.568 37.120,105.139 37.120 C 104.709 37.120,104.269 37.264,104.160 37.440 C 104.051 37.616,103.674 37.760,103.322 37.760 C 102.970 37.760,102.771 37.904,102.880 38.080 C 102.995 38.267,102.670 38.400,102.099 38.400 C 101.560 38.400,101.120 38.544,101.120 38.720 C 101.120 38.896,100.832 39.040,100.480 39.040 C 100.128 39.040,99.840 39.184,99.840 39.360 C 99.840 39.536,99.408 39.680,98.880 39.680 C 98.352 39.680,97.920 39.824,97.920 40.000 C 97.920 40.176,97.632 40.320,97.280 40.320 C 96.928 40.320,96.640 40.464,96.640 40.640 C 96.640 40.816,96.208 40.960,95.680 40.960 C 95.152 40.960,94.720 41.104,94.720 41.280 C 94.720 41.456,94.432 41.600,94.080 41.600 C 93.728 41.600,93.440 41.744,93.440 41.920 C 93.440 42.096,93.156 42.240,92.810 42.240 C 92.463 42.240,91.667 42.528,91.040 42.880 C 90.413 43.232,89.545 43.520,89.110 43.520 C 88.676 43.520,88.319 43.628,88.318 43.760 C 88.314 44.085,86.731 44.800,86.016 44.800 C 85.699 44.800,85.440 44.944,85.440 45.120 C 85.440 45.296,85.152 45.440,84.800 45.440 C 84.448 45.440,84.160 45.584,84.160 45.760 C 84.160 45.936,83.728 46.080,83.200 46.080 C 82.672 46.080,82.240 46.215,82.240 46.380 C 82.240 46.546,81.556 46.782,80.720 46.905 C 79.884 47.028,79.128 47.217,79.040 47.324 C 78.686 47.757,77.409 48.320,76.781 48.320 C 76.415 48.320,75.897 48.537,75.631 48.803 C 75.366 49.069,75.016 49.204,74.854 49.104 C 74.692 49.004,74.560 49.075,74.560 49.261 C 74.560 49.448,74.200 49.600,73.760 49.600 C 73.320 49.600,72.959 49.708,72.958 49.840 C 72.954 50.161,71.375 50.880,70.675 50.880 C 70.369 50.880,70.029 51.024,69.920 51.200 C 69.811 51.376,69.443 51.520,69.101 51.520 C 68.760 51.520,68.480 51.664,68.480 51.840 C 68.480 52.016,68.048 52.160,67.520 52.160 C 66.992 52.160,66.559 52.268,66.558 52.400 C 66.555 52.685,65.007 53.440,64.426 53.440 C 64.202 53.440,63.507 53.728,62.880 54.080 C 62.253 54.432,61.376 54.720,60.931 54.720 C 60.473 54.720,60.208 54.859,60.320 55.040 C 60.429 55.216,60.221 55.360,59.859 55.360 C 59.496 55.360,59.200 55.504,59.200 55.680 C 59.200 55.856,58.768 56.000,58.240 56.000 C 57.712 56.000,57.280 56.144,57.280 56.320 C 57.280 56.496,56.992 56.640,56.640 56.640 C 56.288 56.640,56.000 56.784,56.000 56.960 C 56.000 57.136,55.568 57.280,55.040 57.280 C 54.512 57.280,54.080 57.424,54.080 57.600 C 54.080 57.776,53.792 57.920,53.440 57.920 C 53.088 57.920,52.800 58.064,52.800 58.240 C 52.800 58.416,52.368 58.560,51.840 58.560 C 51.312 58.560,50.880 58.704,50.880 58.880 C 50.880 59.056,50.592 59.200,50.240 59.200 C 49.888 59.200,49.600 59.344,49.600 59.520 C 49.600 59.696,49.248 59.840,48.819 59.840 C 48.389 59.840,47.943 59.994,47.827 60.182 C 47.710 60.370,47.414 60.446,47.168 60.352 C 46.900 60.249,46.720 60.385,46.720 60.690 C 46.720 61.086,46.505 61.157,45.760 61.008 C 45.232 60.902,44.800 60.933,44.800 61.077 C 44.800 61.456,43.298 62.080,42.385 62.080 C 41.953 62.080,41.600 62.224,41.600 62.400 C 41.600 62.576,41.312 62.720,40.960 62.720 C 40.608 62.720,40.320 62.864,40.320 63.040 C 40.320 63.216,39.888 63.360,39.360 63.360 C 38.832 63.360,38.399 63.468,38.398 63.600 C 38.394 63.925,36.811 64.640,36.096 64.640 C 35.779 64.640,35.520 64.784,35.520 64.960 C 35.520 65.136,35.160 65.280,34.720 65.280 C 34.280 65.280,33.920 65.424,33.920 65.600 C 33.920 65.776,33.560 65.920,33.120 65.920 C 32.680 65.920,32.320 66.064,32.320 66.240 C 32.320 66.416,32.032 66.560,31.680 66.560 C 31.328 66.560,31.040 66.704,31.040 66.880 C 31.040 67.056,30.608 67.200,30.080 67.200 C 29.552 67.200,29.120 67.344,29.120 67.520 C 29.120 67.696,28.832 67.840,28.480 67.840 C 28.128 67.840,27.840 67.984,27.840 68.160 C 27.840 68.336,27.408 68.480,26.880 68.480 C 26.352 68.480,25.919 68.588,25.918 68.720 C 25.914 69.078,24.299 69.760,23.456 69.760 C 23.051 69.760,22.719 69.868,22.718 70.000 C 22.714 70.292,21.161 71.040,20.557 71.040 C 20.318 71.040,20.211 71.184,20.320 71.360 C 20.429 71.536,20.253 71.680,19.930 71.680 C 19.606 71.680,19.134 71.968,18.880 72.320 C 18.626 72.672,18.180 72.960,17.889 72.960 C 17.597 72.960,17.192 73.161,16.989 73.406 C 16.785 73.651,16.211 74.020,15.712 74.227 C 15.214 74.433,14.621 74.948,14.395 75.370 C 14.168 75.793,13.861 76.063,13.712 75.970 C 13.562 75.878,13.440 75.955,13.440 76.141 C 13.440 76.328,13.220 76.480,12.952 76.480 C 12.349 76.480,9.600 79.182,9.600 79.774 C 9.600 80.011,9.240 80.518,8.800 80.900 C 8.360 81.283,8.000 81.741,8.000 81.918 C 8.000 82.095,7.784 82.240,7.520 82.240 C 7.256 82.240,7.040 82.518,7.040 82.857 C 7.040 83.197,6.824 83.690,6.560 83.954 C 6.296 84.218,6.080 84.608,6.080 84.820 C 6.080 85.032,5.817 85.438,5.496 85.722 C 5.174 86.007,4.707 86.708,4.458 87.280 C 4.208 87.852,3.895 88.320,3.762 88.320 C 3.629 88.320,3.520 88.608,3.520 88.960 C 3.520 89.312,3.376 89.600,3.200 89.600 C 3.024 89.600,2.880 89.888,2.880 90.240 C 2.880 90.592,2.736 90.880,2.560 90.880 C 2.384 90.880,2.240 91.312,2.240 91.840 C 2.240 92.368,2.096 92.800,1.920 92.800 C 1.744 92.800,1.600 93.232,1.600 93.760 C 1.600 94.288,1.456 94.720,1.280 94.720 C 1.104 94.720,0.960 95.140,0.960 95.653 C 0.960 96.167,0.780 96.647,0.560 96.720 C 0.131 96.863,-0.252 305.515,0.169 309.683 C 0.280 310.785,0.504 311.604,0.666 311.504 C 0.828 311.404,0.960 311.691,0.960 312.141 C 0.960 312.592,1.104 312.960,1.280 312.960 C 1.456 312.960,1.600 313.106,1.600 313.285 C 1.600 313.709,6.291 318.400,6.715 318.400 C 6.894 318.400,7.040 318.544,7.040 318.720 C 7.040 318.896,7.408 319.040,7.859 319.040 C 8.309 319.040,8.596 319.172,8.496 319.334 C 8.132 319.922,12.685 320.041,31.813 319.941 C 47.051 319.862,51.336 319.753,51.440 319.440 C 51.513 319.220,51.849 319.040,52.187 319.040 C 52.524 319.040,52.800 318.896,52.800 318.720 C 52.800 318.544,53.019 318.400,53.286 318.400 C 54.004 318.400,58.634 313.614,58.430 313.083 C 58.334 312.832,58.460 312.640,58.720 312.640 C 58.996 312.640,59.107 312.449,58.997 312.163 C 58.896 311.900,59.023 311.605,59.279 311.507 C 59.576 311.393,59.691 311.044,59.595 310.544 C 59.509 310.091,59.596 309.760,59.803 309.760 C 60.065 309.760,60.160 287.182,60.160 224.960 C 60.160 168.640,60.267 140.160,60.480 140.160 C 60.661 140.160,60.800 139.253,60.800 138.080 C 60.800 136.907,60.939 136.000,61.120 136.000 C 61.296 136.000,61.440 135.424,61.440 134.720 C 61.440 134.016,61.584 133.440,61.760 133.440 C 61.936 133.440,62.080 133.152,62.080 132.800 C 62.080 132.448,62.224 132.160,62.400 132.160 C 62.576 132.160,62.720 131.872,62.720 131.520 C 62.720 131.168,62.864 130.880,63.040 130.880 C 63.216 130.880,63.360 130.624,63.360 130.311 C 63.360 129.997,63.648 129.534,64.000 129.280 C 64.352 129.026,64.640 128.632,64.640 128.404 C 64.640 127.907,66.778 125.765,67.026 126.013 C 67.122 126.109,67.200 125.964,67.200 125.692 C 67.200 125.420,67.628 125.020,68.152 124.803 C 68.676 124.586,69.430 124.127,69.828 123.781 C 70.226 123.436,70.949 123.074,71.436 122.977 C 71.922 122.880,72.320 122.674,72.320 122.520 C 72.320 122.366,72.536 122.240,72.800 122.240 C 73.064 122.240,73.280 122.096,73.280 121.920 C 73.280 121.744,73.712 121.600,74.240 121.600 C 74.768 121.600,75.200 121.456,75.200 121.280 C 75.200 121.093,76.267 120.960,77.760 120.960 C 79.253 120.960,80.320 120.827,80.320 120.640 C 80.320 120.427,120.427 120.320,200.000 120.320 C 279.573 120.320,319.680 120.427,319.680 120.640 C 319.680 120.823,320.634 120.960,321.901 120.960 C 323.123 120.960,324.211 121.104,324.320 121.280 C 324.429 121.456,325.013 121.600,325.619 121.600 C 326.224 121.600,326.720 121.744,326.720 121.920 C 326.720 122.096,326.936 122.240,327.200 122.240 C 327.464 122.240,327.680 122.366,327.680 122.520 C 327.680 122.674,328.078 122.880,328.564 122.977 C 329.051 123.074,329.774 123.436,330.172 123.781 C 330.570 124.127,331.324 124.586,331.848 124.803 C 332.372 125.020,332.800 125.420,332.800 125.692 C 332.800 125.964,332.878 126.109,332.974 126.013 C 333.222 125.765,335.360 127.907,335.360 128.404 C 335.360 128.632,335.648 129.026,336.000 129.280 C 336.352 129.534,336.640 129.997,336.640 130.311 C 336.640 130.624,336.784 130.880,336.960 130.880 C 337.136 130.880,337.280 131.168,337.280 131.520 C 337.280 131.872,337.424 132.160,337.600 132.160 C 337.776 132.160,337.920 132.448,337.920 132.800 C 337.920 133.152,338.064 133.440,338.240 133.440 C 338.416 133.440,338.560 134.016,338.560 134.720 C 338.560 135.424,338.704 136.000,338.880 136.000 C 339.061 136.000,339.200 136.907,339.200 138.080 C 339.200 139.253,339.339 140.160,339.520 140.160 C 339.733 140.160,339.840 168.640,339.840 224.960 C 339.840 287.182,339.935 309.760,340.197 309.760 C 340.404 309.760,340.491 310.091,340.405 310.544 C 340.309 311.044,340.424 311.393,340.721 311.507 C 340.977 311.605,341.104 311.900,341.003 312.163 C 340.896 312.443,341.002 312.640,341.260 312.640 C 341.543 312.640,341.640 312.869,341.533 313.280 C 341.412 313.743,341.523 313.920,341.936 313.920 C 342.250 313.920,342.428 313.998,342.333 314.094 C 342.059 314.367,346.154 318.400,346.706 318.400 C 346.978 318.400,347.200 318.544,347.200 318.720 C 347.200 318.896,347.476 319.040,347.813 319.040 C 348.151 319.040,348.487 319.220,348.560 319.440 C 348.664 319.753,352.949 319.862,368.187 319.941 C 387.315 320.041,391.868 319.922,391.504 319.334 C 391.404 319.172,391.691 319.040,392.141 319.040 C 392.592 319.040,392.960 318.896,392.960 318.720 C 392.960 318.544,393.106 318.400,393.285 318.400 C 393.709 318.400,398.400 313.709,398.400 313.285 C 398.400 313.106,398.544 312.960,398.720 312.960 C 398.896 312.960,399.040 312.592,399.040 312.141 C 399.040 311.691,399.172 311.404,399.334 311.504 C 399.496 311.604,399.720 310.785,399.831 309.683 C 400.252 305.515,399.869 96.863,399.440 96.720 C 399.220 96.647,399.040 96.167,399.040 95.653 C 399.040 95.140,398.896 94.720,398.720 94.720 C 398.544 94.720,398.400 94.288,398.400 93.760 C 398.400 93.232,398.256 92.800,398.080 92.800 C 397.904 92.800,397.760 92.368,397.760 91.840 C 397.760 91.312,397.616 90.880,397.440 90.880 C 397.264 90.880,397.120 90.592,397.120 90.240 C 397.120 89.888,396.976 89.600,396.800 89.600 C 396.624 89.600,396.480 89.312,396.480 88.960 C 396.480 88.608,396.371 88.320,396.238 88.320 C 396.105 88.320,395.792 87.852,395.542 87.280 C 395.293 86.708,394.826 86.007,394.504 85.722 C 394.183 85.438,393.920 85.032,393.920 84.820 C 393.920 84.608,393.704 84.218,393.440 83.954 C 393.176 83.690,392.960 83.197,392.960 82.857 C 392.960 82.518,392.744 82.240,392.480 82.240 C 392.216 82.240,392.000 82.095,392.000 81.918 C 392.000 81.741,391.640 81.283,391.200 80.900 C 390.760 80.518,390.400 80.011,390.400 79.774 C 390.400 79.182,387.651 76.480,387.048 76.480 C 386.780 76.480,386.560 76.328,386.560 76.141 C 386.560 75.955,386.438 75.878,386.288 75.970 C 386.139 76.063,385.832 75.793,385.605 75.370 C 385.379 74.948,384.786 74.433,384.288 74.227 C 383.789 74.020,383.215 73.651,383.011 73.406 C 382.808 73.161,382.403 72.960,382.111 72.960 C 381.820 72.960,381.374 72.672,381.120 72.320 C 380.866 71.968,380.394 71.680,380.070 71.680 C 379.747 71.680,379.571 71.536,379.680 71.360 C 379.789 71.184,379.682 71.040,379.443 71.040 C 378.839 71.040,377.286 70.292,377.282 70.000 C 377.281 69.868,376.949 69.760,376.544 69.760 C 375.701 69.760,374.086 69.078,374.082 68.720 C 374.081 68.588,373.648 68.480,373.120 68.480 C 372.592 68.480,372.160 68.336,372.160 68.160 C 372.160 67.984,371.872 67.840,371.520 67.840 C 371.168 67.840,370.880 67.696,370.880 67.520 C 370.880 67.344,370.448 67.200,369.920 67.200 C 369.392 67.200,368.960 67.056,368.960 66.880 C 368.960 66.704,368.672 66.560,368.320 66.560 C 367.968 66.560,367.680 66.416,367.680 66.240 C 367.680 66.064,367.320 65.920,366.880 65.920 C 366.440 65.920,366.080 65.776,366.080 65.600 C 366.080 65.424,365.720 65.280,365.280 65.280 C 364.840 65.280,364.480 65.136,364.480 64.960 C 364.480 64.784,364.221 64.640,363.904 64.640 C 363.189 64.640,361.606 63.925,361.602 63.600 C 361.601 63.468,361.168 63.360,360.640 63.360 C 360.112 63.360,359.680 63.216,359.680 63.040 C 359.680 62.864,359.392 62.720,359.040 62.720 C 358.688 62.720,358.400 62.576,358.400 62.400 C 358.400 62.224,358.047 62.080,357.615 62.080 C 356.702 62.080,355.200 61.456,355.200 61.077 C 355.200 60.933,354.768 60.902,354.240 61.008 C 353.495 61.157,353.280 61.086,353.280 60.690 C 353.280 60.385,353.100 60.249,352.832 60.352 C 352.586 60.446,352.290 60.370,352.173 60.182 C 352.057 59.994,351.611 59.840,351.181 59.840 C 350.752 59.840,350.400 59.696,350.400 59.520 C 350.400 59.344,350.112 59.200,349.760 59.200 C 349.408 59.200,349.120 59.056,349.120 58.880 C 349.120 58.704,348.688 58.560,348.160 58.560 C 347.632 58.560,347.200 58.416,347.200 58.240 C 347.200 58.064,346.912 57.920,346.560 57.920 C 346.208 57.920,345.920 57.776,345.920 57.600 C 345.920 57.424,345.488 57.280,344.960 57.280 C 344.432 57.280,344.000 57.136,344.000 56.960 C 344.000 56.784,343.712 56.640,343.360 56.640 C 343.008 56.640,342.720 56.496,342.720 56.320 C 342.720 56.144,342.288 56.000,341.760 56.000 C 341.232 56.000,340.800 55.856,340.800 55.680 C 340.800 55.504,340.504 55.360,340.141 55.360 C 339.779 55.360,339.571 55.216,339.680 55.040 C 339.792 54.859,339.527 54.720,339.069 54.720 C 338.624 54.720,337.747 54.432,337.120 54.080 C 336.493 53.728,335.773 53.440,335.520 53.440 C 335.267 53.440,334.547 53.152,333.920 52.800 C 333.293 52.448,332.497 52.160,332.150 52.160 C 331.804 52.160,331.520 52.016,331.520 51.840 C 331.520 51.664,331.240 51.520,330.899 51.520 C 330.557 51.520,330.189 51.376,330.080 51.200 C 329.971 51.024,329.631 50.880,329.325 50.880 C 328.625 50.880,327.046 50.161,327.042 49.840 C 327.041 49.708,326.680 49.600,326.240 49.600 C 325.800 49.600,325.440 49.448,325.440 49.261 C 325.440 49.075,325.308 49.004,325.146 49.104 C 324.984 49.204,324.634 49.069,324.369 48.803 C 324.103 48.537,323.585 48.320,323.219 48.320 C 322.591 48.320,321.314 47.757,320.960 47.324 C 320.872 47.217,320.116 47.028,319.280 46.905 C 318.444 46.782,317.760 46.546,317.760 46.380 C 317.760 46.215,317.328 46.080,316.800 46.080 C 316.272 46.080,315.840 45.936,315.840 45.760 C 315.840 45.584,315.552 45.440,315.200 45.440 C 314.848 45.440,314.560 45.296,314.560 45.120 C 314.560 44.944,314.301 44.800,313.984 44.800 C 313.269 44.800,311.686 44.085,311.682 43.760 C 311.681 43.628,311.324 43.520,310.890 43.520 C 310.455 43.520,309.587 43.232,308.960 42.880 C 308.333 42.528,307.537 42.240,307.190 42.240 C 306.844 42.240,306.560 42.096,306.560 41.920 C 306.560 41.744,306.272 41.600,305.920 41.600 C 305.568 41.600,305.280 41.456,305.280 41.280 C 305.280 41.104,304.848 40.960,304.320 40.960 C 303.792 40.960,303.360 40.816,303.360 40.640 C 303.360 40.464,303.072 40.320,302.720 40.320 C 302.368 40.320,302.080 40.176,302.080 40.000 C 302.080 39.824,301.648 39.680,301.120 39.680 C 300.592 39.680,300.160 39.536,300.160 39.360 C 300.160 39.184,299.872 39.040,299.520 39.040 C 299.168 39.040,298.880 38.896,298.880 38.720 C 298.880 38.544,298.440 38.400,297.901 38.400 C 297.330 38.400,297.005 38.267,297.120 38.080 C 297.229 37.904,297.030 37.760,296.678 37.760 C 296.326 37.760,295.949 37.616,295.840 37.440 C 295.731 37.264,295.291 37.120,294.861 37.120 C 294.432 37.120,294.080 36.976,294.080 36.800 C 294.080 36.624,293.792 36.480,293.440 36.480 C 293.088 36.480,292.800 36.367,292.800 36.230 C 292.800 36.092,292.412 35.947,291.938 35.908 C 291.464 35.869,290.996 35.730,290.898 35.598 C 290.800 35.467,290.504 35.313,290.240 35.256 C 289.976 35.199,289.712 35.019,289.654 34.857 C 289.595 34.694,289.218 34.644,288.816 34.745 C 288.298 34.874,287.817 34.680,287.168 34.079 C 286.512 33.470,286.000 33.266,285.366 33.359 C 284.879 33.431,284.480 33.370,284.480 33.225 C 284.480 33.079,284.264 32.960,284.000 32.960 C 283.736 32.960,283.520 32.816,283.520 32.640 C 283.520 32.464,283.088 32.320,282.560 32.320 C 282.032 32.320,281.600 32.176,281.600 32.000 C 281.600 31.824,281.312 31.680,280.960 31.680 C 280.608 31.680,280.320 31.536,280.320 31.360 C 280.320 31.184,279.888 31.040,279.360 31.040 C 278.832 31.040,278.400 30.896,278.400 30.720 C 278.400 30.544,278.112 30.400,277.760 30.400 C 277.408 30.400,277.120 30.256,277.120 30.080 C 277.120 29.904,276.688 29.760,276.160 29.760 C 275.632 29.760,275.200 29.616,275.200 29.440 C 275.200 29.264,274.912 29.120,274.560 29.120 C 274.208 29.120,273.920 28.976,273.920 28.800 C 273.920 28.624,273.488 28.480,272.960 28.480 C 272.432 28.480,272.000 28.336,272.000 28.160 C 272.000 27.984,271.784 27.840,271.520 27.840 C 271.256 27.840,271.040 27.696,271.040 27.520 C 271.040 27.344,270.608 27.200,270.080 27.200 C 269.552 27.200,269.120 27.056,269.120 26.880 C 269.120 26.704,268.840 26.560,268.499 26.560 C 268.157 26.560,267.789 26.416,267.680 26.240 C 267.571 26.064,267.131 25.920,266.701 25.920 C 266.272 25.920,265.920 25.776,265.920 25.600 C 265.920 25.424,265.632 25.280,265.280 25.280 C 264.928 25.280,264.640 25.136,264.640 24.960 C 264.640 24.784,264.309 24.640,263.904 24.640 C 263.061 24.640,261.446 23.958,261.442 23.600 C 261.441 23.468,261.008 23.360,260.480 23.360 C 259.952 23.360,259.520 23.216,259.520 23.040 C 259.520 22.864,259.224 22.720,258.861 22.720 C 258.499 22.720,258.273 22.606,258.359 22.466 C 258.445 22.327,258.058 22.178,257.498 22.136 C 256.938 22.094,256.432 21.920,256.373 21.750 C 256.315 21.579,256.063 21.440,255.813 21.440 C 255.564 21.440,255.360 21.321,255.360 21.175 C 255.360 21.030,254.928 20.974,254.400 21.052 C 253.693 21.156,253.440 21.065,253.440 20.706 C 253.440 20.377,253.233 20.274,252.800 20.387 C 252.442 20.481,252.160 20.397,252.160 20.197 C 252.160 20.001,251.728 19.840,251.200 19.840 C 250.672 19.840,250.240 19.696,250.240 19.520 C 250.240 19.344,249.952 19.200,249.600 19.200 C 249.248 19.200,248.960 19.056,248.960 18.880 C 248.960 18.704,248.528 18.560,248.000 18.560 C 247.472 18.560,247.040 18.416,247.040 18.240 C 247.040 18.064,246.752 17.920,246.400 17.920 C 246.048 17.920,245.760 17.776,245.760 17.600 C 245.760 17.424,245.400 17.280,244.960 17.280 C 244.520 17.280,244.160 17.136,244.160 16.960 C 244.160 16.784,243.880 16.640,243.539 16.640 C 243.197 16.640,242.829 16.496,242.720 16.320 C 242.611 16.144,242.171 16.000,241.741 16.000 C 241.312 16.000,240.960 15.856,240.960 15.680 C 240.960 15.504,240.672 15.360,240.320 15.360 C 239.968 15.360,239.680 15.216,239.680 15.040 C 239.680 14.864,239.248 14.720,238.720 14.720 C 238.192 14.720,237.760 14.576,237.760 14.400 C 237.760 14.224,237.472 14.080,237.120 14.080 C 236.768 14.080,236.480 13.936,236.480 13.760 C 236.480 13.584,236.048 13.440,235.520 13.440 C 234.992 13.440,234.560 13.296,234.560 13.120 C 234.560 12.944,234.272 12.800,233.920 12.800 C 233.568 12.800,233.280 12.656,233.280 12.480 C 233.280 12.304,232.928 12.160,232.499 12.160 C 232.069 12.160,231.629 12.016,231.520 11.840 C 231.411 11.664,231.034 11.520,230.682 11.520 C 230.330 11.520,230.131 11.376,230.240 11.200 C 230.355 11.013,230.030 10.880,229.459 10.880 C 228.920 10.880,228.480 10.736,228.480 10.560 C 228.480 10.384,228.192 10.240,227.840 10.240 C 227.488 10.240,227.200 10.096,227.200 9.920 C 227.200 9.744,226.768 9.600,226.240 9.600 C 225.712 9.600,225.280 9.448,225.280 9.261 C 225.280 9.075,225.157 8.998,225.007 9.091 C 224.857 9.184,224.461 9.053,224.127 8.800 C 223.793 8.547,223.196 8.336,222.800 8.330 C 222.404 8.325,222.080 8.176,222.080 8.000 C 222.080 7.824,221.800 7.680,221.459 7.680 C 221.117 7.680,220.757 7.549,220.657 7.388 C 220.558 7.227,219.901 6.999,219.198 6.880 C 218.495 6.761,217.920 6.532,217.920 6.372 C 217.920 6.211,217.488 6.080,216.960 6.080 C 216.432 6.080,216.000 5.936,216.000 5.760 C 216.000 5.584,215.712 5.440,215.360 5.440 C 215.008 5.440,214.720 5.296,214.720 5.120 C 214.720 4.944,214.288 4.800,213.760 4.800 C 213.232 4.800,212.800 4.656,212.800 4.480 C 212.800 4.304,212.512 4.160,212.160 4.160 C 211.808 4.160,211.520 4.016,211.520 3.840 C 211.520 3.664,211.088 3.520,210.560 3.520 C 210.032 3.520,209.600 3.376,209.600 3.200 C 209.600 3.024,209.312 2.880,208.960 2.880 C 208.608 2.880,208.320 2.736,208.320 2.560 C 208.320 2.384,207.968 2.240,207.539 2.240 C 207.109 2.240,206.669 2.096,206.560 1.920 C 206.451 1.744,205.867 1.600,205.261 1.600 C 204.656 1.600,204.160 1.456,204.160 1.280 C 204.160 1.083,202.560 0.960,200.000 0.960 C 197.440 0.960,195.840 1.083,195.840 1.280 M79.680 165.120 L 79.680 190.400 200.000 190.400 L 320.320 190.400 320.320 165.120 L 320.320 139.840 200.000 139.840 L 79.680 139.840 79.680 165.120 M79.680 229.920 L 79.680 250.240 200.000 250.240 L 320.320 250.240 320.320 229.920 L 320.320 209.600 200.000 209.600 L 79.680 209.600 79.680 229.920 M79.680 289.581 C 79.680 302.450,79.792 309.472,80.000 309.600 C 80.176 309.709,80.320 310.230,80.320 310.758 C 80.320 311.316,80.454 311.635,80.640 311.520 C 80.821 311.408,80.960 311.677,80.960 312.141 C 80.960 312.592,81.104 312.960,81.280 312.960 C 81.456 312.960,81.600 313.106,81.600 313.285 C 81.600 313.709,86.291 318.400,86.715 318.400 C 86.894 318.400,87.040 318.544,87.040 318.720 C 87.040 318.896,87.408 319.040,87.859 319.040 C 88.309 319.040,88.601 319.165,88.506 319.318 C 88.114 319.952,95.948 320.000,200.000 320.000 C 304.052 320.000,311.886 319.952,311.494 319.318 C 311.399 319.165,311.691 319.040,312.141 319.040 C 312.592 319.040,312.960 318.896,312.960 318.720 C 312.960 318.544,313.106 318.400,313.285 318.400 C 313.709 318.400,318.400 313.709,318.400 313.285 C 318.400 313.106,318.544 312.960,318.720 312.960 C 318.896 312.960,319.040 312.592,319.040 312.141 C 319.040 311.677,319.179 311.408,319.360 311.520 C 319.546 311.635,319.680 311.316,319.680 310.758 C 319.680 310.230,319.824 309.709,320.000 309.600 C 320.208 309.472,320.320 302.450,320.320 289.581 L 320.320 269.760 200.000 269.760 L 79.680 269.760 79.680 289.581 " stroke="none" fill="#4c5c8c" fill-rule="evenodd"></path><path id="path1" d="" stroke="none" fill="#505c8c" fill-rule="evenodd"></path><path id="path2" d="" stroke="none" fill="#505c8c" fill-rule="evenodd"></path><path id="path3" d="" stroke="none" fill="#505c8c" fill-rule="evenodd"></path><path id="path4" d="" stroke="none" fill="#505c8c" fill-rule="evenodd"></path></g></svg>