 <svg  version="1.0" xmlns="http://www.w3.org/2000/svg"  width="300.000000pt" height="300.000000pt" viewBox="0 0 300.000000 300.000000"  preserveAspectRatio="xMidYMid meet">  <g transform="translate(0.000000,300.000000) scale(0.100000,-0.100000)" fill="#325096" stroke="none"> <path d="M1080 2994 c-14 -2 -52 -9 -85 -15 -480 -83 -865 -461 -971 -951 -26 -116 -26 -381 -1 -493 57 -251 157 -435 332 -611 190 -192 399 -299 670 -345 186 -32 365 -20 555 37 91 28 264 109 318 151 18 14 35 23 37 22 2 -2 176 -176 387 -385 413 -412 413 -411 509 -402 146 14 217 177 130 300 -16 24 -181 194 -366 378 -185 184 -347 347 -361 361 l-25 26 31 46 c85 127 152 300 181 472 24 139 24 262 0 395 -49 272 -154 475 -345 665 -232 231 -494 342 -826 350 -80 2 -156 2 -170 -1z m215 -518 c26 -26 45 -83 45 -134 0 -18 6 -34 13 -36 6 -2 39 -9 71 -16 83 -17 116 -51 116 -117 0 -41 -5 -54 -27 -75 -52 -48 -67 -51 -141 -32 -92 23 -227 24 -269 1 -18 -9 -37 -26 -43 -37 -26 -49 8 -71 195 -130 195 -61 283 -118 331 -212 19 -38 24 -63 24 -123 0 -43 -6 -90 -14 -110 -34 -79 -110 -147 -206 -182 l-55 -21 -5 -67 c-4 -60 -8 -70 -38 -96 -22 -20 -43 -29 -67 -29 -78 0 -115 41 -123 135 l-5 63 -61 18 c-33 9 -65 20 -71 24 -5 4 -29 12 -53 19 -84 24 -118 126 -61 187 45 48 77 49 204 9 100 -32 126 -37 190 -33 92 4 128 27 133 81 3 34 1 37 -45 60 -26 14 -100 41 -163 62 -151 48 -226 87 -277 142 -100 108 -94 268 13 379 35 36 144 94 177 94 13 0 17 9 17 38 1 111 39 162 121 162 39 0 55 -5 74 -24z"/> </g> </svg> 