<svg id="svg" version="1.1" xmlns="http://www.w3.org/2000/svg" xmlns:xlink="http://www.w3.org/1999/xlink" width="400" height="400" viewBox="0, 0, 400,400"><g id="svgg"><path id="path0" d="M143.100 0.273 C 141.175 0.360,139.600 0.604,139.600 0.816 C 139.600 1.027,138.621 1.200,137.424 1.200 C 136.227 1.200,135.136 1.380,135.000 1.600 C 134.864 1.820,133.784 2.000,132.600 2.000 C 131.416 2.000,130.336 2.180,130.200 2.400 C 130.064 2.620,129.164 2.800,128.200 2.800 C 127.236 2.800,126.336 2.980,126.200 3.200 C 126.064 3.420,125.333 3.600,124.576 3.600 C 123.819 3.600,123.200 3.780,123.200 4.000 C 123.200 4.220,122.480 4.400,121.600 4.400 C 120.720 4.400,120.000 4.580,120.000 4.800 C 120.000 5.020,119.460 5.200,118.800 5.200 C 118.140 5.200,117.600 5.380,117.600 5.600 C 117.600 5.820,116.880 6.000,116.000 6.000 C 115.120 6.000,114.400 6.180,114.400 6.400 C 114.400 6.620,113.860 6.800,113.200 6.800 C 112.540 6.800,112.000 6.980,112.000 7.200 C 112.000 7.420,111.561 7.600,111.024 7.600 C 110.487 7.600,109.946 7.763,109.823 7.963 C 109.700 8.162,108.700 8.449,107.600 8.600 C 106.500 8.751,105.500 9.038,105.377 9.237 C 105.254 9.437,104.803 9.600,104.376 9.600 C 103.949 9.600,103.600 9.780,103.600 10.000 C 103.600 10.220,103.060 10.400,102.400 10.400 C 101.740 10.400,101.200 10.536,101.200 10.702 C 101.200 11.093,99.088 12.028,98.024 12.108 C 97.571 12.142,97.200 12.312,97.200 12.485 C 97.200 12.658,96.840 12.800,96.400 12.800 C 95.960 12.800,95.600 12.980,95.600 13.200 C 95.600 13.420,95.330 13.600,95.000 13.600 C 94.670 13.600,94.400 13.780,94.400 14.000 C 94.400 14.220,93.950 14.400,93.400 14.400 C 92.850 14.400,92.400 14.580,92.400 14.800 C 92.400 15.020,91.990 15.200,91.488 15.200 C 90.987 15.200,90.317 15.560,90.000 16.000 C 89.683 16.440,89.103 16.800,88.712 16.800 C 88.320 16.800,88.000 16.980,88.000 17.200 C 88.000 17.420,87.640 17.600,87.200 17.600 C 86.760 17.600,86.400 17.780,86.400 18.000 C 86.400 18.220,86.040 18.400,85.600 18.400 C 85.160 18.400,84.800 18.580,84.800 18.800 C 84.800 19.020,84.440 19.200,84.000 19.200 C 83.560 19.200,83.200 19.380,83.200 19.600 C 83.200 19.820,82.840 20.000,82.400 20.000 C 81.960 20.000,81.600 20.180,81.600 20.400 C 81.600 20.620,81.306 20.800,80.947 20.800 C 80.588 20.800,80.001 21.115,79.643 21.500 C 78.795 22.411,77.375 23.200,76.582 23.200 C 76.236 23.200,76.064 23.380,76.200 23.600 C 76.336 23.820,76.156 24.000,75.800 24.000 C 75.444 24.000,75.264 24.180,75.400 24.400 C 75.536 24.620,75.277 24.800,74.824 24.800 C 74.371 24.800,74.000 24.991,74.000 25.224 C 74.000 25.457,73.820 25.536,73.600 25.400 C 73.380 25.264,73.200 25.446,73.200 25.803 C 73.200 26.272,72.976 26.383,72.400 26.200 C 71.835 26.021,71.600 26.128,71.600 26.565 C 71.600 26.909,71.109 27.306,70.500 27.456 C 69.895 27.606,69.109 28.059,68.753 28.464 C 68.397 28.869,67.947 29.201,67.753 29.202 C 67.559 29.203,66.825 29.743,66.122 30.402 C 65.419 31.061,64.636 31.600,64.382 31.600 C 64.129 31.600,63.417 32.140,62.800 32.800 C 62.183 33.460,61.361 34.000,60.973 34.000 C 60.584 34.000,60.378 34.111,60.514 34.248 C 60.818 34.551,59.821 35.600,59.229 35.600 C 58.993 35.600,58.800 35.752,58.800 35.939 C 58.800 36.473,57.355 38.000,56.850 38.000 C 56.599 38.000,55.246 39.125,53.844 40.500 C 50.659 43.622,49.291 44.800,48.850 44.800 C 48.401 44.800,44.800 48.401,44.800 48.850 C 44.800 49.307,43.598 50.687,40.100 54.248 C 38.505 55.872,37.200 57.458,37.200 57.773 C 37.200 58.088,36.840 58.460,36.400 58.600 C 35.960 58.740,35.600 59.035,35.600 59.256 C 35.600 59.827,34.544 60.810,34.248 60.514 C 34.111 60.378,34.000 60.584,34.000 60.973 C 34.000 61.361,33.460 62.183,32.800 62.800 C 32.140 63.417,31.600 64.129,31.600 64.382 C 31.600 64.636,31.061 65.419,30.402 66.122 C 29.743 66.825,29.203 67.559,29.202 67.753 C 29.201 67.947,28.869 68.397,28.464 68.753 C 28.059 69.109,27.606 69.895,27.456 70.500 C 27.306 71.109,26.909 71.600,26.565 71.600 C 26.128 71.600,26.021 71.835,26.200 72.400 C 26.383 72.976,26.272 73.200,25.803 73.200 C 25.446 73.200,25.264 73.380,25.400 73.600 C 25.536 73.820,25.457 74.000,25.224 74.000 C 24.991 74.000,24.800 74.371,24.800 74.824 C 24.800 75.277,24.620 75.536,24.400 75.400 C 24.180 75.264,24.000 75.444,24.000 75.800 C 24.000 76.156,23.820 76.336,23.600 76.200 C 23.380 76.064,23.200 76.236,23.200 76.582 C 23.200 77.375,22.411 78.795,21.500 79.643 C 21.115 80.001,20.800 80.588,20.800 80.947 C 20.800 81.306,20.620 81.600,20.400 81.600 C 20.180 81.600,20.000 81.960,20.000 82.400 C 20.000 82.840,19.820 83.200,19.600 83.200 C 19.380 83.200,19.200 83.560,19.200 84.000 C 19.200 84.440,19.020 84.800,18.800 84.800 C 18.580 84.800,18.400 85.160,18.400 85.600 C 18.400 86.040,18.220 86.400,18.000 86.400 C 17.780 86.400,17.600 86.720,17.600 87.112 C 17.600 87.503,17.240 88.083,16.800 88.400 C 16.360 88.717,16.000 89.297,16.000 89.688 C 16.000 90.080,15.820 90.400,15.600 90.400 C 15.380 90.400,15.200 90.850,15.200 91.400 C 15.200 91.950,15.020 92.400,14.800 92.400 C 14.580 92.400,14.400 92.850,14.400 93.400 C 14.400 93.950,14.220 94.400,14.000 94.400 C 13.780 94.400,13.600 94.670,13.600 95.000 C 13.600 95.330,13.420 95.600,13.200 95.600 C 12.980 95.600,12.800 95.960,12.800 96.400 C 12.800 96.840,12.658 97.200,12.485 97.200 C 12.312 97.200,12.142 97.571,12.108 98.024 C 12.028 99.088,11.093 101.200,10.702 101.200 C 10.536 101.200,10.400 101.740,10.400 102.400 C 10.400 103.060,10.220 103.600,10.000 103.600 C 9.780 103.600,9.600 103.949,9.600 104.376 C 9.600 104.803,9.437 105.254,9.237 105.377 C 9.038 105.500,8.751 106.500,8.600 107.600 C 8.449 108.700,8.162 109.700,7.963 109.823 C 7.763 109.946,7.600 110.487,7.600 111.024 C 7.600 111.561,7.420 112.000,7.200 112.000 C 6.980 112.000,6.800 112.540,6.800 113.200 C 6.800 113.860,6.620 114.400,6.400 114.400 C 6.180 114.400,6.000 114.940,6.000 115.600 C 6.000 116.260,5.820 116.800,5.600 116.800 C 5.380 116.800,5.200 117.520,5.200 118.400 C 5.200 119.280,5.020 120.000,4.800 120.000 C 4.580 120.000,4.400 120.720,4.400 121.600 C 4.400 122.480,4.220 123.200,4.000 123.200 C 3.780 123.200,3.600 123.819,3.600 124.576 C 3.600 125.333,3.420 126.064,3.200 126.200 C 2.980 126.336,2.800 127.236,2.800 128.200 C 2.800 129.164,2.620 130.064,2.400 130.200 C 2.180 130.336,2.000 131.416,2.000 132.600 C 2.000 133.784,1.820 134.864,1.600 135.000 C 1.380 135.136,1.200 136.212,1.200 137.390 C 1.200 138.749,1.017 139.594,0.700 139.700 C -0.030 139.943,-0.030 184.530,0.700 185.260 C 0.975 185.535,1.200 186.714,1.200 187.880 C 1.200 189.046,1.380 190.000,1.600 190.000 C 1.822 190.000,2.000 191.067,2.000 192.400 C 2.000 193.733,2.178 194.800,2.400 194.800 C 2.620 194.800,2.800 195.700,2.800 196.800 C 2.800 197.900,2.980 198.800,3.200 198.800 C 3.420 198.800,3.600 199.520,3.600 200.400 C 3.600 201.280,3.780 202.000,4.000 202.000 C 4.220 202.000,4.400 202.720,4.400 203.600 C 4.400 204.480,4.580 205.200,4.800 205.200 C 5.020 205.200,5.200 205.819,5.200 206.576 C 5.200 207.333,5.380 208.064,5.600 208.200 C 5.820 208.336,6.000 208.887,6.000 209.424 C 6.000 209.961,6.180 210.400,6.400 210.400 C 6.620 210.400,6.800 210.940,6.800 211.600 C 6.800 212.260,6.980 212.800,7.200 212.800 C 7.420 212.800,7.600 213.340,7.600 214.000 C 7.600 214.660,7.763 215.200,7.962 215.200 C 8.290 215.200,9.055 218.975,8.875 219.700 C 8.834 219.865,8.980 220.000,9.200 220.000 C 9.420 220.000,9.600 220.345,9.600 220.767 C 9.600 221.188,9.778 221.593,9.997 221.667 C 10.215 221.740,10.433 222.282,10.481 222.871 C 10.530 223.460,10.712 223.855,10.885 223.748 C 11.058 223.640,11.200 224.103,11.200 224.776 C 11.200 225.449,11.335 226.001,11.500 226.003 C 11.859 226.007,12.800 227.944,12.800 228.680 C 12.800 228.966,12.980 229.200,13.200 229.200 C 13.420 229.200,13.600 229.560,13.600 230.000 C 13.600 230.440,13.780 230.800,14.000 230.800 C 14.220 230.800,14.400 231.160,14.400 231.600 C 14.400 232.040,14.580 232.400,14.800 232.400 C 15.020 232.400,15.200 232.874,15.200 233.453 C 15.200 234.032,15.515 234.799,15.900 235.157 C 16.811 236.005,17.600 237.425,17.600 238.218 C 17.600 238.564,17.780 238.736,18.000 238.600 C 18.220 238.464,18.400 238.723,18.400 239.176 C 18.400 239.629,18.580 240.000,18.800 240.000 C 19.020 240.000,19.200 240.360,19.200 240.800 C 19.200 241.240,19.380 241.600,19.600 241.600 C 19.820 241.600,20.000 241.960,20.000 242.400 C 20.000 242.840,20.180 243.200,20.400 243.200 C 20.620 243.200,20.800 243.520,20.800 243.912 C 20.800 244.303,21.160 244.883,21.600 245.200 C 22.040 245.517,22.400 246.097,22.400 246.488 C 22.400 246.880,22.580 247.200,22.800 247.200 C 23.020 247.200,23.200 247.520,23.200 247.912 C 23.200 248.303,23.560 248.883,24.000 249.200 C 24.440 249.517,24.800 250.097,24.800 250.488 C 24.800 250.880,24.991 251.200,25.224 251.200 C 25.457 251.200,25.536 251.380,25.400 251.600 C 25.264 251.820,25.447 252.000,25.806 252.000 C 26.205 252.000,26.408 252.264,26.328 252.680 C 26.256 253.054,26.612 253.776,27.120 254.284 C 27.628 254.791,27.933 255.385,27.798 255.603 C 27.663 255.822,27.844 256.000,28.200 256.000 C 28.556 256.000,28.736 256.180,28.600 256.400 C 28.464 256.620,28.543 256.800,28.776 256.800 C 29.009 256.800,29.200 257.027,29.200 257.304 C 29.200 257.582,29.740 258.255,30.400 258.800 C 31.060 259.345,31.600 260.036,31.600 260.335 C 31.600 260.634,32.140 261.383,32.800 262.000 C 33.460 262.617,34.000 263.330,34.000 263.586 C 34.000 263.842,34.900 264.929,36.000 266.000 C 37.100 267.071,38.000 268.142,38.000 268.380 C 38.000 268.617,39.530 270.352,41.400 272.234 C 43.270 274.117,44.800 275.829,44.800 276.039 C 44.800 276.579,48.284 280.000,48.834 280.000 C 49.085 280.000,50.908 281.620,52.886 283.600 C 54.865 285.580,56.657 287.200,56.870 287.200 C 57.083 287.200,58.160 288.055,59.262 289.100 C 60.364 290.145,61.564 291.168,61.929 291.373 C 62.293 291.578,62.942 292.073,63.371 292.473 C 63.800 292.873,64.315 293.200,64.515 293.200 C 64.715 293.200,65.383 293.740,66.000 294.400 C 66.617 295.060,67.369 295.600,67.672 295.600 C 67.975 295.600,68.483 295.960,68.800 296.400 C 69.117 296.840,69.657 297.200,70.000 297.200 C 70.343 297.200,70.883 297.560,71.200 298.000 C 71.517 298.440,72.014 298.800,72.305 298.800 C 72.596 298.800,73.220 299.160,73.692 299.600 C 74.164 300.040,74.798 300.400,75.099 300.400 C 75.401 300.400,75.536 300.580,75.400 300.800 C 75.264 301.020,75.433 301.200,75.776 301.200 C 76.119 301.200,76.400 301.380,76.400 301.600 C 76.400 301.820,76.670 302.000,77.000 302.000 C 77.330 302.000,77.600 302.180,77.600 302.400 C 77.600 302.620,77.920 302.800,78.312 302.800 C 78.703 302.800,79.283 303.160,79.600 303.600 C 79.917 304.040,80.371 304.400,80.609 304.400 C 81.275 304.400,83.193 305.363,83.197 305.700 C 83.199 305.865,83.560 306.000,84.000 306.000 C 84.440 306.000,84.800 306.192,84.800 306.427 C 84.800 306.672,85.141 306.746,85.600 306.600 C 86.040 306.460,86.400 306.513,86.400 306.718 C 86.400 306.922,87.300 307.517,88.400 308.039 C 89.500 308.562,90.400 309.126,90.400 309.294 C 90.400 309.462,90.724 309.600,91.120 309.600 C 92.014 309.600,93.993 310.494,93.997 310.900 C 93.999 311.065,94.265 311.200,94.588 311.200 C 94.911 311.200,95.817 311.560,96.600 312.000 C 97.383 312.440,98.379 312.800,98.812 312.800 C 99.245 312.800,99.600 312.980,99.600 313.200 C 99.600 313.420,99.960 313.600,100.400 313.600 C 100.840 313.600,101.200 313.780,101.200 314.000 C 101.200 314.220,101.740 314.400,102.400 314.400 C 103.060 314.400,103.600 314.580,103.600 314.800 C 103.600 315.020,103.960 315.200,104.400 315.200 C 104.840 315.200,105.200 315.380,105.200 315.600 C 105.200 315.820,105.740 316.000,106.400 316.000 C 107.060 316.000,107.600 316.180,107.600 316.400 C 107.600 316.620,108.039 316.800,108.576 316.800 C 109.113 316.800,109.664 316.980,109.800 317.200 C 109.936 317.420,110.476 317.600,111.000 317.600 C 111.524 317.600,112.064 317.780,112.200 318.000 C 112.336 318.220,112.887 318.400,113.424 318.400 C 113.961 318.400,114.400 318.580,114.400 318.800 C 114.400 319.020,115.120 319.200,116.000 319.200 C 116.880 319.200,117.600 319.380,117.600 319.600 C 117.600 319.820,118.140 320.000,118.800 320.000 C 119.460 320.000,120.000 320.143,120.000 320.318 C 120.000 320.493,120.675 320.682,121.499 320.737 C 122.324 320.793,123.170 321.010,123.379 321.219 C 123.589 321.429,124.365 321.600,125.104 321.600 C 125.897 321.600,126.346 321.764,126.200 322.000 C 126.048 322.246,126.721 322.400,127.953 322.400 C 129.053 322.400,130.064 322.580,130.200 322.800 C 130.336 323.020,131.397 323.200,132.557 323.200 C 133.717 323.200,134.789 323.323,134.939 323.473 C 135.089 323.623,136.199 323.700,137.406 323.644 C 139.010 323.569,139.600 323.684,139.599 324.071 C 139.598 324.478,140.380 324.570,142.999 324.471 C 145.235 324.386,146.400 324.488,146.400 324.771 C 146.400 325.069,151.270 325.200,162.400 325.200 C 173.507 325.200,178.400 325.069,178.400 324.772 C 178.400 324.489,179.628 324.387,182.001 324.472 C 184.802 324.571,185.602 324.481,185.601 324.066 C 185.600 323.661,186.231 323.564,188.201 323.666 C 189.800 323.748,190.801 323.642,190.801 323.389 C 190.800 323.150,191.482 323.044,192.435 323.135 C 193.334 323.220,194.270 323.090,194.515 322.845 C 194.760 322.600,195.723 322.400,196.656 322.400 C 197.589 322.400,198.452 322.240,198.573 322.044 C 198.780 321.708,199.793 321.472,203.303 320.942 C 204.129 320.818,204.905 320.555,205.026 320.358 C 205.148 320.161,205.779 320.000,206.429 320.000 C 207.079 320.000,207.968 319.820,208.405 319.600 C 208.842 319.380,209.558 319.020,209.995 318.800 C 210.432 318.580,211.141 318.400,211.571 318.400 C 212.001 318.400,212.464 318.220,212.600 318.000 C 212.736 317.780,213.377 317.600,214.024 317.600 C 214.671 317.600,215.200 317.420,215.200 317.200 C 215.200 316.980,215.740 316.800,216.400 316.800 C 217.060 316.800,217.600 316.620,217.600 316.400 C 217.600 316.180,218.140 316.000,218.800 316.000 C 219.460 316.000,220.000 315.820,220.000 315.600 C 220.000 315.380,220.540 315.200,221.200 315.200 C 221.860 315.200,222.401 315.065,222.403 314.900 C 222.407 314.494,224.386 313.600,225.280 313.600 C 225.676 313.600,226.000 313.420,226.000 313.200 C 226.000 312.980,226.360 312.800,226.800 312.800 C 227.240 312.800,227.600 312.620,227.600 312.400 C 227.600 312.180,227.960 312.000,228.400 312.000 C 228.840 312.000,229.200 311.820,229.200 311.600 C 229.200 311.380,229.560 311.200,230.000 311.200 C 230.440 311.200,230.800 311.020,230.800 310.800 C 230.800 310.580,231.340 310.400,232.000 310.400 C 232.660 310.400,233.200 310.220,233.200 310.000 C 233.200 309.780,233.560 309.600,234.000 309.600 C 234.440 309.600,234.800 309.420,234.800 309.200 C 234.800 308.980,235.088 308.800,235.440 308.800 C 236.471 308.800,238.782 307.562,238.687 307.061 C 238.638 306.800,239.000 306.643,239.523 306.699 C 240.056 306.757,240.342 306.630,240.200 306.399 C 240.064 306.180,240.323 306.000,240.776 306.000 C 241.229 306.000,241.600 305.820,241.600 305.600 C 241.600 305.380,241.960 305.200,242.400 305.200 C 242.840 305.200,243.200 305.042,243.200 304.849 C 243.200 304.655,243.740 304.273,244.400 304.000 C 245.060 303.727,245.600 303.345,245.600 303.151 C 245.600 302.958,245.960 302.800,246.400 302.800 C 246.840 302.800,247.200 302.620,247.200 302.400 C 247.200 302.180,247.520 302.000,247.912 302.000 C 248.303 302.000,248.883 301.640,249.200 301.200 C 249.517 300.760,250.054 300.400,250.392 300.400 C 250.731 300.400,251.232 300.040,251.507 299.600 C 251.782 299.160,252.326 298.800,252.715 298.800 C 253.105 298.800,253.683 298.440,254.000 298.000 C 254.317 297.560,254.807 297.200,255.088 297.200 C 255.370 297.200,255.600 297.020,255.600 296.800 C 255.600 296.580,255.870 296.400,256.200 296.400 C 256.530 296.400,256.800 296.241,256.800 296.047 C 256.800 295.330,258.281 295.336,259.171 296.057 C 259.676 296.466,259.934 296.801,259.744 296.803 C 259.555 296.804,259.940 297.163,260.600 297.600 C 261.260 298.037,261.686 298.396,261.547 298.397 C 261.408 298.399,262.921 300.020,264.908 302.000 C 266.896 303.980,268.675 305.600,268.861 305.600 C 269.047 305.600,269.200 305.870,269.200 306.200 C 269.200 306.530,269.356 306.800,269.547 306.800 C 269.737 306.800,271.189 308.060,272.772 309.600 C 274.355 311.140,275.504 312.401,275.325 312.403 C 275.146 312.404,275.540 312.763,276.200 313.200 C 276.860 313.637,277.280 313.996,277.133 313.997 C 276.987 313.999,277.479 314.630,278.226 315.400 C 278.974 316.170,279.658 316.800,279.746 316.800 C 279.959 316.800,283.200 320.047,283.200 320.260 C 283.200 320.352,283.830 321.057,284.600 321.827 C 285.370 322.597,286.001 323.086,286.003 322.913 C 286.004 322.741,286.363 323.140,286.800 323.800 C 287.237 324.460,287.596 324.854,287.597 324.675 C 287.599 324.496,288.860 325.645,290.400 327.228 C 291.940 328.811,293.200 330.263,293.200 330.453 C 293.200 330.644,293.470 330.800,293.800 330.800 C 294.130 330.800,294.400 330.953,294.400 331.139 C 294.400 331.325,296.020 333.104,298.000 335.092 C 299.980 337.079,301.601 338.592,301.603 338.453 C 301.604 338.314,301.933 338.696,302.333 339.303 C 302.733 339.910,303.137 340.349,303.230 340.279 C 303.324 340.210,304.878 341.648,306.684 343.476 C 308.490 345.304,309.840 346.801,309.684 346.803 C 309.528 346.804,309.940 347.163,310.600 347.600 C 311.260 348.037,311.686 348.396,311.547 348.397 C 311.408 348.399,312.921 350.020,314.908 352.000 C 316.896 353.980,318.675 355.600,318.861 355.600 C 319.047 355.600,319.200 355.870,319.200 356.200 C 319.200 356.530,319.356 356.800,319.547 356.800 C 319.737 356.800,321.189 358.060,322.772 359.600 C 324.355 361.140,325.504 362.401,325.325 362.403 C 325.146 362.404,325.540 362.763,326.200 363.200 C 326.860 363.637,327.280 363.996,327.133 363.997 C 326.987 363.999,327.479 364.630,328.226 365.400 C 328.974 366.170,329.658 366.800,329.746 366.800 C 329.959 366.800,333.200 370.047,333.200 370.260 C 333.200 370.352,333.830 371.057,334.600 371.827 C 335.370 372.597,336.001 373.086,336.003 372.913 C 336.004 372.741,336.363 373.140,336.800 373.800 C 337.237 374.460,337.596 374.854,337.597 374.675 C 337.599 374.496,338.860 375.645,340.400 377.228 C 341.940 378.811,343.200 380.263,343.200 380.453 C 343.200 380.644,343.470 380.800,343.800 380.800 C 344.130 380.800,344.400 380.953,344.400 381.139 C 344.400 381.325,346.020 383.104,348.000 385.092 C 349.980 387.079,351.601 388.592,351.603 388.453 C 351.604 388.314,351.963 388.740,352.400 389.400 C 352.837 390.060,353.196 390.474,353.197 390.319 C 353.199 390.165,354.456 391.290,355.992 392.819 C 357.527 394.349,358.967 395.600,359.192 395.600 C 359.416 395.600,359.600 395.753,359.600 395.940 C 359.600 396.127,360.815 396.889,362.300 397.632 C 363.785 398.376,365.129 399.167,365.286 399.392 C 365.682 399.958,384.329 399.948,384.715 399.381 C 384.872 399.151,386.057 398.452,387.349 397.828 C 388.641 397.204,390.069 396.267,390.521 395.747 C 390.974 395.226,391.498 394.800,391.685 394.800 C 392.158 394.800,394.800 392.116,394.800 391.636 C 394.800 391.421,395.152 390.999,395.582 390.698 C 396.483 390.067,398.800 385.849,398.800 384.839 C 398.800 384.466,399.025 383.935,399.300 383.660 C 400.014 382.946,400.014 367.054,399.300 366.340 C 399.025 366.065,398.800 365.533,398.800 365.158 C 398.800 364.188,397.136 361.192,396.735 361.440 C 396.551 361.554,396.399 361.232,396.399 360.724 C 396.398 360.143,395.952 359.503,395.200 359.000 C 394.541 358.560,394.002 357.966,394.001 357.681 C 394.001 357.395,393.109 356.270,392.019 355.181 C 390.930 354.091,390.165 353.199,390.319 353.197 C 390.474 353.196,390.060 352.837,389.400 352.400 C 388.740 351.963,388.314 351.604,388.453 351.603 C 388.592 351.601,387.079 349.980,385.092 348.000 C 383.104 346.020,381.325 344.400,381.139 344.400 C 380.953 344.400,380.800 344.130,380.800 343.800 C 380.800 343.470,380.644 343.200,380.453 343.200 C 380.263 343.200,378.811 341.940,377.228 340.400 C 375.645 338.860,374.496 337.599,374.675 337.597 C 374.854 337.596,374.460 337.237,373.800 336.800 C 373.140 336.363,372.741 336.004,372.913 336.003 C 373.086 336.001,372.597 335.370,371.827 334.600 C 371.057 333.830,370.352 333.200,370.260 333.200 C 370.047 333.200,366.800 329.959,366.800 329.746 C 366.800 329.658,366.170 328.974,365.400 328.226 C 364.630 327.479,363.999 326.987,363.997 327.133 C 363.996 327.280,363.637 326.860,363.200 326.200 C 362.763 325.540,362.404 325.146,362.403 325.325 C 362.401 325.504,361.140 324.355,359.600 322.772 C 358.060 321.189,356.800 319.737,356.800 319.547 C 356.800 319.356,356.530 319.200,356.200 319.200 C 355.870 319.200,355.600 319.047,355.600 318.861 C 355.600 318.675,353.980 316.896,352.000 314.908 C 350.020 312.921,348.399 311.408,348.397 311.547 C 348.396 311.686,348.067 311.304,347.667 310.697 C 347.267 310.090,346.863 309.651,346.770 309.721 C 346.676 309.790,345.122 308.352,343.316 306.524 C 341.510 304.696,340.160 303.199,340.316 303.197 C 340.472 303.196,340.060 302.837,339.400 302.400 C 338.740 301.963,338.314 301.604,338.453 301.603 C 338.592 301.601,337.079 299.980,335.092 298.000 C 333.104 296.020,331.325 294.400,331.139 294.400 C 330.953 294.400,330.800 294.130,330.800 293.800 C 330.800 293.470,330.644 293.200,330.453 293.200 C 330.263 293.200,328.811 291.940,327.228 290.400 C 325.645 288.860,324.496 287.599,324.675 287.597 C 324.854 287.596,324.460 287.237,323.800 286.800 C 323.140 286.363,322.741 286.004,322.913 286.003 C 323.086 286.001,322.597 285.370,321.827 284.600 C 321.057 283.830,320.352 283.200,320.260 283.200 C 320.047 283.200,316.800 279.959,316.800 279.746 C 316.800 279.658,316.170 278.974,315.400 278.226 C 314.630 277.479,313.999 276.987,313.997 277.133 C 313.996 277.280,313.637 276.860,313.200 276.200 C 312.763 275.540,312.404 275.146,312.403 275.325 C 312.401 275.504,311.140 274.355,309.600 272.772 C 308.060 271.189,306.800 269.737,306.800 269.547 C 306.800 269.356,306.530 269.200,306.200 269.200 C 305.870 269.200,305.600 269.047,305.600 268.861 C 305.600 268.675,303.980 266.896,302.000 264.908 C 300.020 262.921,298.399 261.408,298.397 261.547 C 298.396 261.686,298.037 261.260,297.600 260.600 C 297.163 259.940,296.804 259.555,296.803 259.744 C 296.801 259.934,296.466 259.676,296.057 259.171 C 295.336 258.281,295.330 256.800,296.047 256.800 C 296.241 256.800,296.400 256.530,296.400 256.200 C 296.400 255.870,296.580 255.600,296.800 255.600 C 297.020 255.600,297.200 255.370,297.200 255.088 C 297.200 254.807,297.560 254.317,298.000 254.000 C 298.440 253.683,298.800 253.105,298.800 252.715 C 298.800 252.326,299.160 251.782,299.600 251.507 C 300.040 251.232,300.400 250.731,300.400 250.392 C 300.400 250.054,300.760 249.517,301.200 249.200 C 301.640 248.883,302.000 248.303,302.000 247.912 C 302.000 247.520,302.180 247.200,302.400 247.200 C 302.620 247.200,302.800 246.840,302.800 246.400 C 302.800 245.960,302.958 245.600,303.151 245.600 C 303.345 245.600,303.727 245.060,304.000 244.400 C 304.273 243.740,304.655 243.200,304.849 243.200 C 305.042 243.200,305.200 242.840,305.200 242.400 C 305.200 241.960,305.380 241.600,305.600 241.600 C 305.820 241.600,306.000 241.229,306.000 240.776 C 306.000 240.323,306.180 240.064,306.399 240.200 C 306.630 240.342,306.757 240.056,306.699 239.523 C 306.643 239.000,306.800 238.638,307.061 238.687 C 307.562 238.782,308.800 236.471,308.800 235.440 C 308.800 235.088,308.980 234.800,309.200 234.800 C 309.420 234.800,309.600 234.260,309.600 233.600 C 309.600 232.940,309.780 232.400,310.000 232.400 C 310.220 232.400,310.400 232.040,310.400 231.600 C 310.400 231.160,310.580 230.800,310.800 230.800 C 311.020 230.800,311.200 230.440,311.200 230.000 C 311.200 229.560,311.380 229.200,311.600 229.200 C 311.820 229.200,312.000 228.840,312.000 228.400 C 312.000 227.960,312.180 227.600,312.400 227.600 C 312.620 227.600,312.800 227.060,312.800 226.400 C 312.800 225.740,312.935 225.199,313.100 225.197 C 313.506 225.193,314.400 223.214,314.400 222.320 C 314.400 221.924,314.580 221.600,314.800 221.600 C 315.020 221.600,315.200 221.240,315.200 220.800 C 315.200 220.360,315.380 220.000,315.600 220.000 C 315.820 220.000,316.000 219.460,316.000 218.800 C 316.000 218.140,316.180 217.600,316.400 217.600 C 316.620 217.600,316.800 217.060,316.800 216.400 C 316.800 215.740,316.980 215.200,317.200 215.200 C 317.420 215.200,317.600 214.671,317.600 214.024 C 317.600 213.377,317.780 212.736,318.000 212.600 C 318.220 212.464,318.400 212.001,318.400 211.571 C 318.400 211.141,318.580 210.432,318.800 209.995 C 319.020 209.558,319.380 208.842,319.600 208.405 C 319.820 207.968,320.000 207.079,320.000 206.429 C 320.000 205.779,320.161 205.148,320.358 205.026 C 320.555 204.905,320.818 204.129,320.942 203.303 C 321.472 199.793,321.708 198.780,322.044 198.573 C 322.240 198.452,322.400 197.589,322.400 196.656 C 322.400 195.723,322.600 194.760,322.845 194.515 C 323.090 194.270,323.220 193.334,323.135 192.435 C 323.044 191.482,323.150 190.800,323.389 190.801 C 323.642 190.801,323.748 189.800,323.666 188.201 C 323.564 186.231,323.661 185.600,324.066 185.601 C 324.481 185.602,324.571 184.802,324.472 182.001 C 324.387 179.628,324.489 178.400,324.772 178.400 C 325.377 178.400,325.371 146.331,324.765 145.725 C 324.506 145.466,324.385 144.142,324.465 142.444 C 324.568 140.283,324.473 139.598,324.071 139.599 C 323.684 139.600,323.569 139.010,323.644 137.406 C 323.700 136.199,323.623 135.089,323.473 134.939 C 323.323 134.789,323.200 133.717,323.200 132.557 C 323.200 131.397,323.020 130.336,322.800 130.200 C 322.580 130.064,322.400 129.053,322.400 127.953 C 322.400 126.721,322.246 126.048,322.000 126.200 C 321.764 126.346,321.600 125.897,321.600 125.104 C 321.600 124.365,321.429 123.589,321.219 123.379 C 321.010 123.170,320.793 122.324,320.737 121.499 C 320.682 120.675,320.493 120.000,320.318 120.000 C 320.143 120.000,320.000 119.460,320.000 118.800 C 320.000 118.140,319.820 117.600,319.600 117.600 C 319.380 117.600,319.200 116.880,319.200 116.000 C 319.200 115.120,319.020 114.400,318.800 114.400 C 318.580 114.400,318.400 113.961,318.400 113.424 C 318.400 112.887,318.220 112.336,318.000 112.200 C 317.780 112.064,317.600 111.524,317.600 111.000 C 317.600 110.476,317.420 109.936,317.200 109.800 C 316.980 109.664,316.800 109.113,316.800 108.576 C 316.800 108.039,316.620 107.600,316.400 107.600 C 316.180 107.600,316.000 107.060,316.000 106.400 C 316.000 105.740,315.820 105.200,315.600 105.200 C 315.380 105.200,315.200 104.840,315.200 104.400 C 315.200 103.960,315.020 103.600,314.800 103.600 C 314.580 103.600,314.400 103.060,314.400 102.400 C 314.400 101.740,314.220 101.200,314.000 101.200 C 313.780 101.200,313.600 100.858,313.600 100.441 C 313.600 100.023,313.060 98.655,312.400 97.400 C 311.740 96.145,311.200 94.867,311.200 94.559 C 311.200 94.252,311.065 93.999,310.900 93.997 C 310.494 93.993,309.600 92.014,309.600 91.120 C 309.600 90.724,309.420 90.400,309.200 90.400 C 308.980 90.400,308.800 90.123,308.800 89.784 C 308.800 89.198,307.355 86.862,306.686 86.368 C 306.514 86.240,306.488 85.835,306.629 85.468 C 306.774 85.092,306.692 84.800,306.443 84.800 C 306.199 84.800,306.000 84.440,306.000 84.000 C 306.000 83.560,305.865 83.199,305.700 83.197 C 305.363 83.193,304.400 81.275,304.400 80.609 C 304.400 80.371,304.040 79.917,303.600 79.600 C 303.160 79.283,302.800 78.703,302.800 78.312 C 302.800 77.920,302.620 77.600,302.400 77.600 C 302.180 77.600,302.000 77.330,302.000 77.000 C 302.000 76.670,301.820 76.400,301.600 76.400 C 301.380 76.400,301.200 76.119,301.200 75.776 C 301.200 75.433,301.020 75.264,300.800 75.400 C 300.580 75.536,300.400 75.401,300.400 75.099 C 300.400 74.798,300.040 74.164,299.600 73.692 C 299.160 73.220,298.800 72.596,298.800 72.305 C 298.800 72.014,298.440 71.517,298.000 71.200 C 297.560 70.883,297.200 70.343,297.200 70.000 C 297.200 69.657,296.840 69.117,296.400 68.800 C 295.960 68.483,295.600 67.975,295.600 67.672 C 295.600 67.369,295.060 66.617,294.400 66.000 C 293.740 65.383,293.200 64.715,293.200 64.515 C 293.200 64.315,292.873 63.800,292.473 63.371 C 292.073 62.942,291.578 62.293,291.373 61.929 C 291.168 61.564,290.145 60.364,289.100 59.262 C 288.055 58.160,287.200 57.083,287.200 56.870 C 287.200 56.657,285.580 54.865,283.600 52.886 C 281.620 50.908,280.000 49.085,280.000 48.834 C 280.000 48.295,276.584 44.800,276.056 44.800 C 275.856 44.800,273.945 43.090,271.810 41.000 C 269.676 38.910,267.751 37.200,267.533 37.200 C 267.315 37.200,266.446 36.480,265.600 35.600 C 264.754 34.720,263.851 34.000,263.592 34.000 C 263.333 34.000,262.617 33.460,262.000 32.800 C 261.383 32.140,260.634 31.600,260.335 31.600 C 260.036 31.600,259.345 31.060,258.800 30.400 C 258.255 29.740,257.582 29.200,257.304 29.200 C 257.027 29.200,256.800 29.009,256.800 28.776 C 256.800 28.543,256.620 28.464,256.400 28.600 C 256.180 28.736,256.000 28.556,256.000 28.200 C 256.000 27.844,255.822 27.663,255.603 27.798 C 255.385 27.933,254.791 27.628,254.284 27.120 C 253.776 26.612,253.054 26.256,252.680 26.328 C 252.264 26.408,252.000 26.205,252.000 25.806 C 252.000 25.447,251.820 25.264,251.600 25.400 C 251.380 25.536,251.200 25.457,251.200 25.224 C 251.200 24.991,250.880 24.800,250.488 24.800 C 250.097 24.800,249.517 24.440,249.200 24.000 C 248.883 23.560,248.303 23.200,247.912 23.200 C 247.520 23.200,247.200 23.020,247.200 22.800 C 247.200 22.580,246.880 22.400,246.488 22.400 C 246.097 22.400,245.517 22.040,245.200 21.600 C 244.883 21.160,244.303 20.800,243.912 20.800 C 243.520 20.800,243.200 20.620,243.200 20.400 C 243.200 20.180,242.840 20.000,242.400 20.000 C 241.960 20.000,241.600 19.820,241.600 19.600 C 241.600 19.380,241.240 19.200,240.800 19.200 C 240.360 19.200,240.000 19.020,240.000 18.800 C 240.000 18.580,239.629 18.400,239.176 18.400 C 238.723 18.400,238.464 18.220,238.600 18.000 C 238.736 17.780,238.478 17.600,238.027 17.600 C 237.576 17.600,236.982 17.240,236.707 16.800 C 236.432 16.360,235.891 16.000,235.504 16.000 C 235.117 16.000,234.800 15.820,234.800 15.600 C 234.800 15.380,234.451 15.200,234.024 15.200 C 233.597 15.200,233.136 15.020,233.000 14.800 C 232.864 14.580,232.313 14.400,231.776 14.400 C 231.239 14.400,230.800 14.220,230.800 14.000 C 230.800 13.780,230.440 13.600,230.000 13.600 C 229.560 13.600,229.200 13.420,229.200 13.200 C 229.200 12.980,228.966 12.800,228.680 12.800 C 227.944 12.800,226.007 11.859,226.003 11.500 C 226.001 11.335,225.449 11.200,224.776 11.200 C 224.103 11.200,223.640 11.058,223.748 10.885 C 223.855 10.712,223.460 10.530,222.871 10.481 C 222.282 10.433,221.740 10.215,221.667 9.997 C 221.593 9.778,221.188 9.600,220.767 9.600 C 220.345 9.600,220.000 9.420,220.000 9.200 C 220.000 8.980,219.865 8.834,219.700 8.875 C 218.975 9.055,215.200 8.290,215.200 7.962 C 215.200 7.763,214.660 7.600,214.000 7.600 C 213.340 7.600,212.800 7.420,212.800 7.200 C 212.800 6.980,212.260 6.800,211.600 6.800 C 210.940 6.800,210.400 6.620,210.400 6.400 C 210.400 6.180,209.961 6.000,209.424 6.000 C 208.887 6.000,208.336 5.820,208.200 5.600 C 208.064 5.380,207.333 5.200,206.576 5.200 C 205.819 5.200,205.200 5.020,205.200 4.800 C 205.200 4.580,204.480 4.400,203.600 4.400 C 202.720 4.400,202.000 4.220,202.000 4.000 C 202.000 3.780,201.280 3.600,200.400 3.600 C 199.520 3.600,198.800 3.420,198.800 3.200 C 198.800 2.980,197.900 2.800,196.800 2.800 C 195.700 2.800,194.800 2.620,194.800 2.400 C 194.800 2.178,193.733 2.000,192.400 2.000 C 191.067 2.000,190.000 1.822,190.000 1.600 C 190.000 1.380,189.046 1.200,187.880 1.200 C 186.714 1.200,185.543 0.983,185.278 0.718 C 184.799 0.239,151.612 -0.111,143.100 0.273 M166.800 67.200 C 166.800 67.420,167.039 67.600,167.332 67.600 C 169.010 67.600,174.000 71.156,174.000 72.352 C 174.000 72.657,174.377 73.233,174.837 73.632 C 175.297 74.031,175.556 74.547,175.413 74.779 C 175.270 75.010,175.454 75.200,175.823 75.200 C 176.291 75.200,176.432 75.436,176.289 75.981 C 176.177 76.410,176.236 76.815,176.420 76.881 C 176.604 76.946,176.796 78.035,176.846 79.300 C 176.896 80.565,177.086 81.600,177.268 81.600 C 177.451 81.600,177.600 84.030,177.600 87.000 C 177.600 92.079,177.646 92.400,178.376 92.400 C 178.803 92.400,179.264 92.580,179.400 92.800 C 179.536 93.020,180.447 93.200,181.424 93.200 C 182.401 93.200,183.200 93.380,183.200 93.600 C 183.200 93.820,184.100 94.000,185.200 94.000 C 186.300 94.000,187.200 94.180,187.200 94.400 C 187.200 94.620,187.920 94.800,188.800 94.800 C 189.680 94.800,190.400 94.980,190.400 95.200 C 190.400 95.420,191.030 95.600,191.800 95.600 C 192.570 95.600,193.200 95.780,193.200 96.000 C 193.200 96.220,193.740 96.400,194.400 96.400 C 195.060 96.400,195.600 96.580,195.600 96.800 C 195.600 97.020,195.960 97.200,196.400 97.200 C 196.840 97.200,197.200 97.380,197.200 97.600 C 197.200 97.820,197.496 98.000,197.858 98.000 C 198.706 98.000,203.600 102.905,203.600 103.754 C 203.600 104.109,203.780 104.400,204.000 104.400 C 204.220 104.400,204.400 104.940,204.400 105.600 C 204.400 106.260,204.580 106.800,204.800 106.800 C 205.039 106.800,205.200 108.333,205.200 110.600 C 205.200 112.867,205.039 114.400,204.800 114.400 C 204.580 114.400,204.400 114.940,204.400 115.600 C 204.400 116.260,204.220 116.800,204.000 116.800 C 203.780 116.800,203.600 117.073,203.600 117.407 C 203.600 118.650,197.600 124.000,196.205 124.000 C 195.872 124.000,195.600 124.180,195.600 124.400 C 195.600 124.620,195.150 124.800,194.600 124.800 C 194.050 124.800,193.600 124.980,193.600 125.200 C 193.600 125.429,192.400 125.600,190.800 125.600 C 189.200 125.600,188.000 125.429,188.000 125.200 C 188.000 124.980,187.280 124.800,186.400 124.800 C 185.520 124.800,184.800 124.620,184.800 124.400 C 184.800 124.180,184.080 124.000,183.200 124.000 C 182.320 124.000,181.600 123.820,181.600 123.600 C 181.600 123.380,180.700 123.200,179.600 123.200 C 178.500 123.200,177.600 123.020,177.600 122.800 C 177.600 122.580,176.621 122.400,175.424 122.400 C 174.227 122.400,173.136 122.220,173.000 122.000 C 172.864 121.780,171.413 121.600,169.776 121.600 C 168.059 121.600,166.800 121.431,166.800 121.200 C 166.800 120.955,164.867 120.800,161.800 120.800 C 158.733 120.800,156.800 120.955,156.800 121.200 C 156.800 121.422,155.733 121.600,154.400 121.600 C 153.067 121.600,152.000 121.778,152.000 122.000 C 152.000 122.220,151.460 122.400,150.800 122.400 C 150.140 122.400,149.600 122.580,149.600 122.800 C 149.600 123.020,149.161 123.200,148.624 123.200 C 148.087 123.200,147.536 123.380,147.400 123.600 C 147.264 123.820,146.803 124.000,146.376 124.000 C 145.949 124.000,145.600 124.180,145.600 124.400 C 145.600 124.620,145.330 124.800,145.000 124.800 C 144.670 124.800,144.040 125.160,143.600 125.600 C 143.160 126.040,142.603 126.355,142.363 126.300 C 142.122 126.245,141.790 126.470,141.625 126.800 C 141.460 127.130,141.116 127.803,140.862 128.295 C 140.608 128.787,140.400 129.541,140.400 129.971 C 140.400 130.401,140.220 130.864,140.000 131.000 C 139.538 131.285,139.451 134.667,139.900 134.867 C 140.065 134.940,140.496 135.540,140.859 136.200 C 141.221 136.860,141.896 137.578,142.359 137.795 C 142.821 138.012,143.200 138.338,143.200 138.518 C 143.200 138.699,143.380 138.736,143.600 138.600 C 143.820 138.464,144.000 138.633,144.000 138.976 C 144.000 139.333,144.342 139.600,144.800 139.600 C 145.240 139.600,145.600 139.780,145.600 140.000 C 145.600 140.220,145.960 140.400,146.400 140.400 C 146.840 140.400,147.200 140.580,147.200 140.800 C 147.200 141.020,147.335 141.166,147.500 141.125 C 148.180 140.955,151.200 141.698,151.200 142.035 C 151.200 142.236,151.740 142.400,152.400 142.400 C 153.060 142.400,153.600 142.580,153.600 142.800 C 153.600 143.020,154.140 143.200,154.800 143.200 C 155.460 143.200,156.000 143.380,156.000 143.600 C 156.000 143.820,156.540 144.000,157.200 144.000 C 157.860 144.000,158.400 144.180,158.400 144.400 C 158.400 144.620,158.850 144.800,159.400 144.800 C 159.950 144.800,160.400 144.980,160.400 145.200 C 160.400 145.420,160.929 145.600,161.576 145.600 C 162.223 145.600,162.864 145.780,163.000 146.000 C 163.136 146.220,163.687 146.400,164.224 146.400 C 164.761 146.400,165.200 146.580,165.200 146.800 C 165.200 147.020,165.920 147.200,166.800 147.200 C 167.680 147.200,168.400 147.380,168.400 147.600 C 168.400 147.820,168.940 148.000,169.600 148.000 C 170.260 148.000,170.800 148.180,170.800 148.400 C 170.800 148.620,171.340 148.800,172.000 148.800 C 172.660 148.800,173.200 148.980,173.200 149.200 C 173.200 149.420,173.751 149.600,174.424 149.600 C 175.137 149.600,175.544 149.767,175.400 150.000 C 175.253 150.239,175.737 150.400,176.600 150.400 C 177.463 150.400,177.947 150.561,177.800 150.800 C 177.656 151.033,178.063 151.200,178.776 151.200 C 179.449 151.200,180.000 151.380,180.000 151.600 C 180.000 151.820,180.540 152.000,181.200 152.000 C 181.860 152.000,182.400 152.180,182.400 152.400 C 182.400 152.620,182.760 152.800,183.200 152.800 C 183.640 152.800,184.000 152.980,184.000 153.200 C 184.000 153.420,184.540 153.600,185.200 153.600 C 185.860 153.600,186.400 153.780,186.400 154.000 C 186.400 154.220,186.760 154.400,187.200 154.400 C 187.640 154.400,188.000 154.580,188.000 154.800 C 188.000 155.020,188.360 155.200,188.800 155.200 C 189.240 155.200,189.600 155.364,189.600 155.565 C 189.600 155.766,190.321 156.051,191.202 156.200 C 192.083 156.349,192.710 156.621,192.597 156.805 C 192.483 156.989,193.248 157.558,194.295 158.070 C 195.343 158.581,196.549 159.315,196.975 159.700 C 197.402 160.085,197.911 160.400,198.107 160.400 C 198.303 160.400,199.154 161.120,200.000 162.000 C 200.846 162.880,201.737 163.600,201.982 163.600 C 202.593 163.600,205.198 166.253,205.209 166.887 C 205.214 167.169,205.934 168.019,206.809 168.776 C 207.684 169.533,208.400 170.478,208.400 170.876 C 208.400 171.274,208.562 171.600,208.760 171.600 C 208.959 171.600,209.454 172.409,209.860 173.399 C 210.267 174.388,210.735 175.198,210.900 175.199 C 211.065 175.199,211.200 175.560,211.200 176.000 C 211.200 176.440,211.380 176.800,211.600 176.800 C 211.820 176.800,212.000 177.160,212.000 177.600 C 212.000 178.040,212.180 178.400,212.400 178.400 C 212.620 178.400,212.800 178.940,212.800 179.600 C 212.800 180.260,212.980 180.800,213.200 180.800 C 213.420 180.800,213.600 181.599,213.600 182.576 C 213.600 183.553,213.780 184.464,214.000 184.600 C 214.240 184.749,214.400 187.471,214.400 191.424 C 214.400 195.541,214.250 198.000,214.000 198.000 C 213.780 198.000,213.600 198.900,213.600 200.000 C 213.600 201.100,213.420 202.000,213.200 202.000 C 212.980 202.000,212.800 202.540,212.800 203.200 C 212.800 203.860,212.620 204.400,212.400 204.400 C 212.180 204.400,212.000 204.940,212.000 205.600 C 212.000 206.260,211.820 206.800,211.600 206.800 C 211.380 206.800,211.200 207.160,211.200 207.600 C 211.200 208.040,211.020 208.400,210.800 208.400 C 210.580 208.400,210.400 208.642,210.400 208.939 C 210.400 209.741,209.198 212.000,208.771 212.000 C 208.567 212.000,208.400 212.326,208.400 212.724 C 208.400 213.122,207.684 214.067,206.809 214.824 C 205.934 215.581,205.214 216.430,205.209 216.711 C 205.198 217.340,201.788 220.800,201.179 220.800 C 200.936 220.800,200.046 221.520,199.200 222.400 C 198.354 223.280,197.422 224.000,197.128 224.000 C 196.833 224.000,196.368 224.360,196.093 224.800 C 195.818 225.240,195.235 225.600,194.797 225.600 C 194.358 225.600,194.000 225.788,194.000 226.018 C 194.000 226.247,193.775 226.408,193.500 226.374 C 192.718 226.279,191.200 226.855,191.200 227.247 C 191.200 227.441,190.840 227.600,190.400 227.600 C 189.960 227.600,189.600 227.780,189.600 228.000 C 189.600 228.220,189.240 228.400,188.800 228.400 C 188.360 228.400,188.000 228.580,188.000 228.800 C 188.000 229.020,187.460 229.200,186.800 229.200 C 186.140 229.200,185.600 229.380,185.600 229.600 C 185.600 229.820,185.060 230.000,184.400 230.000 C 183.740 230.000,183.200 230.180,183.200 230.400 C 183.200 230.620,182.660 230.800,182.000 230.800 C 181.340 230.800,180.800 230.980,180.800 231.200 C 180.800 231.420,180.145 231.600,179.344 231.600 C 176.971 231.600,176.827 232.083,176.813 240.100 C 176.806 244.005,176.651 247.200,176.469 247.200 C 176.287 247.200,176.218 247.740,176.315 248.400 C 176.447 249.302,176.334 249.600,175.858 249.600 C 175.460 249.600,175.310 249.822,175.455 250.200 C 175.594 250.561,175.192 251.260,174.443 251.960 C 173.759 252.599,173.200 253.409,173.200 253.760 C 173.200 254.112,172.912 254.400,172.560 254.400 C 172.209 254.400,171.417 254.940,170.800 255.600 C 170.183 256.260,169.391 256.800,169.040 256.800 C 168.688 256.800,168.400 256.980,168.400 257.200 C 168.400 257.420,167.860 257.600,167.200 257.600 C 166.540 257.600,166.000 257.780,166.000 258.000 C 166.000 258.237,164.533 258.400,162.400 258.400 C 160.267 258.400,158.800 258.237,158.800 258.000 C 158.800 257.780,158.260 257.600,157.600 257.600 C 156.940 257.600,156.400 257.420,156.400 257.200 C 156.400 256.980,156.130 256.800,155.800 256.800 C 155.470 256.800,155.200 256.620,155.200 256.400 C 155.200 256.180,154.930 256.000,154.600 256.000 C 154.270 256.000,154.000 255.820,154.000 255.600 C 154.000 255.380,153.812 255.200,153.582 255.200 C 152.982 255.200,151.200 253.335,151.200 252.706 C 151.200 252.415,150.840 251.917,150.400 251.600 C 149.960 251.283,149.600 250.703,149.600 250.312 C 149.600 249.920,149.420 249.600,149.200 249.600 C 148.980 249.600,148.800 249.240,148.800 248.800 C 148.800 248.360,148.620 248.000,148.400 248.000 C 148.180 248.000,148.000 247.190,148.000 246.200 C 148.000 245.210,147.820 244.400,147.600 244.400 C 147.350 244.400,147.200 242.057,147.200 238.171 C 147.200 231.202,147.060 230.800,144.629 230.800 C 143.843 230.800,143.200 230.620,143.200 230.400 C 143.200 230.180,142.570 230.000,141.800 230.000 C 141.030 230.000,140.400 229.820,140.400 229.600 C 140.400 229.380,139.871 229.200,139.224 229.200 C 138.577 229.200,137.936 229.020,137.800 228.800 C 137.664 228.580,137.113 228.400,136.576 228.400 C 136.039 228.400,135.600 228.220,135.600 228.000 C 135.600 227.780,135.060 227.600,134.400 227.600 C 133.740 227.600,133.200 227.420,133.200 227.200 C 133.200 226.980,132.491 226.800,131.624 226.800 C 130.757 226.800,129.941 226.628,129.811 226.417 C 129.681 226.207,129.310 226.136,128.987 226.260 C 128.639 226.394,128.400 226.252,128.400 225.912 C 128.400 225.502,128.057 225.389,127.200 225.515 C 126.480 225.620,126.000 225.513,126.000 225.245 C 126.000 225.000,125.449 224.800,124.776 224.800 C 124.063 224.800,123.656 224.633,123.800 224.400 C 123.944 224.167,123.545 224.000,122.847 224.000 C 122.187 224.000,121.536 223.820,121.400 223.600 C 121.264 223.380,120.801 223.200,120.371 223.200 C 119.349 223.200,118.077 222.463,116.750 221.100 C 116.161 220.495,115.468 220.000,115.211 220.000 C 114.575 220.000,113.600 218.981,113.600 218.317 C 113.600 218.020,113.240 217.517,112.800 217.200 C 112.360 216.883,112.000 216.303,112.000 215.912 C 112.000 215.520,111.820 215.200,111.600 215.200 C 111.380 215.200,111.200 214.855,111.200 214.433 C 111.200 214.012,111.014 213.605,110.787 213.529 C 110.224 213.341,110.214 205.462,110.776 205.275 C 111.009 205.197,111.200 204.648,111.200 204.055 C 111.200 203.435,111.540 202.731,112.000 202.400 C 112.440 202.083,112.800 201.585,112.800 201.293 C 112.800 200.608,115.872 197.560,117.300 196.829 C 117.905 196.518,118.400 196.115,118.400 195.932 C 118.400 195.750,118.760 195.600,119.200 195.600 C 119.640 195.600,120.000 195.420,120.000 195.200 C 120.000 194.980,120.619 194.800,121.376 194.800 C 122.133 194.800,122.864 194.620,123.000 194.400 C 123.136 194.180,124.036 194.000,125.000 194.000 C 125.964 194.000,126.864 194.180,127.000 194.400 C 127.136 194.620,127.867 194.800,128.624 194.800 C 129.381 194.800,130.000 194.980,130.000 195.200 C 130.000 195.420,130.540 195.600,131.200 195.600 C 131.860 195.600,132.400 195.780,132.400 196.000 C 132.400 196.220,132.940 196.400,133.600 196.400 C 134.260 196.400,134.800 196.580,134.800 196.800 C 134.800 197.020,135.340 197.200,136.000 197.200 C 136.660 197.200,137.200 197.380,137.200 197.600 C 137.200 197.820,137.740 198.000,138.400 198.000 C 139.060 198.000,139.600 198.180,139.600 198.400 C 139.600 198.620,140.039 198.800,140.576 198.800 C 141.113 198.800,141.664 198.980,141.800 199.200 C 141.936 199.420,142.487 199.600,143.024 199.600 C 143.561 199.600,144.000 199.780,144.000 200.000 C 144.000 200.220,144.540 200.400,145.200 200.400 C 145.860 200.400,146.400 200.580,146.400 200.800 C 146.400 201.020,147.120 201.200,148.000 201.200 C 148.880 201.200,149.600 201.380,149.600 201.600 C 149.600 201.820,150.320 202.000,151.200 202.000 C 152.080 202.000,152.800 202.180,152.800 202.400 C 152.800 202.620,153.700 202.800,154.800 202.800 C 155.900 202.800,156.800 202.980,156.800 203.200 C 156.800 203.452,159.533 203.600,164.200 203.600 C 168.867 203.600,171.600 203.452,171.600 203.200 C 171.600 202.980,172.331 202.800,173.224 202.800 C 174.204 202.800,174.749 202.642,174.600 202.400 C 174.456 202.167,174.863 202.000,175.576 202.000 C 176.249 202.000,176.800 201.820,176.800 201.600 C 176.800 201.380,177.300 201.200,177.912 201.200 C 178.565 201.200,179.261 200.870,179.600 200.400 C 179.917 199.960,180.428 199.600,180.734 199.600 C 181.415 199.600,184.000 196.847,184.000 196.122 C 184.000 195.835,184.180 195.600,184.400 195.600 C 184.639 195.600,184.800 194.026,184.800 191.678 C 184.800 187.622,183.460 184.800,181.534 184.800 C 181.228 184.800,180.717 184.440,180.400 184.000 C 180.083 183.560,179.503 183.200,179.112 183.200 C 178.720 183.200,178.400 183.020,178.400 182.800 C 178.400 182.580,178.040 182.400,177.600 182.400 C 177.160 182.400,176.800 182.220,176.800 182.000 C 176.800 181.780,176.440 181.600,176.000 181.600 C 175.560 181.600,175.200 181.420,175.200 181.200 C 175.200 180.980,174.829 180.800,174.376 180.800 C 173.923 180.800,173.664 180.620,173.800 180.400 C 173.944 180.167,173.537 180.000,172.824 180.000 C 172.151 180.000,171.600 179.820,171.600 179.600 C 171.600 179.380,171.060 179.200,170.400 179.200 C 169.740 179.200,169.200 179.059,169.200 178.887 C 169.200 178.715,168.713 178.534,168.118 178.485 C 167.522 178.436,166.856 178.216,166.638 177.998 C 166.419 177.779,165.826 177.600,165.320 177.600 C 164.814 177.600,164.400 177.459,164.400 177.287 C 164.400 177.115,163.905 176.934,163.300 176.884 C 162.695 176.834,162.142 176.622,162.072 176.412 C 162.001 176.203,161.416 176.137,160.772 176.266 C 159.922 176.436,159.600 176.346,159.600 175.939 C 159.600 175.527,159.178 175.419,158.000 175.531 C 157.007 175.626,156.400 175.516,156.400 175.242 C 156.400 174.999,155.950 174.800,155.400 174.800 C 154.850 174.800,154.400 174.620,154.400 174.400 C 154.400 174.180,153.860 174.000,153.200 174.000 C 152.540 174.000,152.000 173.820,152.000 173.600 C 152.000 173.380,151.460 173.200,150.800 173.200 C 150.140 173.200,149.600 173.020,149.600 172.800 C 149.600 172.580,149.060 172.400,148.400 172.400 C 147.740 172.400,147.200 172.220,147.200 172.000 C 147.200 171.780,146.660 171.600,146.000 171.600 C 145.340 171.600,144.800 171.420,144.800 171.200 C 144.800 170.980,144.260 170.800,143.600 170.800 C 142.940 170.800,142.400 170.620,142.400 170.400 C 142.400 170.180,141.849 170.000,141.176 170.000 C 140.463 170.000,140.056 169.833,140.200 169.600 C 140.341 169.372,139.996 169.200,139.400 169.200 C 138.804 169.200,138.459 169.028,138.600 168.800 C 138.736 168.580,138.477 168.400,138.024 168.400 C 137.571 168.400,137.200 168.220,137.200 168.000 C 137.200 167.780,136.851 167.600,136.424 167.600 C 135.997 167.600,135.536 167.420,135.400 167.200 C 135.264 166.980,134.715 166.800,134.180 166.800 C 133.640 166.800,132.984 166.444,132.707 166.000 C 132.432 165.560,131.998 165.200,131.742 165.200 C 131.025 165.200,127.879 163.486,127.153 162.700 C 126.797 162.315,126.301 162.000,126.051 162.000 C 125.800 162.000,124.797 161.190,123.821 160.200 C 122.845 159.210,121.798 158.400,121.495 158.400 C 120.898 158.400,119.200 156.634,119.200 156.012 C 119.200 155.803,118.480 154.918,117.600 154.047 C 116.720 153.176,116.000 152.218,116.000 151.920 C 116.000 151.621,115.640 151.117,115.200 150.800 C 114.760 150.483,114.400 149.903,114.400 149.512 C 114.400 149.120,114.220 148.800,114.000 148.800 C 113.780 148.800,113.600 148.440,113.600 148.000 C 113.600 147.560,113.420 147.200,113.200 147.200 C 112.980 147.200,112.800 146.660,112.800 146.000 C 112.800 145.340,112.620 144.800,112.400 144.800 C 112.180 144.800,112.000 144.350,112.000 143.800 C 112.000 143.250,111.820 142.800,111.600 142.800 C 111.380 142.800,111.200 142.260,111.200 141.600 C 111.200 140.940,111.020 140.400,110.800 140.400 C 110.547 140.400,110.400 137.600,110.400 132.800 C 110.400 128.000,110.547 125.200,110.800 125.200 C 111.020 125.200,111.200 124.570,111.200 123.800 C 111.200 123.030,111.380 122.400,111.600 122.400 C 111.820 122.400,112.000 121.860,112.000 121.200 C 112.000 120.540,112.180 120.000,112.400 120.000 C 112.620 120.000,112.800 119.640,112.800 119.200 C 112.800 118.760,112.980 118.400,113.200 118.400 C 113.420 118.400,113.600 118.040,113.600 117.600 C 113.600 117.160,113.780 116.800,114.000 116.800 C 114.220 116.800,114.400 116.440,114.400 116.000 C 114.400 115.560,114.580 115.200,114.800 115.200 C 115.020 115.200,115.200 114.880,115.200 114.488 C 115.200 114.097,115.560 113.517,116.000 113.200 C 116.440 112.883,116.800 112.375,116.800 112.072 C 116.800 111.769,117.340 111.017,118.000 110.400 C 118.660 109.783,119.200 109.102,119.200 108.885 C 119.200 108.668,119.727 108.071,120.370 107.558 C 121.014 107.046,121.453 106.486,121.347 106.313 C 121.240 106.141,121.444 106.000,121.800 106.000 C 122.156 106.000,122.336 105.820,122.200 105.600 C 122.064 105.380,122.244 105.200,122.600 105.200 C 122.956 105.200,123.136 105.020,123.000 104.800 C 122.864 104.580,123.044 104.400,123.400 104.400 C 123.756 104.400,123.936 104.220,123.800 104.000 C 123.664 103.780,123.851 103.600,124.216 103.600 C 124.581 103.600,125.356 103.105,125.940 102.500 C 126.523 101.895,127.495 101.145,128.100 100.832 C 128.705 100.520,129.200 100.115,129.200 99.932 C 129.200 99.750,129.560 99.600,130.000 99.600 C 130.440 99.600,130.800 99.420,130.800 99.200 C 130.800 98.980,131.160 98.800,131.600 98.800 C 132.040 98.800,132.400 98.620,132.400 98.400 C 132.400 98.180,132.760 98.000,133.200 98.000 C 133.640 98.000,134.001 97.865,134.003 97.700 C 134.008 97.253,136.026 96.400,137.080 96.400 C 137.586 96.400,138.000 96.220,138.000 96.000 C 138.000 95.780,138.360 95.600,138.800 95.600 C 139.240 95.600,139.600 95.420,139.600 95.200 C 139.600 94.980,140.050 94.800,140.600 94.800 C 141.150 94.800,141.600 94.620,141.600 94.400 C 141.600 94.180,142.140 94.000,142.800 94.000 C 143.460 94.000,144.000 93.820,144.000 93.600 C 144.000 93.380,144.720 93.200,145.600 93.200 L 147.200 93.200 147.200 87.400 C 147.200 83.800,147.352 81.600,147.600 81.600 C 147.822 81.600,148.000 80.533,148.000 79.200 C 148.000 77.867,148.178 76.800,148.400 76.800 C 148.620 76.800,148.800 76.440,148.800 76.000 C 148.800 75.560,148.935 75.199,149.100 75.197 C 149.465 75.193,150.400 73.251,150.400 72.497 C 150.400 72.198,150.580 72.064,150.800 72.200 C 151.020 72.336,151.200 72.254,151.200 72.018 C 151.200 71.360,153.710 69.225,154.500 69.212 C 154.885 69.205,155.200 69.020,155.200 68.800 C 155.200 68.580,155.470 68.400,155.800 68.400 C 156.130 68.400,156.400 68.220,156.400 68.000 C 156.400 67.780,156.749 67.600,157.176 67.600 C 157.603 67.600,158.064 67.420,158.200 67.200 C 158.339 66.975,160.271 66.800,162.624 66.800 C 165.141 66.800,166.800 66.959,166.800 67.200 " stroke="none" fill="#4c5c8c" fill-rule="evenodd"></path><path id="path1" d="M289.600 59.800 C 290.346 60.570,291.047 61.200,291.157 61.200 C 291.267 61.200,290.746 60.570,290.000 59.800 C 289.254 59.030,288.553 58.400,288.443 58.400 C 288.333 58.400,288.854 59.030,289.600 59.800 M190.600 125.200 L 187.800 125.459 190.700 125.529 C 192.414 125.571,193.600 125.436,193.600 125.200 C 193.600 124.980,193.555 124.832,193.500 124.871 C 193.445 124.909,192.140 125.058,190.600 125.200 M323.720 137.600 C 323.720 138.810,323.795 139.305,323.887 138.700 C 323.978 138.095,323.978 137.105,323.887 136.500 C 323.795 135.895,323.720 136.390,323.720 137.600 M324.460 142.676 C 324.427 144.258,324.535 145.636,324.700 145.739 C 324.865 145.841,324.949 144.997,324.886 143.862 C 324.682 140.184,324.521 139.737,324.460 142.676 M156.400 175.280 C 156.400 175.456,157.030 175.600,157.800 175.600 C 158.570 175.600,159.200 175.530,159.200 175.444 C 159.200 175.358,158.570 175.214,157.800 175.124 C 157.030 175.034,156.400 175.104,156.400 175.280 M324.542 181.800 C 324.541 183.780,324.608 184.640,324.692 183.712 C 324.776 182.784,324.777 181.164,324.695 180.112 C 324.612 179.060,324.543 179.820,324.542 181.800 M323.728 188.000 C 323.728 189.430,323.801 190.015,323.889 189.300 C 323.978 188.585,323.978 187.415,323.889 186.700 C 323.801 185.985,323.728 186.570,323.728 188.000 M59.600 289.800 C 60.346 290.570,61.047 291.200,61.157 291.200 C 61.267 291.200,60.746 290.570,60.000 289.800 C 59.254 289.030,58.553 288.400,58.443 288.400 C 58.333 288.400,58.854 289.030,59.600 289.800 M136.500 323.887 C 137.105 323.978,138.095 323.978,138.700 323.887 C 139.305 323.795,138.810 323.720,137.600 323.720 C 136.390 323.720,135.895 323.795,136.500 323.887 M186.700 323.889 C 187.415 323.978,188.585 323.978,189.300 323.889 C 190.015 323.801,189.430 323.728,188.000 323.728 C 186.570 323.728,185.985 323.801,186.700 323.889 M141.500 324.693 C 142.435 324.777,143.965 324.777,144.900 324.693 C 145.835 324.609,145.070 324.540,143.200 324.540 C 141.330 324.540,140.565 324.609,141.500 324.693 M180.112 324.695 C 181.164 324.777,182.784 324.776,183.712 324.692 C 184.640 324.608,183.780 324.541,181.800 324.542 C 179.820 324.543,179.060 324.612,180.112 324.695 " stroke="none" fill="#505c8c" fill-rule="evenodd"></path><path id="path2" d="M289.600 59.800 C 290.346 60.570,291.047 61.200,291.157 61.200 C 291.267 61.200,290.746 60.570,290.000 59.800 C 289.254 59.030,288.553 58.400,288.443 58.400 C 288.333 58.400,288.854 59.030,289.600 59.800 M190.600 125.200 L 187.800 125.459 190.700 125.529 C 192.414 125.571,193.600 125.436,193.600 125.200 C 193.600 124.980,193.555 124.832,193.500 124.871 C 193.445 124.909,192.140 125.058,190.600 125.200 M323.720 137.600 C 323.720 138.810,323.795 139.305,323.887 138.700 C 323.978 138.095,323.978 137.105,323.887 136.500 C 323.795 135.895,323.720 136.390,323.720 137.600 M324.460 142.676 C 324.427 144.258,324.535 145.636,324.700 145.739 C 324.865 145.841,324.949 144.997,324.886 143.862 C 324.682 140.184,324.521 139.737,324.460 142.676 M156.400 175.280 C 156.400 175.456,157.030 175.600,157.800 175.600 C 158.570 175.600,159.200 175.530,159.200 175.444 C 159.200 175.358,158.570 175.214,157.800 175.124 C 157.030 175.034,156.400 175.104,156.400 175.280 M324.542 181.800 C 324.541 183.780,324.608 184.640,324.692 183.712 C 324.776 182.784,324.777 181.164,324.695 180.112 C 324.612 179.060,324.543 179.820,324.542 181.800 M323.728 188.000 C 323.728 189.430,323.801 190.015,323.889 189.300 C 323.978 188.585,323.978 187.415,323.889 186.700 C 323.801 185.985,323.728 186.570,323.728 188.000 M59.600 289.800 C 60.346 290.570,61.047 291.200,61.157 291.200 C 61.267 291.200,60.746 290.570,60.000 289.800 C 59.254 289.030,58.553 288.400,58.443 288.400 C 58.333 288.400,58.854 289.030,59.600 289.800 M136.500 323.887 C 137.105 323.978,138.095 323.978,138.700 323.887 C 139.305 323.795,138.810 323.720,137.600 323.720 C 136.390 323.720,135.895 323.795,136.500 323.887 M186.700 323.889 C 187.415 323.978,188.585 323.978,189.300 323.889 C 190.015 323.801,189.430 323.728,188.000 323.728 C 186.570 323.728,185.985 323.801,186.700 323.889 M141.500 324.693 C 142.435 324.777,143.965 324.777,144.900 324.693 C 145.835 324.609,145.070 324.540,143.200 324.540 C 141.330 324.540,140.565 324.609,141.500 324.693 M180.112 324.695 C 181.164 324.777,182.784 324.776,183.712 324.692 C 184.640 324.608,183.780 324.541,181.800 324.542 C 179.820 324.543,179.060 324.612,180.112 324.695 " stroke="none" fill="#505c8c" fill-rule="evenodd"></path><path id="path3" d="M289.600 59.800 C 290.346 60.570,291.047 61.200,291.157 61.200 C 291.267 61.200,290.746 60.570,290.000 59.800 C 289.254 59.030,288.553 58.400,288.443 58.400 C 288.333 58.400,288.854 59.030,289.600 59.800 M190.600 125.200 L 187.800 125.459 190.700 125.529 C 192.414 125.571,193.600 125.436,193.600 125.200 C 193.600 124.980,193.555 124.832,193.500 124.871 C 193.445 124.909,192.140 125.058,190.600 125.200 M323.720 137.600 C 323.720 138.810,323.795 139.305,323.887 138.700 C 323.978 138.095,323.978 137.105,323.887 136.500 C 323.795 135.895,323.720 136.390,323.720 137.600 M324.460 142.676 C 324.427 144.258,324.535 145.636,324.700 145.739 C 324.865 145.841,324.949 144.997,324.886 143.862 C 324.682 140.184,324.521 139.737,324.460 142.676 M156.400 175.280 C 156.400 175.456,157.030 175.600,157.800 175.600 C 158.570 175.600,159.200 175.530,159.200 175.444 C 159.200 175.358,158.570 175.214,157.800 175.124 C 157.030 175.034,156.400 175.104,156.400 175.280 M324.542 181.800 C 324.541 183.780,324.608 184.640,324.692 183.712 C 324.776 182.784,324.777 181.164,324.695 180.112 C 324.612 179.060,324.543 179.820,324.542 181.800 M323.728 188.000 C 323.728 189.430,323.801 190.015,323.889 189.300 C 323.978 188.585,323.978 187.415,323.889 186.700 C 323.801 185.985,323.728 186.570,323.728 188.000 M59.600 289.800 C 60.346 290.570,61.047 291.200,61.157 291.200 C 61.267 291.200,60.746 290.570,60.000 289.800 C 59.254 289.030,58.553 288.400,58.443 288.400 C 58.333 288.400,58.854 289.030,59.600 289.800 M136.500 323.887 C 137.105 323.978,138.095 323.978,138.700 323.887 C 139.305 323.795,138.810 323.720,137.600 323.720 C 136.390 323.720,135.895 323.795,136.500 323.887 M186.700 323.889 C 187.415 323.978,188.585 323.978,189.300 323.889 C 190.015 323.801,189.430 323.728,188.000 323.728 C 186.570 323.728,185.985 323.801,186.700 323.889 M141.500 324.693 C 142.435 324.777,143.965 324.777,144.900 324.693 C 145.835 324.609,145.070 324.540,143.200 324.540 C 141.330 324.540,140.565 324.609,141.500 324.693 M180.112 324.695 C 181.164 324.777,182.784 324.776,183.712 324.692 C 184.640 324.608,183.780 324.541,181.800 324.542 C 179.820 324.543,179.060 324.612,180.112 324.695 " stroke="none" fill="#505c8c" fill-rule="evenodd"></path><path id="path4" d="M289.600 59.800 C 290.346 60.570,291.047 61.200,291.157 61.200 C 291.267 61.200,290.746 60.570,290.000 59.800 C 289.254 59.030,288.553 58.400,288.443 58.400 C 288.333 58.400,288.854 59.030,289.600 59.800 M190.600 125.200 L 187.800 125.459 190.700 125.529 C 192.414 125.571,193.600 125.436,193.600 125.200 C 193.600 124.980,193.555 124.832,193.500 124.871 C 193.445 124.909,192.140 125.058,190.600 125.200 M323.720 137.600 C 323.720 138.810,323.795 139.305,323.887 138.700 C 323.978 138.095,323.978 137.105,323.887 136.500 C 323.795 135.895,323.720 136.390,323.720 137.600 M324.460 142.676 C 324.427 144.258,324.535 145.636,324.700 145.739 C 324.865 145.841,324.949 144.997,324.886 143.862 C 324.682 140.184,324.521 139.737,324.460 142.676 M156.400 175.280 C 156.400 175.456,157.030 175.600,157.800 175.600 C 158.570 175.600,159.200 175.530,159.200 175.444 C 159.200 175.358,158.570 175.214,157.800 175.124 C 157.030 175.034,156.400 175.104,156.400 175.280 M324.542 181.800 C 324.541 183.780,324.608 184.640,324.692 183.712 C 324.776 182.784,324.777 181.164,324.695 180.112 C 324.612 179.060,324.543 179.820,324.542 181.800 M323.728 188.000 C 323.728 189.430,323.801 190.015,323.889 189.300 C 323.978 188.585,323.978 187.415,323.889 186.700 C 323.801 185.985,323.728 186.570,323.728 188.000 M59.600 289.800 C 60.346 290.570,61.047 291.200,61.157 291.200 C 61.267 291.200,60.746 290.570,60.000 289.800 C 59.254 289.030,58.553 288.400,58.443 288.400 C 58.333 288.400,58.854 289.030,59.600 289.800 M136.500 323.887 C 137.105 323.978,138.095 323.978,138.700 323.887 C 139.305 323.795,138.810 323.720,137.600 323.720 C 136.390 323.720,135.895 323.795,136.500 323.887 M186.700 323.889 C 187.415 323.978,188.585 323.978,189.300 323.889 C 190.015 323.801,189.430 323.728,188.000 323.728 C 186.570 323.728,185.985 323.801,186.700 323.889 M141.500 324.693 C 142.435 324.777,143.965 324.777,144.900 324.693 C 145.835 324.609,145.070 324.540,143.200 324.540 C 141.330 324.540,140.565 324.609,141.500 324.693 M180.112 324.695 C 181.164 324.777,182.784 324.776,183.712 324.692 C 184.640 324.608,183.780 324.541,181.800 324.542 C 179.820 324.543,179.060 324.612,180.112 324.695 " stroke="none" fill="#505c8c" fill-rule="evenodd"></path></g></svg>